<svg width="441" height="63" viewBox="0 0 441 63" fill="none" xmlns="http://www.w3.org/2000/svg">
<path d="M33.4452 0.284888C34.9059 -0.341872 37.4468 0.244024 37.8671 0.360083C39.5019 0.775162 40.2489 0.353314 41.495 0.533911C41.5909 0.547968 41.6695 0.563119 41.7323 0.577856C42.4764 0.757969 41 0.959879 42.33 1.07102C45.3083 1.31619 49.109 1.65012 52.0605 2.30149C53.2359 2.55685 52.5251 1.9691 52.6952 1.99583C53.7681 2.18266 54.814 2.5113 55.7743 2.78684C57.0347 3.14836 58.1561 3.43632 59.0546 3.21067C60.066 5.81081 60.5567 3.50433 63.8671 4.87766C64.1269 4.98137 64.2268 6.08464 63.1191 5.94602C62.0101 5.80537 60.5117 5.00827 59.0067 4.78489C58.645 4.72813 56.4275 5.06392 56.1601 5.05344C55.7719 5.02655 55.4608 4.9586 55.2089 4.86204C54.0353 4.41592 54.0791 3.34647 54.0067 3.25461C52.9687 2.02909 50.3121 2.58183 49.6855 2.57102C46.7435 2.44348 44.2764 2.08076 41.8192 2.31028C41.7904 2.31299 41.7613 2.31675 41.7333 2.32004C40.1833 2.50553 40.0291 3.48936 38.7997 3.49094C35.27 3.52584 33.6449 2.66742 30.8368 3.44797C33.7779 3.43368 36.7169 3.48777 39.2392 3.56711C40.7582 3.61576 39.9844 3.88596 41.0517 3.93235C41.9878 3.97272 42.8381 3.96856 43.7558 3.96165C44.9021 3.9531 46.0462 3.95423 47.2235 4.05344C47.9247 4.11516 47.0377 4.5087 47.7743 4.56516C51.6148 4.83612 55.5881 5.22804 59.0468 5.69407C59.1529 5.70591 59.2618 5.71765 59.373 5.72922C62.7553 6.03136 66.5194 6.12034 70.0468 5.95383C68.0724 5.24073 68.008 4.55786 71.6601 5.00657C71.7461 5.01323 71.8354 5.02088 71.9276 5.02805C72.372 5.06083 72.0497 5.14861 71.6122 5.2468L71.6552 5.24973C71.0092 5.35516 70.1257 5.485 70.9423 5.66184C71.1654 5.71023 71.3834 5.7469 71.5976 5.77512C72.9603 5.87224 74.1066 5.57238 75.3495 5.45676C78.8256 4.73515 82.8335 3.77764 86.8261 3.49387C95.1188 3.17422 102.837 3.29251 110.907 3.39524C112.966 3.42743 115.038 3.54213 117.127 3.78098C119.896 4.05642 122.994 4.87816 125.509 5.23997C129.807 5.78677 133.881 6.77088 137.614 7.20676C137.725 7.22043 137.836 7.23368 137.946 7.2468C138.713 7.3371 138.31 6.90639 138.46 6.89719C140.796 6.75528 139.938 7.38624 141.409 7.67747C145.143 8.40727 149.17 8.86021 153.072 8.92063C155.122 8.95297 157.223 8.69708 159.207 8.35227C161.564 7.91801 159.068 7.58545 161.521 7.58372C161.693 7.58134 161.156 8.07528 161.818 7.99973C163.11 7.85714 165.34 7.35637 166.85 7.14426C167.106 7.10915 167.328 7.08387 167.511 7.06711C169.508 6.90176 170.037 6.90749 171.098 6.66672C171.256 6.62305 171.603 6.5584 171.801 6.53879C172.02 6.51364 172.205 6.49981 172.415 6.48606C175.542 6.33836 178.992 6.53084 182.193 6.40403C182.888 6.37776 181.988 5.98439 183.05 5.90696C184.146 5.82896 187.021 5.84402 187.97 5.93333C188.942 6.02216 188.534 6.33939 188.707 6.41086C190.085 7.01248 193.469 6.15188 193.85 6.12961C197.029 5.9704 200.019 5.95431 202.972 5.98997C207.196 6.0418 211.3 6.20153 215.621 6.19309C221.149 6.18129 227.083 6.0152 232.359 6.03196C238.648 6.05352 243.977 6.267 250.084 6.22727C250.728 6.22334 249.974 5.75229 250.759 5.7468C259.116 5.68896 267.427 5.73996 275.748 6.06125C276.585 6.09394 275.507 6.50778 276.343 6.56516C281.449 6.9071 289.536 7.73022 292.564 5.9304C296.013 6.00378 300.243 6.08145 303.312 6.44895C305.323 6.68557 303.379 7.13314 305.831 6.94407C306.38 6.90194 305.668 6.50671 306.489 6.47336C309.995 6.33381 313.8 6.46806 317.241 6.27122C317.952 6.23028 317.761 5.87673 317.962 5.81321C319.642 5.3005 322.436 6.16064 323.023 6.22434C323.172 6.2399 323.319 6.25506 323.464 6.26926C327.867 6.68849 331.177 6.52917 335.333 6.5593C336.312 6.56664 335.151 6.08565 336.104 6.0759C341.083 6.0346 346.26 6.1003 351.166 6.39915C352.267 6.46947 351.247 6.85327 351.769 6.90793C352.86 7.02101 353.556 6.91601 354.231 6.80442C354.578 6.74949 354.903 6.69102 355.302 6.6677C355.693 6.65545 356.155 6.61676 356.96 6.86594C357.063 6.90066 357.169 6.93862 357.278 6.98118C357.75 7.16689 357.371 7.41115 357.446 7.47532C358.583 8.46998 360.013 8.22042 360.377 8.38254C362.487 9.30319 364.018 10.6712 365.139 12.2556C366.638 15.0309 365.967 16.5947 366.187 18.8757C366.204 19.3885 366.645 18.228 366.659 19.6736C366.66 23.7445 366.302 27.7873 366.045 31.8005C365.666 37.2976 365.249 42.8192 364.172 48.1511C363.873 49.5753 363.723 48.4952 363.668 48.5788C363.416 48.9665 363.29 49.3298 363.239 49.6618C363.089 50.6061 363.157 51.4061 362.981 51.78C361.162 55.1104 358.011 55.9908 356.115 57.4421C355.702 57.7395 355.319 58.0613 354.968 58.4157C347.233 61.5264 339.547 60.9805 332.032 61.2068C323.977 61.2445 315.966 61.0475 307.994 60.7585C307.798 60.7524 308.139 60.3255 307.747 60.3161C307.041 60.2987 306.456 60.3014 305.974 60.32C303.221 60.4249 303.489 60.9904 300.843 61.7361C300.057 61.9572 297.636 61.0434 297.418 60.9753C296.647 60.7286 297.432 60.0916 297.175 60.0456C295.029 59.6837 295.403 61.743 292.51 61.7693C292.419 61.7664 292.797 61.3843 292.554 61.3484C291.796 61.2357 291.054 61.3905 290.309 61.2624C288.619 60.9641 288.019 59.9659 285.445 60.5359C285.117 60.6086 285.611 61.7849 283.025 61.7058C282.73 61.6963 282.167 61.6876 281.46 61.6755C279.653 61.6546 277.008 61.5158 276.079 61.3874C274.793 61.2162 275.707 60.9068 275.618 60.8835C272.204 60.0908 273.536 59.9895 271.91 59.071C270.302 58.1346 270.551 59.9277 269.825 60.03C269.095 60.133 266.658 59.3584 266.07 59.1228C265.482 58.8892 266.278 58.7673 265.748 58.6052C262.227 57.5384 264.039 59.2267 262.813 59.3249C262.104 59.3842 261.451 59.3337 260.827 59.2175C258.928 58.8647 257.312 57.9055 255.384 57.6296C254.696 57.5329 255.23 57.8774 254.621 57.8523C252.167 57.76 250.704 57.2631 247.921 57.6023C247.452 57.6538 245.252 58.4493 243.79 57.9656C243.58 57.8951 244.143 57.5355 243.1 57.5271C241.54 57.5044 238.736 57.7575 237.097 58.1452C235.889 58.4244 237.374 58.7174 235.809 58.8142C235.11 58.86 236.329 58.3314 235.019 58.4441C234.116 58.517 232.25 58.855 230.725 58.9685C230.063 59.0192 229.484 59.0637 229.096 59.0935C227.829 59.1892 228.549 59.5466 228.448 59.5808C227.839 59.781 225.405 60.111 225.19 60.1179C217.109 60.5475 209.54 60.1403 201.875 60.3503C199.177 60.4143 196.479 60.4349 193.747 60.5124C192.917 60.5347 193.472 60.9588 193.346 60.9665C190.507 61.1592 192.74 60.0139 190.757 59.6413C191.046 60.5066 189.874 60.3543 187.876 60.4529C186.913 60.5012 187.438 60.8353 187.35 60.8699C185.923 61.3818 184.929 60.7255 184.672 60.5915C183.728 60.0984 182.696 60.6864 182.055 60.3581C181.409 60.0324 182.888 59.5392 180.971 59.5544C180.436 59.8675 181.859 60.67 180.41 60.8093C178.861 60.9592 176.945 61.023 174.894 61.0661C169.672 61.123 163.562 61.456 160.357 61.6306C157.454 61.7942 155.844 61.8512 154.341 61.8786C153.562 61.8905 152.81 61.8887 151.92 61.8659C147.273 61.7296 148.98 62.3043 146.099 62.5993C143.204 62.8847 144.609 61.3993 144.192 61.0827C143.785 60.766 143.339 61.0932 142.833 60.9187C142.329 60.7441 143.421 60.5283 142.233 60.4626C141.046 60.3982 137.795 60.9532 137.372 61.2829C136.478 61.9828 137.94 62.7305 134.793 62.4529C134.612 62.4363 135.201 62.0513 134.509 62.0075C131.102 61.8005 127.604 61.69 124.142 61.5583C121.996 61.4775 119.879 61.3373 117.789 61.1091C117.04 61.0254 117.741 60.6365 117.303 60.5818C112.768 59.9712 114.339 60.8087 111.749 61.3767C112.418 60.3587 111.108 59.5745 107.661 59.1677C105.586 58.9257 105.888 59.4338 104.51 59.6179C104.097 59.6722 102.659 59.204 102.371 59.4021C101.431 60.0535 102.732 60.9428 99.2372 60.3757C99.0834 60.3511 99.6003 59.9844 99.0663 59.9284C98.9679 59.9183 98.8714 59.9093 98.7773 59.9011C95.4901 59.5812 94.9637 60.1667 91.3124 60.0173C88.5926 59.8978 83.8968 59.337 80.5155 59.155C80.241 59.14 79.9866 59.126 79.7323 59.113C79.8339 57.9145 76.6386 58.0525 75.2792 58.7839C73.0812 58.5976 70.7267 58.4765 68.6171 58.2527C67.8926 58.1756 68.3876 57.85 68.2978 57.8074C66.9192 57.1412 65.9257 57.9156 65.4521 57.9284C63.232 57.9751 61.1993 57.8818 59.1884 57.8015C56.5574 57.6963 54.0032 57.5674 51.205 57.8103C51.0301 57.8256 50.7161 58.6574 49.4257 57.9939C49.3489 57.9473 50.9737 57.6266 48.6698 57.5105C46.3611 57.3944 42.028 56.7634 38.8114 57.031C38.1685 57.0842 36.6975 57.5092 35.3339 57.3249C35.061 57.2867 34.763 57.2224 34.5048 57.1228C34.2994 57.0445 34.5348 56.8091 34.2353 56.6667C33.2681 56.2138 32.7186 57.0539 31.581 56.3122C30.4406 55.5701 28.0451 55.0029 24.8095 55.4753C24.7061 55.4889 23.9346 56.1565 22.9179 56.1365C21.2947 56.104 18.9892 55.9379 17.2968 55.9118C16.4827 55.8995 16.9958 56.3276 16.8544 56.3327C14.2426 56.3945 11.9758 56.3074 9.70304 56.0945C7.25526 55.7381 4.55942 55.8795 1.85831 54.1726C1.73922 54.0633 1.59288 53.9176 1.43936 53.7439C0.481847 52.6246 -0.176191 50.0395 0.041904 48.238C0.38429 45.9201 2.49184 48.1268 1.86905 43.03C1.65121 40.9854 -0.935409 38.2284 0.625888 34.4949C0.647964 32.4873 0.786242 30.5106 1.00382 28.5798C1.55589 24.2705 2.72569 20.1257 3.68351 15.7956C3.85785 15.0264 4.11653 14.2658 4.43839 13.5144C4.55329 13.2243 4.44612 11.9348 4.9169 11.2741C5.60197 10.3068 6.27311 10.0173 6.8046 9.38352C7.70574 8.32562 8.55939 7.29109 9.34269 6.22629C10.5133 4.58808 12.3276 3.48008 14.2851 2.96946C15.5367 2.66057 15.1724 3.09889 16.6581 2.84836C18.139 2.63386 19.1025 2.06793 21.1679 2.14817C22.5004 2.20609 23.8389 2.85385 25.4814 3.06614C25.7764 3.10255 26.078 3.12332 26.3886 3.12083C26.4178 2.18218 27.8383 2.1259 30.2948 1.56028C30.7662 1.45387 30.2157 1.19481 30.4355 1.12766C31.3371 0.847108 32.226 1.01124 33.0849 0.739966C33.2935 0.674656 33.277 0.35568 33.4452 0.284888ZM314.825 60.3015C316.439 59.5117 310.167 59.4815 311.553 60.2868C311.639 60.3251 314.725 60.3385 314.825 60.3015ZM170.99 59.9226C171.691 59.4093 168.993 59.5181 169.588 59.9812C169.622 59.9972 170.954 59.9423 170.99 59.9226ZM75.2851 58.7849C76.733 58.9154 78.2066 59.0058 79.6796 59.0788C78.1888 59.5147 76.4045 59.4632 75.2851 58.7849ZM168.509 58.2507C170.218 58.5495 170.388 57.0425 168.57 57.5154C168.483 57.5426 168.421 58.2366 168.509 58.2507ZM17.2265 5.64133C15.98 5.95622 14.6992 6.38324 13.7343 6.76243C13.042 7.00342 11.9845 7.10922 11.6015 7.32102C11.4336 7.40061 11.2863 7.51252 11.1571 7.64524C10.2562 8.62628 9.76875 9.85567 8.95401 10.1745C7.97438 10.5657 8.49274 8.65398 6.71866 10.3513C7.32749 10.9376 7.88974 11.6226 8.48429 12.238C7.36613 13.6938 6.50282 15.0598 6.09464 16.4323C5.18992 19.5644 4.35706 22.7829 3.81925 26.0036C3.7177 26.639 4.26997 26.0666 4.17667 26.7439C4.07567 27.4926 3.96606 28.2113 3.87589 28.8786C3.60828 30.9172 3.30675 32.9057 3.28019 35.1716C3.25521 37.5552 3.6585 40.1738 3.79776 42.6189C2.8423 44.1111 3.25005 47.8327 3.57804 50.1697C3.69298 50.9599 3.43811 50.9686 3.48722 51.4734C3.57678 52.155 3.68672 52.1271 3.69327 51.9831C3.8367 52.0189 3.91939 51.8964 4.02237 51.821C4.11572 51.7351 4.22262 51.6755 4.18644 51.5798C3.94953 51.219 4.18822 51.4239 4.4589 51.5857C4.73347 51.7682 5.03592 52.0226 5.37101 52.2878C6.04917 52.8163 6.89552 53.4102 8.62687 53.5241C8.71465 53.5303 9.27494 53.3417 9.88565 53.1286C10.5425 52.8925 11.2674 52.626 11.4237 52.5993C13.4148 52.2652 11.7378 52.9727 12.9755 53.0945C15.2493 53.3079 16.8459 53.5821 19.5517 53.3191C20.3415 53.241 22.2402 52.6219 23.7714 53.1296C23.9724 53.1964 23.8581 53.5341 24.0204 53.5554C26.9624 53.9119 27.051 52.8474 28.7411 52.5036C30.4379 52.1584 33.0509 52.936 33.5849 53.1628C34.9752 53.7431 32.5045 53.3724 32.4316 53.4275C31.533 54.0532 33.4447 53.9702 34.9101 54.0691C34.9637 54.3729 35.1758 54.5894 35.4218 54.7204C36.0349 55.0424 36.9168 54.8515 36.4179 54.1726C36.3665 54.1044 35.8638 54.105 35.4433 54.0984C35.221 54.0948 35.014 54.0888 34.9101 54.0691C35.0799 53.9445 35.2628 53.8351 35.455 53.7409C36.7935 53.0912 38.7744 53.17 40.8896 54.0906C42.0232 54.5847 40.9156 55.0647 44.4179 55.0134C46.0069 54.9904 45.4233 54.247 46.829 54.1062C50.0405 53.7855 54.1588 54.6072 57.4442 54.5818C58.6346 54.5722 57.4857 54.1513 58.2987 54.1306C58.6246 54.1219 58.9483 54.1219 59.2636 54.1277C61.0687 54.1611 62.7375 54.3982 64.6024 54.3366C64.8049 54.3298 64.3289 53.9004 65.0194 53.9206C70.2038 54.0295 74.8166 54.7838 79.9423 54.9724C80.1524 54.9787 80.3661 54.9827 80.6024 54.9851C83.2839 55.0079 87.4453 54.9547 89.9491 55.1404C92.8079 55.3178 96.2155 55.93 98.9755 56.2575C100.95 56.4593 102.798 56.6894 104.37 56.7966C106.992 56.9849 106.463 56.5178 107.604 56.364C109.808 56.0782 113.402 57.4394 113.892 57.6257C113.894 57.6347 111.714 57.5172 112.858 57.8425C113.494 58.3477 113.868 57.6252 113.892 57.6257C114.214 57.7703 118.558 58.1907 119.431 58.1325C119.898 58.1116 119.656 57.7096 119.9 57.7058C121.328 57.6843 122.755 57.6523 124.184 57.612C128.687 57.4896 133.207 57.5076 137.761 57.6648C137.867 57.6734 137.705 58.1096 137.955 58.1238C141.449 58.3312 143.686 57.7975 146.558 57.4665C149.431 57.1346 151.689 57.2089 153.391 57.9177C153.655 57.8996 153.945 57.8864 154.225 57.8786C156.269 57.8274 158.804 57.9644 160.358 58.0202C162.137 58.0855 162.319 57.2088 162.471 57.1804C167.043 56.2556 170.07 56.4145 174.79 56.4167C175.043 56.417 175.313 56.4168 175.584 56.4157C178.06 56.402 182.904 56.2625 185.543 56.1657C187.629 56.0869 188.882 56.2843 190.799 56.1511C191.058 56.1333 190.795 55.7562 190.874 55.7409C193.009 55.2803 191.983 56.2092 192.427 56.3728C194.029 56.9647 195.021 57.2844 197.743 56.9636C198.372 56.8899 200.162 55.5241 201.272 55.406C201.436 55.3892 201.572 55.3802 201.686 55.3777C202.667 55.3556 202.386 55.7296 203.787 55.5798C203.922 55.5658 203.888 55.2716 204.863 55.2546C209.408 55.1696 214.335 55.2831 218.959 55.1277C219.59 55.1069 218.768 54.663 219.679 54.6247C223.158 54.4793 226.867 54.3083 230.357 54.1599C230.983 54.14 231.674 54.0791 232.397 54.0046C233.368 53.9019 232.821 54.3219 233.046 54.3835C234.449 54.7382 236.323 53.5477 236.664 53.4841C244.771 51.8211 251.169 52.8586 259.219 53.4177C259.458 53.4355 260.477 53.3081 261.649 53.3406C262.714 53.3658 263.86 53.518 264.513 53.9997C264.605 54.066 265.938 55.0814 267.28 54.7282C267.362 54.7051 266.538 54.1644 268.08 54.4372C269.626 54.7105 272.093 54.7792 274.107 55.4314C274.742 55.6383 276.244 56.5868 278.248 56.0456C278.356 56.019 280.218 55.2255 281.544 55.3083C281.948 55.3343 282.302 55.4394 282.551 55.6667C282.727 55.8327 282.535 56.888 284.971 56.3659C285.438 56.264 284.596 56.0244 285.821 55.8845C287.697 55.6683 290.191 55.9506 292.492 55.4626C292.892 55.3768 294.591 54.646 295.975 55.1687C296.19 55.2508 295.791 55.609 296.511 55.6374C299.549 55.7571 302.701 55.5136 305.809 55.5281C306.243 55.5303 306.679 55.5391 307.111 55.5564C308.386 55.609 307.751 56.1936 309.074 56.3181C310.401 56.4419 313.045 56.5591 314.416 56.2927C315.788 56.0254 314.283 55.1249 316.34 55.0447C321.612 54.8441 326.817 54.9855 331.999 55.0935C335.574 55.1664 339.154 55.2021 342.606 54.9822C343.861 54.8927 342.808 54.6647 344.612 54.4851C347.502 54.158 350.349 53.6905 353.47 52.0261C356.282 50.7713 358.2 48.7953 358.037 48.737C358.438 46.9331 358.758 45.4928 359.063 44.2048C360.129 39.5114 359.912 45.5578 360.514 41.9177C360.794 40.1405 359.886 38.1005 359.885 37.6687C359.87 35.3329 360.043 33.3977 360.218 31.4724C360.364 29.8408 360.533 28.2537 360.581 26.4988C360.602 25.7003 360.126 26.4529 360.148 25.7761C360.219 23.4687 360.543 21.0844 360.502 19.0495C360.476 18.1497 360.154 18.3147 360.145 17.5417C360.133 16.9472 360.106 16.4065 360.076 16.029C360.062 15.8416 360.045 15.6974 360.061 15.6687C360.092 15.6447 360.097 15.7384 360.484 16.1736C360.265 15.8064 360.004 15.4262 359.684 15.0281C359.592 14.9172 360.579 15.196 359.684 14.4568C358.641 13.6339 357.139 12.7113 355.37 12.2097C355.31 12.1937 355.401 12.2188 355.404 12.2204C355.408 12.223 355.368 12.2188 355.303 12.2146C355.177 12.2063 354.988 12.1994 354.791 12.198C354.39 12.1948 353.964 12.2108 353.525 12.2419C352.657 12.3084 352.595 13.0497 350.711 12.4978C350.299 12.3834 350.85 11.493 348.585 12.2351C348.22 12.3568 344.423 13.3607 342.579 12.6755C342.082 12.4944 340.864 11.7526 339.75 11.8611C339.607 11.8786 340.178 12.2823 339.303 12.3161C336.151 12.4282 332.823 12.3719 329.577 12.4861C328.694 12.5173 329.999 12.9359 328.698 12.9695C327.097 13.0119 325.303 13.0102 323.446 12.9831C321.319 12.9511 319.134 12.883 317.215 12.8083C315.954 12.7571 316.824 12.4157 316.734 12.3777C315.256 11.7665 314.334 12.5853 313.84 12.6325C310.768 12.9135 308.373 12.5238 305.534 12.6218C304.747 12.6478 305.304 13.0402 305.147 13.0749C303.514 13.4136 304.733 12.7126 303.694 12.6335C300.827 12.4103 297.593 12.4378 294.676 12.4851C293.607 12.503 294.808 12.9586 293.848 12.9695C288.152 13.0424 282.229 12.9952 276.671 12.7429C275.623 12.6946 276.281 12.3455 276.063 12.2654C274.559 11.7064 272.36 12.467 271.85 12.5398C269.544 12.8706 268.649 12.5614 266.612 12.6189C256.668 12.9049 244.393 12.7047 235 12.5866C223.27 12.4411 213.99 12.1401 202.989 12.2224C202.524 12.2258 202.062 12.2303 201.604 12.2351C200.867 12.2426 201.61 12.7042 200.978 12.7165C192.741 12.8598 184.616 12.6915 176.419 12.9529C175.743 12.9759 176.706 13.3986 175.654 13.4509C175.057 13.4817 174.429 13.5075 173.81 13.5339C173.503 13.5472 173.196 13.5611 172.934 13.5759C172.805 13.5831 172.686 13.5912 172.642 13.5945C172.623 13.5955 172.622 13.5964 172.682 13.5857C172.725 13.5791 172.898 13.5371 172.82 13.5544C170.996 13.9708 169.721 13.9628 168.772 14.0095C167.806 14.0465 169.037 13.5283 168.085 13.5769C167.976 13.5831 167.871 13.5894 167.767 13.5974C165.679 13.7923 162.892 14.3757 160.297 14.8239C159.113 15.0283 160.979 15.2159 159.422 15.4421C157.363 15.7286 155.24 15.9423 152.962 15.9167C147.392 15.8554 141.889 15.2259 136.58 14.2976C133.773 13.8162 131.028 13.1887 128.417 12.6111C127.769 12.4706 127.322 11.4668 125.92 11.4695C125.786 11.7093 125.756 12.0067 125.68 12.2712C125.389 12.24 125.099 12.2114 124.811 12.1853C119.115 11.3711 115.582 10.6112 110.861 10.6159C103.058 10.5334 94.8701 10.4147 87.4804 10.7253C86.1739 10.8339 84.8689 11.0075 83.5497 11.24C82.9896 11.3408 84.043 11.6386 82.9608 11.8406C81.0033 12.2097 79.0784 12.7262 76.8056 13.2175C71.1572 14.1556 66.7351 14.1139 61.5204 13.697C60.7766 13.6177 61.2058 12.8094 58.996 12.7947C58.9155 12.7935 58.701 12.786 58.4169 12.7732C57.2566 12.7197 55.2122 12.5548 54.5878 12.6384C54.4815 12.6554 54.977 13.1102 54.0185 13.0163C50.682 12.6853 47.2668 12.5177 43.786 12.4577C41.4232 12.4176 39.0939 12.3593 36.8105 12.2859C35.8761 12.2554 36.8638 11.8209 36.2021 11.7956C31.4867 11.6243 26.3937 12.0272 21.9491 11.8786C19.0072 11.8013 20.0449 11.0004 18.4276 10.4236C18.1788 10.3322 16.4608 10.5659 16.3036 10.1989C15.8023 9.22365 16.533 7.89243 15.914 6.8679C15.8527 6.75821 15.0785 6.90147 14.3798 7.12668C13.6994 7.36512 13.2202 7.48918 14.2929 6.71848C14.3634 6.66467 15.1022 6.36201 15.7167 6.16868C16.3566 5.96023 16.9644 5.78397 17.2128 5.65208C17.218 5.64921 17.2217 5.64429 17.2265 5.64133ZM256.364 56.907C256.346 56.4953 254.973 56.4817 255.381 56.8962C255.401 56.9193 256.379 57.0337 256.364 56.907ZM4.08292 22.7849C4.88628 21.4207 4.0673 19.9678 3.72647 20.5603C2.60906 22.5256 3.28522 24.162 4.08292 22.7849ZM25.7548 9.7927C25.7287 9.77297 24.3834 9.80171 24.3661 9.82297C23.6763 10.3232 26.3396 10.2652 25.7548 9.7927ZM15.2694 4.06809C12.7747 4.23989 13.3419 6.32807 15.3573 5.25364C15.4794 5.19729 15.4134 4.0648 15.2694 4.06809ZM37.3329 1.47434C36.5208 1.21477 34.2877 1.71527 35.2851 1.99875C36.087 2.21741 38.3206 1.78663 37.3329 1.47434Z" fill="#1CA54F"/>
<path d="M423.006 1.79762C423.573 1.21917 424.675 2.20044 424.802 2.36208C424.792 2.36669 424.184 2.45295 424.509 2.66774C424.688 3.10872 424.792 2.37451 424.802 2.36208C424.891 2.45148 426.158 2.63355 426.444 2.61012C426.595 2.58783 426.571 2.1907 426.65 2.18727C428.391 2.10054 431.02 2.7713 432.565 5.15016C432.602 5.21135 432.638 5.27369 432.674 5.33571C432.683 5.36723 432.303 5.58048 432.334 5.64723C432.752 6.58507 433.522 6.85439 434.198 7.45778C434.867 8.05859 435.04 8.72838 434.526 9.44509C434.846 9.96332 434.822 10.8707 434.777 11.3757C434.734 11.8815 435.561 11.6853 435.591 11.7205C436.377 12.6642 436.264 13.4385 436.379 14.4529C436.393 14.595 436.413 14.7428 436.442 14.8982C436.547 15.4698 436.95 16.5714 437.191 17.1795C437.384 17.6589 437.261 18.0063 437.492 18.4422C437.523 18.5012 437.877 18.3535 437.896 18.3689C438.457 18.7917 437.498 18.7451 437.36 18.8884C436.861 19.4108 436.601 19.7115 437.016 20.3259C437.11 20.4651 438.509 20.6668 438.641 20.9519C438.808 21.3192 438.313 21.2577 438.497 21.6414C438.513 21.6741 438.802 21.6173 438.831 21.8718C438.97 23.0552 438.965 24.3926 439.057 25.7039C439.067 25.8736 439.476 25.6563 439.54 25.8552C439.543 25.8646 439.546 25.8758 439.547 25.8875C439.644 26.9164 439.675 28.0504 439.497 29.072C439.452 29.3231 439.118 29.1802 439.023 29.2381C438.45 29.5935 439.32 30.0305 439.341 30.1091C439.821 31.9547 439.099 33.4118 439.5 35.3347C439.524 35.4391 440.45 36.2428 439.667 36.6179C439.615 36.6432 438.813 37.0078 439.362 37.3259C439.398 37.3453 439.81 37.1194 439.767 37.5164C439.725 37.9105 439.995 38.5587 439.527 39.1033C439.379 39.2767 438.57 39.6612 439.187 40.2088C439.235 40.2408 440.634 41.1427 439.619 41.3884C439.451 41.4272 438.406 41.3044 438.896 41.9851C438.991 42.1172 439.244 41.9104 439.362 42.2517C439.373 42.2838 439.383 42.3164 439.391 42.3494C439.531 42.5278 439.301 42.9588 439.753 43.4041C439.837 43.4851 440.564 43.8238 440.033 44.1638C439.95 44.2169 439.595 44.1345 439.561 44.3054C439.404 45.1237 439.68 46.0469 439.438 47.0047C439.352 47.343 438.784 47.1685 438.628 47.5164C438.473 47.865 438.3 48.5707 438.527 48.9783C438.754 49.3934 439.7 49.0224 439.712 49.658C439.711 51.6739 439.004 54.4424 436.434 56.658C435.671 57.3134 435.272 57.4361 434.918 57.5984C434.612 57.7222 434.334 57.8089 434.119 57.8689C433.657 57.9974 433.308 58.0661 432.958 58.1384C432.557 58.2165 432.961 58.4626 432.384 58.5886C430.36 59.0256 427.348 59.6212 425.755 59.0603C424.493 58.609 425.987 58.0654 425.043 57.9158C424.584 57.8454 424.186 58.9295 424.075 58.9724C423.04 59.3839 422.277 58.9622 421.335 59.158C421.142 59.1985 421.356 59.6142 421.191 59.6443C420.623 59.7492 420.015 59.5881 419.472 59.6472C419.228 59.6747 419.287 59.9986 419.06 59.9832C418.519 59.9497 418.036 59.8311 417.503 59.5437C417.456 59.5162 417.76 59.1006 417.364 59.0994C416.72 59.0985 415.917 58.821 415.186 59.1502C414.97 59.2491 414.977 59.9953 414.494 59.49C414.393 59.3839 414.501 58.4869 413.967 59.2713C413.878 59.4025 412.967 60.4613 412.504 59.7927C412.462 59.7327 412.398 59.6079 412.322 59.4744C412.179 59.217 411.99 58.9271 411.823 59.0047C411.789 59.0235 411.931 59.4229 411.722 59.4646C410.979 59.6048 410.201 59.5759 409.44 59.7185C409.237 59.7575 409.551 60.1645 409.247 60.2097C408.416 60.3336 407.37 60.2582 406.548 60.156C406.244 60.1176 406.441 59.7669 406.418 59.7302C406.046 59.1347 405.862 59.9613 405.747 60.0144C405.027 60.3273 404.461 59.9645 403.787 60.0945C403.604 60.1293 403.751 60.5151 403.716 60.5515C403.343 60.9084 403.601 60.1938 403.353 60.1267C402.661 59.9366 401.899 60.0023 401.205 60.0838C400.952 60.1142 401.257 60.5539 401.03 60.5759C399.666 60.7139 398.251 60.7423 396.778 60.5154C396.497 60.4707 396.67 60.119 396.611 60.0398C396.285 59.59 395.821 60.0055 395.547 60.2078C395.497 60.255 395.458 60.2916 395.434 60.3045C394.868 60.6185 394.666 60.3032 394.176 60.3455C391.774 60.5542 388.829 60.259 386.411 59.9304C384.199 59.6169 382.057 59.1629 379.752 58.1423C378.786 57.709 377.969 57.2498 377.116 56.7488C376.931 56.6382 376.868 57.1482 376.702 57.0554C374.58 55.8228 372.933 54.1631 371.231 52.3728C371.092 52.2231 370.945 52.7343 370.708 52.4988C370.218 52.0162 369.704 51.2887 369.431 50.615C369.298 50.2887 369.865 50.4675 369.729 50.1472C369.417 49.4016 369.026 48.6412 368.606 47.9021C368.427 47.5847 368.245 48.2758 368.043 47.8396C367.988 47.72 367.934 47.5989 367.882 47.4773C366.739 44.5447 366.277 42.5127 366.276 39.9334C366.279 39.7476 367.146 39.4231 366.901 39.0974C366.647 39.1206 366.353 39.1817 366.084 39.2234C365.218 35.639 365.029 31.9908 364.921 28.2224C364.917 28.063 364.442 28.3579 364.432 28.0476C364.375 26.2533 364.258 24.4479 364.91 22.573C364.976 22.3871 365.813 22.5633 365.743 22.0047C365.727 21.9087 365.719 21.0619 365.571 20.8152C365.546 20.7818 365.131 20.8774 365.161 20.6013C365.347 18.9912 365.845 17.2596 366.732 15.6961C366.876 15.4478 367.157 15.8853 367.262 15.7136C367.69 15.0111 368.029 14.2088 368.501 13.4656C368.798 12.9994 369.132 12.5591 369.573 12.2205C370.274 11.6925 370.686 12.3776 371.516 12.4802C371.63 12.4964 371.967 12.1132 372.305 12.3699C372.515 12.5366 372.721 12.7185 372.925 12.909C373.752 12.2334 375.035 12.5024 374.314 13.4841C374.161 13.697 374.082 12.7291 373.788 12.9461C373.584 13.1005 373.569 13.3185 373.588 13.5457C373.97 13.9154 374.363 14.2842 374.79 14.6023C374.886 14.676 374.952 14.5937 375.008 14.5906C375.061 14.59 375.118 14.6486 375.307 14.8757C375.344 14.8896 375.321 15.2122 375.425 15.4041C375.5 15.5303 375.89 15.7271 375.965 15.9158C376.041 16.1025 375.683 15.9806 375.733 16.2615C375.788 16.5436 376.233 16.7524 376.057 17.1072C375.932 17.3573 375.773 17.6275 375.595 17.906C375.337 18.296 374.981 18.8083 374.669 19.2976C374.529 19.5197 374.321 19.3111 374.214 19.4675C374.005 19.7808 374.037 20.1537 373.83 20.4949C373.759 20.6091 373.388 20.3578 373.323 20.4841C372.974 21.1806 372.958 21.9445 372.778 22.7459C371.906 26.7583 372.136 31.2119 372.694 35.6677C372.881 37.1451 372.869 38.9945 373.395 40.4636C373.457 40.635 373.79 40.4432 373.828 40.4695C374.405 40.8742 373.638 40.8688 373.63 41.242C373.59 42.492 373.927 43.9449 374.359 44.7888C374.419 44.9038 374.484 45.0151 374.551 45.1228C374.814 45.5316 375.261 44.7795 375.104 45.3845C375.095 45.4275 374.69 45.4973 374.715 45.6355C374.77 45.9521 375.133 46.4259 375.242 46.6443C375.45 47.0699 375.5 47.1333 375.766 47.4968C376.129 47.9928 376.476 48.6907 377.021 49.116C377.137 49.2039 377.289 48.7878 377.497 48.8992C377.703 49.0122 378.114 49.4423 378.207 49.6472C378.297 49.8523 378.026 50.0336 378.006 50.1121C377.841 50.7807 378.942 50.5848 379.023 50.6131C380.238 51.1819 381.104 52.0056 382.056 52.5252C382.302 52.656 382.559 52.7689 382.835 52.8543C383.882 53.1807 385.18 53.2057 386.364 53.3425C387.776 53.5051 389.016 53.7849 390.457 53.8123C390.608 53.8154 390.452 53.3373 390.637 53.3396C392.337 53.3644 394.034 53.4478 395.744 53.7136C395.973 53.7548 396.222 53.7956 396.481 53.8377C396.666 53.8683 396.43 54.2839 396.618 54.3396C397.787 54.668 399.768 55.3916 400.405 53.5593C401.231 53.5926 402.242 53.6195 402.998 53.9509C403.484 54.1644 403.042 54.6344 403.619 54.4177C403.749 54.3694 403.562 53.9818 403.759 53.9392C404.589 53.7604 405.51 53.8543 406.332 53.6228C406.5 53.5747 406.443 53.2223 406.489 53.157C406.871 52.6281 407.57 53.459 407.719 53.5183C408.845 53.9493 409.65 53.7494 410.686 53.7429C410.926 53.7414 410.635 53.2709 410.865 53.2527C411.324 53.2193 411.788 53.2033 412.259 53.2078C412.994 53.2153 413.733 53.2695 414.448 53.3845C414.706 53.427 414.479 53.8363 414.602 53.8777C415.149 54.0531 415.251 53.2855 415.773 53.4363C415.884 53.4671 415.832 53.8158 415.853 53.8533C416.184 54.4415 416.431 53.5864 416.511 53.5652C417.518 53.2778 418.199 54.1369 419.181 53.9685C419.297 53.9474 419.014 53.5208 419.342 53.4881C421.537 53.2665 423.853 53.2438 426.049 53.3972C426.392 53.4201 426.181 53.7697 426.206 53.8084C426.612 54.4085 426.752 53.5407 426.86 53.4978C427.697 53.1839 428.582 53.7981 429.034 52.7166C429.744 52.6926 430.447 52.6217 431.108 52.5086C431.445 52.4503 431.759 52.3838 432.046 52.3045C432.177 52.2682 432.314 52.2236 432.405 52.1873C432.415 52.1847 432.424 52.177 432.433 52.1726C433.357 51.2585 433.688 49.2511 434.215 47.1873C434.225 47.1419 434.645 47.2249 434.664 47.1336C434.892 46.0239 434.237 46.2431 433.42 45.5427C433.215 45.3677 434.152 44.761 434.221 44.7078C434.473 44.5127 435.103 44.6812 435.151 44.617C435.527 44.0879 433.468 44.2603 433.448 43.534C433.451 43.511 433.833 43.5991 433.869 43.5369C433.983 43.3451 433.83 43.1618 433.96 42.9724C434.235 42.5771 435.071 42.4554 434.848 41.9451C434.823 41.8918 434.786 41.8335 434.733 41.7693C434.662 41.6879 433.494 41.7023 433.59 41.1248C433.632 40.8958 433.663 39.8465 433.745 39.5535C433.83 39.2625 434.198 39.4738 434.217 39.4548C434.737 38.6637 434.934 38.9736 435.68 38.5769C436.42 38.1758 434.667 38.2646 434.473 38.0994C434.28 37.9333 434.694 37.3407 434.836 37.1931C434.979 37.047 435.218 37.2289 435.299 37.0984C435.824 36.2266 434.427 36.7227 434.147 36.4402C433.483 35.7807 434.774 35.2425 434.889 34.6209C434.919 34.4538 434.627 34.5959 434.596 34.448C434.477 33.8648 434.872 33.4974 434.48 32.8406C434.416 32.7326 433.619 32.2193 434.18 31.8504C434.261 31.798 434.588 31.9273 434.652 31.6736C434.748 31.2964 434.794 30.6155 434.67 30.2175C434.578 29.9233 434.059 30.2839 434.21 29.9041C434.277 29.7352 434.601 30.0308 434.702 29.7136C434.803 29.397 434.757 28.6029 434.733 28.2996C434.71 27.9985 434.312 28.1802 434.284 28.157C434.122 28.0154 433.903 27.443 433.901 27.3914C433.875 26.9526 433.87 26.519 433.878 26.0877C433.92 24.108 434.005 22.0782 433.38 20.0955C433.321 19.9081 432.932 20.127 432.919 20.0994C432.599 19.4887 433.822 19.7539 434.088 19.2097C433.258 19.4695 433.35 19.1638 433.148 18.7244C433.05 18.5129 432.753 18.7111 432.715 18.699C432.141 18.4897 432.725 18.1079 432.842 18.0164C433.27 17.6807 432.643 17.5819 432.928 17.3543C433.21 17.1266 433.767 17.3524 433.651 16.9099C433.319 16.8603 432.614 17.3832 432.403 17.0789C432.139 16.6987 431.964 16.168 431.842 15.5877C431.606 14.4438 431.526 13.1245 431.345 12.4627C431.075 11.4768 430.893 11.1988 430.766 10.6131C430.512 9.55823 430.125 10.1632 429.596 9.72731C429.058 9.31008 430.491 8.8549 430.724 8.61696C430.951 8.37474 430.614 8.44383 430.702 8.25075C430.789 8.05495 431.114 8.17691 431.018 7.88942C430.922 7.59153 429.999 7.23647 429.673 7.3611C429.491 7.4241 429.331 7.52122 429.188 7.61501C428.783 7.88473 428.539 8.11406 428.445 7.72927C428.437 7.69471 428.787 7.49951 428.726 7.38259C428.204 6.42337 426.898 5.98291 425.677 5.60036C425.505 5.54546 425.706 5.13126 425.603 5.0945C424.512 4.73412 424.856 5.49845 424.274 6.29372C424.417 5.21923 424.089 4.54043 423.226 4.56813C422.715 4.58823 422.827 5.05666 422.529 5.40895C422.441 5.51411 422.063 5.22047 422.018 5.44704C421.874 6.18807 422.272 6.96016 421.418 6.72243C421.38 6.71105 421.454 6.30514 421.325 6.29469C420.487 6.22998 420.482 6.99452 419.615 7.20485C418.935 7.37015 417.621 7.10203 416.8 7.14333C416.643 5.9413 415.935 6.32158 415.724 7.1902C415.189 7.22429 414.614 7.33733 414.072 7.26247C413.889 7.2365 413.982 6.87673 413.957 6.84059C413.935 6.80859 413.914 6.7812 413.894 6.75759C413.574 6.36104 413.408 7.10052 413.305 7.13844C412.103 7.53627 411.058 6.99337 409.927 7.67458C409.889 7.69966 409.866 8.54475 409.52 7.95192C409.497 7.91098 409.854 7.50344 409.307 7.51052C408.747 7.51847 407.684 7.13467 406.942 7.57106C406.762 7.67696 406.333 8.38679 405.926 7.87575C405.871 7.80607 405.912 7.5623 405.832 7.43239C405.57 7.01859 405.494 7.8753 405.179 7.16872C404.861 6.46244 404.265 5.95365 403.519 6.49196C403.496 6.50771 403.35 7.1914 403.105 7.19313C402.711 7.1956 402.164 7.08198 401.755 7.10524C401.563 7.1165 401.704 7.52836 401.672 7.53884C400.377 7.83309 399.433 7.49776 398.031 7.38259C397.773 7.36113 397.055 7.95489 396.546 7.51637C395.989 7.03554 396.494 4.96656 395.266 5.48415C394.775 5.69039 394.175 8.31228 393.251 6.9695C391.495 7.32139 389.882 6.62395 388.115 7.05446C388.035 7.07394 387.767 7.79329 387.578 7.77809C387.298 7.75268 387.158 7.40692 386.963 7.37673C386.887 7.36422 386.812 7.35487 386.737 7.34841C385.997 7.28502 385.305 7.50836 384.587 7.47243C384.283 7.45896 384.389 7.1056 384.022 7.09255C383.659 7.08148 383.434 7.55104 382.937 7.35036C382.564 7.19789 382.13 6.27443 381.614 6.20485C381.668 7.13866 381.327 7.14423 380.757 7.45192C380.646 7.51177 380.804 7.82198 380.754 7.86696C380.554 8.05684 380.322 7.81279 380.137 8.0193C380.092 8.06975 380.128 8.38541 380.095 8.44411C379.81 8.95217 379.147 8.32079 379.026 8.21266C378.577 7.79918 378.462 8.23787 378.141 8.09938C377.82 7.96128 378.221 7.66092 377.861 7.60329C377.49 7.54381 377.078 7.56435 376.676 7.60719C376.622 7.61278 376.505 7.67207 376.462 7.70485C376.111 7.97551 375.814 8.30119 375.562 8.58864C375.365 8.82036 375.827 8.9309 375.807 8.97048C375.516 9.49288 374.799 9.76071 375.337 10.4949C373.259 9.6773 375.322 10.9087 374.518 11.407C374.451 11.4442 373.514 10.9991 373.516 10.6951C373.519 10.3893 374.001 10.2113 374.001 9.76833C373.996 9.66869 373.474 8.69239 373.474 8.58864C373.446 7.8214 374.755 8.67477 374.836 8.70778C375.756 9.00518 375.36 7.86777 375.459 7.66872C375.564 7.41518 375.715 7.2049 375.888 7.02419C376.018 6.92427 376.378 6.74527 376.542 6.72829C376.972 6.59986 377.396 6.58448 377.787 6.35622C378.155 6.14303 378.041 5.13314 378.363 5.11598C379.45 5.06119 379.978 6.42071 380.859 5.09645C381.049 4.8156 380.737 3.72666 381.605 4.53102C381.664 4.58167 382.298 5.33504 382.607 4.81423C382.646 4.74838 382.628 4.42534 382.683 4.39528C383.056 4.2006 383.317 4.44791 383.727 4.31325C384.136 4.17871 384.635 3.98828 385.108 4.10036C385.394 4.16704 385.746 4.77582 385.877 4.92653C386.214 5.32811 386.603 4.77032 386.831 5.10719C386.847 5.1332 386.862 5.16436 386.876 5.20192C387.073 5.72771 386.609 6.49661 387.177 6.85329C387.23 6.01407 387.31 5.15295 387.375 4.30934C388.617 4.38386 389.851 4.67603 391.118 4.64333C391.275 4.63836 391.116 4.18578 391.284 4.16872C391.992 4.09832 392.614 4.41813 393.35 4.282C393.921 4.17467 394.539 3.68622 395.132 3.55348C395.516 4.50791 396.397 4.16095 397.046 4.22926C397.273 4.25293 397.266 4.5097 397.43 4.58864C398.047 4.87917 397.736 4.03987 397.897 3.90016C398.591 3.30557 398.721 5.22607 399.565 5.14626C399.609 5.14281 400.118 4.09514 400.189 4.02809C400.648 3.59254 400.284 4.38189 400.585 4.44509C401.141 4.55964 401.527 4.78697 402.16 4.45583C402.343 4.35713 402.759 3.69803 403.148 4.17262C403.199 4.23508 403.19 4.57365 403.229 4.59255C403.939 4.88692 403.91 3.82208 404.283 3.4402C404.661 3.05843 405.316 3.75749 405.453 3.96169C405.816 4.48957 405.214 4.20996 405.202 4.26442C405.032 4.91509 405.47 4.77995 405.821 4.81325C405.933 5.85276 406.408 5.76196 406.18 4.8445C406.154 4.74429 405.894 4.85681 405.821 4.81325C406.06 3.77286 406.583 3.61058 407.221 4.53005C407.524 4.96042 407.301 5.49851 408.115 5.25466C408.49 5.14371 408.298 4.43578 408.613 4.21852C409.346 3.72207 410.376 4.32418 411.153 4.16286C411.43 4.10447 411.131 3.73077 411.317 3.67751C411.837 3.53333 412.292 3.79656 412.813 3.60719C412.858 3.58975 412.718 3.1874 412.872 3.17067C413.142 3.14097 413.4 3.12618 413.642 3.12184C414.412 3.11412 415.263 3.16945 416.234 3.03688C416.83 2.95562 417.896 2.56564 418.558 2.51833C419.701 2.43098 421.204 2.84943 422.221 2.63259C422.888 2.49293 422.721 2.09383 423.006 1.79762ZM434.521 48.7664C435.272 49.2151 435.443 47.7207 434.607 48.0183C434.568 48.0354 434.488 48.7411 434.521 48.7664ZM435.707 34.8191C436.112 34.7955 435.99 34.476 435.618 34.5886C435.596 34.5956 435.581 34.8264 435.707 34.8191ZM432.913 14.6345C433.417 14.6824 433.286 14.0453 432.845 14.3064C432.829 14.3224 432.892 14.6295 432.913 14.6345ZM370.796 13.8679C370.501 13.4521 370.092 14.0025 370.586 14.1502C370.605 14.1567 370.808 13.8846 370.796 13.8679ZM435.226 13.4402C435.199 13.425 434.538 13.5798 434.516 13.6072C434.231 14.111 435.692 13.7862 435.226 13.4402ZM416.782 7.11305C416.505 7.63524 416.085 7.74971 415.724 7.19118C416.082 7.1775 416.433 7.13322 416.782 7.11305ZM379.456 6.64626C379.223 6.38699 378.719 6.79414 379.008 7.11305C379.236 7.36883 379.739 6.96824 379.456 6.64626ZM384.407 6.16091C385.029 6.67617 385.137 4.55674 384.449 4.98903C384.409 5.01366 384.37 6.13114 384.407 6.16091ZM390.342 4.98415C389.986 4.47277 389.68 5.59657 389.832 5.7986C390.337 6.46457 390.701 5.49636 390.342 4.98415Z" fill="#A2A2A2"/>
<path d="M393.155 32.0378C393.13 32.0501 393.027 32.1883 393.006 32.2116C392.836 32.4063 393.034 32.0241 393.032 31.986C393.047 31.8088 392.974 31.7544 392.889 31.7136C392.856 31.6984 392.821 31.6871 392.788 31.6667C392.764 31.6522 392.679 31.8744 392.653 31.8708C392.525 31.8404 392.42 31.7717 392.329 31.6267C392.309 31.5936 392.404 31.4121 392.397 31.3864C392.362 31.2756 392.227 31.6331 392.193 31.5358C392.186 31.5146 392.244 31.3527 392.247 31.3337C392.294 31.0355 392.138 31.4315 392.127 31.4382C391.971 31.5271 391.99 31.0777 391.835 31.1071C391.817 31.1113 391.807 31.333 391.759 31.3317C391.444 31.3246 391.058 31.2025 390.713 30.9118C390.66 30.8669 390.753 30.7239 390.756 30.7028C390.796 30.3825 390.625 30.7725 390.597 30.78C390.394 30.8297 390.407 30.446 390.071 30.8425C390.008 30.7901 389.945 30.7395 389.881 30.6892C389.114 30.1044 388.786 29.3322 389.086 28.7097C389.094 28.7009 389.296 28.6833 389.305 28.6667C389.395 28.4654 389.079 28.5488 388.669 28.4558C388.566 28.4303 389.033 28.2879 389.07 28.278C389.197 28.2376 389.51 28.245 389.535 28.2331C389.726 28.1404 388.699 28.2243 388.691 28.1023C388.693 28.0986 388.88 28.1039 388.901 28.0935C388.959 28.0605 388.883 28.0339 388.946 28.0017C389.094 27.9275 389.594 27.8914 389.301 27.8015C389.259 27.79 388.68 27.8203 388.705 27.7165C388.716 27.6748 388.706 27.4926 388.745 27.4431C388.784 27.3939 388.969 27.4305 388.979 27.4274C389.201 27.3147 389.307 27.3433 389.583 27.3132C389.62 27.3092 389.66 27.3047 389.704 27.3005C390.072 27.2839 389.202 27.2129 389.109 27.154C389.017 27.0921 389.257 26.9796 389.336 26.9831C389.414 26.9787 389.513 27.0545 389.559 27.0466C389.854 27.03 389.196 26.7951 389.108 26.6618C388.94 26.2978 389.56 26.583 389.67 26.571C389.704 26.5627 389.587 26.4707 389.599 26.4401C389.66 26.3186 389.829 26.4454 389.828 26.2243C389.825 26.1896 389.716 25.7975 389.916 26.0144C389.944 26.0463 390.003 26.1988 390.057 26.2097C390.14 26.2257 390.252 26.2067 390.285 26.1296C390.309 26.0721 390.141 25.8591 390.232 25.906C390.273 25.9276 390.299 26.0884 390.368 26.1169C390.437 26.1453 390.545 26.0855 390.584 26.0603C390.623 26.0349 390.511 25.8642 390.509 25.8503C390.495 25.771 390.526 25.6476 390.533 25.6423C390.619 25.5912 390.71 25.5653 390.801 25.5476C391.104 25.4663 391.442 25.4691 391.718 25.2898C391.747 25.2701 391.658 25.075 391.662 25.07C391.754 24.947 391.836 25.5163 391.964 25.6755C391.828 25.2642 391.895 25.3245 391.962 25.2575C391.993 25.2248 391.931 25.068 391.93 25.0505C391.928 24.7887 392.049 25.0983 392.073 25.1618C392.165 25.3943 392.143 25.1 392.203 25.2566C392.26 25.4126 392.255 25.662 392.323 25.6452C392.314 25.489 392.179 25.1019 392.225 25.0261C392.413 24.7346 392.869 25.0056 393.033 25.029C393.205 25.0498 393.257 25.0199 393.356 25.071C393.536 25.1642 393.459 24.8671 393.564 24.7253C393.67 24.5842 393.64 25.3243 393.66 25.4831C393.68 25.6414 393.692 25.4778 393.714 25.5642C393.735 25.6507 393.698 25.7597 393.741 25.7917C393.783 25.8233 393.899 25.5382 393.91 25.3718C393.936 25.019 393.874 24.6502 393.996 24.778C394.003 24.7856 393.984 24.9805 394.011 24.9997C394.074 25.0445 394.136 25.0768 394.202 25.1032C394.361 25.1631 394.519 25.2063 394.653 25.3181C394.679 25.3412 394.623 25.5491 394.637 25.5661C394.774 25.7287 394.774 25.3594 394.965 24.9851C394.827 25.5074 394.807 25.8386 394.91 25.8708C394.974 25.8916 395.031 25.6629 395.13 25.5202C395.161 25.4775 395.16 25.6476 395.206 25.5466C395.361 25.2182 395.445 24.8161 395.54 25.0261C395.541 25.0388 395.45 25.2116 395.467 25.2312C395.571 25.3599 395.742 25.0215 395.922 25.0603C396.064 25.0919 396.151 25.4122 396.243 25.5232C395.901 26.0233 396.07 25.9726 396.365 25.6716C396.411 25.722 396.474 25.7588 396.514 25.8151L396.549 25.8835C396.561 25.9218 396.431 26.0386 396.422 26.0564C396.27 26.3171 396.567 26.0438 396.598 26.0495C396.89 26.1256 396.745 26.4503 397.11 26.5271C397.122 26.5282 397.518 26.3778 397.261 26.5622C397.24 26.572 397.037 26.5744 397.062 26.6804C397.091 26.7961 396.92 27.0223 397.13 27.1267C397.181 27.1488 397.533 27.214 397.27 27.3073C397.235 27.319 397.113 27.3161 397.047 27.3327C396.836 27.3814 397.261 27.3912 396.901 27.445C396.54 27.4992 396.27 27.5497 396.51 27.6735C396.52 27.6773 396.85 27.7342 396.841 27.7732C396.825 27.8338 396.744 27.9091 396.735 27.9704C396.733 27.9993 396.934 28.0171 396.943 28.0232C397.019 28.2573 396.799 28.3657 396.658 28.5476C396.633 28.5793 396.867 28.783 396.627 28.7829C396.365 28.7789 395.427 28.3524 395.597 28.5964C395.669 28.6913 396.81 29.2539 396.185 29.1472C396.127 29.4231 395.747 29.3999 395.741 29.736C395.741 29.7518 395.973 30.0315 395.95 30.0515C395.913 30.0775 395.776 29.9738 395.746 29.987C395.721 29.9972 395.702 30.0127 395.686 30.031C395.767 30.166 395.839 30.3238 395.954 30.4704C396.019 30.5574 396.153 30.3955 396.179 30.406C396.443 30.5413 396.049 30.545 396.078 30.6921C396.103 30.8339 396.134 30.9763 396.163 31.1169C396.17 31.2249 396.21 31.3239 396.251 31.4157C396.274 31.4668 396.479 31.3503 396.497 31.3982C396.608 31.6815 396.644 31.9908 396.558 32.2829C396.542 32.3377 396.365 32.3285 396.326 32.3444C396.059 32.4527 396.449 32.5093 396.488 32.5319C396.665 32.6268 396.516 32.6877 396.553 32.7839C396.737 33.2633 396.636 33.8775 396.508 34.3903C396.418 34.732 396.334 35.0066 396.069 35.5329C395.865 35.8676 395.757 35.9787 395.747 36.0642C395.749 36.0745 395.957 36.1555 395.965 36.1648V36.1657C395.953 36.168 395.944 36.1687 395.939 36.1706C395.873 36.2004 395.864 36.2371 395.907 36.2634C395.926 36.2736 396.138 36.197 396.145 36.2126C396.149 36.2196 396.153 36.2271 396.157 36.2351C396.244 36.4838 396.312 36.6781 396.268 36.8347C396.286 36.8425 396.303 36.8507 396.32 36.8581C396.344 36.8659 396.391 36.6267 396.438 36.6452C396.709 36.758 396.923 36.7751 396.977 37.0476C396.983 37.0742 396.841 37.4773 396.903 37.4294C396.916 37.4207 396.987 37.3825 397.018 37.2956C397.023 37.2824 397.069 37.0887 397.081 37.0857C397.085 37.0847 397.088 37.0833 397.092 37.0827C397.266 37.1056 397.44 37.1935 397.593 37.3415C397.618 37.3682 397.543 37.5675 397.561 37.5886C397.695 37.7315 397.895 37.6058 397.996 37.8181C398.063 37.9608 397.971 38.3175 397.968 38.6823C397.968 38.734 398.023 38.75 397.999 38.9587C397.942 39.4841 397.829 40.0527 397.77 40.613C397.755 40.7338 397.914 40.6212 397.795 40.9021C397.784 40.9208 397.674 41.0051 397.639 41.1003C397.613 41.1663 397.612 41.3814 397.565 41.4636C397.52 41.5457 397.511 41.3636 397.446 41.4577C397.38 41.5529 397.36 41.7957 397.259 41.8073C397.026 41.8329 396.778 41.7124 396.601 41.5769C396.546 41.5346 396.606 41.4117 396.569 41.3767C396.498 41.3085 396.407 41.3546 396.339 41.2761C396.318 41.2477 396.397 41.0532 396.373 41.03C396.307 40.9678 396.236 40.9406 396.162 40.9187C396.048 40.8869 395.94 40.8581 395.845 40.8044C395.167 40.4022 394.749 40.0912 394.575 39.9939C394.028 39.8735 393.563 39.487 393.343 39.1706C393.014 38.7118 393.061 38.2536 392.88 37.9987C392.859 37.9691 392.694 38.0471 392.676 38.0466C392.421 38.0181 392.784 37.9345 392.811 37.8562C392.9 37.5967 392.88 37.3824 392.796 37.2185C392.776 37.1752 392.755 37.1336 392.733 37.0935C392.673 36.981 392.348 37.1903 392.517 37.0163C392.532 37.0049 392.726 36.9908 392.739 36.9538C392.767 36.8691 392.705 36.7308 392.712 36.6677C392.725 36.5446 392.721 36.5259 392.713 36.4118C392.704 36.2525 392.798 36.0642 392.768 35.8884C392.761 35.8497 392.557 35.884 392.529 35.8171C392.5 35.7497 392.542 35.5783 392.6 35.5319C392.658 35.4843 392.807 35.539 392.845 35.5368C393.156 35.5287 392.791 35.2612 392.791 35.2282C392.752 34.7473 393.153 34.5394 393.235 34.365C393.246 34.343 393.253 34.3226 393.257 34.3054C393.238 34.3091 393.222 34.1668 393.244 34.0622C393.281 33.9044 393.4 33.7483 393.385 33.5593C393.383 33.5398 393.149 33.5594 393.144 33.5368C393.119 33.2901 393.13 33.0453 393.254 32.7722C393.266 32.7444 393.476 32.7496 393.501 32.7194C393.651 32.5433 393.991 32.1672 393.093 32.2898C393.1 32.2148 393.103 32.1302 393.155 32.0378ZM397.748 38.7605C397.814 38.5311 397.726 38.4956 397.701 38.7419C397.7 38.7518 397.745 38.7695 397.748 38.7605ZM396.155 37.0085C396.138 37.02 395.726 37.2191 395.811 37.1941C395.925 37.1385 396.059 37.0718 396.18 37.0114C396.187 37.0097 396.187 37.0003 396.18 36.9812C396.171 36.9895 396.165 37.0005 396.155 37.0085ZM395.268 36.4441C395.461 36.4965 395.626 36.5569 395.772 36.6159C395.624 36.5347 395.444 36.4627 395.268 36.4441ZM395.971 36.1648C395.972 36.1888 395.983 36.2113 395.965 36.1657C395.967 36.1654 395.969 36.1651 395.971 36.1648ZM396.189 36.1286C396.162 36.1365 396.033 36.1531 395.971 36.1648C395.969 36.1479 395.972 36.1307 395.997 36.1345C396.002 36.1339 396.128 36.1296 396.196 36.1267C396.194 36.1272 396.192 36.128 396.189 36.1286ZM396.238 36.1257C396.234 36.1268 396.218 36.1257 396.196 36.1267C396.259 36.1106 396.27 36.1162 396.238 36.1257ZM395.062 29.7107C395.042 29.7997 395.071 29.8153 395.12 29.8064C395.113 29.7855 395.092 29.7516 395.062 29.7107ZM394.556 26.7526C394.587 26.5367 394.508 26.8919 394.506 26.9021C394.51 26.8527 394.434 26.7931 394.412 26.8308C394.4 26.8522 394.383 27.0455 394.378 27.0524C394.316 27.1402 394.269 27.1961 394.221 27.2155C394.122 27.2327 394.028 27.2216 393.931 27.1814C393.928 27.1759 393.929 26.9632 393.921 26.9528C393.797 26.8583 393.726 27.1269 393.638 27.2888C393.547 27.4506 393.474 27.4013 393.399 27.03C393.331 27.0802 393.222 26.9218 393.157 26.8259C393.092 26.73 393.118 27.1541 393.114 27.1628C392.992 27.443 392.893 27.2093 392.756 27.1911C392.69 27.1818 392.591 27.2639 392.555 27.321C392.526 27.3657 392.479 27.2763 392.465 27.3464C392.463 27.3558 392.522 27.5363 392.523 27.5437C392.562 27.7675 392.437 27.3239 392.404 27.2468C392.285 26.9697 392.204 26.8274 392.2 26.9802C392.196 27.0166 392.42 27.6455 392.425 27.6862C392.425 27.7387 392.334 27.5194 392.334 27.5827C392.334 27.5881 392.397 27.7212 392.38 27.7224C392.313 27.7286 392.201 27.7187 392.094 27.7663C392.051 27.788 392.01 27.8101 391.972 27.8337C391.956 27.8436 391.995 27.9068 392.026 27.9646C392.071 27.9737 392.094 27.9848 392.045 28.0007C392.059 28.0307 392.066 28.0547 392.054 28.0642C391.937 28.1467 391.82 28.2083 391.708 28.237C391.702 28.2559 391.69 28.2754 391.664 28.2956C391.657 28.3011 391.642 28.3038 391.622 28.3093C391.62 28.3079 391.618 28.3068 391.616 28.3054C391.602 28.2955 391.616 28.2751 391.635 28.2507C391.623 28.252 391.612 28.253 391.601 28.2536C391.603 28.2752 391.603 28.2959 391.602 28.3161C391.504 28.3401 391.325 28.3666 391.271 28.3982C391.201 28.4391 391.141 28.5123 391.273 28.5105C391.335 28.5084 391.463 28.48 391.587 28.4528C391.548 28.6252 391.457 28.7422 391.502 28.8396C391.531 28.894 391.662 28.5457 391.71 28.4274C391.748 28.4193 391.782 28.4129 391.81 28.4079C391.788 28.4 391.763 28.3919 391.738 28.3796C391.879 28.2638 391.93 28.4971 392.083 28.4567C392.115 28.4476 392.128 28.2322 392.156 28.2273C392.251 28.2089 392.333 28.3225 392.433 28.3269C392.479 28.3283 392.507 28.1675 392.546 28.1892C392.64 28.2393 392.719 28.3287 392.784 28.5036C392.79 28.5195 392.677 28.6999 392.752 28.7273C392.875 28.7717 392.988 28.9619 393.187 28.865C393.247 28.8358 393.373 28.4837 393.388 28.7624C393.391 28.8212 393.206 29.23 393.457 28.9118C393.494 28.8562 393.905 28.4595 393.868 28.8142C393.858 28.9072 393.766 29.2678 393.842 29.2419C393.853 29.2374 393.911 29.0436 393.966 29.0476C394.112 29.0646 394.239 29.1329 394.376 29.1853C394.396 29.1854 394.416 29.186 394.414 29.1511C394.408 29.0757 394.387 28.9728 394.46 28.9812C394.478 28.9836 394.528 29.0191 394.586 29.0622C394.604 29.0368 394.621 29.019 394.639 29.0232C394.724 29.0426 394.816 29.1015 394.912 29.1853C394.926 29.1934 394.944 29.208 394.97 29.2292C395.172 29.3931 395.402 29.7186 395.581 29.7771C395.287 29.4762 394.988 29.1652 394.692 28.863C394.808 28.7688 395.011 28.7475 395.095 28.6169C395.1 28.6081 395.048 28.5659 395 28.5261L394.921 28.6677C394.927 28.6521 394.929 28.6343 394.927 28.614C394.912 28.5182 394.72 28.3511 394.69 28.2614C395.155 28.3914 395.043 28.2272 395.107 28.1706C395.13 28.1503 395.252 28.1927 395.298 28.1872C395.468 28.1644 395.052 28.0679 394.994 28.03C394.744 27.8759 395.668 28.1417 395.673 28.031C395.665 28.02 395.195 27.8428 395.161 27.8298C394.969 27.7389 395.335 27.8616 395.38 27.8405C395.459 27.8014 395.588 27.7792 395.449 27.695C395.408 27.668 395.096 27.5955 395.344 27.5944C395.376 27.5938 395.545 27.6126 395.555 27.6101C395.726 27.5593 395.194 27.5211 395.014 27.4978C394.876 27.4826 395.061 27.4656 395.202 27.4519C395.16 27.3766 395.136 27.2802 395.069 27.2312C395.021 27.1958 394.881 27.2433 394.849 27.2009C394.797 27.1278 394.808 26.8072 394.705 26.8493C394.642 26.8779 394.593 27.0787 394.538 27.2087C394.441 27.4636 394.508 26.9794 394.506 26.9021C394.507 26.8981 394.556 26.8588 394.556 26.7526ZM396.165 29.1853L396.185 29.1472C396.177 29.1458 396.169 29.1458 396.16 29.1442C396.162 29.1583 396.164 29.1723 396.165 29.1853ZM395.166 28.8015C394.945 28.6682 395.343 29.0682 395.431 29.1198C395.727 29.2827 395.39 28.9313 395.166 28.8015ZM389.318 28.9548C389.709 28.9284 389.702 28.6955 389.312 28.82C389.292 28.8268 389.298 28.9546 389.318 28.9548ZM391.622 28.3093C391.661 28.3385 391.701 28.3614 391.738 28.3796C391.734 28.3827 391.729 28.3857 391.725 28.3894C391.723 28.3925 391.718 28.4067 391.71 28.4274C391.671 28.4357 391.629 28.4435 391.587 28.4528C391.596 28.4107 391.602 28.3655 391.602 28.3161C391.61 28.3144 391.616 28.311 391.622 28.3093ZM391.368 28.0417C391.226 27.8421 391.293 28.0837 391.32 28.1814C391.343 28.1879 391.394 28.1974 391.448 28.198C391.418 28.1458 391.387 28.0685 391.368 28.0417ZM391.57 28.0505C391.577 28.0782 391.585 28.1171 391.592 28.1716C391.618 28.1558 391.632 28.1329 391.624 28.0974C391.607 28.082 391.589 28.0668 391.57 28.0505ZM391.701 27.6696C391.579 27.6744 391.148 27.6792 391.369 27.7409C391.382 27.7256 391.414 27.7172 391.475 27.7204C391.482 27.7198 391.506 27.7336 391.535 27.7487C391.568 27.7499 391.601 27.7531 391.628 27.7653C391.636 27.769 391.642 27.7741 391.648 27.778C391.667 27.7727 391.681 27.7579 391.685 27.7263C391.688 27.7088 391.694 27.6897 391.701 27.6696ZM391.727 27.3659C391.707 27.3795 391.675 27.3935 391.63 27.406C391.556 27.4249 391.157 27.4714 391.475 27.5378C391.485 27.5408 391.618 27.5596 391.731 27.5817C391.756 27.5111 391.773 27.4349 391.727 27.3659ZM395.199 27.4704C395.198 27.4778 395.204 27.4771 395.211 27.4704C395.209 27.468 395.208 27.465 395.207 27.4626C395.202 27.4673 395.199 27.47 395.199 27.4704ZM395.999 27.1726C395.948 27.1542 395.606 27.2638 395.51 27.2829C395.296 27.3429 395.597 27.2019 395.537 27.2009C395.518 27.2067 395.36 27.3192 395.341 27.3317C395.3 27.3669 395.413 27.2722 395.353 27.3191C395.349 27.323 395.259 27.4096 395.219 27.4499C395.254 27.4464 395.285 27.4443 395.306 27.4411C395.578 27.4094 395.426 27.4511 395.451 27.4519C395.77 27.4599 395.717 27.4255 395.741 27.3972C396.262 27.3589 396.226 27.3033 395.764 27.3669C395.715 27.373 395.764 27.3898 395.741 27.3972C395.228 27.4034 395.165 27.4284 395.632 27.3142C395.849 27.257 396.109 27.2207 395.999 27.1726ZM389.919 26.8376C389.911 26.8298 389.879 26.8459 389.924 26.8903C390.067 27.0338 390.054 26.9678 389.919 26.8376ZM392.672 25.5095C392.675 25.7481 392.773 25.7553 392.724 25.5124C392.722 25.5028 392.672 25.4996 392.672 25.5095Z" fill="#A2A2A2"/>
<path d="M401.037 25.4432C401.3 25.389 401.623 25.4821 401.86 25.6004C401.934 25.6372 401.883 25.7652 401.933 25.7967C402.031 25.858 402.133 25.8032 402.228 25.8758C402.26 25.9005 402.194 26.1043 402.227 26.1258C402.406 26.2402 402.594 26.211 402.782 26.285C403.33 26.5027 403.873 26.6886 404.481 26.9685C404.938 27.1765 405.426 27.4757 405.825 27.8973C406.157 28.2364 406.3 28.7907 406.529 29.0281C406.557 29.0557 406.705 28.9435 406.722 28.9422C406.978 28.9223 406.638 29.0759 406.627 29.157C406.624 29.1797 406.621 29.2018 406.619 29.2225C406.724 29.7213 406.788 30.0914 406.905 30.3846C406.957 30.5177 407.298 30.3257 407.115 30.4959C407.103 30.5071 406.905 30.5 406.889 30.5389C406.854 30.628 406.904 30.7726 406.894 30.8328C406.873 30.9484 406.877 30.966 406.883 31.0682C406.888 31.2073 406.801 31.3702 406.854 31.5018C406.867 31.5293 407.063 31.4784 407.101 31.5203C407.138 31.5635 407.13 31.6801 407.086 31.7215C407.042 31.7629 406.884 31.7605 406.849 31.7703C406.747 31.7985 406.73 31.8292 406.753 31.8562C406.798 31.9173 406.989 31.9725 406.997 31.9852C407.206 32.3354 406.985 32.6685 406.993 33.0174C406.999 33.2838 407.076 33.578 407.043 33.8602C407.028 33.9878 406.994 34.1121 406.954 34.2381C406.933 34.3056 406.907 34.3695 406.884 34.4334C406.982 34.4034 407.085 34.3763 407.167 34.3894C407.003 34.8496 407.271 34.8233 407.387 34.9588C407.426 35.0051 407.348 35.1072 407.356 35.1648C407.388 35.3805 407.586 34.9987 407.662 34.9725C407.998 34.8735 407.404 35.629 407.567 35.7439C407.584 35.7412 408.031 35.4756 408.071 35.4715C408.315 35.4217 407.961 35.6125 407.99 35.6971C408.043 35.8533 408.012 36.0037 408.236 36.0447C408.3 36.0536 408.638 35.9695 408.493 36.1961C408.474 36.2255 408.33 36.3149 408.327 36.3289C408.29 36.5702 408.74 36.2892 408.957 36.3016C409.098 36.3094 409.049 36.4612 408.971 36.5809C408.922 36.631 408.869 36.6775 408.84 36.701C408.623 36.8762 408.716 36.7179 408.691 36.7264C408.687 36.7282 408.681 36.7295 408.677 36.7312C408.577 36.7635 408.524 36.7947 408.496 36.824C408.439 36.8737 408.476 36.9079 408.478 36.95C408.019 37.1985 408.088 37.2617 408.484 37.0174C408.527 36.9909 408.463 36.9713 408.478 36.95C408.957 36.7608 409.055 36.8063 408.682 37.1228C408.507 37.2719 408.255 37.3556 408.41 37.4412C408.481 37.4798 408.784 37.284 408.898 37.2889C409.159 37.2992 408.954 37.618 409.073 37.7244C409.117 37.7632 409.263 37.6209 409.299 37.6443C409.394 37.7071 409.309 37.8572 409.427 37.9187C409.441 37.9217 409.606 37.8081 409.626 37.8357C409.771 38.0637 409.774 38.3567 409.893 38.7166C409.951 38.884 410.148 39.2235 410.144 39.4539C410.145 39.5825 410.11 39.7222 410.061 39.8533C409.965 39.9871 409.848 40.1299 409.897 40.241C409.945 40.3489 410.151 40.3234 410.292 40.368C410.565 40.4541 410.08 40.6291 410.005 40.6541C410.002 40.653 409.952 40.5557 409.848 40.6102C409.63 40.644 409.996 40.6528 410.005 40.6541C409.957 40.669 409.913 40.8747 409.952 40.9178C409.976 40.9402 410.168 40.9271 410.176 40.9393C410.351 41.226 410.397 41.5803 410.253 41.9695C410.248 41.9759 410.035 41.9366 410.024 41.951C409.897 42.1547 410.13 42.3474 410.229 42.5935C410.328 42.8377 410.214 42.9996 409.823 42.9705C409.814 43.1274 409.576 43.2483 409.436 43.2986C409.346 43.3316 409.471 43.4319 409.568 43.5037C409.619 43.5393 409.664 43.5674 409.668 43.573C409.769 43.9446 409.475 43.9921 409.182 44.3055C409.05 44.4498 408.719 44.8799 408.352 45.1062C408.078 45.2823 407.841 45.2504 407.546 45.3543C407.505 45.3684 407.57 45.5503 407.558 45.5594C407.537 45.5754 407.517 45.5888 407.499 45.5994C407.414 45.7461 407.429 45.3308 407.399 45.2547C407.285 44.9625 407.227 44.8067 407.088 44.9549C407.058 44.9888 406.977 45.6588 406.907 45.699C406.819 45.7492 406.849 45.5105 406.759 45.5682C406.751 45.5728 406.753 45.7197 406.695 45.7137C406.426 45.6837 406.138 45.5817 405.852 45.5613C405.812 45.5579 405.834 45.795 405.775 45.7947C405.498 45.7876 405.185 45.7198 404.938 45.5408C404.879 45.4959 404.964 45.3493 404.962 45.2986C404.961 45.2692 404.958 45.2461 404.953 45.2283C404.929 45.066 404.753 45.3791 404.735 45.3816C404.282 45.462 404.103 44.9956 403.629 44.9998C403.604 45.0042 403.243 45.344 403.323 44.95C403.327 44.9232 403.421 44.5243 403.236 44.74C403.224 44.7538 403.184 44.9636 403.107 44.9031C403.032 44.8439 402.826 44.8926 402.816 44.6277C402.811 44.5427 402.929 44.1508 402.657 44.3592C402.644 44.3784 402.074 44.8733 402.282 44.4119C402.317 44.3354 402.624 43.9099 402.342 44.0418C402.286 44.0667 402.264 44.1948 402.154 44.2059C401.981 44.22 401.932 44.0047 401.648 44.0691C401.601 44.0831 401.255 44.2554 401.359 43.9793C401.376 43.9368 401.521 43.8325 401.495 43.7791C401.381 43.5465 401.132 43.4055 401.034 43.1326C401.039 43.1285 401.044 43.122 401.05 43.1141C401.072 43.072 401.306 42.9115 401.343 42.8338C401.379 42.7563 401.362 42.6175 401.216 42.6404C401.069 42.6633 400.762 43.0083 400.66 42.9363C400.194 42.598 400.008 41.7709 399.878 41.0603C399.857 40.9531 399.72 41.0791 399.681 40.9187C399.51 40.3246 399.418 39.2576 399.861 38.91C400.202 38.641 400.32 39.0871 400.482 38.8768C400.558 38.7803 400.083 38.5276 400.076 38.491C400.007 38.2237 400.196 38.1058 400.271 37.9334C400.282 37.9108 400.288 37.8859 400.286 37.8572C400.284 37.8211 400.074 37.774 400.074 37.7439C400.074 37.6416 400.2 37.5774 400.219 37.4783C400.226 37.434 400.071 37.3831 400.098 37.3484C400.16 37.2643 400.258 37.2011 400.439 37.156C400.456 37.1521 400.621 37.2876 400.658 37.2146C400.718 37.0941 400.922 36.993 400.857 36.7605C400.837 36.6915 400.502 36.5296 400.79 36.5242C400.852 36.5219 401.232 36.7595 400.961 36.4441C400.909 36.4009 400.608 35.8685 400.991 35.906C401.09 35.9171 401.449 36.0437 401.458 35.9383C401.458 35.922 401.268 35.8419 401.303 35.7654C401.431 35.4953 401.687 35.2665 401.908 35.0232C401.956 34.9704 401.819 34.9039 401.811 34.8309C401.808 34.8135 401.812 34.7962 401.828 34.7801C402.05 34.5543 402.358 34.4404 402.573 34.4012C402.646 34.388 402.681 34.5334 402.696 34.5701C402.737 34.5465 402.777 34.5276 402.807 34.5164C402.795 34.4584 402.782 34.4005 402.787 34.3875C402.877 34.1828 403.066 34.3073 403.158 34.2078C403.183 34.1809 403.077 34.0136 403.076 33.9949C403.066 33.8118 403.17 34.1511 403.226 34.1678C403.323 34.1982 403.395 34.1812 403.451 34.1521C403.447 34.0599 403.46 34.0058 403.533 34.0848C403.529 34.041 403.423 33.8843 403.438 33.8699C403.522 33.7909 403.535 33.7721 403.474 33.9373C403.491 33.9403 403.511 33.9444 403.532 33.95C403.559 33.9572 403.68 34.0839 403.711 34.1092C403.933 34.2799 403.675 33.9966 403.648 33.9715C403.539 33.8443 403.665 33.9338 403.656 33.8963C403.612 33.7479 403.672 33.7247 403.73 33.7332C403.743 33.7171 403.756 33.6927 403.769 33.6648C403.878 33.3872 404.038 32.988 403.966 32.5535C403.96 32.5259 403.731 32.5694 403.725 32.5457C403.692 32.4175 403.683 32.2869 403.676 32.156C403.658 31.8957 403.659 31.6622 403.606 31.4637C403.598 31.4367 403.384 31.4908 403.364 31.448C403.325 31.3585 403.328 31.2546 403.392 31.1775C403.422 31.1398 403.615 31.169 403.642 31.1307C403.704 31.0414 403.71 30.9619 403.667 30.9148C403.652 30.9007 403.517 30.9362 403.455 30.9422C403.401 30.7794 403.414 30.6822 403.474 30.5769C403.486 30.5593 403.85 30.2819 403.765 30.3143C403.663 30.3901 403.544 30.481 403.436 30.5633C403.345 30.5499 403.454 30.5114 403.269 30.3787C403.199 30.3375 403.11 30.2969 403.011 30.2644C402.993 30.2587 402.961 30.4996 402.928 30.491C402.728 30.435 402.494 30.4566 402.281 30.1775C402.26 30.1483 402.341 29.7304 402.253 29.782C402.236 29.7917 402.112 29.8314 402.069 29.9187C402.063 29.9339 402.056 30.132 402.019 30.1326C401.8 30.133 401.576 30.0627 401.364 29.9227C401.33 29.8996 401.386 29.6909 401.361 29.6727C401.185 29.545 400.975 29.6932 400.813 29.4949C400.704 29.3613 400.758 28.9953 400.702 28.6326C400.694 28.5817 400.619 28.5717 400.617 28.3621C400.61 27.8337 400.659 27.2555 400.647 26.6922C400.644 26.5709 400.511 26.7008 400.591 26.408C400.597 26.3879 400.695 26.2917 400.722 26.1932C400.74 26.1247 400.713 25.9103 400.75 25.823C400.785 25.7361 400.822 25.9159 400.879 25.8143C400.938 25.7115 400.923 25.4673 401.037 25.4432ZM408.827 43.4705C408.606 43.4396 409.227 43.8563 409.135 43.6658C409.128 43.6555 408.844 43.4753 408.827 43.4705ZM406.806 35.3182C406.619 35.7027 406.339 36.0255 405.977 36.2254C405.932 36.2491 405.824 36.0634 405.771 36.0779C405.716 36.0933 405.652 36.1051 405.587 36.118C405.224 36.2293 404.923 36.2175 405.156 36.9412C404.969 37.0042 404.767 37.0603 404.562 36.9559C404.432 36.8882 404.413 36.648 404.356 36.781C404.344 36.8108 404.456 36.9766 404.431 37.0076C404.324 37.1372 404.156 37.1467 404.091 37.2957C404.078 37.3264 404.168 37.4802 404.177 37.5115C404.249 37.7639 403.97 37.4326 403.935 37.4178C403.814 37.3567 403.743 37.3618 403.695 37.3875C403.658 37.406 403.644 37.4473 403.611 37.4764C403.597 37.4894 403.78 37.6356 403.778 37.6531C403.758 37.725 403.684 37.7958 403.519 37.8924C403.482 37.9132 403.314 37.7951 403.287 37.8016C403.167 37.8371 403.508 38.0119 403.4 38.0516C403.378 38.0602 403.224 37.9836 403.204 37.9783C402.908 37.9098 403.281 38.1166 403.285 38.1316C403.34 38.3354 402.886 38.2869 402.88 38.4793C402.88 38.5024 403.102 38.5343 403.089 38.5945C403.061 38.7226 403.019 38.8517 402.965 38.9783C402.87 39.1933 402.746 39.3861 402.594 39.5779C402.559 39.6224 402.403 39.5642 402.382 39.5633C402.059 39.5741 402.477 39.6662 402.491 39.6814C402.592 39.8087 402.234 39.9353 402.743 39.9959C402.603 40.5052 403.008 40.679 403.118 41.5193C403.118 41.5313 402.945 41.6421 402.946 41.6639C402.951 41.691 402.958 41.7133 402.967 41.7303C403.021 41.8443 403.252 41.6535 403.571 41.4783C403.656 41.4248 403.361 41.8067 403.344 41.8426C403.272 41.9544 403.032 42.154 403.02 42.1795C402.951 42.3877 403.649 41.6318 403.714 41.6863C403.715 41.6896 403.581 41.8249 403.575 41.8445C403.556 41.9065 403.625 41.8657 403.603 41.9324C403.553 42.0854 403.273 42.5033 403.532 42.3318C403.565 42.3083 403.892 41.8246 403.947 41.8963C403.97 41.9264 404.11 42.0031 404.132 42.0584C404.153 42.1142 404.033 42.2605 404.03 42.2703C404.024 42.5533 403.93 42.6187 403.821 42.9793C403.72 43.3408 404.107 42.5536 404.176 42.4793C404.244 42.4061 404.243 42.6335 404.237 42.7098C404.23 42.7854 404.149 42.8798 404.153 42.9266C404.187 43.2333 404.397 42.5618 404.498 42.4539C404.73 42.1969 404.556 42.8274 404.64 42.9285C404.661 42.9549 404.692 42.8103 404.721 42.8055C404.834 42.7925 404.826 43.0048 404.999 42.868C405.029 42.8442 405.238 42.5062 405.207 42.7957C405.203 42.8377 405.129 42.9848 405.16 43.033C405.207 43.1052 405.314 43.1744 405.399 43.1424C405.461 43.1179 405.477 42.8455 405.518 42.9432C405.536 42.9869 405.44 43.1215 405.478 43.1912C405.485 43.2034 405.496 43.2155 405.508 43.2254C405.562 43.2713 405.663 43.29 405.706 43.2947C405.759 43.3005 405.773 43.0962 405.78 43.0838C405.821 43.0133 405.929 42.9356 405.937 42.9363C406.334 42.9824 406.738 43.3362 407.172 43.1922C407.205 43.1811 407.166 42.9695 407.171 42.9656C407.264 42.8775 407.242 43.3317 407.31 43.5564C407.317 43.5816 407.326 43.604 407.337 43.6219C407.277 43.1937 407.314 43.2681 407.337 43.2117C407.346 43.1842 407.279 43.0327 407.274 43.0135C407.178 42.7782 407.316 43.076 407.362 43.1277C407.508 43.328 407.37 43.0696 407.479 43.1932C407.6 43.307 407.7 43.5388 407.768 43.4803C407.68 43.3513 407.387 43.0683 407.369 42.9969C407.285 42.7994 407.592 42.6983 407.769 42.5389C407.797 42.5168 407.82 42.4964 407.835 42.4773C407.939 42.3397 407.93 42.2785 408.017 42.2068C408.17 42.0709 407.863 42.038 407.756 41.9109C407.646 41.7887 408.354 41.9999 408.513 42.0213C408.672 42.0386 408.517 41.9835 408.606 41.9793C408.697 41.9737 408.792 42.0471 408.836 41.9969C408.881 41.9425 408.626 41.7446 408.462 41.7088C408.117 41.6271 407.745 41.638 407.886 41.5398C407.894 41.5337 408.085 41.5752 408.107 41.5506C408.278 41.3486 408.29 41.0998 408.42 40.8602C408.438 40.8269 408.654 40.8542 408.668 40.8348C408.804 40.6305 408.44 40.7078 408.033 40.6033C408.573 40.6202 408.902 40.5539 408.903 40.4021C408.904 40.3118 408.669 40.3286 408.502 40.2713C408.452 40.254 408.613 40.1874 408.502 40.1766C408.14 40.1395 407.735 40.2039 407.895 40.0408C407.903 40.0338 408.102 40.0563 408.114 40.032C408.163 39.9343 408.038 39.8901 407.925 39.8269C407.854 39.8013 407.786 39.7778 407.767 39.743C407.729 39.6802 407.931 39.4991 407.926 39.368C408.504 39.1833 408.321 39.0843 407.916 39.2029C407.9 39.1206 407.84 39.0468 407.853 38.9441C407.859 38.909 408.023 38.8487 408.039 38.8367C408.277 38.6485 407.897 38.7961 407.873 38.7869C407.636 38.6694 407.815 38.3606 407.447 38.3182C407.434 38.3169 407.06 38.5095 407.3 38.3103C407.316 38.2968 407.519 38.2662 407.482 38.1697C407.445 38.0725 407.551 37.7948 407.311 37.7605C407.253 37.7521 406.91 37.8324 407.113 37.6453C407.141 37.6202 407.253 37.574 407.307 37.531C407.434 37.428 407.247 37.5007 407.271 37.4529C407.28 37.4381 407.312 37.4098 407.386 37.3572C407.686 37.1502 407.856 36.8955 407.559 36.8992C407.543 36.9017 407.25 37.0569 407.23 37.0203C407.198 36.9587 407.193 36.8363 407.143 36.7801C407.119 36.7538 406.978 36.9015 406.967 36.9041C406.735 36.8163 406.758 36.5804 406.604 36.3572C406.573 36.3158 406.308 36.4722 406.36 36.2381C406.4 36.0397 406.783 35.5255 406.806 35.3182ZM404.509 43.2703C404.512 43.2595 404.476 43.234 404.453 43.2928C404.381 43.4822 404.459 43.4517 404.509 43.2703ZM408.038 43.0379C408.029 43.0342 407.99 43.0782 407.997 43.0848C408.176 43.2441 408.262 43.1466 408.038 43.0379ZM402.783 41.3904C402.433 41.5735 402.573 41.8158 402.854 41.5144C402.868 41.498 402.8 41.381 402.783 41.3904ZM403.492 31.0447C403.367 30.8935 403.4 30.8532 403.425 30.9393C403.426 30.9443 403.438 30.9439 403.455 30.9422C403.465 30.9736 403.476 31.008 403.492 31.0447ZM400.956 28.5291C400.915 28.7648 401.025 28.7895 401.014 28.5418C401.013 28.5319 400.958 28.5197 400.956 28.5291Z" fill="#A2A2A2"/>
</svg>
