<svg width="504" height="374" viewBox="0 0 504 374" fill="none" xmlns="http://www.w3.org/2000/svg">
<path d="M12.0936 5.90641C12.1823 5.85586 12.3493 5.90081 12.7108 6.24039C12.7907 6.30784 13.8966 8.45577 14.4139 8.94547C14.766 9.27122 15.1447 8.31113 15.7089 9.04215C16.2725 9.77583 16.0662 10.8899 16.8671 12.2004C17.6665 13.5279 18.2085 12.6152 19.2274 15.5451C19.6736 16.861 20.1106 18.2929 20.5048 19.841C22.0661 26.2713 21.8988 32.2878 22.1493 36.8742C22.1986 37.7408 22.2185 38.5854 22.2128 39.4015C22.1571 41.9267 21.7223 40.6505 21.5975 42.3703C21.3367 45.1036 21.1895 47.513 20.3192 50.508C20.3258 50.4558 20.2661 50.6549 20.2128 50.8468C20.1591 51.036 20.0955 51.2674 20.0292 51.5031C19.8009 52.3211 19.344 51.1531 19.12 52.0256C17.8969 57.0227 17.1952 62.1108 16.0292 67.3713C15.4934 69.8024 14.946 72.2288 14.3837 74.6574C13.2741 79.0798 13.1 83.0051 12.7919 88.1642C12.1909 97.1703 12.4779 106.467 13.5936 115.43C14.6912 123.201 16.4684 131.556 17.8622 139.803C18.0863 141.082 18.3085 142.36 18.5302 143.64C19.5703 149.725 20.5826 156.74 21.4315 163.687C21.7861 166.719 22.0622 169.583 22.4159 172.31C22.552 173.365 23.0762 172.677 23.1444 172.873C24.1947 175.955 22.9065 175.021 22.953 177.087C22.9583 177.315 22.9642 177.548 22.9706 177.776C23.0446 186.049 22.9706 194.329 22.7489 202.141C22.7367 202.435 22.7219 202.728 22.705 203.016C22.4406 206.576 23.9975 203.186 22.9159 206.618C22.8401 206.852 22.3342 205.901 22.1434 206.83C21.7097 208.944 21.2261 212.85 21.0028 214.376C20.7935 215.727 20.6995 216.543 20.6395 217.276C20.5563 218.314 20.4811 219.247 20.2831 220.91C19.8994 224.062 19.1196 227.541 18.4208 230.91C18.2106 231.922 18.0417 232.963 17.9179 233.986C17.8148 234.876 18.6244 233.801 18.5233 235.228C18.4151 236.65 17.8998 240.444 17.6141 241.724C17.3225 243 16.881 242.396 16.7411 242.613C15.7998 244.044 16.194 247.278 16.3749 248.826C16.421 249.2 16.455 249.475 16.4511 249.588C16.3086 253.25 16.0802 256.806 15.6054 260.348C15.0944 264.058 14.7954 267.864 14.2216 271.871C13.8825 274.175 13.6532 276.499 13.4979 278.95C13.3403 281.445 13.2218 284.034 13.0936 286.626C12.8442 291.699 12.8082 296.802 12.7626 301.531C12.6889 305.696 12.7914 309.185 12.494 313.579C12.0517 317.484 11.8108 321.42 11.7948 325.641C11.7926 326.503 12.5549 325.499 12.5555 326.551C12.5675 331.249 12.6973 335.955 12.9471 340.606C13.0496 343.012 14.0446 345.545 15.37 348.528C15.9627 350.158 18.1243 351.77 20.9423 353.459C21.8981 354.05 20.3604 353.925 21.2108 354.526C21.2256 354.536 21.2413 354.548 21.2577 354.559C23.6424 356.179 26.8148 358.031 30.162 359.255C34.1273 360.689 38.749 360.076 41.0145 358.492C42.4106 358.518 43.9313 358.539 45.5009 358.611C48.0133 358.583 52.6062 358.118 55.4901 358.451C56.4185 358.53 56.7384 358.684 56.8876 358.828C57.1759 359.122 56.7474 359.384 58.9852 359.106C59.7404 359.014 58.7343 358.412 59.8729 358.324C64.6698 357.961 69.9251 358.17 74.7098 358.021C75.6813 357.989 75.4451 357.414 75.7235 357.323C78.0872 356.581 81.9124 358.227 82.7567 358.427C84.015 358.7 85.1637 358.918 86.5204 359.276C90.2099 360.144 94.5636 359.929 99.1552 360.046C100.51 360.07 98.9197 359.287 100.224 359.282C100.984 359.28 101.75 359.279 102.52 359.279C108.758 359.333 114.857 359.744 120.732 360.213C122.204 360.336 120.832 360.942 121.53 361.033C123.123 361.237 124.088 361.013 125.057 360.796C125.996 360.593 126.937 360.401 128.419 360.608C129.059 360.697 128.665 361.231 128.778 361.298C130.553 362.357 132.228 361.146 132.712 361.159C138.726 361.309 142.192 363.338 147.769 363.586C148.43 363.612 146.999 362.799 148.855 362.911C149.684 362.958 150.495 362.998 151.331 363.033C159.37 363.27 168.048 362.876 176.504 362.878C180.075 362.879 183.614 362.863 187.092 362.838C189.029 362.821 187.68 363.42 187.804 363.48C189.85 364.387 191.056 362.948 191.686 362.858C196.641 362.181 201.375 362.939 204.624 361.024C204.87 361.009 205.136 360.991 205.38 360.976C211.203 360.55 217.232 359.647 223.258 358.969C234.716 358.042 245.514 358.829 256.487 359.994C260.317 360.452 264.237 360.801 268.149 361.212C268.413 361.239 267.914 361.892 268.444 361.941C274.853 362.525 273.653 361.435 277.938 360.282C279.02 359.992 282.235 361.621 282.523 361.742C283.559 362.188 282.444 363.152 282.792 363.243C285.684 363.961 285.308 360.647 289.247 360.775C289.368 360.786 288.833 361.374 289.16 361.445C289.42 361.503 289.682 361.531 289.943 361.547C290.741 361.594 291.533 361.552 292.286 361.768C294.581 362.44 295.222 364.155 298.781 363.503C299.229 363.409 298.707 361.523 302.134 361.816C302.737 361.865 304.244 361.945 305.908 362.007C308.024 362.088 310.382 362.153 311.349 362.238C313.073 362.39 311.879 362.972 312 363C316.643 363.87 314.877 364.172 317.2 365.381C319.528 366.582 318.908 363.77 319.863 363.466C320.821 363.164 324.236 363.848 325.075 364.082C325.916 364.317 324.863 364.693 325.61 364.827C330.559 365.707 327.795 363.45 329.433 363.017C331.685 362.418 333.637 362.884 335.577 363.43C336.97 363.821 338.349 364.26 339.819 364.39C340.772 364.475 340.013 363.977 340.862 363.962C344.254 363.922 346.255 364.687 350.131 364.41C350.716 364.364 353.506 363.544 355.382 364.231C355.569 364.288 355.728 364.357 355.869 364.437C356.137 364.59 355.311 365.051 356.693 365.268C358.769 365.579 362.634 365.756 364.934 365.612C366.624 365.505 364.704 364.629 366.832 364.917C367.762 365.044 366.033 365.521 367.762 365.721C367.773 365.722 367.785 365.724 367.797 365.726C369.563 365.924 374.107 365.926 375.842 365.913C377.56 365.901 376.624 365.251 376.762 365.208C377.606 364.961 380.915 364.655 381.211 364.655C390.91 364.61 400.12 365.051 409.357 365.125C414.157 365.163 418.956 364.977 423.832 364.458C424.953 364.343 424.152 363.721 424.322 363.696C428.148 363.108 425.258 365.154 427.992 365.554C427.499 364.204 429.106 364.319 431.831 364.006C433.138 363.858 432.397 363.363 432.513 363.301C434.432 362.381 435.856 363.387 436.204 363.59C437.152 364.121 438.103 363.783 438.923 363.729C439.234 363.707 439.523 363.728 439.774 363.869C440.665 364.346 438.693 365.25 441.307 365.071C441.985 364.518 440.003 363.382 441.896 363.011C446.828 362.059 454.918 360.446 461.476 359.251C464.314 358.724 466.927 358.34 468.77 358.121C472.965 357.627 475.18 357.534 477.32 357.453C478.219 357.426 479.106 357.364 480.138 357.246C486.092 356.216 483.733 355.741 486.821 353.97C487.178 353.733 487.475 353.558 487.73 353.437C489.279 352.61 489.517 354.688 490.136 354.805C490.905 354.849 491.026 354.035 491.7 353.715C492.389 353.362 491.599 354.793 492.816 353.542C494.155 352.255 495.359 347.76 495.062 347.039C494.649 345.81 493.393 346.364 493.895 344.864C493.989 344.547 494.184 344.111 494.457 343.371C494.531 343.165 494.973 344.007 495.224 343.194C496.107 340.109 495.951 336.481 496.607 332.845C497.367 328.899 497.519 324.862 497.135 320.906C497.036 319.891 497.862 320.683 497.808 320.085C497.14 314.344 496.401 315.99 494.811 313.85C494.666 313.65 494.516 313.42 494.359 313.148C496.221 313.596 496.78 311.613 496.469 306.965C496.262 304.126 495.56 304.642 494.816 302.893C494.792 302.838 494.772 302.766 494.757 302.682C494.614 301.948 494.821 300.272 494.476 299.978C493.211 298.895 492.086 300.878 492.167 295.985C492.172 295.769 492.865 296.389 492.836 295.652C492.682 291.888 491.838 290.832 491.106 288.074C490.909 287.335 490.713 286.463 490.556 285.354C489.912 281.154 490.494 273.86 490.563 269.249C492.501 269.331 492.016 264.967 490.677 263.207C490.693 262.134 490.694 261.033 490.698 259.895C490.704 257.866 490.815 255.811 491.146 253.924C491.329 252.907 491.807 253.647 491.883 253.527C493.064 251.729 492.062 250.23 492.156 249.552C492.548 246.877 493.382 244.53 493.983 242.329C495.006 238.701 494.968 234.935 494.743 230.608C494.737 230.498 494.477 230.341 494.291 230.039C494.052 229.683 493.928 229.167 494.515 228.267C494.581 228.152 495.131 230.285 495.262 227.293C495.449 224.368 494.844 218.444 493.296 214.315C492.979 213.465 491.757 211.64 491.623 209.697C491.599 209.346 491.612 209.001 491.67 208.65C491.723 208.348 492.167 208.569 492.29 208.122C492.675 206.674 491.183 206.257 491.98 204.477C492.791 202.672 492.902 199.432 491.707 195.22C491.672 195.086 490.496 194.143 490.438 192.752C490.394 191.706 490.41 190.45 490.452 189.172C490.497 187.743 490.664 186.304 490.803 185.096C490.933 183.999 490.183 184.614 490.194 184.422C490.419 181.641 490.962 179.233 491.369 176.909C492.047 172.925 492.534 168.982 492.897 163.975C493.013 162.524 492.203 158.282 493.159 155.485C493.533 154.412 494.176 154.17 494.812 154.047C495.965 153.755 497.362 153.592 497.236 148.726C497.131 145.705 493.033 141.971 495.405 136.881C495.362 133.605 495.521 130.424 495.758 127.252C496.217 120.729 496.544 114.294 496.01 107.529C495.973 107.077 494.801 105.655 494.808 104.594C494.822 103.019 495.358 102.146 495.383 101.021C495.499 96.2977 494.967 91.9865 494.99 87.4328C494.994 86.5645 495.145 86.2686 495.293 85.9504C495.435 85.6204 495.577 85.2623 495.579 84.2423C495.58 82.1814 494.817 80.8254 495.083 78.0304C495.282 75.9253 496.704 73.7333 496.687 70.8996C495.191 70.8924 495.082 68.9723 494.413 65.6037C494.287 64.9547 493.822 65.6963 493.735 65.3908C493.518 64.6473 493.558 63.9154 493.555 63.1945C493.553 62.7335 493.505 62.2728 493.332 61.8136C493.228 61.535 492.719 61.5832 492.604 61.3605C491.571 59.4112 492.464 55.8854 492.641 55.3156C493.097 53.6808 492.864 52.7186 492.788 51.6515C492.76 51.257 492.756 50.8359 492.826 50.3664C493.084 48.6753 493.518 51.1825 493.654 49.214C493.945 45.1357 493.87 39.9008 493.918 35.7589C493.934 34.1075 493.246 35.2297 493.232 34.9933C493.082 31.5713 493.846 28.128 492.512 26.2131C493.956 25.2677 494.169 24.7355 493.967 24.133C493.677 23.2432 492.5 22.154 492.998 19.2629C493.067 18.8826 494.74 18.4485 494.94 19.9211C495.093 21.0323 494.813 22.5664 494.823 24.1437C494.827 24.6448 494.86 25.1619 494.946 25.6662C495.029 26.1543 496.553 28.9503 496.643 29.3273C497.349 32.3009 494.866 32.6991 494.728 32.8556C493.242 34.6269 494.9 38.0334 495.016 38.925C495.537 43.0091 495.2 46.4829 495.657 49.8625C495.758 50.6049 496.016 51.1249 496.31 51.5265C496.889 52.3441 497.607 52.7943 497.63 53.9201C497.7 57.9012 496.919 59.7041 497.18 62.9953C497.231 64.2062 497.539 65.5216 498.283 67.175C498.791 68.3272 500.49 66.9857 499.399 71.4054C499.334 71.6908 498.248 74.954 499.119 76.7609C499.23 76.9883 499.747 76.9605 499.802 77.2707C500.156 79.3036 499.78 80.6988 500.016 82.9103C500.115 83.8536 500.228 84.8446 500.312 85.9074C500.429 87.3242 500.502 88.8192 500.418 90.2746C500.331 91.7851 499.393 93.7317 499.166 94.4582C498.512 96.509 499.653 98.6903 498.843 99.967C498.028 101.253 496.746 98.7709 496.244 102.124C497.59 102.236 498.974 102.507 500.328 102.694C500.337 110.063 499.95 117.289 499.735 124.812C499.706 125.74 500.469 124.811 500.453 125.828C500.443 126.391 500.417 126.975 500.382 127.52C500.157 130.964 499.639 134.091 499.672 137.779C499.696 141.069 500.387 144.665 500.36 148.353C499.381 149.604 499.005 152.048 498.548 154.644C498.347 155.786 498.31 157.648 498.183 159.122C498.079 160.397 497.673 160.296 497.503 161.215C496.876 164.69 498.296 163.109 498.474 164.079C499.206 168.294 496.166 168.515 495.844 173.493C495.841 173.739 497.106 177.226 497.106 177.757C497.106 177.759 497.106 177.762 497.106 177.765C497.284 180.815 496.468 178.179 496.04 179.937C495.263 183.032 494.421 184.996 494.781 188.222C494.811 188.454 494.897 188.765 495.005 189.122C495.327 190.35 495.806 192.048 495.319 193.539C495.234 193.803 494.683 193.701 494.667 193.91C494.471 197.727 496.245 197.591 497.151 199.561C498.073 201.5 497.701 205.153 497.525 205.951C497.077 207.992 496.846 204.617 496.742 204.544C495.485 203.604 496.211 206.057 496.552 208.035C496.155 208.195 495.901 208.485 495.765 208.814C495.358 209.78 495.971 211.021 496.901 210.059C496.994 209.948 496.793 209.216 496.657 208.623C496.599 208.371 496.554 208.156 496.552 208.035C496.759 208.178 496.954 208.34 497.137 208.522C498.676 210.021 499.279 212.651 498.585 215.894C498.207 217.607 497.119 216.254 498.351 220.99C498.862 223.196 499.875 222.13 500.435 224.219C500.924 226.138 500.924 228.482 500.619 230.635C500.203 233.399 499.881 236.47 499.655 239.514C499.492 241.343 500.347 239.637 500.235 240.918C500.139 241.892 499.949 242.84 499.695 243.755C499.08 245.943 498.288 247.687 497.99 249.608C497.955 249.848 498.733 249.439 498.547 250.238C497.806 253.491 497.441 256.541 497.331 259.893C497.242 262.931 497.161 265.986 497.195 269.288C497.227 272.803 497.723 279.019 497.961 282.408C498.053 283.895 498.157 285.414 498.28 287.147C498.676 292.373 498.532 298.075 499.163 301.722C499.184 301.836 499.204 301.946 499.225 302.047C499.821 305.496 500.303 304.657 500.865 306.13C501.605 308.153 501.296 310.868 501.162 312.639C501.096 313.416 501.038 314.056 501.008 314.269C500.999 314.261 500.7 313.158 500.495 312.766C500.397 312.579 500.31 312.533 500.268 312.81C500.258 312.877 500.251 312.965 500.248 313.075C499.728 314.076 501 314.241 501.008 314.269C500.951 314.619 502.108 321.006 502.26 322.402C502.398 323.12 502.981 322.657 503.04 323.041C503.569 326.615 503.552 330.315 503.087 333.858C502.563 337.047 503.649 341.571 501.025 348.054C500.737 348.654 500.431 349.29 500.1 349.944C500.021 350.08 499.489 349.571 499.313 349.896C497.186 353.671 495.826 357.344 491.659 360.393C491.049 360.844 490.412 361.272 489.737 361.675C485.537 364.159 481.576 364.696 478.666 363.748C478.335 363.79 477.987 363.823 477.627 363.843C474.84 363.993 471.331 363.844 469.242 363.874C466.927 363.905 466.865 365.336 466.677 365.395C465.44 365.818 464.275 366.192 463.11 366.513C458.72 367.715 455.128 368.112 449.443 369.099C447.053 369.501 442.946 370.269 439.075 370.45C437.656 370.528 436.34 370.621 435.291 370.709C432.547 370.946 430.883 370.735 428.339 371.128C427.995 371.181 428.389 371.757 428.286 371.789C425.472 372.733 426.732 371.152 426.116 370.935C423.864 370.144 422.471 369.762 418.698 370.441C417.835 370.598 415.356 372.853 413.739 373.027C411.644 373.25 412.414 372.466 410.23 372.698C410.088 372.713 410.086 372.987 409.491 373.12C409.311 373.162 409.073 373.19 408.747 373.19C402.555 373.192 395.862 372.947 389.478 373.007C388.607 373.013 389.725 373.759 388.466 373.78C382.551 373.877 376.078 373.839 370.302 373.451C368.887 373.353 369.776 372.836 369.469 372.678C368.925 372.401 368.297 372.318 367.703 372.339C366.203 372.391 364.753 373.066 364.426 373.08C361.162 373.23 357.865 373.225 354.847 372.912C347.994 372.263 342.654 371.32 335.476 371.641C335.388 371.644 335.298 371.648 335.208 371.652C334.631 371.678 330.155 373.105 328.156 371.836C328.019 371.751 326.046 370.454 324.283 371.319C324.178 371.375 325.404 372.045 323.247 371.961C321.087 371.877 317.598 372.29 314.62 371.522C313.676 371.279 311.471 369.968 308.612 370.924C308.514 370.961 307.095 371.658 305.582 371.978C304.349 372.235 303.047 372.241 302.37 371.495C302.118 371.212 302.487 369.573 298.975 370.201C298.303 370.319 299.48 370.788 297.711 370.887C295.227 371.039 292.023 370.282 289.628 370.727C289.373 370.764 289.119 370.807 288.867 370.859C288.315 370.973 285.947 372.042 284.097 371.118C283.807 370.974 284.381 370.426 283.393 370.334C278.687 369.893 273.714 370.149 268.879 369.599C267.163 369.403 268.074 368.524 266.291 368.214C264.511 367.906 260.893 367.508 258.956 367.794C257.007 368.078 259.03 369.685 256.089 369.574C255.945 369.568 255.8 369.561 255.658 369.554C245.121 369.186 233.881 367.763 224.326 368.361C223.369 368.451 222.39 368.555 221.413 368.666C219.657 368.869 221.181 369.197 218.587 369.542C215.209 369.982 211.135 370.656 206.286 371.165C197.912 372.002 188.693 372.52 183.082 372.024C176.182 371.406 184.788 370.407 179.542 370.24C178.582 370.208 177.606 370.44 176.72 370.743C175.322 371.239 174.156 371.942 173.787 371.986C167.926 372.716 163.777 372.119 158.354 372.398C157.233 372.452 158.34 373.13 157.377 373.167C155.267 373.248 153.075 373.136 150.799 372.951C149.59 372.85 148.401 372.743 147.253 372.672C145.823 372.582 146.039 373.125 144.73 372.962C141.603 372.572 138.927 372.002 136.144 371.185C135.891 371.11 137.715 370.668 135.558 370.394C132.336 369.983 128.54 369.241 124.829 369.49C124.518 369.509 124.211 369.533 123.908 369.561C122.667 369.676 122.58 370.871 119.951 369.963C119.397 369.772 120.156 368.365 117.025 369.497C116.504 369.688 111.245 371.162 108.775 369.99C108.123 369.683 106.471 368.447 105.021 368.589C104.826 368.613 105.585 369.275 104.396 369.305C103.728 369.321 103.061 369.333 102.411 369.348C98.707 369.417 94.9166 369.351 91.0184 369.356C89.7666 369.352 91.6102 370.107 89.7206 370.072C88.1806 370.008 86.9376 370.051 84.2733 369.543C82.039 369.135 77.4285 368.732 74.3095 368.472C72.6288 368.336 73.8096 367.826 73.6874 367.762C71.7466 366.725 70.5262 368.024 69.8768 368.09C65.7867 368.496 62.6612 367.918 58.8788 368.198C57.8356 368.276 58.5972 368.878 58.3915 368.941C57.7458 369.129 57.4368 369.153 57.285 369.09C56.9476 368.947 57.3955 368.358 56.4745 368.312C54.8494 368.232 53.1734 368.266 51.5038 368.401C49.738 368.505 48.485 368.875 45.3368 368.952C44.8565 368.953 44.3777 368.959 43.8964 368.968C42.4961 368.998 44.0742 369.722 42.8114 369.743C38.5725 369.737 33.532 370.326 27.162 368.261C23.5842 367.011 20.0577 365.378 16.8807 363.433C16.6666 363.302 16.5145 363.189 16.4091 363.094C15.9353 362.631 16.6416 362.55 16.4833 362.338C15.2357 360.674 11.3587 359.705 10.4364 359.01C7.91773 357.394 6.47609 355.384 5.50281 353.139C5.21877 352.425 4.89698 351.644 4.40808 350.602C3.27819 348.197 2.06037 344.993 1.79773 341.319C1.09626 331.952 1.15029 321.944 2.11121 312.63C2.25712 310.955 2.22861 307.598 2.26941 305.121C2.34141 298.322 2.64362 292.066 3.16101 285.997C3.60886 281.036 3.86794 276.11 4.55457 270.726C5.00473 267.309 5.17415 263.449 5.67371 259.116C5.67898 259.071 5.68411 259.024 5.68933 258.978C5.79371 258.038 4.94277 258.897 5.02039 258.086C5.33853 254.801 5.57537 251.39 5.9325 247.789C6.55981 241.688 7.13685 235.593 8.35437 228.905C8.63916 227.409 8.89768 225.913 9.11805 224.424C9.24501 223.561 8.34682 224.681 8.52137 223.3C8.78028 221.181 9.11544 218.676 9.34754 216.565C9.44626 215.539 9.58457 214.616 9.73523 213.779C10.035 212.161 10.3763 214.406 10.6688 212.797C11.3589 209.124 12.0593 205.414 12.2313 202.261C12.2839 201.032 11.496 202.66 11.5223 201.404C11.5234 201.339 11.5264 201.265 11.5311 201.183C11.8651 193.989 11.7727 185.774 11.3895 178.947C10.9958 174.27 10.7408 169.552 10.4452 165.152C10.3719 164.147 10.2916 163.126 10.2089 162.103C10.1346 161.194 11.4608 160.17 10.8602 158.269C10.4341 158.187 9.96388 158.276 9.5243 158.284C8.54616 152.87 7.52087 147.402 6.52625 141.921C5.0865 133.713 3.41851 125.912 2.13758 117.094C1.33498 110.924 0.962684 104.924 0.824101 98.8009C0.807145 97.9274 0.063354 99.4562 0.0301553 97.7629C-0.0279483 94.3462 -0.0106453 90.9517 0.158085 87.5382C0.332517 83.2396 0.557325 77.1748 2.01453 72.0978C2.3431 70.8635 2.68343 69.6267 3.03797 68.3849C3.29476 67.4749 4.54571 68.2136 4.87195 65.4504C4.93205 64.9597 5.53041 60.814 5.43152 59.6896C5.41274 59.5384 4.64932 60.1718 4.87391 58.8429C5.57692 54.9266 5.96704 51.8468 7.20398 46.7492C7.89762 44.4595 8.24857 41.0544 8.13758 38.1398C8.11524 37.6683 8.09712 37.2006 8.08289 36.7423C8.04576 35.4179 8.82905 36.7672 8.81043 35.8302C8.72731 31.2682 8.34204 26.6557 7.53406 23.048C7.13268 21.2834 6.68049 19.4967 6.30262 17.7345C5.4363 13.8496 7.0016 14.8487 7.37 12.425C7.42127 12.0824 6.57314 9.67482 7.16101 9.31364C8.63992 8.42896 10.7976 8.95792 12.3231 7.87418C12.4868 7.75619 12.1854 6.94552 12.0712 6.41129C12.013 6.14271 12.0061 5.95682 12.0936 5.90641ZM458.459 364.651C456.097 364.519 456.298 366.927 458.572 365.821C458.681 365.765 458.58 364.658 458.459 364.651ZM339.878 365.561C339.846 365.523 338.534 365.454 338.554 365.657C338.63 366.307 340.448 366.178 339.878 365.561ZM456.544 362.139C456.483 362.121 454.722 362.489 454.676 362.529C453.878 363.488 457.474 362.74 456.544 362.139ZM258.846 361.356C256.561 362.471 265.086 363.084 263.272 361.671C263.161 361.607 258.987 361.314 258.846 361.356ZM490.676 263.216C490.632 265.198 490.638 267.188 490.614 269.177C489.826 267.196 489.721 264.814 490.676 263.216ZM499.314 120.22C500.17 118.116 498.378 116.367 498.049 117.273C496.958 120.233 498.451 122.324 499.314 120.22ZM498.959 86.756C498.915 86.5378 497.128 86.2718 497.082 86.4738C496.286 89.945 499.685 90.4436 498.959 86.756ZM495.306 58.7433C495.642 57.6569 494.917 54.6361 494.434 55.9972C494.031 57.109 494.871 60.1192 495.306 58.7433ZM10.2499 20.006C9.27254 19.3104 10.1397 22.7221 10.705 21.8029C10.7346 21.766 10.2976 20.0382 10.2499 20.006ZM492.811 0.0655898C492.985 -0.582796 494.649 3.7787 494.638 4.23063C494.636 4.22615 494.635 4.22144 494.634 4.21696C494.497 11.9101 491.567 16.4473 492.005 8.16715C492.074 6.66195 492.869 11.4212 493.14 9.507C493.631 5.99383 491.867 3.6551 492.811 0.0655898Z" fill="#A2A2A2"/>
</svg>
