<svg width="100" height="121" viewBox="0 0 100 121" fill="none" xmlns="http://www.w3.org/2000/svg">
<path d="M0.694948 53.2176C0.694931 53.0365 0.668792 52.7502 0.634401 52.1483C0.602253 51.5856 0.569935 50.8297 0.568971 49.8358C0.568222 48.9481 0.898737 48.2191 1.18616 47.6542C1.50144 47.0345 1.73494 46.6483 1.85706 46.1864C2.14493 45.0975 2.20244 44.1874 2.36487 42.7538C2.48604 41.6844 2.53931 40.8709 2.58264 40.1874C2.62528 39.5148 2.65975 38.9218 2.74573 38.3514C2.93431 37.1006 3.15871 34.9501 3.59338 33.5301C3.80488 32.8393 4.13898 32.2754 4.42249 31.8153C4.72376 31.3264 4.94567 30.9845 5.09436 30.6034C5.19787 30.3381 5.28995 30.078 5.38928 29.8026C5.48642 29.5333 5.59035 29.2501 5.70667 28.9716C5.94103 28.4104 6.24262 27.8277 6.71839 27.2899C7.06783 26.8949 7.38936 26.4655 7.72424 25.9999C8.05065 25.5461 8.40371 25.038 8.77796 24.5507C9.5413 23.5567 10.4224 22.8027 11.484 22.0741C12.686 21.2491 13.8605 19.9829 14.9147 18.9979C15.8115 18.16 17.3656 17.0825 19.0963 16.2001C20.2707 15.6013 21.2378 15.0236 22.3522 14.2118C23.6002 13.3025 25.1601 12.6416 26.5094 12.4569C28.2409 12.22 30.0672 11.9292 31.2701 11.6307C32.6951 11.2772 34.0902 10.942 35.3112 10.6278C36.0472 10.4385 36.9583 10.3575 37.986 10.3075C39.0164 10.2573 40.2704 10.2351 41.6735 10.1883C43.1635 10.1387 45.0838 10.1624 46.8365 10.2577C48.552 10.351 50.2275 10.5177 51.1588 10.7909C52.5947 11.2121 54.3031 11.6758 55.985 13.0028C57.2367 13.9904 58.353 14.8685 58.9166 16.1044L58.9908 16.2675L59.0035 16.4452C59.1014 17.7533 59.1182 19.3197 59.0787 20.6376C59.059 21.2973 59.0247 21.9069 58.9781 22.3993C58.9549 22.6448 58.9273 22.8714 58.8951 23.0653C58.8662 23.24 58.8233 23.4542 58.7496 23.6385C58.6195 23.964 58.4889 24.2896 58.1647 25.0038C57.9364 25.5066 57.3443 25.729 56.8414 25.5008C56.3387 25.2726 56.1154 24.6804 56.3434 24.1776C56.6519 23.4982 56.771 23.2018 56.8932 22.8964C56.882 22.9243 56.8974 22.8894 56.9225 22.7382C56.9444 22.606 56.9663 22.4294 56.9869 22.2108C57.0282 21.7746 57.0608 21.2106 57.0797 20.578C57.1157 19.3762 57.1006 17.9696 57.0211 16.785C56.6733 16.1403 56.007 15.5683 54.7457 14.5731C53.4106 13.5197 52.0705 13.1432 50.5963 12.7108C49.9192 12.5122 48.4662 12.3493 46.7272 12.2548C45.0258 12.1622 43.1648 12.1399 41.7399 12.1874C40.2869 12.2358 39.0965 12.2562 38.0826 12.3055C37.0663 12.355 36.3322 12.4307 35.8092 12.5653C34.5781 12.8821 33.1543 13.2241 31.7516 13.5721C30.4347 13.8989 28.5148 14.2011 26.7809 14.4383C25.8042 14.572 24.5499 15.0859 23.5299 15.829C22.3204 16.7101 21.2612 17.3415 20.0045 17.9823C18.3963 18.8023 17.0082 19.7794 16.2799 20.4598C15.3849 21.2961 13.9827 22.7844 12.6158 23.7225C11.6661 24.3743 10.9617 24.9914 10.3649 25.7684C10.016 26.2227 9.70081 26.6777 9.34827 27.1678C9.00426 27.6461 8.63495 28.142 8.21643 28.6151C7.94101 28.9265 7.74148 29.2902 7.55237 29.743C7.45694 29.9716 7.36791 30.213 7.27112 30.4813C7.17656 30.7435 7.07296 31.0344 6.95764 31.33C6.72685 31.9215 6.38207 32.4489 6.12561 32.8651C5.85137 33.3101 5.63647 33.6882 5.50549 34.1161C5.12852 35.3479 4.93971 37.2137 4.72327 38.6493C4.65298 39.1155 4.62334 39.6108 4.57874 40.3143C4.53481 41.0072 4.47899 41.8591 4.35217 42.9784C4.20202 44.3036 4.127 45.426 3.79065 46.6981C3.5973 47.4292 3.20314 48.1019 2.96936 48.5614C2.70786 49.0754 2.56871 49.4462 2.56897 49.8339C2.56989 50.7831 2.60101 51.5008 2.63147 52.0341C2.65969 52.5279 2.69493 52.9619 2.69495 53.2176C2.69495 53.7699 2.24723 54.2176 1.69495 54.2176C1.14276 54.2175 0.694948 53.7699 0.694948 53.2176Z" fill="black"/>
<path d="M55.6894 29.1108C55.6894 28.5586 56.1372 28.1109 56.6894 28.1108C57.2417 28.1108 57.6894 28.5586 57.6894 29.1108C57.6894 29.4234 57.6112 29.9665 57.5342 30.4731C57.4707 30.8903 57.4011 31.3363 57.3359 31.77C57.3771 31.7764 57.422 31.7836 57.4707 31.7896C57.7768 31.827 58.0654 31.8402 58.4668 31.8765C58.8174 31.9082 59.2463 31.958 59.6279 32.0806C60.0321 32.2104 60.4891 32.2876 61.0517 32.3755C61.5899 32.4596 62.2214 32.5529 62.8535 32.728C63.8067 32.9921 64.6946 33.449 65.4277 33.8286C66.2174 34.2376 66.7769 34.5257 67.2392 34.6333C68.1008 34.8339 68.7262 35.3629 69.1816 35.7847C69.6989 36.2636 69.9797 36.572 70.3398 36.7808C71.6667 37.55 72.4783 39.0494 72.915 40.2554C73.2552 41.1948 73.7537 42.1114 74.333 43.2026C75.1139 44.6738 75.605 46.3504 75.9443 47.4604C76.2829 48.5683 76.635 49.8793 76.7392 51.1538C76.7924 51.8036 76.9356 52.379 77.1064 52.9438C77.265 53.4681 77.4913 54.1074 77.626 54.6802H77.624C77.716 55.061 77.7626 55.7975 77.789 56.6646C77.8174 57.5934 77.8262 58.805 77.8105 60.2095V60.2192L77.8095 60.228C77.777 61.3306 77.7098 61.6976 77.6338 62.0776C77.5254 62.6191 76.9985 62.9701 76.457 62.8618C75.9155 62.7535 75.5645 62.2266 75.6728 61.6851C75.7249 61.4248 75.781 61.17 75.8105 60.1694C75.8257 58.7899 75.8171 57.6137 75.79 56.7251C75.7764 56.2785 75.7588 55.9116 75.7373 55.6313C75.7265 55.4912 75.715 55.3781 75.7041 55.2915C75.6986 55.2484 75.6938 55.2142 75.6894 55.189C75.6873 55.1767 75.6849 55.1673 75.6836 55.1606C75.6825 55.1553 75.6818 55.1525 75.6816 55.1519L75.6787 55.1382C75.5619 54.6413 75.3951 54.1931 75.1924 53.5229C75.0019 52.8933 74.8155 52.1661 74.7461 51.3169C74.6601 50.2657 74.362 49.1233 74.0322 48.0444C73.6785 46.8871 73.2399 45.4088 72.5664 44.1401C72.0119 43.0957 71.4332 42.038 71.0342 40.936C70.6497 39.8746 70.0484 38.9238 69.3369 38.5112C68.7224 38.155 68.18 37.5818 67.8232 37.2515C67.4048 36.864 67.1045 36.6559 66.7851 36.5815C66.0216 36.4038 65.2062 35.9662 64.5088 35.605C63.7547 35.2145 63.0426 34.8561 62.3193 34.6558C61.8196 34.5173 61.3088 34.4394 60.7431 34.3511C60.202 34.2665 59.5928 34.17 59.0166 33.9849C58.8635 33.9357 58.6274 33.8995 58.2861 33.8687C57.9956 33.8424 57.5651 33.8162 57.2275 33.7749C56.8975 33.7345 56.4377 33.6606 56.0556 33.4448C55.847 33.327 55.6126 33.1402 55.4521 32.8491C55.2856 32.547 55.2484 32.2207 55.291 31.9185C55.3719 31.3446 55.4769 30.6965 55.5566 30.1724C55.6439 29.5984 55.6894 29.2352 55.6894 29.1108Z" fill="black"/>
<path d="M76.0296 62.2576C76.0296 61.891 76.0653 61.3271 76.18 60.7253C76.2923 60.1356 76.4958 59.4277 76.8763 58.8337C77.2206 58.2963 77.6121 57.8034 77.9778 57.3513C78.3537 56.8868 78.6964 56.4715 79.0042 56.0349C79.2304 55.714 79.4059 55.3156 79.5725 54.8308C79.6553 54.5899 79.7318 54.3422 79.8128 54.0779C79.892 53.8193 79.9764 53.5427 80.0696 53.2722C80.4547 52.1545 80.9431 51.045 82.2141 49.6336C83.1333 48.6129 84.2164 47.917 85.4563 47.5769C86.3859 47.322 87.3301 47.5613 88.0481 47.8074C88.421 47.9352 88.7875 48.0851 89.1028 48.2127C89.4328 48.3462 89.7022 48.4534 89.9368 48.5252C91.5972 49.0327 93.5085 50.1741 94.5423 50.8836C95.192 51.3295 95.6641 51.8882 96.0481 52.4275C96.2395 52.6963 96.4165 52.9717 96.5804 53.2283C96.7481 53.4909 96.9009 53.7322 97.0618 53.9666C97.8859 55.1674 98.2689 56.457 98.5276 57.4919C98.5896 57.7396 98.6753 57.9851 98.7962 58.3523C98.9124 58.7052 99.045 59.1249 99.1643 59.6433C99.4043 60.6863 99.5798 62.075 99.5325 64.1482C99.502 65.4841 98.9093 66.4676 98.2776 67.2253C97.9688 67.5958 97.6318 67.9333 97.3489 68.2214C97.052 68.5238 96.8153 68.7712 96.6302 69.0134C95.979 69.8653 95.4921 71.0629 94.9007 72.4412C94.6588 73.0049 94.4656 73.5266 94.2161 74.1697C93.9691 74.8063 93.6795 75.529 93.261 76.4461C92.6433 77.8 91.7794 78.6986 90.6136 79.4734C89.7971 80.016 88.7304 81.1583 87.7317 82.2849C87.1818 82.9053 86.3746 83.3006 85.7014 83.6023C84.9537 83.9374 84.3071 84.1846 83.7229 84.5261C83.1088 84.8853 82.2695 85.3009 81.4934 85.7068C80.6864 86.1289 79.9117 86.5584 79.3098 86.988C78.6577 87.4536 77.9002 87.6774 77.2093 87.8113C76.5332 87.9422 75.7855 88.0076 75.2112 88.0789C74.2206 88.2018 73.2926 87.8555 72.6487 87.2586C72.6035 87.2166 72.5617 87.1726 72.5208 87.1287C72.412 88.2501 72.2384 89.6115 71.9827 90.7087C71.8095 91.6339 71.6619 92.7862 71.1682 93.9177L71.1575 93.9421L71.1458 93.9656C70.9895 94.2781 70.828 94.5863 70.2786 95.2752C69.9342 95.7069 69.3041 95.7777 68.8723 95.4334C68.441 95.089 68.37 94.4597 68.7141 94.0281C68.9527 93.729 69.0873 93.5384 69.1721 93.405C69.2474 93.2868 69.2909 93.2035 69.345 93.0955C69.7174 92.2316 69.8188 91.3934 70.0208 90.3201L70.0257 90.2976L70.0305 90.2761C70.2662 89.2736 70.4352 87.954 70.5413 86.8318C70.6262 85.9339 70.6266 84.6832 71.094 83.3084L71.1839 83.0906C71.2865 82.8805 71.4244 82.6944 71.5686 82.5545C71.646 82.4794 71.8325 82.3102 72.1077 82.2322C72.2586 82.1894 72.5414 82.1458 72.8479 82.2898C73.096 82.4064 73.2484 82.592 73.3362 82.7654L73.4036 82.9314L73.4739 83.1931C73.5353 83.4561 73.5703 83.7187 73.596 83.9519C73.6355 84.3104 73.6498 84.5371 73.6887 84.8396C73.7635 85.4194 73.8763 85.6687 74.0091 85.7918C74.2428 86.0083 74.5899 86.1401 74.9651 86.0935C75.6507 86.0085 76.2407 85.9622 76.8284 85.8484C77.4011 85.7375 77.8342 85.5839 78.1477 85.3601C78.8717 84.8433 79.7543 84.3602 80.5667 83.9353C81.41 83.4943 82.1531 83.1271 82.7132 82.7996C83.4215 82.3854 84.2669 82.0532 84.8831 81.7771C85.574 81.4675 86.0035 81.2193 86.2346 80.9587C87.1909 79.88 88.4316 78.5215 89.5061 77.8074C90.4176 77.2016 91.0048 76.5736 91.4417 75.616C91.8386 74.7461 92.1129 74.0619 92.3518 73.4461C92.5883 72.8365 92.8025 72.2587 93.0628 71.6521C93.6051 70.3881 94.1998 68.8982 95.0403 67.7986C95.3118 67.4434 95.635 67.1125 95.9221 66.8201C96.2233 66.5134 96.4959 66.2396 96.7415 65.9451C97.2186 65.3728 97.5173 64.8128 97.5335 64.1023C97.5775 62.1689 97.4123 60.9495 97.2151 60.0925C97.1159 59.6612 97.0052 59.3077 96.8968 58.9783C96.793 58.6633 96.6722 58.3163 96.5872 57.9763C96.3431 56.9999 96.0284 55.9959 95.4124 55.0984C95.2282 54.8301 95.0549 54.5551 94.8948 54.3044C94.7307 54.0475 94.5782 53.8109 94.4192 53.5877C94.1026 53.1431 93.7892 52.7929 93.4104 52.533C92.4327 51.8619 90.7203 50.8555 89.3518 50.4373C89.0197 50.3357 88.6702 50.1956 88.3528 50.0671C88.0207 49.9328 87.7102 49.8054 87.3997 49.699C86.7506 49.4766 86.2995 49.4193 85.9846 49.5056C85.1511 49.7343 84.3907 50.206 83.7005 50.9724C82.6534 52.1352 82.2824 52.9888 81.9602 53.9236C81.8802 54.1558 81.806 54.3991 81.7249 54.6638C81.6455 54.9229 81.5597 55.2032 81.4641 55.4812C81.274 56.0343 81.0253 56.6391 80.6389 57.1873C80.2829 57.6922 79.8866 58.1725 79.5325 58.6101C79.1683 59.0602 78.8389 59.4773 78.5598 59.9128C78.3763 60.1994 78.2356 60.623 78.1448 61.0994C78.0564 61.5633 78.0296 62.0008 78.0296 62.2576C78.0296 62.8099 77.5819 63.2576 77.0296 63.2576C76.4774 63.2574 76.0296 62.8098 76.0296 62.2576Z" fill="black"/>
<path d="M30.1018 119.37C30.1018 119.107 30.0965 118.953 30.0725 118.823C30.0258 118.733 29.915 118.576 29.6477 118.277C29.3731 117.971 28.9677 117.544 28.5657 117.026C28.1342 116.47 27.7924 115.796 27.4963 115.276C27.1791 114.72 26.8497 114.209 26.3743 113.743C24.5002 111.908 23.7021 110.752 23.095 109.285C22.4428 107.71 21.4993 106.061 20.6545 104.553C20.3529 104.014 19.9845 103.53 19.5588 102.948C19.1482 102.387 18.697 101.752 18.345 101.003C18.0503 100.376 17.8305 99.6847 17.6369 99.1455C17.4296 98.5679 17.236 98.1089 16.9748 97.7392C16.5237 97.101 16.0863 96.3895 15.6692 95.7041C15.2453 95.0075 14.8427 94.3383 14.4358 93.7363C13.7272 92.688 13.0781 91.5203 12.6702 90.1523C12.29 88.8775 11.8601 87.7392 11.3713 86.6973C10.8715 85.6319 10.2152 84.4656 9.65843 82.8652C9.44507 82.2519 9.395 81.6008 9.39671 80.9824C9.39842 80.3714 9.45322 79.6948 9.49144 79.0625C9.57064 77.7523 9.59295 76.4184 9.15355 75.0439C8.86186 74.1313 8.82024 73.0733 8.74339 72.3154C8.65746 71.4681 8.52875 70.8781 8.22289 70.4482C7.44818 69.3594 6.7617 68.5148 5.9221 67.9043C4.58876 66.9349 4.06166 65.3355 3.67601 64.1689C3.53136 63.7312 3.47981 63.2807 3.44652 62.9043C3.41001 62.4914 3.39496 62.1837 3.34496 61.8555C3.25552 61.2685 3.08594 60.8747 2.61449 60.5635C2.58725 60.5455 2.52886 60.5156 2.40355 60.4736C2.34269 60.4532 2.2776 60.433 2.1975 60.4092C2.1226 60.3869 2.0292 60.3599 1.93773 60.3301C1.62385 60.2275 0.926015 59.9841 0.634019 59.2344C0.50941 58.9143 0.457386 58.5447 0.442613 58.2236C0.427424 57.8933 0.448605 57.5287 0.521714 57.1972C0.69254 56.4228 0.808822 55.6428 0.929917 54.9502C0.987958 54.6182 1.04986 54.2926 1.12035 54.0244C1.15557 53.8904 1.19904 53.7465 1.25511 53.6113C1.30329 53.4952 1.39745 53.2909 1.57445 53.1152L1.65062 53.0469C2.04458 52.7279 2.62374 52.7536 2.98851 53.1211C3.33657 53.4718 3.37023 54.014 3.093 54.4033C3.08401 54.4291 3.07024 54.4712 3.05394 54.5332C3.0067 54.713 2.95712 54.9662 2.89964 55.2949C2.78967 55.9239 2.65734 56.7971 2.47386 57.6289C2.44626 57.7543 2.43174 57.938 2.44066 58.1318C2.44569 58.241 2.45682 58.3295 2.46898 58.3945C2.4926 58.4036 2.52125 58.4167 2.55785 58.4287C2.61895 58.4487 2.68403 58.4672 2.76781 58.4922C2.84647 58.5156 2.94154 58.5447 3.03832 58.5771C3.22843 58.6408 3.47648 58.7355 3.71605 58.8935C4.83861 59.6344 5.18654 60.6617 5.3225 61.5537C5.38516 61.9649 5.41068 62.4116 5.43871 62.7285C5.46995 63.0817 5.50775 63.3372 5.57543 63.542C5.99593 64.814 6.36683 65.7546 7.09789 66.2861C8.21607 67.099 9.05837 68.1726 9.85277 69.289C10.4892 70.1837 10.6448 71.2482 10.7327 72.1142C10.8295 73.0698 10.851 73.7855 11.0588 74.4355C11.6178 76.1844 11.5691 77.8333 11.4875 79.1826C11.4454 79.8798 11.3982 80.4529 11.3967 80.9873C11.3952 81.5143 11.4419 81.9055 11.5471 82.208C12.0586 83.6782 12.612 84.6338 13.1819 85.8486C13.717 86.9893 14.1817 88.2206 14.5871 89.5801C14.9175 90.6877 15.4524 91.6685 16.093 92.6162C16.533 93.2671 16.9648 93.9847 17.3782 94.664C17.7984 95.3546 18.2017 96.0096 18.6077 96.584C19.0359 97.1898 19.304 97.8687 19.5198 98.4697C19.7494 99.1095 19.9144 99.6393 20.1555 100.152C20.4187 100.712 20.7677 101.214 21.1721 101.767C21.5616 102.298 22.0234 102.903 22.3996 103.575C23.2218 105.043 24.2348 106.81 24.9426 108.52C25.4141 109.659 26.0205 110.597 27.7737 112.314C28.4468 112.974 28.8852 113.674 29.2346 114.287C29.605 114.937 29.83 115.393 30.1457 115.8C30.4909 116.244 30.8159 116.584 31.1379 116.943C31.3859 117.22 31.6937 117.573 31.8889 117.981L31.9651 118.16L31.9846 118.212L31.9983 118.266C32.1064 118.692 32.1018 119.098 32.1018 119.37C32.1017 119.922 31.654 120.37 31.1018 120.37C30.5496 120.37 30.1019 119.922 30.1018 119.37Z" fill="black"/>
<path d="M48.9907 0.108441C53.815 -0.159306 57.4399 0.136025 58.3735 0.274456C60.3623 0.569325 63.7377 0.910571 67.0512 1.58305C68.679 1.91342 70.2239 2.48541 71.5825 2.99028C72.7956 3.44106 73.8864 3.80376 74.9712 4.19926C75.984 4.56854 76.946 4.95105 77.604 5.3643C78.3295 5.82001 79.0118 6.20328 79.6587 6.57719C80.2904 6.94236 80.9036 7.30683 81.4204 7.69731C82.4719 8.49193 83.8032 9.84033 84.8667 10.8448C85.8848 11.8064 86.7243 12.8425 87.8823 14.4815C88.3226 15.1046 88.7813 15.5863 89.3022 16.1407C89.8176 16.6891 90.3822 17.2975 90.938 18.1123C91.7551 19.3106 92.4091 20.1636 93.186 21.2774C94.0281 22.4845 94.5175 24.186 94.9282 25.3575C95.4219 26.7659 95.9857 28.2188 96.5376 29.3848C97.1066 30.5871 97.2677 31.9599 97.5434 33.7784C97.9648 36.5577 97.9023 38.354 97.6733 39.6387C97.5587 40.2814 97.4059 40.776 97.27 41.1739C97.1226 41.6053 97.0412 41.8064 96.9936 42.0205C96.7227 43.2422 96.2578 44.562 95.7934 45.9571C95.2451 47.6043 94.8816 48.8125 94.5385 50.0362L94.5317 50.0606L94.5239 50.084C94.4824 50.208 94.4467 50.3261 94.4067 50.462C94.3678 50.5941 94.3238 50.7452 94.27 50.9073C94.1586 51.2424 94.0582 51.4844 93.9409 51.9502C93.806 52.4857 93.2625 52.8105 92.727 52.6758C92.1915 52.5409 91.8666 51.9975 92.0014 51.462C92.1429 50.9002 92.2936 50.514 92.3725 50.2764C92.4138 50.1521 92.4484 50.0334 92.4887 49.8965C92.5279 49.7635 92.5719 49.6124 92.6264 49.4493C92.9742 48.2111 93.3444 46.9823 93.896 45.3252C94.3814 43.867 94.7992 42.6805 95.0415 41.5879C95.121 41.2294 95.2722 40.8352 95.3774 40.5274C95.4942 40.1856 95.6141 39.7956 95.7046 39.2881C95.8857 38.2724 95.9648 36.7034 95.5669 34.0782C95.2677 32.1049 95.1406 31.1079 94.7299 30.2403C94.136 28.9852 93.5455 27.4593 93.0405 26.0186C92.5585 24.6434 92.1836 23.3369 91.5454 22.4219C90.8605 21.44 90.0753 20.3972 89.2856 19.2393C88.825 18.5639 88.3542 18.0526 87.8442 17.5098C87.3398 16.973 86.7828 16.391 86.2485 15.6348C85.1245 14.044 84.3732 13.1296 83.4936 12.2989C82.3282 11.1981 81.1491 9.99936 80.2143 9.29301C79.808 8.98597 79.2946 8.67682 78.6577 8.30864C78.0357 7.94909 77.3065 7.53878 76.5405 7.05766C76.0879 6.77337 75.3203 6.45507 74.2866 6.07817C73.3246 5.72742 72.051 5.29811 70.8862 4.86528C69.5097 4.35375 68.1059 3.83774 66.6538 3.54301C63.4027 2.8832 60.2054 2.56818 58.0796 2.25297C57.3054 2.13822 53.8191 1.84366 49.101 2.10551C46.268 2.26275 44.5276 2.43217 43.0981 2.66508C41.7294 2.88812 40.2421 3.13515 38.7827 3.47856C37.3599 3.81336 36.3335 4.01213 35.5424 4.18071C34.7445 4.35076 34.188 4.48968 33.6186 4.70707C32.5316 5.12214 30.788 5.79818 29.4067 6.58012C28.5503 7.06491 27.6763 7.50039 26.9682 7.87602C26.227 8.26925 25.6604 8.59994 25.271 8.92192C24.9597 9.17931 24.6357 9.45637 24.3012 9.74223C23.9694 10.0259 23.6275 10.318 23.2905 10.5957C22.6309 11.1394 21.9299 11.6798 21.2954 12.0166C21.0174 12.1642 20.6878 12.3216 20.352 12.4805C20.0088 12.643 19.6481 12.8117 19.2807 12.9961C18.5392 13.3683 17.8247 13.7743 17.27 14.2256C16.8791 14.5437 16.5692 14.9454 16.2485 15.4268C15.9559 15.8661 15.5927 16.4775 15.1958 16.9678C14.7577 17.509 14.4346 18.0139 14.0952 18.5284C13.7661 19.0271 13.4072 19.5582 12.937 20.0274C12.6158 20.3479 12.1627 20.9555 11.5942 21.792C11.035 22.6149 10.4223 23.5706 9.76608 24.5664C9.05627 25.6436 8.55598 26.5927 8.50534 27.7657C8.48154 28.3174 8.01506 28.7455 7.46334 28.7217C6.9116 28.6979 6.48354 28.2315 6.50729 27.6797C6.58231 25.9407 7.34237 24.6098 8.09616 23.4659C8.73171 22.5014 9.37113 21.505 9.93991 20.668C10.4993 19.8448 11.0505 19.0846 11.5249 18.6114C11.8342 18.3028 12.094 17.9303 12.4262 17.4268C12.7481 16.9391 13.1286 16.3421 13.6411 15.709C13.9612 15.3136 14.2003 14.8941 14.5844 14.3174C14.9405 13.7829 15.3829 13.1828 16.0083 12.6739C16.735 12.0826 17.6057 11.5994 18.3833 11.209C18.7755 11.0121 19.1586 10.8314 19.4956 10.6719C19.8399 10.5089 20.1277 10.3723 20.3579 10.25C20.7971 10.0168 21.3618 9.59359 22.018 9.05278C22.3391 8.78818 22.6687 8.50692 23.0024 8.22172C23.3334 7.93883 23.6703 7.65065 23.9965 7.3809C24.5599 6.91512 25.2913 6.50169 26.0307 6.10942C26.8035 5.69946 27.5934 5.30761 28.4214 4.83891C29.9527 3.97199 31.8332 3.24806 32.9048 2.83891C33.6239 2.5643 34.3045 2.3996 35.1255 2.22465C35.9532 2.04826 36.9289 1.85974 38.3247 1.53129C39.8604 1.16993 41.4115 0.912798 42.7758 0.690472C44.3085 0.440726 46.131 0.267155 48.9907 0.108441Z" fill="black"/>
<path d="M67.7592 19.345C67.9228 19.2811 68.6433 18.8955 69.5327 19.3118C70.8345 19.9212 71.6108 20.7122 72.1157 21.5032C72.3614 21.8882 72.5332 22.2585 72.6665 22.5696C72.8147 22.9158 72.8816 23.1021 72.9741 23.2874C73.3655 24.0713 73.8566 24.6882 74.3598 25.2112C74.7592 25.6262 75.2309 25.9749 75.7573 26.384C75.7896 26.378 75.842 26.3657 75.9204 26.3381C76.0571 26.2901 76.2059 26.2228 76.4067 26.1301C76.5876 26.0467 76.8246 25.9361 77.0639 25.8547C78.2067 25.4663 79.1103 25.1536 79.9018 24.8704C80.6686 24.596 81.501 24.3985 82.0903 24.2512C82.2594 24.2089 82.7702 24.064 83.3344 24.3967C84.0032 24.7912 84.4438 25.3265 84.8188 25.8518C85.2209 26.4152 85.5077 26.8975 86.0053 27.5237C86.3846 28.0009 86.7752 28.6206 87.1176 29.1741C87.4784 29.7572 87.7821 30.2608 88.0317 30.6057C88.5945 31.3833 89.4604 32.5355 90.1596 33.2883C90.7105 33.8814 91.4948 34.568 92.1674 35.2005C92.691 35.6928 93.2218 36.2553 93.8774 37.0442L95.017 38.3157L95.8676 39.2825L95.893 39.3118L95.9155 39.3421C96.0239 39.4866 96.1227 39.6183 96.3335 39.8645C96.6926 40.2841 96.6437 40.9155 96.2241 41.2747C95.8045 41.6337 95.173 41.5848 94.8139 41.1653C94.5836 40.8962 94.4581 40.7306 94.3452 40.5803C93.8167 39.9779 93.2937 39.3787 92.395 38.387L92.3803 38.3704L92.3667 38.3538C91.7431 37.6013 91.2596 37.0922 90.7973 36.6575C90.2077 36.1031 89.3066 35.3083 88.6948 34.6497C87.9046 33.799 86.9761 32.5586 86.4116 31.7786C86.1066 31.3572 85.7481 30.7618 85.4165 30.2258C85.0664 29.66 84.734 29.1391 84.4389 28.7678C83.9095 28.1016 83.4861 27.4274 83.1909 27.0139C82.9224 26.6378 82.707 26.3945 82.4663 26.219C81.8635 26.369 81.1901 26.5333 80.5756 26.7532C79.7695 27.0417 78.8545 27.3584 77.7075 27.7483C77.5852 27.7899 77.4451 27.853 77.2446 27.9456C77.0638 28.029 76.826 28.1396 76.5835 28.2249C76.121 28.3874 75.3125 28.5737 74.5844 28.0061C74.1067 27.6334 73.4587 27.1594 72.9184 26.5979C72.318 25.9739 71.691 25.1942 71.185 24.1809C71.059 23.9286 70.9265 23.5876 70.8276 23.3567C70.7136 23.0906 70.5909 22.8328 70.4292 22.5794C70.12 22.095 69.6307 21.5672 68.6919 21.1262C68.6862 21.1282 68.6791 21.1311 68.6713 21.134C68.6517 21.1414 68.6297 21.1504 68.5981 21.1633C68.5705 21.1747 68.5269 21.1929 68.4848 21.2092C67.6627 21.5294 66.9522 21.7091 66.2866 21.9163C65.5416 22.1482 64.8297 22.3404 64.2504 22.5081C63.6475 22.6826 63.1839 22.8317 62.8305 22.9934C62.2437 23.262 61.6672 23.493 61.1665 23.6936C60.6514 23.9 60.2393 24.0658 59.9253 24.219C59.5083 24.4225 59.0947 24.6361 58.7544 24.8147C58.4298 24.985 58.1392 25.1407 58.0131 25.2034C57.5187 25.4493 56.9183 25.2476 56.6723 24.7532C56.4266 24.2588 56.6282 23.6583 57.1225 23.4124C57.2237 23.362 57.463 23.2335 57.8256 23.0432C58.1728 22.8611 58.6051 22.637 59.0473 22.4212C59.4417 22.2287 59.9325 22.0338 60.4233 21.8372C60.9285 21.6348 61.4618 21.4206 61.9985 21.1751C62.4997 20.9457 63.0906 20.762 63.6948 20.5872C64.3227 20.4055 64.9713 20.2317 65.6928 20.0071C66.4799 19.7621 67.0224 19.632 67.7592 19.345Z" fill="black"/>
<path d="M68.1037 23.355C69.0382 23.446 69.5114 24.208 69.7336 24.6011C69.8026 24.7233 69.8675 24.8484 69.924 24.9575C69.9831 25.0718 70.0338 25.1704 70.0861 25.2651C70.1934 25.4594 70.2749 25.5741 70.3429 25.644C71.0137 26.3343 71.4336 26.8566 72.048 27.2505C72.5134 27.5489 72.8508 27.9897 73.089 28.3188C73.3663 28.702 73.5358 28.9679 73.7541 29.2095C73.9938 29.4748 74.2704 29.6897 74.6134 29.9673C74.8089 30.1254 75.0613 30.3316 75.2882 30.5845C75.4305 30.5228 75.5945 30.4423 75.7775 30.3442C75.9583 30.2474 76.1935 30.1161 76.3791 30.021C76.6393 29.8876 76.9122 29.727 77.2404 29.5356C77.56 29.3493 77.9207 29.1407 78.3185 28.937C79.3574 28.4052 80.1122 27.9538 80.9904 27.8267C82.341 27.6313 83.3467 28.5073 83.9465 29.1597C84.2674 29.5088 84.5515 29.883 84.7716 30.1694C85.0225 30.4957 85.1528 30.6537 85.2287 30.7192C86.3846 31.7153 86.8411 32.6759 87.2121 33.2651C87.4513 33.6451 87.7677 34.0282 88.1222 34.4331C88.4553 34.8135 88.8543 35.2472 89.1574 35.645C90.0415 36.8056 90.8249 37.4719 92.0158 38.6616C92.4563 39.1017 92.8592 39.5998 93.1935 40.0171C93.4627 40.3531 93.671 40.615 93.842 40.8052L94.0011 40.9722L94.0373 41.0063L94.0695 41.0435C94.3047 41.3193 94.557 41.5619 94.8556 41.8374C95.0739 42.0387 95.3228 42.2631 95.5841 42.5171L95.8498 42.7817L95.8586 42.7905L95.8664 42.7993C96.0829 43.0329 96.4266 43.3778 97.005 43.8491C97.4327 44.1979 97.4969 44.8274 97.1486 45.2554C96.7997 45.6835 96.1695 45.7478 95.7414 45.3989C95.0873 44.866 94.6761 44.458 94.3996 44.1597H94.3986C94.0959 43.8507 93.8106 43.5944 93.5002 43.3081C93.2 43.0312 92.8839 42.7304 92.5754 42.3726C92.2696 42.0698 91.9333 41.6429 91.633 41.2681C91.2944 40.8455 90.954 40.4286 90.6017 40.0767C89.5125 38.9885 88.5592 38.1598 87.5666 36.8569C87.3185 36.5313 87.0024 36.1902 86.6174 35.7505C86.2537 35.3352 85.8483 34.8525 85.5197 34.3306C85.0507 33.5856 84.7891 32.9811 83.923 32.2349C83.6565 32.0052 83.3899 31.6526 83.1867 31.3882C82.9525 31.0835 82.7245 30.7849 82.4748 30.5132C81.9328 29.9236 81.5593 29.7652 81.2765 29.8062C80.8229 29.8719 80.4774 30.0785 79.2297 30.7173C78.8854 30.8935 78.5665 31.0781 78.2472 31.2642C77.9366 31.4453 77.6105 31.6366 77.2912 31.8003C77.0339 31.9322 76.4563 32.2676 76.0129 32.4517C75.7834 32.5469 75.4643 32.6601 75.1291 32.6733C74.7594 32.6879 74.2058 32.5726 73.882 32.0239C73.8254 31.9283 73.6921 31.7942 73.3556 31.522C73.0666 31.2881 72.6396 30.9598 72.2697 30.5503C71.9545 30.2014 71.6639 29.7602 71.4689 29.4907C71.2348 29.1672 71.0864 29.0094 70.9689 28.9341C70.0987 28.3762 69.4276 27.5729 68.9084 27.0386C68.6531 26.7759 68.4701 26.4745 68.3361 26.2319C68.2678 26.1083 68.2028 25.9831 68.1476 25.8765C68.0898 25.7647 68.0408 25.6712 67.9924 25.5854C67.9267 25.4693 67.8781 25.4 67.8468 25.3599C67.8188 25.3672 67.7838 25.3775 67.7394 25.3931C67.6781 25.4146 67.6138 25.4399 67.5295 25.4731C67.4521 25.5036 67.3523 25.5424 67.2502 25.5776C66.8596 25.7122 66.4455 25.7839 66.1183 25.8442C65.7668 25.9091 65.4606 25.97 65.1525 26.0747C64.6614 26.2416 64.0705 26.5677 63.3039 26.9839C62.5799 27.3769 61.731 27.8294 60.8547 28.1284C60.2237 28.3437 59.7534 28.5966 59.0754 28.9712C58.3467 29.3737 57.564 29.7347 57.1242 29.8442C56.5885 29.9774 56.0458 29.6514 55.9123 29.1157C55.7788 28.5798 56.1059 28.0373 56.6418 27.9038C56.7004 27.8891 56.878 27.826 57.1681 27.6948C57.4409 27.5715 57.7687 27.408 58.1086 27.2202C58.789 26.8443 59.3951 26.5136 60.2091 26.2358C60.9036 25.9988 61.6124 25.6258 62.3488 25.2261C63.0426 24.8494 63.816 24.4156 64.509 24.1802C64.9694 24.0238 65.4054 23.9421 65.756 23.8774C66.131 23.8082 66.38 23.7624 66.5988 23.687C66.6529 23.6684 66.7123 23.6449 66.7961 23.6118C66.873 23.5815 66.9733 23.5418 67.0773 23.5054C67.282 23.4336 67.5747 23.3473 67.9103 23.3462L68.1037 23.355Z" fill="black"/>
<path d="M43.6965 33.4245C44.7328 33.385 45.944 33.483 46.8606 33.5836C47.3267 33.6348 47.5233 33.6323 48.2834 33.6666C49.1905 33.7076 49.9959 33.7215 50.6418 33.736C50.9608 33.7431 51.2488 33.7506 51.4846 33.7623C51.7001 33.7731 51.9424 33.7903 52.134 33.8317C52.9365 34.0052 53.5307 34.2075 54.0627 34.7731C54.4494 35.1841 54.4122 35.7001 54.4124 35.7301C54.4132 35.9712 54.3553 36.3109 54.1086 36.611C53.9393 36.817 53.7348 36.9296 53.592 36.9918C53.4429 37.0569 53.2925 37.0971 53.1643 37.1237C52.9103 37.1762 52.6226 37.1999 52.3577 37.2155C51.7605 37.2506 51.2444 37.2494 50.6672 37.3034C50.1326 37.3533 49.6571 37.3528 48.9573 37.3834C47.1761 37.4615 45.74 37.3534 45.2385 37.2741C44.611 37.1748 44.0329 37.1295 43.092 37.0748C40.7853 36.941 40.4644 37.1627 39.6194 37.2174C39.0747 37.2527 38.8095 37.3402 38.2649 37.444C37.688 37.5539 37.2294 37.6391 36.5872 37.7965C36.2204 37.8864 35.8357 37.933 35.5198 37.9664C35.1706 38.0035 34.9375 38.0219 34.7512 38.0534C34.4737 38.1003 34.1635 38.1442 33.8909 38.1832C33.6066 38.224 33.3694 38.2586 33.1995 38.2916C32.4613 38.4351 31.5937 38.5626 31.1077 38.6862C30.3803 38.8712 29.7368 39.0539 28.9817 39.2643C28.9822 39.2642 28.9726 39.267 28.9524 39.276C28.932 39.2851 28.9042 39.2993 28.8704 39.319C28.8016 39.3589 28.7182 39.4155 28.6243 39.4899C28.435 39.6399 28.2367 39.8338 28.0627 40.0309C27.6203 40.5324 27.0569 41.0528 26.6711 41.3288C26.6063 41.3751 26.5201 41.4576 26.3606 41.6325C26.2196 41.7871 26.0165 42.0198 25.7844 42.2457C25.437 42.5839 25.1669 42.8567 24.9592 43.1422C24.7405 43.4429 24.7293 43.56 24.7278 43.5797C24.7204 43.6726 24.7038 43.7689 24.676 43.8639C24.6539 43.9395 24.6024 44.0931 24.4856 44.2457C24.4425 44.3021 24.3525 44.4059 24.2083 44.4957C24.0855 44.6551 23.955 44.7893 23.844 44.8971C23.7419 45.2156 23.4842 45.4759 23.136 45.5631C23.1178 45.5677 23.0762 45.5787 23.0344 45.5875C22.9996 45.5949 22.9148 45.6118 22.8137 45.6159C22.7623 45.6179 22.6711 45.6187 22.5618 45.5973C22.4587 45.5771 22.262 45.5222 22.0764 45.3571C21.9283 45.2253 21.8319 45.0609 21.7805 44.8893C21.5163 44.7552 21.3135 44.5062 21.2512 44.193C21.2357 44.1148 21.2166 44.0695 21.1545 43.8278C21.1057 43.6372 21.0499 43.3856 21.0266 43.1012C21.0034 42.8177 20.9978 42.4856 21.0374 42.1549C21.0753 41.8372 21.1633 41.443 21.3821 41.0914C21.6923 40.5932 22.1491 40.1804 22.4739 39.8864C22.5675 39.8016 22.7045 39.649 22.9104 39.4118C23.0973 39.1964 23.329 38.9264 23.5637 38.6852C23.9398 38.2989 24.5104 37.8817 24.7502 37.6803C25.1912 37.3102 25.7401 37.1135 26.1692 36.9313C27.3067 36.4483 27.9079 36.086 28.7561 35.6745C29.1374 35.4895 29.5285 35.3706 29.8674 35.2789C30.2428 35.1775 30.4967 35.1219 30.7825 35.0338C31.8161 34.7151 32.33 34.6392 33.0364 34.5368C33.9129 34.4096 34.3911 34.1763 34.8928 34.0348C35.7198 33.8016 36.4328 33.7365 36.9934 33.7184C37.2661 33.7096 37.5141 33.7121 37.6897 33.7116C37.8912 33.711 37.9722 33.706 38.0051 33.7008C38.2725 33.6583 38.6161 33.6372 38.9329 33.6198C39.2717 33.6011 39.6124 33.5854 39.9456 33.5592C40.5327 33.5131 42.3025 33.4775 43.6965 33.4245ZM36.5334 35.7545C36.2027 35.7881 35.8361 35.8467 35.4358 35.9596C35.4316 35.9608 35.4269 35.9621 35.4221 35.9635C35.6801 35.9343 35.912 35.9028 36.1106 35.8541C36.2593 35.8177 36.3996 35.7849 36.5334 35.7545Z" fill="black"/>
<path d="M1.66296 58.9021C1.66301 58.1995 1.95163 56.8968 2.49011 55.8689C2.69934 55.4695 2.84812 55.1005 3.02429 54.6883C3.19242 54.2948 3.38867 53.8546 3.67371 53.4392C4.13321 52.7697 4.63503 52.0349 5.43933 51.3465C5.81707 51.0232 6.13747 50.6183 6.48328 50.1609C6.79543 49.748 7.18498 49.208 7.62781 48.8318C8.27842 48.2791 9.1477 48.2255 9.73523 48.2498C10.3717 48.2762 10.9856 48.4122 11.3417 48.4959C12.0975 48.6735 12.8718 48.9721 13.6307 49.5095C14.0675 49.8189 14.4373 50.231 14.7509 50.6082C15.1049 51.0341 15.3462 51.3604 15.6854 51.7508C15.9902 52.1015 16.2849 52.3747 16.5927 52.6521C16.8907 52.9209 17.2338 53.2212 17.5526 53.575C17.9224 53.9854 18.1241 54.4617 18.2577 54.8523C18.3252 55.0497 18.3824 55.2483 18.4315 55.4177C18.4831 55.5956 18.5263 55.7428 18.5731 55.8787C18.6638 56.142 18.7815 56.3789 18.9393 56.7019C19.0909 57.0121 19.2703 57.3855 19.4159 57.8367C19.6584 58.5886 19.8181 59.2816 19.9081 60.0486C19.9849 60.7035 19.8864 61.3016 19.7811 61.7722C19.7301 62.0002 19.6686 62.2338 19.6268 62.4031C19.5805 62.5908 19.5526 62.7211 19.5399 62.822C19.4786 63.3108 19.3098 63.7443 19.1718 64.0838C19.0218 64.4524 18.9021 64.725 18.8202 65.0349C18.6249 65.7735 18.5111 66.3881 18.3407 67.1756C18.1399 68.1034 17.5771 68.9139 16.8475 69.8455C15.4202 71.668 14.3793 72.4843 13.4462 73.2068L13.4452 73.2058C12.6492 73.8743 12.0228 74.326 11.2303 74.7351L11.204 74.7478L11.1766 74.7605C11.0472 74.818 10.9446 74.8662 10.7157 75.0291C10.2658 75.3494 9.64147 75.2446 9.32117 74.7947C9.00087 74.3448 9.10562 73.7205 9.55554 73.4002C9.88179 73.1679 10.0963 73.0539 10.3192 72.9529C10.9414 72.631 11.4486 72.2751 12.1893 71.6511L12.205 71.6375L12.2216 71.6258C13.0903 70.9531 13.9889 70.2522 15.2733 68.6121C16.0124 67.6683 16.2936 67.1824 16.3866 66.7527C16.5433 66.0285 16.6758 65.3204 16.8866 64.5232C17.0098 64.0575 17.1942 63.6357 17.3182 63.3308C17.4541 62.9968 17.5299 62.7771 17.5555 62.573C17.5839 62.3471 17.6363 62.1196 17.6844 61.9246C17.7371 61.7111 17.7841 61.5362 17.829 61.3357C17.9154 60.9492 17.9599 60.6078 17.9218 60.282C17.8488 59.6599 17.7203 59.0949 17.5126 58.4509C17.4144 58.1465 17.2908 57.8835 17.1425 57.5799C17.0004 57.289 16.8214 56.9339 16.6825 56.531C16.6167 56.3401 16.5596 56.1441 16.5106 55.9754C16.4592 55.798 16.4148 55.645 16.3651 55.4998C16.2644 55.2053 16.1701 55.028 16.0673 54.9138C15.8343 54.6553 15.584 54.4352 15.2538 54.1375C14.9331 53.8483 14.5635 53.5086 14.1757 53.0623C13.8406 52.6767 13.4669 52.1923 13.2128 51.8865C12.918 51.5319 12.6859 51.2911 12.4745 51.1414C11.9657 50.7811 11.4414 50.573 10.8846 50.4422C10.545 50.3623 10.0875 50.2659 9.6532 50.2478C9.16976 50.2278 8.96773 50.318 8.92273 50.3562C8.69006 50.5539 8.45597 50.8683 8.07898 51.367C7.73546 51.8213 7.30032 52.3865 6.74011 52.866C6.15933 53.3631 5.78883 53.8916 5.32312 54.5701C5.15939 54.8086 5.0277 55.0893 4.86316 55.4744C4.70665 55.8407 4.5177 56.3088 4.2616 56.7976C3.85943 57.5654 3.66302 58.5511 3.66296 58.9021C3.66296 59.4544 3.21525 59.9021 2.66296 59.9021C2.11068 59.9021 1.66296 59.4544 1.66296 58.9021Z" fill="black"/>
<path d="M6.61197 51.3589C7.02779 50.9955 7.65964 51.0379 8.02311 51.4536C8.57031 52.0797 10.4336 53.8617 11.6266 55.0122C12.1398 55.5072 12.8034 56.1391 13.3766 57.0611C13.4664 57.1959 13.6519 57.4494 13.7936 57.731C13.9374 58.0169 13.9669 58.1533 14.2594 58.5943C14.5643 59.0544 14.4382 59.6748 13.9782 59.98C13.5181 60.2851 12.8978 60.1597 12.5924 59.6997C12.212 59.1263 12.0748 58.7644 12.0075 58.6304C11.9381 58.4926 11.8743 58.4139 11.7116 58.1695L11.7018 58.1548L11.693 58.1392C11.2643 57.4423 10.7654 56.9604 10.238 56.4517C9.10195 55.3561 7.13836 53.4806 6.51725 52.7701C6.1538 52.3542 6.19619 51.7224 6.61197 51.3589Z" fill="black"/>
<path d="M4.63708 64.0457C4.63709 63.7277 4.73698 63.2964 4.83826 62.9344C4.95006 62.5348 5.10431 62.0785 5.28162 61.6649C5.59491 60.9341 6.28283 60.5757 6.69958 60.3768C7.24367 60.1171 7.54267 60.0236 7.84412 59.8231C8.59216 59.3254 9.33135 58.9418 10.3978 58.578L10.4506 58.5604L10.5062 58.5477C11.2964 58.3743 12.057 58.2449 12.7855 58.1199C13.5185 57.9942 14.2199 57.8733 14.932 57.7137C15.2364 57.6326 15.4021 57.5906 15.5697 57.5487C16.1055 57.4147 16.6486 57.7404 16.7826 58.2762C16.9163 58.8118 16.5906 59.3541 16.0551 59.4881C15.8868 59.5302 15.7261 59.5702 15.4154 59.6531L15.3969 59.659L15.3773 59.6629C14.6059 59.836 13.8541 59.9654 13.1244 60.0906C12.4068 60.2138 11.7093 60.3333 10.9916 60.4891C10.1215 60.79 9.54856 61.0916 8.95251 61.4881C8.49791 61.7905 7.85102 62.0435 7.56189 62.1815C7.14548 62.3802 7.11264 62.4712 7.12048 62.453C6.98253 62.7748 6.85542 63.1459 6.76404 63.4725C6.71855 63.635 6.68446 63.778 6.66248 63.8905C6.63781 64.0166 6.63708 64.0606 6.63708 64.0457C6.63708 64.598 6.18937 65.0457 5.63708 65.0457C5.0848 65.0457 4.63708 64.598 4.63708 64.0457Z" fill="black"/>
<path d="M7.77771 68.0659C7.77771 67.1897 8.06848 66.0401 8.43689 65.2563C8.74239 64.6064 9.25055 64.2181 9.64978 63.9604C9.83967 63.8378 10.0593 63.7125 10.2025 63.6264C10.3629 63.5299 10.4761 63.4543 10.5638 63.3832C11.25 62.7975 11.6711 62.3738 12.3011 61.8061C12.4245 61.6578 12.6548 61.3513 13.2455 60.9545C13.7039 60.6469 14.3253 60.7686 14.6332 61.227C14.941 61.6854 14.8181 62.3068 14.3597 62.6147C14.1565 62.7512 14.0533 62.8456 13.9945 62.9057C13.9638 62.9371 13.9375 62.9673 13.9066 63.0043C13.8853 63.0299 13.8247 63.1051 13.7767 63.1596L13.7377 63.2036L13.6927 63.2436C13.1433 63.7363 12.5663 64.3051 11.8529 64.9135L11.8451 64.9204L11.8383 64.9262C11.6331 65.0943 11.4148 65.2308 11.2328 65.3403C11.03 65.4622 10.8904 65.5405 10.7347 65.6411C10.4426 65.8297 10.3128 65.9656 10.2465 66.1069C9.98432 66.6647 9.77771 67.5251 9.77771 68.0659C9.77763 68.6181 9.32994 69.0659 8.77771 69.0659C8.22548 69.0659 7.77779 68.6181 7.77771 68.0659Z" fill="black"/>
<path d="M16.8725 59.0057C17.3664 58.7587 17.9672 58.959 18.2143 59.4529C18.4612 59.9469 18.261 60.5477 17.767 60.7947C17.597 60.8798 17.3974 60.9804 17.143 61.0818C16.9043 61.177 16.6349 61.2651 16.4105 61.3328C16.1433 61.4196 15.7818 61.5897 15.4252 61.7986C15.0619 62.0115 14.7785 62.2223 14.6361 62.365C14.2462 62.7561 13.6131 62.7569 13.2221 62.367C12.831 61.977 12.8302 61.344 13.2201 60.9529C13.535 60.6372 13.9829 60.3259 14.4145 60.0731C14.8526 59.8163 15.3493 59.5759 15.7943 59.4315L15.8051 59.4275L15.8158 59.4246C16.0068 59.3674 16.226 59.2935 16.4018 59.2234C16.5692 59.1567 16.701 59.0914 16.8725 59.0057Z" fill="black"/>
<path d="M14.8075 56.8906C14.9712 56.8906 15.1059 56.9314 15.1337 56.9395C15.1901 56.9558 15.2446 56.9746 15.2889 56.9912C15.3791 57.0249 15.4852 57.0695 15.5975 57.1182C15.818 57.2137 16.1131 57.3503 16.4618 57.5098C16.5786 57.5563 16.6759 57.5868 16.7684 57.6143C16.8412 57.6358 16.9959 57.6776 17.1083 57.7148C17.3765 57.8037 17.6044 57.9194 17.7675 58.001C18.2613 58.248 18.4615 58.8489 18.2147 59.3428C17.9678 59.8367 17.3669 60.0369 16.8729 59.79C16.6943 59.7007 16.5904 59.65 16.4794 59.6133C16.4289 59.5966 16.0429 59.4954 15.7069 59.3604L15.6844 59.3516L15.663 59.3418C15.2946 59.1733 15.0075 59.0429 14.8026 58.9541C14.7002 58.9097 14.6315 58.8809 14.5897 58.8652C14.1423 58.7657 13.8075 58.368 13.8075 57.8906C13.8075 57.3383 14.2552 56.8906 14.8075 56.8906Z" fill="black"/>
<path d="M15.3722 63.5993C15.8964 63.4257 16.4622 63.7099 16.6359 64.2341C16.7993 64.7278 16.5566 65.2574 16.09 65.4626C16.0883 65.4642 16.087 65.4666 16.0851 65.4684C16.0409 65.5119 15.9708 65.5942 15.88 65.7292C15.707 65.9864 15.5065 66.3635 15.3019 66.8464C15.1193 67.662 14.986 68.2204 14.8907 68.7585C14.8917 68.7604 14.8927 68.7623 14.8937 68.7643C14.9089 68.7964 14.9263 68.8305 14.9484 68.8747C15.1954 69.3686 14.995 69.9695 14.5011 70.2165C14.0071 70.4635 13.4063 70.2632 13.1593 69.7692C13.0936 69.6379 12.9169 69.3094 12.8722 68.9352L12.8556 68.7985L12.8771 68.6618C12.9891 67.9496 13.1696 67.2257 13.3722 66.3161L13.3917 66.2302L13.4249 66.1491C13.6716 65.5558 13.9414 65.0269 14.2198 64.613C14.3589 64.4063 14.5139 64.2085 14.6837 64.0417C14.8436 63.8846 15.0736 63.6982 15.3722 63.5993Z" fill="black"/>
<path d="M15.0987 64.4085C15.1992 63.8654 15.7216 63.5062 16.2647 63.6067C16.8074 63.7074 17.1657 64.229 17.0655 64.7718C17.054 64.834 17.0458 64.8947 17.0362 64.9524C17.2476 65.0702 17.4336 65.2462 17.5635 65.4895L17.6241 65.6175L17.6885 65.8098C17.7411 66.005 17.7569 66.2087 17.7393 66.4026C17.7158 66.6617 17.6247 66.988 17.3829 67.2698C17.0652 67.6396 16.46 68.2875 15.9854 68.7649C15.7579 68.9937 15.5218 69.2235 15.3555 69.3577C15.3153 69.3902 15.2449 69.4448 15.1622 69.4934C15.1261 69.5146 15.0374 69.5652 14.917 69.6009C14.8639 69.6166 14.4377 69.7492 14.0274 69.4475C13.5635 69.1063 13.6122 68.598 13.6241 68.5042C13.6428 68.3576 13.6896 68.2464 13.7071 68.2063C13.7491 68.1098 13.8019 68.0258 13.834 67.9759C13.9288 67.8286 14.039 67.5432 14.1407 67.1458C14.1836 66.9782 14.2216 66.8072 14.254 66.6419C14.2597 66.6069 14.2661 66.5714 14.2735 66.5354C14.3045 66.3687 14.3311 66.2101 14.3526 66.0696C14.4083 65.7053 14.6542 65.4179 14.9737 65.2913C14.9992 65.0409 15.0361 64.7467 15.0987 64.4085Z" fill="black"/>
<path d="M10.7709 46.7306C10.9687 46.7277 11.3833 46.7651 11.6996 47.1232C12.0201 47.4861 12.0059 47.9118 11.9711 48.131C11.9083 48.5266 11.6482 48.7412 11.5424 48.8166C11.4265 48.8991 11.3152 48.9431 11.2651 48.9621C11.1615 49.0012 11.0413 49.0317 10.9828 49.047C10.8671 49.0774 10.7527 49.1094 10.6303 49.1515C10.4565 49.2905 10.2822 49.3965 10.1479 49.4689C10.0325 49.5311 9.91677 49.5873 9.82074 49.6339C9.71781 49.6839 9.64063 49.7208 9.57172 49.757C9.33466 49.8813 9.05611 50.0105 8.74457 50.1603C8.65014 50.2057 8.54865 50.2561 8.43793 50.3107C8.33246 50.4423 8.2219 50.5829 8.10004 50.7306C7.90088 50.9721 7.59877 51.3774 7.25238 51.8459C6.91562 52.3013 6.54411 52.8055 6.2309 53.2082C5.96836 53.5457 5.54893 54.1518 4.94379 55.1369C4.71857 55.5035 4.48889 55.7811 4.28461 56.008C4.2716 56.0224 4.25779 56.0355 4.24554 56.049C4.11978 56.4168 4.00109 56.7599 3.8725 57.1232C3.57724 57.9573 3.56781 58.2923 3.56781 58.3195C3.56773 58.8716 3.11997 59.3194 2.56781 59.3195C2.11432 59.3195 1.73133 59.0174 1.60883 58.6037C1.44048 58.6337 1.17473 58.6365 0.90863 58.4748C0.639451 58.311 0.521047 58.0723 0.473083 57.924C0.426864 57.781 0.423679 57.6594 0.424255 57.5988C0.42619 57.4036 0.488169 57.2386 0.493591 57.2228C0.508607 57.179 0.526721 57.1356 0.543396 57.0949C0.0558953 56.844 -0.140233 56.2476 0.106872 55.757C0.249184 55.4745 0.395604 55.2945 0.493591 55.172L0.520935 55.1378L0.550232 55.1066C0.992926 54.642 1.7223 54.0422 2.23578 53.5841C2.37632 53.2652 2.53387 52.9184 2.70355 52.5968C3.10175 51.8423 3.56334 51.0605 4.04242 50.6281C4.79575 49.9483 5.8424 49.4073 6.48383 49.0646C6.63459 48.956 6.78055 48.8569 6.92426 48.7648C7.00566 48.7007 7.09546 48.6384 7.1889 48.5783C7.22644 48.5483 7.26475 48.5199 7.30316 48.4923C7.35004 48.4489 7.39704 48.4061 7.44476 48.3644C7.5384 48.2533 7.63076 48.1475 7.71918 48.0509C7.91304 47.8392 8.13291 47.6218 8.37347 47.4474C8.60773 47.2777 8.93674 47.0931 9.33929 47.0568L9.49847 47.047C9.55557 47.0451 9.61717 47.046 9.68109 47.047C9.7124 47.0324 9.74189 47.0155 9.77191 47.0021C10.0081 46.8966 10.3951 46.7362 10.7709 46.7306Z" fill="black"/>
<path d="M45.7773 43.13C47.2875 43.0327 49.4464 43.1014 50.4228 43.3057L50.4521 43.3116L50.4794 43.3194C50.762 43.396 51.0093 43.4956 51.2011 43.5723C51.4069 43.6547 51.7705 43.7934 52.1269 44.1456C52.5197 44.5337 52.5237 45.1668 52.1357 45.5596C51.7476 45.9523 51.1145 45.9563 50.7216 45.5684C50.6937 45.5408 50.671 45.5244 50.6445 45.5098C50.6075 45.4895 50.564 45.4712 50.4579 45.4288C50.2662 45.3521 50.1278 45.2987 49.9843 45.2579C49.2435 45.1112 47.324 45.0338 45.9062 45.1251C45.0011 45.1833 43.7784 45.3061 42.8408 45.4512C42.1005 45.5658 41.0203 45.7804 39.7861 46.0509C39.3143 46.1542 38.8046 46.1963 38.4267 46.2384C38.0094 46.2848 37.7028 46.3353 37.455 46.4268C36.6288 46.732 35.6014 47.0367 34.6718 47.6046C34.2976 47.8331 33.9487 48.1228 33.5888 48.4444C33.2561 48.7417 32.8591 49.1186 32.4902 49.3995C32.0133 49.7625 31.6159 50.229 31.4374 50.4971C31.1314 50.9567 30.5114 51.0813 30.0517 50.7755C29.5919 50.4695 29.4674 49.8485 29.7734 49.3887C30.0658 48.9495 30.6125 48.3161 31.2792 47.8087C31.5648 47.5913 31.8472 47.3192 32.2568 46.9532C32.6392 46.6115 33.0959 46.2231 33.6288 45.8975C34.7761 45.1968 36.0891 44.7993 36.7617 44.5509C37.2582 44.3674 37.7789 44.2985 38.205 44.251C38.6705 44.1992 39.0205 44.1718 39.3583 44.0977C40.6028 43.825 41.7317 43.599 42.5351 43.4747C43.5436 43.3186 44.8264 43.1912 45.7773 43.13Z" fill="black"/>
<path d="M43.8862 46.766C44.4024 46.7528 44.9015 46.7762 45.3891 46.8022C45.8848 46.8286 46.3708 46.8577 46.9096 46.8647C47.8335 46.8766 48.6457 46.8798 49.2397 46.892C49.5389 46.8982 49.8043 46.9063 50.019 46.9213C50.1477 46.9303 50.3305 46.9453 50.5063 46.9848L50.6782 47.0336L50.9936 47.1625C51.3218 47.3122 51.6802 47.5162 52.0044 47.7162C52.4531 47.9931 52.91 48.3083 53.2553 48.5756C53.3237 48.6285 53.3994 48.6808 53.5132 48.7592C53.6168 48.8306 53.7511 48.9229 53.8833 49.0297C54.1523 49.2471 54.4756 49.5705 54.6606 50.06C54.6854 50.1256 54.7221 50.1934 54.811 50.3618C54.8892 50.5098 54.9978 50.7193 55.0854 50.9702C55.275 51.5134 55.3337 52.1546 55.1235 52.976C54.9349 53.7132 54.5119 54.4714 54.1411 55.0356C53.7858 55.5762 53.3016 56.1314 52.7944 56.5209C52.4549 56.7817 52.0802 57.1065 51.2182 57.6889C51.0058 57.8324 50.9196 57.9276 50.6069 58.1733C50.3307 58.3903 49.9929 58.6213 49.5141 58.8188C49.016 59.0242 48.3714 59.3355 47.3374 59.7182C46.6326 59.9791 46.0398 60.2321 45.2983 60.3657C45.0205 60.4157 44.6579 60.5209 44.2641 60.644C43.908 60.7553 43.4852 60.8956 43.1987 60.9672C43.0901 60.9944 42.7219 61.1121 42.2846 61.1782C41.8189 61.2486 41.2309 61.2769 40.4468 61.2016C40.101 61.1684 39.8215 61.1265 39.5747 61.0912C39.3267 61.0558 39.1074 61.0262 38.8442 61.0063C38.2358 60.9602 37.7102 60.8318 37.1216 60.5287C36.9452 60.4379 36.7395 60.3437 36.4702 60.2221C36.2069 60.1033 35.8946 59.9628 35.5337 59.7895C35.2987 59.6767 35.1015 59.6263 34.7553 59.5092C34.444 59.4039 34.0344 59.2483 33.6518 58.9291C33.0766 58.4493 32.3522 57.9134 32.0464 57.0395C31.9084 56.645 31.7526 56.1005 31.6792 55.5268C31.6086 54.9755 31.5965 54.2739 31.8589 53.643C31.9475 53.4299 32.0721 53.1074 32.2094 52.8305C32.3501 52.547 32.557 52.196 32.8813 51.9164C33.0032 51.8114 33.1304 51.7135 33.2573 51.6225C33.2646 51.6059 33.2715 51.589 33.2798 51.5727L33.3423 51.4575C33.4917 51.2031 33.6675 51.0376 33.8735 50.894L33.894 50.8793L33.9155 50.8666C34.2092 50.6832 34.485 50.5296 34.6694 50.4262C34.8233 50.3191 34.931 50.2139 35.2065 49.9926C35.445 49.801 35.781 49.5535 36.2075 49.4047C36.4631 49.3155 36.723 49.2061 37.0659 49.0688C37.3948 48.9371 37.7717 48.7923 38.1938 48.6655C38.7511 48.498 39.4943 48.192 40.0376 47.9633C40.2139 47.8891 40.4149 47.7922 40.687 47.6664C40.9468 47.5463 41.2491 47.4106 41.5766 47.2827C42.2264 47.0288 43.023 46.7883 43.8862 46.766ZM43.938 48.7651C43.4021 48.7789 42.8503 48.9316 42.3042 49.145C42.0339 49.2505 41.776 49.3667 41.5268 49.4819C41.29 49.5914 41.0325 49.7141 40.8139 49.8061C40.2865 50.0282 39.4454 50.3773 38.769 50.5805C38.4328 50.6815 38.1209 50.8013 37.8091 50.9262C37.5116 51.0453 37.1779 51.1845 36.8657 51.2934C36.7696 51.327 36.6498 51.3992 36.4594 51.5522C36.3193 51.6648 36.0196 51.9293 35.7671 52.1L35.7475 52.1118C35.6818 52.5107 35.3784 52.8464 34.9585 52.9301C34.9988 52.9221 34.9943 52.9184 34.9321 52.9457C34.8792 52.9689 34.8075 53.005 34.7221 53.0541C34.5499 53.1533 34.3561 53.2863 34.187 53.4321C34.1598 53.4555 34.096 53.5286 34.0014 53.7192C33.9034 53.9168 33.827 54.1196 33.7055 54.4116C33.6412 54.5667 33.6101 54.8556 33.6636 55.2729C33.7142 55.668 33.8266 56.0713 33.9341 56.3784C34.0153 56.6106 34.181 56.7665 34.9331 57.394C35.0225 57.4686 35.1424 57.5289 35.396 57.6147C35.6146 57.6886 36.0183 57.804 36.3989 57.9868C36.735 58.1481 37.0263 58.2793 37.2934 58.3998C37.5543 58.5176 37.8067 58.6321 38.0366 58.7504C38.3593 58.9166 38.6201 58.9837 38.9956 59.0121C39.3286 59.0374 39.6022 59.0754 39.8569 59.1118C40.1126 59.1483 40.3461 59.1823 40.6382 59.2104C41.2765 59.2717 41.6988 59.244 41.9858 59.2006C42.3008 59.153 42.4284 59.0983 42.7143 59.0268C42.9257 58.9739 43.2392 58.8697 43.6675 58.7358C44.0584 58.6136 44.5298 58.4726 44.9448 58.3979C45.462 58.3047 45.8245 58.1452 46.643 57.8422C47.6474 57.4704 48.1163 57.2311 48.7514 56.9692C49.0135 56.8611 49.1931 56.7412 49.3716 56.601C49.5133 56.4896 49.8191 56.2202 50.0981 56.0317C50.893 55.4946 51.1771 55.2411 51.5757 54.935C51.8696 54.7093 52.2089 54.333 52.4692 53.9369C52.7986 53.4357 53.0794 52.8967 53.186 52.4799C53.3026 52.0241 53.2521 51.7852 53.1977 51.6293C53.1633 51.5306 53.1154 51.4345 53.0425 51.2963C52.9803 51.1787 52.8703 50.9783 52.7905 50.767C52.7809 50.7417 52.7544 50.6888 52.6264 50.5854C52.5602 50.5319 52.483 50.4778 52.3784 50.4057C52.284 50.3407 52.1532 50.2524 52.0307 50.1577C51.7478 49.9387 51.3508 49.6628 50.9546 49.4184C50.5645 49.1777 50.2359 49.0073 50.0405 48.9321C50.0172 48.9292 49.9666 48.9225 49.8794 48.9164C49.7152 48.905 49.4892 48.897 49.1977 48.891C48.6096 48.879 47.8399 48.8771 46.8833 48.8647C46.2944 48.857 45.7606 48.8247 45.2827 48.7993C44.7969 48.7734 44.3677 48.754 43.938 48.7651Z" fill="black"/>
<path d="M40.8122 49.5959C40.9424 49.5779 41.1215 49.5796 41.3142 49.6535C41.5131 49.7299 41.662 49.8585 41.7624 49.9934C41.9325 50.222 41.9542 50.4555 41.9587 50.4973C41.963 50.5372 41.9641 50.5696 41.9646 50.5871C41.965 50.603 41.9646 50.6177 41.9646 50.6203C41.9646 50.923 41.8294 51.1938 41.6169 51.3772C41.6099 51.4017 41.6014 51.429 41.5945 51.4592C41.563 51.5952 41.5766 51.7988 41.6794 52.0891C41.7812 52.3766 41.9361 52.6557 42.0925 52.9319C42.2304 53.1754 42.3787 53.4845 42.5017 53.7287C42.6365 53.9964 42.7653 54.2378 42.9031 54.4445C43.2141 54.9112 43.5257 55.3093 43.8113 55.5852C44.1909 55.9519 44.4067 56.1852 44.7214 56.3977C44.8933 56.4877 45.1545 56.6223 45.3738 56.7902L45.4597 56.8567L45.53 56.9387C45.7692 57.2219 45.8351 57.5642 45.8474 57.6135C45.9813 58.1493 45.6556 58.6924 45.1198 58.8264C44.6405 58.9461 44.1563 58.6973 43.9636 58.26C43.9041 58.2277 43.8292 58.1879 43.7312 58.136L43.6892 58.1135L43.6491 58.0871C43.1186 57.7377 42.7208 57.3127 42.4216 57.0236C41.9911 56.6078 41.589 56.0791 41.239 55.5539C41.031 55.2419 40.8577 54.9113 40.7156 54.6291C40.5616 54.3234 40.4573 54.1044 40.3513 53.9172C40.2002 53.6504 39.9625 53.23 39.7947 52.7561C39.6279 52.285 39.4943 51.6645 39.6462 51.008C39.6943 50.8002 39.7618 50.5871 39.8542 50.3938C39.9329 50.2293 40.0892 49.9506 40.3796 49.76L40.5281 49.6779C40.6018 49.6447 40.6983 49.6117 40.8122 49.5959Z" fill="black"/>
<path d="M46.1247 51.8197C46.6604 51.6866 47.2032 52.0135 47.3366 52.5492C47.3263 52.5079 47.3197 52.5023 47.3434 52.5561C47.3626 52.5996 47.3914 52.658 47.4294 52.7328C47.5073 52.8863 47.5995 53.0561 47.6999 53.2446C47.8963 53.6132 47.9509 54.003 47.9782 54.2817C47.9923 54.4259 48.0019 54.5775 48.0104 54.7035C48.0195 54.8374 48.0289 54.9581 48.0426 55.0756C48.1116 55.6673 48.0103 56.2482 47.8268 56.7582C47.8384 56.7958 47.8478 56.8265 47.8532 56.8481C47.8811 56.9595 47.8961 57.0748 47.9079 57.1811C47.9256 57.1928 47.9435 57.2043 47.9606 57.2172C48.4011 57.5503 48.489 58.1781 48.1559 58.6186C48.0343 58.7794 47.8616 58.9815 47.6364 59.1215C47.5209 59.1933 47.3163 59.2959 47.0485 59.3031C46.7384 59.3114 46.4469 59.1876 46.238 58.9692L45.9723 58.6908L45.9606 58.3071C45.9504 57.9532 45.9456 57.6963 45.9313 57.5024L45.9274 57.5004L45.8444 57.2065C45.6982 56.6904 45.9015 56.2036 45.944 56.0863C46.0469 55.8023 46.0816 55.5327 46.0553 55.3071C46.0357 55.1382 46.0247 54.9771 46.0153 54.8393C46.0054 54.6938 45.9984 54.583 45.988 54.477C45.9778 54.3737 45.9668 54.3023 45.9548 54.2504C45.9436 54.2026 45.9342 54.185 45.9342 54.185C45.8466 54.0204 45.7358 53.8156 45.6462 53.6391C45.5724 53.494 45.4492 53.2487 45.3952 53.0317C45.2621 52.4959 45.5889 51.9532 46.1247 51.8197Z" fill="black"/>
<path d="M48.8352 51.4862C49.2267 51.0968 49.8597 51.0986 50.2492 51.4901C50.2072 51.4478 50.1853 51.4384 50.2551 51.4862C50.333 51.5395 50.3567 51.5533 50.4797 51.6366C50.6186 51.7306 50.8004 51.8577 50.9856 52.0184L51.1701 52.1903L51.258 52.2782L51.3225 52.3846C51.6297 52.8966 51.9279 53.365 52.1047 53.9373L52.1486 54.0789L52.1496 54.2264C52.1497 54.244 52.1472 54.2606 52.1467 54.2762C52.2864 54.7188 52.1029 55.2136 51.6818 55.4491C51.1999 55.7186 50.5901 55.5463 50.3205 55.0643C50.1919 54.8343 50.1392 54.605 50.1389 54.3846C50.1389 54.3833 50.1389 54.382 50.1389 54.3807C50.0546 54.1694 49.9274 53.9474 49.6848 53.5428C49.5902 53.4593 49.4819 53.3763 49.3586 53.2928C49.311 53.2606 49.1777 53.1725 49.1252 53.1366C49.0646 53.095 48.9388 53.0083 48.8313 52.9002C48.4419 52.5087 48.4437 51.8757 48.8352 51.4862Z" fill="black"/>
<path d="M48.4847 50.8484L48.5716 50.8591L48.6556 50.8855C49.0136 50.998 49.3015 51.2354 49.4378 51.3445C49.6231 51.4928 49.7287 51.5811 49.8538 51.6531C49.9898 51.7312 50.1422 51.8067 50.3646 51.9245C50.5641 52.0303 50.8051 52.1635 51.0247 52.3152C51.2276 52.4553 51.51 52.6759 51.6995 52.9909C51.9277 53.3703 52.0122 53.8862 51.7386 54.3913C51.5528 54.7343 51.2842 55.0827 50.973 55.4216C50.7135 55.7042 50.3069 56.2892 49.9671 56.7917C49.8152 57.0164 49.666 57.2404 49.5843 57.3532C49.5671 57.3769 49.5276 57.4305 49.4827 57.4812C49.4696 57.496 49.4464 57.521 49.4163 57.5495C49.3972 57.5677 49.325 57.6371 49.2152 57.699C49.1619 57.7289 49.0393 57.792 48.8685 57.8171C48.6789 57.845 48.3769 57.829 48.1028 57.613C48.0083 57.5385 47.9377 57.4562 47.8851 57.3757C47.8418 57.4106 47.8059 57.4399 47.7806 57.4616C47.6921 57.5375 47.5255 57.6581 47.2845 57.7068C47.0067 57.7627 46.7237 57.7033 46.4945 57.5495C46.2959 57.4163 46.1897 57.2483 46.138 57.1501C46.0828 57.0452 46.0516 56.9471 46.0335 56.8786C45.9701 56.6377 45.9665 56.3599 45.97 56.1638C45.9779 55.7206 46.0417 55.1573 46.1243 54.7019C46.2402 54.0636 46.5486 53.6131 46.8821 53.2839C46.816 53.2383 46.754 53.1848 46.6986 53.1218C46.3336 52.7073 46.373 52.0757 46.7874 51.7107C46.8955 51.6155 46.958 51.5472 47.0071 51.49C47.0217 51.473 47.0777 51.4059 47.1097 51.3699C47.153 51.321 47.2191 51.2498 47.306 51.1784L47.4407 51.0798C47.7644 50.8692 48.1398 50.8034 48.4847 50.8484Z" fill="black"/>
<path d="M46.6986 53.4433C47.1481 53.2096 47.7103 53.3496 47.9945 53.7821C48.2531 54.176 48.1967 54.6843 47.8881 55.0136C47.8643 55.0498 47.8285 55.1092 47.7826 55.1903C47.7377 55.2698 47.6884 55.3604 47.639 55.456C47.6305 55.5285 47.6221 55.6014 47.6137 55.6737C47.6123 55.8738 47.6216 56.0649 47.64 56.2333C47.671 56.2738 47.7115 56.3263 47.766 56.3944C48.111 56.8257 48.041 57.4547 47.6097 57.7997C47.1785 58.1446 46.5495 58.0747 46.2045 57.6435C46.1475 57.5722 46.0669 57.4712 45.9847 57.3573C45.7699 57.2327 45.6574 57.0607 45.6254 57.0077C45.5137 56.8228 45.4902 56.6398 45.4896 56.6366C45.4663 56.498 45.4652 56.3138 45.4652 56.1806C45.4652 56.095 45.4644 55.9084 45.4808 55.7089C45.4943 55.5454 45.5284 55.2476 45.6508 54.9726C45.6868 54.6014 45.752 54.2244 45.8568 53.8964C45.8604 53.8843 45.8647 53.8724 45.8685 53.8603C45.8737 53.8449 45.8769 53.8285 45.8822 53.8134L45.8842 53.8144C45.8918 53.7931 45.8979 53.7713 45.9066 53.7509L46.2416 53.8808C46.2696 53.8394 46.3019 53.7914 46.3392 53.745C46.3626 53.716 46.4589 53.5941 46.6097 53.495L46.6986 53.4433Z" fill="black"/>
<path d="M45.9076 51.879C46.402 51.7684 46.9098 52.0482 47.0736 52.5392C47.2359 53.0263 47.0018 53.5483 46.5472 53.7599C46.5455 53.7615 46.5443 53.7639 46.5423 53.7658C46.4996 53.8058 46.4301 53.8831 46.3441 54.005C46.2091 54.1965 46.141 54.6014 46.2015 55.1583C46.2153 55.2857 46.2343 55.4079 46.2552 55.5187L46.2952 55.5812L46.3597 55.7169C46.4122 55.8477 46.4307 55.9584 46.4349 55.9816C46.4487 56.0584 46.4568 56.135 46.4613 56.2003C46.465 56.2551 46.4693 56.3502 46.4603 56.4503C46.4577 56.4785 46.4528 56.5237 46.4417 56.5773C46.434 56.6146 46.409 56.7349 46.3343 56.8693C46.3231 56.8894 46.2997 56.9244 46.2669 56.9689L46.2718 56.9904C46.2821 57.0413 46.2922 57.1042 46.2943 57.1163C46.2981 57.1385 46.3008 57.1516 46.304 57.1652C46.3101 57.1903 46.3277 57.2542 46.3841 57.3868C46.6004 57.895 46.363 58.4831 45.8548 58.6993C45.3467 58.9153 44.7595 58.6781 44.5433 58.17C44.4529 57.9577 44.3966 57.7884 44.3597 57.6359C44.3415 57.5607 44.3304 57.4981 44.3226 57.4523C44.3208 57.4418 44.319 57.4319 44.3177 57.424C44.3163 57.4154 44.3148 57.4091 44.3138 57.4034C44.3136 57.4022 44.314 57.4006 44.3138 57.3995C44.213 57.0242 44.1578 56.5057 44.2972 55.9357L44.2992 55.9288C44.2665 55.7614 44.2349 55.5745 44.2132 55.3751C44.1421 54.721 44.1304 53.6739 44.7093 52.8527C44.8559 52.6448 45.0122 52.4586 45.1742 52.3068C45.3183 52.1716 45.5356 51.9985 45.8089 51.9074L45.9076 51.879Z" fill="black"/>
<path d="M10.2158 74.8945C10.2995 74.3487 10.8096 73.974 11.3554 74.0576C11.5968 74.0946 12.1128 74.2305 12.6083 74.3515C12.9602 74.4374 13.2451 74.428 14.0634 74.4677C14.2281 74.4757 14.4515 74.4772 14.704 74.4804C14.9311 74.4833 15.2059 74.4871 15.4042 74.5058C15.4996 74.5148 15.6275 74.5315 15.7568 74.5693C15.8694 74.6023 16.1416 74.6949 16.3466 74.9667C16.5796 75.2758 16.5683 75.5987 16.5537 75.7333C16.5466 75.7977 16.5348 75.8512 16.5312 75.8681C16.53 75.8736 16.529 75.8795 16.5283 75.8828C16.5278 75.885 16.5266 75.8864 16.5263 75.8876L16.5273 75.8886C16.5202 75.9255 16.5175 75.9598 16.5126 75.996C16.6469 76.0212 16.7665 76.0422 16.8613 76.0615C16.8561 76.0604 16.9059 76.0684 17.0468 76.0771C17.1716 76.0848 17.3271 76.0909 17.5029 76.0966C17.8405 76.1077 18.2642 76.1171 18.5937 76.1357C19.0314 76.1605 19.3438 76.2426 19.6015 76.3037C20.162 76.4364 20.9532 76.6669 21.2187 76.7529C21.2977 76.7784 21.3769 76.7968 21.5585 76.8437C21.7246 76.8865 21.9302 76.9421 22.1816 77.0283C22.897 77.2734 23.1325 77.9038 23.2031 78.1708L23.2246 78.2607L23.246 78.4247C23.2566 78.6004 23.2233 78.7599 23.1689 78.9003C23.4059 79.2218 23.4375 79.6679 23.2119 80.0263C22.9176 80.4937 22.2993 80.634 21.832 80.3398C21.7985 80.3187 21.7697 80.2969 21.7441 80.2792C21.3101 80.2226 20.8091 80.1254 20.4199 79.9296L18.208 78.8173L19.6289 78.3749C19.4584 78.3291 19.2892 78.2851 19.1406 78.2499C18.8566 78.1827 18.7137 78.146 18.4804 78.1328C18.1826 78.1159 17.8097 78.1078 17.4374 78.0956C17.1244 78.0854 16.7071 78.0711 16.4628 78.0214C16.0756 77.9427 15.3622 77.8195 14.7197 77.6972C14.419 77.64 14.1252 77.5807 13.9296 77.5312C13.8793 77.5184 13.8222 77.5038 13.7675 77.4863C13.74 77.4774 13.6168 77.4392 13.4931 77.3632C13.4556 77.3402 13.3923 77.2976 13.3242 77.2333C13.2634 77.176 13.1398 77.0467 13.0654 76.8388C13.0189 76.709 12.9993 76.566 13.0107 76.4208C12.7151 76.4002 12.425 76.366 12.1337 76.2949C11.5197 76.1449 11.1793 76.0536 11.0527 76.0341C10.5069 75.9504 10.1322 75.4402 10.2158 74.8945Z" fill="black"/>
<path d="M23.6571 71.9524C23.8061 71.9544 24.2081 71.9652 24.5595 72.2121C24.7473 72.2306 24.9321 72.3023 25.0898 72.4299C25.2016 72.5205 25.3167 72.6405 25.4081 72.801C25.4534 72.8806 25.4858 72.9586 25.5097 73.0305L25.5595 73.2248L25.5673 73.2698L25.5712 73.3157C25.589 73.5234 25.6893 73.9437 25.6884 74.97V75.0452L25.6767 75.1204C25.6541 75.2682 25.5956 75.5724 25.3534 75.8352C25.1151 76.0936 24.8184 76.172 24.7636 76.1887C24.3804 76.3052 23.8296 76.42 23.3007 76.3772C23.2963 76.379 23.2924 76.3822 23.288 76.384C23.0499 76.4804 22.8197 76.5192 22.6904 76.5393C22.2151 76.6131 21.7928 76.4384 21.5683 76.3323C21.5446 76.3211 21.5216 76.308 21.498 76.2961C21.4173 76.2839 21.3365 76.2706 21.2587 76.2512C21.1331 76.2199 20.9632 76.1655 20.7958 76.0637C20.625 75.9598 20.3959 75.768 20.2782 75.4446C20.1524 75.0985 20.242 74.8003 20.3486 74.6096C20.2539 74.564 20.1658 74.5223 20.0732 74.4787C20.0057 74.4471 19.9483 74.421 19.9013 74.4006C19.8781 74.3906 19.8596 74.3827 19.8456 74.3772C19.8352 74.3731 19.829 74.371 19.8271 74.3704C19.3029 74.1965 19.0184 73.6299 19.1923 73.1057C19.3662 72.5817 19.9319 72.2982 20.456 72.4719C20.6895 72.5494 21.0935 72.7502 21.3378 72.8674C21.3476 72.8693 21.3617 72.8715 21.3808 72.8743C21.4598 72.8856 21.5711 72.8957 21.7343 72.9065C21.8157 72.9118 21.9073 72.918 22.0077 72.9241C22.0238 72.8213 22.0545 72.7147 22.1073 72.6077C22.3223 72.173 22.7328 72.0186 23.0282 71.9905C23.1961 71.9745 23.4375 71.9495 23.6571 71.9524Z" fill="black"/>
<path d="M86.8745 55.3808C87.5634 55.214 88.3828 55.12 89.1782 55.497C90.0859 55.9272 90.7707 56.2697 91.4643 56.9022C92.0993 57.4813 92.609 57.9786 93.0131 58.3768C93.4248 58.7826 93.708 59.0661 93.9126 59.2411C94.1221 59.4207 94.1467 59.7365 93.9672 59.9462C93.7877 60.1558 93.4719 60.1802 93.2622 60.0009C93.0231 59.7963 92.7042 59.4772 92.311 59.0897C91.9101 58.6946 91.4114 58.2067 90.7905 57.6405C90.2178 57.1183 89.6551 56.8305 88.7495 56.4013C88.2661 56.1722 87.7248 56.2045 87.1098 56.3534C86.4964 56.5019 86.0114 56.7822 85.6108 57.0751C85.4089 57.2227 85.2306 57.3711 85.0629 57.5116C84.9043 57.6446 84.7352 57.7875 84.5786 57.8905C84.311 58.0665 84.0407 58.4011 83.7983 58.8358C83.561 59.2614 83.3749 59.7381 83.2553 60.1425C83.1304 60.5647 82.8525 60.8927 82.6333 61.1415C82.3896 61.4179 82.2078 61.6102 82.0922 61.8349C81.9128 62.1836 81.6591 62.4758 81.4829 62.6972C81.2912 62.938 81.1674 63.1199 81.1088 63.3202C81.0985 63.3565 81.1006 63.4584 81.1479 63.5643C81.3021 63.91 81.5401 64.2279 81.8139 64.5487C82.066 64.844 82.3994 65.1949 82.6313 65.5018C82.9983 65.9878 83.4692 66.22 84.0512 66.6386C84.6006 67.0337 84.9569 67.5719 85.2475 68.2011C85.431 68.5982 85.5066 68.9925 85.5561 69.3329C85.6094 69.699 85.6291 69.9508 85.6919 70.1952C85.8556 70.8333 86.0245 71.507 86.2124 72.1503C86.401 72.7963 86.481 73.7264 85.9956 74.5868C85.4476 75.5577 84.2736 76.3601 83.3706 76.8622C82.9754 77.0819 82.5611 77.201 81.7495 77.2528C80.9543 77.3036 79.729 77.2927 77.6879 77.2304C77.2013 77.2155 76.7826 77.0694 76.5639 76.6952C76.3707 76.3643 76.4327 75.9992 76.4643 75.8309C76.5895 75.1642 76.8189 74.6979 77.103 74.3231C77.3664 73.9756 77.6964 73.6918 77.9194 73.4686C78.3202 73.0675 78.5848 72.6607 78.8032 72.2733C79.0049 71.9155 79.2146 71.4753 79.4428 71.1591L79.7856 70.702C80.1141 70.271 80.4314 69.874 80.646 69.6317C80.6861 69.5803 80.7206 69.5319 80.77 69.455C80.8193 69.3782 80.8812 69.2808 80.9692 69.1571C81.1293 68.9322 81.4415 68.8788 81.6665 69.039C81.8914 69.1991 81.9438 69.5122 81.7837 69.7372C81.7115 69.8386 81.6611 69.9166 81.6108 69.995C81.561 70.0726 81.506 70.1578 81.434 70.2499L81.4243 70.2626L81.4126 70.2753C81.1587 70.5588 80.6928 71.1488 80.2504 71.7489C80.0659 72.0059 79.9326 72.3054 79.6743 72.7636C79.4312 73.1947 79.1156 73.686 78.6274 74.1747C78.3262 74.4762 78.1086 74.6513 77.8999 74.9267C77.7117 75.175 77.544 75.4973 77.4467 76.0155C77.4335 76.0863 77.4281 76.1357 77.4292 76.1718C77.4293 76.1757 77.4299 76.1795 77.4301 76.1825C77.431 76.1829 77.4321 76.184 77.4331 76.1845C77.4691 76.2005 77.5537 76.2253 77.7182 76.2304C79.7658 76.2929 80.9452 76.3021 81.686 76.2548C82.4098 76.2086 82.6636 76.1118 82.8842 75.9892C83.7708 75.4962 84.7236 74.8058 85.1245 74.0956C85.4297 73.5547 85.398 72.9293 85.2524 72.4306C85.0587 71.7671 84.8845 71.0723 84.7231 70.4433C84.6428 70.1301 84.608 69.7592 84.5669 69.4765C84.522 69.1679 84.4632 68.8862 84.3403 68.62C84.0881 68.074 83.823 67.7059 83.4672 67.4501C83.0304 67.136 82.3218 66.751 81.8335 66.1044C81.6209 65.8231 81.3684 65.5674 81.0532 65.1981C80.7595 64.8541 80.4478 64.4491 80.2348 63.9716C80.1248 63.7249 80.0516 63.3715 80.1489 63.039C80.2668 62.6359 80.5027 62.3237 80.7006 62.0751C80.9141 61.807 81.0807 61.6138 81.2026 61.3768C81.3899 61.0129 81.6825 60.707 81.8823 60.4804C82.1063 60.2262 82.2409 60.0457 82.2963 59.8583C82.4329 59.3966 82.6456 58.8499 82.9253 58.3485C83.1998 57.8563 83.5651 57.3595 84.0288 57.0546C84.1263 56.9905 84.2464 56.8916 84.4213 56.745C84.5873 56.606 84.788 56.4371 85.02 56.2675C85.4874 55.9257 86.0928 55.57 86.8745 55.3808Z" fill="black"/>
<path d="M83.8139 57.5275C84.0218 57.3458 84.3372 57.3666 84.519 57.5744C84.764 57.8548 84.8484 57.9639 84.978 58.1106C85.3597 58.4775 85.7303 58.6839 86.1752 58.8127L86.3725 58.8645L86.4096 58.8723L86.4448 58.8869C86.7676 59.0151 87.0453 59.0921 87.3549 59.1936C87.6502 59.2904 87.9634 59.4066 88.2573 59.6057C88.5322 59.7919 88.9112 60.0349 89.2036 60.3166C89.4967 60.5992 89.7978 61.0099 89.7612 61.55C89.7225 62.1202 89.5382 62.5935 89.394 62.965C89.2388 63.365 89.1509 63.6076 89.1577 63.84C89.165 64.0914 89.1985 64.3335 89.2397 64.5725C89.2782 64.7959 89.3314 65.0571 89.3598 65.2756C89.3889 65.4992 89.4051 65.7579 89.3422 66.009C89.2736 66.2829 89.1171 66.5223 88.8549 66.6994C88.5861 66.881 88.2871 67.047 87.9887 67.1545C87.701 67.2581 87.3532 67.3296 87.02 67.2434C86.916 67.2165 86.7842 67.199 86.5961 67.1731C86.4239 67.1493 86.211 67.1192 86.0073 67.0627C85.8043 67.0064 85.5705 66.9139 85.3735 66.7414C85.1638 66.5578 85.0233 66.3067 84.9819 65.9934C84.9457 65.7191 84.9966 65.4506 85.0483 65.2346C85.1102 64.9759 85.1597 64.8324 85.2065 64.6066C85.2844 64.2304 85.2781 63.9272 85.0346 63.6125C84.8188 63.3336 84.6447 63.0647 84.4057 62.801C84.1729 62.5441 83.9695 62.4042 83.7885 62.3684C83.7213 62.3551 83.5887 62.3578 83.4018 62.3879C83.2273 62.416 83.0565 62.4585 82.9282 62.4904C82.6602 62.5572 82.3885 62.3941 82.3217 62.1262C82.2553 61.8584 82.4183 61.5875 82.686 61.5207C82.8104 61.4897 83.0204 61.4364 83.2426 61.4006C83.4521 61.3668 83.7324 61.3374 83.9829 61.3869C84.4851 61.4865 84.8706 61.8242 85.1469 62.1291C85.4169 62.427 85.6732 62.8044 85.8247 63.0002C86.3217 63.6425 86.292 64.2934 86.185 64.8098C86.1393 65.0302 86.0559 65.318 86.02 65.468C85.9738 65.6608 85.9621 65.7794 85.9731 65.8625C85.9829 65.937 86.0069 65.966 86.0327 65.9885C86.071 66.022 86.1433 66.0623 86.2749 66.0988C86.4057 66.1352 86.5563 66.1584 86.7329 66.1828C86.8935 66.205 87.0967 66.2305 87.2709 66.2756C87.3211 66.2884 87.4421 66.2889 87.6499 66.2141C87.8473 66.143 88.0716 66.0225 88.2954 65.8713C88.3465 65.8367 88.3617 65.8088 88.3725 65.7658C88.3889 65.7002 88.393 65.5922 88.3686 65.4045C88.3435 65.2112 88.3014 65.0147 88.2543 64.7414C88.21 64.4838 88.167 64.1892 88.1577 63.8693C88.1438 63.3957 88.3255 62.9537 88.4614 62.6037C88.6082 62.2253 88.737 61.8825 88.7641 61.4826C88.771 61.3816 88.7234 61.2429 88.5102 61.0373C88.2961 60.8309 88.0102 60.6461 87.6967 60.4338C87.5226 60.3159 87.3186 60.234 87.0434 60.1438C86.7902 60.0607 86.4563 59.964 86.1069 59.8274C85.4209 59.6628 84.8417 59.3707 84.2739 58.8215L84.2602 58.8088L84.2485 58.7941C84.1324 58.6638 83.9607 58.4554 83.7661 58.2326C83.5844 58.0247 83.6061 57.7093 83.8139 57.5275Z" fill="black"/>
<path d="M31.8933 88.7852C33.0981 88.9435 35.1471 89.3144 36.7204 89.6592L37.3611 89.8047L37.3708 89.8066L37.3796 89.8096C37.4451 89.8276 37.4928 89.8348 37.6052 89.8564C37.713 89.8772 37.8442 89.9052 38.0281 89.96C38.2927 90.0387 38.4437 90.3174 38.365 90.582C38.2861 90.8466 38.0075 90.9967 37.7429 90.918C37.5982 90.8749 37.4999 90.8541 37.4158 90.8379C37.3403 90.8234 37.2401 90.8052 37.1316 90.7764V90.7783C35.5678 90.4096 33.1621 89.9647 31.8122 89.7842C29.7407 89.9333 28.6406 90.3603 28.0593 90.6201C27.6708 90.7938 27.3434 90.9304 27.0915 91.0371C26.8273 91.1491 26.6722 91.2169 26.5906 91.2637C26.351 91.401 26.0453 91.3186 25.9079 91.0791C25.7706 90.8396 25.8531 90.5339 26.0925 90.3965C26.2379 90.3131 26.4572 90.2195 26.7009 90.1162C26.9575 90.0075 27.2737 89.8757 27.6511 89.707C28.3338 89.4019 29.5614 88.9368 31.7937 88.7822L31.8435 88.7793L31.8933 88.7852Z" fill="black"/>
<path d="M33.7658 95.3704C34.0165 95.2554 34.3126 95.3649 34.4279 95.6155C34.5431 95.8663 34.4335 96.1632 34.1828 96.2786C33.5533 96.5676 33.068 96.7154 32.7111 96.7913L32.6935 96.7952L32.675 96.7971C32.1786 96.8644 31.8651 96.9055 31.5187 97.0188C31.0416 97.2364 30.6948 97.4098 30.5197 97.4973C30.2727 97.6208 29.9723 97.5207 29.8488 97.2737C29.7255 97.0267 29.8255 96.7262 30.0724 96.6028C30.254 96.512 30.6232 96.3284 31.13 96.0979L31.1535 96.0872L31.1779 96.0784C31.6304 95.9268 32.0373 95.875 32.5119 95.8108C32.7897 95.7511 33.2022 95.6291 33.7658 95.3704Z" fill="black"/>
<path d="M70.1794 95.5786C70.5966 95.2172 71.2279 95.2622 71.5896 95.6792C71.9513 96.0966 71.9063 96.7286 71.489 97.0904C70.7145 97.7616 70.1349 97.9147 69.7429 98.0757C68.7733 98.5601 67.8908 98.9624 67.2009 99.188C65.6316 99.9343 63.8596 100.795 62.1999 102.174C61.1245 103.068 59.0457 105.034 57.3337 106.326C55.8122 107.474 53.2354 109.028 51.0847 110.213C48.3905 111.699 45.3456 113.021 43.8503 113.671C41.0412 114.893 39.4667 115.326 36.5437 116.894C34.9214 117.765 33.2688 118.748 31.9099 119.388C31.4103 119.623 30.8151 119.409 30.5798 118.91C30.3445 118.41 30.5586 117.814 31.0583 117.579C32.3618 116.965 33.8433 116.074 35.5974 115.132C38.6073 113.517 40.4479 112.97 43.0534 111.837C44.5568 111.184 47.5187 109.896 50.1189 108.462C52.248 107.288 54.7246 105.789 56.1296 104.729C57.831 103.445 59.6384 101.703 60.9216 100.636C62.8146 99.0628 64.8189 98.1068 66.3942 97.3579L66.4577 97.3277L66.5241 97.3072C67.0678 97.1365 67.8702 96.7768 68.8864 96.2681L68.9167 96.2534L68.948 96.2407C69.5052 96.0071 69.6962 95.9974 70.1794 95.5786Z" fill="black"/>
</svg>
