<svg width="149" height="185" viewBox="0 0 149 185" fill="none" xmlns="http://www.w3.org/2000/svg">
<path d="M105.392 9.71787C105.937 9.64043 107.668 9.47425 109.269 9.92198C110.445 10.2508 111.63 10.7666 112.598 11.1847C112.709 11.1952 112.821 11.2048 112.932 11.2159C113.231 11.2458 113.485 11.4057 113.647 11.6329C114.265 11.9135 114.836 12.2835 115.345 12.631C115.945 13.0398 116.445 13.4039 116.969 13.6993C118.067 14.3179 119.329 15.0215 120.384 15.92C121.474 16.848 122.617 17.9389 123.712 18.7901C124.447 19.3607 124.898 20.1162 125.218 20.8272C125.522 21.5035 125.77 22.301 125.971 22.8448C126.463 24.1722 126.896 25.6957 127.162 27.0431C127.399 28.2487 127.682 29.4685 128.081 30.5362C128.523 31.7161 128.788 33.3433 129.052 34.5353C129.361 35.9291 129.433 37.4682 129.4 39.7003C129.384 40.7306 129.151 41.7594 128.901 42.6466C128.775 43.0932 128.64 43.5192 128.52 43.8966C128.397 44.2825 128.295 44.6074 128.221 44.8849C127.93 45.9797 127.578 47.3575 126.602 48.5538C126.191 49.0568 125.664 49.3049 125.113 49.3624C124.607 49.4152 124.12 49.3036 123.736 49.1856C123.359 49.0701 122.946 48.9023 122.661 48.796C122.328 48.6724 122.118 48.6122 121.975 48.5987C120.748 48.4827 119.556 48.2566 117.833 47.7804C117.307 47.6347 116.094 47.5186 114.607 47.4737C113.706 47.4466 112.751 47.4498 111.865 47.4786C111.935 47.5047 112.006 47.5338 112.08 47.5606C112.691 47.7803 113.501 48.0426 114.23 48.5128C115.569 49.3773 116.439 50.4944 117.493 52.0909C118.211 53.1788 119.068 54.3598 119.724 55.8565C119.85 56.1431 119.922 56.5446 119.734 56.9552C119.56 57.3328 119.25 57.5288 119.042 57.6271C118.652 57.8123 118.157 57.8669 117.794 57.8956C117.407 57.9263 116.93 57.9402 116.566 57.9591C116.16 57.9802 115.85 58.0087 115.642 58.0577C114.416 58.3458 113.184 58.4404 111.694 58.548C110.502 58.6339 109.169 58.8714 104.521 58.9093C102.314 58.9273 100.804 58.0261 99.7689 57.5743C99.235 57.3414 98.6333 57.1603 97.9447 56.9669C97.2744 56.7786 96.5152 56.5768 95.7611 56.3136C94.2853 55.7984 93.0647 55.0831 91.9926 54.547C90.6089 53.8551 89.6718 52.5585 88.9584 51.4884C88.6905 51.0866 88.3206 50.7425 87.8285 50.2677C87.3699 49.8251 86.8159 49.2765 86.4135 48.5626C86.0729 47.9584 85.8138 47.3214 85.5765 46.7706C85.3305 46.1995 85.0922 45.6808 84.767 45.1847C83.9451 43.9307 83.5801 42.5611 83.4603 41.295C83.3474 40.1015 83.1347 38.9357 83.097 28.8595C83.0911 27.257 83.3315 26.1053 83.6801 25.1847C84.0134 24.3043 84.4651 23.6177 84.7211 23.1505C85.0671 22.5188 85.5115 21.9778 85.9252 21.4942C86.3554 20.9913 86.7475 20.5543 87.1068 20.047C87.8676 18.9727 88.9735 17.6933 90.0551 16.6485C90.6194 16.1034 91.3445 15.5653 92.0551 15.0606C92.7907 14.5382 93.505 14.0549 94.1547 13.5636C95.178 12.7897 96.2475 12.196 97.3041 11.5948L97.3969 11.5411L97.4994 11.5099C98.1593 11.3027 98.8829 11.0766 101.671 10.8575L101.695 10.8565L101.719 10.8556C102.479 10.8323 103.441 10.8177 104.539 10.8204C104.479 10.2847 104.855 9.79429 105.392 9.71787ZM112.102 13.1466C108.065 12.7838 104.039 12.7856 101.799 12.8536C99.3191 13.0495 98.6625 13.2415 98.1947 13.3888C97.1459 13.9851 96.2318 14.5006 95.3607 15.1593C94.6804 15.6738 93.8953 16.2064 93.2123 16.6915C92.5043 17.1943 91.8902 17.6567 91.4447 18.087C90.4438 19.0539 89.4217 20.2393 88.7396 21.2022C88.3121 21.8059 87.8341 22.3388 87.4447 22.794C87.0387 23.2687 86.7137 23.6757 86.475 24.1114C86.1224 24.755 85.8177 25.1861 85.5502 25.8927C85.2977 26.5595 85.0919 27.4654 85.097 28.8517C85.1345 38.8881 85.3459 39.9905 85.4515 41.1075C85.5487 42.1343 85.8382 43.1699 86.4398 44.088C86.866 44.7382 87.1605 45.3925 87.4135 45.9796C87.6752 46.5871 87.8816 47.0949 88.1556 47.5812C88.3993 48.0134 88.7558 48.3831 89.2172 48.8282C89.6453 49.2413 90.2065 49.7552 90.6224 50.379C91.3433 51.4603 92.0279 52.3283 92.8871 52.7579C94.1078 53.3683 95.1055 53.9669 96.4203 54.4259C97.0992 54.6629 97.7761 54.8421 98.4847 55.0411C99.1748 55.235 99.8959 55.4478 100.569 55.7413C101.826 56.29 102.837 56.9228 104.504 56.9093C109.067 56.8721 110.283 56.6443 111.55 56.5528C113.066 56.4435 114.139 56.3562 115.185 56.1105C115.586 56.0162 116.056 55.9821 116.461 55.961C116.864 55.9401 117.203 55.9294 117.528 55.9073C117.027 54.9548 116.443 54.1316 115.824 53.1925C114.801 51.6438 114.119 50.8213 113.145 50.1925C112.654 49.8759 112.106 49.6951 111.404 49.4425C110.75 49.2074 109.952 48.9051 109.276 48.3185C109.066 48.1366 108.874 47.9055 108.747 47.6397C108.635 47.4034 108.495 46.9646 108.693 46.4962L108.765 46.3517C108.949 46.0339 109.231 45.856 109.425 45.7638C109.668 45.6481 109.932 45.5881 110.176 45.5675C111.49 45.4567 113.16 45.4284 114.666 45.4737C116.136 45.518 117.576 45.6353 118.366 45.8536C120.005 46.307 121.08 46.5051 122.163 46.6075C122.594 46.6482 123.024 46.7967 123.358 46.921C123.739 47.0626 124.02 47.1815 124.323 47.2745C124.618 47.365 124.798 47.3842 124.905 47.3731C124.966 47.3667 124.998 47.3558 125.052 47.2892C125.716 46.4759 125.983 45.5189 126.288 44.3712C126.377 44.0389 126.495 43.6657 126.614 43.2921C126.735 42.9101 126.861 42.5138 126.977 42.1026C127.211 41.274 127.389 40.4412 127.401 39.67C127.434 37.471 127.356 36.1243 127.1 34.9679C126.791 33.5748 126.585 32.2423 126.208 31.2374C125.749 30.0121 125.441 28.663 125.199 27.4298C124.955 26.1922 124.552 24.7719 124.096 23.5401C123.833 22.829 123.665 22.2491 123.394 21.6476C123.139 21.0809 122.855 20.6576 122.486 20.3702C121.359 19.4953 120.039 18.2525 119.087 17.4425C118.206 16.6922 117.123 16.0826 115.988 15.4425C115.365 15.0917 114.749 14.6454 114.218 14.2833C113.658 13.9016 113.161 13.5881 112.665 13.3858C112.479 13.3098 112.292 13.2278 112.102 13.1466Z" fill="black"/>
<path d="M87.3355 7.75374C87.6628 7.309 88.2891 7.21374 88.734 7.54085C88.7445 7.54857 88.752 7.55429 88.7887 7.56233C88.8139 7.56786 88.8486 7.57301 88.9068 7.57991C88.9367 7.58345 88.9666 7.58739 89.0055 7.59163C89.0363 7.595 89.0722 7.59872 89.1099 7.60335C90.6875 7.75934 92.7139 7.9965 96.4576 8.17171L98.1734 8.243L98.2213 8.24398L98.2691 8.25081C99.192 8.37342 99.986 8.42887 100.778 8.50667C101.546 8.58216 102.306 8.6783 103.029 8.89144C103.632 9.06933 104.296 9.27701 104.804 9.42952C105.363 9.5972 105.73 9.69601 105.888 9.71858C106.435 9.79644 106.815 10.3027 106.737 10.8494C106.659 11.396 106.153 11.7758 105.606 11.6981C105.267 11.6497 104.742 11.499 104.23 11.3455C103.667 11.1768 103.079 10.9911 102.462 10.8094C101.932 10.6532 101.333 10.5706 100.583 10.4969C99.8685 10.4268 99.0024 10.3633 98.0543 10.2391C93.1394 10.0595 90.7033 9.77022 88.9058 9.59261L88.8922 9.59163L88.8785 9.58968C88.7166 9.56914 88.1015 9.55887 87.5484 9.15218C87.1037 8.82496 87.0084 8.19861 87.3355 7.75374Z" fill="black"/>
<path d="M89.7389 3.91606C91.956 4.1268 93.8828 4.12546 95.0572 4.16313C95.6474 4.18207 96.021 4.21041 96.3434 4.23832C96.6633 4.26603 96.8989 4.29015 97.2545 4.30668H97.2594C100.849 4.49083 102.314 4.84178 103.77 5.50688C104.961 6.05101 107.06 6.9187 108.56 7.66899C109.159 7.96838 109.752 8.30263 110.241 8.57817C110.761 8.87155 111.108 9.06586 111.293 9.14457C111.801 9.36134 112.037 9.94911 111.82 10.4571C111.603 10.9648 111.015 11.2011 110.507 10.9844C110.194 10.8505 109.72 10.5808 109.258 10.3204C108.765 10.0421 108.214 9.7318 107.667 9.45805C106.194 8.72156 104.258 7.92857 102.939 7.32622C101.816 6.8131 100.64 6.48246 97.1568 6.30375V6.30278C96.7532 6.28389 96.4669 6.2561 96.1715 6.23051C95.8772 6.20503 95.5401 6.17971 94.9928 6.16215C93.8913 6.12682 91.8497 6.12495 89.5494 5.90629C88.9997 5.85396 88.5968 5.36621 88.649 4.81645C88.7014 4.26671 89.1891 3.8638 89.7389 3.91606Z" fill="black"/>
<path d="M92.7002 53.2256C93.1325 52.8819 93.7618 52.9535 94.1055 53.3858C94.4489 53.8179 94.3771 54.4463 93.9454 54.7901C93.8486 54.867 93.5817 55.136 93.1993 55.6211C92.8326 56.0863 92.3961 56.7041 91.9551 57.4356C91.5533 58.1021 91.2357 58.934 90.9405 59.8633C90.794 60.3244 90.6575 60.794 90.5186 61.2705C90.3811 61.7422 90.2401 62.2216 90.0909 62.6797C89.6796 63.9423 89.1573 65.2214 88.6622 66.4121C88.1601 67.6195 87.6935 68.721 87.3594 69.6866C87.0948 70.4512 86.7701 71.1798 86.4522 71.876C86.129 72.5838 85.8155 73.2512 85.5391 73.9502C85.2305 74.7307 84.9839 75.6193 84.7627 76.5069C84.5496 77.362 84.3483 78.2722 84.1495 78.9659C83.7657 80.305 83.5604 81.5003 83.2891 83.0459C82.9811 84.8006 82.8814 85.9973 82.7657 89.1241C82.7448 89.6865 82.6672 90.1645 82.5957 90.7383C82.522 91.3304 82.4382 92.1323 82.3819 93.4551C82.126 99.4594 82.3504 103.921 82.4756 105.332L82.5215 105.746L82.5254 105.772L82.5284 105.798C82.7082 107.388 82.9659 108.345 83.1094 109.145C83.1308 109.187 83.1666 109.249 83.2676 109.433C83.3894 109.654 83.5321 109.94 83.6729 110.356C83.8496 110.88 83.5691 111.447 83.0459 111.624C82.5227 111.801 81.9551 111.52 81.7784 110.997C81.6842 110.718 81.5951 110.542 81.5157 110.397C81.4548 110.287 81.3015 110.038 81.21 109.789L81.1778 109.7L81.1622 109.606C81.071 109.055 80.7334 107.724 80.5411 106.023L80.542 106.022C80.4045 105.079 80.096 100.127 80.3838 93.3702C80.4427 91.9896 80.5314 91.1334 80.6114 90.4912C80.6935 89.8313 80.751 89.4982 80.7676 89.0508C80.8845 85.8936 80.9877 84.5896 81.3194 82.7002C81.587 81.1755 81.8086 79.8728 82.2266 78.4141C82.4136 77.7615 82.5882 76.9619 82.8223 76.0225C83.0484 75.1153 83.3198 74.1227 83.6788 73.2149C83.9794 72.4547 84.3218 71.7261 84.6329 71.045C84.9491 70.3523 85.2381 69.699 85.4688 69.0323C85.8281 67.9936 86.3266 66.8203 86.8155 65.6446C87.3112 64.4524 87.8055 63.2394 88.1895 62.0606C88.3276 61.6365 88.4601 61.1852 88.5987 60.71C88.7358 60.2398 88.8791 59.7452 89.0342 59.2569C89.3424 58.2869 89.7165 57.2754 90.2422 56.4034C90.7261 55.6008 91.2104 54.9148 91.629 54.3838C92.0316 53.8729 92.4146 53.4528 92.7002 53.2256Z" fill="black"/>
<path d="M82.8671 110.608C83.4137 110.686 83.7934 111.192 83.7157 111.739C83.6214 112.402 83.2755 113.724 82.2968 115.881C81.3256 118.02 80.5486 119.812 79.6532 121.197C79.2068 121.888 78.8848 122.546 78.5555 123.258C78.2304 123.962 77.8882 124.743 77.4247 125.588C76.6836 126.939 75.8872 128.188 75.0302 129.437C74.196 130.653 73.4449 131.854 72.6659 133.061C72.2332 133.732 71.751 134.304 71.2557 134.858C70.7451 135.429 70.2572 135.94 69.7079 136.584C68.7455 137.711 67.8334 138.725 66.913 139.837L66.8778 139.881L66.8368 139.92C66.3237 140.414 65.8317 140.857 65.4052 141.24C64.9703 141.631 64.6195 141.946 64.3553 142.21C64.0847 142.48 63.8567 142.708 63.3915 143.174C63.001 143.564 62.3679 143.564 61.9774 143.174C61.5871 142.783 61.587 142.15 61.9774 141.759C62.4426 141.294 62.6707 141.066 62.9413 140.796C63.2518 140.485 63.6492 140.129 64.0682 139.753C64.4848 139.378 64.9399 138.968 65.412 138.514C66.3252 137.414 67.2869 136.34 68.1864 135.286C68.7507 134.625 69.311 134.033 69.7655 133.525C70.2357 132.999 70.6365 132.517 70.9852 131.976C71.7449 130.799 72.5261 129.552 73.3817 128.305C74.2132 127.094 74.9705 125.902 75.6708 124.626C76.0918 123.858 76.3965 123.163 76.7401 122.42C77.0797 121.685 77.4487 120.923 77.9735 120.111C78.7666 118.884 79.4683 117.274 80.4755 115.054C81.4109 112.993 81.6784 111.864 81.7362 111.458C81.814 110.911 82.3203 110.53 82.8671 110.608Z" fill="black"/>
<path d="M61.7939 141.486C62.2088 141.121 62.8405 141.162 63.2051 141.576C63.5696 141.991 63.529 142.623 63.1143 142.987C62.6511 143.394 61.873 143.733 61.1543 143.982C60.3929 144.245 59.5228 144.465 58.7578 144.57C56.719 144.853 55.2443 144.99 53.4111 145.295C50.8639 145.72 47.8012 145.848 45.8564 146.034C44.1746 146.195 42.2533 146.59 40.6943 146.902C38.3914 147.361 35.4493 147.307 31.0908 147.421C30.2388 147.443 29.5428 147.572 28.6924 147.718C27.844 147.863 26.8878 148.015 25.6221 148.036H25.5791L25.5352 148.033C25.2281 148.012 24.9881 147.98 24.7773 147.95C24.5668 147.921 24.3953 147.897 24.1807 147.88C23.7301 147.845 23.0916 147.844 22.3711 147.844C21.8189 147.844 21.3712 147.396 21.3711 146.844C21.3711 146.292 21.8188 145.844 22.3711 145.844C23.0603 145.844 23.79 145.843 24.3369 145.886C24.6208 145.908 24.8509 145.942 25.0527 145.97C25.2437 145.996 25.4191 146.018 25.6377 146.034C26.7247 146.013 27.5485 145.884 28.3545 145.746C29.1705 145.607 30.0159 145.448 31.0391 145.421C35.5724 145.302 38.2221 145.356 40.3027 144.941C41.8259 144.637 43.8604 144.216 45.666 144.043C47.7871 143.84 50.6188 143.733 53.082 143.322C54.939 143.013 56.5546 142.856 58.4834 142.589C59.1005 142.504 59.8434 142.319 60.501 142.092C61.2011 141.85 61.6488 141.613 61.7939 141.486Z" fill="black"/>
<path d="M22.642 146.122C23.1888 146.044 23.6951 146.425 23.7728 146.971C23.7756 146.991 23.7761 147.01 23.7777 147.029C23.8427 147.016 23.91 147.008 23.9789 147.008C24.531 147.008 24.9787 147.456 24.9789 148.008C24.9789 149.503 24.9812 151.069 24.8158 152.203L24.807 152.267L24.7885 152.33C24.0577 154.917 23.6292 156.625 22.7777 158.328L22.767 158.35L22.7543 158.372C22.5548 158.726 22.3638 159.154 22.1254 159.671C21.8972 160.165 21.6337 160.723 21.3158 161.243C20.6883 162.268 19.7112 163.365 18.101 163.459C16.3358 163.561 14.6046 163.344 12.9642 162.927C12.7499 162.873 12.3314 162.762 11.9594 162.458C11.544 162.118 11.2837 161.624 11.223 160.996C11.1233 159.964 11.0565 158.964 11.0775 158.117C11.097 157.329 11.1917 156.457 11.5756 155.843C11.8722 155.37 12.2614 154.907 12.6566 154.465C13.0844 153.986 13.467 153.585 13.9154 153.073C14.6149 152.275 15.0948 151.545 15.7719 150.673C16.4227 149.834 17.1752 148.982 18.266 148.19C19.9977 146.933 21.7391 146.25 22.642 146.122ZM22.9242 148.102C22.4398 148.171 21.0003 148.678 19.4408 149.809C18.5605 150.448 17.9404 151.14 17.3519 151.898C16.7899 152.623 16.1631 153.544 15.4203 154.391C14.9895 154.883 14.4984 155.405 14.1478 155.798C13.7648 156.226 13.471 156.583 13.2699 156.904C13.2027 157.011 13.096 157.382 13.0765 158.166C13.0586 158.89 13.1157 159.794 13.2133 160.803C13.2192 160.864 13.23 160.899 13.2357 160.915C13.2432 160.919 13.2547 160.926 13.2728 160.933C13.3147 160.95 13.3697 160.967 13.4564 160.989C14.9349 161.364 16.4586 161.551 17.9847 161.463C18.6055 161.427 19.0999 161.032 19.6097 160.199C19.8604 159.789 20.0814 159.326 20.309 158.833C20.5192 158.377 20.7464 157.868 20.9877 157.433C21.7257 155.957 22.0992 154.497 22.8431 151.861C22.9729 150.924 22.9778 149.585 22.9779 148.091C22.9601 148.095 22.9424 148.1 22.9242 148.102Z" fill="black"/>
<path d="M82.9153 110.641C83.0664 110.109 83.6195 109.801 84.1506 109.952C84.7143 110.113 85.4338 110.583 86.1096 111.128C86.8238 111.704 87.6149 112.467 88.3274 113.343C89.5475 114.842 90.822 116.353 91.7961 118.081C93.1103 120.412 94.6842 123.547 95.6633 125.658C97.5943 129.822 98.6042 132.417 99.2405 134.473C99.5046 135.326 99.8741 136.302 100.306 137.441C100.734 138.57 101.215 139.841 101.683 141.241C102.528 143.771 103.229 145.397 103.804 146.62C104.361 147.805 104.872 148.75 105.247 149.742C105.809 151.224 106.373 152.317 106.877 153.259C107.37 154.179 107.856 155.042 108.171 155.955C108.448 156.757 108.822 157.58 109.22 158.465C109.61 159.331 110.022 160.254 110.323 161.185C110.58 161.975 110.949 162.791 111.367 163.654C111.775 164.496 112.243 165.409 112.637 166.301C113 167.124 113.308 167.982 113.627 168.82C113.951 169.672 114.299 170.542 114.761 171.469C115.252 172.454 115.613 173.39 115.943 174.253C116.277 175.128 116.576 175.915 116.959 176.681C117.678 178.119 118.374 179.508 119.231 180.893L119.608 181.485L119.626 181.513L119.643 181.542C119.697 181.638 119.75 181.731 119.804 181.82C119.963 181.714 120.154 181.652 120.36 181.652C120.912 181.652 121.359 182.1 121.36 182.652C121.36 182.897 121.36 183.208 121.335 183.47C121.323 183.6 121.3 183.769 121.246 183.937C121.204 184.068 121.081 184.409 120.729 184.627L120.277 184.906L119.793 184.688C119.336 184.483 118.969 184.091 118.702 183.753C118.425 183.401 118.163 182.985 117.927 182.569C116.821 180.88 115.984 179.202 115.17 177.575C114.735 176.704 114.401 175.821 114.074 174.967C113.743 174.101 113.414 173.248 112.972 172.361C112.465 171.346 112.09 170.403 111.758 169.531C111.422 168.646 111.142 167.869 110.807 167.108C110.432 166.259 110.003 165.425 109.568 164.526C109.142 163.649 108.722 162.73 108.421 161.801C108.159 160.99 107.792 160.163 107.397 159.285C107.01 158.427 106.593 157.513 106.281 156.606C106.031 155.883 105.645 155.194 105.114 154.202C104.594 153.231 103.983 152.05 103.377 150.45C103.037 149.552 102.617 148.798 101.993 147.471C101.388 146.182 100.657 144.484 99.7854 141.875C99.3319 140.518 98.8647 139.282 98.4358 138.15C98.0107 137.029 97.6157 135.99 97.3293 135.064C96.7301 133.128 95.7611 130.623 93.8489 126.499C92.8874 124.426 91.3374 121.34 90.0539 119.063C89.1825 117.518 88.0375 116.155 86.7756 114.604C86.1562 113.843 85.4657 113.178 84.8537 112.685C84.2035 112.16 83.7515 111.918 83.6037 111.876C83.0726 111.725 82.7643 111.172 82.9153 110.641Z" fill="black"/>
<path d="M128.872 171.855C129.599 171.566 130.481 171.325 131.322 171.493C132.282 171.684 132.975 172.357 133.322 173.409C133.95 175.311 133.749 177.119 133.208 178.201C132.685 179.247 131.861 179.926 131.018 180.478C129.302 181.603 127.47 182.304 125.99 182.999C124.201 183.838 121.6 184.266 120.36 184.266C120.032 184.266 119.741 184.107 119.558 183.863C119.429 183.924 119.286 183.959 119.134 183.96C118.581 183.96 118.134 183.512 118.134 182.96C118.134 182.425 118.132 181.978 118.088 181.584C118.064 181.373 118.033 181.208 117.996 180.952C117.962 180.717 117.928 180.443 117.929 180.138V180.087L117.935 180.037C118.05 178.953 118.507 177.436 119.876 176.668C121.425 175.797 123.067 174.692 125.135 173.809C125.512 173.648 126.027 173.342 126.713 172.949C127.358 172.578 128.118 172.155 128.872 171.855ZM130.93 173.454C130.673 173.402 130.243 173.462 129.61 173.713C129.003 173.955 128.355 174.313 127.708 174.684C127.101 175.032 126.438 175.428 125.92 175.649C123.983 176.476 122.58 177.442 120.855 178.411C120.349 178.695 120.03 179.363 119.931 180.191C119.934 180.335 119.948 180.483 119.974 180.663C120 180.839 120.047 181.109 120.075 181.359C120.109 181.664 120.122 181.982 120.128 182.293C120.202 182.276 120.28 182.266 120.36 182.266C121.352 182.266 123.656 181.884 125.14 181.188C126.795 180.412 128.365 179.827 129.923 178.806C130.646 178.332 131.126 177.891 131.419 177.306C131.693 176.757 131.908 175.505 131.424 174.036C131.263 173.548 131.069 173.481 130.93 173.454Z" fill="black"/>
<path d="M136.044 49.5577C136.455 49.1887 137.087 49.2225 137.456 49.6329C137.826 50.0436 137.792 50.6768 137.381 51.0459C136.58 51.7659 136.391 51.8975 136.191 52.1241C135.784 52.6744 135.206 53.2841 134.522 53.9297L133.778 54.6114C132.941 55.3582 132.072 56.1741 131.328 56.9541C130.571 57.7479 129.993 58.4537 129.69 58.9854C128.852 60.4558 127.727 61.6649 126.849 62.6436C125.808 63.8044 124.82 64.5614 123.959 66.0401C123.036 67.6268 122.031 69.3545 121.317 70.8184C120.973 71.5224 120.614 72.176 120.282 72.7823C119.945 73.3962 119.639 73.9574 119.377 74.5127C119.265 74.7496 119.16 75.0484 119.032 75.4161C118.913 75.7626 118.773 76.1717 118.612 76.545C118.454 76.9104 118.239 77.3291 117.926 77.6641C117.591 78.0227 117.104 78.3238 116.467 78.3086C116.142 78.3008 115.896 78.1631 115.743 78.044C115.598 77.9305 115.495 77.8015 115.432 77.7159C115.365 77.6259 115.306 77.5314 115.263 77.462C115.213 77.3823 115.179 77.3267 115.14 77.2666C114.394 76.128 113.61 75.0761 112.551 73.8995C111.789 73.0525 110.782 72.1556 109.55 71.0665C108.333 69.9898 106.925 68.7497 105.431 67.2588C104.023 65.8542 103.034 65.0208 102.022 64.3995C100.913 63.719 99.5875 62.8209 98.5266 62.1553C97.9108 61.769 97.2392 61.2961 96.5921 60.836C95.9346 60.3685 95.3022 59.915 94.7298 59.5391C94.1714 59.1724 93.6821 58.836 93.2337 58.5508C92.7563 58.2473 92.4947 58.1149 92.4036 58.0889C91.8724 57.9378 91.564 57.3848 91.7151 56.8536C91.8663 56.3225 92.4194 56.0142 92.9505 56.1651C93.3703 56.2845 93.8776 56.5904 94.3069 56.8633C94.7653 57.1548 95.3213 57.5349 95.8274 57.8672C96.4388 58.2687 97.1082 58.7496 97.7503 59.2061C98.4026 59.6699 99.0294 60.1098 99.5891 60.461C100.813 61.2288 101.898 61.9767 103.068 62.6944C104.275 63.4353 105.392 64.3945 106.844 65.8428C108.29 67.2851 109.653 68.4877 110.875 69.5684C112.083 70.6365 113.185 71.613 114.038 72.5616C115.109 73.7513 115.92 74.8292 116.675 75.9649C116.707 75.9024 116.742 75.8325 116.777 75.752C116.902 75.463 117.013 75.1341 117.142 74.7618C117.263 74.4111 117.403 74.0099 117.569 73.6592C117.861 73.0406 118.196 72.427 118.528 71.8213C118.863 71.208 119.2 70.5959 119.519 69.9415C120.272 68.3982 121.318 66.6026 122.231 65.0342C123.227 63.3224 124.561 62.1988 125.361 61.3077C126.28 60.2832 127.241 59.2416 127.951 57.9952C128.38 57.2426 129.1 56.3924 129.881 55.5733C130.675 54.7406 131.586 53.8859 132.446 53.1192C133.47 52.2046 134.206 51.46 134.614 50.8956L134.641 50.8594L134.67 50.8243C134.981 50.4669 135.381 50.1536 136.044 49.5577Z" fill="black"/>
<path d="M140.634 40.1272C141.341 40.1033 142.005 40.407 142.543 40.6994C143.06 40.9809 143.752 41.4276 144.326 41.7619C145.867 42.6597 146.415 44.3164 146.649 45.5998C146.768 46.2539 146.767 46.9175 146.512 47.5031C146.165 48.2996 145.664 48.9519 145.127 49.5432C144.62 50.101 143.967 50.7188 143.418 51.2863L143.215 51.4973L142.929 51.5647C141.22 51.9666 139.353 51.9067 138.39 51.632L138.356 51.6233L138.324 51.6115C138.093 51.528 137.847 51.4212 137.625 51.3293C137.601 51.3193 137.576 51.3091 137.552 51.299C137.326 51.2897 137.121 51.2077 136.958 51.0735C136.918 51.0594 136.877 51.0436 136.835 51.0295C136.573 50.9416 136.372 50.7565 136.258 50.5276C136.256 50.5262 136.253 50.525 136.251 50.5237C135.199 49.8509 134.879 48.7368 134.719 47.8801C134.64 47.4591 134.58 46.9713 134.525 46.6174C134.465 46.2243 134.401 45.9137 134.308 45.6633C133.761 44.1793 134.56 42.8414 135.13 42.1486C136.544 40.4301 138.349 40.2046 140.634 40.1272ZM140.701 42.1262C138.441 42.2028 137.479 42.4403 136.674 43.4192C136.22 43.9704 136.023 44.5329 136.184 44.9709C136.35 45.4184 136.437 45.8937 136.502 46.3137C136.572 46.7727 136.612 47.1254 136.684 47.5119C136.827 48.2705 137.02 48.6406 137.329 48.8381C137.537 48.9714 137.801 49.1304 137.959 49.2414C138.008 49.2758 138.071 49.3227 138.138 49.3801C138.227 49.4156 138.311 49.4488 138.39 49.4817C138.638 49.5844 138.808 49.6556 138.971 49.716C139.529 49.8636 140.866 49.9417 142.198 49.677C142.756 49.11 143.206 48.6833 143.646 48.1985C144.112 47.6863 144.454 47.2194 144.679 46.7043C144.714 46.6227 144.763 46.4055 144.681 45.9582C144.475 44.8244 144.074 43.9301 143.319 43.4904C142.574 43.0564 142.108 42.7395 141.587 42.4563C141.086 42.1841 140.832 42.1217 140.701 42.1262Z" fill="black"/>
<path d="M67.528 51.5763C73.9141 51.5785 75.8861 51.7263 78.8064 52.2179C81.1071 52.6052 82.693 52.9115 83.9206 53.1515C85.1547 53.3928 85.9959 53.5602 86.8415 53.6798C87.73 53.8055 88.7909 53.9468 89.6853 54.1017C90.1329 54.1792 90.5612 54.2633 90.9196 54.3566C91.2301 54.4373 91.6427 54.5615 91.9392 54.7745C92.3877 55.0968 92.49 55.7215 92.1677 56.17C91.8453 56.6182 91.2205 56.7207 90.7722 56.3985C90.8143 56.4288 90.7436 56.3774 90.4157 56.2921C90.136 56.2193 89.7708 56.1462 89.3444 56.0724C88.4901 55.9245 87.4781 55.79 86.5612 55.6603C85.6513 55.5315 84.7498 55.3515 83.5368 55.1144C82.3175 54.876 80.7506 54.5728 78.4743 54.1896C75.718 53.7255 73.8766 53.5785 67.528 53.5763C66.5072 53.5759 65.8405 53.7398 65.3874 53.921C64.9268 54.1052 64.6495 54.3167 64.3288 54.5362C64.3249 54.5368 64.2919 54.5394 64.2859 54.6944C64.2778 54.9008 64.3364 55.2141 64.4821 55.6505C64.6247 56.0774 64.8144 56.521 65.0114 56.9982C65.1953 57.4432 65.3994 57.95 65.5036 58.4025C65.6614 59.0872 66.1234 60.1094 66.7448 61.2833C67.3537 62.4336 68.0619 63.6316 68.6579 64.6554C68.9082 65.0851 69.3562 65.5315 69.9577 65.9972C70.5508 66.4563 71.2093 66.8735 71.8493 67.2892C72.1238 67.4538 72.3752 67.6087 72.6023 67.7491C72.8376 67.8946 73.0432 68.0213 73.2312 68.1329C73.523 68.3062 73.7324 68.4172 73.8913 68.4845L74.0349 68.5382L74.0612 68.546L74.0866 68.5558C74.4402 68.6877 74.7792 68.8581 75.0691 69.003C75.563 69.25 75.7633 69.8509 75.5163 70.3448C75.2694 70.8387 74.6694 71.0389 74.1755 70.7921C73.9439 70.6763 73.7493 70.5802 73.5671 70.5021L73.3874 70.4298C72.9907 70.2982 72.592 70.0797 72.2097 69.8526C72.0032 69.73 71.7812 69.5929 71.5505 69.4503C71.3173 69.3062 71.0704 69.1533 70.8015 68.9923L70.7702 68.9728C70.1629 68.5782 69.4117 68.1045 68.7331 67.5792C68.0599 67.058 67.3726 66.4224 66.9294 65.6612C66.3442 64.6561 65.61 63.4141 64.9773 62.2189C64.3572 61.0474 63.7773 59.8187 63.5544 58.8517C63.4936 58.5876 63.3574 58.2329 63.1628 57.7618C62.9815 57.3228 62.7553 56.7942 62.5847 56.2833C62.4173 55.7821 62.2644 55.1913 62.2868 54.6163C62.3111 53.9968 62.5472 53.3322 63.1989 52.8858C63.4651 52.7036 63.9373 52.3476 64.6452 52.0646C65.3605 51.7786 66.2824 51.5759 67.528 51.5763Z" fill="black"/>
<path d="M79.2529 66.084C79.78 66.0789 80.3665 66.1324 80.9736 66.2295C82.3961 66.4569 83.0431 67.554 83.3633 68.5244C83.5244 69.0128 83.6276 69.5328 83.709 70.0088C83.7963 70.5193 83.852 70.9281 83.9336 71.3506C84.3097 73.2984 83.6839 75.0748 82.7129 75.876C81.4646 76.9055 79.7494 76.9511 78.3506 76.7276C76.9146 76.498 75.5229 75.9419 74.6592 75.417C73.1762 74.5155 72.5128 72.9697 72.127 71.7432L71.9902 71.3076L72.2295 70.919C72.5517 70.3963 73.0297 70.0211 73.5488 69.7569C73.3146 69.3729 73.3621 68.8655 73.6934 68.5322C73.8768 68.3477 74.1578 68.1603 74.4053 68.0069C74.6815 67.8355 75.0196 67.6446 75.3848 67.4502C76.114 67.062 76.9903 66.6418 77.7676 66.3291C78.2141 66.1495 78.7417 66.089 79.2529 66.084ZM79.2725 68.084C78.8702 68.0879 78.6273 68.1389 78.5137 68.1846C77.9198 68.4235 77.2443 68.7405 76.6367 69.0527C76.7093 69.2161 76.7394 69.4007 76.7139 69.5908C76.6536 70.0395 76.4915 70.458 76.1553 70.7813C75.8434 71.0811 75.4784 71.1993 75.2686 71.2617L75.2373 71.2705L75.2041 71.2783C74.7691 71.377 74.4429 71.5226 74.2217 71.6787C74.5567 72.5619 75.0024 73.2855 75.6973 73.708C76.3385 74.0978 77.485 74.5641 78.666 74.7529C79.8845 74.9477 80.8669 74.807 81.4404 74.334C81.7132 74.109 82.2433 73.1462 81.9697 71.7295C81.8851 71.2914 81.8087 70.7644 81.7373 70.3467C81.66 69.8946 81.5777 69.4935 81.4649 69.1514C81.2369 68.4605 80.982 68.2559 80.6582 68.2041C80.1296 68.1196 79.6588 68.0803 79.2725 68.084Z" fill="black"/>
<path d="M122.356 30.1537C122.747 29.7632 123.38 29.7633 123.77 30.1537C123.828 30.2118 123.894 30.2759 123.962 30.3471L124.175 30.5815L124.19 30.6L124.206 30.6195C124.725 31.2896 125.402 32.2554 125.516 33.9213L125.525 34.057L125.498 34.1898C125.49 34.2266 125.48 34.266 125.47 34.308C125.624 34.8027 125.667 35.3873 125.444 36.0395C125.359 36.2898 125.221 36.5224 125.017 36.7113C124.814 36.8987 124.591 37.0026 124.394 37.0609C123.833 37.2277 123.047 37.2625 122.313 37.1654C121.596 37.0705 120.7 36.8205 120.076 36.2172C119.848 35.9971 119.447 35.6373 119.151 35.2611C118.858 34.8877 118.487 34.2793 118.601 33.5238L118.659 33.0375C118.683 32.845 118.718 32.6056 118.786 32.3617C118.927 31.8553 119.239 31.2447 119.962 30.9047C120.505 30.6492 121.077 30.5564 121.533 30.5473C121.73 30.5433 121.924 30.5565 122.102 30.5844C122.148 30.4267 122.232 30.2779 122.356 30.1537Z" fill="black"/>
<path d="M118.4 24.02C119.276 24.0154 120.284 24.0986 121.103 24.2973L121.269 24.3373L121.412 24.4301C122.165 24.9182 122.654 25.3108 122.973 25.6293C123.123 25.7796 123.354 26.0088 123.581 26.4018C123.857 26.8802 123.692 27.4912 123.214 27.767C122.735 28.0427 122.123 27.8791 121.848 27.4008C121.799 27.3171 121.756 27.2565 121.716 27.2084C121.672 27.1566 121.628 27.1131 121.559 27.0434C121.387 26.8722 121.06 26.5977 120.466 26.2036C119.872 26.0794 119.114 26.0163 118.411 26.02C118.03 26.0219 117.687 26.0438 117.414 26.0795C117.278 26.0974 117.169 26.1173 117.088 26.1372C117.002 26.1582 116.975 26.172 116.986 26.1664C116.591 26.364 116.344 26.461 116.04 26.6342C115.768 26.7895 115.622 26.9188 115.548 27.0307C115.358 27.3161 115.175 27.5999 115.033 27.8393C114.962 27.9592 114.907 28.0599 114.867 28.1381C114.822 28.2273 114.818 28.2486 114.825 28.2231C114.674 28.7541 114.121 29.0616 113.59 28.9106C113.059 28.7595 112.75 28.2064 112.901 27.6752C112.981 27.3969 113.165 27.0676 113.311 26.8207C113.479 26.537 113.685 26.2193 113.884 25.9213C114.21 25.4322 114.666 25.1147 115.05 24.8959C115.402 24.6952 115.866 24.4905 116.093 24.3774C116.409 24.2192 116.809 24.1413 117.154 24.0961C117.529 24.0471 117.958 24.0223 118.4 24.02Z" fill="black"/>
<path d="M72.5178 0.000542438C74.7935 0.0231623 76.0173 0.17986 77.0793 0.217339C78.0264 0.250738 78.7209 0.31735 79.2893 0.380425C79.8654 0.444364 80.2781 0.500756 80.7043 0.522027C82.8933 0.631176 85.8709 0.8546 87.7668 0.86773C90.8629 0.88918 93.5452 1.06961 94.9211 1.10601C96.5384 1.14879 97.4366 1.14898 97.5188 1.14898C97.7947 1.14909 98.0186 1.37301 98.0188 1.64898C98.0188 1.92506 97.7948 2.14887 97.5188 2.14898C97.4292 2.14898 96.5221 2.14906 94.8947 2.10601C93.4441 2.06764 90.8612 1.88922 87.76 1.86773C85.8369 1.85441 82.7954 1.62682 80.6545 1.52007C80.1881 1.49679 79.7225 1.43392 79.1789 1.37359C78.6274 1.31239 77.9591 1.24961 77.0441 1.21734C75.8369 1.17475 74.8141 1.02346 72.507 1.00054C71.7158 0.992715 71.0314 1.08006 70.4113 1.18511C69.812 1.28665 69.2084 1.41815 68.6799 1.47418C67.7345 1.57439 66.8898 1.64544 66.1701 1.70464C65.4461 1.76421 64.8592 1.81118 64.4143 1.86382C63.9422 1.91967 63.2648 1.95818 62.5705 1.99859C61.8755 2.03904 61.154 2.08115 60.55 2.14312C60.1905 2.22785 59.8188 2.31827 59.1623 2.38433L59.1486 2.38628H59.135C58.6456 2.40907 57.8585 2.40972 57.0686 2.40972C56.7925 2.40972 56.5688 2.18568 56.5686 1.90972C56.5686 1.63358 56.7924 1.40972 57.0686 1.40972C57.8617 1.40972 58.6119 1.40898 59.0734 1.38824C59.6782 1.32678 59.9988 1.24669 60.3605 1.16168L60.3918 1.15484L60.423 1.15093C61.0589 1.08482 61.8147 1.04118 62.5129 1.00054C63.2208 0.959342 63.862 0.922133 64.2971 0.87066C64.7644 0.815375 65.3741 0.766313 66.0881 0.707574C66.8066 0.648465 67.6415 0.578926 68.5744 0.480035C69.0643 0.4281 69.5718 0.312731 70.2443 0.198785C70.8959 0.088396 71.6449 -0.008127 72.5178 0.000542438Z" fill="black"/>
<path d="M79.5701 21.049C79.846 21.0493 80.0701 21.273 80.0701 21.549C80.0701 21.825 79.846 22.0488 79.5701 22.049C79.2206 22.049 78.2992 22.1303 77.4959 22.2785C76.0935 22.5373 74.3243 22.6986 72.4988 22.8069L72.4822 22.8078L72.4656 22.8069C68.8586 22.7863 67.8983 22.6588 67.3884 22.5891C67.1537 22.5694 66.8771 22.5695 66.5632 22.5695C66.2872 22.5695 66.0634 22.3456 66.0632 22.0695C66.0632 21.7934 66.2871 21.5695 66.5632 21.5695C66.715 21.5695 66.8717 21.5695 67.0261 21.5725L67.4763 21.593L67.489 21.594L67.5017 21.5959C67.9473 21.6569 68.8337 21.7848 72.4548 21.8059C74.2637 21.6983 75.9776 21.5418 77.3142 21.2951C78.1601 21.139 79.1444 21.049 79.5701 21.049Z" fill="black"/>
<path d="M13.4423 27.9454C13.678 27.9194 13.8915 28.0627 13.9667 28.2774C14.6053 28.3491 15.4761 28.4136 16.7099 28.4561L17.7655 28.4845L17.7753 28.4854H17.785C18.8924 28.5522 21.7624 28.9269 25.58 28.5294C26.5087 28.4327 27.0752 28.3425 27.413 28.2696C27.5822 28.2331 27.6841 28.2032 27.7401 28.1827C27.7545 28.1774 27.7642 28.1727 27.7704 28.17C27.966 28.0269 28.2411 28.0421 28.4179 28.2188C28.6131 28.414 28.613 28.7306 28.4179 28.9259C28.3149 29.0289 28.1806 29.0864 28.0829 29.1222C27.9676 29.1643 27.8175 29.2054 27.6239 29.2472C27.2352 29.331 26.6279 29.4252 25.6835 29.5235C21.7699 29.9311 18.7898 29.5482 17.7323 29.4835C14.6913 29.4181 13.3552 29.2454 12.5419 29.0606L11.4608 28.8155L12.3602 28.1671C12.4357 28.1128 12.5131 28.0884 12.539 28.0802C12.5773 28.068 12.6159 28.059 12.6493 28.0518C12.7171 28.0374 12.7972 28.0242 12.8778 28.0128C13.0406 27.9898 13.2458 27.9672 13.4423 27.9454Z" fill="black"/>
<path d="M68.9552 40.8482C69.2313 40.8482 69.4552 41.072 69.4552 41.3482C69.4552 41.6243 69.2313 41.8482 68.9552 41.8482C67.9392 41.8482 65.6756 41.9676 59.211 42.0894C58.4308 42.1041 57.6179 42.1773 56.63 42.2573C55.6475 42.3369 54.5107 42.4205 53.1104 42.4507C48.8925 42.5416 46.4359 42.635 45.0704 42.5103L45.0479 42.5083L45.0245 42.5044C44.0809 42.3283 43.075 42.1485 41.1036 42.0591C39.5787 42.0284 37.0154 42.0288 34.3653 42.0288C34.0892 42.0288 33.8653 41.805 33.8653 41.5288C33.8656 41.2529 34.0893 41.0288 34.3653 41.0288C37.0104 41.0288 39.5866 41.0292 41.1241 41.0601H41.1368C43.1575 41.1512 44.2131 41.3356 45.1817 41.5161C46.4772 41.6314 48.8347 41.5434 53.088 41.4517C54.459 41.4221 55.5734 41.3393 56.5489 41.2603C57.519 41.1817 58.3721 41.1048 59.1915 41.0894C65.6055 40.9685 67.9353 40.8482 68.9552 40.8482Z" fill="black"/>
<path d="M0.549406 64.3941C1.17073 64.4566 1.60296 64.518 1.95175 64.5816C2.27047 64.6398 2.4823 64.6943 3.28964 64.7232C5.30206 64.7074 6.94166 64.6701 8.24374 64.6363C9.54123 64.6026 10.5164 64.5719 11.1842 64.5719C11.4602 64.5719 11.6839 64.7959 11.6842 65.0719C11.6842 65.348 11.4603 65.5719 11.1842 65.5719C10.5335 65.5719 9.57996 65.6023 8.27011 65.6363C6.96478 65.6702 5.31799 65.7073 3.29648 65.7232H3.27499C2.38235 65.6921 2.11614 65.6277 1.77304 65.565C1.45729 65.5074 1.0524 65.4489 0.449797 65.3883C0.175104 65.3606 -0.0249931 65.1161 0.00253108 64.8414C0.0301602 64.5667 0.274727 64.3666 0.549406 64.3941Z" fill="black"/>
<path d="M3.4263 100.735C3.61641 100.601 3.88118 100.614 4.05716 100.78C4.18164 100.897 4.23166 101.063 4.20755 101.22C4.31508 101.279 4.46893 101.341 4.63724 101.391C5.06115 101.517 5.35642 101.511 5.84232 101.565C7.9603 101.684 10.5955 101.755 13.0327 101.833C15.4619 101.911 17.7103 101.997 19.0132 102.148C20.1421 102.279 20.9812 102.534 23.3374 102.7C25.6595 102.863 29.3791 102.924 35.9771 102.626C37.5813 102.554 38.6339 102.533 39.3374 102.505C40.0586 102.477 40.4157 102.442 40.7242 102.355C42.2782 101.916 44.2676 101.514 45.2066 101.514C45.4826 101.514 45.7064 101.738 45.7066 102.014C45.7066 102.29 45.4827 102.514 45.2066 102.514C44.4162 102.514 42.5405 102.88 40.9956 103.317C40.5601 103.44 40.0941 103.476 39.3755 103.504C38.6388 103.533 37.6324 103.553 36.022 103.625C29.4055 103.924 25.6431 103.864 23.2671 103.698C20.926 103.533 19.8503 103.251 18.899 103.141C17.647 102.996 15.446 102.912 13.0005 102.833C10.568 102.756 7.90829 102.684 5.772 102.563L5.74466 102.561C5.36279 102.518 4.89305 102.51 4.35208 102.35C4.09102 102.273 3.75933 102.145 3.51907 101.965C3.40459 101.88 3.24259 101.732 3.17337 101.512C3.0874 101.239 3.17987 100.982 3.35013 100.801L3.4263 100.735Z" fill="black"/>
<path d="M21.925 141.787C23.1755 141.574 24.9867 141.575 26.8557 142.324C27.1119 142.427 27.2368 142.718 27.134 142.974C27.0311 143.231 26.7398 143.355 26.4836 143.252C24.8187 142.584 23.2 142.585 22.093 142.773C21.019 142.956 20.4676 143.3 20.0461 143.616C19.6695 143.937 19.4196 144.182 19.2678 144.355C19.1925 144.441 19.1491 144.5 19.1281 144.534C19.0847 144.766 18.8824 144.941 18.6379 144.941C18.3617 144.941 18.1379 144.717 18.1379 144.441C18.138 144.261 18.2174 144.11 18.2697 144.022C18.3322 143.918 18.4171 143.809 18.5158 143.696C18.7144 143.469 19.0091 143.187 19.4103 142.846L19.4211 142.836L19.4338 142.827C19.9556 142.434 20.6517 142.004 21.925 141.787Z" fill="black"/>
<path d="M24.0706 137.019C25.3776 136.852 27.2136 136.855 29.095 137.095C29.3688 137.13 29.5624 137.38 29.5276 137.654C29.4926 137.928 29.2428 138.121 28.969 138.087C27.1562 137.855 25.4062 137.857 24.1975 138.011C23.009 138.163 22.3695 138.452 21.8714 138.738C20.8027 139.41 19.701 140.087 18.7249 140.755C17.7381 141.429 16.9211 142.067 16.4163 142.644C16.2346 142.852 15.9181 142.874 15.7102 142.692C15.5025 142.51 15.4811 142.195 15.6624 141.987C16.256 141.308 17.164 140.611 18.1604 139.929C19.1625 139.244 20.2965 138.548 21.3567 137.882L21.3655 137.876L21.3733 137.871C21.9784 137.524 22.7432 137.189 24.0706 137.019Z" fill="black"/>
<path d="M138.698 33.873C139.269 33.7291 140.257 33.7626 141.261 33.916C142.268 34.0698 143.387 34.3605 144.271 34.7939C145.299 35.1524 146.225 35.5651 146.911 36.0801C147.228 36.3175 147.54 36.552 147.862 36.793C148.082 36.9587 148.127 37.2724 147.961 37.4932C147.795 37.7139 147.482 37.7584 147.261 37.5928C146.94 37.3519 146.628 37.1181 146.312 36.8808C145.745 36.4562 144.929 36.0813 143.925 35.7324L143.895 35.7217L143.866 35.708C143.102 35.3261 142.074 35.0516 141.11 34.9043C140.127 34.7542 139.308 34.7506 138.943 34.8428C138.675 34.9101 138.404 34.748 138.336 34.4805C138.269 34.2127 138.431 33.9406 138.698 33.873Z" fill="black"/>
<path d="M147.64 55.3111C147.81 55.0936 148.123 55.0552 148.341 55.2252C148.559 55.3951 148.598 55.7088 148.428 55.9264C147.838 56.6809 147.49 56.9455 147.102 57.2955C146.91 57.4687 146.699 57.6694 146.482 57.8766C146.267 58.0814 146.046 58.293 145.842 58.4762L145.81 58.5055L145.773 58.5289C144.89 59.0781 143.499 59.4123 142.205 59.6139C140.891 59.8186 139.588 59.898 138.821 59.898C138.544 59.898 138.321 59.6742 138.321 59.398C138.321 59.1221 138.545 58.898 138.821 58.898C139.536 58.898 140.787 58.8224 142.051 58.6256C143.312 58.4291 144.504 58.1225 145.206 57.7008C145.388 57.5364 145.588 57.3491 145.792 57.1539C146.007 56.9493 146.228 56.7369 146.433 56.5523C146.838 56.1868 147.115 55.9833 147.64 55.3111Z" fill="black"/>
<path d="M61.0311 68.1895C62.5699 68.1504 63.8161 68.1505 64.7205 68.1807C65.1718 68.1959 65.5446 68.2191 65.8289 68.2491C65.9707 68.2641 66.0974 68.2811 66.2039 68.3018C66.2993 68.3204 66.4186 68.3491 66.5213 68.4005C66.7682 68.524 66.8684 68.8244 66.7449 69.0714C66.6214 69.3183 66.321 69.4184 66.074 69.295C66.0987 69.3073 66.0912 69.2986 66.0125 69.2833C65.9448 69.2701 65.8492 69.2565 65.7234 69.2432C65.4727 69.2168 65.1266 69.1955 64.6873 69.1807C63.8105 69.1514 62.587 69.1499 61.0623 69.1886C58.1085 69.3858 55.1315 69.5045 52.7088 69.588C50.2691 69.672 48.4168 69.7205 47.6863 69.7784L47.6785 69.7794H47.6697C46.7887 69.8202 45.6846 69.8204 44.5643 69.8204C44.2882 69.8204 44.0644 69.5964 44.0643 69.3204C44.0643 69.0442 44.2881 68.8204 44.5643 68.8204C45.6926 68.8204 46.771 68.8199 47.6238 68.7804C48.3945 68.7207 50.2808 68.6714 52.6746 68.5889C55.0982 68.5054 58.0683 68.3872 61.0105 68.1905L61.0203 68.1895H61.0311Z" fill="black"/>
<path d="M115.691 181.401C115.945 181.292 116.239 181.41 116.347 181.664C116.455 181.918 116.337 182.212 116.083 182.321C115.816 182.435 115.203 182.752 114.378 183.144C113.581 183.523 112.624 183.952 111.754 184.242L111.699 184.262L111.64 184.267C108.877 184.513 103.727 183.871 101.371 183.468L101.368 183.467C100.848 183.374 100.475 183.186 100.151 183.024C99.9038 182.9 99.8036 182.6 99.9271 182.353C100.051 182.106 100.351 182.006 100.598 182.129C100.922 182.291 101.18 182.418 101.543 182.483H101.542C103.881 182.883 108.858 183.493 111.493 183.274C112.29 183.003 113.179 182.607 113.95 182.24C114.712 181.878 115.404 181.523 115.691 181.401Z" fill="black"/>
<path d="M117.79 36.9605C118.221 36.9605 118.587 37.2336 118.728 37.6157C118.738 37.6265 118.751 37.64 118.767 37.6548C118.896 37.777 119.126 37.956 119.481 38.188C120.33 38.5974 121.143 39.0837 121.826 39.4527C122.194 39.5317 122.757 39.5405 123.524 39.5405C124.077 39.5406 124.524 39.9885 124.524 40.5405C124.524 41.0928 124.077 41.5405 123.524 41.5405C122.802 41.5405 121.882 41.5495 121.194 41.3579L121.09 41.3286L120.993 41.2778C120.099 40.8024 119.437 40.381 118.549 39.9585L118.49 39.9302L118.435 39.895C118.004 39.6159 117.652 39.352 117.395 39.1099C117.268 38.9902 117.14 38.8532 117.036 38.7017C116.95 38.5753 116.79 38.3102 116.79 37.9605C116.79 37.4082 117.238 36.9605 117.79 36.9605Z" fill="black"/>
</svg>
