<svg width="152" height="186" viewBox="0 0 152 186" fill="none" xmlns="http://www.w3.org/2000/svg">
<path d="M108.224 5.92933C108.623 5.93526 108.959 5.94368 109.214 5.95472C109.426 5.96384 109.687 5.97667 109.861 6.01624C110.127 6.07701 110.43 6.16182 110.699 6.23304C110.982 6.30807 111.255 6.37635 111.518 6.42542C112.066 6.52747 112.638 6.61647 113.177 6.82191C113.608 6.98616 114.218 7.18318 114.962 7.3512C115.972 7.57924 116.902 7.73279 117.572 7.96644C117.897 8.07986 118.209 8.22241 118.449 8.32777C118.708 8.4417 118.903 8.52086 119.084 8.56898C119.669 8.72509 120.318 9.02524 120.811 9.36488C121.02 9.50862 121.212 9.62453 121.473 9.79359C121.712 9.94839 121.984 10.1327 122.237 10.3541C122.424 10.5179 122.617 10.662 122.827 10.8151C123.026 10.9601 123.264 11.1295 123.481 11.3092C123.759 11.5394 124.406 11.9165 125.294 12.8961C125.746 13.3939 126.08 13.9024 126.39 14.3092C126.569 14.5433 126.738 14.731 126.941 14.9674C127.137 15.1954 127.354 15.4563 127.561 15.777C127.768 16.0973 128.239 16.7165 128.557 17.3385C128.921 18.0492 129.101 18.5912 129.278 19.0397C129.441 19.4551 129.677 19.9924 129.812 20.6315C129.875 20.9299 129.921 21.2585 129.962 21.527C130.007 21.8141 130.052 22.071 130.118 22.3121C130.17 22.5028 130.231 22.6625 130.323 22.9332C130.407 23.1817 130.501 23.4827 130.557 23.8336C130.61 24.1627 130.641 24.6032 130.667 24.8424C130.682 24.9869 130.698 25.0993 130.717 25.1862C130.737 25.2774 130.752 25.3016 130.745 25.2887C131.026 25.8175 131.257 26.3849 131.474 26.9352C131.786 27.7244 131.921 28.259 132.1 28.8678C132.156 29.0567 132.237 29.2644 132.343 29.5436C132.441 29.8009 132.559 30.1159 132.639 30.4362C132.722 30.7664 132.764 31.2592 132.783 31.7282C132.802 32.2212 132.799 32.78 132.763 33.2809C132.726 33.8079 132.674 34.2457 132.626 34.6168C132.575 35.0011 132.535 35.272 132.511 35.527C132.462 36.045 132.356 36.557 132.21 37.0494C132.132 37.3152 132.007 37.639 131.935 37.8463C131.85 38.0907 131.794 38.2872 131.769 38.4625C131.704 38.9323 131.6 39.3316 131.508 39.6549C131.408 40.0084 131.349 40.1945 131.317 40.3678C131.242 40.7763 131.186 41.3368 131.112 41.9498C131.077 42.2413 131.037 42.54 130.991 42.8073C130.947 43.0581 130.886 43.3493 130.788 43.5924C130.642 43.9518 130.328 44.3789 129.693 44.5651C129.252 44.6943 128.67 44.7134 128.259 44.6676C127.416 44.5735 126.799 44.5174 126.191 44.4069C125.267 44.2391 124.38 44.0304 123.597 43.9606C123.095 43.9158 122.613 43.8473 122.105 43.776C121.592 43.7041 121.037 43.6274 120.357 43.5563C119.701 43.4877 118.187 43.3551 116.965 43.3668C115.562 43.3803 115.086 43.5088 113.989 43.8512C113.98 43.8539 113.971 43.8554 113.962 43.858C114.009 43.9013 114.057 43.9454 114.106 43.9909C114.474 44.334 114.898 44.7343 115.291 45.0934C115.542 45.3115 115.831 45.5482 116.121 45.7858C116.404 46.0187 116.696 46.2588 116.921 46.4606C117.231 46.737 117.489 47.034 117.74 47.316C117.997 47.6057 118.285 47.9256 118.697 48.318C118.937 48.5469 119.165 48.711 119.421 48.8883C119.669 49.0591 119.986 49.2687 120.297 49.5446C120.673 49.8778 120.998 50.0973 121.301 50.2955C121.578 50.4767 121.949 50.7052 122.247 51.0055C122.352 51.1114 122.506 51.2937 122.592 51.5573C122.688 51.8507 122.671 52.1578 122.556 52.4371C122.465 52.6585 122.326 52.8344 122.231 52.942C122.126 53.0617 122.012 53.169 121.913 53.2555C121.794 53.3587 121.681 53.4657 121.558 53.5817C121.441 53.6925 121.308 53.8181 121.174 53.9342C120.918 54.1572 120.552 54.441 120.079 54.566C119.885 54.6172 119.717 54.6852 119.39 54.7955C119.097 54.8945 118.737 55.0043 118.321 55.0621C117.774 55.1381 117.246 55.1918 116.713 55.3405C116.009 55.5374 115.001 56.0557 113.211 55.8424C112.831 55.797 112.517 55.7783 112.108 55.7477C111.703 55.7174 111.241 55.6777 110.619 55.5895C109.361 55.4112 107.676 55.1568 107.023 54.9801C106.381 54.8063 105.863 54.6883 105.143 54.5338C104.607 54.4189 104.068 54.2687 103.652 54.1647C103.216 54.0557 102.611 53.9103 101.946 53.7057C101.526 53.5765 100.719 53.3927 100.088 53.07C99.5964 52.818 99.0875 52.6261 98.3931 52.3121C98.0019 52.1352 97.6559 52.0218 97.274 51.8922C96.9037 51.7667 96.4857 51.6211 96.0601 51.3883C95.3893 51.0214 94.6763 50.6705 94.1773 50.36C93.8456 50.1535 93.5643 49.9066 93.3638 49.7379C93.143 49.5522 92.9927 49.4353 92.8355 49.3522C92.3609 49.1015 91.6944 48.7924 90.8794 47.9313C90.6506 47.6894 90.3302 47.3636 90.0611 47.0358C89.7988 46.7162 89.4913 46.2863 89.3521 45.7907C89.2996 45.6038 89.2314 45.4103 89.148 45.1715C89.0679 44.9422 88.9753 44.676 88.8941 44.3903C88.7829 43.9987 88.5132 43.279 88.482 42.4264C88.4618 41.8755 88.4292 41.4846 88.398 41.1657C88.3682 40.8608 88.3325 40.5594 88.316 40.2653C88.2974 39.9341 88.2605 39.6593 88.2154 39.3287C88.1702 38.9982 88.1178 38.6204 88.0806 38.1305C88.0274 37.4297 87.9162 36.7067 87.897 34.775C87.8828 33.3436 87.908 30.8402 87.8697 29.5104C87.8495 28.811 87.814 28.3429 87.7837 27.9479C87.7535 27.553 87.726 27.1969 87.731 26.7682C87.7461 25.4779 87.911 24.6494 87.9576 24.1344C88.0294 23.3392 88.1196 22.5861 88.233 21.9401C88.3031 21.5405 88.3815 20.948 88.4917 20.4508C88.6111 19.9125 88.7776 19.3216 88.9361 18.8483C89.0856 18.4016 89.3377 17.5846 89.7623 16.9791C89.9772 16.6726 90.1992 16.4051 90.3423 16.2223C90.4981 16.0234 90.5887 15.8915 90.6519 15.7594C90.7849 15.4814 90.8709 15.247 90.9771 14.9762C91.0772 14.7209 91.2016 14.4135 91.398 14.1139C91.6527 13.7253 91.9857 13.1512 92.4898 12.6315C92.9231 12.1848 93.6552 11.5249 94.2203 11.0153C94.414 10.8405 94.5112 10.7098 94.8433 10.3766C95.1261 10.0929 95.4828 9.77175 95.9644 9.47425C96.7865 8.96644 97.4117 8.62315 97.9595 8.24085C98.3226 7.98748 98.9491 7.51287 99.6148 7.25355C99.8455 7.16367 100.065 7.05661 100.43 6.89808C100.761 6.75451 101.155 6.59553 101.588 6.48109C103.013 6.10477 103.614 5.92949 105.075 5.92152C106.342 5.91462 107.424 5.91744 108.224 5.92933ZM105.085 7.92152C103.895 7.92802 103.503 8.0438 102.099 8.41468C101.81 8.49112 101.522 8.60351 101.226 8.73206C100.964 8.84569 100.612 9.01214 100.34 9.11781C99.9569 9.26725 99.5774 9.55111 99.104 9.88148C98.4997 10.3032 97.7209 10.7401 97.0162 11.1754C96.711 11.3639 96.4756 11.5717 96.2593 11.7887C96.0924 11.9562 95.7832 12.2984 95.5601 12.4996C94.9734 13.0289 94.301 13.6368 93.9253 14.0241C93.5926 14.3671 93.3999 14.7086 93.0708 15.2106C92.9975 15.3225 92.9348 15.4599 92.8384 15.7057C92.748 15.9364 92.6283 16.2606 92.4556 16.6217C92.2951 16.9574 92.0939 17.2293 91.9165 17.4557C91.7268 17.698 91.5743 17.878 91.3999 18.1266C91.1809 18.439 91.0201 18.9257 90.8335 19.483C90.6959 19.8944 90.5472 20.4176 90.4439 20.8834C90.3438 21.3348 90.2985 21.7396 90.2027 22.2858C90.1025 22.8567 90.0179 23.5502 89.9488 24.3151C89.8788 25.0893 89.7441 25.5845 89.73 26.7916C89.7262 27.1194 89.7469 27.3908 89.7779 27.7955C89.8089 28.2004 89.8472 28.7055 89.8687 29.4528C89.9074 30.795 89.8837 33.4112 89.897 34.7545C89.9153 36.599 90.0162 37.2088 90.0748 37.9791C90.1069 38.4028 90.1516 38.7274 90.1968 39.0582C90.242 39.3889 90.2895 39.7347 90.313 40.1539C90.3265 40.393 90.3526 40.6072 90.3882 40.9713C90.4224 41.3213 90.4581 41.7541 90.48 42.3541C90.4998 42.8915 90.6523 43.2602 90.8179 43.8434C90.8806 44.0642 90.9547 44.2778 91.0367 44.5123C91.1152 44.7372 91.2054 44.9924 91.2779 45.2506C91.3018 45.3354 91.39 45.5029 91.607 45.7672C91.8174 46.0235 92.0611 46.2695 92.3326 46.5563C92.8984 47.1541 93.2964 47.334 93.7691 47.5836C94.1349 47.7769 94.4294 48.0213 94.6509 48.2076C94.8927 48.411 95.0512 48.548 95.2339 48.6618C95.676 48.9369 96.2163 49.1938 97.0201 49.6334C97.2777 49.7743 97.5474 49.8725 97.9165 49.9977C98.2741 50.1189 98.7195 50.2638 99.2173 50.4889C99.7607 50.7346 100.463 51.0146 101 51.2897C101.422 51.5061 101.87 51.5902 102.534 51.7946C103.136 51.9799 103.682 52.1107 104.136 52.2243C104.625 52.3465 105.069 52.4717 105.563 52.5778C106.297 52.7353 106.855 52.8622 107.546 53.0494C108.049 53.1855 109.58 53.422 110.899 53.609C111.463 53.689 111.878 53.7252 112.257 53.7535C112.632 53.7816 113.01 53.804 113.448 53.8561C114.728 54.0086 115.182 53.6923 116.175 53.4147C116.874 53.2194 117.589 53.1441 118.045 53.0807C118.279 53.0482 118.503 52.9844 118.75 52.901C118.962 52.8291 119.289 52.7064 119.569 52.6325C119.584 52.6284 119.663 52.598 119.863 52.4244C119.958 52.3417 120.058 52.2475 120.184 52.1285C120.219 52.0958 120.256 52.0624 120.293 52.027C120.266 52.009 120.238 51.9892 120.208 51.9694C119.878 51.7538 119.456 51.4722 118.97 51.0416C118.771 50.8652 118.574 50.7332 118.285 50.5338C118.005 50.341 117.674 50.1058 117.318 49.7662C116.845 49.3161 116.514 48.9469 116.245 48.6442C115.969 48.3342 115.793 48.1351 115.588 47.9518C115.401 47.7838 115.144 47.5722 114.851 47.3317C114.566 47.0981 114.251 46.8406 113.973 46.5993L113.954 46.5817C113.547 46.2098 113.1 45.7879 112.741 45.4528C112.559 45.2827 112.4 45.1355 112.275 45.0231C112.177 44.9348 112.122 44.8886 112.099 44.8698C112.041 44.835 111.977 44.8007 111.873 44.7487C111.638 44.6315 111.47 44.4348 111.384 44.2076C111.148 44.0642 110.972 43.8252 110.919 43.5319C110.82 42.9885 111.181 42.4681 111.724 42.3698C111.991 42.3214 112.506 42.2189 113.393 41.942C114.623 41.5583 115.298 41.3826 116.947 41.3668C118.285 41.3541 119.889 41.4963 120.565 41.567C121.283 41.6421 121.869 41.7235 122.382 41.7955C122.9 41.8682 123.332 41.9289 123.775 41.9684C124.678 42.0489 125.773 42.2983 126.548 42.4391C127.068 42.5335 127.575 42.5783 128.481 42.6793C128.638 42.6968 128.833 42.6901 128.978 42.6725C128.99 42.6173 129.006 42.5485 129.021 42.4635C129.058 42.2508 129.092 41.9948 129.127 41.7106C129.191 41.1721 129.26 40.4951 129.35 40.0045C129.405 39.71 129.511 39.3692 129.584 39.111C129.665 38.8225 129.741 38.5245 129.788 38.1871C129.84 37.8127 129.95 37.4664 130.046 37.1881C130.156 36.8726 130.23 36.6919 130.292 36.484C130.406 36.096 130.485 35.711 130.52 35.3385C130.549 35.0363 130.598 34.6954 130.642 34.358C130.688 34.0074 130.735 33.6124 130.768 33.1403C130.797 32.7242 130.801 32.2396 130.784 31.8073C130.766 31.3514 130.728 31.0369 130.699 30.9215C130.651 30.7301 130.573 30.5164 130.474 30.2555C130.383 30.0167 130.265 29.7152 130.181 29.4313C129.987 28.7712 129.883 28.3518 129.614 27.6696C129.396 27.1185 129.202 26.6458 128.979 26.2272C128.771 25.8356 128.711 25.3614 128.678 25.0582C128.636 24.6653 128.626 24.4235 128.583 24.152C128.552 23.9641 128.5 23.7857 128.428 23.5748C128.364 23.3863 128.261 23.1059 128.188 22.8375C128.092 22.4837 128.033 22.136 127.986 21.8356C127.936 21.5164 127.903 21.2734 127.855 21.0436C127.764 20.6123 127.614 20.2746 127.417 19.7721C127.205 19.2341 127.08 18.8449 126.776 18.2496C126.514 17.7367 126.231 17.4042 125.881 16.8629C125.75 16.6598 125.605 16.4827 125.424 16.2721C125.25 16.0698 125.025 15.8174 124.8 15.5231C124.37 14.9592 124.193 14.6593 123.813 14.2399C123.046 13.3937 122.734 13.2879 122.206 12.8502C122.049 12.7207 121.878 12.5979 121.649 12.4313C121.431 12.2727 121.178 12.0855 120.92 11.86C120.778 11.7356 120.604 11.6133 120.386 11.4723C120.191 11.3456 119.914 11.1749 119.677 11.0123C119.37 10.801 118.931 10.5982 118.569 10.5016C118.226 10.4102 117.907 10.2738 117.645 10.1588C117.363 10.0352 117.144 9.93501 116.913 9.85413C116.384 9.66971 115.735 9.57541 114.522 9.3014C113.683 9.11185 112.982 8.8879 112.465 8.69105C112.14 8.56697 111.799 8.51182 111.152 8.39124C110.811 8.32782 110.479 8.24314 110.187 8.16566C109.88 8.08436 109.637 8.01699 109.416 7.96644C109.458 7.97611 109.401 7.96454 109.128 7.95277C108.9 7.94291 108.586 7.93417 108.195 7.92835C107.414 7.91675 106.347 7.91465 105.085 7.92152Z" fill="black"/>
<path d="M124.935 26.7042C125.324 26.588 125.727 26.7198 125.977 27.0069C126.286 27.0602 126.596 27.1409 126.865 27.2286C127.235 27.3491 127.66 27.5211 127.937 27.7179C128.188 27.8954 128.619 28.2325 128.84 28.8116C129.031 29.3131 129.092 29.532 129.26 29.9054C129.354 30.1149 129.481 30.4269 129.557 30.755C129.617 31.0165 129.719 31.5812 129.432 32.0899C129.335 32.2609 129.091 32.7509 128.623 33.0421C128.455 33.147 127.945 33.4939 127.262 33.4405C127.081 33.4264 126.819 33.4084 126.583 33.3839C126.378 33.3626 126.063 33.3259 125.818 33.2403C125.731 33.2098 125.666 33.1937 125.477 33.1368C125.31 33.0863 125.107 33.0205 124.85 32.9181C124.174 32.6485 123.861 32.4513 123.544 32.1915C123.413 32.0838 123.246 31.9464 123.098 31.8028C122.959 31.6688 122.764 31.4636 122.634 31.2022C122.524 30.9829 122.144 30.0824 122.553 28.961C122.899 28.0111 123.458 27.4857 123.962 27.17C124.337 26.935 124.713 26.7708 124.935 26.7042Z" fill="black"/>
<path d="M122.922 20.4445C123.209 20.4389 123.476 20.4782 123.683 20.5148C123.938 20.5597 124.034 20.5842 124.194 20.6076C124.496 20.6519 124.737 20.7285 125.014 20.8361L125.306 20.9543L125.318 20.9592L125.329 20.9641C125.76 21.1542 126.172 21.3574 126.428 21.508H126.427C126.462 21.528 126.577 21.592 126.685 21.6857C126.752 21.7428 126.808 21.8026 126.857 21.8625L126.985 22.0402L127.036 22.1281C127.265 22.5801 127.119 23.1414 126.683 23.4211C126.248 23.7001 125.679 23.5994 125.363 23.2043C125.191 23.1078 124.89 22.9569 124.535 22.8C124.127 22.6322 124.037 22.6066 123.904 22.5871C123.724 22.5608 123.456 22.5048 123.336 22.4836C123.169 22.4542 123.053 22.4418 122.961 22.4435C122.001 22.4622 121.665 22.5078 121.447 22.5558C121.157 22.62 121.056 22.6748 120.697 22.7756C120.314 22.8829 120.275 22.853 120.076 22.9885C119.944 23.0785 119.815 23.169 119.693 23.2531C119.573 23.3361 119.458 23.4153 119.364 23.4797C119.303 23.5212 119.24 23.5663 119.17 23.6154C119.102 23.6631 119.028 23.7158 118.955 23.7658C118.822 23.8574 118.639 23.9789 118.46 24.0646C118.328 24.1276 118.236 24.1797 118.175 24.2267C118.168 24.2322 118.162 24.2373 118.157 24.2414C118.138 24.2993 118.12 24.3636 118.106 24.4269C118.088 24.5095 118.08 24.5682 118.079 24.5851C118.029 25.135 117.543 25.54 116.993 25.4904C116.443 25.4407 116.037 24.9545 116.087 24.4045C116.106 24.1914 116.172 23.8338 116.299 23.4953L116.362 23.3488C116.521 23.0204 116.761 22.7908 116.96 22.6389C117.189 22.4636 117.431 22.3399 117.596 22.2609C117.62 22.2492 117.688 22.2091 117.822 22.1174C117.883 22.0754 117.947 22.0296 118.018 21.9797C118.087 21.9313 118.163 21.8783 118.237 21.8273C118.324 21.7683 118.43 21.6949 118.554 21.6096C118.675 21.5253 118.81 21.4317 118.949 21.3371C119.503 20.9589 120.059 20.8769 120.157 20.8498C120.254 20.8225 120.692 20.6741 121.015 20.6027C121.435 20.5102 121.934 20.4638 122.922 20.4445Z" fill="black"/>
<path d="M93.5116 3.43179L93.5546 3.43569C93.7256 3.45063 94.1946 3.46716 94.8534 3.49233C95.4842 3.51643 96.249 3.54834 96.9638 3.59292L96.9648 3.59194C98.1429 3.64781 99.6981 3.74436 101.031 3.80386C102.342 3.86237 103.111 4.05435 104.007 4.42983C104.865 4.78973 105.568 5.26197 105.887 5.47378C106.346 5.77977 106.471 6.40073 106.165 6.8605C105.859 7.32026 105.238 7.44481 104.778 7.13882C104.462 6.92815 103.898 6.55337 103.233 6.27456C102.569 5.996 102.032 5.8506 100.941 5.8019C99.6571 5.74458 97.9524 5.64131 96.87 5.58999H96.8632L96.8554 5.58901C96.1625 5.54554 95.4114 5.51465 94.7763 5.49038C94.2257 5.46934 93.7248 5.45008 93.4589 5.43179C93.3523 5.43202 93.302 5.448 92.9345 5.49429C92.3865 5.56329 91.8863 5.17506 91.8173 4.6271C91.7484 4.07923 92.1366 3.57892 92.6845 3.50991C92.8839 3.4848 93.1884 3.43103 93.4696 3.43179H93.5116Z" fill="black"/>
<path d="M114.308 7.79213C114.308 7.65281 114.285 7.42611 114.222 7.1769C114.159 6.92647 114.068 6.70195 113.961 6.53823C113.715 6.16334 113.276 5.75151 112.711 5.36342C112.518 5.23084 112.22 5.0985 111.752 4.94936C111.284 4.80037 110.741 4.66207 110.064 4.47866C108.796 4.13522 107.198 3.90258 106.14 3.79995C105.179 3.70669 104.079 3.58779 103.073 3.50014C102.374 3.43926 101.671 3.2819 100.806 3.09194C99.9872 2.91185 99.3187 2.72173 98.7674 2.57534C98.2047 2.42592 97.7675 2.32346 97.328 2.27846L97.3133 2.27651L97.2996 2.27456C97.1373 2.25317 96.9679 2.2228 96.827 2.19643C96.6741 2.16782 96.559 2.14498 96.4627 2.13002C96.3033 2.10529 96.0648 2.09111 95.5575 1.97475C95.0192 1.85125 94.683 1.31478 94.8065 0.776508C94.93 0.238257 95.4664 -0.0979244 96.0047 0.0255317C96.4223 0.121305 96.4643 0.107086 96.7694 0.154438C96.9054 0.175558 97.065 0.206432 97.1942 0.23061C97.334 0.256779 97.4548 0.278501 97.5575 0.292133C98.155 0.355575 98.714 0.492148 99.2811 0.642719C99.8678 0.798525 100.472 0.970867 101.236 1.13881C102.139 1.33721 102.704 1.46069 103.247 1.50795C104.263 1.59647 105.407 1.71981 106.334 1.80971C107.453 1.91827 109.172 2.16446 110.588 2.54799C111.219 2.71902 111.836 2.87637 112.359 3.04311C112.882 3.20966 113.405 3.4136 113.844 3.71498C114.519 4.17897 115.19 4.76517 115.634 5.44252C116.142 6.21812 116.308 7.20365 116.308 7.79213C116.308 8.34442 115.861 8.79213 115.308 8.79213C114.756 8.79197 114.308 8.34432 114.308 7.79213Z" fill="black"/>
<path d="M120.923 32.6051C121.433 32.4532 121.966 32.7269 122.146 33.2194C122.139 33.2044 122.137 33.2056 122.151 33.2243C122.171 33.2521 122.208 33.2983 122.272 33.362C122.401 33.4912 122.577 33.6372 122.783 33.7965C122.925 33.907 123.117 34.0169 123.4 34.1637C123.66 34.2988 124.009 34.4708 124.348 34.6705C124.694 34.8747 125.063 35.0005 125.659 35.0973C127.039 35.0531 127.424 34.9274 127.592 34.8727C127.607 34.8665 127.622 34.8606 127.641 34.8502C127.673 34.8327 127.727 34.7999 127.818 34.735C128.268 34.4147 128.892 34.5194 129.212 34.9694C129.532 35.4192 129.428 36.0436 128.978 36.3639C128.703 36.5597 128.5 36.6694 128.272 36.7545L128.246 36.7643L128.221 36.7721C127.872 36.881 127.338 37.0516 125.616 37.1002L125.526 37.1032L125.436 37.0895C124.632 36.9666 123.98 36.7757 123.331 36.3932C123.054 36.2299 122.789 36.1006 122.478 35.9391C122.19 35.7894 121.854 35.6082 121.556 35.3766C121.335 35.2049 121.078 34.9962 120.857 34.775C120.663 34.5815 120.374 34.2596 120.251 33.8493C120.094 33.3201 120.394 32.7631 120.923 32.6051Z" fill="black"/>
<path d="M99.4399 50.555C99.9001 50.2497 100.52 50.375 100.826 50.8352C101.131 51.2954 101.005 51.9156 100.545 52.221C100.574 52.2017 100.519 52.2295 100.394 52.4231C100.273 52.6094 100.119 52.9 99.9262 53.3421C99.5403 54.2272 99.0445 55.6199 98.3852 57.7737C97.666 60.1232 97.2298 62.0638 96.8764 63.677C96.5299 65.2592 96.2456 66.62 95.8344 67.6868C95.1713 69.4072 94.7719 71.0835 94.4663 72.7757C93.987 75.4287 93.6264 77.5034 93.3159 79.3225C92.9556 81.4334 92.6642 84.2379 92.393 86.5774C92.1323 88.8273 91.7687 91.3208 91.4467 92.7903C91.3907 93.0463 91.3593 93.3495 91.3286 94.01C91.2965 94.6992 91.272 95.5773 91.2036 97.1165C90.9287 103.298 91.1411 106.804 91.5219 108.942C91.8913 111.015 92.4135 111.795 92.8755 112.574C94.0214 114.508 95.3245 117.051 95.895 118.852C96.0852 119.452 96.3615 120.029 96.7309 120.778C97.095 121.515 97.5332 122.389 97.9907 123.512C98.9127 125.775 100.064 127.96 101.086 129.496C102.105 131.028 102.703 132.54 104.139 135.894C104.988 137.877 105.971 140.403 106.898 142.744C108.227 146.101 109.338 147.833 110.46 150.218C110.87 151.089 111.38 151.972 111.969 152.965C112.553 153.949 113.212 155.037 113.886 156.274C116.228 160.566 117.028 162.509 117.704 164.18C118.01 164.937 118.508 165.784 119.073 166.754C119.618 167.691 120.219 168.73 120.631 169.766C121.037 170.787 121.766 172.134 122.541 173.512C123.296 174.854 124.101 176.235 124.585 177.228C124.897 177.867 125.167 178.49 125.41 179.093C125.591 178.356 125.907 177.673 126.443 177.137L126.476 177.104L126.512 177.074C127.54 176.223 128.982 174.993 130.486 174.069C131.936 173.177 133.736 172.379 135.416 172.808C135.995 172.956 137.043 173.345 137.216 174.523C137.305 175.129 137.384 175.79 137.371 176.39C137.358 176.951 137.266 177.672 136.821 178.219C136.265 178.901 135.626 179.452 135.001 179.959C134.359 180.481 133.751 180.943 133.13 181.516C132.557 182.045 132.041 182.556 131.552 183.034C131.071 183.505 130.607 183.955 130.167 184.325C129.369 184.999 128.288 185.742 127.062 185.358C125.999 185.024 125.089 184.068 124.65 182.827C124.11 181.3 123.601 179.771 122.789 178.105C122.339 177.182 121.585 175.891 120.798 174.493C120.032 173.132 119.236 171.67 118.773 170.505C118.425 169.63 117.901 168.718 117.344 167.761C116.807 166.838 116.222 165.85 115.85 164.929C115.2 163.321 114.431 161.449 112.13 157.232C111.478 156.035 110.843 154.988 110.248 153.986C109.659 152.992 109.106 152.036 108.651 151.07C107.645 148.932 106.386 146.882 105.039 143.481C104.103 141.118 103.136 138.631 102.301 136.681C100.822 133.226 100.311 131.941 99.4213 130.604C98.3147 128.94 97.1036 126.634 96.1391 124.267C95.7129 123.221 95.3055 122.41 94.937 121.663C94.5739 120.928 94.2304 120.221 93.9878 119.455C93.4872 117.875 92.278 115.49 91.1547 113.594C90.6427 112.73 89.9838 111.71 89.5532 109.292C89.134 106.938 88.9284 103.26 89.2055 97.0276C89.27 95.5786 89.3018 94.5547 89.3315 93.9163C89.3625 93.2494 89.3971 92.7985 89.4926 92.3626C89.7925 90.9938 90.1479 88.581 90.4067 86.3479C90.6724 84.0553 90.972 81.166 91.3442 78.9856C91.6556 77.1612 92.018 75.0805 92.4985 72.4202C92.8174 70.6549 93.2443 68.8462 93.9682 66.968C94.3105 66.0801 94.5593 64.9068 94.9223 63.2493C95.2785 61.6229 95.7293 59.6176 96.4731 57.1878C97.1386 55.0137 97.66 53.5347 98.0922 52.5432C98.3084 52.0475 98.5128 51.6479 98.7153 51.3352C98.9126 51.0306 99.1459 50.75 99.4399 50.555ZM134.922 174.745C134.104 174.537 132.943 174.904 131.533 175.772C130.197 176.593 128.899 177.693 127.837 178.573C127.524 178.9 127.292 179.489 127.212 180.49L127.208 180.537L127.2 180.586C127.084 181.234 126.847 181.7 126.666 182.062C126.636 182.122 126.601 182.177 126.561 182.228C126.837 182.952 127.32 183.343 127.661 183.449C127.759 183.48 128.049 183.496 128.877 182.797C129.252 182.481 129.666 182.081 130.153 181.605C130.632 181.136 131.174 180.6 131.774 180.046C132.456 179.417 133.157 178.881 133.741 178.407C134.343 177.917 134.849 177.473 135.27 176.956C135.264 176.964 135.291 176.933 135.319 176.823C135.347 176.712 135.367 176.556 135.372 176.347C135.38 175.937 135.327 175.433 135.245 174.866C135.226 174.856 135.2 174.839 135.162 174.823C135.1 174.797 135.022 174.771 134.922 174.745Z" fill="black"/>
<path d="M90.2995 107.006C90.8462 107.084 91.2268 107.59 91.1491 108.137C91.0513 108.825 90.6818 110.468 90.1013 112.436C89.5973 114.145 88.5018 115.828 87.6032 117.287C87.0813 118.134 86.6076 119.179 86.1599 120.253C85.7275 121.291 85.2994 122.407 84.9138 123.246C84.1423 124.925 83.1748 126.297 82.1794 127.567C80.8997 129.199 79.7205 130.812 78.0339 133.079C76.8024 134.735 75.2462 136.294 74.1394 137.605C73.4683 138.399 72.7655 138.966 72.1013 139.437C71.3795 139.949 70.8844 140.237 70.3063 140.679C69.4875 141.306 68.3457 141.6 67.2653 141.731C66.1545 141.865 64.9613 141.842 63.9196 141.725C62.9982 141.621 60.808 141.544 58.1843 141.454C55.5933 141.366 52.63 141.265 50.237 141.11C49.0338 141.032 47.9809 140.778 47.0173 140.506C46.0253 140.226 45.2013 139.952 44.2936 139.762C42.1889 139.321 40.2506 138.715 37.9782 138.062C37.1408 137.821 36.3351 137.672 35.4538 137.465C34.6259 137.271 33.7435 137.026 33.0036 136.59C32.9102 136.535 32.8146 136.48 32.7185 136.424C32.8364 137.092 32.9156 137.844 32.8601 138.594C32.7834 139.629 32.4445 140.743 31.5251 141.6C30.8522 142.227 29.803 143.162 28.3601 143.632C28.0099 143.746 27.4663 144.02 26.7224 144.398C26.0207 144.754 25.1906 145.175 24.3767 145.497C23.5854 145.811 22.6821 146.085 21.8532 146.049C21.4218 146.03 20.9636 145.925 20.5505 145.657C20.1277 145.382 19.8228 144.981 19.6354 144.495C19.2227 143.422 19.3937 142.174 19.4899 141.32C19.6105 140.249 19.8835 139.026 20.3698 137.916C20.8517 136.817 21.5842 135.735 22.6794 135.083C22.9874 134.9 23.3459 134.639 23.8063 134.309C24.247 133.993 24.758 133.633 25.3024 133.32C26.3609 132.71 27.7635 132.144 29.2438 132.6C29.421 132.655 29.5988 132.714 29.7761 132.777C30.0284 132.763 30.2863 132.846 30.4909 133.026C30.5086 133.041 30.5255 133.057 30.5427 133.073C31.8175 133.604 33.043 134.292 34.0183 134.867C34.4769 135.136 35.1009 135.328 35.9118 135.519C36.6697 135.697 37.6365 135.883 38.531 136.14C40.8615 136.81 42.6932 137.383 44.7038 137.804C45.7002 138.013 46.6771 138.331 47.5603 138.58C48.4719 138.838 49.3692 139.049 50.3669 139.114C52.723 139.267 55.6531 139.366 58.2536 139.455C60.8214 139.543 63.1218 139.623 64.1433 139.738C65.0601 139.841 66.0949 139.858 67.0251 139.745C67.9857 139.629 68.6988 139.391 69.0915 139.09C69.6682 138.649 70.4148 138.182 70.944 137.806C71.5308 137.39 72.0886 136.935 72.612 136.315C73.9023 134.787 75.2232 133.507 76.4294 131.886C78.102 129.638 79.3049 127.991 80.6052 126.332C81.5578 125.117 82.4186 123.887 83.0964 122.412C83.4642 121.611 83.8444 120.611 84.3142 119.484C84.7685 118.393 85.2909 117.225 85.9001 116.237C86.8618 114.676 87.7732 113.261 88.1833 111.87C88.7535 109.937 89.091 108.402 89.1686 107.856C89.2464 107.309 89.7528 106.929 90.2995 107.006ZM28.656 134.511C28.0005 134.309 27.2328 134.516 26.3005 135.053C25.8497 135.313 25.4097 135.621 24.9714 135.935C24.5529 136.235 24.1033 136.564 23.7019 136.803C23.1017 137.16 22.5934 137.826 22.2019 138.719C21.8149 139.602 21.5812 140.62 21.4772 141.543C21.3636 142.553 21.3017 143.255 21.5026 143.777C21.557 143.918 21.6118 143.961 21.6403 143.98C21.6786 144.005 21.7643 144.043 21.9411 144.051C22.3289 144.068 22.9039 143.93 23.6403 143.638C24.3541 143.355 25.1023 142.977 25.8181 142.614C26.4916 142.272 27.2055 141.905 27.7409 141.731C28.7341 141.407 29.5086 140.745 30.1618 140.136C30.5953 139.732 30.8127 139.166 30.8659 138.447C30.9161 137.769 30.8107 137.031 30.6608 136.332C30.622 136.277 30.5735 136.213 30.5104 136.135C30.4149 136.017 30.2618 135.833 30.1286 135.648C29.953 135.403 29.936 135.353 29.7819 135.157C29.7047 135.058 29.6016 134.94 29.4538 134.793C29.1858 134.689 28.9197 134.592 28.656 134.511Z" fill="black"/>
<path d="M141.239 33.8818C141.918 33.723 142.54 33.9938 142.928 34.1992C143.322 34.4075 143.784 34.7287 144.07 34.9081C144.619 35.2535 144.907 35.8035 145.064 36.2929C145.224 36.7904 145.288 37.3443 145.307 37.8671C145.346 38.9135 145.212 40.0467 145.121 40.791C145.063 41.2597 144.847 41.6475 144.625 41.9492C144.404 42.2502 144.129 42.5283 143.872 42.7744C143.316 43.3052 142.8 43.7366 142.366 44.288L142.322 44.3437L142.27 44.3935C141.157 45.4517 140.329 45.9332 139.823 46.1865C139.778 46.209 139.731 46.2301 139.683 46.2529C139.421 47.3927 138.756 49.1817 137.887 50.7919C137.568 51.3832 137.144 51.9474 136.808 52.413C136.448 52.9129 136.177 53.3159 136.02 53.6982C135.698 54.4814 135.303 55.288 134.92 56.0683C134.532 56.8602 134.155 57.6286 133.838 58.3818C133.296 59.6726 132.526 61.7083 131.379 63.8339C131.024 64.4935 130.734 65.1235 130.461 65.7119C130.198 66.2806 129.934 66.8505 129.651 67.3085C129.161 68.101 128.299 69.5215 127.914 70.6415C127.623 71.4854 127.204 72.6777 126.535 73.7236C126.225 74.2071 125.742 74.927 125.176 75.4794C124.893 75.7557 124.54 76.0389 124.129 76.2148C123.7 76.3985 123.166 76.4793 122.615 76.2617C121.582 75.8535 120.69 75.255 119.696 74.1718C118.863 73.2653 118.065 72.5698 117.167 72.0078C116.34 71.4907 115.41 70.9247 114.624 70.1904C114.197 69.7919 113.716 69.2811 113.194 68.7265C112.664 68.1631 112.076 67.5362 111.411 66.871C110.268 65.7282 109.146 64.8249 107.81 63.1826C106.823 61.9689 105.833 61.0351 104.533 59.8329C103.102 58.5103 102.182 57.6569 101.088 56.3007C100.587 55.6793 100.138 55.0828 99.8345 54.6972C99.6721 54.4912 99.5462 54.3375 99.4458 54.2285C99.3303 54.1031 99.3082 54.1015 99.3579 54.1298C98.8779 53.8567 98.7098 53.2466 98.9829 52.7665C99.256 52.2867 99.8663 52.1188 100.346 52.3915C100.581 52.525 100.777 52.7225 100.917 52.874C101.071 53.0418 101.237 53.2444 101.406 53.4589C101.765 53.9145 102.139 54.4179 102.645 55.0449C103.637 56.2741 104.456 57.0384 105.89 58.3642C107.19 59.5656 108.276 60.5849 109.362 61.9208C110.615 63.4615 111.523 64.1556 112.825 65.457C113.515 66.1474 114.124 66.7969 114.65 67.3564C115.184 67.9243 115.619 68.3838 115.989 68.7294C116.605 69.305 117.352 69.765 118.227 70.3124C119.313 70.9918 120.246 71.8151 121.168 72.8193C121.968 73.6899 122.606 74.1011 123.313 74.3857C123.32 74.3832 123.331 74.3812 123.343 74.3759C123.437 74.3356 123.586 74.237 123.78 74.0478C124.168 73.6688 124.546 73.1201 124.85 72.6445C125.375 71.8255 125.727 70.8482 126.023 69.9902C126.494 68.6224 127.484 67.0101 127.95 66.2568C128.157 65.9211 128.369 65.4696 128.646 64.871C128.914 64.2918 129.229 63.6067 129.619 62.8847C130.705 60.8704 131.42 58.9735 131.995 57.6064C132.338 56.7897 132.742 55.9671 133.125 55.1874C133.512 54.3963 133.877 53.6499 134.169 52.9384C134.427 52.3108 134.833 51.7326 135.185 51.2441C135.562 50.7211 135.886 50.2887 136.127 49.8417C136.827 48.5459 137.359 47.1625 137.626 46.2245C137.535 46.1066 137.468 45.9667 137.436 45.8105C137.382 45.5431 137.441 45.2793 137.579 45.0673C137.573 45.0639 137.566 45.0601 137.56 45.0566C137.494 45.0196 137.404 44.97 137.323 44.9218C137.186 44.841 136.903 44.6714 136.703 44.3915C135.907 43.28 135.953 41.7609 136.197 40.4765C136.452 39.1317 136.983 37.7356 137.506 36.6181C138.46 34.5802 140.155 34.1352 141.239 33.8818ZM141.669 35.8349C140.692 36.0646 139.848 36.3327 139.318 37.4658C138.835 38.4963 138.376 39.7266 138.163 40.8495C137.948 41.9792 138.032 42.7504 138.292 43.1689C138.304 43.177 138.32 43.1886 138.341 43.2011C138.381 43.2242 138.67 43.3841 138.806 43.4687C139.005 43.5923 139.274 43.7831 139.5 44.0673C139.848 43.8411 140.301 43.4998 140.855 42.9765C141.396 42.3094 142.063 41.7355 142.49 41.3281C142.731 41.0976 142.901 40.9184 143.014 40.7646C143.068 40.6911 143.099 40.6359 143.117 40.5976C143.125 40.5791 143.13 40.5658 143.132 40.5576C143.133 40.5536 143.135 40.5505 143.135 40.5488V40.5468C143.228 39.79 143.34 38.8064 143.308 37.9413C143.292 37.5083 143.241 37.1573 143.16 36.9042C143.076 36.644 142.997 36.5964 143.005 36.6015C142.575 36.3308 142.304 36.1311 141.994 35.9667C141.783 35.8553 141.688 35.8387 141.669 35.8349Z" fill="black"/>
<path d="M98.0989 50.9863C98.6512 50.9863 99.0989 51.434 99.0989 51.9863C99.0989 52.5386 98.6512 52.9863 98.0989 52.9863C96.911 52.9863 94.1755 53.0907 93.014 53.1943C92.2406 53.2633 91.5544 53.3533 90.7327 53.4502C89.9164 53.5464 88.9951 53.6453 87.7952 53.7265C87.2457 53.7637 86.541 53.8404 85.6858 53.9248C84.8428 54.008 83.8794 54.096 82.8577 54.1513C80.7658 54.2647 79.0788 54.3049 77.7854 54.3271C76.4662 54.3498 75.6189 54.3537 75.1292 54.3906C71.742 54.646 70.9227 54.5768 69.1819 54.9541C68.163 55.1749 67.5815 55.3807 67.3655 55.4961C67.271 55.5466 67.0956 55.7065 67.0364 56.3056C66.9788 56.8895 67.0611 57.6617 67.2366 58.5332C67.4094 59.3911 67.6576 60.2753 67.889 61.0654C68.1089 61.8165 68.3387 62.5577 68.43 63.0224C68.6511 64.1487 68.896 65.2732 69.2464 66.3281C69.4457 66.9282 69.5625 67.5188 69.6546 68.0683C69.7511 68.6444 69.8136 69.12 69.9163 69.6338C70.1915 71.0099 70.2819 72.784 70.3733 74.2285C70.9564 74.5151 71.4944 74.8623 71.8958 75.2841C72.417 75.832 73.1995 76.6844 73.4026 77.8496C73.5772 78.851 73.7159 79.926 73.6917 80.8271C73.6796 81.2751 73.6259 81.7409 73.4827 82.1533C73.3401 82.5635 73.0645 83.0401 72.5306 83.2988C71.4386 83.8275 70.0852 84.0882 68.7835 83.666C68.5678 83.596 68.3185 83.5392 68.0022 83.4658C67.708 83.3974 67.3542 83.3133 67.0228 83.1963C66.3916 82.9733 65.4564 82.4854 65.3382 81.3222C65.2811 80.7608 65.2669 80.2109 65.3187 79.7207C65.3677 79.2559 65.4871 78.7261 65.7894 78.3047C66.2499 77.6627 66.8486 77.1843 67.3099 76.7949C67.771 76.4056 68.1552 76.0584 68.4681 75.6074V75.6054C68.3409 75.562 68.21 75.5194 68.0755 75.4785C67.2397 75.2241 66.3829 75.0553 65.7288 74.9707C65.6918 75.0783 65.6604 75.2191 65.6145 75.4482C65.5062 75.9898 64.9794 76.3417 64.4378 76.2334C63.8964 76.125 63.5454 75.5981 63.6536 75.0566C63.7035 74.8072 63.7742 74.4298 63.9358 74.0693C64.0917 73.7218 64.3799 73.2747 64.888 73.0254L65.1312 72.9062L65.4026 72.9258C66.1511 72.9815 67.235 73.1639 68.3177 73.4668C68.2422 72.2566 68.1581 71.0401 67.9554 70.0263C67.8455 69.4767 67.7637 68.886 67.6819 68.3984C67.5957 67.8839 67.4997 67.412 67.3489 66.958C66.9568 65.7772 66.6914 64.5505 66.4671 63.4082C66.399 63.0614 66.214 62.4634 65.969 61.6269C65.7354 60.8293 65.4676 59.8763 65.2767 58.9287C65.0885 57.9945 64.9593 56.9907 65.0462 56.1093C65.1317 55.2435 65.4572 54.2484 66.4222 53.7324C66.898 53.478 67.7111 53.2259 68.7581 52.999C70.6792 52.5827 71.783 52.6375 74.9788 52.3965C75.5456 52.3537 76.4982 52.3496 77.7513 52.3281C79.0305 52.3061 80.6907 52.2659 82.7493 52.1543C83.7265 52.1013 84.6552 52.0159 85.4895 51.9336C86.3117 51.8524 87.07 51.7714 87.6604 51.7314C88.8157 51.6532 89.7013 51.5578 90.4983 51.4638C91.2901 51.3705 92.0254 51.2745 92.8362 51.2021C94.0684 51.0922 96.8645 50.9863 98.0989 50.9863ZM70.2698 76.5C70.2483 76.54 70.2254 76.5805 70.1995 76.6201C69.7043 77.3767 69.1004 77.9006 68.5999 78.3232C68.0712 78.7696 67.698 79.0753 67.4144 79.4707C67.4104 79.4776 67.3936 79.5091 67.3733 79.5761C67.3482 79.6595 67.3242 79.7763 67.3079 79.9306C67.275 80.2422 67.2793 80.6466 67.3274 81.1201C67.3287 81.1328 67.3215 81.1222 67.3353 81.1347C67.3744 81.1704 67.4739 81.2346 67.6888 81.3105C67.9001 81.3852 68.1492 81.4466 68.4544 81.5175C68.7374 81.5833 69.0847 81.6611 69.4007 81.7636C70.0526 81.975 70.8279 81.8783 71.5774 81.5341C71.5817 81.5238 71.5888 81.5122 71.594 81.497C71.6419 81.3594 71.6832 81.124 71.6927 80.7734C71.7114 80.0776 71.6017 79.1621 71.4329 78.1933C71.345 77.6889 70.9859 77.229 70.4476 76.6631C70.3959 76.6087 70.3362 76.5541 70.2698 76.5Z" fill="black"/>
<path d="M121.953 180.917C122.447 180.67 123.048 180.87 123.295 181.364C123.541 181.858 123.341 182.459 122.847 182.706C122.352 182.954 121.87 183.194 121.382 183.438C120.901 183.678 120.307 183.981 119.545 184.131L119.494 184.14L119.442 184.145C118.068 184.269 117.19 184.269 116.931 184.269C116.379 184.269 115.931 183.822 115.931 183.269C115.931 182.717 116.379 182.269 116.931 182.269C117.15 182.269 117.943 182.268 119.204 182.157C119.645 182.064 120.007 181.889 120.487 181.649C120.975 181.405 121.457 181.165 121.953 180.917Z" fill="black"/>
<path d="M18.0564 128.25C18.078 128.336 18.1146 128.461 18.1707 128.629C18.2824 128.965 18.4558 129.429 18.6951 130.027C18.9326 130.621 19.2499 131.39 19.2546 132.336C19.257 132.804 19.1813 133.278 19.0906 133.78C18.9963 134.301 18.879 134.883 18.7576 135.665C18.6729 136.21 18.1625 136.584 17.6169 136.5C17.0712 136.415 16.6973 135.904 16.782 135.358C16.9084 134.544 17.0357 133.906 17.1228 133.424C17.2134 132.923 17.256 132.61 17.2546 132.346C17.252 131.831 17.0885 131.397 16.8376 130.77C16.5921 130.156 16.403 129.65 16.2732 129.26C16.2086 129.066 16.1546 128.889 16.116 128.734C16.0824 128.599 16.0408 128.409 16.0408 128.22C16.0408 127.668 16.4885 127.22 17.0408 127.22C17.5931 127.22 18.0408 127.668 18.0408 128.22C18.0408 128.152 18.0298 128.143 18.0564 128.25Z" fill="black"/>
<path d="M20.4155 126.033C20.4155 125.481 20.8632 125.033 21.4155 125.033C21.9678 125.033 22.4155 125.481 22.4155 126.033C22.4155 126.204 22.4174 126.279 22.4458 126.393C22.4772 126.519 22.5539 126.735 22.7661 127.109C23.1871 127.851 24.0838 129.102 26.1343 131.16C26.5241 131.551 26.5225 132.184 26.1314 132.574C25.7402 132.964 25.1071 132.963 24.7173 132.572C22.5974 130.445 21.5683 129.05 21.0269 128.096C20.7578 127.622 20.5943 127.233 20.5054 126.877C20.4136 126.508 20.4155 126.223 20.4155 126.033Z" fill="black"/>
<path d="M12.5631 97.0422C12.8695 96.5827 13.4903 96.4585 13.9499 96.7649C14.0324 96.8199 14.0546 96.8333 14.0993 96.8518C14.1544 96.8745 14.2725 96.9146 14.5202 96.9592C15.0317 97.0513 15.9649 97.1406 17.7663 97.2024C21.3569 97.3255 28.1955 97.3259 32.2633 97.2659C36.3122 97.2061 37.3626 97.0877 38.4401 96.968C38.9887 96.9073 39.4825 97.3022 39.5436 97.8508C39.6046 98.3996 39.2095 98.8942 38.6608 98.9553C37.5071 99.0835 36.3914 99.2053 32.2926 99.2659C28.2126 99.3261 21.3357 99.3262 17.6969 99.2014C15.8839 99.1392 14.8285 99.0463 14.1657 98.927C13.8274 98.8661 13.5617 98.7934 13.3346 98.6995C13.0972 98.6013 12.9384 98.4942 12.8405 98.4289C12.381 98.1226 12.2568 97.5018 12.5631 97.0422Z" fill="black"/>
<path d="M43.1557 76.5547C43.7029 76.4809 44.2067 76.8649 44.2807 77.4121C44.3545 77.9593 43.9705 78.4631 43.4233 78.5371C38.8301 79.1578 34.3937 79.7567 32.1205 80.1172C30.9768 80.2985 30.4235 80.4128 30.1508 80.4873C30.1104 80.4983 30.0803 80.5068 30.059 80.5137C29.6664 80.8279 29.0928 80.8043 28.7289 80.4404C28.3384 80.0499 28.3384 79.4169 28.7289 79.0264L28.8578 78.9092C28.9174 78.8612 28.9946 78.8075 29.0922 78.7559C29.2505 78.672 29.4287 78.6108 29.6234 78.5576C30.0129 78.4512 30.6642 78.3239 31.808 78.1426C34.1102 77.7775 38.5767 77.1735 43.1557 76.5547Z" fill="black"/>
<path d="M49.4042 36.5493C49.8982 36.3023 50.499 36.5026 50.746 36.9966C50.993 37.4906 50.7927 38.0914 50.2987 38.3384C49.7575 38.609 49.224 38.8718 47.747 39.3198C46.3067 39.7567 43.9771 40.3708 42.1581 40.6812L42.1239 40.686L42.0907 40.6899C39.0055 41.0028 35.8491 40.7421 32.2206 40.2583C31.6732 40.1853 31.2882 39.6817 31.3612 39.1343C31.4343 38.587 31.937 38.2031 32.4843 38.2759C36.0616 38.7529 39.0221 38.9857 41.8593 38.7017C43.5607 38.4083 45.7802 37.8261 47.1659 37.4058C48.525 36.9935 48.9539 36.7745 49.4042 36.5493Z" fill="black"/>
<path d="M65.7698 7.65109C66.3177 7.58337 66.8171 7.97231 66.885 8.52023C66.9527 9.06834 66.563 9.56772 66.0149 9.63546C57.0164 10.7476 49.2795 11.8357 43.7405 12.3786C38.165 12.9251 34.8752 12.9242 30.259 12.862C25.6557 12.8 19.8771 12.6796 14.1037 12.5593C13.5516 12.5478 13.1127 12.0909 13.1242 11.5388C13.1358 10.9868 13.5928 10.5489 14.1448 10.5603C19.9207 10.6806 25.6918 10.8001 30.2864 10.862C34.8679 10.9238 38.0747 10.9236 43.5451 10.3874C49.0524 9.8476 56.715 8.77013 65.7698 7.65109Z" fill="black"/>
<path d="M8.25288 71.8915C8.75816 71.669 9.34853 71.898 9.57124 72.4032C9.79382 72.9084 9.5646 73.4987 9.05952 73.7216C7.83516 74.2613 7.00488 74.3989 5.79389 74.6415C4.5735 74.8859 2.89665 75.2459 1.20991 75.6073C0.669882 75.723 0.138127 75.3788 0.0224075 74.8388C-0.0932464 74.2989 0.250185 73.7671 0.789986 73.6513C2.47156 73.2909 4.16368 72.9283 5.40034 72.6806C6.64625 72.431 7.26085 72.3288 8.25288 71.8915Z" fill="black"/>
<path d="M45.0014 120.299C45.5503 120.238 46.0449 120.634 46.1059 121.183C46.1668 121.732 45.7718 122.227 45.2231 122.288C42.994 122.535 40.7989 122.779 38.2553 122.901C35.7196 123.023 32.9289 123.023 31.4243 123.023H29.436C28.8838 123.023 28.4362 122.575 28.436 122.023C28.436 121.471 28.8837 121.023 29.436 121.023H31.4243C32.9345 121.023 35.6789 121.023 38.1596 120.904C40.6322 120.785 42.7684 120.548 45.0014 120.299Z" fill="black"/>
<path d="M75.8109 107.577C76.3396 107.417 76.8984 107.716 77.0579 108.245C77.2175 108.773 76.9177 109.331 76.389 109.491C75.7953 109.67 75.2995 109.846 74.7796 110.024C74.2637 110.201 73.733 110.377 73.1136 110.539C71.8959 110.857 70.4027 111.105 68.973 111.343C68.4284 111.434 67.9134 111.066 67.8226 110.521C67.7318 109.976 68.1001 109.462 68.6449 109.371C70.1021 109.128 71.4961 108.894 72.6077 108.603C73.1531 108.461 73.6268 108.304 74.1312 108.131C74.6314 107.96 75.1725 107.769 75.8109 107.577Z" fill="black"/>
<path d="M89.0892 14.4897C89.5884 14.4007 90.0832 14.7025 90.2249 15.2006C90.368 15.7036 90.0994 16.2253 89.6195 16.4076C89.6084 16.4149 89.5688 16.4401 89.4994 16.4975C89.3811 16.5954 89.2281 16.7425 89.0609 16.9301C88.7221 17.3102 88.3809 17.7942 88.1693 18.27C88.0226 18.5998 87.975 19.0551 88.0257 19.5375C88.8305 20.2189 89.7473 20.4898 90.6078 20.5551C91.212 20.5813 91.9449 20.5825 92.7308 20.5825C93.2829 20.5826 93.7307 21.0304 93.7308 21.5825C93.7308 22.1346 93.2829 22.5823 92.7308 22.5825C91.9518 22.5825 91.164 22.5824 90.5033 22.5532H90.4896L90.4749 22.5522C89.1763 22.4568 87.6669 22.0036 86.388 20.7504L86.1644 20.5317L86.1058 20.2241C85.9467 19.39 85.9426 18.3558 86.3421 17.4575C86.6588 16.7455 87.1306 16.0895 87.5677 15.5991C87.7882 15.3516 88.0136 15.1303 88.2249 14.9555C88.3992 14.8114 88.6775 14.601 88.9896 14.5121L89.0892 14.4897Z" fill="black"/>
<path d="M86.1606 24.5898C86.6445 24.4391 87.1732 24.6763 87.3765 25.1523C87.5843 25.6395 87.3751 26.1983 86.9097 26.4346C86.9232 26.4266 86.8906 26.4452 86.813 26.5264C86.7169 26.6269 86.5911 26.7815 86.4517 26.9902C86.1734 27.4069 85.8718 27.9936 85.6519 28.6982C85.5137 29.141 85.6016 29.5345 85.8208 29.8994C87.6188 31.0256 89.575 31.131 91.2886 30.8848L91.2974 30.8838C91.7904 30.817 92.296 30.8184 92.731 30.8184C93.283 30.8186 93.7308 31.2663 93.731 31.8184C93.731 32.3705 93.283 32.8181 92.731 32.8184C92.2682 32.8184 91.9014 32.8198 91.5659 32.8652C89.5184 33.1583 86.943 33.053 84.5513 31.4639L84.397 31.3613L84.2896 31.2109C83.7603 30.4672 83.3438 29.3805 83.7427 28.1025C84.0213 27.2101 84.4074 26.4507 84.7886 25.8799C84.9789 25.595 85.1759 25.3451 85.3677 25.1445C85.5367 24.9678 85.7772 24.7474 86.064 24.625L86.1606 24.5898Z" fill="black"/>
<path d="M84.9708 34.4507C85.5231 34.4507 85.9708 34.8984 85.9708 35.4507C85.9708 35.9613 85.5881 36.3813 85.0938 36.4419C85.0754 36.4479 85.0413 36.46 84.9903 36.4819C84.8555 36.5399 84.6315 36.6533 84.3116 36.8618C83.6284 37.307 83.4198 38.0382 83.3497 38.5962C83.3093 38.9175 83.3388 39.3886 83.4718 39.7104C83.5804 39.9735 83.8281 40.2137 84.0889 40.3755C84.3727 40.5514 84.8298 40.6846 85.4786 40.7319C86.1146 40.7783 86.8577 40.7364 87.6485 40.6294C89.2229 40.4163 90.8768 39.9584 92.044 39.5503C92.4562 39.3705 92.7978 39.2308 93.1397 39.1538C93.5109 39.0702 93.8328 39.0737 94.0509 39.0737C94.6031 39.0737 95.0509 39.5214 95.0509 40.0737C95.0507 40.6259 94.603 41.0737 94.0509 41.0737C93.8201 41.0737 93.7062 41.0764 93.5792 41.105C93.4369 41.137 93.2481 41.207 92.794 41.4058L92.7598 41.4204L92.7237 41.4331C91.4626 41.8753 89.6646 42.3752 87.9161 42.6118C87.0419 42.7301 86.152 42.7868 85.3331 42.7271C84.5269 42.6682 83.7061 42.4906 83.0352 42.0747C82.5747 41.7891 81.9503 41.266 81.6231 40.4741C81.3203 39.741 81.296 38.8991 81.3653 38.3472C81.4603 37.591 81.7918 36.1177 83.2198 35.187C83.613 34.9308 83.9381 34.7577 84.2003 34.645C84.4208 34.5502 84.7014 34.4507 84.9708 34.4507Z" fill="black"/>
<path d="M143.987 29.5823C144.732 29.6649 146.417 29.9703 148.269 30.8792L148.641 31.0696L148.774 31.139L148.88 31.2444C149.93 32.2909 150.703 33.4201 150.971 34.4769L151.018 34.6878L151.02 34.6956C151.103 35.1486 151.155 35.4233 151.346 35.7142C151.65 36.1757 151.522 36.7957 151.06 37.0989C150.599 37.4021 149.979 37.2734 149.676 36.8118C149.235 36.1404 149.13 35.481 149.053 35.0618L148.998 34.845C148.831 34.3276 148.382 33.5999 147.567 32.7659C145.903 31.9131 144.367 31.6371 143.766 31.5706C143.218 31.5097 142.822 31.015 142.883 30.4661C142.943 29.9173 143.438 29.5216 143.987 29.5823Z" fill="black"/>
<path d="M63.0099 88.7132C63.3551 88.2822 63.9841 88.2128 64.4152 88.5579C64.7179 88.8002 65.3028 89.1524 66.0157 89.4593C66.7278 89.7658 67.4844 89.9899 68.1251 90.0384C69.7108 90.1584 70.9797 90.3824 73.0528 90.3909C73.4078 90.3302 73.6526 90.2275 73.8409 90.1106C74.0482 89.982 74.2074 89.8272 74.4562 89.5784C74.8466 89.1882 75.4797 89.1883 75.8702 89.5784C76.2608 89.9689 76.2608 90.6029 75.8702 90.9935C75.6357 91.228 75.3256 91.5429 74.8956 91.8099C74.4574 92.0819 73.9367 92.2835 73.2902 92.3812L73.2159 92.3929H73.1398C70.9233 92.3904 69.3892 92.1406 67.9737 92.0335C67.033 91.9623 66.0516 91.6516 65.2257 91.2962C64.4008 90.9412 63.6467 90.504 63.1652 90.1185C62.7342 89.7733 62.6648 89.1443 63.0099 88.7132Z" fill="black"/>
<path d="M148.615 44.5038C149.168 44.5038 149.615 44.9516 149.615 45.5038C149.615 45.6736 149.579 45.8326 149.554 45.9296C149.524 46.0458 149.483 46.1739 149.436 46.3085C149.34 46.5791 149.201 46.9212 149.017 47.33L149.001 47.3661L148.982 47.4003C148.528 48.2267 147.999 49.0347 147.354 49.6816L147.304 49.7304L147.249 49.7724C146.806 50.1077 146.281 50.3101 145.906 50.4599C145.394 50.6649 144.812 50.416 144.607 49.9033C144.402 49.3905 144.651 48.8086 145.164 48.6035C145.561 48.4449 145.808 48.3364 145.993 48.2089C146.42 47.7652 146.82 47.1762 147.207 46.4745C147.369 46.1127 147.481 45.8366 147.55 45.6415C147.586 45.5404 147.607 45.4714 147.617 45.4306C147.618 45.4282 147.618 45.4258 147.618 45.4238C147.659 44.909 148.09 44.5039 148.615 44.5038Z" fill="black"/>
<path d="M60.4733 77.4389C61.0254 77.439 61.4733 77.8867 61.4733 78.4389C61.4733 78.7686 61.3122 79.0594 61.0661 79.2416C61.0687 79.2478 61.0705 79.2538 61.0729 79.2582C61.0785 79.2685 61.1078 79.3191 61.2692 79.4496C61.4551 79.5998 61.6548 79.7339 62.0202 80.0072C62.4623 80.3381 62.5522 80.9654 62.2214 81.4076C61.8905 81.8496 61.2641 81.9395 60.8219 81.6088C60.5476 81.4035 60.2308 81.1818 60.0124 81.0053C59.7713 80.8105 59.5063 80.5636 59.3161 80.2142C59.1349 79.8815 59.059 79.5288 59.0368 79.2328C59.0153 78.9469 59.0377 78.6282 59.1335 78.349L59.1823 78.226C59.3076 77.9433 59.5249 77.6892 59.8551 77.5482C60.1456 77.4243 60.4401 77.4389 60.4733 77.4389Z" fill="black"/>
</svg>
