<svg width="119" height="194" viewBox="0 0 119 194" fill="none" xmlns="http://www.w3.org/2000/svg">
<path d="M83.9842 10.1554C85.2115 10.1376 86.415 10.1663 87.1219 10.297C87.8047 10.4232 88.5125 10.5114 89.6483 10.878C89.9587 10.9782 90.272 11.0555 90.6337 11.1446C90.9866 11.2316 91.3821 11.329 91.8016 11.463C92.68 11.7435 93.6591 12.051 94.6337 12.5167C95.0529 12.717 95.4019 12.8561 95.8251 13.0431C96.23 13.222 96.6545 13.4252 97.1014 13.7091C97.8553 14.188 98.6837 14.7095 99.3426 15.3507C100.016 16.0057 100.591 16.4567 101.211 16.9942C101.546 17.2849 101.894 17.5434 102.276 17.8419C102.631 18.1195 103.028 18.442 103.336 18.7989C103.81 19.3485 104.257 19.8682 104.796 20.4659C105.339 21.0679 105.819 21.688 106.206 22.3077C106.382 22.5897 106.555 22.8277 106.762 23.1329C106.956 23.4197 107.166 23.7453 107.34 24.1124C107.624 24.7144 108.069 25.6224 108.47 26.2999C108.868 26.9736 109.205 27.7264 109.453 28.5421C109.572 28.9336 110.036 29.8509 110.082 31.0265C110.13 32.2503 110.133 33.8309 110.1 35.1886C110.084 35.8679 110.059 36.5003 110.026 37.0099C109.996 37.4773 109.953 37.9483 109.876 38.2306C109.771 38.6148 109.7 39.0031 109.595 39.4825C109.496 39.9326 109.372 40.4385 109.174 40.92C108.964 41.4302 108.779 41.9972 108.557 42.6017C108.365 43.1277 108.114 43.7795 107.791 44.1964C107.65 44.3774 107.478 44.6966 107.18 45.2227C106.908 45.7016 106.566 46.2865 106.143 46.8282C105.843 47.2138 105.531 47.5397 105.194 47.8927C104.854 48.2493 104.462 48.6593 103.956 49.2481C103.191 50.137 101.84 51.1523 101.19 51.6671C100.648 52.0961 99.9538 52.6456 99.246 53.0665C98.7669 53.3514 98.0133 53.9269 96.5965 54.6495C95.649 55.1327 94.7385 55.4005 93.9452 55.5977C93.4882 55.7114 93.0733 55.7812 92.7284 55.8409C92.3691 55.9031 92.1042 55.9512 91.869 56.0206C91.2289 56.2094 90.1632 56.5203 89.0546 56.589C87.9154 56.6595 87.4484 56.8783 86.5477 57.0626C86.0404 57.1664 85.2513 57.2841 84.4276 57.3477C83.6203 57.4101 82.6948 57.4274 81.951 57.2921C81.0554 57.1292 80.2997 56.8795 80.0819 56.8175C79.819 56.7427 79.6102 56.5691 79.4852 56.3487C78.4472 56.285 77.5997 56.2845 76.9442 56.2481L76.9081 56.2452L76.8729 56.2413C75.8603 56.1111 75.2359 55.8324 74.6952 55.6466L74.6688 55.6378L74.6444 55.627C74.2737 55.4768 73.9349 55.2888 73.6307 55.1124C73.3102 54.9265 73.0427 54.7629 72.7352 54.5997C72.4803 54.4644 72.2363 54.3801 71.826 54.2042C71.4629 54.0485 71.018 53.8368 70.6141 53.4991C70.296 53.2331 70.0025 53.0288 69.6669 52.7823C69.3442 52.5454 68.9921 52.2763 68.66 51.9288C67.8105 51.0399 67.3141 50.4554 66.8544 49.9298C66.2952 49.2904 65.7788 48.6099 65.3475 47.9874C64.666 47.0038 63.8486 45.7707 63.4686 45.045C63.23 44.5893 63.0639 44.1493 62.9296 43.8038C62.7864 43.4356 62.684 43.1911 62.5604 42.9933C62.3437 42.6462 62.1179 42.2376 61.953 41.6534C61.792 41.0832 61.7012 40.389 61.6913 39.4649C61.6538 35.985 61.7228 33.5524 61.7508 33.1622C61.8051 32.41 61.819 31.6346 62.0292 30.4659C62.1575 29.7527 62.257 29.0231 62.3446 28.3731C62.3974 27.9817 62.4039 27.6018 62.4491 27.0597C62.4876 26.5984 62.5567 26.0029 62.785 25.5011C62.8899 25.2705 62.9455 25.0425 63.0555 24.6739C63.1517 24.3519 63.2953 23.9055 63.5907 23.5059C63.8746 23.122 64.0921 22.6494 64.3944 21.7696C64.5996 21.1726 64.8322 20.3906 65.2089 19.7286C65.5923 19.0548 66.1818 18.3296 66.9989 17.8106C67.2161 17.6727 67.4312 17.4968 67.7128 17.254C67.9835 17.0205 68.317 16.7246 68.7137 16.4122C69.0115 16.1777 69.2826 15.9482 69.5673 15.71C69.8472 15.4759 70.1388 15.2338 70.453 14.9981C71.0809 14.5272 71.8228 14.0185 72.4471 13.6036C73.1422 13.1417 74.1272 12.6673 75.0985 12.1954C75.6361 11.9342 76.5902 11.3258 77.9374 10.9259C78.4976 10.7595 79.3737 10.4121 80.2167 10.3399C81.341 10.2437 82.726 10.1736 83.9842 10.1554ZM84.0135 12.1554C82.8012 12.1729 81.4633 12.24 80.3876 12.3321C79.8151 12.3811 79.3446 12.5939 78.5057 12.8429C77.3667 13.181 76.7591 13.6121 75.9725 13.9942C74.9505 14.4908 74.111 14.8999 73.5546 15.2696C72.9436 15.6757 72.2371 16.1608 71.6532 16.5987C71.3853 16.7996 71.129 17.0112 70.8505 17.2442C70.5764 17.4735 70.2779 17.7261 69.951 17.9835C69.6002 18.2597 69.3182 18.511 69.0194 18.7686C68.7313 19.0171 68.4213 19.2768 68.0712 19.4991C67.5913 19.804 67.2092 20.2573 66.9471 20.7179C66.6901 21.1695 66.5358 21.6929 66.286 22.42C65.9688 23.3432 65.672 24.0558 65.1991 24.6954C65.128 24.7916 65.0636 24.9412 64.9725 25.2462C64.8954 25.5045 64.7844 25.9355 64.6053 26.3292C64.535 26.4837 64.4807 26.7658 64.4423 27.2267C64.4106 27.6066 64.3861 28.1939 64.326 28.6397C64.2391 29.2848 64.1351 30.0566 63.9979 30.8194C63.8121 31.8523 63.8063 32.4695 63.746 33.3058C63.7243 33.6057 63.6539 35.9672 63.6913 39.4434C63.7 40.2533 63.7792 40.761 63.8778 41.1104C63.9725 41.4457 64.0961 41.6749 64.2577 41.9337C64.4955 42.3146 64.6578 42.732 64.7928 43.0792C64.9367 43.449 65.0629 43.7789 65.2401 44.1173C65.5541 44.7169 66.302 45.8527 66.9921 46.8487C67.3891 47.4218 67.8587 48.041 68.3592 48.6134C68.8274 49.1486 69.2935 49.6964 70.1063 50.547C70.3121 50.7623 70.5464 50.9477 70.8505 51.171C71.1414 51.3847 71.5157 51.6458 71.8973 51.9649C72.0723 52.1112 72.2994 52.2313 72.6141 52.3663C72.8816 52.481 73.3228 52.6468 73.6737 52.8331C74.0251 53.0197 74.3627 53.2258 74.6337 53.3829C74.918 53.5478 75.1557 53.6755 75.3885 53.7706C76.0229 53.9907 76.3815 54.1567 77.0975 54.252C77.7151 54.2834 79.0106 54.2937 80.326 54.4044C80.725 54.4381 81.0481 54.7026 81.1786 55.0548C81.4851 55.1427 81.8692 55.2444 82.3085 55.3243C82.7933 55.4125 83.5125 55.4125 84.2743 55.3536C85.0195 55.296 85.725 55.1888 86.1464 55.1026C86.7405 54.981 87.6144 54.6744 88.9315 54.5929C89.7879 54.5398 90.6546 54.294 91.3036 54.1026C91.6674 53.9954 92.0452 53.9293 92.3866 53.8702C92.7423 53.8086 93.087 53.7498 93.4628 53.6563C94.1929 53.4748 94.9363 53.2508 95.6883 52.8673C97.0648 52.1653 97.4917 51.7824 98.2245 51.3468C98.7988 51.0053 99.3904 50.541 99.9491 50.0987C100.703 49.5018 101.836 48.6464 102.44 47.9444C102.982 47.3144 103.404 46.8729 103.747 46.5128C104.094 46.1489 104.337 45.8924 104.566 45.5977C104.892 45.1799 105.174 44.7054 105.439 44.2374C105.678 43.8169 105.954 43.3005 106.211 42.9698C106.308 42.8444 106.462 42.5072 106.679 41.9142C106.867 41.3988 107.095 40.715 107.324 40.1593C107.452 39.8475 107.546 39.4838 107.64 39.0548C107.728 38.655 107.824 38.1537 107.946 37.7052C107.947 37.7013 107.951 37.6831 107.957 37.6466C107.964 37.6018 107.973 37.5418 107.981 37.4659C107.998 37.3137 108.015 37.1166 108.03 36.88C108.061 36.4071 108.085 35.8041 108.1 35.1407C108.132 33.813 108.129 32.276 108.083 31.1046C108.05 30.2648 107.801 29.9819 107.54 29.1241C107.339 28.4627 107.066 27.8565 106.748 27.3184C106.296 26.5554 105.819 25.5757 105.531 24.9659C105.426 24.7428 105.286 24.5208 105.106 24.2559C104.939 24.0092 104.712 23.6912 104.51 23.3673C104.196 22.8654 103.792 22.3383 103.311 21.8058C102.755 21.1891 102.293 20.6531 101.821 20.1056C101.655 19.9134 101.401 19.6976 101.044 19.4181C100.713 19.1594 100.287 18.8409 99.9003 18.5059C99.358 18.0357 98.6753 17.492 97.9481 16.7843C97.4659 16.3149 96.8275 15.9047 96.0292 15.3975C95.704 15.191 95.3823 15.0348 95.0165 14.8731C94.6688 14.7195 94.2221 14.5368 93.7714 14.3214C92.9414 13.9248 92.0952 13.6563 91.1932 13.3683C90.8468 13.2576 90.5137 13.1754 90.1551 13.087C89.8054 13.0008 89.4231 12.9069 89.034 12.7813C88.0544 12.4652 87.512 12.403 86.7587 12.2638C86.2727 12.1739 85.2568 12.1373 84.0135 12.1554Z" fill="black"/>
<path d="M89.6586 9.91229C89.709 9.91946 89.7952 9.93532 89.8266 9.94061C89.8773 9.94918 89.9395 9.95843 90.018 9.96795C90.1753 9.98703 90.4171 10.0081 90.7787 10.0129C91.617 10.024 92.9209 10.0011 93.6498 10.0773C95.1173 10.2307 95.602 10.3973 95.9437 10.4582C96.2286 10.5089 96.5357 10.581 96.7924 10.6389C97.0669 10.7007 97.2894 10.7471 97.4691 10.7707C98.4568 10.9001 99.801 11.2619 100.162 11.3517C100.583 11.4567 100.978 11.5091 101.375 11.5471C101.693 11.5775 101.996 11.6771 102.24 11.7482C102.515 11.8285 102.892 11.9334 103.497 12.051C104.083 12.1646 104.565 12.2644 105.185 12.3937C105.569 12.4739 105.902 12.5829 106.169 12.6769C106.468 12.782 106.616 12.8406 106.754 12.8781C107.11 12.9746 107.482 13.0826 107.897 13.2014L107.927 13.2101L107.955 13.2209C108.275 13.3342 108.523 13.4269 108.711 13.4982C108.912 13.5741 109.013 13.6125 109.078 13.634L109.144 13.6564L109.205 13.6867C109.456 13.8106 109.626 13.9905 109.671 14.0363C110.062 14.4267 110.062 15.0598 109.671 15.4504C109.288 15.8341 108.671 15.8402 108.279 15.4699C108.195 15.4388 108.1 15.405 108.003 15.3683C107.826 15.3012 107.6 15.2165 107.31 15.1135C106.901 14.9962 106.558 14.897 106.23 14.8078C105.998 14.7448 105.71 14.6352 105.506 14.5637C105.271 14.4811 105.033 14.4055 104.776 14.3517C104.156 14.2225 103.687 14.1245 103.117 14.0139C102.435 13.8815 101.997 13.7606 101.68 13.6681C101.332 13.5666 101.264 13.5458 101.185 13.5383C100.74 13.4958 100.235 13.4319 99.6781 13.2931C99.2387 13.1837 98.051 12.8644 97.2094 12.7541C96.9264 12.717 96.619 12.6493 96.3519 12.589C96.0674 12.5249 95.8206 12.4675 95.5932 12.4269C95.0353 12.3276 94.8287 12.2116 93.4418 12.0666C92.8329 12.0029 91.733 12.0259 90.7514 12.0129C90.3247 12.0072 90.0119 11.9827 89.7777 11.9543C89.6607 11.9401 89.5673 11.9246 89.4945 11.9123C89.4605 11.9065 89.427 11.901 89.4076 11.8976C89.3972 11.8958 89.3898 11.8947 89.3842 11.8937C89.3805 11.8931 89.3782 11.8929 89.3773 11.8928C88.8306 11.815 88.4501 11.3086 88.5277 10.7619C88.6055 10.2152 89.1119 9.83465 89.6586 9.91229Z" fill="black"/>
<path d="M98.4213 14.0536C98.5117 14.0664 98.6097 14.0907 98.6586 14.1024C98.7258 14.1185 98.7892 14.1334 98.8657 14.1503C99.0136 14.1828 99.198 14.2176 99.4204 14.2382C100.057 14.2969 101.295 14.3697 101.736 14.4344C102.355 14.5255 103.317 14.7374 103.606 14.7889C103.939 14.8483 104.399 14.9511 105.614 15.1805C105.882 15.2312 106.323 15.372 106.811 15.5301C107.336 15.7001 107.998 15.9189 108.791 16.1669C109.822 16.489 110.374 16.6811 110.855 16.951C110.861 16.9535 110.871 16.9566 110.884 16.9618C110.902 16.9687 110.935 16.9823 110.978 17.0009L111.126 17.0741L111.258 17.1581C111.273 17.1683 111.286 17.1779 111.295 17.1844C111.306 17.1919 111.312 17.1958 111.318 17.2001C111.328 17.2072 111.332 17.2099 111.333 17.2108L111.335 17.2118C111.828 17.4607 112.027 18.0626 111.778 18.5555C111.529 19.0485 110.927 19.2467 110.434 18.9979C110.312 18.9365 110.222 18.8753 110.163 18.8329C110.157 18.8289 110.151 18.8248 110.146 18.8212C110.13 18.8149 110.106 18.8055 110.082 18.7958C110.048 18.7814 110.003 18.7621 109.954 18.7372L109.928 18.7245L109.903 18.7098C109.632 18.5535 109.29 18.4173 108.195 18.0751C107.389 17.8231 106.708 17.5986 106.195 17.4325C105.646 17.2547 105.354 17.1665 105.243 17.1454C103.921 16.8958 103.608 16.8206 103.255 16.7577C102.762 16.6698 102.07 16.5049 101.445 16.413C101.061 16.3565 100.054 16.3047 99.2368 16.2294C98.9095 16.1992 98.6397 16.1492 98.436 16.1044C98.337 16.0826 98.2502 16.0612 98.1938 16.0477C98.1191 16.0299 98.1193 16.0311 98.1401 16.0341C97.5934 15.9563 97.2128 15.4499 97.2905 14.9032C97.3682 14.3565 97.8746 13.9759 98.4213 14.0536Z" fill="black"/>
<path d="M104.883 19.9857C105.353 19.9857 105.932 20.0288 106.528 20.057C107.131 20.0855 107.523 20.1653 108.401 20.3197C109.586 20.5279 110.459 20.8748 110.828 20.9896C112.109 21.3885 112.767 21.6273 113.202 21.7992L113.626 21.972L113.672 21.9974C114.211 22.2902 114.672 22.5594 114.895 22.7084C114.917 22.7216 114.932 22.7302 115.009 22.7748C115.078 22.8147 115.171 22.8691 115.31 22.9545C115.78 23.2437 115.927 23.8599 115.638 24.3304C115.348 24.8007 114.733 24.9475 114.263 24.6586C114.14 24.5831 114.061 24.5369 114.005 24.5043C113.957 24.4764 113.892 24.4397 113.833 24.4027L113.815 24.392L113.798 24.3793C113.689 24.3044 113.308 24.0774 112.762 23.7796C112.382 23.622 111.818 23.3933 110.233 22.8998C109.708 22.7361 109.072 22.4681 108.056 22.2894C107.121 22.1251 106.878 22.0751 106.434 22.0541C105.75 22.0217 105.291 21.9857 104.883 21.9857C104.33 21.9857 103.883 21.538 103.883 20.9857C103.883 20.4334 104.33 19.9857 104.883 19.9857Z" fill="black"/>
<path d="M83.6499 15.2771C83.8339 14.7564 84.4046 14.4837 84.9253 14.6677C85.0053 14.696 85.1457 14.7346 85.4057 14.8064C85.6481 14.8733 85.9585 14.9598 86.3257 15.072C86.8693 15.2381 87.4237 15.5244 87.8091 15.7614C88.1589 15.9767 88.4997 16.2732 88.6401 16.3796C88.9232 16.5943 89.0968 16.8723 89.2007 17.0583C89.2906 17.2194 89.4148 17.4828 89.4604 17.572C89.658 17.9581 89.7608 18.4203 89.7944 18.531L89.8061 18.5681L89.8139 18.6052C89.8161 18.6148 89.8182 18.6251 89.8198 18.6325C89.8202 18.6346 89.8204 18.6365 89.8208 18.6384C89.8332 18.6547 89.8499 18.6761 89.8725 18.7038C90.2217 19.1316 90.1586 19.7618 89.7309 20.111C89.3031 20.4602 88.673 20.3962 88.3237 19.9685C88.1747 19.7859 88.0528 19.6188 87.9663 19.4011C87.9123 19.2652 87.8811 19.1303 87.8676 19.0681C87.8498 19.0069 87.8341 18.9474 87.8208 18.8981C87.8029 18.8322 87.7886 18.7789 87.7729 18.7263C87.7425 18.6243 87.7138 18.5488 87.6801 18.4831C87.6333 18.3915 87.5862 18.2937 87.5512 18.2224C87.5128 18.1437 87.4825 18.084 87.4546 18.0339C87.4267 17.984 87.4087 17.9584 87.4018 17.9489C87.0908 17.7111 87.0019 17.6126 86.7612 17.4646C86.4634 17.2814 86.0687 17.0841 85.7417 16.9841C85.4024 16.8804 85.1141 16.8005 84.8735 16.7341C84.6505 16.6725 84.4231 16.6104 84.2592 16.5524C83.7386 16.3684 83.4659 15.7978 83.6499 15.2771Z" fill="black"/>
<path d="M74.1327 17.8962H74.1346C74.1327 17.8967 74.1264 17.8985 74.1151 17.902C74.0834 17.912 74.0352 17.9289 73.9764 17.9538C73.8537 18.0056 73.7341 18.0693 73.6561 18.1218C73.6726 18.1106 73.6397 18.131 73.5536 18.2428C73.5156 18.2922 73.4754 18.3481 73.4295 18.4137C73.3893 18.4714 73.3312 18.5552 73.2831 18.6227C73.288 18.6158 73.2781 18.6292 73.2547 18.6794C73.2319 18.7284 73.2066 18.7916 73.1727 18.8796C73.1124 19.0357 73.0181 19.2952 72.9042 19.5368C72.8396 19.6737 72.7793 19.7977 72.7342 19.8913C72.6865 19.9905 72.6546 20.0591 72.6307 20.1159C72.5891 20.2151 72.5863 20.245 72.5848 20.2673L72.5829 20.2956L72.5799 20.3249C72.5481 20.5814 72.5336 20.6103 72.5135 20.8122C72.5089 20.9437 72.5099 21.1621 72.5428 21.4186C72.613 21.9663 72.2263 22.4675 71.6786 22.5378C71.1308 22.608 70.6297 22.2203 70.5594 21.6725C70.5074 21.2669 70.5072 20.9229 70.5165 20.7067L70.5174 20.6813L70.5194 20.6559C70.5409 20.4275 70.5851 20.154 70.5946 20.0778H70.5965C70.6487 19.5262 70.9139 19.0697 71.0956 18.6843C71.169 18.5284 71.2227 18.3761 71.3065 18.1589C71.3743 17.9832 71.484 17.7015 71.6542 17.4626C71.7144 17.378 71.8508 17.1752 71.9686 17.0221C72.0912 16.863 72.2825 16.6352 72.5389 16.4626C72.7518 16.3193 72.9931 16.1986 73.1981 16.112C73.3675 16.0404 73.64 15.9361 73.8876 15.9137C74.4375 15.8641 74.9238 16.27 74.9735 16.82C75.0211 17.3479 74.649 17.8154 74.1327 17.8962Z" fill="black"/>
<path d="M74.275 21.2055C74.4497 21.1439 74.7177 21.0928 75.0113 21.1938L75.15 21.2524L75.2506 21.3003C75.3118 21.3311 75.3922 21.3749 75.4693 21.4214C75.6396 21.5241 75.8449 21.6708 76.0465 21.8823C76.2257 22.0704 76.4164 22.2908 76.567 22.5698C76.7239 22.8604 76.8102 23.1626 76.8541 23.4956C76.9015 23.8546 76.9149 24.5884 76.8815 25.145C76.8604 25.4952 76.8313 25.9978 76.7789 26.436C76.753 26.653 76.7179 26.8861 76.6666 27.0913C76.6411 27.1932 76.606 27.3148 76.5533 27.435C76.5098 27.5344 76.409 27.7404 76.2047 27.9106C76.0524 28.0375 75.6236 28.3768 75.0445 28.3345C74.9769 28.3295 74.8966 28.3292 74.7311 28.3247C74.5877 28.3208 74.4035 28.3129 74.2115 28.2905C73.8865 28.2526 73.2659 28.1468 72.8336 27.6626C72.6635 27.4719 72.4885 27.2302 72.3883 26.938C72.2889 26.6479 72.108 26.1351 72.1178 25.4321C72.1398 23.8432 72.2573 23.0927 72.5875 22.5278C72.7538 22.2434 73.07 21.744 73.5631 21.3862C73.777 21.231 74.032 21.175 74.275 21.2055Z" fill="black"/>
<path d="M82.9921 20.2857C83.136 20.286 83.2734 20.3183 83.3984 20.3746C83.4205 20.3705 83.4429 20.367 83.4658 20.3639C83.5678 20.3357 83.6803 20.3172 83.8027 20.317C83.9403 20.3168 84.0684 20.3401 84.1865 20.3785C84.3025 20.3951 84.4041 20.4139 84.4853 20.4312C84.5263 20.44 84.5666 20.4451 84.665 20.4605C84.7449 20.4731 84.8744 20.4944 85.0077 20.5318C85.2618 20.6032 85.6998 20.7847 85.9384 21.2701L85.9833 21.3717L86.0409 21.5553C86.0543 21.6107 86.0625 21.6572 86.0673 21.6852C86.0811 21.7646 86.0927 21.8525 86.1025 21.941C86.1222 22.1196 86.1381 22.3365 86.1484 22.565C86.1683 23.0102 86.1699 23.5703 86.1113 24.0221C86.0802 24.2613 86.0131 24.4706 85.9706 24.6041C85.9214 24.7587 85.8989 24.8304 85.8847 24.9049C85.851 25.0816 85.8359 25.9615 85.0468 26.7076C84.7948 26.9459 84.275 27.4898 83.3974 27.731C82.9923 27.8424 82.2589 27.9305 81.581 27.7213C81.4022 27.6661 81.1453 27.5708 80.8954 27.4049C80.6447 27.2384 80.3425 26.9614 80.1855 26.5299C80.0521 26.163 79.9986 25.759 79.9863 25.4146C79.974 25.0718 79.9998 24.7025 80.0781 24.3951C80.1005 24.3067 80.1125 24.2129 80.1386 24.026C80.1616 23.8615 80.1954 23.6274 80.2714 23.3805C80.3066 23.266 80.3334 23.1629 80.3691 23.026C80.4023 22.8987 80.4444 22.7394 80.5048 22.5738C80.6683 22.1261 80.9372 21.6774 81.331 21.2838C81.6356 20.9794 81.8861 20.7583 82.1054 20.606C82.3285 20.4512 82.5855 20.3209 82.8906 20.2906L82.9921 20.2857Z" fill="black"/>
<path d="M76.0493 29.0314C76.3895 28.5966 77.0176 28.5196 77.4527 28.8595C77.8878 29.1996 77.9646 29.8286 77.6245 30.2638C77.4803 30.4483 77.3682 30.5443 77.3042 30.5988L77.3052 30.5997C77.2835 30.6198 77.2568 30.6471 77.1919 30.714C77.1333 30.7745 77.0559 30.8539 76.9605 30.9445L76.8794 31.0216L76.7837 31.0783C76.7032 31.1262 76.3106 31.4224 75.812 31.5665C75.29 31.7175 74.6466 31.7386 73.7437 31.6212C73.229 31.5543 72.4874 31.4575 71.9585 31.2111C71.706 31.0934 71.4775 30.9301 71.3062 30.7853C71.1541 30.6568 70.9527 30.4634 70.8238 30.2482C70.5398 29.7745 70.6938 29.1601 71.1675 28.8761C71.6248 28.6024 72.2119 28.7372 72.5073 29.173C72.5088 29.1746 72.5114 29.1769 72.5142 29.1798C72.5311 29.1978 72.5595 29.2251 72.5972 29.257C72.6347 29.2886 72.6751 29.3196 72.7144 29.3458C72.7545 29.3727 72.7851 29.3891 72.8032 29.3976C72.994 29.4865 73.3933 29.5588 74.0015 29.6378C74.7775 29.7387 75.1102 29.6878 75.2564 29.6456C75.4049 29.6027 75.4002 29.5857 75.6431 29.4347C75.6821 29.3962 75.7193 29.3597 75.7564 29.3214C75.8055 29.2708 75.877 29.1963 75.9488 29.13L75.9615 29.1183L75.9751 29.1066C75.9851 29.098 75.9954 29.0894 76.0005 29.0851C76.0068 29.0798 76.0097 29.0765 76.0122 29.0744C76.0158 29.0712 76.0161 29.0715 76.0152 29.0724C76.0177 29.0698 76.0287 29.0578 76.0493 29.0314Z" fill="black"/>
<path d="M80.5707 29.0774C80.5694 29.0765 80.5793 29.0828 80.6049 29.0959C80.6482 29.1181 80.7135 29.1466 80.8041 29.1828C80.9867 29.2558 81.2202 29.3357 81.4945 29.426C81.6802 29.4871 81.7812 29.4668 82.0814 29.4787H82.1332C82.1647 29.4785 82.2064 29.4785 82.2582 29.4768C82.3616 29.4734 82.4996 29.4664 82.6713 29.4553C83.0084 29.4335 83.4682 29.3937 84.0394 29.3293C84.9977 29.1592 85.5278 29.0091 85.7875 28.8938C85.918 28.8186 86.0669 28.7141 86.4037 28.4797C86.857 28.1643 87.4808 28.2764 87.7963 28.7297C88.1117 29.183 87.9996 29.8068 87.5463 30.1223C87.236 30.3382 86.9801 30.5213 86.7269 30.6614L86.6986 30.677L86.6693 30.6907C86.1564 30.9322 85.3824 31.1245 84.3598 31.3049L84.3295 31.3108L84.2992 31.3137C83.0886 31.4512 82.279 31.4878 82.0023 31.4768C81.9427 31.4744 81.4035 31.502 80.8695 31.3264C80.5934 31.2356 80.3076 31.1384 80.0619 31.0403C79.8512 30.9561 79.5414 30.8232 79.3099 30.6272C78.8886 30.2702 78.8367 29.6394 79.1937 29.218C79.5421 28.8069 80.1499 28.7484 80.5707 29.0774Z" fill="black"/>
<path d="M77.2362 32.6261C78.6044 32.5144 79.7823 32.675 80.2704 32.7823C81.0203 32.9471 82.1658 33.1092 83.6044 33.297C83.9205 33.3382 84.4227 33.3594 85.0751 33.3848C85.7022 33.4094 86.4336 33.4371 87.1327 33.4981C87.8033 33.5566 88.3978 33.7354 88.7001 33.8038C89.306 33.9409 89.8391 34.1916 91.1893 35.1446C91.5594 35.4058 91.8575 35.7229 92.0966 35.9845C92.3549 36.2671 92.5462 36.4862 92.7733 36.6895C93.3742 37.2275 94.1086 38.0866 94.5887 39.044C94.9323 39.7293 95.0739 40.3808 95.1327 40.9493C95.2042 41.6411 95.1006 42.5328 95.0253 42.961C94.9466 43.4077 94.7147 43.7604 94.5438 44.0089C94.3475 44.2943 94.1651 44.5303 93.9325 44.9083C93.3225 45.8994 92.3775 46.648 91.7069 47.1983C91.379 47.4674 91.0439 47.6398 90.7489 47.7725C90.6053 47.8372 90.4569 47.8984 90.3309 47.9513C90.199 48.0066 90.0798 48.0569 89.9628 48.1124C89.415 48.3722 88.9144 48.5606 88.5165 48.6983C88.064 48.8549 87.8702 48.9086 87.7411 48.961C86.3339 49.5323 84.3089 49.7857 83.9784 49.8302C83.2519 49.928 82.411 50.0202 81.8456 50.0704C80.7043 50.1717 79.6078 50.1424 78.2196 49.9366C77.88 49.8863 77.5856 49.8515 77.2665 49.8077C76.9761 49.7678 76.6609 49.7204 76.3944 49.6475C75.9974 49.539 75.5829 49.3829 75.2997 49.2911C75.192 49.2562 75.0072 49.2219 74.6239 49.1475C74.2772 49.0803 73.8375 48.9911 73.3417 48.8526C72.3064 48.5634 71.5109 48.2794 70.6942 47.9571C69.7869 47.5991 69.325 46.9082 69.1464 46.7247C68.6737 46.2395 68.2262 45.5365 67.9462 44.9991C67.5824 44.3008 67.4786 43.7115 67.4227 43.3585C67.3676 43.0101 67.2904 42.4775 67.2284 41.7608C67.1843 41.2516 67.0874 40.8052 67.0868 39.8429C67.0862 38.9617 67.5762 38.3642 68.0048 37.7374C68.3468 37.2372 68.7869 36.8764 69.3329 36.3653C69.7388 35.9853 69.9398 35.8162 70.2821 35.4845C70.8029 34.9797 71.3476 34.6834 71.8309 34.4893C72.0628 34.3963 72.353 34.2694 72.6366 34.1554C72.6719 34.0344 72.7311 33.9182 72.8143 33.8136C72.9814 33.6034 73.189 33.5004 73.2821 33.4571C73.3942 33.405 73.5147 33.3638 73.621 33.3302C73.8335 33.2629 74.1436 33.1791 74.5331 33.0714C75.5845 32.7806 76.3688 32.6969 77.2362 32.6261ZM79.8407 34.7354C79.5256 34.6662 78.5486 34.5254 77.3993 34.6192C76.8392 34.665 76.3624 34.7133 75.8368 34.8165C75.731 35.1264 75.4768 35.379 75.1356 35.4649C75.0855 35.4775 75.044 35.49 74.9911 35.5069C74.9417 35.5227 74.8598 35.5498 74.7704 35.5753L74.7391 35.5831C74.6273 35.611 74.5044 35.6539 74.2997 35.7208C74.1392 35.7733 73.9384 35.8334 73.7225 35.8829C73.4043 35.9872 73.0944 36.1368 72.5761 36.3448C72.2724 36.4667 71.966 36.6367 71.6737 36.92C71.3296 37.2535 71.0281 37.5173 70.6991 37.8253C70.0116 38.4688 69.8346 38.6039 69.6552 38.8663C69.3763 39.2742 69.2386 39.4678 69.1503 39.6339C69.09 39.7472 69.0868 39.7861 69.0868 39.8409C69.0873 40.6978 69.1582 40.8669 69.2206 41.588C69.2774 42.2444 69.3481 42.7284 69.3983 43.046C69.4419 43.3211 69.5039 43.6602 69.7196 44.0743C69.9508 44.5181 70.2932 45.0358 70.579 45.3292C71.0873 45.8511 71.0511 45.9478 71.4286 46.0968C72.1964 46.3997 72.9252 46.6591 73.8798 46.9259C74.2962 47.0422 74.6723 47.1192 75.0048 47.1837C75.3006 47.241 75.6589 47.3042 75.9169 47.3878C76.3596 47.5313 76.5692 47.6215 76.9218 47.7179C77.0478 47.7523 77.2441 47.7859 77.538 47.8263C77.8035 47.8627 78.1671 47.9069 78.5126 47.9581C79.7587 48.1429 80.6974 48.1644 81.6688 48.0782C82.2034 48.0308 83.0137 47.9416 83.7108 47.8477C84.1066 47.7945 85.8619 47.5652 86.9891 47.1075C87.173 47.0329 87.5602 46.9132 87.8622 46.8087C88.2188 46.6853 88.6467 46.5238 89.1063 46.3057C89.267 46.2296 89.4214 46.1636 89.5575 46.1065C89.6995 46.047 89.8142 45.9994 89.9276 45.9483C90.1468 45.8497 90.3028 45.7618 90.4374 45.6515C91.1768 45.0447 91.8291 44.5107 92.2294 43.8604C92.4967 43.4261 92.756 43.0776 92.8954 42.8751C93.0588 42.6375 93.0588 42.5968 93.0555 42.6143C93.1184 42.2569 93.187 41.5768 93.1434 41.1554C93.1028 40.7627 93.0111 40.3583 92.8016 39.9405C92.4553 39.2497 91.8917 38.5848 91.4393 38.1798C91.1163 37.8906 90.8347 37.5669 90.621 37.3331C90.3878 37.078 90.2141 36.9041 90.036 36.7784C88.7275 35.8549 88.462 35.8 88.2587 35.754C87.7757 35.6447 87.4493 35.5331 86.9589 35.4903C86.3161 35.4342 85.6338 35.4078 84.9969 35.3829C84.3859 35.359 83.7739 35.3362 83.3456 35.2804C81.927 35.0952 80.6911 34.9223 79.8407 34.7354Z" fill="black"/>
<path d="M78.4466 54.3993C78.9069 54.0941 79.5271 54.2194 79.8324 54.6796C80.1375 55.1396 80.012 55.7599 79.5521 56.0653C79.5623 56.0586 79.5043 56.1 79.39 56.243C79.2848 56.3746 79.1622 56.5536 79.0355 56.7713C78.7809 57.2091 78.539 57.7524 78.391 58.2919C78.2007 58.9855 78.0842 59.7753 77.9574 60.6512C77.8343 61.5012 77.7015 62.4327 77.475 63.3036C77.2726 64.0815 76.9916 65.0539 76.6742 66.1551C76.3551 67.2622 75.9961 68.5128 75.6322 69.868C75.1648 71.6085 75.015 73.0351 74.6879 74.7137C74.5274 75.5373 74.3976 76.4744 74.2552 77.454C74.1153 78.4168 73.963 79.4176 73.7601 80.3055C73.5829 81.0811 73.4731 81.9831 73.3519 83.0292C73.2328 84.0575 73.1049 85.2066 72.888 86.3993C72.5094 88.4813 72.4896 90.7852 72.3607 92.1483C72.2077 93.766 72.0178 95.7412 71.9027 97.5253C71.7926 99.2321 71.3903 101.463 71.2054 102.78C70.9338 104.715 70.8745 107.531 70.7523 109.307L70.7513 109.314V109.321C70.6569 110.449 70.5902 111.756 70.5326 112.897C70.4789 113.962 70.4282 114.947 70.3656 115.429L70.3666 115.43C70.3325 115.798 70.3264 116.394 70.0521 117.228C69.8795 117.753 69.314 118.039 68.7894 117.866C68.2648 117.693 67.9792 117.128 68.1517 116.603C68.3375 116.039 68.3312 115.723 68.3754 115.245L68.3773 115.221L68.3812 115.195C68.4303 114.852 68.4764 113.968 68.5355 112.797C68.5927 111.663 68.6604 110.321 68.7582 109.154C68.8679 107.547 68.9411 104.518 69.224 102.503C69.4281 101.048 69.8038 99.0052 69.9076 97.3963C70.025 95.5761 70.2184 93.5682 70.3705 91.9598C70.474 90.8648 70.5248 88.2164 70.9203 86.0419C71.1234 84.9248 71.2447 83.8425 71.3656 82.7987C71.4844 81.7728 71.6051 80.7607 71.8109 79.8602C71.9935 79.0612 72.135 78.1355 72.2757 77.1669C72.4141 76.2147 72.5527 75.2146 72.725 74.3309C73.0123 72.8564 73.2125 71.1657 73.7005 69.3485C74.0696 67.9743 74.4332 66.7088 74.7523 65.6014C75.0731 64.4882 75.3453 63.5469 75.5394 62.8006C75.7328 62.0571 75.851 61.2404 75.9779 60.3641C76.101 59.5137 76.2334 58.5981 76.4623 57.7635C76.6618 57.036 76.9771 56.3326 77.307 55.7655C77.4725 55.4809 77.6494 55.2179 77.8275 54.995C77.9951 54.7853 78.2056 54.5592 78.4466 54.3993Z" fill="black"/>
<path d="M69.2496 117.861C69.571 117.412 70.196 117.309 70.6451 117.63C71.3541 118.137 73.1877 119.795 74.7516 121.954C76.6024 124.51 78.9577 126.975 80.9615 128.557C82.632 129.875 83.9653 131.761 85.3863 134.063C87.4607 137.424 88.2132 139.721 89.0455 141.866C89.3858 142.743 89.7379 143.5 90.0865 144.223C90.4257 144.926 90.7762 145.627 91.0914 146.347C91.2659 146.696 91.4383 147.04 91.6129 147.389C91.7781 147.719 91.9272 148.018 92.3307 148.585C92.651 149.035 92.5452 149.66 92.0953 149.98C91.6454 150.3 91.021 150.195 90.7008 149.745C90.2146 149.062 90.0135 148.663 89.8238 148.283C89.6464 147.928 89.472 147.579 89.2945 147.224L89.2828 147.2L89.2721 147.177C88.9736 146.493 88.647 145.842 88.2848 145.091C87.9274 144.35 87.5495 143.539 87.1813 142.59C86.3318 140.4 85.6436 138.288 83.6842 135.113C82.2742 132.829 81.0949 131.21 79.7223 130.127C77.5574 128.419 75.0774 125.814 73.1315 123.127C71.6841 121.128 70.001 119.629 69.4811 119.257C69.0319 118.935 68.9283 118.31 69.2496 117.861Z" fill="black"/>
<path d="M90.6021 149.024C90.8266 148.519 91.4178 148.292 91.9225 148.516C92.4268 148.741 92.6536 149.332 92.4293 149.836C91.7126 151.448 89.9349 155.012 88.3844 157.387C87.0714 159.399 85.0757 161.53 84.0797 162.732C83.6118 163.297 83.174 163.911 82.6529 164.616C82.1412 165.308 81.569 166.059 80.8727 166.826C80.2117 167.553 79.679 168.224 79.1461 168.889C78.6175 169.549 78.084 170.209 77.4537 170.865C76.1963 172.173 75.481 173.607 74.3014 175.399C73.0763 177.26 71.8304 178.474 70.774 179.531C70.4832 179.822 70.1671 180.102 69.8736 180.363C69.5723 180.631 69.2896 180.884 69.024 181.149C68.8201 181.353 68.6343 181.555 68.4713 181.763C70.1712 183.183 72.2424 185.581 73.6109 187.639L73.9137 188.106L74.0338 188.297L74.0602 188.522C74.1477 189.273 74.2216 190.07 74.1949 190.739C74.1816 191.073 74.1418 191.427 74.0406 191.751C73.9424 192.064 73.7483 192.469 73.3404 192.734C73.0854 192.9 72.7676 193.023 72.4371 193.076C72.1073 193.129 71.6852 193.123 71.273 192.934C70.5504 192.602 69.5844 192.155 68.7086 191.535C67.8311 190.914 66.9626 190.064 66.5182 188.884C65.6737 186.643 65.38 184.112 65.9283 182.339C65.7835 182.231 65.6381 182.122 65.4908 182.011C65.049 181.68 64.9593 181.054 65.2906 180.612C65.6219 180.17 66.2482 180.08 66.69 180.412C66.7533 180.459 66.8168 180.506 66.8795 180.553C67.1125 180.253 67.3615 179.982 67.61 179.734C67.923 179.421 68.2495 179.131 68.5455 178.868C68.8493 178.598 69.1187 178.358 69.36 178.117C70.4249 177.052 71.5326 175.969 72.6314 174.299C73.6605 172.736 74.5848 170.963 76.0123 169.478C76.5724 168.896 77.0539 168.301 77.5846 167.639C78.1108 166.983 78.6826 166.263 79.3922 165.482C80.0199 164.791 80.5446 164.104 81.0445 163.427C81.5352 162.763 82.0253 162.077 82.5396 161.456C83.665 160.097 85.4784 158.18 86.7096 156.294C88.1809 154.04 89.9098 150.58 90.6021 149.024ZM67.6813 183.731C67.5586 184.917 67.7754 186.547 68.3902 188.179C68.6405 188.843 69.1615 189.406 69.8639 189.903C70.5592 190.395 71.3529 190.769 72.0807 191.104C72.0888 191.104 72.1024 191.104 72.1207 191.101C72.1282 191.1 72.1354 191.096 72.1432 191.094C72.1646 191.002 72.1878 190.861 72.1959 190.66C72.2137 190.212 72.1693 189.635 72.0973 188.981C70.937 187.182 69.1588 185.081 67.6813 183.731Z" fill="black"/>
<path d="M69.2459 116.286C69.7062 115.981 70.3264 116.106 70.6317 116.566C70.9368 117.026 70.8113 117.647 70.3514 117.952C70.3515 117.952 70.2766 118.007 70.1131 118.221C69.9527 118.43 69.7419 118.744 69.4618 119.211C68.9019 120.144 68.1108 121.605 66.9452 123.871C65.5938 126.498 64.2363 128.24 62.3924 131.111C61.3555 132.726 60.76 134.243 59.7167 136.472C59.4079 137.131 59.2221 137.786 58.9481 138.65C58.6794 139.498 58.3468 140.47 57.7606 141.621C57.2167 142.689 56.6226 143.754 56.0584 144.771C55.4899 145.797 54.9523 146.775 54.4999 147.7C54.0977 148.523 53.6833 149.319 53.2665 150.126C52.8479 150.937 52.4237 151.766 51.9901 152.676C50.2591 156.309 49.4057 158.206 48.1991 159.928C46.8446 161.86 45.4478 163.735 44.2381 165.343C43.0201 166.962 42.0093 168.288 41.3993 169.156C40.0199 171.12 38.8547 172.667 37.951 174.172C36.6731 176.299 35.5996 177.639 34.8387 178.798C34.4537 179.384 34.0054 179.979 33.5008 180.588C33.5204 180.612 33.54 180.637 33.5575 180.664C34.2669 181.749 34.2534 182.805 34.202 183.46L34.1991 183.492L34.1942 183.524C34.0645 184.428 33.9795 185.213 33.8895 186.048L33.8788 186.14L33.8524 186.229C33.7652 186.519 33.7037 186.872 33.6346 187.31C33.5697 187.72 33.497 188.211 33.3827 188.667C33.1645 189.537 32.6759 190.752 31.2713 191.023C30.97 191.082 30.5975 191.184 30.1278 191.307C29.684 191.422 29.172 191.55 28.6815 191.622C28.2132 191.691 27.6398 191.73 27.119 191.577C26.8432 191.496 26.5512 191.353 26.3045 191.104C26.0524 190.851 25.8954 190.536 25.8241 190.194C25.6099 189.167 25.6152 187.572 26.5692 185.987C27.3715 184.654 28.213 183.245 29.8553 181.603C31.2878 180.17 32.3888 178.885 33.1668 177.7C34.0878 176.298 34.9518 175.281 36.2372 173.142C37.19 171.555 38.4378 169.891 39.7626 168.006C40.3973 167.102 41.4414 165.733 42.6395 164.141C43.8462 162.537 45.2271 160.684 46.5614 158.78C47.6457 157.233 48.4101 155.54 50.1844 151.815C50.6327 150.875 51.069 150.022 51.4891 149.208C51.911 148.391 52.313 147.62 52.703 146.822C53.1814 145.844 53.7437 144.822 54.3094 143.802C54.8794 142.773 55.4539 141.743 55.9784 140.713C56.4925 139.703 56.7872 138.851 57.0418 138.047C57.2911 137.26 57.5253 136.435 57.9051 135.624C58.8878 133.525 59.5773 131.794 60.7098 130.03C62.6584 126.996 63.8722 125.473 65.1668 122.956C66.3345 120.686 67.1508 119.175 67.7469 118.182C68.0447 117.686 68.2992 117.299 68.5252 117.004C68.7439 116.719 68.9782 116.464 69.2459 116.286ZM32.0907 182.171C31.827 182.449 31.5549 182.732 31.2704 183.017C29.8121 184.475 29.074 185.703 28.2821 187.019C27.679 188.02 27.6511 189.018 27.7635 189.673C27.8823 189.688 28.0843 189.689 28.3915 189.644C28.7633 189.589 29.1819 189.487 29.6239 189.372C30.0397 189.264 30.5086 189.134 30.8924 189.06C31.0588 189.027 31.2568 188.92 31.4422 188.181C31.5298 187.831 31.5883 187.444 31.659 186.997C31.7201 186.61 31.794 186.17 31.9081 185.76C31.9942 184.961 32.0807 184.177 32.2088 183.278C32.2355 182.921 32.2318 182.552 32.0907 182.171Z" fill="black"/>
<path d="M77.2131 57.5874C77.4601 57.0934 78.061 56.8931 78.5549 57.1401C79.1341 57.4297 80.3571 58.2525 81.4026 59.2446C82.6096 60.3901 83.3779 61.6993 84.0286 62.855C84.6689 63.9923 85.1453 64.8976 85.9153 66.1108C87.0649 67.9221 87.9326 69.4631 88.637 70.7309C89.3517 72.0174 89.8691 72.9689 90.3499 73.6743C91.0458 74.6954 91.6828 75.8279 92.2004 76.7895C92.7399 77.7917 93.1143 78.5363 93.346 78.9106C93.6069 79.3323 93.858 79.8238 94.093 80.2895C94.3357 80.7704 94.5646 81.2305 94.802 81.6489C95.129 82.2252 95.4817 82.6817 95.7835 83.0835C96.1501 82.8425 96.4776 82.497 96.8059 82.0639C97.0081 81.7972 97.1925 81.5242 97.3938 81.2319C97.5867 80.9518 97.7996 80.6477 98.0276 80.3774C98.8163 79.4425 99.9571 78.6035 100.724 77.9428C101.121 77.6003 101.428 77.2218 101.73 76.8091C102.008 76.4273 102.345 75.9204 102.705 75.5063C103.156 74.9885 103.51 74.4438 103.846 73.8774C104.166 73.3383 104.513 72.7032 104.882 72.1557C105.224 71.6496 105.574 71.1204 105.947 70.5591C106.318 69.9987 106.71 69.407 107.131 68.7817C107.76 67.8471 108.322 66.982 109.05 66.0776C109.515 65.5006 110.462 64.1671 111.438 63.0425C111.523 62.9324 111.577 62.837 111.65 62.6938C111.479 62.239 111.66 61.7156 112.097 61.4712C112.579 61.2017 113.189 61.374 113.458 61.8559C113.632 62.1661 113.724 62.5043 113.686 62.8647C113.652 63.1857 113.515 63.4381 113.478 63.5132C113.38 63.708 113.248 63.9779 113.011 64.2807L112.994 64.3012L112.977 64.3218C111.993 65.4508 111.229 66.561 110.608 67.3325C109.947 68.1533 109.443 68.9293 108.79 69.8989C108.374 70.5176 107.985 71.1037 107.614 71.6645C107.242 72.2242 106.887 72.76 106.54 73.2739C106.213 73.7593 105.942 74.2646 105.566 74.8989C105.205 75.5058 104.78 76.1681 104.214 76.8188C103.928 77.1473 103.705 77.4942 103.345 77.9878C103.007 78.4504 102.595 78.9694 102.029 79.4575C101.073 80.2808 100.208 80.8942 99.5559 81.6675C99.3987 81.8539 99.2366 82.0831 99.0413 82.3667C98.8542 82.6382 98.6367 82.9602 98.3997 83.2729C97.9252 83.8986 97.2969 84.5928 96.4055 85.0307C96.1496 85.1564 95.8333 85.2485 95.4944 85.227C95.14 85.2045 94.722 85.0475 94.4475 84.6469C94.2713 84.3896 93.5537 83.5012 93.0628 82.6362C92.7952 82.1647 92.5398 81.6506 92.3079 81.1909C92.0683 80.7161 91.8533 80.2994 91.6448 79.9624C91.3715 79.5206 90.9266 78.6422 90.4397 77.7378C89.9309 76.7925 89.3333 75.7341 88.6975 74.8012C88.1512 73.9997 87.5761 72.9413 86.8879 71.7026C86.1895 70.4453 85.3447 68.9445 84.2268 67.1831C83.4195 65.9111 82.9005 64.9288 82.2854 63.8364C81.6403 62.6907 80.9959 61.6165 80.0256 60.6958C79.0988 59.8162 78.0351 59.1165 77.6604 58.9292C77.1664 58.6822 76.9662 58.0814 77.2131 57.5874Z" fill="black"/>
<path d="M112.819 53.2671C114.243 52.5441 115.568 53.3146 116.16 53.6929C117.632 54.6338 118.345 55.5925 118.624 56.5894C118.781 57.1502 118.613 57.6482 118.404 58.0064C118.203 58.3525 117.913 58.6601 117.642 58.9185C117.366 59.1822 117.043 59.4562 116.743 59.7134C116.433 59.9794 116.132 60.2409 115.853 60.5142L115.851 60.5162C114.834 61.5102 113.995 62.3017 113.571 62.65C113.565 62.6871 113.557 62.7243 113.547 62.7613C113.396 63.2925 112.843 63.6009 112.311 63.4498C112.089 63.3864 111.914 63.2637 111.826 63.1978C111.716 63.1159 111.608 63.02 111.507 62.9224C111.303 62.7256 111.076 62.4725 110.847 62.19C110.386 61.6239 109.866 60.8816 109.436 60.1021C109.188 59.6512 109.093 59.1263 109.059 58.649C109.024 58.1575 109.048 57.6263 109.099 57.107C109.195 56.1114 109.725 55.3608 110.403 54.771C111.059 54.2009 111.921 53.7235 112.819 53.2671ZM114.307 55.0054C114.084 54.9486 113.904 54.9593 113.725 55.0503C112.83 55.5047 112.167 55.8877 111.715 56.2808C111.285 56.6542 111.122 56.97 111.09 57.2994C111.045 57.7605 111.031 58.1702 111.055 58.5074C111.08 58.8583 111.141 59.051 111.188 59.1363C111.554 59.8004 112.005 60.4447 112.398 60.9283C112.414 60.947 112.429 60.9649 112.444 60.983C112.826 60.6501 113.534 59.9849 114.454 59.0855C114.785 58.7609 115.131 58.4612 115.441 58.1949C115.762 57.9194 116.034 57.6895 116.262 57.4722C116.479 57.2643 116.601 57.1175 116.662 57.0201C116.524 56.6297 116.167 56.0714 115.083 55.3785C114.811 55.2046 114.552 55.0681 114.307 55.0054Z" fill="black"/>
<path d="M76.9965 56.5401C77.5044 56.3233 78.0922 56.5595 78.309 57.0674C78.5258 57.5754 78.2896 58.1631 77.7817 58.3799C77.5065 58.4974 76.4072 59.0449 75.0883 59.8438C72.9505 61.1386 71.5256 61.9333 70.3217 62.8135C69.6968 63.2705 69.0914 63.9221 68.4623 64.6446C67.868 65.3271 67.2172 66.1178 66.5912 66.6778C65.1777 67.9422 62.9403 69.1312 61.9106 69.7041C60.7934 70.3257 60.0135 70.8832 58.768 72.0117C57.7242 72.9575 56.4714 73.9123 55.6537 74.9707C55.2122 75.5423 54.6309 76.1726 54.2055 76.666C53.9807 76.9268 53.7915 77.1582 53.6459 77.3604C53.5041 77.5575 53.4395 77.6806 53.4155 77.7412C53.4153 77.7616 53.4143 77.851 53.4682 78.043C53.5403 78.2997 53.6763 78.624 53.8705 79.0137C54.0626 79.399 54.2907 79.8081 54.5307 80.2383C54.7656 80.6594 55.0137 81.1036 55.2241 81.5244C56.289 83.6552 57.2371 85.8397 57.8344 87.501C58.316 88.8404 58.8115 89.8008 59.9789 91.6016C60.4463 92.3224 60.8688 92.7999 61.3188 93.3174L61.7807 93.8584L61.7944 93.876C62.6476 94.954 63.7293 96.6282 64.6645 98.1631C64.8723 98.4853 65.0855 98.7838 65.2739 99.4043C65.4343 99.9328 65.1353 100.491 64.6069 100.651C64.0785 100.812 63.5202 100.514 63.3598 99.9854C63.259 99.6532 63.1926 99.5717 62.9692 99.2237L62.9623 99.2139L62.9565 99.2041C62.0256 97.6762 60.9975 96.092 60.226 95.1172H60.225C59.7111 94.4992 59.0017 93.77 58.3012 92.6895C57.0828 90.8102 56.5033 89.7084 55.9526 88.1768C55.3877 86.6059 54.4732 84.4954 53.435 82.418C53.2489 82.0457 53.0243 81.6433 52.7836 81.2119C52.548 80.7896 52.2968 80.3393 52.0805 79.9053C51.8664 79.4757 51.665 79.0197 51.5424 78.583C51.4267 78.1708 51.3371 77.6249 51.5209 77.0967L51.6205 76.8535C51.7333 76.6145 51.8805 76.3892 52.0229 76.1914C52.2203 75.9172 52.4552 75.6338 52.6909 75.3604C53.187 74.7848 53.6717 74.2646 54.0707 73.7481C55.0329 72.5025 56.5702 71.3041 57.4252 70.5293C58.7655 69.3149 59.6677 68.6628 60.9379 67.9561C62.0616 67.3309 64.0516 66.266 65.2573 65.1875C65.7617 64.7363 66.2902 64.094 66.9545 63.3311C67.5842 62.608 68.3179 61.8008 69.142 61.1983C70.4391 60.2499 72.0048 59.3729 74.0522 58.1328C75.4174 57.306 76.6044 56.7074 76.9965 56.5401Z" fill="black"/>
<path d="M64.1774 98.0652C64.7669 97.8888 65.3649 97.8618 65.9948 98.0798L66.2673 98.1892L66.3444 98.2244L66.4157 98.2722C67.2019 98.8062 67.9336 99.5775 68.5046 100.3C68.8689 100.76 69.3214 101.289 69.6491 101.746C69.988 102.219 70.3269 102.787 70.4294 103.448C70.4506 103.584 70.4994 103.753 70.5856 103.995C70.6597 104.203 70.7867 104.529 70.8835 104.821C71.0944 105.458 71.2862 106.262 71.1471 107.218C71.1217 107.392 71.067 107.73 70.8893 108.031C70.7907 108.198 70.6313 108.394 70.3815 108.532C70.1217 108.676 69.8414 108.715 69.5827 108.685C68.5185 108.562 67.328 108.004 66.3444 107.266C66.0101 107.016 65.6711 106.79 65.3141 106.549C64.968 106.315 64.6011 106.062 64.2643 105.787C63.579 105.226 62.9326 104.497 62.7126 103.408C62.5013 102.362 62.5698 101.234 62.8532 100.348C62.743 100.265 62.6472 100.159 62.5768 100.03C62.3125 99.5454 62.4909 98.9382 62.9753 98.6736C63.4499 98.4145 63.7796 98.2189 64.0954 98.0935L64.1354 98.0779L64.1774 98.0652ZM65.3727 99.9851C65.2491 99.9375 65.1374 99.917 65.0085 99.9285C65.0548 100.158 65.0223 100.404 64.8971 100.623C64.6611 101.036 64.4715 102.018 64.6725 103.012C64.7645 103.467 65.0266 103.827 65.53 104.239C65.7875 104.45 66.0852 104.655 66.4343 104.891C66.7728 105.12 67.1613 105.378 67.5446 105.666C68.0975 106.081 68.6834 106.381 69.194 106.551C69.1918 106.178 69.1087 105.823 68.985 105.45C68.8939 105.175 68.8102 104.968 68.7028 104.667C68.6077 104.4 68.5042 104.086 68.4528 103.755C68.4235 103.566 68.309 103.308 68.0241 102.911C67.7279 102.498 67.3854 102.11 66.9352 101.541C66.455 100.934 65.901 100.363 65.3727 99.9851Z" fill="black"/>
<path d="M111.016 27.6667C111.152 27.4268 111.457 27.3429 111.697 27.4792C111.945 27.6201 112.135 27.7067 112.31 27.7898C112.436 27.8493 112.573 27.915 112.705 28.0046L112.835 28.1023L112.876 28.1374L112.908 28.1804C113.314 28.7099 113.671 29.3968 113.758 29.9997L113.802 30.3054L113.548 30.4822C113.287 30.6633 112.897 30.8034 112.552 30.904C112.19 31.0092 111.808 31.0897 111.52 31.1306C111.247 31.1695 110.994 30.9792 110.955 30.7058C110.916 30.4326 111.107 30.1792 111.38 30.1404C111.618 30.1065 111.953 30.0367 112.271 29.9441C112.427 29.8989 112.565 29.8508 112.68 29.8054C112.573 29.5025 112.387 29.1564 112.153 28.8415C112.099 28.8024 112.024 28.7599 111.883 28.6931C111.718 28.6149 111.49 28.5114 111.203 28.3484C110.963 28.212 110.879 27.9068 111.016 27.6667Z" fill="black"/>
<path d="M113.403 35.3727C113.979 35.5387 114.335 35.7097 114.657 35.941C114.93 36.1369 115.32 36.4707 115.385 36.9635L115.397 37.0465L115.38 37.1285C115.335 37.3524 115.26 37.9777 115.036 38.525C114.803 39.0937 114.355 39.7213 113.493 39.8639C112.72 39.9917 111.647 39.8208 111.153 39.7506C110.88 39.7117 110.689 39.4586 110.728 39.1852C110.767 38.9119 111.02 38.7216 111.294 38.7604C111.852 38.8399 112.744 38.9734 113.33 38.8766C113.708 38.814 113.942 38.554 114.11 38.1451C114.266 37.7633 114.319 37.3719 114.378 37.0494C114.347 36.9912 114.266 36.8914 114.074 36.7535C113.865 36.6039 113.621 36.476 113.127 36.3336C112.861 36.2572 112.708 35.9798 112.785 35.7145C112.861 35.4494 113.138 35.2964 113.403 35.3727Z" fill="black"/>
<path d="M110.129 42.3771C110.284 42.1487 110.596 42.09 110.824 42.2452C111.11 42.4393 111.32 42.677 111.405 42.9728C111.491 43.2714 111.423 43.538 111.339 43.7316C111.172 44.1149 110.866 44.4037 110.564 44.6183L110.529 44.6427L110.491 44.6613C109.309 45.2311 107.929 45.788 106.375 45.4113C105.105 45.1032 103.935 44.8117 103.44 44.7413C103.167 44.7025 102.977 44.4493 103.016 44.1759C103.055 43.9026 103.308 43.7123 103.581 43.7511C104.139 43.8304 105.383 44.142 106.61 44.4396C107.781 44.7234 108.864 44.3317 110.014 43.7804C110.227 43.6239 110.361 43.473 110.423 43.3322C110.438 43.2964 110.443 43.2737 110.444 43.2618C110.446 43.2524 110.445 43.2497 110.444 43.2492C110.443 43.2461 110.439 43.2308 110.417 43.2042C110.392 43.1736 110.345 43.128 110.262 43.0714C110.034 42.9161 109.974 42.6054 110.129 42.3771Z" fill="black"/>
<path d="M106.111 49.4318C106.379 49.3648 106.651 49.5282 106.718 49.7961C106.796 50.1083 106.865 50.3798 106.968 50.6525C107.023 50.7985 107.078 50.925 107.147 51.0949C107.211 51.2518 107.278 51.4291 107.324 51.6164C107.366 51.7857 107.449 52.1899 107.15 52.5353C106.882 52.8454 106.423 52.9627 105.857 52.9894C104.26 53.0647 102.842 53.0754 101.744 53.0226C101.196 52.9963 100.719 52.9533 100.336 52.8927C99.9739 52.8355 99.6274 52.7529 99.3924 52.6115C98.8259 52.2705 98.2525 51.896 97.7996 51.6154C97.3118 51.3132 96.9784 51.1303 96.7957 51.0783C96.5302 51.0027 96.3765 50.7267 96.452 50.4611C96.5275 50.1956 96.8036 50.0409 97.0692 50.1164C97.4127 50.2141 97.8713 50.4834 98.327 50.7658C98.8177 51.0698 99.3405 51.4134 99.908 51.755C99.9622 51.7876 100.136 51.8493 100.491 51.9054C100.825 51.9583 101.263 51.9982 101.792 52.0236C102.847 52.0744 104.232 52.0648 105.81 51.9904C106.056 51.9788 106.211 51.9479 106.305 51.9171C106.329 51.9096 106.345 51.8999 106.359 51.8937C106.357 51.8833 106.357 51.8702 106.353 51.8556C106.325 51.7393 106.279 51.6153 106.221 51.4709C106.167 51.339 106.091 51.163 106.031 51.005C105.905 50.67 105.824 50.3428 105.748 50.0382C105.681 49.7705 105.843 49.4989 106.111 49.4318Z" fill="black"/>
<path d="M28.3006 40.6096C30.2407 40.5818 32.4938 40.6385 34.6991 40.8156L35.6405 40.8996L35.6639 40.9016L35.6873 40.9064C43.159 42.3545 45.7294 42.4348 47.1727 42.5549C47.9647 42.5949 48.9074 42.5959 49.8963 42.5959C50.1723 42.596 50.3963 42.8198 50.3963 43.0959C50.3961 43.3717 50.1722 43.5957 49.8963 43.5959C48.9122 43.5959 47.9391 43.5958 47.1151 43.5539L47.1073 43.5529H47.0985C45.6457 43.4315 43.0431 43.3492 35.5233 41.8928C33.0753 41.656 30.4953 41.5784 28.3153 41.6096C26.1132 41.6411 24.3656 41.7833 23.5702 41.9699C22.5061 42.2195 21.2382 42.3829 20.0321 42.5139C18.8098 42.6466 17.6662 42.7445 16.7909 42.8644C16.5175 42.9016 16.2658 42.7101 16.2284 42.4367C16.191 42.1632 16.3825 41.9107 16.6561 41.8732C17.5482 41.7511 18.739 41.6485 19.9246 41.5197C21.1266 41.3892 22.3416 41.2309 23.3416 40.9963C24.2539 40.7823 26.0994 40.641 28.3006 40.6096Z" fill="black"/>
<path d="M1.06874 28.8191C1.33068 28.7318 1.61425 28.8735 1.70155 29.1355C1.78883 29.3974 1.64702 29.6809 1.38515 29.7683L0.658585 30.0105C0.396634 30.0978 0.113114 29.956 0.0257726 29.6941C-0.0615471 29.4321 0.0802195 29.1486 0.342179 29.0612L1.06874 28.8191Z" fill="black"/>
<path d="M13.2948 27.8271C13.57 27.8057 13.8104 28.0109 13.8319 28.2861C13.8534 28.5614 13.6473 28.8017 13.372 28.8232C12.3114 28.9059 12.0748 28.9776 11.6474 29.0244L11.6327 29.0263H11.619C10.8883 29.0645 9.94814 29.2231 8.18643 29.5068L8.16397 29.5097L8.14151 29.5117C5.19863 29.7126 3.17798 29.7939 2.6796 29.7939C2.40352 29.7939 2.17971 29.5699 2.1796 29.2939C2.1796 29.0177 2.40345 28.7939 2.6796 28.7939C3.13928 28.7939 5.12254 28.7138 8.05753 28.5136C9.74629 28.2416 10.7475 28.0743 11.538 28.0302C11.8415 27.9971 12.2447 27.909 13.2948 27.8271Z" fill="black"/>
<path d="M72.9891 0.0206663C74.4859 -0.0208431 77.064 -0.0207271 79.7244 0.223791C79.9994 0.249066 80.2018 0.492753 80.1766 0.767737C80.1511 1.04256 79.9075 1.24515 79.6326 1.21988C77.0246 0.980196 74.4892 0.979864 73.0174 1.02067C71.5636 1.06098 71.1231 1.14187 67.5496 1.1818C63.9387 1.22215 57.4249 1.05337 53.1922 1.38492C47.0172 1.86867 42.3193 2.19059 39.7264 2.19059C39.4504 2.19059 39.2266 1.96655 39.2264 1.69059C39.2264 1.41445 39.4502 1.19059 39.7264 1.19059C42.2716 1.19059 46.9257 0.872649 53.1141 0.387854C57.3896 0.0529452 63.9997 0.22135 67.5389 0.181799C71.1153 0.141828 71.4744 0.0626763 72.9891 0.0206663Z" fill="black"/>
<path d="M1.52364 101.256C2.26096 101.338 3.48692 101.541 4.75508 101.752C5.71453 101.911 6.70334 102.074 7.55 102.197L8.34297 102.305L8.35371 102.307C11.0937 102.705 13.9706 102.864 20.6262 102.867C22.1285 102.79 22.7276 102.642 24.0891 102.242C24.3538 102.164 24.6312 102.315 24.7092 102.58C24.787 102.845 24.6353 103.123 24.3703 103.201C22.9623 103.615 22.2826 103.784 20.677 103.867L20.6633 103.868H20.6506C13.9762 103.866 11.0351 103.705 8.21992 103.297C7.21766 103.173 5.86287 102.949 4.59102 102.738C3.30839 102.525 2.11763 102.328 1.41426 102.25C1.13995 102.219 0.941696 101.972 0.971878 101.698C1.00231 101.424 1.24935 101.226 1.52364 101.256Z" fill="black"/>
<path d="M50.6227 87.451C50.8987 87.4512 51.1227 87.675 51.1227 87.951C51.1227 88.2271 50.8987 88.4509 50.6227 88.451C47.1621 88.451 43.8131 88.4511 41.9362 88.4921L41.9352 88.4911C39.6808 88.6108 38.9617 88.6899 37.8258 88.7723C35.893 88.9731 34.4156 89.1541 33.3551 89.3329C32.8245 89.4223 32.4081 89.5099 32.0963 89.5966C31.7718 89.6868 31.6082 89.7632 31.5436 89.8094C31.3194 89.9706 31.0065 89.9194 30.8454 89.6952C30.6846 89.471 30.7357 89.159 30.9596 88.9979C31.175 88.8432 31.4831 88.7287 31.8288 88.6327C32.188 88.5329 32.6426 88.4387 33.1891 88.3466C34.2829 88.1622 35.7873 87.9793 37.7233 87.7782L37.7311 87.7772H37.7389C38.8674 87.6956 39.6089 87.6144 41.8981 87.493L41.9059 87.4921H41.9137C43.8045 87.4508 47.1681 87.451 50.6227 87.451Z" fill="black"/>
<path d="M28.33 176.694C28.33 176.723 28.3337 176.75 28.3388 176.776C28.3343 176.749 28.33 176.722 28.33 176.694ZM29.33 176.694C29.33 176.97 29.1061 177.194 28.83 177.194C28.6656 177.194 28.5216 177.113 28.4306 176.991C28.4132 176.986 28.3917 176.978 28.3641 176.972C28.1884 176.936 27.8863 176.914 27.4423 176.945C27.0336 177.081 26.6085 177.398 26.4003 177.749C26.1941 178.097 26.1825 178.512 26.1825 179.116C26.1823 179.391 25.9585 179.616 25.6825 179.616C25.4065 179.616 25.1827 179.391 25.1825 179.116C25.1825 178.567 25.1709 177.862 25.5409 177.239C25.901 176.632 26.5706 176.162 27.2011 175.972L27.2518 175.956L27.3056 175.952C27.8355 175.911 28.2585 175.93 28.5663 175.993C28.7165 176.024 28.8688 176.072 28.997 176.149C29.104 176.213 29.3299 176.384 29.33 176.694Z" fill="black"/>
<path d="M22.0348 180.084C22.0348 179.596 22.0332 179.075 22.1236 178.54L22.1275 178.521L22.1324 178.502C22.3895 177.476 22.8252 176.68 23.3619 176.09C23.8298 175.504 24.1751 175.072 24.36 174.887C24.5552 174.692 24.8727 174.692 25.068 174.887C25.2629 175.083 25.2629 175.399 25.068 175.595C24.9336 175.729 24.6354 176.099 24.1393 176.72L24.1285 176.733L24.1168 176.746C23.6996 177.199 23.3316 177.841 23.107 178.725C23.0359 179.158 23.0348 179.59 23.0348 180.084C23.0347 180.36 22.8109 180.584 22.5348 180.584C22.2586 180.584 22.0348 180.36 22.0348 180.084Z" fill="black"/>
<path d="M61.1031 183.437C61.2566 183.208 61.567 183.146 61.7964 183.3C62.026 183.453 62.0877 183.765 61.9341 183.994C61.6922 184.356 61.4638 184.675 61.1382 184.901C60.8015 185.136 60.4111 185.239 59.9097 185.303C58.924 185.428 57.2924 185.426 56.3209 185.385H56.3072L56.2945 185.383C55.6472 185.322 55.2209 185.271 54.9361 185.235C54.7912 185.217 54.6916 185.204 54.6138 185.195C54.576 185.191 54.5479 185.188 54.5269 185.186C54.5171 185.186 54.5098 185.185 54.5045 185.184C54.4995 185.184 54.4969 185.184 54.4966 185.184C54.2206 185.184 53.9968 184.961 53.9966 184.684C53.9966 184.408 54.2205 184.184 54.4966 184.184C54.6177 184.184 54.8103 184.212 55.0601 184.243C55.3344 184.277 55.7453 184.326 56.3707 184.386C57.3273 184.426 58.8858 184.425 59.7838 184.31C60.225 184.254 60.4259 184.178 60.567 184.08C60.7192 183.974 60.856 183.807 61.1031 183.437Z" fill="black"/>
<path d="M55.9095 180.573C55.9798 180.583 56.0705 180.599 56.178 180.619C56.3938 180.658 56.69 180.715 57.0569 180.788C57.7922 180.934 58.82 181.144 60.0706 181.407H60.0696C61.0597 181.613 61.431 181.686 61.805 181.724C62.1811 181.762 62.5555 181.763 62.971 181.763C63.2472 181.763 63.471 181.987 63.471 182.263C63.4709 182.539 63.2471 182.763 62.971 182.763C62.5636 182.763 62.1391 182.763 61.7044 182.719C61.4857 182.697 61.2692 182.664 60.9857 182.612L59.8655 182.385C58.6162 182.123 57.5926 181.913 56.8626 181.768C56.4974 181.696 56.2076 181.639 56.0003 181.602C55.8964 181.583 55.8156 181.57 55.7581 181.561C55.6853 181.55 55.6822 181.552 55.7073 181.552C55.4312 181.552 55.2073 181.328 55.2073 181.052C55.2073 180.776 55.4312 180.552 55.7073 180.552C55.7725 180.552 55.8546 180.564 55.9095 180.573Z" fill="black"/>
<path d="M107.085 29.5034C107.184 29.5034 107.317 29.5024 107.457 29.52C107.6 29.5383 107.734 29.5738 107.872 29.6197L108.276 29.7661C108.656 29.9098 108.983 30.0328 109.467 30.0288C110.279 30.0222 110.824 30.0059 111.196 29.9917C111.552 29.9782 111.783 29.9644 111.922 29.9644C112.199 29.9644 112.422 30.1882 112.422 30.4644C112.422 30.7404 112.199 30.9644 111.922 30.9644C111.808 30.9644 111.631 30.9756 111.234 30.9908C110.852 31.0053 110.298 31.0211 109.476 31.0279C108.827 31.0332 108.305 30.8502 107.91 30.6997L107.555 30.5679C107.461 30.5364 107.392 30.5201 107.331 30.5122C107.264 30.5038 107.194 30.5034 107.085 30.5034C106.808 30.5034 106.585 30.2796 106.585 30.0034C106.585 29.7273 106.808 29.5034 107.085 29.5034Z" fill="black"/>
<path d="M106.137 37.8003C106.276 37.8144 106.375 37.8281 106.453 37.8403C106.537 37.8533 106.573 37.86 106.616 37.8647C106.664 37.87 106.701 37.8711 106.782 37.8774C106.816 37.8801 106.855 37.883 106.898 37.8881L107.033 37.9106L107.065 37.9165L107.096 37.9272C107.471 38.0565 107.888 38.2008 108.27 38.3208C108.66 38.4436 108.98 38.5302 109.168 38.5581C109.5 38.607 109.884 38.7098 110.201 38.7866C110.546 38.8699 110.819 38.9246 111.015 38.9243C111.263 38.9239 111.511 38.9115 111.724 38.8989C111.92 38.8872 112.121 38.8725 112.23 38.8725C112.506 38.8725 112.73 39.0964 112.73 39.3725C112.73 39.6486 112.506 39.8725 112.23 39.8725C112.16 39.8725 112.017 39.883 111.783 39.8969C111.564 39.9099 111.294 39.9239 111.017 39.9243C110.683 39.9248 110.297 39.8383 109.966 39.7583C109.608 39.6717 109.295 39.5875 109.023 39.5473C108.746 39.5065 108.357 39.3966 107.97 39.2749C107.589 39.155 107.176 39.0123 106.814 38.8872C106.784 38.8821 106.749 38.878 106.703 38.8745C106.659 38.871 106.575 38.8662 106.507 38.8588C106.434 38.8509 106.36 38.8379 106.3 38.8286C106.235 38.8184 106.153 38.8063 106.035 38.7944C105.761 38.7664 105.561 38.5211 105.589 38.2465C105.617 37.972 105.862 37.7725 106.137 37.8003Z" fill="black"/>
</svg>
