<svg width="120" height="187" viewBox="0 0 120 187" fill="none" xmlns="http://www.w3.org/2000/svg">
<path d="M98.5158 6.41129C98.8025 6.13466 99.2395 6.04495 99.6242 6.21989C99.9195 6.35415 100.461 6.53881 101.209 6.75504C101.571 6.8597 101.908 6.92334 102.243 6.97867C102.557 7.03057 102.933 7.08326 103.266 7.15934C104.282 7.39141 105.389 8.01384 105.987 8.44254C106.735 8.97851 107.279 9.35451 107.813 9.72086C108.239 10.0133 108.913 10.4086 109.486 10.8752C110.084 11.3616 110.708 11.9796 111.236 12.8586C111.705 13.637 112.098 14.0389 112.569 14.6681C113.012 15.2586 113.449 16.2382 113.801 17.0988C113.985 17.5484 114.16 18 114.314 18.4015C114.47 18.8094 114.601 19.1549 114.706 19.4132C114.975 20.0756 115.181 20.688 115.3 21.3341C115.421 21.9932 115.648 22.9292 115.91 23.6535C116.126 24.2489 116.398 25.0743 116.514 25.9562C116.541 26.1613 116.611 26.3976 116.718 26.6935C116.81 26.9475 116.963 27.3304 117.063 27.6466C117.162 27.9623 117.3 28.3477 117.403 28.9679C117.503 29.5763 117.569 30.3944 117.578 31.6496C117.583 32.2636 117.462 32.8536 117.328 33.3732C117.261 33.6339 117.186 33.8943 117.118 34.1339C117.049 34.3793 116.985 34.6069 116.931 34.8293C116.678 35.8746 116.309 36.7331 116.017 37.4621C115.541 38.6498 114.772 39.9691 114.368 40.6818C113.894 41.5182 113.341 42.354 112.73 43.2951C112.223 44.0751 111.627 44.8888 110.956 45.6662C110.477 46.2211 110.145 46.6399 109.729 47.1427C109.37 47.5753 108.873 47.9252 108.469 48.1847C108.258 48.3199 108.046 48.4466 107.865 48.5558C107.677 48.6698 107.527 48.7613 107.409 48.841C106.78 49.2667 105.873 49.848 105.115 50.2961C104.452 50.6882 104.061 50.9381 103.615 51.2043C103.221 51.4397 102.846 51.6493 102.46 51.7863C101.895 51.9868 101.258 52.1748 100.492 52.3791C99.8364 52.554 98.7818 52.5842 97.7931 52.6037C96.7325 52.6245 95.615 52.631 94.6418 52.7111C93.4148 52.8121 92.5739 52.773 91.9377 52.6672C91.309 52.5625 90.8756 52.3842 90.6652 52.3166C90.0414 52.1161 89.2689 51.8787 88.4787 51.7043C87.6392 51.5189 86.742 51.1066 85.9894 50.8C85.3662 50.546 84.4928 50.2087 83.8009 49.9611C83.2931 49.7793 82.7125 49.6035 81.7257 49.1886C81.2795 49.001 80.9075 48.7365 80.6027 48.507C80.2737 48.2593 80.0316 48.0613 79.7326 47.8713C79.2055 47.5362 78.5437 47.1903 77.9191 46.925C77.4341 46.719 77.0332 46.4338 76.7052 46.1691C76.5415 46.0369 76.3869 45.9026 76.2502 45.7834C76.1085 45.6598 75.9879 45.5547 75.8703 45.4591C75.5281 45.1814 75.1919 44.8535 74.9064 44.5822C74.6028 44.2937 74.3462 44.0589 74.1047 43.8839C73.4053 43.3773 72.7135 42.5301 72.2257 41.7746C71.9087 41.2835 71.409 40.5936 70.7882 39.2638C70.2738 38.1616 70.0416 37.3567 69.8927 36.6486C69.7329 35.8881 69.4409 35.0699 69.3527 32.3634C69.3271 31.5779 69.2675 29.6655 69.3009 26.966C69.3252 25.0097 69.5426 23.651 69.7746 22.8371C69.849 22.5761 69.8996 22.3107 69.9611 21.9933C70.0198 21.6902 70.0896 21.336 70.1984 20.9777C70.416 20.261 70.5552 19.6057 70.7414 18.9142C70.9686 18.0703 71.3542 17.3848 71.8205 16.8156C72.0713 16.5094 72.3031 16.1952 72.5402 15.8771C72.7683 15.5711 73.0116 15.2477 73.255 14.9748C73.4988 14.7015 73.7098 14.4468 73.9406 14.1672C74.17 13.8892 74.4183 13.5882 74.7218 13.2414C75.7657 12.0488 76.9379 11.3876 77.6457 10.9308C78.2523 10.5393 78.9956 10.1566 79.5451 9.86539C79.772 9.74513 79.9568 9.62187 80.2443 9.4484C80.5045 9.29142 80.8247 9.11035 81.1955 8.98258C81.4291 8.90209 81.7218 8.77468 82.0949 8.61149C82.4512 8.45559 82.8658 8.27403 83.2843 8.1193C84.2819 7.7505 85.8206 7.24362 86.6896 7.0441C87.7415 6.80264 88.4633 6.70898 89.7179 6.5568C90.809 6.42447 91.7685 6.41135 92.4943 6.42203C92.8473 6.42723 93.1714 6.43857 93.3859 6.44352C93.6548 6.44972 93.7142 6.44268 93.6925 6.44645C94.6314 6.28322 95.8118 6.27937 96.8312 6.31559C97.4483 6.33752 98.0396 6.37703 98.5158 6.41129ZM96.7599 8.31461C95.7622 8.27917 94.7572 8.29165 94.0353 8.41715C93.8216 8.45431 93.5398 8.44813 93.34 8.44352C93.0856 8.43764 92.8127 8.42715 92.465 8.42203C91.7893 8.41209 90.928 8.42464 89.9591 8.54215C88.7121 8.6934 88.0793 8.77697 87.1369 8.99332C86.3951 9.16362 84.9524 9.6349 83.9777 9.99528C83.623 10.1264 83.2618 10.2838 82.8966 10.4435C82.5485 10.5958 82.1733 10.7607 81.8468 10.8732C81.6812 10.9303 81.507 11.0219 81.2775 11.1603C81.0751 11.2824 80.7732 11.4775 80.4816 11.632C79.8896 11.9457 79.245 12.2779 78.7297 12.6105C77.924 13.1305 77.0424 13.6269 76.2267 14.5588C75.945 14.8806 75.7141 15.1601 75.4826 15.4406C75.2524 15.7194 75.0194 16.0007 74.7472 16.3058C74.5717 16.5026 74.3799 16.7555 74.1437 17.0724C73.9164 17.3773 73.6547 17.7336 73.3683 18.0832C73.065 18.4534 72.8201 18.8882 72.673 19.4347C72.5246 19.9862 72.3356 20.8206 72.1115 21.5588C72.0369 21.8043 71.9854 22.0614 71.925 22.3732C71.8673 22.6707 71.8 23.0252 71.6974 23.3849C71.5275 23.9809 71.3237 25.1541 71.3009 26.9914C71.268 29.649 71.3266 31.5276 71.3517 32.298C71.4333 34.8023 71.6851 35.4535 71.8498 36.2365C71.9692 36.8045 72.1543 37.4627 72.5998 38.4172C73.1505 39.5969 73.5644 40.1607 73.9064 40.6906C74.33 41.3467 74.8632 41.963 75.2785 42.2638C75.6419 42.527 75.9858 42.8502 76.2834 43.133C76.599 43.4329 76.8653 43.6907 77.131 43.9064C77.2815 44.0286 77.4306 44.1587 77.5646 44.2756C77.7036 44.3967 77.8308 44.5082 77.9611 44.6134C78.2215 44.8236 78.4578 44.981 78.7004 45.0841C79.4172 45.3886 80.1783 45.7839 80.8058 46.1828C81.1937 46.4293 81.5477 46.7149 81.8058 46.9093C82.088 47.1218 82.295 47.2586 82.5002 47.3449C83.4204 47.7318 83.892 47.8687 84.4748 48.0773C85.1977 48.3361 86.0979 48.6844 86.7433 48.9474C87.6356 49.311 88.2885 49.6139 88.9103 49.7511C89.7952 49.9465 90.6402 50.2075 91.2775 50.4123C91.6377 50.528 91.8286 50.6208 92.2658 50.6935C92.6955 50.765 93.3637 50.8096 94.4777 50.7179C95.5317 50.6312 96.74 50.6236 97.7541 50.6037C98.8399 50.5823 99.6091 50.5444 99.9767 50.4464C100.718 50.2488 101.298 50.0768 101.792 49.9015C101.977 49.836 102.205 49.7173 102.59 49.4875C102.923 49.2883 103.487 48.935 104.097 48.5744C104.814 48.1501 105.687 47.5908 106.289 47.1838C106.457 47.0705 106.65 46.9531 106.831 46.8439C107.02 46.7299 107.206 46.6191 107.388 46.5021C107.769 46.2573 108.04 46.0453 108.189 45.8664C108.577 45.3975 108.946 44.9338 109.442 44.3595C110.046 43.6587 110.589 42.9193 111.052 42.2062C111.681 41.2372 112.191 40.4658 112.628 39.6955C113.059 38.9349 113.747 37.7517 114.16 36.7189C114.473 35.9366 114.776 35.2326 114.987 34.3595C115.051 34.0948 115.125 33.8331 115.194 33.588C115.266 33.3372 115.332 33.1056 115.391 32.8752C115.51 32.4122 115.581 32.02 115.578 31.6642C115.57 30.4647 115.506 29.7612 115.429 29.2951C115.354 28.8414 115.265 28.5992 115.154 28.2472C115.069 27.9763 114.971 27.7443 114.837 27.3732C114.718 27.044 114.587 26.6429 114.531 26.217C114.444 25.5555 114.232 24.8946 114.029 24.3332C113.72 23.4758 113.467 22.4272 113.333 21.6955C113.249 21.2354 113.096 20.7628 112.854 20.1662C112.739 19.8842 112.597 19.512 112.446 19.1183C112.293 18.7184 112.125 18.2841 111.95 17.8566C111.584 16.9628 111.235 16.2219 110.97 15.8683C110.637 15.4244 110.057 14.7785 109.523 13.8898C109.145 13.2625 108.698 12.8119 108.224 12.4259C107.724 12.0193 107.299 11.7934 106.681 11.3693C106.142 10.9993 105.586 10.6154 104.822 10.0685C104.346 9.72748 103.485 9.26132 102.82 9.10953C102.566 9.05147 102.303 9.01513 101.917 8.95133C101.834 8.93755 101.748 8.91964 101.658 8.90348C101.482 8.94701 101.291 8.94451 101.106 8.88297C100.925 8.82295 100.808 8.79222 100.728 8.77457C100.653 8.75817 100.6 8.75055 100.541 8.74528V8.7443C100.128 8.72123 99.6546 8.64139 99.0441 8.45328C98.5161 8.4154 97.6796 8.34729 96.7599 8.31461Z" fill="black"/>
<path d="M95.496 6.92875C95.4959 6.88185 95.4802 6.71986 95.4286 6.46097C95.3806 6.22031 95.3134 5.95336 95.2411 5.72269C95.1233 5.34737 94.8934 5.07419 94.7167 4.97855C94.4072 4.81118 93.984 4.64529 92.2704 4.59574C91.1993 4.56478 90.3232 4.65533 89.787 4.89359C89.356 5.08508 88.9427 5.17792 88.5799 5.24222C88.172 5.31452 87.9361 5.33759 87.5975 5.41019C86.4547 5.65527 85.6381 5.85275 85.0643 6.04887L85.0194 6.06449L84.9725 6.07523C84.3265 6.22846 83.9315 6.33492 83.5418 6.56547C83.3301 6.69594 83.1223 6.79007 82.6864 6.95805C82.1711 7.15644 81.592 6.89909 81.3934 6.38383C81.1952 5.86859 81.4524 5.29035 81.9676 5.09183C82.3932 4.92786 82.452 4.88867 82.5018 4.85746L82.5126 4.85062L82.5233 4.84476C83.1896 4.45048 83.8473 4.28685 84.4627 4.14066C85.1565 3.9076 86.0648 3.69395 87.1786 3.45512C87.5429 3.37698 87.9804 3.31794 88.2313 3.27347C88.5273 3.221 88.7593 3.16251 88.9754 3.06644C89.9475 2.63459 91.2101 2.56441 92.328 2.59672C94.1245 2.64866 94.9349 2.82343 95.6678 3.21976C96.4274 3.63058 96.9241 4.40659 97.1493 5.12406C97.3272 5.69127 97.4959 6.4761 97.496 6.92875C97.496 7.48103 97.0482 7.92875 96.496 7.92875C95.9439 7.92849 95.496 7.48087 95.496 6.92875Z" fill="black"/>
<path d="M101.425 6.72852C101.425 6.29224 101.496 5.2935 101.544 4.43066C101.567 4.02445 101.649 3.66446 101.727 3.36133C101.81 3.0354 101.877 2.81023 101.928 2.54199C101.952 2.41627 101.946 2.33569 101.938 2.28906C101.93 2.24278 101.916 2.20642 101.896 2.17285C101.866 2.12247 101.84 2.09204 101.8 2.05176C101.596 2.03735 101.231 2.02434 100.554 2.0166C99.0671 1.9996 96.2225 2 93.2807 2C92.7284 2 92.2807 1.55228 92.2807 1C92.2807 0.447715 92.7284 0 93.2807 0C96.2155 0 99.0749 0.000413535 100.577 0.0175781C101.316 0.0260348 101.763 0.0383431 102.043 0.0634766C102.183 0.0760122 102.333 0.0950884 102.479 0.137695C102.66 0.190767 102.792 0.267242 102.895 0.341797L102.96 0.388672L103.018 0.446289C103.047 0.474648 103.393 0.76985 103.622 1.16309C103.886 1.61458 104.029 2.19909 103.893 2.91406C103.826 3.26513 103.727 3.61268 103.664 3.85742C103.596 4.12484 103.553 4.3343 103.541 4.54297C103.488 5.489 103.425 6.36688 103.425 6.72852C103.425 7.28059 102.977 7.72852 102.425 7.72852C101.873 7.72837 101.425 7.2805 101.425 6.72852Z" fill="black"/>
<path d="M92.7436 10.1847C93.2876 10.0895 93.8057 10.4541 93.9008 10.9981C93.9957 11.542 93.6322 12.0602 93.0883 12.1554C92.8203 12.2022 92.6201 12.2263 92.4633 12.2423C92.2818 12.2607 92.2425 12.2619 92.1869 12.2706C92.1549 12.2756 92.1198 12.2838 92.0551 12.3018C92.0058 12.3156 91.884 12.3516 91.7651 12.3751L91.7211 12.3839L91.6762 12.3888C91.1651 12.4428 90.8461 12.495 90.4858 12.671C90.2923 12.7655 90.1384 12.8898 89.8061 13.1378C89.495 13.3699 89.0987 13.6496 88.5453 13.8917C87.7368 14.2454 87.0742 14.4902 86.8129 14.5645C86.2818 14.7156 85.7288 14.4081 85.5776 13.877C85.4264 13.3458 85.7348 12.7928 86.266 12.6417C86.3941 12.6052 86.9566 12.4039 87.7436 12.0597C88.091 11.9077 88.3453 11.7326 88.6098 11.5352C88.8531 11.3537 89.2003 11.0732 89.6078 10.8741C90.272 10.5497 90.8647 10.4662 91.3988 10.4083C91.4178 10.4035 91.4476 10.3947 91.518 10.3751C91.6026 10.3515 91.7276 10.3175 91.8774 10.294C92.0037 10.2742 92.1668 10.2616 92.2611 10.252C92.3805 10.2399 92.5317 10.2217 92.7436 10.1847Z" fill="black"/>
<path d="M102.422 11.4132C102.844 11.0568 103.475 11.1096 103.832 11.5313C104.01 11.7427 104.593 12.1707 105.274 12.5391C105.83 12.8195 106.36 13.1599 107.058 13.8575L107.093 13.8926L107.124 13.9307C107.224 14.0521 107.338 14.2087 107.427 14.4327C107.506 14.631 107.548 14.8386 107.58 15.043C107.665 15.5887 107.291 16.1005 106.746 16.1856C106.2 16.2706 105.689 15.8971 105.604 15.3516C105.593 15.2835 105.584 15.2377 105.577 15.2071C105.066 14.7081 104.723 14.4999 104.352 14.3145L104.338 14.3077L104.324 14.2999C103.603 13.9101 102.738 13.3356 102.304 12.8223C101.948 12.4005 102.001 11.7696 102.422 11.4132Z" fill="black"/>
<path d="M90.7735 15.5846C91.2462 15.4372 91.7606 15.6607 91.9737 16.1148C92.0183 16.1228 92.0634 16.1319 92.1085 16.1451L92.2159 16.1812L92.3243 16.2301C92.574 16.3549 92.7901 16.5663 92.9181 16.8707C93.0334 17.1453 93.0526 17.441 93.0489 17.6949C93.0345 18.671 93.0238 19.4171 92.963 19.9732C92.901 20.5391 92.774 21.0736 92.4083 21.5299C92.3174 21.6433 92.2332 21.7648 92.1143 21.9303C92.0053 22.082 91.869 22.2683 91.712 22.4439C91.3931 22.8006 90.8994 23.2119 90.1651 23.2701C89.7631 23.302 89.3831 23.2966 89.0538 23.2467C88.7823 23.2055 88.3363 23.1063 88.0128 22.7828C87.6035 22.3735 87.3613 21.6888 87.5011 20.9518C87.6115 20.37 87.8629 19.4446 88.3389 18.5943C88.5338 18.2463 88.8898 17.4524 89.3878 16.8424C89.5768 16.6109 89.7741 16.3743 89.9552 16.1812C90.0459 16.0845 90.1453 15.9842 90.2481 15.8961C90.3389 15.8183 90.4887 15.7004 90.6778 15.6197L90.7735 15.5846ZM90.9542 19.8912C90.9174 20.0139 90.8829 20.142 90.8507 20.273C90.8672 20.251 90.9135 20.1724 90.9542 19.8912Z" fill="black"/>
<path d="M100.921 17.972C101.256 17.7494 101.676 17.7571 101.998 17.9554C102.024 17.9454 102.048 17.9328 102.075 17.9241L102.249 17.8792C102.458 17.841 102.76 17.8374 103.067 18.013C103.464 18.2401 103.612 18.6145 103.659 18.9046L103.674 19.0227L103.691 19.3079C103.722 19.9642 103.678 20.5518 103.66 20.8645C103.611 21.7199 103.361 22.8759 103.015 23.8323C102.905 24.1351 102.768 24.5271 102.577 24.8704C102.372 25.2376 102.07 25.6186 101.587 25.8724C101.106 26.1249 100.616 26.1712 100.161 26.0755C100.151 26.0734 99.8247 26.0211 99.6161 25.9515C99.3688 25.8689 98.8849 25.6498 98.6835 25.0784C98.4703 24.4733 98.3756 23.7423 98.3554 23.1194C98.3451 22.8006 98.354 22.4864 98.3818 22.2054C98.4077 21.943 98.4569 21.6409 98.5605 21.3821C98.7783 20.838 99.0879 20.2154 99.4697 19.6448C99.7203 19.2702 99.9969 18.9168 100.235 18.6399C100.355 18.5013 100.47 18.3753 100.572 18.2718C100.656 18.1869 100.785 18.0618 100.921 17.972Z" fill="black"/>
<path d="M86.3997 22.6127C86.9379 22.4892 87.4744 22.8255 87.598 23.3636C87.6056 23.3966 87.6503 23.5205 87.762 23.6976C87.8677 23.8651 87.9991 24.0258 88.1302 24.1439C88.1406 24.1531 88.212 24.2028 88.4437 24.2484C88.5517 24.2697 88.668 24.2859 88.806 24.3031C88.9296 24.3185 89.0968 24.3376 89.2464 24.3646L89.2611 24.3676L89.2747 24.3705C89.422 24.4015 89.7965 24.4314 90.3226 24.4193C90.3936 24.4145 90.4362 24.4093 90.4632 24.4047C90.4936 24.3994 90.5183 24.3936 90.5755 24.3793C91.1113 24.2453 91.6545 24.571 91.7884 25.1068C91.9223 25.6426 91.5966 26.1858 91.0609 26.3197C90.9147 26.3562 90.7386 26.3984 90.4281 26.4174L90.4095 26.4183L90.3919 26.4193C89.825 26.4334 89.2708 26.407 88.8909 26.3314V26.3324C88.8096 26.3177 88.7128 26.3068 88.5579 26.2875C88.4175 26.2699 88.2399 26.2473 88.057 26.2113C87.7083 26.1426 87.2061 26.0029 86.7913 25.6293C86.253 25.1442 85.787 24.4129 85.6488 23.8109C85.5253 23.2727 85.8615 22.7363 86.3997 22.6127Z" fill="black"/>
<path d="M98.0819 26.1524C98.4724 25.7618 99.1054 25.7618 99.4959 26.1524C99.854 26.5104 100.169 26.7418 100.449 26.8506C100.739 26.8446 100.975 26.7874 101.136 26.707C101.331 26.6095 101.45 26.5466 101.573 26.4395C101.99 26.0775 102.622 26.1229 102.984 26.5401C103.346 26.9571 103.301 27.5883 102.885 27.9502C102.552 28.2389 102.227 28.3974 102.03 28.4961C101.488 28.7672 100.865 28.8696 100.266 28.8516L100.145 28.8477L100.029 28.8154C99.218 28.5904 98.5668 28.0513 98.0819 27.5664C97.6914 27.1759 97.6914 26.5429 98.0819 26.1524Z" fill="black"/>
<path d="M91.0383 29.2295C92.1866 29.216 94.3519 29.1698 95.5373 29.2461C96.9016 29.3339 97.4524 29.4511 98.1428 29.584C98.6394 29.6796 99.2008 29.777 99.5969 29.8555C100.01 29.9373 100.433 30.0323 100.774 30.1699C101.253 30.3634 101.703 30.5146 102.245 30.6641C102.881 30.8392 103.487 31.0755 104.158 31.4932C104.573 31.7512 104.906 31.9733 105.13 32.1182C105.247 32.194 105.327 32.2438 105.384 32.2764C105.402 32.2866 105.414 32.2924 105.421 32.2959C105.911 32.4725 106.188 33.001 106.043 33.5098C105.892 34.0408 105.339 34.3484 104.808 34.1973C104.634 34.1477 104.479 34.0627 104.389 34.0107C104.282 33.9495 104.164 33.8742 104.044 33.7969C103.794 33.635 103.498 33.4372 103.103 33.1914C102.622 32.8921 102.198 32.7264 101.713 32.5928C101.103 32.4245 100.58 32.2486 100.025 32.0244C99.877 31.9649 99.6226 31.8995 99.2082 31.8174C98.7768 31.7319 98.36 31.6624 97.7648 31.5479C97.1099 31.4218 96.6524 31.3222 95.4094 31.2422C94.3233 31.1723 92.2751 31.2153 91.0617 31.2295C89.4168 31.2488 88.8966 31.4188 88.2912 31.5225C87.3157 31.6895 86.7526 31.6932 86.3674 31.7285C86.0148 31.7609 85.7023 31.8656 85.2492 32.0977C84.6872 32.3854 84.0358 32.5787 83.342 32.7822C82.7 32.9706 82.5316 33.234 81.8976 33.6768C81.6316 33.8627 81.496 34.1059 81.3117 34.6836C81.2667 34.8248 81.2764 34.9198 81.3205 35.0557C81.3489 35.1431 81.3868 35.2313 81.4475 35.3711C81.5008 35.4939 81.5795 35.6753 81.6379 35.8711C81.7356 36.1985 82.0106 36.5793 82.425 37.0977C83.0001 37.817 83.2567 38.1541 83.6301 38.4932C84.2221 39.0307 84.5141 39.2249 84.8039 39.3096C85.1462 39.4096 85.4482 39.4413 85.7551 39.4629C86.0111 39.4809 86.4476 39.4935 86.8195 39.6025C87.2106 39.7172 87.5462 39.9119 87.8019 40.0586C88.0768 40.2162 88.3241 40.3596 88.6418 40.4922C88.9052 40.6021 89.1097 40.6666 89.4484 40.7959C89.7479 40.9102 90.0941 41.0561 90.4318 41.2715C90.5079 41.3199 90.6251 41.368 90.8342 41.4199C90.9378 41.4457 91.0502 41.4699 91.1838 41.4971C91.3114 41.523 91.4624 41.5529 91.6144 41.5879C92.0269 41.6829 92.537 41.7721 95.2004 41.8145C95.7377 41.823 96.3672 41.8632 96.9377 41.8897C97.531 41.9171 98.0913 41.9315 98.5822 41.9004C100.016 41.8095 100.467 41.676 100.785 41.5566C101.39 41.3301 102.233 41.1705 102.795 41.0635C103.283 40.9706 103.76 40.7526 104.044 40.5606C104.29 40.3942 104.544 40.067 104.868 39.543C104.978 39.3152 105.06 39.1093 105.135 38.9111C105.198 38.7461 105.3 38.4609 105.435 38.2451L105.456 38.21L105.482 38.1768C105.619 37.9929 105.791 37.8233 105.968 37.6465C106.358 37.256 106.992 37.256 107.383 37.6465C107.773 38.0369 107.773 38.67 107.383 39.0606C107.224 39.2194 107.155 39.2913 107.117 39.334C107.113 39.3433 107.108 39.3554 107.103 39.3691C107.076 39.4325 107.048 39.5088 107.005 39.6211C106.924 39.8356 106.812 40.1279 106.65 40.459L106.629 40.502L106.604 40.543C106.27 41.086 105.814 41.7784 105.164 42.2178C104.664 42.5559 103.934 42.8827 103.169 43.0283C102.555 43.1453 101.899 43.2756 101.487 43.4297C100.91 43.6459 100.241 43.7994 98.7092 43.8965C98.1019 43.935 97.4487 43.9157 96.8449 43.8877C96.2184 43.8587 95.6665 43.8224 95.1691 43.8145C92.5072 43.7721 91.8055 43.6846 91.1652 43.5371C91.0444 43.5093 90.9241 43.4843 90.7853 43.4561C90.6526 43.4291 90.5025 43.3985 90.3527 43.3613C90.0553 43.2874 89.6969 43.1747 89.3557 42.957C89.1885 42.8504 88.9908 42.7615 88.7355 42.6641C88.5194 42.5816 88.1575 42.4573 87.8713 42.3379C87.4202 42.1496 87.0685 41.943 86.8068 41.793C86.526 41.632 86.3863 41.5606 86.256 41.5225C86.1516 41.4919 86.0242 41.4868 85.6144 41.458C85.2552 41.4328 84.7876 41.3888 84.2424 41.2295C83.4702 41.0037 82.8815 40.515 82.2853 39.9736C81.7644 39.5006 81.3901 39.0066 80.8625 38.3467C80.4943 37.8862 79.9498 37.2063 79.7219 36.4424C79.7031 36.3794 79.6723 36.3048 79.6125 36.167C79.56 36.0461 79.4814 35.8678 79.4182 35.6729C79.2788 35.2434 79.2047 34.7089 79.4064 34.0762C79.6147 33.4232 79.9148 32.6226 80.7531 32.0371C81.043 31.8346 81.7191 31.1744 82.7795 30.8633C83.5125 30.6482 83.9744 30.5037 84.3381 30.3174C84.9201 30.0193 85.4866 29.8013 86.1838 29.7373C86.7223 29.6879 87.0775 29.7007 87.9533 29.5508C88.4947 29.4581 89.1977 29.2511 91.0383 29.2295Z" fill="black"/>
<path d="M80.9841 47.3202C81.4921 47.1034 82.0799 47.3396 82.2966 47.8475C82.5134 48.3555 82.2773 48.9432 81.7693 49.16C81.6066 49.2295 81.1483 49.5374 80.6209 50.1043C80.1136 50.6496 79.6225 51.3501 79.3279 52.1219C79.0297 52.9032 78.762 53.6937 78.49 54.5018C78.22 55.3041 77.9449 56.1266 77.6394 56.9422C77.0707 58.4608 76.4701 60.2546 76.0857 61.9374C75.6674 63.7688 75.2761 65.4364 74.5955 67.1151C74.3132 67.8113 74.1159 68.547 73.908 69.3788C73.7039 70.1953 73.4883 71.1095 73.1765 72.0711C72.94 72.801 72.7759 73.6021 72.5965 74.5155C72.4202 75.4129 72.231 76.4097 71.947 77.4481C71.4668 79.2047 71.0904 81.1622 70.4412 83.1639C69.8577 84.963 69.5281 86.7036 69.2849 88.4647C69.0131 90.4334 68.9458 96.042 69.2341 99.7782C69.5262 101.202 69.7674 102.399 69.9343 103.337L70.0779 104.196L70.0808 104.221L70.0838 104.244C70.146 104.857 70.1406 105.067 70.2996 105.338C70.5796 105.814 70.421 106.427 69.9451 106.707C69.4691 106.987 68.856 106.828 68.5759 106.352C68.1475 105.624 68.1327 104.866 68.0955 104.472C67.9499 103.511 67.6605 102.054 67.2634 100.12L67.2507 100.059L67.2459 99.9969C66.9459 96.1848 67.0039 90.3677 67.3045 88.1913C67.5567 86.3648 67.9059 84.498 68.5388 82.5467C69.182 80.5639 69.472 78.919 70.0183 76.9208C70.2791 75.9669 70.4533 75.0475 70.6336 74.1297C70.8107 73.228 70.9954 72.314 71.2742 71.454C71.5593 70.5743 71.7549 69.7442 71.9675 68.8934C72.1764 68.0576 72.4021 67.2015 72.742 66.3631C73.3536 64.8543 73.7141 63.337 74.1355 61.492C74.5481 59.6857 75.1829 57.7979 75.7664 56.2401C76.0577 55.4622 76.3216 54.6739 76.5945 53.8631C76.8655 53.058 77.1454 52.2317 77.4597 51.4081C77.8679 50.3388 78.5218 49.4248 79.157 48.742C79.7722 48.0808 80.4544 47.5462 80.9841 47.3202Z" fill="black"/>
<path d="M70.2436 105.446C70.7935 105.396 71.2798 105.802 71.3295 106.352C71.3722 106.824 71.5297 107.628 71.7563 108.679C71.9762 109.7 72.2541 110.926 72.5053 112.153C72.8947 114.056 73.5585 115.932 74.2211 118.079C74.9231 120.353 76.1186 123.226 77.1898 126.189C77.8825 128.105 78.5213 129.841 79.351 131.695C80.2099 133.614 81.0035 135.196 81.6147 136.828C82.2085 138.413 82.699 139.983 83.4242 141.529C83.8339 142.402 84.0551 143.363 84.1156 144.168C84.1771 144.987 83.8175 145.623 83.2758 146.05C82.791 146.433 82.1705 146.646 81.6156 146.788C81.0451 146.933 80.4164 147.031 79.8578 147.12C79.2747 147.212 78.7706 147.293 78.3568 147.402C76.4515 147.906 74.8014 148.214 73.1293 148.559C72.0381 148.784 71.013 148.876 69.9672 148.971C68.9137 149.067 67.8128 149.17 66.4926 149.409C64.5414 149.762 63.0164 150.265 61.4867 150.932C59.8193 151.66 58.1373 152.085 56.2035 152.666C54.949 153.042 53.867 153.148 52.9135 153.225C51.9421 153.304 51.1665 153.35 50.3539 153.569L50.2846 153.587L50.2133 153.596C49.359 153.699 48.5438 153.799 46.5492 153.95L46.5277 153.952H46.5053C44.903 154.003 42.1248 154.003 39.2924 154.003C38.7401 154.003 38.2924 153.556 38.2924 153.003C38.2924 152.451 38.7401 152.003 39.2924 152.003C42.1263 152.003 44.8484 152.003 46.4145 151.954C48.3164 151.81 49.1067 151.714 49.9193 151.617C50.9175 151.359 51.8733 151.303 52.7523 151.232C53.6744 151.158 54.5836 151.064 55.6283 150.751C57.673 150.137 59.1646 149.763 60.6869 149.099C62.3448 148.376 64.0183 147.825 66.1361 147.441C67.5514 147.185 68.7302 147.076 69.7856 146.98C70.8485 146.883 71.762 146.8 72.725 146.601C74.4374 146.248 76.0087 145.954 77.8451 145.468C78.3768 145.328 78.9898 145.232 79.5453 145.144C80.1255 145.052 80.6584 144.967 81.1225 144.849C81.6018 144.727 81.8896 144.597 82.0375 144.48C82.1282 144.408 82.1267 144.388 82.1215 144.318C82.0775 143.732 81.9098 143.012 81.6127 142.378C80.8427 140.737 80.2852 138.98 79.7416 137.529C79.1589 135.973 78.4342 134.541 77.5258 132.511C76.6631 130.584 76.0023 128.786 75.309 126.869C74.291 124.053 73.027 120.992 72.31 118.668C71.6802 116.628 70.9617 114.583 70.5463 112.553C70.2975 111.338 70.0278 110.152 69.8012 109.1C69.5813 108.08 69.3931 107.149 69.3373 106.532C69.2877 105.982 69.6936 105.496 70.2436 105.446Z" fill="black"/>
<path d="M39.914 152.041C40.4452 151.89 40.9982 152.199 41.1493 152.73C41.2877 153.217 41.0405 153.72 40.5898 153.917C40.5895 156.329 40.5874 158.635 40.54 160.069C40.4883 161.63 40.3863 162.24 40.1884 162.83L40.1777 162.861L40.165 162.892C39.795 163.789 38.9619 165.304 37.1454 165.491C36.4529 165.562 35.6615 165.649 34.9872 165.629C34.6455 165.619 34.2792 165.581 33.9365 165.474C33.5907 165.366 33.2071 165.17 32.9238 164.8C32.2546 163.928 31.7734 162.406 32.0937 160.763C32.4969 158.696 33.9956 156.478 35.6806 154.904C36.4923 154.145 37.3177 153.504 38.039 153.021C38.7321 152.557 39.4097 152.185 39.914 152.041ZM38.5878 155.081C38.0984 155.442 37.5698 155.875 37.0458 156.365C35.5447 157.767 34.3518 159.632 34.0566 161.146C33.852 162.195 34.1724 163.112 34.4863 163.547C34.4965 163.552 34.511 163.559 34.5312 163.565C34.6313 163.596 34.7965 163.623 35.0468 163.63C35.5577 163.646 36.1937 163.578 36.9413 163.501C37.5581 163.438 37.9762 162.933 38.2997 162.163C38.3994 161.859 38.4927 161.461 38.5409 160.002C38.5796 158.833 38.5858 157.051 38.5878 155.081Z" fill="black"/>
<path d="M69.4178 105.738C69.4178 105.186 69.8655 104.738 70.4178 104.738C70.97 104.738 71.4178 105.186 71.4178 105.738C71.4178 107.351 71.5716 109.378 71.6922 110.851C71.803 112.206 72.0375 113.744 72.3152 115.368C72.6707 117.446 72.8473 121.182 73.0428 124.797C73.1818 127.368 73.2315 129.69 73.2761 131.582C73.3214 133.502 73.3611 134.919 73.4715 135.762C73.7663 138.013 73.8488 139.598 73.8767 140.815C73.9056 142.076 73.8783 142.795 73.9519 143.5C74.0518 144.456 73.697 145.311 73.3386 145.988C73.1562 146.333 72.9489 146.674 72.7654 146.98C72.5755 147.297 72.407 147.582 72.2674 147.861C71.9227 148.55 71.5262 149.217 71.156 149.844C70.779 150.484 70.4263 151.087 70.1287 151.701C69.4355 153.13 68.7271 154.701 68.2263 156.122C67.9187 156.994 67.5367 157.87 67.1629 158.706C66.7834 159.554 66.4164 160.351 66.1082 161.122C65.5093 162.619 64.9759 164.207 64.1873 165.394C63.904 165.821 63.7196 166.368 63.5213 167.069C63.3374 167.719 63.1325 168.545 62.7898 169.275C62.2771 170.368 61.7834 171.702 60.9754 172.932C60.5703 173.549 60.1113 174.112 59.6678 174.637C59.2225 175.164 58.8062 175.636 58.4138 176.139C58.0304 176.76 57.605 177.386 57.1941 177.988C56.7649 178.617 56.3531 179.221 55.99 179.813L55.9724 179.842L55.9529 179.87C55.8285 180.045 55.6614 180.252 55.4529 180.424C55.2526 180.59 54.9193 180.802 54.4793 180.81C53.9272 180.821 53.4707 180.383 53.4597 179.831C53.4504 179.355 53.7758 178.95 54.2195 178.84C54.2224 178.837 54.2261 178.834 54.2293 178.831C54.2537 178.803 54.2816 178.768 54.3123 178.725C54.6986 178.099 55.1285 177.468 55.5428 176.861C55.972 176.232 56.3844 175.628 56.7469 175.037L56.7752 174.99L56.8094 174.946C57.243 174.387 57.7181 173.845 58.1394 173.346C58.5723 172.834 58.9674 172.346 59.3035 171.835C60.0077 170.762 60.3698 169.725 60.9793 168.425C61.2332 167.884 61.3851 167.275 61.5974 166.524C61.7953 165.824 62.0471 165.002 62.5213 164.288C63.1591 163.327 63.5789 162.062 64.2517 160.38C64.5794 159.56 64.9711 158.708 65.3377 157.888C65.7099 157.056 66.0616 156.246 66.3396 155.457C66.8773 153.931 67.6237 152.282 68.3289 150.828C68.6672 150.13 69.0607 149.461 69.4334 148.829C69.8129 148.185 70.1706 147.582 70.4783 146.966C70.6566 146.61 70.8625 146.264 71.0506 145.951C71.2452 145.626 71.4197 145.338 71.5711 145.052C71.88 144.469 71.9988 144.055 71.9627 143.708C71.8779 142.897 71.9022 141.972 71.8767 140.861C71.8503 139.707 71.7734 138.194 71.489 136.022C71.3613 135.047 71.3212 133.497 71.2771 131.629C71.2324 129.731 71.1828 127.441 71.0457 124.906C70.8458 121.209 70.6749 117.636 70.3445 115.705C70.065 114.071 69.8164 112.461 69.698 111.014C69.5781 109.549 69.4178 107.445 69.4178 105.738Z" fill="black"/>
<path d="M58.9381 176.786C61.5703 176.746 63.3727 177.076 65.2623 177.907C66.5312 178.466 68.1531 179.116 69.3736 180.525C69.6797 180.879 70.2188 181.606 70.5221 182.357C70.6692 182.722 70.8141 183.22 70.7398 183.732C70.7001 184.006 70.5958 184.294 70.3902 184.551C70.1844 184.808 69.9165 184.983 69.6265 185.093C67.9161 185.74 65.5798 186.088 63.5621 186.188C62.5447 186.238 61.5744 186.227 60.7701 186.15C60.3686 186.112 59.9912 186.056 59.6617 185.978C59.3504 185.903 59.0033 185.791 58.7174 185.601C58.5886 185.515 58.3653 185.429 57.9957 185.338C57.8192 185.295 57.6327 185.256 57.4263 185.213C57.226 185.171 57.0048 185.125 56.7887 185.072C56.3718 184.971 55.8665 184.822 55.4342 184.541C54.9639 184.236 54.5635 183.763 54.4449 183.074C54.2839 182.14 54.2706 181.319 54.2691 180.802C53.9094 180.393 53.9425 179.77 54.3472 179.402C55.2531 178.58 55.7446 178.172 56.2359 177.901L56.2857 177.873L56.3385 177.852C56.6678 177.716 56.9923 177.569 57.357 177.402C57.7178 177.238 58.1139 177.056 58.564 176.865L58.7437 176.789L58.9381 176.786ZM59.1646 178.784C58.8165 178.934 58.4996 179.079 58.1881 179.222C57.8528 179.375 57.5183 179.526 57.1744 179.669C56.9821 179.779 56.7396 179.955 56.2359 180.396C56.2554 180.474 56.2672 180.555 56.2672 180.639C56.2672 181.124 56.2687 181.876 56.4166 182.734C56.4227 182.77 56.4246 182.799 56.523 182.863C56.6594 182.952 56.8894 183.038 57.2613 183.129C57.4397 183.172 57.6273 183.212 57.8346 183.255C58.0355 183.297 58.2562 183.343 58.4722 183.396C58.8881 183.498 59.3935 183.649 59.8238 183.935C59.8239 183.934 59.9045 183.979 60.1265 184.032C60.3376 184.083 60.617 184.127 60.9596 184.159C61.644 184.224 62.5142 184.237 63.4635 184.19C65.2973 184.1 67.3027 183.793 68.7301 183.29C68.7163 183.241 68.6966 183.18 68.6666 183.106C68.4774 182.636 68.0914 182.1 67.8619 181.835C66.9916 180.83 65.8303 180.343 64.4566 179.738C62.9276 179.066 61.4618 178.766 59.1646 178.784Z" fill="black"/>
<path d="M79.9336 47.8957C80.1285 47.8465 80.4892 47.7679 80.8604 47.8645L81.0195 47.9172L81.1123 47.9602C81.5603 48.1972 81.7649 48.7402 81.5703 49.22C81.3882 49.6686 80.9171 49.9129 80.459 49.8264C80.4486 49.8287 80.4363 49.8308 80.4229 49.8342C80.2908 49.8676 80.0892 49.9391 79.8047 50.0608C79.2384 50.303 78.488 50.6825 77.5654 51.1555C77.0121 51.4392 76.5273 51.8757 76.0449 52.4182C75.8045 52.6886 75.5736 52.9739 75.3359 53.2727C75.1037 53.5646 74.8584 53.8778 74.6104 54.1692C74.1692 54.6873 73.7178 55.328 73.2285 56.05C72.7495 56.757 72.23 57.5477 71.6875 58.2981C70.4819 59.9656 69.5625 61.6067 67.6074 64.6018C66.5712 66.1892 65.8462 67.5403 65.2656 68.6829C64.7002 69.7957 64.2269 70.8066 63.751 71.5862C63.0973 72.657 62.627 73.7593 62.3682 74.9768C62.3342 75.1364 62.3491 75.3325 62.4258 75.508C62.6626 76.0498 63.1129 76.4512 63.8076 76.8225C64.5558 77.2223 65.3292 77.4693 66.2939 77.8821C66.9668 78.17 67.6351 78.4837 68.2891 78.7873C68.9489 79.0937 69.6009 79.3931 70.2715 79.6682C71.901 80.3367 73.7807 81.4605 75.5957 82.3889C77.1161 83.1666 78.2385 83.7252 79.4492 84.0188C80.1957 84.1998 80.9668 84.3369 81.8086 84.4895C82.6404 84.6402 83.5303 84.8048 84.4619 85.0383C84.721 85.1033 84.9796 85.2002 85.1016 85.2414C85.2335 85.286 85.2786 85.2932 85.2861 85.2942C85.5389 85.2961 85.8662 85.137 86.5205 84.5657C87.0875 84.0706 87.8789 83.2836 88.8359 82.7122C89.7902 82.1424 90.8738 82.0331 92.0283 82.1213C93.5089 82.2345 94.6715 82.9049 95.2734 83.6858C95.648 84.1719 95.7556 84.7389 95.7832 85.1995C95.8108 85.6608 95.7629 86.1384 95.7236 86.5149C95.6069 87.6324 94.8862 88.6394 94.1387 89.4455C93.3647 90.2803 92.4049 91.0626 91.5654 91.72C90.6614 92.4276 89.549 92.2618 88.7666 92.0217C87.9471 91.7703 87.1201 91.3221 86.5322 91.009L86.4287 90.9534L86.3408 90.8762C85.4104 90.0554 84.9804 89.1003 84.8262 88.1262L84.8203 88.0813C84.8143 88.0279 84.8091 87.9763 84.8047 87.9319C84.8001 87.8856 84.7961 87.8477 84.792 87.8108C84.7838 87.737 84.7765 87.6888 84.7686 87.6516C84.756 87.5928 84.7442 87.5676 84.7227 87.5383C84.6383 87.4236 84.5821 87.2968 84.5527 87.1663C84.5204 87.1559 84.4898 87.1464 84.4619 87.137C84.2395 87.0619 84.1314 87.0168 83.9756 86.9778C83.1149 86.762 82.2831 86.608 81.4512 86.4573C80.629 86.3083 79.7933 86.161 78.9775 85.9631C77.4993 85.6046 76.1695 84.9282 74.6855 84.1692C72.6758 83.1412 71.0479 82.149 69.5117 81.5188C68.7952 81.2249 68.1072 80.9087 67.4463 80.6018C66.7794 80.2922 66.1457 79.9939 65.5078 79.7209C64.763 79.4023 63.7035 79.035 62.8652 78.5872C61.9736 78.1107 61.0831 77.4307 60.5928 76.3088C60.3473 75.747 60.2914 75.1256 60.4111 74.5618C60.7239 73.0903 61.2909 71.7778 62.0439 70.5442C62.4657 69.8534 62.8673 68.9871 63.4824 67.7766C64.0824 66.5959 64.8439 65.177 65.9326 63.509C67.7975 60.6521 68.8323 58.8333 70.0664 57.1262C70.5851 56.4087 71.0721 55.6676 71.5732 54.928C72.064 54.2037 72.5681 53.4827 73.0869 52.8733C73.3076 52.614 73.5265 52.3354 73.7715 52.0276C74.011 51.7265 74.2709 51.4038 74.5508 51.0891C75.1091 50.4612 75.786 49.8199 76.6533 49.3752C77.5599 48.9104 78.375 48.4968 79.0176 48.2219C79.3372 48.0852 79.6511 47.9671 79.9336 47.8957ZM91.876 84.1155C90.9206 84.0425 90.3137 84.159 89.8613 84.4289C89.1086 84.8784 88.539 85.4586 87.8359 86.0725C87.5055 86.3611 87.1057 86.6923 86.6377 86.9377C86.7702 87.3138 86.7873 87.6509 86.8047 87.8293C86.8921 88.365 87.1067 88.8506 87.5898 89.3049C88.1847 89.6212 88.7905 89.9369 89.3535 90.1096C89.9901 90.3049 90.2412 90.2167 90.333 90.1448C91.1653 89.493 92.0147 88.7939 92.6719 88.0852C93.3554 87.348 93.6883 86.7482 93.7344 86.3069C93.7756 85.9118 93.8035 85.5918 93.7871 85.3186C93.7707 85.045 93.7152 84.9399 93.6895 84.9065C93.4781 84.6323 92.8682 84.1913 91.876 84.1155Z" fill="black"/>
<path d="M80.8646 49.8209C80.8646 49.2686 81.3123 48.8209 81.8646 48.8209C82.4169 48.8209 82.8646 49.2686 82.8646 49.8209C82.8646 50.3802 83.014 51.9352 83.3324 53.527C83.5023 54.3768 83.6278 55.7997 83.7357 57.3131C83.8424 58.8092 83.9446 60.5909 84.0423 61.9977C84.1683 63.81 84.3216 65.3801 84.7523 67.3473C85.1451 69.1411 85.467 70.6751 85.5912 77.0914C85.6145 78.2966 85.7102 79.0599 85.8353 79.7008C86.366 79.4817 86.8618 79.0773 87.4066 78.5446C87.9419 78.0212 88.6321 77.2492 89.3304 76.7906C90.6452 75.9273 92.3216 75.1862 93.9789 74.6754C96.3668 73.9394 97.6359 73.4144 99.6224 72.7682C101.555 72.1394 103.39 71.5233 105.12 70.6998C106.082 70.2423 106.441 70.1471 106.733 69.6647C107.132 69.0053 107.215 68.2551 107.211 67.4596C107.21 67.2621 107.204 67.0704 107.199 66.8746C107.193 66.685 107.187 66.4845 107.189 66.2955C107.191 65.9631 107.211 65.4627 107.436 65.0338C107.73 64.4749 108.205 63.9811 108.687 63.5651C109.18 63.1392 109.748 62.7385 110.291 62.3815C110.667 62.1348 111.101 62.0068 111.561 62.0582C112.003 62.1077 112.368 62.3119 112.649 62.5397C113.184 62.9741 113.599 63.6477 113.918 64.2692C114.251 64.9171 114.545 65.6419 114.793 66.278C115.053 66.9425 115.25 67.4738 115.417 67.8346C115.616 68.2626 115.632 68.7134 115.6 69.0631C115.567 69.4247 115.476 69.7715 115.374 70.0553C115.148 70.6893 114.744 71.1744 114.351 71.5475C113.969 71.9108 113.525 72.2319 113.212 72.4713L113.033 72.609L112.811 72.6559C111.854 72.8582 110.962 72.9179 110.205 72.8785C109.471 72.8404 108.788 72.7047 108.289 72.4557C108.128 72.3749 108.01 72.3166 107.844 72.2565C107.677 72.1957 107.441 72.126 107.068 72.0504C107.039 72.0447 107.012 72.0369 106.985 72.0289C106.61 72.2322 106.253 72.3757 105.98 72.5055C104.118 73.3916 102.168 74.0426 100.241 74.6696C98.4805 75.2421 96.8864 75.8728 94.5677 76.5875C93.0476 77.0561 91.5517 77.7247 90.4281 78.4625C89.9456 78.7794 89.5132 79.2818 88.805 79.9742C88.1667 80.5984 87.3457 81.3207 86.2816 81.6696C86.0316 81.7515 85.6673 81.8339 85.2982 81.8053C84.946 81.7779 84.2146 81.5881 84.0238 80.7789C83.8082 79.8645 83.6264 78.901 83.5921 77.1295C83.4697 70.8013 83.156 69.4049 82.7992 67.775C82.3385 65.6711 82.1752 63.9916 82.0462 62.1364C81.9413 60.6271 81.8517 59.0133 81.7406 57.4547C81.6307 55.9134 81.5121 54.6217 81.3714 53.9186C81.0377 52.2497 80.8646 50.556 80.8646 49.8209ZM111.359 64.0729C110.857 64.4032 110.384 64.742 109.994 65.0787C109.584 65.432 109.328 65.7324 109.206 65.9645C109.229 65.9215 109.191 65.9743 109.189 66.3112C109.188 66.4567 109.192 66.6197 109.198 66.816C109.203 67.0064 109.21 67.2236 109.211 67.4508C109.215 68.2775 109.145 69.3567 108.605 70.4078C108.832 70.4949 109.011 70.5802 109.184 70.6666C109.336 70.7423 109.711 70.8503 110.31 70.8815C110.834 70.9087 111.474 70.873 112.181 70.7408C112.479 70.515 112.738 70.3204 112.973 70.0973C113.245 69.8387 113.41 69.6091 113.491 69.3834C113.551 69.2154 113.594 69.0364 113.608 68.8824C113.623 68.7184 113.597 68.6626 113.603 68.6754C113.401 68.2406 113.165 67.6065 112.93 67.0055C112.684 66.3757 112.422 65.7334 112.139 65.1832C111.843 64.6065 111.583 64.2505 111.388 64.0924C111.378 64.084 111.367 64.0789 111.359 64.0729Z" fill="black"/>
<path d="M114.883 56.31C115.629 56.2072 116.201 56.6306 116.6 57.0678C116.999 57.5054 117.33 58.0745 117.576 58.4682L117.603 58.5102L117.62 58.5571C117.948 59.4235 118.164 60.2927 118.372 61.1235C118.477 61.544 118.581 61.9584 118.688 62.3852C118.755 62.653 118.592 62.9246 118.324 62.9916C118.056 63.0586 117.785 62.8953 117.718 62.6274C117.611 62.2006 117.508 61.7862 117.402 61.3657C117.197 60.5423 116.995 59.7443 116.7 58.9555C116.434 58.5278 116.172 58.0823 115.861 57.7416C115.54 57.389 115.272 57.2655 115.02 57.3002C114.473 57.3756 114.075 57.4855 113.827 57.5883C113.735 57.6267 113.675 57.6601 113.639 57.6831C113.562 57.8602 113.386 57.9848 113.181 57.9848C112.939 57.9848 112.737 57.8132 112.691 57.5854L112.681 57.4848C112.681 57.1918 112.883 57.0038 112.984 56.9233C113.11 56.8218 113.271 56.7362 113.443 56.6645C113.794 56.5191 114.281 56.3931 114.883 56.31ZM113.673 57.559C113.677 57.5367 113.681 57.5121 113.681 57.4848C113.681 57.5102 113.677 57.5347 113.673 57.559Z" fill="black"/>
<path d="M118.638 74.89C118.906 74.9571 119.068 75.2287 119.001 75.4965C118.898 75.9104 118.781 76.3952 118.528 76.8334L118.511 76.8627L118.491 76.889C117.943 77.6002 117.287 78.253 116.6 78.8861L116.541 78.9408L116.469 78.974C114.281 79.9737 111.441 79.7422 110.311 79.64C110.036 79.6152 109.833 79.372 109.858 79.097C109.883 78.8221 110.126 78.6191 110.401 78.6439C111.548 78.7476 114.077 78.9313 115.983 78.0931C116.62 77.5027 117.198 76.9214 117.675 76.307C117.836 76.0168 117.925 75.6809 118.032 75.2543C118.099 74.9864 118.37 74.823 118.638 74.89Z" fill="black"/>
<path d="M95.8951 91.0128C96.0995 90.8272 96.4165 90.8426 96.6021 91.047C96.7874 91.2514 96.7721 91.5675 96.5679 91.753C95.3989 92.8146 94.8516 93.2554 94.0162 93.755L94.0074 93.7599L93.9986 93.7657C93.0592 94.2754 92.1725 94.6424 91.3814 94.8556C90.5977 95.0668 89.8716 95.1358 89.2691 95.0089L89.2574 95.0069C88.8025 94.8999 88.4342 94.7845 88.1695 94.6554C88.0384 94.5914 87.9045 94.5113 87.7974 94.4054C87.6889 94.298 87.5709 94.1253 87.5709 93.8937C87.571 93.6176 87.7948 93.3937 88.0709 93.3937C88.2838 93.3937 88.4646 93.5274 88.5367 93.715C88.5534 93.7252 88.5755 93.7411 88.608 93.7569C88.7707 93.8363 89.0497 93.9297 89.4752 94.0304L89.6285 94.0558C90.0037 94.1017 90.5046 94.057 91.1216 93.8907C91.8198 93.7026 92.6322 93.368 93.5211 92.8859C94.2606 92.442 94.7508 92.0519 95.8951 91.0128Z" fill="black"/>
<path d="M99.4459 82.459C99.7262 82.2663 100.076 82.2889 100.343 82.3584C100.59 82.4225 100.859 82.5466 101.144 82.7227L101.434 82.9151L101.466 82.9385L101.496 82.9678C101.859 83.3281 102.221 83.9207 102.049 84.5508C101.964 84.864 101.753 85.1166 101.516 85.3858C101.258 85.6786 100.904 86.057 100.381 86.6817C100.204 86.8934 99.8892 86.9212 99.6773 86.7442C99.4657 86.567 99.4378 86.2519 99.6148 86.0401C100.147 85.4031 100.527 84.9948 100.765 84.7246C101.024 84.431 101.069 84.3436 101.085 84.2881C101.113 84.1845 101.065 83.9621 100.818 83.7061C100.497 83.4813 100.252 83.368 100.091 83.3262C100.036 83.3117 100.001 83.3083 99.9811 83.3076C99.7853 83.4536 99.5084 83.4395 99.3307 83.2617C99.1354 83.0665 99.1354 82.7499 99.3307 82.5547L99.4459 82.459Z" fill="black"/>
<path d="M51.0338 34.3856C51.3099 34.3857 51.5338 34.6095 51.5338 34.8856C51.5338 35.1617 51.3099 35.3856 51.0338 35.3856C48.3705 35.3856 44.1156 35.7963 36.7008 36.4774L36.693 36.4784H36.6842C32.1972 36.743 26.1344 36.8497 22.8717 37.0048C19.5698 37.1617 19.2516 37.3685 18.9284 37.5302C18.6814 37.6536 18.381 37.5534 18.2575 37.3065C18.134 37.0595 18.2342 36.7591 18.4811 36.6356C19.0116 36.3704 19.5221 36.1627 22.8239 36.0057C26.1614 35.8471 32.1043 35.7456 36.611 35.4803C43.9913 34.8024 48.3113 34.3856 51.0338 34.3856Z" fill="black"/>
<path d="M37.5374 79.8973C37.8134 79.8974 38.0374 80.1213 38.0374 80.3973C38.0374 80.6734 37.8134 80.8972 37.5374 80.8973H36.3948C35.6658 80.8973 34.4413 80.8972 33.2024 80.9989C31.9753 81.0996 30.7591 81.3009 28.5501 81.8251C28.2814 81.8888 28.0123 81.7226 27.9485 81.454C27.885 81.1854 28.051 80.9161 28.3196 80.8524C30.5545 80.3221 31.8242 80.1092 33.1204 80.0028C34.405 79.8974 35.6674 79.8973 36.3948 79.8973H37.5374Z" fill="black"/>
<path d="M46.8317 109.416C47.0996 109.349 47.3712 109.513 47.4381 109.78C47.505 110.048 47.3427 110.32 47.0749 110.387C46.6436 110.495 46.2155 110.6 43.6178 111.068C41.0165 111.537 36.2332 112.369 30.2848 112.85C24.3408 113.33 17.3831 113.434 10.2379 113.54C9.96192 113.544 9.7344 113.324 9.73013 113.048C9.72601 112.772 9.94637 112.544 10.2223 112.54C17.377 112.433 24.2992 112.33 30.2038 111.853C36.1038 111.376 40.85 110.551 43.4401 110.084C46.033 109.617 46.4345 109.515 46.8317 109.416Z" fill="black"/>
<path d="M13.3692 73.306C13.6452 73.3062 13.8692 73.53 13.8692 73.806C13.8692 74.082 13.6452 74.3058 13.3692 74.306H11.3477C9.53106 74.306 6.01589 74.3062 3.89848 74.3578C1.79479 74.409 1.19675 74.5102 0.582073 74.6126C0.309855 74.658 0.0524544 74.4746 0.00687738 74.2025C-0.0385212 73.9301 0.145625 73.6717 0.41801 73.6263C1.08381 73.5153 1.72948 73.4101 3.87504 73.3578C6.00753 73.3058 9.53609 73.306 11.3477 73.306H13.3692Z" fill="black"/>
<path d="M28.4349 56.9846C28.711 56.9846 28.9349 57.2084 28.9349 57.4846C28.9349 57.7607 28.711 57.9845 28.4349 57.9846H23.099C22.8228 57.9846 22.599 57.7607 22.599 57.4846C22.599 57.2084 22.8228 56.9846 23.099 56.9846H28.4349Z" fill="black"/>
<path d="M46.5822 12.2637C49.3703 12.2696 53.3864 12.3346 58.3039 12.4649H58.3127C61.9396 12.6224 62.8291 12.8318 63.7941 13.171C64.2507 13.3315 64.7181 13.5182 65.216 13.712C65.7174 13.9072 66.2603 14.1137 66.8859 14.3233C67.1477 14.411 67.2889 14.6944 67.2013 14.9561C67.1136 15.218 66.8304 15.3593 66.5685 15.2716C65.9202 15.0544 65.3599 14.8407 64.8537 14.6436C64.3438 14.4451 63.8984 14.2677 63.4621 14.1143C62.6418 13.826 61.8743 13.6203 58.2775 13.4639V13.4649C53.3644 13.3347 49.3572 13.2696 46.5802 13.2637C45.1909 13.2608 44.1139 13.2729 43.3869 13.2979C43.0217 13.3105 42.7539 13.3262 42.5822 13.3438C42.53 13.3492 42.4928 13.3546 42.4679 13.3585C42.4005 13.3924 42.3259 13.4141 42.2453 13.4141C41.9691 13.4141 41.7453 13.1903 41.7453 12.9141C41.7454 12.7416 41.8292 12.6206 41.8898 12.5577C41.9472 12.4982 42.0066 12.4653 42.0383 12.4493C42.1029 12.4168 42.1662 12.4002 42.2023 12.3917C42.2828 12.3726 42.3807 12.359 42.4806 12.3487C42.6871 12.3275 42.9819 12.3117 43.3527 12.2989C44.0981 12.2732 45.1892 12.2608 46.5822 12.2637Z" fill="black"/>
<path d="M46.5901 134.514C46.8647 134.487 47.1095 134.687 47.137 134.962C47.1644 135.236 46.9642 135.481 46.6897 135.508C45.6533 135.612 44.6198 135.716 43.6751 135.821C42.7035 135.929 41.855 136.032 37.6877 136.034C33.5275 136.035 26.0654 135.932 18.384 135.825C18.1079 135.821 17.887 135.594 17.8909 135.318C17.8949 135.042 18.1217 134.821 18.3977 134.825C26.0834 134.932 33.5366 135.035 37.6877 135.034C41.8312 135.032 42.6407 134.929 43.5647 134.827C44.5158 134.721 45.5549 134.618 46.5901 134.514Z" fill="black"/>
<path d="M45.384 174.373C45.4797 174.373 45.5684 174.394 45.6282 174.411C45.6955 174.431 45.7679 174.457 45.842 174.487C45.9906 174.546 46.1747 174.63 46.3909 174.737C46.8224 174.949 47.4126 175.263 48.1643 175.678C49.7311 176.487 51.5678 177.103 53.342 177.41C54.0975 177.511 54.5875 177.512 55.1145 177.512C55.3904 177.512 55.6145 177.736 55.6145 178.012C55.6145 178.288 55.3905 178.512 55.1145 178.512C54.5755 178.512 54.0301 178.512 53.2034 178.401L53.1946 178.4L53.1858 178.398C51.3073 178.075 49.3686 177.425 47.7063 176.567L47.6946 176.561V176.56C46.9396 176.143 46.3614 175.836 45.9494 175.633C45.743 175.532 45.5857 175.461 45.4729 175.416C45.4163 175.394 45.3774 175.38 45.3537 175.373C45.3231 175.365 45.3404 175.373 45.384 175.373C45.1079 175.373 44.884 175.15 44.884 174.873C44.884 174.597 45.1079 174.373 45.384 174.373Z" fill="black"/>
<path d="M30.0949 149.316C30.3418 149.193 30.6413 149.293 30.7648 149.54C30.8883 149.787 30.7882 150.087 30.5412 150.211C30.433 150.265 30.2277 150.429 29.9201 150.811C29.6234 151.18 29.261 151.713 28.8283 152.449C28.3642 153.324 27.866 154.425 27.6135 155.324C27.3766 156.167 27.3633 156.805 27.6711 158.461C27.7214 158.732 27.5421 158.993 27.2707 159.044C26.9992 159.094 26.7382 158.915 26.6877 158.643C26.3678 156.922 26.3539 156.109 26.6506 155.054C26.9312 154.055 27.4675 152.88 27.9475 151.975L27.9523 151.967L27.9582 151.957C28.4085 151.189 28.8013 150.607 29.1418 150.184C29.473 149.773 29.7887 149.469 30.0949 149.316Z" fill="black"/>
<path d="M30.7597 158.552C30.7597 158.098 30.7624 157.648 30.9843 156.6C31.2008 155.578 31.6198 154.005 31.8876 153.207C32.0175 152.819 32.1282 152.556 32.2509 152.389C32.3194 152.296 32.4153 152.2 32.5517 152.141C32.6854 152.084 32.8083 152.088 32.829 152.088C33.1052 152.088 33.329 152.312 33.329 152.588C33.329 152.796 33.2019 152.974 33.0214 153.049C33.0124 153.068 32.9994 153.089 32.9872 153.117C32.9475 153.207 32.8982 153.338 32.8359 153.524C32.5826 154.279 32.1722 155.814 31.9618 156.807C31.7571 157.774 31.7597 158.153 31.7597 158.552C31.7595 158.828 31.5357 159.052 31.2597 159.052C30.9836 159.052 30.7598 158.828 30.7597 158.552Z" fill="black"/>
</svg>
