<svg width="116" height="189" viewBox="0 0 116 189" fill="none" xmlns="http://www.w3.org/2000/svg">
<path d="M88.4643 10.1927C89.2873 10.1566 90.2063 10.1601 90.9115 10.1976C91.7108 10.2401 92.2523 10.3694 93.1313 10.4935C93.8698 10.5978 94.3973 10.7928 94.8783 10.9261C95.2676 11.034 95.9166 11.1781 96.4682 11.3861C96.9716 11.5759 97.8281 11.86 98.4281 12.1009C99.1433 12.3882 99.6453 12.6108 100.036 12.7845C100.434 12.9618 100.677 13.0706 100.921 13.1566C101.5 13.3606 102.087 13.6739 102.925 14.1459C103.56 14.5032 104.096 14.8792 104.422 15.0804C104.695 15.2485 104.948 15.4414 105.172 15.6146C105.407 15.7961 105.614 15.9594 105.843 16.1185C106.544 16.606 107.051 17.0668 107.534 17.514C107.68 17.6502 107.854 17.7868 108.067 17.9525C108.265 18.1073 108.505 18.2937 108.721 18.4925C109.035 18.7818 109.454 19.1605 109.802 19.6087C110.073 19.9582 110.391 20.3682 110.666 20.8539C110.917 21.2958 111.212 21.774 111.48 22.3216C111.744 22.8615 111.989 23.3358 112.215 23.9662C112.416 24.525 112.589 25.0661 112.746 26.1185C112.836 26.7144 112.928 27.2044 113.029 27.6058C113.123 27.9837 113.245 28.3516 113.389 28.7953C113.489 29.105 113.542 29.4574 113.58 29.682C113.627 29.953 113.662 30.1115 113.705 30.2191C113.816 30.4914 113.888 30.7587 113.946 30.9691C114.007 31.1943 114.053 31.365 114.118 31.5336C114.239 31.8519 114.336 32.1204 114.42 32.3578C114.506 32.598 114.577 32.797 114.654 32.9955C114.871 33.5595 115.058 34.2334 115.097 34.848C115.137 35.4905 115.168 36.3322 115.169 37.1048C115.171 37.8393 115.148 38.6255 115.051 39.0912C114.926 39.6959 114.852 40.1379 114.788 40.6156C114.723 41.1099 114.627 41.8028 114.449 42.4593C114.347 42.8316 114.229 43.3282 114.1 43.7552C113.943 44.2747 113.812 44.677 113.77 45.0248C113.735 45.3174 113.688 45.626 113.643 45.9173C113.597 46.2151 113.554 46.4932 113.52 46.7484C113.439 47.3644 113.297 48.1819 113.163 48.7738C113.134 48.9021 113.065 49.1544 112.853 49.388C112.638 49.6249 112.37 49.7407 112.134 49.7982C111.777 49.8852 111.293 49.8922 110.965 49.8607C110.608 49.8264 110.415 49.83 109.984 49.7972C109.621 49.7697 109.208 49.7199 108.775 49.5843C108.425 49.4751 108 49.3105 107.622 49.1683C107.222 49.0174 106.865 48.886 106.583 48.808C105.961 48.6355 105.3 48.5051 103.529 48.3714C103.009 48.3322 101.709 48.2111 99.935 48.3207C98.7782 48.3921 98.3911 48.3731 97.9018 48.4632C97.762 48.489 97.6122 48.5253 97.4291 48.5677C98.093 49.1717 98.4466 49.6586 98.8012 50.0951C99.337 50.7546 99.8442 51.2831 100.2 51.6283C100.399 51.8218 100.607 52.0028 100.885 52.2445C101.161 52.4834 101.491 52.7703 101.909 53.1556C102.385 53.5953 102.863 53.9816 103.289 54.3441C103.45 54.4808 103.668 54.5737 104.111 54.8177C104.292 54.9178 104.519 55.0502 104.721 55.2181C104.895 55.3628 105.111 55.5839 105.244 55.8968L105.295 56.0365L105.332 56.1927C105.391 56.5504 105.259 56.8486 105.141 57.0209C105.004 57.2215 104.822 57.3594 104.653 57.4466C104.389 57.5819 104.105 57.6987 103.859 57.7962C103.594 57.901 103.385 57.9799 103.198 58.0619C102.926 58.1808 102.658 58.2624 102.403 58.3392C102.14 58.4184 101.861 58.4999 101.504 58.6253C100.874 58.8469 100.299 59.079 99.7533 59.1761C99.6193 59.2 99.4768 59.2514 99.1772 59.349C98.9172 59.4336 98.5627 59.5424 98.1664 59.5794C97.6567 59.6272 97.4175 59.7227 96.7807 59.8421C96.3188 59.9287 95.8133 59.9594 95.1459 59.9857C94.4551 60.0129 93.5855 60.0349 92.2807 60.0931C90.7416 60.1617 89.0486 59.9683 88.5942 59.9339C88.2889 59.9109 87.428 59.9644 86.601 59.6888C86.3964 59.6206 86.1979 59.566 85.9818 59.5082C85.7729 59.4522 85.5343 59.3897 85.2943 59.3138C85.0782 59.2455 84.7376 59.1499 84.4545 59.0443C84.1498 58.9306 83.7952 58.7677 83.474 58.4974C83.348 58.3913 83.1973 58.2993 82.974 58.183C82.7794 58.0815 82.4492 57.9226 82.1488 57.7533C81.959 57.6462 81.7641 57.5759 81.3715 57.4095C81.0088 57.2558 80.5713 57.0552 80.0629 56.7328C79.5422 56.4025 79.0869 56.1367 78.7055 55.9418C78.2353 55.7014 77.4628 55.3707 76.7299 54.9232C76.2959 54.6582 75.6323 54.3433 75.0443 53.6937C74.5179 53.1121 74.1737 52.5731 73.7582 52.0462C73.3123 51.4809 72.9876 51.0545 72.6928 50.5902C72.6354 50.4999 72.5765 50.4587 72.307 50.1712C72.0853 49.9347 71.7973 49.5935 71.6098 49.1039C71.5392 48.9195 71.4216 48.7006 71.2279 48.2796C71.0613 47.9175 70.8642 47.453 70.7572 46.9769C70.6382 46.4473 70.5057 46.0742 70.3588 45.5033C70.2095 44.9229 69.9983 44.0642 69.9613 42.0287C69.9359 40.6285 69.8734 37.9316 69.9643 36.4164C70.0302 35.3183 70.0888 34.6464 70.1371 34.1556C70.1866 33.6533 70.2185 33.3934 70.2377 33.058C70.2716 32.4655 70.2784 31.6109 70.4369 30.9769C70.4427 30.9536 70.4549 30.8789 70.4701 30.7132C70.4851 30.55 70.4964 30.3843 70.515 30.1546C70.5494 29.7311 70.6035 29.1844 70.7397 28.6546C70.8759 28.1246 71.0097 27.7087 71.1078 27.2357C71.1793 26.8914 71.2983 26.5716 71.4037 26.306C71.5189 26.0158 71.6099 25.8077 71.6908 25.5716C71.8484 25.1123 72.0875 24.4194 72.2836 23.8714C72.3731 23.6212 72.4416 23.3978 72.5219 23.139C72.6012 22.8835 72.6888 22.6026 72.8109 22.2757C73.0062 21.7531 73.2546 21.2573 73.5736 20.806C73.7828 20.5102 74.0087 20.2811 74.1772 20.1087C74.3558 19.926 74.4761 19.8008 74.5844 19.6498C74.7203 19.4603 74.8371 19.2764 74.9897 19.0462C75.1343 18.828 75.3007 18.5835 75.5014 18.3402C75.8181 17.9562 76.2617 17.3683 76.6508 16.9632C76.7282 16.8827 76.8008 16.776 76.9545 16.5375C77.0959 16.318 77.2848 16.0241 77.5551 15.7093C77.9319 15.2704 78.4516 14.8358 78.8295 14.514C79.1826 14.2133 79.6398 13.8244 80.1068 13.4349C80.5183 13.0918 81.1322 12.6193 81.8568 12.3324C82.0044 12.274 82.1635 12.1906 82.3949 12.0599C82.6146 11.9358 82.9013 11.7674 83.2397 11.5902C83.6873 11.3558 84.3006 10.9967 84.9662 10.8783C85.3532 10.8095 85.8341 10.6864 86.3481 10.4857C86.6273 10.3767 86.9899 10.3185 87.307 10.2806C87.6523 10.2394 88.0526 10.2108 88.4643 10.1927ZM90.8061 12.1947C90.1713 12.1609 89.3169 12.1572 88.5522 12.1908C88.1704 12.2075 87.8233 12.2326 87.5443 12.266C87.4048 12.2827 87.2904 12.3003 87.2025 12.3177C87.1125 12.3356 87.0761 12.3489 87.0756 12.349C86.4292 12.6014 85.8212 12.7573 85.3168 12.847C85.0353 12.8971 84.7657 13.0493 84.1674 13.3627C83.8666 13.5202 83.63 13.659 83.3783 13.8011C83.1383 13.9367 82.8777 14.0791 82.5932 14.1918C82.1752 14.3573 81.7604 14.6597 81.3871 14.9711C80.9294 15.3528 80.481 15.7355 80.1264 16.0375C79.7035 16.3975 79.3245 16.7188 79.0727 17.0121C78.9866 17.1123 78.9124 17.2101 78.8422 17.3099L78.4047 17.9662C78.3148 18.0926 78.2116 18.2256 78.0932 18.349C77.7713 18.6841 77.4628 19.1053 77.0443 19.6127C76.9118 19.7733 76.7916 19.948 76.6567 20.1517C76.5296 20.3435 76.3739 20.5853 76.2094 20.8148C75.9991 21.1079 75.7735 21.3368 75.6068 21.5072C75.4301 21.6879 75.3115 21.8118 75.2065 21.9603C75.0046 22.2458 74.8319 22.5828 74.685 22.9759C74.5836 23.2472 74.5092 23.4832 74.432 23.7318C74.3559 23.9773 74.2735 24.2462 74.1664 24.5453C73.9751 25.08 73.7395 25.7621 73.5824 26.2201C73.481 26.5158 73.3496 26.8239 73.2621 27.0443C73.1649 27.2894 73.1003 27.4756 73.0658 27.642C72.9572 28.1656 72.7753 28.7671 72.6762 29.1527C72.5853 29.5061 72.5414 29.9081 72.5082 30.3168C72.4931 30.503 72.4781 30.7248 72.4623 30.8968C72.4467 31.0665 72.4239 31.2761 72.3774 31.4623C72.2795 31.8538 72.2801 32.3782 72.2348 33.1712C72.2125 33.5613 72.172 33.8973 72.1274 34.3509C72.0815 34.8166 72.0247 35.4632 71.9604 36.5355C71.8754 37.9506 71.935 40.5416 71.9613 41.9925C71.9953 43.8598 72.1827 44.5628 72.2963 45.0043C72.3869 45.3562 72.592 46.0205 72.7084 46.5384C72.7673 46.8003 72.8906 47.1075 73.0453 47.4437C73.173 47.7212 73.3782 48.1284 73.4779 48.389C73.5293 48.5228 73.6131 48.64 73.766 48.8031C73.8053 48.8449 73.846 48.8866 73.893 48.9349C73.9375 48.9807 73.99 49.0342 74.0414 49.0892C74.1429 49.1979 74.2699 49.3426 74.3813 49.5179C74.6173 49.8896 74.8869 50.248 75.3285 50.808C75.9266 51.5663 76.0364 51.809 76.5277 52.3519C76.8622 52.7213 77.1341 52.8268 77.7719 53.2162C78.4289 53.6173 78.9575 53.8241 79.6156 54.1605C80.0705 54.393 80.5823 54.6933 81.1342 55.0433C81.5159 55.2854 81.8442 55.4383 82.1518 55.5687C82.4295 55.6864 82.811 55.8305 83.1313 56.0111C83.4023 56.1639 83.602 56.2539 83.8988 56.4086C84.167 56.5483 84.4692 56.7206 84.7621 56.9671C84.8361 57.0294 84.9527 57.0953 85.1537 57.1703C85.376 57.2532 85.5766 57.306 85.8979 57.4076C86.0851 57.4667 86.2719 57.5159 86.4984 57.5765C86.718 57.6353 86.9667 57.7027 87.2328 57.7914C87.7509 57.9641 88.0031 57.8836 88.7455 57.9398C89.3116 57.9827 90.8112 58.1567 92.1918 58.0951C93.492 58.0371 94.4211 58.0131 95.0678 57.9877C95.7374 57.9613 96.1095 57.9329 96.4115 57.8763C96.7802 57.8072 97.3663 57.6457 97.9809 57.5882C98.1414 57.5732 98.3166 57.5262 98.558 57.4476C98.7598 57.3819 99.0921 57.2628 99.4037 57.2074C99.7387 57.1478 100.06 57.013 100.841 56.7386C101.249 56.5954 101.573 56.5003 101.826 56.4242C102.086 56.3457 102.247 56.2945 102.395 56.2298C102.42 56.219 102.445 56.2095 102.471 56.1986C102.318 56.1075 102.15 55.9995 101.996 55.8685C101.614 55.5448 101.069 55.1022 100.552 54.6253C100.159 54.2624 99.8487 53.993 99.5746 53.7552C99.3038 53.5203 99.0533 53.303 98.807 53.0638C98.4038 52.6723 97.8419 52.0851 97.2494 51.3558C96.8554 50.8709 96.6133 50.5335 96.1108 50.0726C95.8477 49.92 95.5115 49.7394 95.0004 49.4525H94.9994C94.8863 49.3939 94.8117 49.3597 94.7533 49.3402C94.7078 49.325 94.6944 49.3263 94.7035 49.3265C94.1583 49.3636 93.683 48.9558 93.6391 48.4095L93.6381 48.4086C93.6022 48.3245 93.5767 48.2342 93.5649 48.139C93.4966 47.591 93.8859 47.0911 94.434 47.0228C94.4838 47.0166 95.161 46.888 95.7279 46.848C95.9761 46.8305 96.273 46.7757 96.601 46.7035C96.8909 46.6396 97.2703 46.5451 97.5395 46.4955C98.1857 46.3764 98.8595 46.3834 99.8119 46.3246C101.737 46.2057 103.159 46.338 103.679 46.3773C105.517 46.516 106.321 46.6605 107.118 46.8812C107.5 46.9873 107.941 47.15 108.329 47.2962C108.74 47.4513 109.093 47.5878 109.372 47.6752C109.598 47.7455 109.839 47.7805 110.135 47.8031C110.363 47.8204 110.835 47.8387 111.157 47.8695C111.199 47.8735 111.251 47.8754 111.307 47.8763C111.396 47.4222 111.482 46.903 111.538 46.4867C111.575 46.2049 111.622 45.9007 111.666 45.6136C111.712 45.3203 111.754 45.041 111.785 44.7845C111.853 44.2171 112.057 43.6005 112.186 43.1752C112.309 42.7689 112.385 42.4256 112.519 41.9339C112.658 41.4218 112.739 40.8509 112.806 40.3509C112.876 39.825 112.958 39.3358 113.093 38.6849C113.141 38.4554 113.171 37.8769 113.169 37.1087C113.168 36.3782 113.139 35.5777 113.101 34.974C113.08 34.6358 112.963 34.1718 112.787 33.7142C112.699 33.4874 112.619 33.2615 112.537 33.0296C112.453 32.7949 112.364 32.5434 112.25 32.2474C112.144 31.97 112.072 31.7018 112.016 31.4955C111.956 31.2744 111.911 31.1167 111.852 30.9701C111.715 30.6331 111.652 30.2688 111.609 30.017C111.558 29.7188 111.531 29.5475 111.487 29.4115C111.352 28.9948 111.203 28.5502 111.088 28.0902C110.967 27.6047 110.864 27.0473 110.769 26.4144C110.635 25.5152 110.498 25.1023 110.332 24.641C110.153 24.14 109.968 23.7839 109.683 23.1996C109.451 22.7255 109.226 22.3675 108.927 21.8412C108.732 21.4978 108.5 21.1936 108.222 20.8353C107.995 20.5429 107.707 20.2767 107.367 19.9632C107.222 19.8304 107.051 19.6969 106.836 19.5296C106.636 19.3732 106.394 19.1848 106.174 18.9808C105.706 18.5464 105.283 18.1641 104.702 17.7601C104.42 17.5645 104.163 17.3615 103.95 17.1966C103.726 17.0234 103.546 16.8901 103.373 16.7836C102.87 16.4735 102.563 16.2368 101.944 15.888C101.093 15.4089 100.648 15.1814 100.256 15.0433C99.9207 14.925 99.5956 14.7784 99.2211 14.6117C98.8386 14.4413 98.3635 14.2307 97.683 13.9574C97.061 13.7076 96.4438 13.5139 95.7631 13.2572C95.3222 13.0909 94.8989 13.0073 94.3451 12.8539C93.6914 12.6728 93.418 12.5541 92.851 12.474C91.7704 12.3214 91.4959 12.2314 90.8061 12.1947Z" fill="black"/>
<path d="M107.641 30.7394C107.985 30.7743 108.277 30.985 108.428 31.2795C108.639 31.3229 108.869 31.3744 109.09 31.4387C109.352 31.5148 109.683 31.6273 109.952 31.7961C110.35 32.0451 110.852 32.4614 111.168 32.8361C111.43 33.1471 111.864 33.6383 112.068 34.1672C112.073 34.18 112.245 34.5655 112.319 34.8176C112.411 35.1324 112.497 35.6225 112.285 36.1428C112.226 36.2893 112.137 36.502 112.021 36.6955C111.92 36.8629 111.697 37.1966 111.285 37.3605C111.333 37.3414 111.357 37.3243 111.329 37.342C111.323 37.3462 111.236 37.4028 111.18 37.4357C111.019 37.5305 110.748 37.6649 110.381 37.673C109.544 37.6915 109.01 37.5434 108.724 37.4807C108.549 37.4422 108.386 37.392 108.265 37.3547C108.134 37.3145 108.036 37.2851 107.932 37.2609C107.872 37.2471 107.416 37.1652 107.088 37.0666C106.902 37.0106 106.68 36.9297 106.468 36.8107C106.263 36.6954 105.999 36.5053 105.814 36.1984C105.588 35.824 105.458 35.4417 105.373 35.1535C105.304 34.9195 105.25 34.5524 105.221 34.2082C105.192 33.8592 105.178 33.411 105.24 33.0226C105.317 32.5438 105.593 31.7045 106.281 31.1896C106.706 30.872 107.204 30.7346 107.539 30.7346L107.641 30.7394Z" fill="black"/>
<path d="M104.851 24.6179C105.758 24.5452 106.5 24.8591 106.787 24.9529C107.096 25.0539 107.439 25.184 107.765 25.3572C107.937 25.4484 108.181 25.5708 108.42 25.7322L108.654 25.907L108.746 25.9842L108.816 26.0799C108.922 26.2223 109.094 26.3798 109.326 26.5721L109.332 26.5779L109.339 26.5828C109.357 26.5981 109.383 26.6215 109.387 26.6258C109.397 26.6343 109.404 26.6394 109.41 26.6443C109.42 26.6529 109.444 26.671 109.495 26.7049C109.954 27.012 110.076 27.6336 109.769 28.0926C109.462 28.5512 108.841 28.6747 108.383 28.3679C108.178 28.2311 108.082 28.1403 108.038 28.1023V28.1013C107.832 27.9304 107.546 27.688 107.304 27.3933C107.21 27.3278 107.079 27.2572 106.828 27.1238C106.639 27.0236 106.413 26.935 106.166 26.8543C105.708 26.7049 105.422 26.5782 105.011 26.6111C104.728 26.6338 104.557 26.6431 104.388 26.6609C104.226 26.678 104.178 26.6941 104.178 26.6941C103.917 26.7937 103.592 26.9361 102.884 27.1209C102.497 27.2217 102.385 27.2736 102.317 27.3279C102.168 27.4472 101.914 27.6386 101.811 27.7195C101.659 27.8394 101.577 27.9143 101.536 27.9617C101.46 28.0489 101.368 28.1479 101.303 28.2195C101.231 28.2997 101.173 28.3662 101.125 28.4265C101.088 28.4734 101.066 28.5067 101.053 28.5271C100.974 29.0241 100.77 29.4853 100.755 29.5271C100.561 30.0442 99.9857 30.307 99.4685 30.114C98.9511 29.9208 98.6883 29.3443 98.8816 28.8269C98.8976 28.784 98.9288 28.7072 98.9421 28.6736C98.9617 28.6241 98.9814 28.5714 99.0007 28.5154C99.041 28.3986 99.0713 28.2867 99.0837 28.1902L99.115 28.0232C99.2074 27.6451 99.4271 27.3487 99.5583 27.1834C99.7095 26.9929 99.9474 26.7397 100.029 26.6463C100.201 26.4495 100.408 26.2789 100.574 26.1482C100.789 25.9785 100.883 25.9144 101.065 25.7683C101.51 25.4112 102.027 25.278 102.379 25.1863C102.962 25.0343 103.18 24.9343 103.467 24.825C103.717 24.7297 103.975 24.6931 104.178 24.6717C104.377 24.6508 104.636 24.6353 104.851 24.6179Z" fill="black"/>
<path d="M77.3554 4.31044L77.4472 4.31435L77.537 4.33388C77.743 4.38054 77.94 4.4188 78.1503 4.45985C78.3539 4.49961 78.5738 4.54253 78.79 4.59657C79.119 4.67884 79.5039 4.73944 80.1991 4.87782C80.7325 4.98399 81.4497 5.08034 82.1855 5.19521C82.5981 5.2596 83.0745 5.30591 83.5546 5.40517C83.8713 5.47066 84.2541 5.56706 84.622 5.65517C85.0029 5.74638 85.394 5.83571 85.7783 5.90419C86.4069 6.0162 87.0292 6.13871 87.5341 6.28896C87.8601 6.38596 88.1458 6.51471 88.331 6.59071C88.5271 6.67117 88.6903 6.72892 88.8984 6.76747C89.3945 6.85945 90.3547 7.13369 91.0204 7.38759C91.2471 7.47404 91.5043 7.56799 91.7968 7.6747C92.0864 7.78035 92.4066 7.89752 92.747 8.02724C93.5739 8.3423 94.2581 8.59702 94.8486 8.89931C95.0583 9.00669 95.2854 9.11062 95.5986 9.25673C95.9053 9.39985 96.2722 9.57285 96.7294 9.80556C97.0479 9.96767 97.332 10.1202 97.579 10.2528C97.8309 10.388 98.0341 10.4975 98.2109 10.5858C98.4167 10.6888 98.6352 10.8105 98.8339 10.9442C99.0172 11.0676 99.2501 11.2452 99.4257 11.4716C99.7642 11.9078 99.6851 12.5353 99.249 12.8739C98.84 13.1912 98.2626 13.1419 97.913 12.7753L97.8574 12.7108C97.8584 12.712 97.8523 12.7053 97.8359 12.6913C97.8103 12.6695 97.7715 12.6396 97.7177 12.6034C97.6091 12.5303 97.4691 12.4513 97.3163 12.3749C97.1076 12.2705 96.8745 12.1453 96.6327 12.0155C96.3863 11.8832 96.1193 11.74 95.8222 11.5888C95.3941 11.3709 95.0505 11.2081 94.7529 11.0692C94.4614 10.9332 94.189 10.8084 93.9374 10.6796C93.4678 10.4391 92.9068 10.2279 92.0341 9.8954C91.7083 9.77125 91.4002 9.659 91.1113 9.5536C90.8251 9.44924 90.5521 9.34962 90.3085 9.25673C89.7332 9.03728 88.8901 8.80032 88.5341 8.73427C88.1319 8.65973 87.8242 8.54414 87.5712 8.44032C87.3072 8.33197 87.1639 8.2655 86.9638 8.20595C86.5778 8.09108 86.0547 7.98466 85.4277 7.87294C84.9831 7.79372 84.545 7.69262 84.1562 7.5995C83.7545 7.50332 83.4264 7.42125 83.1503 7.36415C82.7156 7.27425 82.471 7.26352 81.8769 7.17079C81.2108 7.0668 80.3959 6.95567 79.8085 6.83876C79.2213 6.72189 78.6931 6.63412 78.3046 6.537C78.1455 6.49724 77.9735 6.46296 77.7675 6.42274C77.5981 6.38967 77.4061 6.3514 77.204 6.30751C77.0611 6.30554 76.9356 6.31674 76.8368 6.33095C76.4426 6.6632 75.8538 6.64371 75.4843 6.27138C75.0954 5.87919 75.098 5.2452 75.4902 4.85634C75.6177 4.72994 75.7619 4.6137 75.9345 4.52528C76.111 4.43491 76.2664 4.40181 76.3261 4.38857L76.3368 4.38661C76.5658 4.33843 76.8226 4.31187 77.0878 4.30751L77.3554 4.31044Z" fill="black"/>
<path d="M75.4794 8.41122L75.5116 8.41415L75.5428 8.41805C75.809 8.45625 76.1622 8.53261 76.5751 8.61532L76.576 8.61434C76.7674 8.64907 77.0547 8.67685 77.4159 8.70712C77.7528 8.73534 78.1491 8.76532 78.4833 8.8077C78.781 8.84547 79.0849 8.90265 79.3436 8.95126C79.6179 9.00279 79.8337 9.04331 80.0106 9.06454C80.5141 9.12499 81.6189 9.29725 83.163 9.38387C83.5344 9.40471 84.0425 9.40907 84.5907 9.41708C85.1143 9.42473 85.6833 9.43624 86.1073 9.47665C86.7491 9.53781 87.2031 9.63258 87.536 9.73544C87.7037 9.78724 87.8371 9.83972 87.9452 9.88876C88.0204 9.92288 88.1136 9.97147 88.1288 9.97958C88.6233 10.2256 88.825 10.8259 88.579 11.3204C88.3329 11.8148 87.7326 12.0166 87.2382 11.7706C87.1502 11.7268 87.1058 11.6959 86.9462 11.6466C86.7721 11.5928 86.4568 11.5192 85.9178 11.4679C85.5887 11.4365 85.103 11.425 84.5614 11.4171C84.0446 11.4095 83.4767 11.4048 83.0516 11.3809C81.4241 11.2896 80.2154 11.1041 79.7723 11.0509C79.5153 11.02 79.2268 10.9645 78.9745 10.9171C78.7068 10.8668 78.4605 10.8211 78.2313 10.7921C77.9516 10.7566 77.6148 10.7309 77.2489 10.7003C76.9073 10.6717 76.5214 10.6371 76.2186 10.5821L76.2098 10.5811L76.201 10.5792C75.7561 10.4902 75.4929 10.4345 75.2987 10.4044C75.2707 10.4029 75.2455 10.4017 75.2225 10.4034C75.1933 10.4056 75.1734 10.4101 75.161 10.4141C74.6361 10.5857 74.0718 10.2994 73.9003 9.7745C73.7287 9.24955 74.015 8.68533 74.5399 8.51376C74.922 8.38891 75.2696 8.39474 75.4794 8.41122Z" fill="black"/>
<path d="M78.8492 54.7798C79.3256 54.5004 79.9379 54.6599 80.2174 55.1362C80.4968 55.6126 80.3373 56.2249 79.8609 56.5044C79.4009 56.7742 79.1437 57.1671 78.8033 58.895C78.095 62.4908 77.8326 63.7777 77.5533 64.6762C77.4342 65.0595 77.3233 65.478 77.1891 65.9702C77.057 66.4541 76.9068 66.9918 76.7174 67.5747C76.495 68.259 76.362 68.9247 76.2213 69.6636C76.0827 70.3914 75.9365 71.1941 75.6881 72.0649C75.3857 73.1251 75.2069 74.1633 74.7564 75.4096C74.631 75.7568 74.5586 76.118 74.4732 76.5766C74.3909 77.0192 74.2967 77.5506 74.1207 78.1225C73.9792 78.5824 73.9097 79.0065 73.8453 79.4565C73.7836 79.8877 73.721 80.3974 73.5836 80.9018C73.295 81.9611 72.9903 83.0374 72.7125 84.3325C72.5969 84.8716 72.399 85.4446 72.2037 86.0053C72.0022 86.584 71.7904 87.1841 71.6051 87.8511C71.4673 88.3471 71.3503 88.9419 71.2154 89.6811C71.0827 90.4088 70.934 91.2654 70.7369 92.23C70.5206 93.2887 70.3909 94.2369 69.8902 95.6011C69.3581 97.0509 69.0023 98.979 68.7857 100.038C68.5725 101.08 68.3096 102.225 68.0465 103.257C67.7614 104.376 67.7677 105.312 67.6852 106.81C67.6052 108.262 67.598 110.152 67.6373 111.794C67.6569 112.614 67.6877 113.364 67.7262 113.958C67.7666 114.584 67.8107 114.96 67.8404 115.086L67.8463 115.111L67.8512 115.136C67.954 115.701 68.0543 116.2 68.15 116.582C68.18 116.702 68.2271 116.887 68.2379 117.156C68.2479 117.405 68.2262 117.696 68.1695 118.071C68.0867 118.617 67.5768 118.992 67.0309 118.91C66.4848 118.827 66.1093 118.317 66.192 117.771C66.2383 117.465 66.2419 117.312 66.2389 117.236C66.2366 117.179 66.2318 117.157 66.2096 117.068C66.0977 116.62 65.9882 116.07 65.8834 115.495L65.8854 115.494C65.8171 115.172 65.7667 114.654 65.7301 114.087C65.6894 113.458 65.6574 112.68 65.6373 111.842C65.5972 110.169 65.6042 108.222 65.6881 106.7C65.7632 105.337 65.7609 104.125 66.108 102.763C66.3631 101.762 66.6189 100.648 66.8258 99.6372C67.026 98.6588 67.4147 96.5408 68.0123 94.9126C68.4465 93.7297 68.5416 92.9863 68.7779 91.8296C68.9694 90.8924 69.1112 90.0704 69.2477 89.3227C69.3819 88.587 69.5132 87.9091 69.6783 87.3149C69.884 86.5749 70.1182 85.9125 70.315 85.3471C70.5181 84.7639 70.6714 84.3101 70.7564 83.9136C71.0484 82.5524 71.3707 81.4149 71.6539 80.3755C71.7505 80.0209 71.7957 79.6632 71.8658 79.1733C71.9333 78.7021 72.0192 78.1503 72.2086 77.5346C72.3448 77.0921 72.4198 76.6773 72.5064 76.2114C72.5901 75.7618 72.6875 75.2502 72.8756 74.73C73.3084 73.5325 73.3796 72.8681 73.7652 71.5161C73.9842 70.7482 74.1138 70.0389 74.2564 69.2895C74.397 68.5512 74.5505 67.7735 74.816 66.9565C74.9902 66.4206 75.1303 65.9205 75.2604 65.4438C75.3882 64.9752 75.5116 64.509 75.6441 64.0825C75.883 63.314 76.121 62.1664 76.8414 58.5093C77.1752 56.8147 77.5426 55.5463 78.8492 54.7798Z" fill="black"/>
<path d="M67.4927 117.077C68.5815 117.077 70.9678 117.178 72.1723 117.436C73.1501 117.646 74.1095 117.962 75.061 118.305C75.7278 118.546 76.3105 118.839 76.8862 119.145C77.4721 119.456 78.0376 119.774 78.7427 120.113C79.9722 120.705 80.8796 121.777 81.7231 122.621C83.0757 123.973 83.9931 124.737 84.8198 125.322C85.5735 125.855 86.0682 126.47 86.52 127.127C86.9959 127.818 87.3519 128.433 87.9839 129.285C88.9498 130.586 90.6679 131.942 91.4516 132.457C92.1435 132.911 92.7989 133.507 93.4878 134.176C94.0232 134.696 94.5662 135.248 95.2046 135.87L95.8784 136.516L95.9038 136.541L95.9282 136.567C96.5272 137.221 96.8036 137.724 96.9975 138.189C97.0184 138.222 97.0363 138.243 97.1528 138.422C97.2648 138.595 97.4011 138.822 97.5747 139.168C97.8226 139.661 97.6236 140.262 97.1303 140.51C96.637 140.758 96.0356 140.559 95.7876 140.066C95.6458 139.784 95.5461 139.62 95.4761 139.512C95.4379 139.454 95.4082 139.411 95.3686 139.353C95.3329 139.3 95.2842 139.228 95.2368 139.144L95.2036 139.085L95.1782 139.022C95.0652 138.739 94.9184 138.43 94.4702 137.937C93.536 137.053 92.7389 136.237 92.0942 135.611C91.4167 134.953 90.876 134.471 90.354 134.129C89.4707 133.549 87.5388 132.042 86.3774 130.477C85.7365 129.614 85.2393 128.793 84.8725 128.26C84.4818 127.693 84.1436 127.294 83.6645 126.955C82.7214 126.288 81.7177 125.443 80.3091 124.035C79.2795 123.005 78.7067 122.315 77.8755 121.915C77.1229 121.552 76.4931 121.201 75.9487 120.912C75.3943 120.617 74.9117 120.378 74.3813 120.186C73.4568 119.852 72.598 119.573 71.7534 119.392C70.7726 119.182 68.5703 119.077 67.4927 119.077C66.9404 119.077 66.4927 118.629 66.4927 118.077C66.4927 117.524 66.9404 117.077 67.4927 117.077Z" fill="black"/>
<path d="M96.9005 139.597C97.4046 139.649 97.798 140.075 97.798 140.592C97.798 141.122 97.3856 141.554 96.8644 141.588C96.8559 141.59 96.8395 141.595 96.8146 141.603C96.7407 141.626 96.6101 141.674 96.4152 141.771C95.8579 142.049 95.342 142.737 94.8322 143.805C94.5885 144.316 94.3683 144.863 94.1505 145.419C93.9378 145.963 93.7211 146.531 93.5011 147.027C92.8423 148.51 92.2586 149.768 91.7843 150.85C91.3023 151.949 90.8184 153.013 90.5548 153.946C90.2584 154.995 89.6736 156.195 89.049 157.571C88.1058 159.649 87.6635 160.577 87.2208 161.515C86.7252 162.566 86.3516 163.462 85.8615 164.335C85.4542 165.062 85.0762 165.906 84.6847 166.816C84.0819 168.217 83.3523 169.037 82.7882 169.835C82.5363 170.191 82.2874 170.595 81.9708 171.085C81.6688 171.551 81.3223 172.065 80.9191 172.569L80.9201 172.57C80.1861 173.531 79.2583 174.669 78.2814 175.614C78.3175 175.983 78.1465 176.358 77.8087 176.565C77.3377 176.853 76.7219 176.705 76.4337 176.234C76.2442 175.924 76.0223 175.4 76.296 174.835C76.4067 174.607 76.5628 174.458 76.6525 174.38C76.6991 174.34 76.7653 174.29 76.8097 174.256C77.7055 173.404 78.5932 172.322 79.3312 171.356L79.338 171.346L79.3458 171.336C79.6907 170.907 79.9964 170.454 80.2911 169.999C80.575 169.56 80.8717 169.081 81.1554 168.679C81.8415 167.709 82.3547 167.172 82.8478 166.026C83.2398 165.115 83.6536 164.184 84.1173 163.357C84.562 162.564 84.8633 161.823 85.4113 160.662C85.8535 159.724 86.2909 158.807 87.2277 156.744C87.9016 155.259 88.388 154.261 88.631 153.402C88.9418 152.302 89.4986 151.081 89.9523 150.046C90.4176 148.985 91.0438 147.632 91.673 146.215C91.8696 145.773 92.064 145.264 92.2882 144.691C92.5073 144.132 92.7501 143.525 93.0275 142.944C93.56 141.828 94.3189 140.581 95.5236 139.981C96.0332 139.727 96.4606 139.592 96.798 139.592L96.9005 139.597Z" fill="black"/>
<path d="M80.8547 173.762C83.2198 173.1 84.8815 173.122 86.1593 173.39C86.7884 173.522 87.298 173.708 87.7072 173.867C88.1487 174.038 88.3847 174.138 88.6086 174.188C89.9007 174.478 91.0184 175.206 91.6593 175.98C92.3595 176.826 92.1585 177.858 92.1193 178.173C92.0567 178.678 91.7945 179.065 91.5109 179.344C91.2331 179.618 90.8938 179.83 90.5685 179.999C89.9272 180.331 89.1186 180.604 88.4474 180.841C87.8105 181.066 87.2007 181.145 86.3439 181.174C85.511 181.203 84.3471 181.186 82.6086 181.187C81.5651 181.188 80.7463 180.915 80.0715 180.627C79.763 180.495 79.419 180.329 79.1818 180.222C78.9155 180.102 78.6945 180.013 78.4836 179.955C77.5197 179.69 76.8388 179.389 76.4279 179.184L76.2238 179.083L76.0841 178.902C75.6803 178.382 75.485 177.729 75.3713 177.161C75.3114 176.861 75.2537 176.562 75.1974 175.784C75.1577 175.233 75.5715 174.754 76.1222 174.714C76.4021 174.694 76.663 174.792 76.8576 174.964C76.9242 174.933 76.9954 174.908 77.0705 174.891C77.2484 174.852 77.5869 174.744 78.2453 174.538C78.8727 174.341 79.7265 174.078 80.8547 173.762ZM85.7492 175.347C84.8304 175.155 83.4966 175.099 81.3937 175.688C80.2926 175.996 79.4604 176.254 78.8429 176.447C78.2565 176.63 77.7903 176.781 77.5031 176.844C77.4532 176.855 77.4032 176.86 77.3537 176.864C77.4159 177.148 77.4882 177.358 77.5627 177.507C77.8935 177.658 78.3739 177.851 79.0129 178.026C79.3746 178.125 79.7075 178.265 80.0041 178.399C80.33 178.546 80.5588 178.66 80.8576 178.788C81.3974 179.019 81.9359 179.187 82.6076 179.187C84.3979 179.186 85.4875 179.202 86.2756 179.175C87.0397 179.149 87.4194 179.084 87.7814 178.956C88.5168 178.696 89.1611 178.475 89.6476 178.223C89.8862 178.099 90.0302 177.996 90.1076 177.919C90.1238 177.903 90.133 177.89 90.1398 177.881C90.1662 177.669 90.182 177.544 90.173 177.424C90.1655 177.324 90.1437 177.285 90.1193 177.255C89.7722 176.836 89.048 176.337 88.1711 176.14C87.7574 176.048 87.3246 175.864 86.9826 175.731C86.6082 175.586 86.2184 175.446 85.7492 175.347Z" fill="black"/>
<path d="M66.9027 117.499C67.4068 117.551 67.8002 117.977 67.8002 118.494C67.8002 119.023 67.3899 119.454 66.8705 119.491C66.8296 119.519 66.7356 119.6 66.6088 119.789C66.5161 119.928 66.3927 120.271 66.2972 120.9C66.2071 121.494 66.1578 122.22 66.1273 123.021C66.0687 124.562 66.0827 126.456 65.9506 127.814C65.8427 128.922 65.5109 130.244 65.1683 131.959C64.8624 133.491 64.6715 135.388 64.5404 136.685C64.4336 137.741 64.121 138.881 63.9349 139.764C63.7216 140.776 63.5292 141.791 63.349 142.743C63.1345 143.875 63.0117 144.894 62.5902 146.454C62.3533 147.332 62.3173 148.151 62.2357 149.148L62.2308 149.21L62.2172 149.273C62.0363 150.128 61.8497 150.873 61.7767 152.243L61.7757 152.254L61.7748 152.266C61.7389 152.741 61.6507 153.049 61.4242 153.618C61.2196 154.13 60.6382 154.38 60.1254 154.176C59.6124 153.972 59.3622 153.389 59.5668 152.876C59.666 152.628 59.712 152.493 59.7377 152.396C59.7588 152.316 59.7703 152.246 59.7797 152.128C59.8605 150.621 60.0735 149.737 60.2484 148.916C60.3191 148.031 60.3701 147.005 60.6595 145.933C61.0545 144.47 61.1471 143.621 61.3841 142.369C61.5637 141.422 61.7596 140.387 61.9779 139.351C62.2024 138.286 62.4576 137.4 62.5502 136.484C62.6789 135.21 62.8781 133.212 63.2064 131.568C63.5804 129.695 63.8654 128.596 63.9603 127.62C64.0857 126.331 64.0644 124.65 64.1293 122.945C64.1605 122.123 64.2124 121.308 64.3197 120.6C64.4217 119.927 64.5931 119.206 64.9466 118.677C65.3914 118.012 66.0163 117.494 66.8002 117.494L66.9027 117.499Z" fill="black"/>
<path d="M14.9864 145.994C17.2742 146.049 18.554 146.253 19.5958 146.416C20.0434 146.486 20.5331 146.527 21.0548 146.573C21.5552 146.616 22.0991 146.665 22.5753 146.755C23.5368 146.938 24.4441 147.129 25.3428 147.325C26.1323 147.496 26.9741 147.594 28.2423 147.801C28.8246 147.896 29.3525 147.935 29.9542 147.99C30.5445 148.044 31.181 148.113 31.8897 148.275C32.3024 148.369 32.7765 148.447 33.4591 148.561C34.1314 148.674 34.971 148.817 36.0704 149.039C37.5498 149.338 41.8002 149.928 44.7305 150.362C45.8083 150.521 47.4307 150.917 49.1973 151.27C50.927 151.615 52.1047 151.875 52.9678 152.055C53.8415 152.237 54.3863 152.335 54.919 152.379C55.9762 152.467 57.2115 152.537 58.2364 152.591C59.2098 152.643 60.0926 152.685 60.3292 152.718C60.8757 152.796 61.2555 153.302 61.1778 153.849C61.1 154.396 60.5937 154.776 60.0469 154.699C60.0431 154.698 60.0305 154.697 60.0059 154.695C59.9734 154.692 59.9297 154.688 59.8751 154.684C59.7655 154.676 59.6215 154.668 59.4473 154.659C59.0983 154.639 58.646 154.616 58.1299 154.588C57.105 154.534 55.843 154.463 54.753 154.372C54.0887 154.317 53.4416 154.197 52.5606 154.013C51.6689 153.827 50.5272 153.574 48.8057 153.231C46.8866 152.848 45.4612 152.491 44.4385 152.34C41.5759 151.917 37.2234 151.312 35.6749 150.999C34.6078 150.784 33.7932 150.645 33.129 150.534C32.4749 150.424 31.929 150.335 31.4444 150.224C30.8696 150.093 30.3398 150.034 29.7716 149.982C29.2147 149.931 28.5912 149.885 27.919 149.775C26.7705 149.587 25.7718 149.464 24.919 149.279C24.0265 149.085 23.139 148.898 22.2032 148.72C21.8435 148.652 21.4018 148.61 20.8819 148.565C20.3834 148.522 19.8173 148.475 19.2872 148.392C18.4088 148.255 17.3943 148.093 15.7081 148.019C16.0486 149.365 16.1522 150.901 16.1456 152.295C16.1379 153.9 15.9844 155.398 15.836 156.353L15.8057 156.547L15.7051 156.715C15.2896 157.405 14.6497 158.213 13.6876 158.49C13.4615 158.555 13.2117 158.661 12.8311 158.813C12.4806 158.952 12.0518 159.115 11.585 159.221C10.6074 159.442 9.44492 159.413 8.28327 158.558C7.85691 158.244 7.66 157.807 7.57819 157.443C7.49727 157.082 7.51121 156.727 7.56354 156.444C7.72381 155.577 7.827 154.547 8.23151 153.518C8.40903 153.067 8.6056 152.644 8.7735 152.27C8.94627 151.885 9.09546 151.539 9.21393 151.184C9.57938 150.09 10.26 149.079 11.127 148.334C11.3246 148.165 11.5328 147.961 11.7891 147.714C12.0341 147.479 12.3146 147.212 12.6143 146.967C12.8768 146.753 13.1909 146.529 13.5469 146.348C13.7164 146.198 13.9375 146.103 14.1817 146.096V146.097C14.4345 146.027 14.703 145.987 14.9864 145.994ZM13.7891 148.594C13.5895 148.763 13.3879 148.952 13.1758 149.156C12.9431 149.38 12.6821 149.635 12.4298 149.852C11.8378 150.36 11.3616 151.065 11.1104 151.818C10.9583 152.273 10.7738 152.696 10.5977 153.088C10.4168 153.491 10.2482 153.855 10.0928 154.25C9.78202 155.041 9.72987 155.727 9.53034 156.807C9.52479 156.837 9.52056 156.875 9.52057 156.913C9.52059 156.942 9.52448 156.966 9.52741 156.985C10.0856 157.373 10.5962 157.394 11.1436 157.27C11.4485 157.201 11.7553 157.088 12.0909 156.954C12.3963 156.833 12.7841 156.669 13.1348 156.568C13.3179 156.515 13.5783 156.314 13.8868 155.846C14.0119 154.974 14.1389 153.673 14.1456 152.287C14.1518 150.992 14.0527 149.681 13.7891 148.594Z" fill="black"/>
<path d="M45.6505 50.8658C46.0092 50.8171 46.4366 50.826 46.8771 50.8579C47.4039 50.8962 48.0416 50.9749 48.7706 51.0816C49.3872 51.1719 50.357 51.4181 51.3048 51.6411C52.2978 51.8749 53.3318 52.1 54.2032 52.1958C55.6691 52.3571 57.2714 52.5092 58.4816 52.898C58.9891 53.0611 59.5884 53.1963 60.2911 53.3482C60.9788 53.4968 61.7548 53.6599 62.5519 53.8726C63.9684 54.2505 65.6376 54.7729 67.2609 55.148C68.7965 55.5028 70.4349 56.1634 73.8536 56.4771C75.1576 56.5967 76.1218 56.7579 76.8234 56.8999C77.1726 56.9707 77.4541 57.0368 77.6691 57.0865C77.9027 57.1405 78.0118 57.1646 78.0734 57.1734C78.6201 57.2511 79.0007 57.7575 78.923 58.3042C78.845 58.8508 78.3388 59.2306 77.7921 59.1529C77.6245 59.129 77.4141 59.0798 77.2189 59.0347C77.0043 58.9851 76.7456 58.9256 76.4259 58.8609C75.7894 58.732 74.8973 58.5808 73.671 58.4683C70.0734 58.1382 68.1226 57.4004 66.8107 57.0972C65.1586 56.7154 63.323 56.1475 62.0363 55.8042C61.2962 55.6068 60.5746 55.4559 59.8683 55.3033C59.1769 55.1538 58.4851 54.9998 57.8702 54.8023C56.9018 54.4911 55.5534 54.3567 53.9845 54.1841C52.979 54.0735 51.8383 53.8218 50.8468 53.5884C49.8102 53.3444 48.9845 53.1339 48.4806 53.0601C47.7712 52.9563 47.1888 52.8862 46.7325 52.8531C46.4113 52.8298 46.1885 52.8288 46.0441 52.8365C46.0422 52.8424 46.0392 52.8485 46.0372 52.855C45.9649 53.0903 45.9231 53.4704 45.9093 54.0103C45.8955 54.5523 45.9094 55.0943 45.9064 55.7222C45.9035 56.3103 45.8846 56.9453 45.7872 57.5064C45.7037 57.9885 45.6362 59.1804 45.6193 60.647C45.6027 62.0875 45.635 63.7061 45.7306 65.0005C45.7744 65.5937 45.8923 66.1934 46.0363 66.8062C46.1377 67.2383 46.2652 67.7251 46.3722 68.1831L46.4708 68.6285L46.4855 68.6968L46.4894 68.7661C46.5088 69.0696 46.5707 69.3906 46.6759 69.7447L46.796 70.1099L46.8155 70.1656L46.8282 70.2232C46.8739 70.4252 46.9003 70.6544 46.9269 70.8433C46.9573 71.0587 47.0026 71.3493 47.0958 71.7876C47.2107 72.3278 46.8664 72.8591 46.3263 72.9742C45.7861 73.0891 45.2547 72.7438 45.1398 72.2036C45.0355 71.7134 44.9822 71.3767 44.9464 71.1226C44.9103 70.8664 44.8997 70.7755 44.882 70.689C44.6905 70.1327 44.5492 69.5673 44.5021 68.9829C44.3902 68.4504 44.2462 67.9284 44.09 67.2632C43.9375 66.6142 43.7917 65.8963 43.7364 65.148C43.6354 63.7797 43.6022 62.1007 43.6193 60.6236C43.636 59.1731 43.7016 57.8273 43.8165 57.1646C43.8832 56.7802 43.9036 56.2885 43.9064 55.7124C43.909 55.1764 43.8951 54.5158 43.9093 53.9585C43.9236 53.3994 43.9665 52.7832 44.1251 52.2671C44.2814 51.7591 44.6514 51.0567 45.5011 50.8902L45.6505 50.8658Z" fill="black"/>
<path d="M45.3046 71.0101C45.7397 70.6702 46.3678 70.7472 46.708 71.1819C46.9166 71.4489 47.064 71.6101 47.1953 71.7405L47.5869 72.1175L47.6123 72.1429L47.6357 72.1692C48.432 73.0925 49.2581 73.7866 50.4843 75.0149L50.5781 75.1087L50.6435 75.223C51.279 76.3283 51.9272 77.7779 51.4091 79.2767C51.066 80.2696 50.5043 82.439 48.1953 82.9222C47.3936 83.0899 46.6935 83.0304 46.0078 82.8382C45.2291 82.6199 44.4362 82.3001 43.7499 81.8743C43.0729 81.4542 42.4304 80.8876 42.0595 80.1458C41.746 79.5188 41.0694 77.812 41.7099 75.8304C42.0134 74.8915 42.3945 73.9955 43.1796 73.4017C43.7995 72.933 44.4442 72.588 45.0048 72.3577C45.0273 72.3485 45.0506 72.3404 45.0732 72.3314C44.8025 71.9024 44.8964 71.3291 45.3046 71.0101ZM46.5126 73.9837C46.505 73.9844 46.436 73.9905 46.2958 74.0267C46.1539 74.0633 45.9726 74.1219 45.7646 74.2073C45.3475 74.3786 44.8564 74.6413 44.3867 74.9964C44.1319 75.189 43.9025 75.5509 43.6132 76.4456C43.2068 77.7033 43.6364 78.827 43.8486 79.2513C43.9937 79.5416 44.3031 79.8645 44.8037 80.1751C45.295 80.48 45.9059 80.7325 46.5478 80.9124C46.9683 81.0303 47.3399 81.0572 47.7851 80.9642C48.7883 80.7543 49.0663 79.9345 49.5195 78.6233C49.7174 78.0507 49.5364 77.3431 48.9707 76.3323C48.1133 75.4797 47.3007 74.7452 46.5791 73.9798C46.5572 73.9812 46.5348 73.9837 46.5126 73.9837Z" fill="black"/>
<path d="M108.618 47.4996C109.165 47.5783 109.545 48.0858 109.466 48.6324C109.424 48.923 109.379 49.1076 109.34 49.2652C109.237 49.8946 109.16 50.6307 109.102 53.3902V53.4175L109.099 53.4439C109.006 54.6745 108.955 55.939 108.862 56.9185C108.816 57.3962 108.808 57.8809 108.784 58.4449C108.762 58.9844 108.726 59.5773 108.612 60.1587C108.553 60.4662 108.496 60.9484 108.426 61.5376C108.359 62.1009 108.282 62.7414 108.182 63.2896C108.041 64.0615 107.881 64.9203 107.843 65.604C107.81 66.1982 107.73 67.0361 107.693 68.022C107.656 68.9982 107.672 69.9405 107.806 70.5914C107.841 70.7624 107.892 70.9641 107.954 71.2251C108.012 71.4667 108.077 71.75 108.116 72.0162C108.151 72.2451 108.193 72.6129 108.106 72.9556C108.059 73.1409 107.945 73.4322 107.659 73.6519C107.349 73.8908 106.997 73.9216 106.728 73.8794C106.462 73.8377 106.1 73.6946 105.822 73.5826C105.51 73.4567 105.082 73.2753 104.675 73.1089C103.967 72.8193 102.775 72.5085 100.232 71.3414C99.4859 70.9991 98.8793 70.6552 98.3342 70.358C97.7833 70.0575 97.2767 69.7944 96.6633 69.5621C96.1426 69.3649 95.6819 69.1072 95.2287 68.857C94.7658 68.6014 94.2632 68.3252 93.5891 68.0289C93.0952 67.8117 92.4549 67.3786 91.8469 66.9937C91.1895 66.5775 90.431 66.1211 89.5539 65.7271C89.014 65.4846 88.4571 65.2941 87.9152 65.1138C87.403 64.9434 86.8446 64.7646 86.4133 64.5611C85.329 64.0495 84.5342 63.5041 83.9191 63.0386C83.5997 62.7968 83.2374 62.5704 82.8185 62.314C82.4116 62.0649 81.9501 61.7866 81.4953 61.4703C81.1243 61.2122 80.8029 60.9689 80.5187 60.7554C80.2291 60.5379 79.9821 60.3541 79.7307 60.189C79.45 60.0047 79.1697 59.8266 78.9279 59.6871C78.8073 59.6174 78.7056 59.5625 78.6252 59.524C78.5356 59.4811 78.5086 59.4753 78.5275 59.48C77.9916 59.3465 77.6646 58.804 77.798 58.2681C77.9315 57.7324 78.4742 57.4064 79.01 57.5396C79.3202 57.6169 79.6689 57.8051 79.9279 57.9546C80.2206 58.1236 80.5394 58.3274 80.8283 58.5171C81.1393 58.7214 81.4333 58.9405 81.7199 59.1558C82.0118 59.375 82.3025 59.5953 82.6379 59.8287C83.0334 60.1038 83.4359 60.3469 83.8625 60.608C84.2773 60.8618 84.7182 61.1351 85.1262 61.4439C85.6697 61.8553 86.3449 62.3165 87.2668 62.7515C87.5616 62.8906 87.9748 63.026 88.5471 63.2163C89.0896 63.3969 89.732 63.6139 90.3732 63.9019C91.3802 64.3542 92.233 64.8711 92.9172 65.3042C93.6506 65.7686 94.0829 66.0617 94.3947 66.1988C95.1567 66.5338 95.7258 66.8467 96.1955 67.106C96.6746 67.3705 97.008 67.5544 97.3713 67.6919C98.1162 67.974 98.7192 68.2902 99.2912 68.6021C99.8687 68.917 100.399 69.218 101.066 69.524C103.64 70.7053 104.406 70.8383 105.433 71.2583C105.624 71.3365 105.797 71.4082 105.958 71.4751C105.919 71.3113 105.876 71.1404 105.846 70.9937C105.66 70.0893 105.657 68.9389 105.695 67.9468C105.732 66.9648 105.821 65.9584 105.847 65.4917C105.894 64.6558 106.081 63.6577 106.214 62.9302C106.301 62.454 106.371 61.8764 106.44 61.3013C106.505 60.7524 106.571 60.1757 106.649 59.7759C106.731 59.3514 106.764 58.8849 106.786 58.3609C106.807 57.8614 106.819 57.2773 106.871 56.729C106.965 55.7464 107.002 54.6587 107.105 53.2935C107.164 50.5366 107.241 49.6986 107.37 48.9185L107.377 48.8785L107.387 48.8394C107.423 48.6946 107.453 48.5763 107.486 48.3472C107.564 47.8006 108.072 47.4209 108.618 47.4996Z" fill="black"/>
<path d="M48.3152 0.223601C50.0843 -0.0170991 51.7554 -0.126951 55.0603 0.223601C56.6476 0.391967 58.6844 0.614051 60.9568 0.902312C63.328 1.2031 68.1539 1.53983 73.2478 1.36813C75.757 1.28357 78.3249 1.30988 80.3357 1.39938C81.3406 1.44411 82.2126 1.50536 82.8709 1.57712C83.1991 1.6129 83.482 1.65236 83.7049 1.69528C83.8161 1.7167 83.9196 1.73993 84.0096 1.76657C84.0913 1.79079 84.195 1.82722 84.2869 1.88473C84.5207 2.03122 84.5922 2.33926 84.4461 2.57321C84.2996 2.80712 83.9906 2.87871 83.7566 2.73239C83.7811 2.7477 83.7813 2.74211 83.7254 2.72555C83.6774 2.71135 83.6082 2.6946 83.5154 2.67673C83.3302 2.64108 83.0776 2.60561 82.7625 2.57126C82.1335 2.5027 81.285 2.44262 80.2918 2.39841C78.3063 2.31003 75.7637 2.28445 73.281 2.36813C68.1333 2.54162 63.2551 2.20186 60.8318 1.8945C58.5694 1.60751 56.54 1.38588 54.9549 1.21774C51.755 0.878326 50.1642 0.982444 48.493 1.20798C47.7987 1.43751 47.1306 1.63903 46.4051 1.83688C46.0298 1.96179 45.5846 2.15156 44.7 2.55954C44.4493 2.67493 44.1525 2.56507 44.0369 2.31442C43.9216 2.06375 44.0314 1.76692 44.282 1.65134C45.1683 1.2426 45.6602 1.03042 46.0965 0.88571L46.1219 0.877898C46.8542 0.678545 47.5248 0.476286 48.2244 0.244109L48.2693 0.22946L48.3152 0.223601Z" fill="black"/>
<path d="M24.0899 29.3956C24.9248 29.1724 25.7264 29.1745 26.3779 29.2482L26.3965 29.2501L26.4141 29.253C27.4565 29.4492 28.9806 29.5814 31.5625 29.7511H31.5615C33.2582 29.8031 34.6141 29.926 36.0606 30.0499C37.511 30.1741 39.0614 30.2999 41.167 30.3595C47.1104 30.5278 51.1281 30.5948 51.7891 30.5948C52.0652 30.5949 52.2891 30.8187 52.2891 31.0948C52.289 31.3709 52.0652 31.5948 51.7891 31.5948C51.1121 31.5948 47.0809 31.5277 41.1387 31.3595C39.0043 31.299 37.4313 31.1717 35.9746 31.047C34.5184 30.9223 33.1866 30.8008 31.5147 30.7501H31.5059L31.4971 30.7491C28.9422 30.5812 27.3596 30.4467 26.2481 30.2394C25.6851 30.1773 25.0218 30.1812 24.3477 30.3614C24.081 30.4326 23.8068 30.2745 23.7354 30.0079C23.664 29.7411 23.8231 29.4669 24.0899 29.3956Z" fill="black"/>
<path d="M27.26 67.2876C27.536 67.2878 27.76 67.5116 27.76 67.7876C27.76 68.0636 27.536 68.2873 27.26 68.2876C27.2032 68.2876 27.1493 68.2873 22.7248 68.4214C18.3087 68.5552 9.54503 68.8224 0.515862 69.0981C0.239848 69.1065 0.00866523 68.8898 0.000237134 68.6137C-0.00818501 68.3379 0.208779 68.1077 0.484612 68.0991C9.51383 67.8234 18.2782 67.5552 22.6946 67.4214C27.1023 67.2878 27.183 67.2876 27.26 67.2876Z" fill="black"/>
<path d="M9.01442 46.2044C9.29056 46.2044 9.51442 46.4283 9.51442 46.7044C9.51442 46.9806 9.29056 47.2044 9.01442 47.2044C8.62184 47.2045 7.8342 47.2983 6.91579 47.4339C6.01317 47.5672 5.02331 47.7351 4.24587 47.8714C3.93798 47.9327 3.68264 48.0416 3.28493 48.1615C2.91144 48.2741 2.62092 48.3281 1.88649 48.5941C1.62697 48.6878 1.34082 48.5528 1.24684 48.2933C1.153 48.0337 1.2871 47.7477 1.54665 47.6537C2.31214 47.3764 2.6913 47.2956 2.99684 47.2035C3.27595 47.1193 3.68878 46.9617 4.05739 46.889L4.06813 46.8871C4.84979 46.7499 5.8518 46.5802 6.7693 46.4447C7.67279 46.3112 8.53523 46.2045 9.01442 46.2044Z" fill="black"/>
<path d="M37.8875 117.63C38.1637 117.63 38.3875 117.853 38.3875 118.13C38.3875 118.406 38.1637 118.63 37.8875 118.63C35.7048 118.63 30.8646 119.428 25.0076 120.561L25.0018 120.562C18.7239 121.697 14.3907 121.902 11.2488 122.207L11.2401 122.208L11.2303 122.209C9.46848 122.314 7.42604 122.314 5.3426 122.314C5.06653 122.314 4.84272 122.09 4.8426 121.814C4.8426 121.538 5.06645 121.314 5.3426 121.314C7.42711 121.314 9.43035 121.313 11.1522 121.211C14.3336 120.902 18.5949 120.702 24.8143 119.579C30.6362 118.452 35.5873 117.63 37.8875 117.63Z" fill="black"/>
<path d="M33.5897 90.611C33.8657 90.6112 34.0897 90.835 34.0897 91.111C34.0897 91.387 33.8657 91.6108 33.5897 91.611H5.3426C5.06645 91.611 4.8426 91.3871 4.8426 91.111C4.8426 90.8349 5.06645 90.611 5.3426 90.611H33.5897Z" fill="black"/>
<path d="M18.6719 140.997C18.9296 140.898 19.2191 141.027 19.3184 141.284C19.4176 141.542 19.2889 141.831 19.0313 141.931C16.3685 142.957 15.5706 143.357 14.6397 143.77C13.7054 144.184 12.6757 144.596 12.043 144.806C11.7235 144.912 11.4927 144.971 11.3057 145.002C11.1116 145.034 10.9769 145.034 10.8691 145.034C10.593 145.034 10.3692 144.81 10.3691 144.534C10.3691 144.258 10.593 144.034 10.8691 144.034C10.9639 144.034 11.0322 144.034 11.1426 144.016C11.2602 143.996 11.4367 143.954 11.7275 143.858C12.3168 143.662 13.3143 143.264 14.2344 142.856C15.1578 142.446 15.9807 142.034 18.6719 140.997Z" fill="black"/>
<path d="M22.4256 136.064C22.6949 136.003 22.963 136.172 23.0242 136.441C23.0851 136.71 22.9162 136.977 22.6473 137.039C21.2694 137.352 20.0652 137.508 19.0301 137.612C17.9764 137.718 17.1513 137.766 16.449 137.869C15.0963 138.066 14.3458 138.443 13.4119 138.857L13.4031 138.861C11.4533 139.682 9.8013 140.301 8.5711 140.711C8.30921 140.798 8.02568 140.656 7.93829 140.394C7.85097 140.132 7.99277 139.849 8.25469 139.761C9.45612 139.361 11.0836 138.752 13.0145 137.939C13.9317 137.532 14.8017 137.099 16.3055 136.88C17.0339 136.773 17.9379 136.717 18.9305 136.617C19.9416 136.515 21.1018 136.365 22.4256 136.064Z" fill="black"/>
<path d="M69.2045 173.509C69.4807 173.509 69.7045 173.733 69.7045 174.009C69.7045 174.285 69.4807 174.509 69.2045 174.509C69.2163 174.509 69.1716 174.509 69.0473 174.571C68.931 174.629 68.7786 174.724 68.5883 174.866C68.208 175.151 67.717 175.59 67.1118 176.196C65.9545 177.353 65.1818 178.694 64.892 180.408C64.8435 180.892 64.8241 181.389 64.9477 181.975C65.0731 182.569 65.3521 183.283 65.9379 184.173C66.0897 184.404 66.0259 184.714 65.7953 184.866C65.5647 185.017 65.2548 184.954 65.103 184.723C64.4608 183.747 64.1257 182.919 63.9702 182.182C63.8144 181.444 63.8443 180.825 63.8989 180.289L63.9008 180.274L63.9037 180.257C64.23 178.307 65.1151 176.778 66.4047 175.489C67.0244 174.869 67.5541 174.391 67.9897 174.066C68.2072 173.903 68.4121 173.77 68.601 173.676C68.7817 173.586 68.9903 173.509 69.2045 173.509Z" fill="black"/>
<path d="M63.1652 174.133C63.393 174.18 63.5646 174.382 63.5646 174.623C63.5646 174.881 63.3689 175.09 63.1183 175.117C63.1098 175.122 63.0751 175.14 63.0119 175.194C62.9022 175.289 62.7557 175.449 62.5763 175.693C62.224 176.173 61.7859 176.918 61.2902 177.952C60.7018 180.21 60.5145 182.546 60.9728 184.557C61.1735 184.901 61.4795 185.216 62.0763 185.589C62.7178 185.99 63.6607 186.438 65.1037 187.059C65.3574 187.168 65.4744 187.462 65.3654 187.716C65.2563 187.969 64.9628 188.087 64.7092 187.978C63.2664 187.358 62.2594 186.882 61.5461 186.437C60.8208 185.983 60.3683 185.542 60.0617 184.979L60.0295 184.92L60.0138 184.855C59.4822 182.602 59.7064 180.046 60.3361 177.652L60.3478 177.607L60.3683 177.565C60.8868 176.478 61.3625 175.658 61.7707 175.102C61.9738 174.825 62.1712 174.598 62.3605 174.436C62.5307 174.289 62.7759 174.123 63.0646 174.123L63.1652 174.133Z" fill="black"/>
<path d="M48.9409 105.348C49.217 105.348 49.4409 105.572 49.4409 105.848C49.4409 106.125 49.217 106.348 48.9409 106.348H42.8002C42.5241 106.348 42.3002 106.125 42.3002 105.848C42.3002 105.572 42.5241 105.348 42.8002 105.348H48.9409Z" fill="black"/>
<path d="M103.054 38.1934C103.205 37.6623 103.758 37.3539 104.289 37.5049C104.522 37.5713 104.723 37.7051 104.835 37.7842C104.974 37.8823 105.12 38.0012 105.262 38.127C105.546 38.3796 105.861 38.7001 106.147 39.0342C106.185 39.078 106.302 39.173 106.691 39.2315C107.063 39.2872 107.509 39.2868 108.084 39.2872C108.488 39.2032 108.773 39.0994 108.973 39.0118L109.021 38.9922C109.222 38.9167 109.413 38.8701 109.546 38.837C110.082 38.7031 110.625 39.0287 110.759 39.5645C110.892 40.1001 110.567 40.6433 110.031 40.7774C109.887 40.8135 109.806 40.8338 109.731 40.8614C109.401 41.0028 108.962 41.1579 108.374 41.2706L108.28 41.2881H108.184C107.625 41.2877 106.971 41.2953 106.395 41.209C105.816 41.1222 105.127 40.9162 104.629 40.335C104.398 40.0658 104.147 39.8114 103.934 39.6231C103.828 39.5284 103.741 39.4603 103.682 39.418C103.669 39.4092 103.659 39.4025 103.651 39.3975C103.177 39.2123 102.911 38.6935 103.054 38.1934Z" fill="black"/>
</svg>
