<svg width="136" height="194" viewBox="0 0 136 194" fill="none" xmlns="http://www.w3.org/2000/svg">
<path d="M102.519 8.42361C105.022 8.39597 107.262 8.40694 107.892 8.45584C108.301 8.48765 108.685 8.56258 109.091 8.65213C109.511 8.74459 109.945 8.85048 110.547 8.97341C111.023 9.07044 111.422 9.21716 111.749 9.34744C112.105 9.48902 112.306 9.57903 112.522 9.64334L112.552 9.6531L112.582 9.66384C112.909 9.78416 113.272 9.94947 113.613 10.1199C113.761 10.194 113.877 10.2523 113.997 10.3123C114.331 10.4789 114.529 10.8069 114.548 11.1541C114.705 11.2272 114.876 11.306 115.052 11.3904C115.679 11.6906 116.371 12.0301 116.925 12.2928C117.768 12.6923 118.312 13.2566 118.815 13.7449C119.343 14.2582 119.759 14.8832 120.158 15.4461C120.647 16.1367 121.317 16.909 121.851 17.865C122.355 18.7688 122.842 19.6821 123.169 20.3992C123.579 21.2961 123.806 21.8857 124.019 22.3777C124.297 23.0196 124.475 23.8451 124.555 24.7654C124.593 25.1993 124.747 25.8959 124.823 27.7859C124.833 28.0419 124.855 28.2338 124.886 28.6199C124.916 28.9911 124.947 29.4804 124.97 30.2508C125.008 31.5481 124.986 33.8771 124.971 35.1453C124.95 36.9949 124.666 38.0564 124.597 38.7097C124.487 39.7439 123.859 40.6125 123.552 41.1326C123.288 41.5796 122.854 42.399 122.419 43.0974C121.746 44.1781 121.12 44.9031 120.529 45.5554C120.094 46.035 119.654 46.5547 119.095 47.0135C118.316 47.6529 117.47 47.9997 117.05 48.2263C116.5 48.5239 115.747 48.8993 113.586 49.9138C112.689 50.335 111.462 51.0527 110.351 51.7683C109.996 51.9966 109.494 52.2207 109.037 52.407C108.563 52.6007 108.065 52.7818 107.681 52.9178C107.428 53.0072 107.186 53.0458 106.841 53.072C106.509 53.0973 106.019 53.1156 105.251 53.1375C103.825 53.1782 101.146 53.152 99.7278 53.1375C97.5896 53.1156 96.3816 53.0027 95.8655 52.9568C95.2391 52.9011 94.3178 52.775 93.179 52.3152C92.4635 52.0264 91.2051 51.3838 90.0237 50.8152C89.4418 50.5351 88.5558 50.026 87.6468 49.3943C86.7504 48.7714 86.2641 48.4199 85.4261 47.908C84.7337 47.485 83.9773 46.8096 83.4456 46.2625C82.8592 45.6591 82.3071 44.9522 81.8812 44.4256C81.3649 43.7874 81.0112 43.3083 80.0462 42.1365C79.2166 41.129 78.855 40.3872 78.5501 39.8201C78.2104 39.1883 77.7644 38.2684 77.4925 37.5476C77.0951 36.4943 76.7924 35.6847 76.5169 34.8152C76.2839 34.0797 76.2204 33.3472 76.2083 32.6228C76.1973 31.9659 76.2331 31.0827 76.2327 30.3455C76.2319 28.6658 76.5107 26.929 76.5794 26.3709C76.6752 25.593 76.9655 24.8671 77.7884 23.2937C78.5141 21.9062 79.3796 20.972 79.9095 20.3299C80.4142 19.7182 80.8484 19.1348 81.3392 18.4803C81.6605 18.0516 81.8768 17.7157 82.0677 17.4148C82.2537 17.1215 82.4438 16.8144 82.6819 16.5135C83.0105 16.0983 83.3111 15.6578 83.6087 15.1189C83.9949 14.4195 84.3413 13.8279 84.8216 13.3465C85.1431 13.0241 85.529 12.7875 85.8763 12.5838C86.2472 12.3661 86.6206 12.1608 87.0687 11.864C87.6601 11.4723 88.2448 11.1274 89.0091 10.7527C89.4601 10.5316 90.1774 10.1182 90.7786 9.87088C91.6616 9.50776 92.2955 9.26962 92.9554 9.03006C93.6555 8.77591 94.6527 8.62323 95.5032 8.51931C95.7734 8.48631 96.0642 8.4688 97.3997 8.45388C98.0772 8.44632 99.0311 8.44196 99.9759 8.43826C100.924 8.43455 101.863 8.43086 102.519 8.42361ZM102.541 10.4236C101.876 10.431 100.928 10.4346 99.9837 10.4383C99.036 10.442 98.0907 10.4454 97.4222 10.4529C96.0672 10.468 95.888 10.4874 95.7464 10.5047C94.8814 10.6103 94.0968 10.7434 93.638 10.9099C92.9971 11.1426 92.3904 11.3705 91.5394 11.7205C90.9903 11.9463 90.5804 12.2101 89.8899 12.5486C89.2095 12.8822 88.6992 13.1836 88.1731 13.532C87.6652 13.8684 87.2137 14.1188 86.889 14.3094C86.5406 14.5138 86.3585 14.6383 86.2376 14.7595C85.9806 15.0173 85.7523 15.3736 85.3597 16.0847C85.0064 16.7246 84.6439 17.2573 84.2503 17.7547C84.0912 17.9557 83.9626 18.1621 83.7571 18.4861C83.5562 18.803 83.3074 19.19 82.9397 19.6804C82.4559 20.3258 81.9916 20.9478 81.4515 21.6023C80.8538 22.3265 80.164 23.0655 79.5599 24.2205C78.7373 25.7932 78.6118 26.234 78.5647 26.616C78.4839 27.2722 78.2319 28.8256 78.2327 30.3445C78.2332 31.2848 78.1965 31.8834 78.2083 32.5896C78.219 33.2281 78.2743 33.7407 78.4231 34.2107C78.68 35.0213 78.9642 35.7829 79.3636 36.8416C79.5931 37.45 79.9957 38.2848 80.3118 38.8728C80.6258 39.4568 80.9028 40.0304 81.5901 40.865C82.5395 42.0178 82.9877 42.6125 83.4368 43.1678C83.8978 43.7377 84.3739 44.3489 84.8792 44.8689C85.3548 45.3583 85.9789 45.9015 86.469 46.201C87.3694 46.751 87.9126 47.1438 88.7874 47.7517C89.6229 48.3323 90.418 48.7848 90.8909 49.0125C92.1698 49.628 93.2922 50.204 93.928 50.4607C94.8238 50.8223 95.5349 50.9195 96.0423 50.9646C96.5309 51.0081 97.6821 51.1163 99.7483 51.1375C101.183 51.1522 103.816 51.1768 105.195 51.1375C105.975 51.1152 106.414 51.0989 106.69 51.0779C106.95 51.0581 106.997 51.0389 107.013 51.033C107.387 50.9006 107.851 50.7316 108.283 50.5554C108.732 50.372 109.083 50.206 109.268 50.0867C110.41 49.3512 111.722 48.5802 112.736 48.1043C114.898 47.0893 115.604 46.7343 116.099 46.4666C116.771 46.1035 117.245 45.9447 117.826 45.4676C118.239 45.1287 118.548 44.7616 119.046 44.2117C119.604 43.5968 120.141 42.9742 120.722 42.0408C121.17 41.3217 121.46 40.7417 121.829 40.116C122.288 39.338 122.558 38.9775 122.609 38.4988C122.718 37.4684 122.951 36.8904 122.971 35.1228C122.986 33.8405 123.008 31.557 122.971 30.3094C122.949 29.5735 122.919 29.1182 122.892 28.7801C122.866 28.457 122.837 28.1748 122.825 27.865C122.75 25.9921 122.622 25.6338 122.562 24.9392C122.493 24.1478 122.347 23.5519 122.183 23.1726C121.924 22.5734 121.759 22.1221 121.351 21.2293C121.058 20.589 120.603 19.7346 120.104 18.8396C119.633 17.9963 119.18 17.5256 118.526 16.6023C118.069 15.9573 117.783 15.5306 117.421 15.1795C116.862 14.6368 116.556 14.3308 116.068 14.0994C115.519 13.8395 114.781 13.4787 114.189 13.1951C113.885 13.0498 113.614 12.9225 113.407 12.8289C113.302 12.7819 113.221 12.7462 113.162 12.7224C113.125 12.7072 113.108 12.7015 113.107 12.701L113.158 12.7136C112.693 12.6108 112.376 12.2011 112.373 11.7449C112.197 11.6637 112.034 11.593 111.892 11.5408V11.5398C111.579 11.4414 111.251 11.3011 111.009 11.2049C110.723 11.0912 110.452 10.9945 110.148 10.9324C109.528 10.806 109.033 10.6874 108.66 10.6053C108.275 10.5203 108.003 10.4706 107.738 10.45C107.218 10.4096 105.082 10.3956 102.541 10.4236Z" fill="black"/>
<path d="M99.4486 3.23384C99.8682 3.16139 100.319 3.2084 100.713 3.28071C101.124 3.35599 101.562 3.47675 101.989 3.60884C102.253 3.69073 103.067 3.94551 104.163 4.58247C104.513 4.78584 104.855 4.98974 105.109 5.18989C105.293 5.33554 105.715 5.68767 105.772 6.2563L105.778 6.37349L105.774 6.91255C105.761 7.37414 105.726 7.62226 105.713 7.81196C105.701 7.98945 105.686 8.1888 105.667 8.36177C105.658 8.44765 105.646 8.53945 105.631 8.62544C105.62 8.68844 105.593 8.83228 105.532 8.97505C105.312 9.48185 104.724 9.71489 104.217 9.49556C103.741 9.28922 103.505 8.75625 103.662 8.27193C103.666 8.24597 103.673 8.20415 103.679 8.144C103.693 8.01533 103.706 7.85173 103.718 7.67818C103.739 7.37317 103.77 7.18365 103.776 6.69087C103.731 6.65954 103.675 6.62295 103.608 6.58052C103.485 6.50315 103.337 6.41558 103.159 6.31196C102.241 5.77892 101.583 5.57667 101.397 5.519C101.004 5.39715 100.651 5.30315 100.353 5.24849C100.039 5.19089 99.8616 5.1919 99.7885 5.20454C99.561 5.2439 99.3517 5.33149 98.8441 5.50239C98.3794 5.65888 97.7931 5.83339 97.0111 5.94282C96.608 5.99923 96.1141 6.00387 95.6908 6.00337C95.2314 6.00282 94.8373 5.99587 94.5228 6.01314C93.8514 6.05001 93.5212 6.12202 93.3549 6.17329C93.2765 6.19747 93.2239 6.22072 93.1762 6.24361C93.1665 6.24822 93.0088 6.32861 92.9115 6.36861C92.6935 6.4582 92.4687 6.60918 92.2875 6.75923C92.0916 6.92142 91.8585 7.03823 91.767 7.08736C91.6511 7.14957 91.5828 7.19014 91.5238 7.23775C91.195 7.55455 90.8669 7.75705 90.5131 7.91939L90.5141 7.92134C90.4687 7.94392 90.221 8.08442 89.9057 8.20357C89.389 8.39874 88.8118 8.13818 88.6166 7.62154C88.4337 7.1372 88.6512 6.59954 89.1049 6.37349L89.4174 6.23677C89.4778 6.20605 89.5364 6.17412 89.6225 6.1313L89.64 6.12154L89.6586 6.11372C89.8637 6.02171 90.006 5.93051 90.1635 5.7729L90.1947 5.74165L90.2289 5.71333C90.4558 5.52339 90.6764 5.40211 90.8207 5.32466C90.9013 5.28141 90.9409 5.26099 90.9808 5.23775C91.0157 5.21745 91.0203 5.21239 91.0121 5.21919C91.2845 4.99371 91.6829 4.71136 92.1508 4.519C92.1508 4.51899 92.1588 4.51539 92.1869 4.50142C92.2081 4.49089 92.2621 4.46329 92.3109 4.43989C92.4264 4.38456 92.5723 4.32163 92.765 4.26216C93.1413 4.1461 93.6471 4.05815 94.4135 4.01607C94.8017 3.99476 95.2872 4.00289 95.6928 4.00337C96.1341 4.0039 96.4909 3.99631 96.7338 3.96236C97.3523 3.87579 97.8115 3.73953 98.2055 3.60689C98.5559 3.48888 99.0195 3.30797 99.4486 3.23384Z" fill="black"/>
<path d="M104.358 0.00708793C104.697 0.0473149 104.729 0.0674069 105.132 0.0969317C105.482 0.122589 106.308 0.16226 107.061 0.222908C107.832 0.284932 108.717 0.36274 109.24 0.4524C109.99 0.580934 110.924 0.647359 111.936 1.48756C112.059 1.58914 112.325 1.79167 112.513 1.9856C112.71 2.18724 112.918 2.46508 113.022 2.84303L113.06 3.01099L113.102 3.26002C113.144 3.52351 113.176 3.83227 113.15 4.19752C113.117 4.66364 112.933 5.43133 112.621 6.06666C112.577 6.15678 112.528 6.27241 112.446 6.46217C112.371 6.63627 112.277 6.84847 112.164 7.06861C111.942 7.49883 111.609 8.0331 111.093 8.43873C110.403 8.98023 109.561 9.45415 109.29 9.57935C108.788 9.81073 108.194 9.59238 107.963 9.09107C107.731 8.58965 107.951 7.99543 108.452 7.76392C108.584 7.70283 109.292 7.30937 109.857 6.86549C110.044 6.7185 110.219 6.47834 110.387 6.1526C110.468 5.99495 110.539 5.83353 110.61 5.6692C110.674 5.5208 110.753 5.33251 110.826 5.18385C110.919 4.99467 111 4.76662 111.06 4.54517C111.122 4.31917 111.149 4.14199 111.155 4.05787C111.17 3.84965 111.146 3.6842 111.096 3.39869C111.092 3.394 111.087 3.38784 111.081 3.38111C111.049 3.3483 111.003 3.30644 110.928 3.24439C110.89 3.21379 110.851 3.18286 110.805 3.14576C110.761 3.10994 110.711 3.06939 110.659 3.02662C110.135 2.59168 109.784 2.57429 108.902 2.4231C108.486 2.35174 107.699 2.28034 106.9 2.21607C106.085 2.15044 105.49 2.12907 104.985 2.09205C104.533 2.0589 104.318 2.01679 104.122 1.99342C103.573 1.92817 103.182 1.43048 103.247 0.882088C103.312 0.333714 103.81 -0.0581052 104.358 0.00708793Z" fill="black"/>
<path d="M98.7194 16.7476C99.0754 16.7476 99.3869 16.9344 99.5641 17.2144C99.5766 17.214 99.5895 17.2116 99.6022 17.2115C99.8066 17.2093 100.103 17.2513 100.377 17.4508L100.493 17.5465L100.641 17.6998C100.78 17.8582 100.891 18.0328 100.982 18.2232C101.099 18.4679 101.22 18.7564 101.3 19.0592C101.376 19.3541 101.433 19.7335 101.349 20.1285C101.293 20.3979 101.211 20.8903 100.951 21.3385C100.753 21.6796 100.709 21.7624 100.694 21.8785C100.624 22.4224 100.503 22.9382 100.119 23.4019C99.861 23.713 99.397 24.2467 98.8708 24.5553C98.8778 24.5511 98.874 24.5537 98.8444 24.5748C98.8276 24.5868 98.768 24.6301 98.7253 24.6597C98.6212 24.732 98.4606 24.8357 98.2526 24.9166C97.7874 25.0975 97.2598 25.0984 96.6725 24.8697C96.3083 24.7278 96.0168 24.5352 95.7692 24.2584C95.691 24.1709 95.5503 24.0095 95.444 23.7818C95.3312 23.5401 95.2828 23.2832 95.2849 23.0123L95.2907 22.7799C95.3385 21.635 95.6674 20.7335 95.9538 20.0435C96.1344 19.6085 96.2938 19.265 96.5446 18.8043C96.5701 18.7574 96.6042 18.6791 96.6804 18.5113C96.7463 18.366 96.8332 18.1771 96.9362 17.9888C97.0374 17.804 97.1727 17.5852 97.3464 17.3883C97.5152 17.1969 97.777 16.9615 98.1462 16.8463L98.28 16.8082C98.4179 16.7729 98.5682 16.7477 98.7194 16.7476Z" fill="black"/>
<path d="M109.596 18.5449C110.012 18.545 110.368 18.8005 110.519 19.163C110.587 19.2066 110.64 19.2448 110.672 19.2705C110.715 19.3048 110.773 19.3539 110.786 19.3652C110.812 19.3866 110.821 19.3928 110.823 19.3945C111.257 19.6982 111.531 20.0908 111.685 20.5312C111.81 20.8907 111.912 21.2273 111.97 21.6552C112.046 22.2221 112.336 23.2914 111.948 24.6923C111.896 24.8795 111.855 25.0472 111.814 25.2099C111.776 25.3627 111.733 25.5311 111.685 25.6806C111.639 25.821 111.565 26.0266 111.431 26.2168C111.278 26.4329 111.026 26.6598 110.652 26.7382C110.23 26.8267 109.707 26.8756 109.255 26.8798C109.028 26.8819 108.792 26.8727 108.58 26.8447C108.474 26.8307 108.355 26.8097 108.236 26.7753C108.132 26.7452 107.954 26.6841 107.782 26.5537C107.443 26.2951 107.076 25.9239 106.904 25.372C106.894 25.3384 106.893 25.3412 106.848 25.2168C106.812 25.1193 106.769 24.9911 106.733 24.832C106.66 24.5091 106.63 24.1212 106.671 23.6093C106.707 23.1552 106.737 22.7695 106.852 22.3662C106.9 22.1952 107.016 21.691 107.158 21.3251C107.338 20.8604 107.599 20.1743 107.838 19.7988C107.862 19.7614 107.883 19.7217 107.941 19.6201C107.99 19.5359 108.058 19.4181 108.143 19.2998C108.29 19.0929 108.617 18.6902 109.183 18.5849C109.386 18.547 109.53 18.5449 109.596 18.5449Z" fill="black"/>
<path d="M100.801 11.6735C101.354 11.6735 101.801 12.1212 101.801 12.6735C101.801 13.2108 101.378 13.6471 100.846 13.6706C100.82 13.6787 100.789 13.6905 100.755 13.6989L100.729 13.7047L100.702 13.7106C100.428 13.7626 100.211 13.8081 99.9614 13.8678C99.8205 13.9015 99.3598 14.0414 98.9682 14.1696C98.7826 14.2303 98.6312 14.2709 98.5229 14.3004C98.4124 14.3306 98.3491 14.3485 98.2836 14.3737C97.786 14.5655 97.7401 14.568 97.5805 14.6393C97.1598 14.8273 96.6898 15.0205 96.3608 15.1784C96.2162 15.2478 96.0441 15.3424 95.8364 15.4557C95.6485 15.5582 95.4179 15.6832 95.2143 15.7721C94.7083 15.9932 94.119 15.7625 93.8979 15.2565C93.6769 14.7505 93.9076 14.1612 94.4135 13.9401C94.5225 13.8925 94.6753 13.8112 94.8793 13.6999C95.0635 13.5994 95.2921 13.4723 95.4956 13.3747C95.848 13.2055 96.4356 12.9599 96.7641 12.8131C96.9696 12.7213 97.2482 12.6295 97.5649 12.5075C97.7314 12.4433 97.8776 12.4032 97.9965 12.3708C98.118 12.3377 98.2177 12.3112 98.3461 12.2692C98.7258 12.145 99.2633 11.9783 99.4965 11.9225C99.7642 11.8585 99.9987 11.8098 100.271 11.7575C100.282 11.7535 100.301 11.7462 100.321 11.7399C100.35 11.7306 100.39 11.7185 100.438 11.7077L100.565 11.6862C100.685 11.6711 100.782 11.6735 100.801 11.6735Z" fill="black"/>
<path d="M110.685 13.0104L110.821 13.0367C110.957 13.069 111.088 13.1167 111.192 13.1588C111.354 13.2235 111.54 13.3103 111.743 13.4166C111.99 13.5458 112.202 13.6817 112.371 13.7916C112.551 13.9085 112.671 13.9874 112.794 14.0533C112.922 14.1217 113.177 14.2487 113.345 14.3443C113.542 14.4572 113.782 14.6131 113.995 14.8414C114.241 15.1039 114.469 15.3786 114.687 15.6988C114.689 15.6998 114.69 15.7008 114.691 15.7018L114.821 15.8141L114.943 15.9537C114.975 15.9947 114.998 16.0271 115.007 16.0396C115.035 16.079 115.064 16.1196 115.113 16.1812C115.457 16.613 115.387 17.2422 114.955 17.5865C114.523 17.9307 113.894 17.8599 113.55 17.4283C113.486 17.3479 113.44 17.2839 113.407 17.2379C113.365 17.2059 113.3 17.1549 113.235 17.0895L113.16 17.0143L113.103 16.9244C112.94 16.6692 112.76 16.4493 112.534 16.2076C112.518 16.1901 112.474 16.1508 112.352 16.0807C112.199 15.9931 112.097 15.9487 111.85 15.816C111.636 15.7017 111.437 15.5702 111.281 15.4693C111.115 15.3614 110.974 15.2707 110.817 15.1891C110.66 15.1071 110.535 15.0505 110.447 15.0152C110.404 14.9978 110.375 14.9878 110.359 14.983L110.403 14.9908C109.857 14.9131 109.476 14.4067 109.554 13.86C109.627 13.3473 110.076 12.9811 110.583 13.0016L110.685 13.0104Z" fill="black"/>
<path d="M94.1232 24.4494C94.565 24.1181 95.1922 24.2078 95.5236 24.6496C95.6901 24.8719 95.7498 25.141 95.712 25.3957C95.7961 25.4601 95.9024 25.5416 96.0304 25.633C96.0716 25.6624 96.1296 25.6891 96.2159 25.7121C96.3228 25.7406 96.384 25.7455 96.5509 25.7746C96.671 25.7956 96.7606 25.8096 96.9904 25.8313C97.1517 25.8465 97.4932 25.8537 97.7511 25.8508C97.9895 25.8223 98.0981 25.8032 98.1505 25.7893C98.1593 25.7869 98.1649 25.7845 98.1681 25.7834L98.1798 25.7766C98.2155 25.7542 98.2574 25.7282 98.2882 25.7092C98.3293 25.6839 98.3719 25.6575 98.4171 25.6282C98.8804 25.3275 99.5003 25.4598 99.8009 25.9231C100.101 26.3863 99.9691 27.0053 99.506 27.3059C99.4412 27.3479 99.3828 27.3846 99.3361 27.4133C99.2842 27.4452 99.2592 27.4596 99.2384 27.4729L99.2306 27.4787L99.2228 27.4836C98.8613 27.7046 98.5291 27.7764 97.9347 27.8449L97.8868 27.8508L97.838 27.8518C97.5407 27.8572 97.0805 27.8486 96.8029 27.8225C96.5177 27.7956 96.3755 27.7739 96.2062 27.7444C96.0788 27.7222 95.4297 27.6618 94.8673 27.26C94.6792 27.1256 94.5156 27.0033 94.3898 26.9035C94.3278 26.8544 94.2669 26.8044 94.214 26.7571C94.1923 26.7377 94.0733 26.6349 93.9825 26.4973C93.9446 26.4398 93.8378 26.2835 93.7579 26.1135C93.6924 25.974 93.5308 25.5974 93.6554 25.1555L93.715 24.9846C93.79 24.8046 93.9152 24.6054 94.1232 24.4494Z" fill="black"/>
<path d="M106.082 26.8187C106.592 26.6051 107.177 26.8446 107.391 27.3539C107.422 27.4277 107.502 27.5626 107.623 27.7172C107.679 27.7886 107.735 27.8528 107.784 27.9047C107.809 27.9304 107.83 27.9515 107.847 27.9672C107.855 27.9748 107.862 27.9805 107.866 27.9847C107.87 27.988 107.872 27.9899 107.873 27.9906C107.916 28.0243 108.054 28.0928 108.323 28.1517C108.566 28.2052 108.818 28.231 109.03 28.2514C109.246 28.2701 109.493 28.2644 109.702 28.2367C109.806 28.223 109.885 28.2054 109.939 28.1898C109.955 28.1851 109.966 28.1806 109.973 28.1781C110.005 28.1579 110.037 28.1406 110.058 28.1283C110.083 28.1135 110.098 28.1046 110.114 28.0951C110.142 28.0779 110.153 28.069 110.158 28.0648C110.591 27.7216 111.22 27.7945 111.564 28.2269C111.907 28.6593 111.835 29.2878 111.403 29.6312C111.306 29.7079 111.216 29.7648 111.15 29.8051C111.045 29.8686 111.077 29.8466 111.032 29.8754L111.031 29.8744C110.692 30.0927 110.265 30.1793 109.963 30.2191C109.609 30.2658 109.217 30.2747 108.857 30.2435L108.847 30.2426C108.639 30.2226 108.273 30.1879 107.894 30.1049C107.536 30.0264 107.041 29.8804 106.639 29.5648C106.436 29.4055 106.222 29.172 106.048 28.9496C105.872 28.725 105.675 28.4311 105.547 28.1273C105.334 27.618 105.573 27.0324 106.082 26.8187Z" fill="black"/>
<path d="M100.443 30.5717C101.159 30.5776 101.75 30.553 102.521 30.6469C103.265 30.7377 103.761 30.7759 104.274 30.8696C104.426 30.8973 104.562 30.9112 104.867 30.9516C105.154 30.9896 105.53 31.044 106.08 31.1459C106.315 31.1896 106.754 31.2451 107.482 31.3979C108.004 31.5073 108.895 31.6917 109.592 31.9047C110.157 32.0776 110.574 32.2204 110.868 32.3266C111.015 32.3796 111.13 32.4227 111.216 32.4555C111.252 32.4693 111.3 32.4882 111.319 32.4955C111.332 32.5005 111.342 32.5035 111.35 32.5063C111.356 32.5087 111.358 32.5102 111.358 32.5102C111.362 32.5112 111.37 32.5141 111.385 32.519C111.407 32.526 111.439 32.5363 111.476 32.5483C111.551 32.5728 111.651 32.6058 111.767 32.6489C111.998 32.7349 112.298 32.8603 112.631 33.0375C112.834 33.1455 112.994 33.2353 113.093 33.2895C113.14 33.3156 113.169 33.3296 113.187 33.3383C113.668 33.5197 113.938 34.0442 113.795 34.5483C113.644 35.0792 113.091 35.3868 112.56 35.2358C112.445 35.2031 112.347 35.1557 112.302 35.1332C112.245 35.1052 112.185 35.0725 112.13 35.0424C112.012 34.9776 111.879 34.902 111.691 34.8022C111.206 34.5439 110.852 34.4518 110.693 34.3959C110.522 34.3356 110.08 34.1451 109.007 33.8168C108.414 33.6356 107.62 33.4698 107.072 33.3549C106.327 33.1984 106.139 33.1911 105.716 33.1127C105.204 33.0178 104.862 32.968 104.604 32.934C104.366 32.9025 104.131 32.8767 103.915 32.8373C103.478 32.7576 103.136 32.7367 102.278 32.6323C101.656 32.5564 101.243 32.5784 100.427 32.5717C99.7701 32.5664 98.5168 32.6007 97.7979 32.6254C96.7365 32.6619 96.3017 32.7398 95.7246 32.8041C95.1352 32.8699 94.7301 32.9605 94.4375 33.0385C94.2828 33.0798 94.1663 33.1148 94.0342 33.1528C93.9197 33.1857 93.7649 33.23 93.6064 33.2534C93.3852 33.2859 92.9328 33.4015 92.585 33.5473C92.3073 33.6637 92.0544 33.7391 91.8516 33.8002C91.6404 33.8638 91.4858 33.9112 91.3242 33.978C90.8901 34.1574 90.3089 34.3774 89.915 34.4809C89.8926 34.4868 89.881 34.4919 89.876 34.4946C89.871 34.4972 89.8642 34.5022 89.8535 34.5112C89.8229 34.537 89.7862 34.5766 89.6895 34.6987C89.6878 34.7008 89.6809 34.7108 89.668 34.7329C89.6529 34.7587 89.6332 34.7952 89.6074 34.8481C89.5815 34.9013 89.5537 34.9618 89.5186 35.0385C89.4846 35.1127 89.4438 35.2005 89.3994 35.2944C89.3078 35.4883 89.2687 35.6432 89.2324 35.9838C89.1996 36.292 89.2257 36.4747 89.25 36.5805C89.2631 36.6375 89.2791 36.6878 89.2998 36.7465C89.3102 36.7761 89.3614 36.9112 89.3897 37.0209C89.4251 37.1587 89.4958 37.3204 89.8115 37.7455C89.9648 37.9519 90.205 38.2042 90.4854 38.4731C90.6095 38.5921 90.7279 38.6681 90.8691 38.7465C90.9093 38.7688 91.0619 38.8498 91.1309 38.8891C91.2294 38.9452 91.3575 39.0236 91.4854 39.1293C91.6484 39.2642 91.8735 39.4805 92.0566 39.6547C92.2633 39.8513 92.4422 40.0193 92.5703 40.1235C92.852 40.3527 93.3511 40.6934 93.5703 40.8237C93.7156 40.91 93.8325 40.9541 94.1934 41.0893C95.0948 41.4271 95.6561 41.6577 95.9727 41.7368C97.2327 42.0515 97.6048 42.2285 98.0645 42.3852C98.2712 42.4557 98.7079 42.5508 99.1992 42.602C99.394 42.6223 99.537 42.6532 100.017 42.6704C100.527 42.6886 101.33 42.6884 101.817 42.6948C102.161 42.6993 102.397 42.7144 102.601 42.7309C102.809 42.7478 102.932 42.7608 103.113 42.769C103.349 42.7797 103.591 42.8135 103.828 42.8413C104.082 42.871 104.415 42.9059 104.915 42.935C105.709 42.9812 107.261 42.9462 108.17 42.9399C108.687 42.9363 108.967 42.906 109.188 42.8588C109.418 42.8096 109.621 42.7356 110.025 42.5864C110.234 42.5092 110.379 42.4377 110.573 42.3344C110.772 42.2286 111.04 42.078 111.433 41.8852C111.534 41.8353 111.645 41.7656 111.797 41.6625C111.93 41.5718 112.125 41.4338 112.318 41.3198C112.508 41.2081 112.673 41.0428 113.013 40.7504C113.251 40.5454 113.273 40.4323 113.52 39.9702C113.571 39.8743 113.593 39.8271 113.607 39.7836C113.621 39.7452 113.635 39.6858 113.645 39.5815L113.648 39.5463C113.673 39.3478 113.686 39.2763 113.703 39.1157C113.575 38.6101 113.858 38.0848 114.361 37.9204C114.886 37.749 115.45 38.0353 115.622 38.56C115.718 38.854 115.709 39.1149 115.7 39.2543L115.699 39.2729L115.697 39.2905C115.678 39.4784 115.644 39.7051 115.634 39.7914C115.583 40.3094 115.432 40.6345 115.283 40.9125C115.136 41.1875 114.914 41.7516 114.318 42.2651C114.118 42.4374 113.728 42.8104 113.334 43.0424C113.214 43.1132 113.102 43.1936 112.922 43.3159C112.76 43.4257 112.552 43.5639 112.315 43.6801C111.962 43.8536 111.747 43.9752 111.515 44.0991C111.278 44.2254 111.044 44.342 110.719 44.4623C110.346 44.6 110.003 44.73 109.605 44.8149C109.198 44.9018 108.768 44.9358 108.184 44.9399C107.357 44.9457 105.679 44.9824 104.799 44.9311C104.252 44.8992 103.879 44.8609 103.595 44.8276C103.294 44.7923 103.165 44.7735 103.022 44.767C102.794 44.7567 102.602 44.7372 102.439 44.7241C102.272 44.7105 102.081 44.6976 101.791 44.6938C101.355 44.6881 100.483 44.6877 99.9443 44.6684C99.3744 44.648 99.1042 44.6019 98.9922 44.5903C98.414 44.53 97.8168 44.4144 97.4189 44.2788C96.8744 44.0931 96.6398 43.965 95.4873 43.6772C95.0235 43.5613 94.2581 43.2497 93.4912 42.9623C93.1712 42.8424 92.8763 42.738 92.5488 42.5434C92.2532 42.3677 91.6719 41.9717 91.3076 41.6752C91.1079 41.5127 90.8702 41.287 90.6777 41.1039C90.4618 40.8985 90.3046 40.7486 90.21 40.6704C90.2076 40.6686 90.1906 40.6559 90.1406 40.6274C90.054 40.5781 90.0376 40.5719 89.8984 40.4946C89.6809 40.3737 89.3979 40.2017 89.1006 39.9164C88.804 39.6319 88.4636 39.2846 88.2061 38.9379C87.849 38.4571 87.5876 38.042 87.4531 37.519C87.4538 37.5215 87.4569 37.5331 87.4141 37.4116C87.3814 37.3189 87.3377 37.1893 87.3008 37.0288C87.2251 36.6996 87.1876 36.2934 87.2432 35.7719C87.293 35.3043 87.3704 34.9083 87.5918 34.4399C87.6516 34.3133 87.7493 34.0967 87.8105 33.9711C87.8839 33.8208 87.9829 33.6323 88.123 33.4555C88.3169 33.2109 88.6814 32.737 89.4072 32.5463C89.6629 32.4791 90.139 32.3032 90.5596 32.1293C90.8279 32.0184 91.078 31.9447 91.2754 31.8852C91.4811 31.8232 91.6416 31.7738 91.8115 31.7026C92.3146 31.4917 92.9292 31.3316 93.3154 31.2748C93.3163 31.2747 93.3195 31.2741 93.3252 31.2729C93.3326 31.2714 93.343 31.2686 93.3574 31.2651C93.3879 31.2576 93.4267 31.2466 93.4814 31.2309C93.5831 31.2017 93.7429 31.1539 93.9229 31.1059C94.3001 31.0054 94.8032 30.8939 95.5029 30.8159C96.0267 30.7574 96.5684 30.6663 97.7285 30.6264C98.4436 30.6018 99.7382 30.566 100.443 30.5717Z" fill="black"/>
<path d="M92.9934 50.1612C93.1366 50.142 93.3596 50.1262 93.5949 50.1934C93.716 50.228 93.9042 50.303 94.0744 50.4717C94.266 50.662 94.3869 50.9279 94.3869 51.2217C94.3869 51.774 93.9392 52.2217 93.3869 52.2217C93.2934 52.2217 93.2032 52.2077 93.1174 52.1837C93.0502 52.2074 92.9594 52.2435 92.8459 52.2999C92.717 52.3639 92.5584 52.5197 92.4982 53.2725C92.4696 53.6318 92.4704 53.9946 92.4572 54.4483C92.4449 54.8704 92.4195 55.3546 92.3225 55.8194C92.0859 56.9519 91.8192 58.5403 91.1945 60.1563C90.4647 62.0443 89.5368 64.1924 88.3274 66.918C87.7669 68.181 87.4227 69.3189 86.7932 70.9102C85.7041 73.6632 85.719 74.6784 85.4397 75.8301C85.1814 76.8953 85.0956 78.034 84.9338 79.3692C84.8161 80.3406 84.7228 81.415 84.5686 86.3048C84.4445 90.2376 84.5378 97.8141 84.5686 101.871C84.5839 103.893 84.6065 104.943 84.6359 105.516C84.6508 105.804 84.6661 105.943 84.677 106.011C84.6833 106.051 84.6845 106.047 84.6906 106.064C84.7459 106.212 84.8201 106.383 85.3186 107.194C85.6077 107.665 85.4609 108.28 84.9904 108.569C84.52 108.859 83.9047 108.712 83.6154 108.241C83.118 107.432 82.9472 107.113 82.8166 106.763C82.7159 106.493 82.6712 106.247 82.6389 105.619C82.6068 104.997 82.5839 103.904 82.5686 101.886C82.538 97.8625 82.4439 90.2263 82.5695 86.2423C82.7238 81.3537 82.8188 80.198 82.9484 79.128C83.0951 77.9174 83.2013 76.5751 83.4963 75.3585C83.7132 74.4641 83.7777 73.096 84.9338 70.1739C85.4806 68.7919 85.9327 67.3842 86.4992 66.1075C87.7075 63.3844 88.6175 61.2737 89.3283 59.4346C89.8781 58.0122 90.1096 56.635 90.3654 55.4102C90.4239 55.13 90.4464 54.7963 90.4582 54.3907C90.4691 54.0163 90.4701 53.5395 90.5041 53.1133C90.5694 52.2956 90.7845 51.0919 91.9553 50.5098C92.324 50.3266 92.6794 50.2032 92.9934 50.1612Z" fill="black"/>
<path d="M84.2557 107.742C84.6748 107.382 85.3062 107.43 85.6658 107.849C85.8756 108.094 86.1838 108.487 86.5359 108.933C86.8968 109.39 87.3247 109.93 87.7996 110.501C88.1711 110.947 88.6017 111.336 89.074 111.755C89.5257 112.155 90.0426 112.603 90.4695 113.104C91.5197 114.338 93.9898 116.943 95.6248 118.674C96.2938 119.383 96.8168 120.145 97.2537 120.805C97.7128 121.499 98.0433 122.02 98.3855 122.403C99.3396 123.47 100.223 124.676 100.986 125.694C101.742 126.702 102.684 127.913 103.397 129.099C103.739 129.667 104.089 130.151 104.445 130.668C104.787 131.164 105.14 131.698 105.392 132.278C105.585 132.72 105.882 133.228 106.254 133.85C106.615 134.453 107.037 135.146 107.425 135.889C108.048 137.084 108.983 138.735 109.601 141.051C110.351 143.862 110.33 145.683 110.075 147.248C109.954 147.99 109.774 148.695 109.637 149.32C109.497 149.965 109.382 150.601 109.346 151.339C109.227 153.75 109.315 158.259 109.282 160.825C109.239 164.171 108.913 165.545 108.76 166.84C108.617 168.043 108.542 169.646 108.377 171.669C108.248 173.254 108.099 174.366 107.954 175.231C107.996 175.277 108.037 175.32 108.071 175.359C108.338 175.665 108.476 175.858 108.948 176.362L109.346 176.763C110.258 177.652 111.057 178.223 111.776 178.787C112.581 179.418 113.367 180.099 113.772 181.225C114.049 181.995 114.313 183.019 114.348 183.957C114.366 184.423 114.33 184.935 114.163 185.402C113.99 185.887 113.653 186.373 113.064 186.633C112.741 186.776 112.367 186.843 112.049 186.869C111.72 186.896 111.36 186.887 111.037 186.831C110.754 186.781 110.454 186.75 110.117 186.714C109.794 186.681 109.429 186.643 109.08 186.58C108.409 186.459 107.538 186.205 106.981 185.424C106.915 185.332 106.84 185.234 106.75 185.119C106.663 185.008 106.561 184.879 106.462 184.745C106.262 184.475 106.038 184.141 105.873 183.743C105.566 183.002 105.386 181.862 105.323 180.722C105.258 179.559 105.307 178.262 105.529 177.165C105.615 176.742 105.704 176.339 105.799 175.879C105.736 175.637 105.763 175.371 105.895 175.136L105.943 175.058C105.949 175.05 105.954 175.043 105.96 175.035C106.106 174.193 106.252 173.111 106.383 171.506C106.539 169.59 106.626 167.848 106.773 166.605C106.941 165.186 107.241 164.006 107.282 160.799C107.313 158.374 107.228 153.685 107.348 151.242C107.392 150.346 107.532 149.588 107.684 148.893C107.841 148.179 107.992 147.599 108.101 146.926C108.308 145.659 108.351 144.124 107.669 141.567C107.118 139.504 106.298 138.053 105.652 136.815C105.297 136.136 104.91 135.501 104.537 134.878C104.175 134.273 103.812 133.655 103.559 133.077C103.39 132.69 103.137 132.294 102.799 131.802C102.473 131.33 102.067 130.767 101.683 130.13C101.037 129.055 100.18 127.952 99.3865 126.894C98.6004 125.846 97.7769 124.724 96.8943 123.737C96.428 123.215 95.9924 122.524 95.5857 121.91C95.157 121.262 94.7137 120.623 94.1707 120.047C92.5616 118.343 90.0404 115.685 88.9471 114.401C88.6313 114.03 88.2359 113.684 87.7478 113.252C87.2803 112.838 86.7431 112.357 86.2625 111.78C85.7702 111.189 85.3287 110.632 84.9656 110.173C84.5941 109.702 84.3234 109.356 84.1482 109.152C83.7887 108.733 83.8367 108.101 84.2557 107.742ZM107.497 177.738C107.486 177.726 107.475 177.714 107.464 177.702C107.307 178.56 107.265 179.616 107.32 180.611C107.38 181.684 107.545 182.553 107.721 182.977C107.794 183.155 107.908 183.338 108.068 183.553C108.149 183.662 108.231 183.767 108.325 183.887C108.415 184.002 108.516 184.131 108.61 184.263C108.691 184.376 108.881 184.511 109.435 184.611C109.699 184.658 109.988 184.69 110.326 184.725C110.65 184.759 111.02 184.797 111.383 184.861C111.505 184.882 111.69 184.891 111.885 184.875C112.069 184.86 112.19 184.827 112.24 184.808C112.248 184.796 112.263 184.773 112.279 184.729C112.327 184.594 112.362 184.365 112.349 184.032C112.324 183.369 112.125 182.557 111.889 181.901C111.691 181.351 111.317 180.968 110.542 180.36C109.783 179.765 108.709 179.002 107.505 177.746L107.497 177.739V177.738Z" fill="black"/>
<path d="M82.1663 106.566C82.1663 106.014 82.614 105.566 83.1663 105.566C83.7184 105.566 84.1663 106.014 84.1663 106.566C84.1663 107.884 83.7432 109.804 83.1135 111.627C82.6975 112.831 82.2828 114.201 81.3645 115.617C81.0506 116.101 80.7898 116.661 80.4514 117.424C80.1188 118.174 79.7239 119.089 79.1604 120.198C78.0705 122.342 76.5329 125.61 75.8176 127.109C74.7248 129.399 73.4773 130.829 72.6467 132.048C71.9448 133.077 71.2444 134.119 70.6477 135.123C69.9812 136.244 68.962 137.469 68.0774 138.657C67.2333 139.79 66.4149 140.591 65.6809 141.241C64.9104 141.924 64.3654 142.337 63.8664 142.852C63.4898 143.241 63.0712 143.737 62.2336 144.452C61.3983 145.165 60.1414 146.106 58.0012 147.501C55.9909 148.811 54.9301 149.592 53.6116 150.269C52.1546 151.018 49.9633 151.978 47.7913 152.77C46.4437 153.261 43.9824 154.124 41.6321 154.963C37.209 156.541 35.6385 157.373 33.7483 158.168C31.8046 158.985 30.2444 159.284 29.3137 159.586C28.4867 159.854 27.529 160.179 26.4895 160.489C26.697 161.198 26.709 161.539 26.7366 161.762C26.8494 162.412 26.9039 163.659 26.8059 165.219L26.7961 165.373L26.7414 165.515C26.4408 166.298 26.1388 167.249 25.8176 167.913C25.4898 168.591 24.9448 169.419 23.9016 169.587C23.091 169.717 21.527 169.929 20.1331 169.879C19.4486 169.854 18.7056 169.763 18.0969 169.507C17.4669 169.241 16.7822 168.691 16.7483 167.72C16.701 166.358 16.7084 165.056 16.8987 163.959C17.0865 162.875 17.4824 161.81 18.3674 161.129C19.0822 160.578 20.0439 160.199 21.0735 159.88C22.1144 159.557 23.3553 159.257 24.6663 158.923C26.1406 158.546 27.4733 158.079 28.6965 157.682C29.9634 157.272 31.0935 157.114 32.9729 156.324C34.7677 155.569 36.4682 154.682 40.9592 153.08C43.3305 152.234 45.7661 151.38 47.1067 150.891C49.2115 150.124 51.3245 149.195 52.6975 148.49C53.8938 147.875 54.7831 147.211 56.9094 145.825C59.0114 144.455 60.1899 143.566 60.9348 142.93C61.6768 142.297 61.9835 141.922 62.4299 141.461C62.9948 140.877 63.7231 140.304 64.3547 139.744C65.023 139.152 65.7367 138.452 66.4739 137.463C67.4635 136.134 68.3326 135.104 68.9289 134.101C69.5606 133.039 70.2922 131.951 70.9944 130.921C71.9705 129.489 73.0075 128.355 74.0129 126.248C74.7176 124.771 76.2723 121.465 77.3772 119.292C77.9115 118.241 78.2834 117.379 78.6233 116.613C78.9574 115.86 79.2756 115.163 79.6868 114.529C80.4435 113.362 80.7804 112.257 81.2239 110.973C81.8226 109.24 82.1663 107.562 82.1663 106.566ZM24.5598 161.012C23.458 161.291 22.4957 161.532 21.6663 161.79C20.6784 162.096 20.0058 162.391 19.5881 162.713C19.2907 162.942 19.0245 163.406 18.8694 164.301C18.7187 165.169 18.7011 166.277 18.7454 167.596C18.7695 167.613 18.8103 167.637 18.8743 167.664C19.1461 167.778 19.5992 167.858 20.2063 167.88C21.3965 167.923 22.8008 167.738 23.5832 167.612C23.5987 167.61 23.7467 167.6 24.0168 167.042C24.2791 166.499 24.4752 165.856 24.8166 164.952C24.9004 163.489 24.8349 162.463 24.7629 162.08L24.7571 162.051L24.7532 162.021C24.7262 161.809 24.7324 161.787 24.7053 161.617C24.6848 161.488 24.6467 161.305 24.5608 161.016C24.5604 161.015 24.5602 161.014 24.5598 161.012Z" fill="black"/>
<path d="M125.501 51.9532C126.012 51.5163 126.708 51.5187 127.203 51.7833L127.307 51.8438L127.437 51.9337C128.078 52.3988 128.461 53.0656 128.687 53.7921C128.925 54.5532 129.012 55.4427 129.03 56.3878C129.05 57.4407 128.535 58.292 128.076 58.9073C127.844 59.2182 127.588 59.5172 127.387 59.7589C127.171 60.0185 127.015 60.2151 126.91 60.3858L126.893 60.4151L126.873 60.4425C126.658 60.7445 126.375 61.0408 126.004 61.255C125.832 61.3541 125.643 61.4303 125.536 61.4767C125.411 61.5307 125.276 61.5918 125.101 61.6915C124.952 61.776 124.791 61.8177 124.631 61.8214C123.6 63.2498 122.855 64.1986 122.225 65.4181C121.752 66.3322 121.188 67.2542 120.743 68.0431C120.278 68.869 119.91 69.6019 119.708 70.295C119.271 71.7908 118.651 73.5603 117.976 74.712C117.145 76.1282 116.49 77.2669 115.829 78.4532C115.276 79.4452 114.847 80.5037 114.24 81.9093C113.941 82.6014 113.516 83.7657 113.073 84.6163C112.846 85.0528 112.563 85.5157 112.207 85.8634C111.846 86.2162 111.273 86.5738 110.545 86.4356C109.752 86.2851 109.006 85.7553 108.585 84.963C108.341 84.5041 108.034 84.0049 107.678 83.4298C107.327 82.8642 106.938 82.2357 106.56 81.5567C106.197 80.9055 105.849 80.3896 105.505 79.879C105.166 79.3754 104.817 78.8588 104.51 78.2618C104.259 77.7753 103.937 77.3322 103.543 76.8048C103.16 76.2924 102.714 75.7045 102.311 75.003C101.936 74.3491 101.605 73.6501 101.216 72.8546C100.821 72.0489 100.345 71.0972 99.6562 69.877C99.2765 69.2047 98.8344 68.6346 98.3749 68.0128C97.9383 67.4217 97.4633 66.7544 97.1855 66.0011C96.5452 64.2649 95.9235 63.0205 95.0742 60.9864C94.9098 60.5929 94.7867 60.1713 94.6767 59.7862C94.5621 59.385 94.4577 59.0109 94.3232 58.6319C94.0611 57.8939 93.7023 57.2012 93.0371 56.5909C92.4336 56.0372 91.9573 55.4861 91.6093 55.003C91.2788 54.5441 91.0147 54.0787 90.9062 53.6974C90.7551 53.1661 91.0635 52.6131 91.5947 52.462C92.1257 52.311 92.6788 52.6186 92.83 53.1495C92.83 53.1495 92.8352 53.1687 92.8525 53.2081C92.8696 53.2471 92.8952 53.2984 92.9296 53.3614C92.9989 53.4882 93.0989 53.6488 93.2324 53.8341C93.4991 54.2044 93.8845 54.6539 94.3896 55.1173C95.3745 56.021 95.8797 57.0375 96.208 57.962C96.3685 58.4143 96.4919 58.8606 96.5996 59.2374C96.7117 59.6301 96.8058 59.9451 96.9189 60.2159C97.7081 62.1061 98.4071 63.5353 99.0615 65.3097C99.2288 65.7632 99.5383 66.2219 99.9833 66.8243C100.406 67.3959 100.943 68.0873 101.398 68.8936C102.115 70.1617 102.61 71.1524 103.013 71.9757C103.421 72.8093 103.713 73.4272 104.046 74.0079C104.378 74.5864 104.748 75.077 105.145 75.6085C105.531 76.1251 105.951 76.6921 106.288 77.3468C106.533 77.8237 106.817 78.2471 107.164 78.7618C107.506 79.2695 107.898 79.85 108.307 80.5841C108.658 81.216 109.024 81.8055 109.378 82.377C109.726 82.939 110.071 83.4968 110.352 84.0255C110.464 84.2372 110.641 84.3728 110.805 84.4366C110.806 84.4355 110.807 84.4348 110.809 84.4337C110.936 84.3091 111.103 84.0698 111.3 83.6925C111.705 82.9152 112.021 82.0037 112.404 81.1163C112.984 79.7756 113.466 78.5851 114.082 77.4796C114.752 76.2768 115.415 75.125 116.251 73.7003C116.794 72.7744 117.358 71.2062 117.788 69.7335C118.058 68.8085 118.523 67.9104 119.001 67.0616C119.5 66.1758 119.993 65.3781 120.448 64.4991C121.278 62.8958 122.366 61.5851 123.599 59.8243C123.677 59.7118 123.693 59.6503 123.695 59.6378L123.697 59.6427L123.675 59.5763C123.644 59.5025 123.583 59.3927 123.438 59.1153C123.272 58.7966 123.07 58.3698 122.951 57.796C122.298 54.652 124.648 52.8293 125.394 52.0538L125.501 51.9532ZM126.492 53.7872C125.534 54.7464 124.559 55.703 124.909 57.3888C124.975 57.7045 125.084 57.9454 125.212 58.1915C125.286 58.3344 125.43 58.5837 125.54 58.8624C125.644 58.7279 125.75 58.5992 125.85 58.4796C126.077 58.2058 126.282 57.9667 126.473 57.711C126.859 57.1932 127.037 56.7949 127.03 56.4259C127.014 55.553 126.933 54.8829 126.778 54.3878C126.696 54.1234 126.598 53.9308 126.492 53.7872Z" fill="black"/>
<path d="M89.5817 52.5952C89.9496 52.4688 90.3969 52.3728 90.8678 52.4448L91.071 52.4868L91.2409 52.5435C91.4268 52.62 91.6472 52.7616 91.7975 53.0259C91.8878 53.1846 91.9202 53.3341 91.9333 53.4351C91.9448 53.5245 91.943 53.6055 91.943 53.6089C91.9428 54.161 91.4952 54.6089 90.943 54.6089C90.7382 54.6088 90.5479 54.5466 90.3893 54.4409C90.346 54.4509 90.2933 54.4655 90.2311 54.4868C89.9921 54.569 89.7035 54.7149 89.3395 54.9214C88.6743 55.2989 87.7257 55.9114 86.7839 56.2437C84.9367 56.8954 82.9334 57.704 81.6237 58.0552C80.0664 58.4728 77.979 58.9772 76.0993 59.438C74.1926 59.9054 72.5367 60.3202 71.777 60.5689C70.9509 60.8393 69.6721 61.5252 68.2751 62.3853C66.9027 63.2301 65.4947 64.193 64.4362 64.9585C63.0555 65.9571 62.6733 66.3904 62.5524 66.6314C62.5486 66.6385 62.4763 66.7497 62.7926 67.6333C63.0696 68.4066 63.5596 69.5912 64.0339 71.2651C64.6526 73.4489 65.1047 75.4765 65.4186 77.4927C65.6622 79.0568 66.0208 81.1103 67.1735 85.0327C67.678 86.7495 68.0111 87.7522 68.3239 88.5767C68.9907 88.673 69.6128 88.8039 70.1305 88.9868C70.5618 89.1392 71.0677 89.3763 71.4167 89.7798L71.5563 89.9624L71.6413 90.0913L71.6833 90.2398C71.7668 90.5332 72.1156 91.6232 72.2038 92.8237C72.2882 93.9737 72.1623 95.5903 70.9216 96.6187C69.4005 97.8793 67.615 98.9162 65.5153 98.0239C65.0161 97.8118 64.3405 97.3446 64.1628 96.5493C63.8774 95.2709 63.6939 93.7961 64.362 92.3882C64.7424 91.5867 65.4336 91.0644 65.8717 90.7163C66.0166 90.6012 66.1395 90.4998 66.2448 90.4087C66.0311 90.0809 66.0218 89.6431 66.2555 89.2993C66.2971 89.2382 66.3421 89.1788 66.3903 89.1216C66.0714 88.2645 65.7358 87.2336 65.2546 85.5962C64.0749 81.5819 63.6978 79.4423 63.4421 77.8003C63.142 75.8733 62.7084 73.9254 62.1091 71.8101C61.6595 70.2233 61.2201 69.1745 60.9098 68.3081C60.6412 67.558 60.3209 66.6175 60.7643 65.7339C61.1373 64.9908 61.9379 64.2967 63.2643 63.3374C64.3541 62.5493 65.8041 61.5582 67.2272 60.6821C68.6257 59.8212 70.0808 59.0189 71.154 58.6675C72.0045 58.389 73.7545 57.9536 75.6227 57.4956C77.5182 57.031 79.5758 56.5339 81.1061 56.1235C82.3212 55.7977 84.1094 55.0669 86.1188 54.3579C86.8388 54.1039 87.524 53.6521 88.3522 53.1821C88.7347 52.9651 89.1577 52.7409 89.5817 52.5952ZM68.5632 90.6441C68.2121 91.4304 67.5443 91.9423 67.1159 92.2827C66.5975 92.6946 66.3144 92.9384 66.1686 93.2456C65.8077 94.0062 65.8482 94.8968 66.1042 96.063L66.1061 96.0649C66.1408 96.0982 66.2059 96.1442 66.2975 96.1831C67.2702 96.5964 68.2052 96.2721 69.6452 95.0786C70.0982 94.7031 70.2834 93.9749 70.2096 92.9702C70.1527 92.1951 69.9576 91.4719 69.8327 91.0386C69.771 91.0012 69.6582 90.941 69.4645 90.8726C69.2251 90.788 68.9226 90.7125 68.5632 90.6441Z" fill="black"/>
<path d="M43.1586 106.264C43.4055 106.141 43.706 106.241 43.8295 106.488C43.9529 106.734 43.8527 107.035 43.6059 107.158C42.1161 107.903 40.6458 108.639 39.2436 109.197L39.2328 109.201L39.2211 109.205C36.5279 110.133 33.9085 110.69 30.099 110.965L30.0785 110.966H30.058C19.3413 110.87 15.2945 110.136 13.6615 109.955C13.3871 109.925 13.1887 109.677 13.2191 109.403C13.2497 109.128 13.4967 108.931 13.7709 108.961C15.4111 109.143 19.4026 109.868 30.0424 109.965C33.7637 109.696 36.2924 109.156 38.8891 108.262C40.2399 107.723 41.6656 107.01 43.1586 106.264Z" fill="black"/>
<path d="M48.3259 84.2365C48.602 84.2365 48.8259 84.4604 48.8259 84.7365C48.8259 85.0127 48.602 85.2365 48.3259 85.2365C46.0784 85.2365 43.9206 85.237 42.3845 85.3293C40.8758 85.4199 39.9972 85.5927 39.0925 85.7736C35.4571 86.686 32.2215 87.765 28.2546 90.1115C28.017 90.2521 27.7097 90.1733 27.5691 89.9357C27.4285 89.6981 27.5073 89.3908 27.7448 89.2502C31.8197 86.8398 35.1538 85.7318 38.8513 84.8039L38.863 84.801L38.8757 84.798C39.8036 84.6124 40.7365 84.4267 42.3249 84.3312C43.898 84.2368 46.0909 84.2365 48.3259 84.2365Z" fill="black"/>
<path d="M60.7589 34.2872C61.0112 34.1752 61.3069 34.2888 61.419 34.5411C61.5311 34.7933 61.4172 35.089 61.1651 35.2012C59.4885 35.9464 57.834 36.6819 56.1505 37.2403C54.4416 37.8071 52.7633 38.1755 49.1124 38.3585L49.0987 38.3595C33.7114 38.7265 30.3717 39.0899 26.3517 39.0899C26.0756 39.0899 25.8517 38.866 25.8517 38.5899C25.8517 38.3138 26.0755 38.0899 26.3517 38.0899C30.3732 38.0899 33.6032 37.7284 49.0626 37.3595L50.3165 37.2843C53.0428 37.0884 54.4318 36.7565 55.8351 36.2911C57.4641 35.7508 59.0735 35.0362 60.7589 34.2872Z" fill="black"/>
<path d="M51.0731 4.57846C51.1467 4.57846 51.2247 4.59205 51.2772 4.6019C51.3406 4.61378 51.417 4.6305 51.5018 4.65073C51.672 4.69129 51.8972 4.75089 52.1727 4.82651C52.7255 4.9782 53.497 5.20019 54.4647 5.48471C56.3984 6.05321 59.1323 6.87383 62.5087 7.87827L63.4794 8.12827C65.6143 8.6563 66.8757 8.80127 68.2909 8.8812C69.9277 8.97364 71.7263 8.97299 73.5975 8.97299C73.8734 8.97322 74.0973 9.19717 74.0975 9.47299C74.0975 9.74899 73.8735 9.97276 73.5975 9.97299C71.7331 9.97299 69.9046 9.97358 68.2343 9.87924C66.5445 9.7838 65.0603 9.59668 62.2499 8.84409L62.2362 8.84018C58.8504 7.83296 56.1166 7.01331 54.1825 6.44467C53.2154 6.16035 52.4515 5.93951 51.9081 5.79037C51.6361 5.71573 51.4232 5.66005 51.2694 5.62338C51.1924 5.60502 51.1346 5.59201 51.0936 5.58432C51.0419 5.57461 51.0446 5.57846 51.0731 5.57846C50.797 5.57846 50.5731 5.3546 50.5731 5.07846C50.5731 4.80232 50.797 4.57846 51.0731 4.57846Z" fill="black"/>
<path d="M57.1161 16.1151C57.2555 16.1151 57.4779 16.146 57.7401 16.1903C58.0171 16.2372 58.3795 16.3067 58.8212 16.3983C59.2632 16.4901 59.7876 16.6048 60.3905 16.7421L62.4306 17.2226L62.4413 17.2255C63.8453 17.5988 64.8861 17.9471 66.6659 18.1288C68.464 18.3124 70.9725 18.3124 73.5976 18.3124C73.8734 18.3127 74.0975 18.5365 74.0976 18.8124C74.0976 19.0884 73.8735 19.3122 73.5976 19.3124C70.9929 19.3124 68.424 19.3129 66.5634 19.123C64.6896 18.9316 63.5553 18.5562 62.1952 18.1942C60.6907 17.8298 59.4879 17.5574 58.6181 17.3769C58.1828 17.2865 57.8333 17.2207 57.5732 17.1767C57.2985 17.1302 57.158 17.1151 57.1161 17.1151C56.84 17.1151 56.6161 16.8913 56.6161 16.6151C56.6161 16.339 56.84 16.1151 57.1161 16.1151Z" fill="black"/>
<path d="M34.4164 143.051C34.6749 142.954 34.9629 143.085 35.06 143.343C35.1569 143.601 35.0263 143.889 34.768 143.986C33.2625 144.551 31.7831 145.105 28.9653 145.665C27.5656 145.943 25.8632 146.219 24.0756 146.516C22.2878 146.812 20.4086 147.13 18.6323 147.496C15.3085 148.317 12.8872 148.998 11.3012 149.517C10.5056 149.777 9.93268 149.993 9.56488 150.16C9.38474 150.242 9.27147 150.305 9.20941 150.347C9.12492 150.503 8.9622 150.611 8.77191 150.611C8.4959 150.611 8.27213 150.387 8.27191 150.111C8.27191 149.915 8.37229 149.776 8.42816 149.71C8.49104 149.636 8.56537 149.577 8.63129 149.531C8.7652 149.438 8.94352 149.344 9.14984 149.25C9.56815 149.059 10.1828 148.831 10.9907 148.567C12.6108 148.037 15.0605 147.349 18.3979 146.525L18.4077 146.523L18.4164 146.521C20.2179 146.149 22.1194 145.827 23.9116 145.529C25.7083 145.231 27.39 144.959 28.77 144.685C31.5114 144.14 32.9335 143.607 34.4164 143.051Z" fill="black"/>
<path d="M29.0812 70.3269C29.3573 70.3269 29.5812 70.5508 29.5812 70.8269C29.5812 71.1031 29.3573 71.3269 29.0812 71.3269C28.0403 71.3269 27.0848 71.3285 25.9943 71.573C23.5672 72.3392 20.4899 73.1026 17.2013 73.74C15.8228 74.18 14.9022 74.5199 14.3937 74.7449C14.341 74.7682 14.295 74.7924 14.253 74.8123C14.1859 75.0089 14.0027 75.151 13.7833 75.1512C13.7351 75.1512 13.6729 75.1493 13.6085 75.1365C13.5614 75.1271 13.425 75.0962 13.3097 74.9803C13.2427 74.9127 13.1856 74.8181 13.1652 74.701C13.1455 74.5877 13.1665 74.4901 13.1925 74.4217C13.2387 74.3001 13.318 74.2221 13.3527 74.1902C13.4332 74.1162 13.5367 74.0548 13.6271 74.0056C13.7263 73.9517 13.8481 73.8934 13.9894 73.8308C14.5514 73.5821 15.5213 73.2262 16.9239 72.7791L16.9523 72.7703L16.9806 72.7644C20.2671 72.1285 23.3309 71.368 25.7257 70.6101L25.7462 70.6043L25.7667 70.5994C26.9827 70.3256 28.0442 70.3269 29.0812 70.3269Z" fill="black"/>
<path d="M46.6606 170.242C46.807 170.008 47.1149 169.937 47.3491 170.083C47.5832 170.229 47.6545 170.537 47.5083 170.771C46.9066 171.734 46.2882 172.725 45.5337 173.672C44.7799 174.617 43.9148 175.481 43.3003 176.096C42.6836 176.712 42.321 177.075 41.9477 177.448C41.7525 177.643 41.436 177.643 41.2407 177.448C41.0456 177.253 41.0455 176.936 41.2407 176.741C41.614 176.368 41.9766 176.005 42.5932 175.389C43.2121 174.77 44.0378 173.943 44.7515 173.048C45.4646 172.153 46.0546 171.212 46.6606 170.242Z" fill="black"/>
<path d="M73.4317 182.616C73.6165 182.411 73.9326 182.394 74.1377 182.579C74.343 182.764 74.3596 183.081 74.1748 183.286C73.0862 184.496 72.003 185.698 71.2666 186.556C70.5417 187.401 70.159 187.908 69.0508 189.141C68.8662 189.347 68.5501 189.363 68.3448 189.179C68.1395 188.994 68.1221 188.678 68.3067 188.472C69.4087 187.246 69.7509 186.787 70.5078 185.905C71.2538 185.036 72.3463 183.822 73.4317 182.616Z" fill="black"/>
<path d="M87.9692 154.244C88.0565 153.982 88.3392 153.841 88.601 153.928C88.863 154.015 89.0047 154.299 88.9174 154.561L85.9897 163.345C85.9023 163.607 85.6188 163.749 85.3569 163.661C85.0949 163.574 84.9531 163.29 85.0405 163.028L87.9692 154.244Z" fill="black"/>
<path d="M14.2641 159.771C14.5403 159.771 14.7641 159.994 14.7641 160.271C14.7641 160.547 14.5403 160.771 14.2641 160.771C14.1156 160.771 13.8407 160.832 13.4428 161.019C13.0755 161.191 12.6357 161.457 12.143 161.826C11.0705 163.778 10.0847 165.772 9.33249 168.07C9.20367 168.649 9.07775 169.157 8.9487 169.673C8.88174 169.941 8.61007 170.104 8.34225 170.037C8.07445 169.97 7.91121 169.699 7.97799 169.431C8.10959 168.904 8.23584 168.4 8.36374 167.823L8.3696 167.799L8.37643 167.776C9.16967 165.348 10.212 163.259 11.3208 161.247L11.3715 161.155L11.4546 161.091C12.0235 160.657 12.5528 160.333 13.0171 160.114C13.4709 159.901 13.9022 159.771 14.2641 159.771Z" fill="black"/>
<path d="M3.15007 161.714C3.37795 161.761 3.54948 161.963 3.54948 162.204C3.54948 162.425 3.40577 162.609 3.20769 162.676C3.13772 162.792 3.01465 163.048 2.81413 163.59C2.37164 164.786 1.61435 167.186 1.22624 169.043C1.03245 169.97 0.947518 170.696 1.03288 171.381C1.11692 172.055 1.37112 172.726 1.9157 173.525C2.07092 173.753 2.01189 174.063 1.78386 174.219C1.55572 174.374 1.24504 174.315 1.08952 174.087C0.474093 173.184 0.148115 172.366 0.0406955 171.505C-0.0653444 170.654 0.0471222 169.799 0.247727 168.839C0.648502 166.922 1.42194 164.472 1.87663 163.243C2.09994 162.64 2.26192 162.282 2.40495 162.073C2.47925 161.965 2.5787 161.851 2.72038 161.778C2.87449 161.699 3.01622 161.704 3.04948 161.704L3.15007 161.714Z" fill="black"/>
<path d="M99.0255 182.312C99.2394 182.138 99.555 182.17 99.7296 182.384C99.9042 182.598 99.8722 182.913 99.6583 183.088C98.2078 184.272 97.5449 184.672 96.9337 185.011C96.3216 185.35 95.7487 185.637 94.6847 185.775L94.6661 185.778L94.6466 185.779C92.253 185.907 90.7084 185.907 90.4474 185.907C90.1712 185.907 89.9474 185.683 89.9474 185.407C89.9474 185.131 90.1712 184.907 90.4474 184.907C90.6963 184.907 92.215 184.906 94.5753 184.78C95.4548 184.663 95.9006 184.441 96.4484 184.137C97.0011 183.83 97.6146 183.464 99.0255 182.312Z" fill="black"/>
<path d="M104.177 188.812C104.432 188.706 104.725 188.827 104.831 189.082C104.937 189.337 104.817 189.63 104.562 189.736C102.984 190.393 101.431 191.041 99.4542 191.631C97.4845 192.219 95.17 192.734 93.8126 192.991C92.4418 193.251 92.0269 193.255 91.6075 193.255C91.3314 193.255 91.1076 193.031 91.1075 192.755C91.1075 192.479 91.3314 192.255 91.6075 192.255C91.9539 192.255 92.3054 192.259 93.6261 192.009C94.9603 191.756 97.24 191.249 99.1681 190.673C101.089 190.099 102.599 189.47 104.177 188.812Z" fill="black"/>
<path d="M134.71 55.105V53.8267C134.71 53.5505 134.934 53.3267 135.21 53.3267C135.486 53.3267 135.71 53.5505 135.71 53.8267V55.105C135.71 56.1127 135.712 58.0803 135.445 59.4429C135.166 60.8695 134.594 61.5854 134.054 62.2603C133.881 62.4759 133.566 62.5109 133.351 62.3384C133.135 62.1659 133.1 61.8509 133.272 61.6353C133.784 60.9954 134.232 60.435 134.464 59.2515C134.708 58.0039 134.71 56.1431 134.71 55.105Z" fill="black"/>
<path d="M72.5949 101.426C72.7902 101.231 73.1067 101.231 73.302 101.426C73.4972 101.621 73.4972 101.938 73.302 102.133C72.7735 102.662 72.2755 103.16 71.8362 103.663C71.6267 103.903 71.3951 104.186 71.1662 104.422C70.9302 104.666 70.658 104.903 70.3244 105.067C69.6802 105.383 68.9154 105.373 68.3078 105.373C68.0317 105.373 67.8079 105.149 67.8078 104.873C67.8078 104.597 68.0317 104.373 68.3078 104.373C68.9764 104.373 69.488 104.364 69.884 104.169C70.0705 104.078 70.25 103.932 70.4485 103.727C70.654 103.515 70.8404 103.283 71.0832 103.005C71.5488 102.472 72.0716 101.949 72.5949 101.426Z" fill="black"/>
</svg>
