<svg width="253" height="179" viewBox="0 0 253 179" fill="none" xmlns="http://www.w3.org/2000/svg">
<path d="M50.3689 3.26758C51.2207 3.20682 52.5625 3.12449 54.1599 3.16504H54.1765L54.1931 3.16699C54.4826 3.18713 54.7681 3.22053 55.0115 3.32519C55.2074 3.4094 55.3421 3.52687 55.4441 3.64453C55.7816 3.75608 56.1855 3.89576 56.5115 4.00488C57.1529 4.21959 57.7448 4.47308 58.4099 4.80469C58.952 5.07495 59.3658 5.28762 59.7234 5.47168C60.082 5.65625 60.3793 5.80985 60.6951 5.96777C61.3581 6.29929 61.8787 6.66931 62.3396 6.97656C63.005 7.42028 63.6967 8.14893 64.1199 8.75C64.3271 9.04432 64.5711 9.33637 64.8269 9.63574C65.0724 9.92296 65.3425 10.2324 65.5545 10.5225C65.9201 11.0228 66.431 11.6237 66.8738 12.3613C67.24 12.9713 67.5344 13.4633 67.8357 13.9648C68.1995 14.5704 68.4724 15.218 68.8513 16.1768C69.127 16.8741 69.444 17.5245 69.6365 18.1885C69.8153 18.8054 70.054 19.6379 70.2888 20.3447C70.4384 20.7948 70.4804 21.3061 70.5047 21.7793C70.5306 22.2869 70.5365 22.7621 70.5847 23.2939C70.7058 24.6291 70.6629 25.544 70.5428 26.249C70.4242 26.9448 70.2261 27.4328 70.1121 27.7842C69.8672 28.5391 69.5636 29.4507 69.2293 30.2471C69.0841 30.5928 68.9152 30.9504 68.7566 31.2959C68.5949 31.6481 68.4373 32.001 68.2957 32.3691C68.0563 32.9912 67.8275 33.5695 67.5008 34.3066C66.9784 35.4849 66.4447 36.1493 65.8797 36.7998C65.3491 37.4106 64.4619 38.2188 63.8709 38.791C63.1394 39.4992 62.2725 40.2034 61.6658 40.6426C61.3497 40.8714 61.0164 41.0318 60.7156 41.165C60.3936 41.3076 60.1392 41.4076 59.8592 41.5479C59.4488 41.7534 58.9931 41.913 58.6072 42.0449C58.194 42.1862 57.8839 42.2889 57.6638 42.3945C57.0402 42.6939 56.4023 42.9029 55.615 43.0732C55.3208 43.1369 55.0252 43.2271 54.7078 43.3301C54.4009 43.4296 54.0567 43.5467 53.7176 43.6426C52.9492 43.8598 51.7871 43.9708 48.6697 44.0322C47.1327 44.0625 46.1412 43.6931 45.2879 43.4414C44.5297 43.2178 43.6333 42.9381 42.6726 42.6367C42.0593 42.4443 41.4104 42.1341 40.8181 41.8496C40.2023 41.5538 39.6412 41.2831 39.1277 41.1084C37.9815 40.7184 36.5123 39.6951 35.8865 39.2451C35.5938 39.0346 35.2841 38.8261 34.9539 38.6016C34.6282 38.3801 34.2867 38.1454 33.951 37.8936C33.2456 37.3645 32.8165 36.7508 32.3689 36.0605C31.6307 34.922 31.2557 34.2706 30.8816 33.7393C30.4134 33.0742 29.9804 32.3357 29.6463 31.6875C29.4272 31.2625 29.2724 30.8463 29.1316 30.4336C28.9868 30.009 28.8643 29.6119 28.6892 29.1436C28.4744 28.569 28.4003 27.8711 28.3601 27.209C28.3396 26.8699 28.3266 26.5156 28.3133 26.1719C28.2997 25.8242 28.2855 25.4825 28.2615 25.1494C28.1631 23.7803 28.1178 21.1924 28.2615 19.501C28.3598 18.3445 28.883 17.2624 29.2049 16.3828C29.459 15.6883 29.6548 15.0089 30.0047 14.332C30.4162 13.5358 30.6797 12.88 31.0984 12.0234C31.4812 11.2403 32.1849 10.4667 32.4978 10.0547C32.8985 9.52716 33.756 8.75083 34.4119 8.19336C35.2359 7.4931 36.4254 6.8029 36.8543 6.50586C37.4151 6.11736 38.0567 5.79235 38.7254 5.56836C39.2963 5.37711 39.983 5.12187 40.7205 4.93262C41.4468 4.74623 42.1322 4.54388 43.0672 4.41504C43.9474 4.29375 44.7012 4.14279 45.6463 3.97851C46.3897 3.84929 47.1943 3.73352 47.9842 3.63281C48.7173 3.53934 49.5811 3.41516 50.2791 3.2793L50.324 3.27051L50.3689 3.26758ZM53.8396 4.65918C52.4599 4.63643 51.2959 4.70539 50.5144 4.76074C49.7779 4.90203 48.8996 5.02755 48.1736 5.12012C47.3986 5.21893 46.6178 5.33183 45.9031 5.45605C45.0019 5.6127 44.187 5.77434 43.2722 5.90039C42.4452 6.01435 41.8675 6.18712 41.0935 6.38574C40.4258 6.5571 39.8345 6.7793 39.2019 6.99121C38.6686 7.16988 38.154 7.42986 37.7088 7.73828C37.0929 8.16493 36.144 8.68982 35.3826 9.33691C34.7092 9.90929 33.9786 10.5848 33.6922 10.9619C33.2418 11.5548 32.7433 12.0737 32.4461 12.6816C32.1016 13.3863 31.7352 14.2497 31.3367 15.0205C31.0448 15.5852 30.9156 16.0744 30.614 16.8984C30.216 17.9862 29.8314 18.7371 29.7556 19.6279C29.6205 21.2191 29.6629 23.725 29.7576 25.042C29.7835 25.4023 29.7987 25.7663 29.8123 26.1143C29.826 26.4662 29.8379 26.7996 29.8572 27.1182C29.8968 27.771 29.964 28.2715 30.0935 28.6182C30.2784 29.1125 30.4226 29.5721 30.5515 29.9502C30.6845 30.3401 30.8109 30.6743 30.9793 31.001C31.287 31.5979 31.6857 32.2748 32.1082 32.875C32.4974 33.4278 32.9496 34.1983 33.6277 35.2441C34.0622 35.9143 34.3714 36.334 34.8504 36.6934C35.1563 36.9228 35.4738 37.1411 35.7976 37.3613C36.117 37.5785 36.4482 37.8021 36.7615 38.0273C37.4197 38.5007 38.7115 39.3814 39.6111 39.6875C40.2281 39.8974 40.8787 40.2152 41.4676 40.498C42.0796 40.792 42.6291 41.0507 43.1209 41.2051C44.0832 41.507 44.9685 41.7834 45.7127 42.0029C46.6238 42.2717 47.3793 42.557 48.6394 42.5322C51.8012 42.4699 52.761 42.3543 53.3094 42.1992C53.6119 42.1136 53.9071 42.0129 54.2449 41.9033C54.572 41.7972 54.9271 41.6868 55.2986 41.6064C55.9944 41.4559 56.5163 41.2811 57.0144 41.042C57.3364 40.8874 57.7595 40.7502 58.1228 40.626C58.5136 40.4924 58.8788 40.3606 59.1873 40.2061C59.5083 40.0452 59.8546 39.9062 60.1082 39.7939C60.3827 39.6724 60.6 39.5622 60.7859 39.4277C61.3415 39.0256 62.1531 38.3662 62.8279 37.7129C63.4846 37.0771 64.273 36.3619 64.7469 35.8164C65.2624 35.2228 65.6917 34.6871 66.1297 33.6992C66.4422 32.9942 66.6603 32.4418 66.8953 31.8311C67.0546 31.417 67.229 31.029 67.3933 30.6709C67.5608 30.306 67.7129 29.9828 67.8455 29.667C68.1529 28.9347 68.4404 28.0766 68.6853 27.3213C68.8316 26.8703 68.9698 26.5513 69.0642 25.9971C69.1571 25.452 69.2043 24.6726 69.0916 23.4297C69.0401 22.8614 69.0289 22.2907 69.0066 21.8555C68.9826 21.3855 68.9443 21.056 68.865 20.8174C68.6191 20.077 68.3719 19.2132 68.1961 18.6064C68.0279 18.0264 67.7962 17.5872 67.4568 16.7285C67.0762 15.7656 66.8431 15.2243 66.5506 14.7373C66.2497 14.2364 65.9524 13.7413 65.5877 13.1338C65.1891 12.4699 64.7988 12.0312 64.3435 11.4082C64.174 11.1762 63.9516 10.9208 63.6863 10.6104C63.4313 10.3119 63.1455 9.97236 62.8933 9.61426C62.5534 9.13135 61.9884 8.54526 61.5076 8.22461C61.0056 7.88997 60.5819 7.58842 60.0242 7.30957C59.6985 7.14673 59.3915 6.98767 59.0379 6.80566C58.6829 6.62298 58.2751 6.41375 57.741 6.14746C57.1238 5.83973 56.5969 5.61484 56.0349 5.42676C55.6536 5.2991 55.2793 5.16854 54.9265 5.05273C54.7555 4.99657 54.6042 4.94917 54.4803 4.91406C54.4186 4.89659 54.3676 4.88249 54.3269 4.87305C54.3071 4.86844 54.2912 4.86559 54.2791 4.86328C54.2731 4.86214 54.2678 4.86089 54.2644 4.86035C54.2629 4.8601 54.2614 4.86047 54.2605 4.86035L54.2595 4.85937C54.095 4.83888 53.9516 4.76491 53.8396 4.65918Z" fill="black"/>
<path d="M62.2861 7.56341e-07C62.7002 0.000157396 63.0361 0.335884 63.0361 0.750001C63.0361 1.16412 62.7002 1.49984 62.2861 1.5C61.7039 1.5 61.1746 1.50063 60.8418 1.51953C60.469 1.54073 60.4828 1.56422 60.1523 1.59668L60.1328 1.59863C59.7471 1.62646 59.3689 1.6829 58.9463 1.74902C58.5303 1.8141 58.0722 1.88805 57.5673 1.9375C57.346 1.95918 57.131 1.97253 56.9316 1.98438C56.7282 1.99646 56.5434 2.00716 56.3603 2.02344C55.9983 2.05563 55.6767 2.10812 55.3603 2.21973C54.6687 2.46368 54.0649 2.66926 53.5097 2.87598C53.1912 2.9946 52.684 3.22684 52.1523 3.47363C51.6444 3.70941 51.1071 3.96188 50.7841 4.09082C50.3996 4.24434 49.9632 4.05731 49.8095 3.67285C49.656 3.28827 49.843 2.85193 50.2275 2.69824C50.5007 2.58919 50.9826 2.36199 51.5205 2.11231C52.0348 1.87359 52.601 1.61418 52.9863 1.4707C53.5576 1.25797 54.1898 1.04153 54.8613 0.804688C55.3432 0.634721 55.8029 0.567052 56.2275 0.529298C56.4374 0.510639 56.6472 0.498929 56.8427 0.487305C57.0426 0.475426 57.2322 0.462916 57.4218 0.444337C57.8756 0.399871 58.289 0.334196 58.7148 0.267579C59.1283 0.202892 59.557 0.137833 60.0058 0.104493V0.103516C60.0797 0.0961971 60.4105 0.0411524 60.7558 0.0214851C61.1418 -0.000461716 61.7241 7.56341e-07 62.2861 7.56341e-07Z" fill="black"/>
<path d="M64.6892 2.52417C65.1034 2.52417 65.4392 2.85996 65.4392 3.27417C65.4392 3.68838 65.1034 4.02417 64.6892 4.02417C63.8642 4.02417 63.0897 4.02406 62.6101 4.0437C62.0926 4.06491 62.045 4.09526 61.6521 4.1228H61.6443L61.6374 4.12378C60.5007 4.18121 59.7661 4.33812 59.0203 4.57202C58.5498 4.71959 58.0623 4.88948 57.6414 5.03394C57.4344 5.10496 57.2406 5.17157 57.0789 5.22241C56.9349 5.26767 56.7606 5.31875 56.6208 5.33862C56.2108 5.39689 55.8315 5.11196 55.7732 4.7019C55.7149 4.29185 55.9998 3.91258 56.4099 3.85425C56.4122 3.85374 56.4732 3.83966 56.6287 3.79077C56.7697 3.74642 56.9476 3.68716 57.155 3.61597C57.5632 3.47589 58.0768 3.29568 58.572 3.14038C59.433 2.87035 60.2892 2.69129 61.5476 2.62671C61.7207 2.61452 62.0695 2.5653 62.5486 2.54565C63.0667 2.52443 63.8794 2.52417 64.6892 2.52417Z" fill="black"/>
<path d="M60.6987 11.1023C61.1087 11.0442 61.4881 11.3291 61.5464 11.739C61.6046 12.149 61.3196 12.5283 60.9097 12.5867C60.9281 12.5841 60.9219 12.5839 60.8843 12.5955C60.8517 12.6055 60.8082 12.6209 60.7573 12.6414C60.6535 12.6833 60.5408 12.7379 60.4468 12.7957C60.1738 12.9634 60.0282 13.0767 59.6968 13.2888C59.5714 13.3691 59.4429 13.4637 59.2817 13.5828C59.126 13.6979 58.9448 13.8327 58.7398 13.9695C58.5552 14.0926 58.4522 14.2239 58.2066 14.5047C58.0114 14.7822 57.8865 15.0096 57.8032 15.2283L57.7974 15.242L57.7925 15.2556C57.7765 15.2933 57.7604 15.3254 57.7485 15.3494C57.7338 15.3792 57.7287 15.3893 57.7153 15.4168C57.6944 15.4597 57.6636 15.5253 57.6167 15.6375C57.457 16.0196 57.0174 16.2004 56.6353 16.0408C56.2531 15.8811 56.0722 15.4415 56.2319 15.0593C56.29 14.9203 56.3329 14.8288 56.3667 14.7595C56.3805 14.7313 56.3988 14.6955 56.4038 14.6853C56.4099 14.673 56.4113 14.6685 56.4116 14.6677H56.4126C56.5563 14.2988 56.7545 13.958 57.0024 13.6092L57.0249 13.5779L57.0503 13.5486C57.2413 13.3313 57.5064 12.9885 57.9067 12.7215C58.0773 12.6077 58.2312 12.4939 58.3911 12.3758C58.5455 12.2617 58.7138 12.1378 58.8882 12.0261C59.0787 11.9042 59.4214 11.665 59.6616 11.5174C59.8394 11.4081 60.0291 11.317 60.1958 11.2498C60.3486 11.1881 60.5355 11.1255 60.6987 11.1023Z" fill="black"/>
<path d="M62.0694 15.3877C62.4618 15.2575 62.8854 15.4696 63.0167 15.8613C63.0624 15.8763 63.1239 15.8983 63.1827 15.9277C63.2839 15.9785 63.4712 16.0945 63.586 16.3232L63.63 16.4287L63.6934 16.6475C63.8099 17.132 63.8147 17.7514 63.7276 18.3242C63.7379 18.3737 63.7442 18.425 63.7442 18.4775C63.7442 18.6528 63.7347 18.8235 63.6319 19.1943C63.6114 19.2682 63.5854 19.3511 63.5577 19.4404C63.5539 19.4716 63.5507 19.5022 63.547 19.5322C63.5151 19.7915 63.4786 20.0819 63.3702 20.3643C63.2926 20.5665 63.1903 20.8287 63.0567 21.0781C62.9242 21.3254 62.7356 21.6096 62.4571 21.8301C62.4501 21.8357 62.442 21.8409 62.4347 21.8467C62.4264 21.8589 62.4194 21.8718 62.4112 21.8838C62.1918 22.2028 61.8884 22.5546 61.4327 22.6826C61.3393 22.7088 61.1724 22.7435 60.9776 22.7061C60.8485 22.6812 60.7182 22.6255 60.6036 22.5361C60.5319 22.5318 60.4581 22.5255 60.3829 22.5137C60.3046 22.5013 60.019 22.4601 59.7921 22.2217C59.5577 21.9751 59.5232 21.6724 59.5216 21.4834C59.5115 20.2763 59.5754 19.868 59.6085 19.4853C59.638 19.1439 59.6792 18.6249 59.878 18.1738C60.0072 17.8809 60.2016 17.3787 60.4581 17.0244C60.5195 16.9395 60.5543 16.8576 60.6554 16.6533C60.7413 16.4796 60.8775 16.2183 61.1222 15.9941C61.4338 15.7086 61.814 15.4724 62.0694 15.3877Z" fill="black"/>
<path d="M50.0597 29.5144C50.4154 29.3026 50.8759 29.4195 51.088 29.7751C51.0657 29.7377 51.0495 29.7203 51.0597 29.7322C51.066 29.7395 51.0796 29.7547 51.1026 29.7781C51.1488 29.8248 51.2148 29.8877 51.2989 29.9626C51.3725 30.0282 51.4805 30.1052 52.1993 30.4031C52.3966 30.4848 52.5333 30.534 52.6769 30.5886C52.8177 30.6421 52.9658 30.7018 53.129 30.7927C53.1976 30.8309 53.2749 30.8627 53.4093 30.9079C53.5291 30.9483 53.7399 31.0132 53.961 31.0925C54.7402 31.372 55.033 31.4233 55.3673 31.4773C55.8265 31.5514 56.5384 31.6747 57.0118 31.7546C57.1433 31.7768 57.2306 31.7844 57.3751 31.8044C57.4996 31.8217 57.6644 31.8487 57.8341 31.9089C57.851 31.9149 57.8837 31.9224 57.9786 31.9285C58.04 31.9324 58.067 31.9334 58.1525 31.9382C58.2215 31.9421 58.3049 31.9478 58.3956 31.9597C58.7551 32.0068 58.8997 32.043 59.2237 32.0788C59.4045 32.0989 59.7211 32.1106 60.1105 32.1208C60.4818 32.1306 60.9051 32.1396 61.2511 32.157C61.5014 32.1696 61.7114 32.1765 62.2062 32.197C62.7855 32.221 63.281 32.2187 63.6476 32.2087C63.8307 32.2038 63.9806 32.1969 64.0919 32.1902C64.1476 32.1868 64.1928 32.1842 64.2267 32.1814C64.2435 32.18 64.2568 32.1785 64.2667 32.1775C64.2769 32.1765 64.2813 32.1755 64.2814 32.1755C64.5386 32.1418 64.7366 32.1293 64.9034 32.1189C65.0712 32.1084 65.1906 32.1009 65.3302 32.0818C65.737 32.0262 66.0613 31.9817 66.3624 31.9255C66.4508 31.9065 66.5596 31.8835 66.6398 31.865C66.7224 31.8459 66.8067 31.8244 66.9386 31.8054C67.3486 31.7463 67.7291 32.0312 67.7882 32.4412C67.8472 32.8511 67.5624 33.2317 67.1525 33.2908C67.0937 33.2992 67.0711 33.3051 66.9767 33.3269C66.8842 33.3482 66.7603 33.3752 66.6622 33.3962L66.6427 33.4001C66.296 33.465 65.9284 33.5141 65.5333 33.5681C65.3292 33.596 65.153 33.6062 64.9962 33.616C64.8385 33.6258 64.6819 33.636 64.4767 33.6628C64.2641 33.6907 63.3642 33.7456 62.1446 33.6951C61.6621 33.6751 61.4348 33.668 61.1759 33.655C60.8536 33.6388 60.4595 33.6311 60.0714 33.6208C59.7012 33.6111 59.3151 33.5984 59.0587 33.5701C58.7758 33.5387 58.3819 33.4707 58.2013 33.447C58.105 33.4344 58.0507 33.4362 57.8829 33.4255C57.7424 33.4165 57.5457 33.3978 57.3321 33.322C57.3125 33.315 57.2731 33.3052 57.1691 33.2908C57.0853 33.2791 56.9187 33.2596 56.7618 33.2331C56.2761 33.1511 55.5804 33.0308 55.128 32.9578C54.7047 32.8894 54.3224 32.8151 53.4542 32.5037C53.2443 32.4284 53.1106 32.3894 52.9308 32.3288C52.7658 32.2733 52.5874 32.2069 52.3995 32.1023C52.3333 32.0654 52.2659 32.0364 52.1437 31.99C52.0243 31.9446 51.8496 31.8818 51.6251 31.7888C50.9446 31.5069 50.5954 31.3443 50.3019 31.0828C50.2041 30.9957 50.112 30.9096 50.0353 30.8318C49.9755 30.7712 49.8708 30.6632 49.7989 30.5427C49.5871 30.187 49.7041 29.7265 50.0597 29.5144Z" fill="black"/>
<path d="M38.9391 40.9285C39.232 40.6356 39.7077 40.6356 40.0006 40.9285C40.2932 41.2213 40.2932 41.6962 40.0006 41.989C39.9055 42.0841 39.5956 42.476 39.4127 42.8728C39.1559 43.4303 38.7672 44.0384 38.4928 44.531C38.2308 45.0015 37.987 45.425 37.7614 45.7634C37.5636 46.0602 37.2803 46.5565 36.9567 47.1638C36.8165 47.427 36.6635 47.7359 36.4997 48.0632C36.339 48.3842 36.1683 48.7214 36.0036 49.0173C35.711 49.543 35.5526 49.9291 35.4235 50.3162L35.4147 50.3445L35.403 50.3728C35.3683 50.4542 35.3291 50.5244 35.3083 50.5632C35.283 50.6101 35.2759 50.6245 35.2711 50.6355C35.2673 50.6445 35.2659 50.6492 35.2516 50.6853C35.2402 50.7141 35.2222 50.7591 35.1979 50.8093C35.1453 50.9179 35.0684 51.0416 34.9479 51.1638C34.6572 51.4589 34.1824 51.4624 33.8874 51.1716C33.6018 50.8902 33.5898 50.4367 33.8532 50.1404C33.8542 50.1378 33.8557 50.135 33.8571 50.1316C33.859 50.1269 33.8615 50.1222 33.8639 50.116C33.8662 50.1101 33.8688 50.1028 33.8717 50.0955C33.8776 50.0808 33.8852 50.0616 33.8942 50.0408C33.9287 49.9608 33.967 49.8905 33.987 49.8533C34.0055 49.8188 34.0135 49.8027 34.0182 49.7927C34.1725 49.338 34.3645 48.877 34.693 48.2869C34.8397 48.0233 34.9964 47.7139 35.1579 47.3914C35.3162 47.0751 35.4807 46.7426 35.6325 46.4578C35.959 45.8449 36.2718 45.2927 36.5133 44.9304C36.703 44.6458 36.9221 44.2686 37.1823 43.8015C37.5309 43.1756 37.8223 42.74 38.0504 42.2449C38.3109 41.6798 38.7246 41.1431 38.9391 40.9285Z" fill="black"/>
<path d="M31.8753 50.3035C32.0597 49.9327 32.5103 49.7812 32.8811 49.9656C33.0324 50.0408 33.1472 50.1497 33.2141 50.2175C33.2917 50.2962 33.3652 50.3845 33.4309 50.4695C33.5629 50.6401 33.6957 50.8387 33.8079 51.0212C33.9881 51.3144 34.1842 51.6354 34.7737 52.324C35.5929 53.2809 35.8642 53.6544 36.1653 54.031C36.3679 54.2845 36.7899 54.7588 37.0598 55.199L37.2132 55.4177C37.264 55.4864 37.319 55.5558 37.3772 55.6248C37.4319 55.6745 37.5683 55.7983 37.7356 56.0203C37.9847 56.3509 37.9186 56.8208 37.5882 57.0701C37.2574 57.3194 36.7867 57.2534 36.5374 56.9226C36.4782 56.8441 36.4422 56.806 36.4202 56.7839C36.4072 56.771 36.3945 56.7587 36.3743 56.74C36.3563 56.7234 36.3246 56.6944 36.2923 56.6619L36.2727 56.6423L36.2542 56.6209C36.0732 56.4095 35.9252 56.2012 35.8118 56.031L35.7923 55.9998C35.5927 55.6668 35.2926 55.3418 34.9934 54.9675C34.6717 54.565 34.4313 54.2308 33.6341 53.2996C32.9829 52.539 32.7414 52.1512 32.5296 51.8064C32.4342 51.6512 32.3325 51.5003 32.2444 51.3865C32.2011 51.3305 32.1688 51.2928 32.1477 51.2712C31.8255 51.0687 31.7023 50.6515 31.8753 50.3035Z" fill="black"/>
<path d="M33.3207 54.093C33.5796 53.8147 34.0131 53.7726 34.3226 54.0071C34.6173 54.2306 34.6995 54.6296 34.5355 54.9475C34.5275 54.978 34.5155 55.0285 34.5013 55.1057C34.4685 55.284 34.4382 55.4946 34.389 55.7883C34.308 56.2721 34.2874 56.6206 34.2777 56.9065C34.2688 57.1688 34.2699 57.4828 34.2201 57.7756C34.1755 58.0372 34.1458 58.3254 34.1136 58.6291C34.0833 58.916 34.0489 59.2353 33.9945 59.4993C33.9617 59.6582 33.9413 59.8868 33.9212 60.1897C33.9026 60.4714 33.8846 60.8139 33.85 61.1282C33.8235 61.3686 33.786 61.628 33.7513 61.8772C33.7158 62.1322 33.681 62.3897 33.6566 62.6565C33.6028 63.2454 33.4563 63.8627 33.3587 64.3254C33.2483 64.8494 33.1612 65.3891 33.1253 65.8039C33.0996 66.1015 33.0435 66.3983 32.9984 66.6535C32.9513 66.9204 32.9108 67.1719 32.8939 67.4446C32.8782 67.6992 32.845 67.9487 32.8168 68.1975C32.7876 68.4548 32.7573 68.7566 32.7386 69.1682C32.7236 69.501 32.6638 69.8053 32.6156 70.0618C32.5657 70.3273 32.5219 70.5726 32.5052 70.8635C32.4874 71.1748 32.4458 71.4435 32.4046 71.6897C32.3626 71.9415 32.3238 72.157 32.2943 72.4114C32.2499 72.7942 32.2272 73.1472 32.2084 73.4944C32.1898 73.8349 32.1735 74.1857 32.139 74.5266C32.0791 75.1187 31.9733 76.6988 31.9085 77.7756C31.8794 78.2596 31.8423 78.6236 31.808 78.9299C31.7729 79.242 31.7442 79.4649 31.7259 79.7063C31.705 79.9835 31.675 80.2562 31.6459 80.5061C31.6161 80.7613 31.5882 80.9868 31.5697 81.1946C31.5429 81.4956 31.499 81.8388 31.4564 82.1897C31.413 82.5475 31.3688 82.9325 31.3373 83.3489L31.3353 83.3684L31.3334 83.3869C31.2989 83.6551 31.2734 83.9926 31.2611 84.4162V84.4309L31.2601 84.4465C31.252 84.563 31.2392 84.658 31.2289 84.7414C31.2185 84.8251 31.2067 84.9233 31.1947 85.0774C31.1625 85.4903 30.801 85.799 30.388 85.7668C29.9753 85.7345 29.6664 85.374 29.6986 84.9612C29.713 84.7767 29.7274 84.6541 29.7396 84.5559C29.7518 84.4575 29.7584 84.4088 29.763 84.342C29.7767 83.8983 29.8035 83.5199 29.8451 83.1965C29.879 82.761 29.9243 82.3627 29.9671 82.009C30.0122 81.6378 30.0516 81.3315 30.0755 81.0618C30.0963 80.8279 30.1273 80.575 30.1556 80.3323C30.1846 80.0841 30.2123 79.8383 30.2308 79.594C30.2518 79.3164 30.2859 79.0459 30.3177 78.7619C30.3503 78.472 30.3844 78.1357 30.4115 77.6858C30.4758 76.616 30.5832 75.0047 30.6468 74.3762C30.6769 74.0793 30.6917 73.7731 30.7113 73.4133C30.7305 73.0603 30.7541 72.6692 30.8041 72.2385C30.8391 71.936 30.8874 71.6685 30.9252 71.4426C30.9638 71.2111 30.9941 71.0062 31.0072 70.7776C31.0298 70.3823 31.0902 70.0549 31.141 69.7844C31.1935 69.5047 31.2312 69.3087 31.2406 69.1008C31.2612 68.6452 31.2948 68.3078 31.3265 68.0285C31.3591 67.741 31.3842 67.5558 31.3968 67.3518C31.4193 66.9893 31.4732 66.6672 31.5218 66.3918C31.5725 66.1048 31.6127 65.8895 31.6312 65.675C31.6739 65.1806 31.7726 64.5773 31.891 64.0159C32.0011 63.493 32.1199 62.997 32.1634 62.5207C32.1912 62.2169 32.2288 61.9301 32.265 61.6701C32.302 61.4041 32.3353 61.1768 32.3587 60.9641C32.3886 60.6928 32.4045 60.4033 32.4252 60.091C32.4444 59.7997 32.4692 59.4712 32.5257 59.1965C32.5623 59.0188 32.589 58.7786 32.6214 58.4719C32.6521 58.182 32.6874 57.8418 32.7416 57.5237C32.7691 57.362 32.7667 57.2091 32.7787 56.8557C32.7899 56.5256 32.8146 56.1085 32.9095 55.5412C32.9513 55.2917 32.9917 55.0232 33.0267 54.8332C33.0449 54.7346 33.066 54.6305 33.0921 54.5364C33.1107 54.4698 33.1588 54.3008 33.2718 54.1516L33.3207 54.093Z" fill="black"/>
<path d="M37.6003 63.9897C37.83 63.6452 38.2958 63.5522 38.6404 63.7817C38.985 64.0115 39.0781 64.4771 38.8484 64.8218C38.7955 64.901 38.7442 64.978 38.6921 65.0561C38.5894 65.2103 38.4369 65.4388 38.2331 65.7573C38.1159 65.9617 37.9665 66.1742 37.8943 66.2856C37.7994 66.4321 37.7456 66.5373 37.7146 66.647C37.5546 67.2131 37.3054 67.788 37.0984 68.2192C36.8968 68.6391 36.7418 68.8895 36.6072 69.2554C36.5123 69.5132 36.3829 69.7446 36.2859 69.9185C36.1791 70.1099 36.1085 70.2391 36.0603 70.3657C35.9119 70.7555 35.7126 71.1575 35.5544 71.5239C35.4028 71.8752 35.263 72.2909 35.1482 72.6997C35.0366 73.0968 34.9426 73.4837 34.78 74.1841C34.6401 74.7866 34.4794 75.2378 34.3415 75.6265C34.2538 75.8738 34.1472 76.1214 34.0544 76.3384C33.9576 76.565 33.8749 76.76 33.8122 76.9419C33.6538 77.4017 33.4621 77.8113 33.2869 78.1763C33.1014 78.5626 32.9608 78.83 32.8845 79.1352C32.7743 79.5761 32.6135 80.1059 32.3611 80.6108C32.2798 80.7735 32.2116 80.9561 32.1091 81.2368C32.0096 81.5096 31.8869 81.848 31.7048 82.271C31.5403 82.6532 31.4468 83.1898 31.4245 83.3901C31.379 83.8018 31.0081 84.0988 30.5964 84.0532C30.185 84.0074 29.8887 83.6366 29.9343 83.2251C29.9636 82.9612 30.0778 82.257 30.3269 81.6782C30.4907 81.2977 30.6007 80.9939 30.6999 80.7222C30.7962 80.4584 30.893 80.1935 31.0193 79.9409C31.2027 79.574 31.332 79.1616 31.4294 78.772C31.5523 78.2806 31.783 77.842 31.9343 77.5269C32.1076 77.166 32.2665 76.8245 32.3943 76.4536C32.4776 76.2118 32.5824 75.9665 32.6755 75.7485C32.7728 75.5209 32.8595 75.3189 32.9285 75.1245C33.0652 74.7392 33.2 74.3581 33.3191 73.8452C33.4818 73.1447 33.5821 72.728 33.7038 72.2944C33.8314 71.8402 33.9924 71.3579 34.1775 70.9292C34.387 70.4438 34.5201 70.1939 34.6579 69.8315C34.7523 69.5837 34.8824 69.3564 34.9763 69.188C35.0801 69.0018 35.1517 68.8689 35.1999 68.7378C35.3661 68.2863 35.6107 67.8514 35.7458 67.5698C35.9368 67.1721 36.145 66.6854 36.2712 66.2388C36.3619 65.9181 36.5082 65.6667 36.6355 65.4702C36.7805 65.2463 36.8571 65.15 36.9451 64.9907L36.9568 64.9702L36.9695 64.9497C37.1811 64.6188 37.3399 64.3803 37.4441 64.2241C37.4962 64.146 37.5475 64.069 37.6003 63.9897Z" fill="black"/>
<path d="M38.9875 55.7007C39.4548 55.3391 40.0308 55.3716 40.3781 55.4282C40.7826 55.4942 41.169 55.6435 41.3654 55.7173C41.7306 55.8544 42.1142 56.1432 42.4211 56.395C42.7454 56.6611 43.0895 56.9759 43.3625 57.2173C43.8557 57.6534 44.0554 58.2587 44.1574 58.7388C44.28 59.3165 44.0913 59.8789 43.9309 60.2583C43.845 60.4612 43.7487 60.6515 43.6701 60.8062C43.5848 60.9741 43.53 61.0822 43.4953 61.1655C43.2366 61.7877 43.0608 62.2698 42.882 62.6421C42.715 62.99 42.4511 63.5539 42.0578 64.0278C41.5053 64.6936 40.6075 65.0618 40.0529 65.2085H40.051C39.8109 65.2715 39.6233 65.3263 39.4494 65.3745C39.3328 65.4069 39.2042 65.4383 39.0813 65.4624C39.08 65.4632 39.0788 65.4644 39.0774 65.4653C39.0648 65.4734 39.0513 65.4827 39.0305 65.4966C38.6859 65.7263 38.2202 65.6331 37.9904 65.2886C37.9462 65.2222 37.9165 65.1505 37.8957 65.0776C37.7695 65.0159 37.6586 64.9192 37.5813 64.7896C37.6072 64.833 37.6231 64.8436 37.5666 64.7818C37.5115 64.7214 37.4791 64.6898 37.3918 64.5952C37.2491 64.4406 37.0575 64.2235 36.8869 63.9644C36.6111 63.5453 36.5317 63.0629 36.5012 62.6235C36.4714 62.1949 36.483 61.6585 36.4768 61.1392C36.4716 60.7127 36.5654 60.3424 36.6613 60.0474C36.7085 59.9024 36.7599 59.764 36.8 59.6548C36.843 59.5377 36.8735 59.4534 36.8938 59.3814C37.0145 58.9519 37.216 58.4959 37.3977 58.1138C37.5991 57.6901 37.748 57.4101 37.8508 57.1792C38.1308 56.5507 38.5326 56.1122 38.8957 55.7778L38.9875 55.7007ZM40.1369 56.9087C39.9846 56.8839 39.9152 56.8942 39.8938 56.8989C39.6163 57.1568 39.3816 57.4289 39.2209 57.7896C39.1161 58.0249 38.9076 58.4304 38.7522 58.7573C38.577 59.1259 38.4215 59.4871 38.3371 59.7876C38.299 59.9231 38.2501 60.0582 38.2082 60.1724C38.1634 60.2943 38.1244 60.3998 38.0881 60.5112C38.0171 60.7294 37.9744 60.925 37.9768 61.1216C37.9841 61.7276 37.9713 62.147 37.9973 62.52C38.0225 62.8822 38.0799 63.048 38.1399 63.1392C38.2426 63.2953 38.3686 63.4414 38.4943 63.5776C38.5411 63.6283 38.6313 63.7242 38.674 63.771C38.71 63.8104 38.7788 63.8901 38.8391 63.98C38.8852 63.9692 38.9522 63.9558 39.0481 63.9292C39.2016 63.8866 39.4167 63.8238 39.6701 63.7573C40.101 63.6432 40.6428 63.3841 40.9035 63.0698C41.1588 62.7622 41.348 62.3707 41.5295 61.9927C41.6876 61.6634 41.8101 61.3118 42.1106 60.5894C42.1729 60.4395 42.2614 60.2677 42.3332 60.1265C42.4118 59.9718 42.4858 59.8228 42.549 59.6734C42.6866 59.3482 42.7123 59.1526 42.6906 59.0503C42.6106 58.6739 42.4983 58.4562 42.3684 58.3413C42.0666 58.0745 41.7647 57.7979 41.469 57.5552C41.1558 57.2982 40.9445 57.1616 40.8381 57.1216C40.6192 57.0394 40.3706 56.9468 40.1369 56.9087Z" fill="black"/>
<path d="M36.9353 63.4482C37.3063 63.3656 37.687 63.5759 37.8093 63.9443C37.9265 64.2978 37.7654 64.6752 37.446 64.8428C37.4349 64.8521 37.4163 64.8681 37.3894 64.8936C37.3113 64.9674 37.205 65.0791 37.0642 65.2324C36.8351 65.482 36.6187 65.7176 36.3757 66.001C35.7572 66.7222 35.2143 67.1018 34.7439 67.544L34.7429 67.543C34.6234 67.6625 34.5258 67.7628 34.4392 67.8389C34.3922 67.8801 34.3441 67.9178 34.3152 67.9414C34.2822 67.9683 34.2397 68.0039 34.1726 68.0635C33.8629 68.3383 33.389 68.3105 33.114 68.001C32.8392 67.6913 32.867 67.2174 33.1765 66.9424C33.2612 66.8672 33.3201 66.8185 33.3669 66.7803C33.4179 66.7387 33.4294 66.73 33.4499 66.7119C33.4946 66.6727 33.556 66.6107 33.6999 66.4668L33.7087 66.459L33.7165 66.4512C34.3852 65.8226 34.6743 65.6817 35.238 65.0244C35.4981 64.7211 35.7277 64.4694 35.9587 64.2178C36.1031 64.0605 36.2394 63.916 36.3581 63.8037C36.4174 63.7477 36.4827 63.689 36.5505 63.6377C36.6062 63.5955 36.7169 63.5166 36.8611 63.4688L36.9353 63.4482Z" fill="black"/>
<path d="M30.388 68.4341C30.7325 68.2732 31.15 68.3964 31.3489 68.73C31.5369 69.0456 31.4653 69.4425 31.1985 69.6763C31.1737 69.707 31.1374 69.7561 31.0843 69.8296C30.9851 69.9667 30.8401 70.1731 30.6809 70.3813C30.2846 70.8996 29.8341 71.169 29.635 71.3169C28.9489 71.8269 28.312 72.0802 28.0081 72.189C27.73 72.3154 27.4837 72.3788 27.304 72.4106L27.2806 72.4155L27.2581 72.4175C27.2457 72.4189 27.2308 72.4197 27.2239 72.4204C27.2156 72.4242 27.203 72.4321 27.1849 72.4419C26.8205 72.6386 26.3652 72.5025 26.1683 72.1382C25.9715 71.7738 26.1077 71.3185 26.472 71.1216C26.6066 71.0488 26.7314 70.9973 26.8567 70.9653C26.9356 70.9452 27.0124 70.9349 27.055 70.9302C27.1462 70.9132 27.2739 70.8815 27.4183 70.812L27.4544 70.7944L27.4925 70.7808C27.7151 70.7016 28.2079 70.5088 28.7395 70.1138C29.0602 69.8754 29.2573 69.7727 29.4886 69.4702C29.6317 69.2829 29.7554 69.1083 29.8694 68.9507C29.9228 68.8768 29.9797 68.7992 30.0315 68.7349C30.0573 68.7029 30.0895 68.6647 30.1253 68.6274C30.1523 68.5993 30.2217 68.5282 30.3206 68.4692L30.388 68.4341Z" fill="black"/>
<path d="M22.1498 42.7908C22.7341 42.7386 24.5379 42.5928 26.1107 42.822C26.7636 42.9172 27.4983 43.0572 28.1351 43.2214C28.453 43.3034 28.7578 43.394 29.0209 43.4929C29.2673 43.5856 29.54 43.7078 29.7474 43.8728C30.1065 44.1585 30.8378 44.6366 31.2484 45.3855C31.8428 46.4701 32.0799 47.0268 32.2582 47.5505C32.463 48.1523 32.518 48.915 32.518 49.1912C32.5177 49.6052 32.182 49.9412 31.768 49.9412C31.5528 49.941 31.3597 49.8491 31.223 49.7038C30.9414 49.7036 30.677 49.5471 30.5502 49.2869C30.5406 49.2842 30.5303 49.2812 30.5189 49.2781L30.5033 49.2742L30.4877 49.2693C30.2984 49.2087 30.1148 49.132 29.9535 49.0632C29.7837 48.9908 29.6344 48.9248 29.473 48.864C29.1623 48.7469 28.8422 48.6619 28.4613 48.657C27.9409 48.6502 27.4811 48.6195 26.974 48.6296C26.4813 48.6395 26.0864 48.6897 25.8031 48.8005C25.2622 49.0121 24.9675 49.1296 24.6371 49.3494C24.2524 49.6053 23.6175 50.1027 22.9232 50.5027C22.7734 50.589 22.6556 50.6856 22.473 50.8376C22.2934 50.9872 22.068 51.1755 21.7523 51.3718C21.5562 51.4938 21.4025 51.6175 21.1996 51.7781C21.0009 51.9353 20.7663 52.1176 20.4555 52.2947C19.654 52.751 19.3621 52.9636 18.7758 53.4509C18.5319 53.6536 18.262 53.911 17.9008 54.2537C17.5456 54.5905 17.1187 54.993 16.5863 55.4607C16.059 55.9239 15.6625 56.3234 15.3051 56.6531C15.0474 56.8907 14.7145 57.3303 14.5336 57.6579C14.5091 57.7023 14.4812 57.7668 14.4398 57.8747C14.4049 57.9659 14.3519 58.1094 14.2943 58.2371C14.1969 58.4529 13.9437 58.9651 13.3441 59.0701C13.0698 59.118 12.8007 59.0628 12.6058 59.0183C12.4193 58.9757 12.0917 58.888 11.7806 58.8132C11.0669 58.6416 10.4501 58.3324 10.141 58.2117C10.0459 58.1745 9.93065 58.1396 9.78553 58.0994C9.65295 58.0626 9.47806 58.0173 9.31971 57.9685C9.027 57.8783 8.5653 57.7175 8.25526 57.3425C8.21664 57.2958 8.1362 57.1968 8.07264 57.072C8.0172 56.9632 7.90104 56.6933 8.00135 56.3699L8.0658 56.2038C8.08958 56.1516 8.11454 56.1039 8.13416 56.0662C8.18013 55.9778 8.23646 55.8762 8.29432 55.7732C8.41405 55.56 8.55227 55.317 8.6869 55.0554C8.96111 54.5226 9.26029 54.091 9.57069 53.7009C9.75464 53.4698 9.97225 53.2221 10.1488 53.0124C10.3362 52.7899 10.4997 52.5841 10.6322 52.3816C11.0021 51.8161 11.3712 51.0468 12.2299 49.9031C12.8301 49.1036 13.2247 48.7174 13.8939 47.9353C14.4949 47.2329 14.8039 46.8508 15.4359 46.2751C15.7502 45.9888 16.1494 45.3993 17.3646 44.6472C18.1977 44.1317 19.2872 43.5301 20.4086 43.1941C21.0388 43.0053 21.6047 42.8395 22.1498 42.7908ZM25.8949 44.3064C24.5134 44.105 22.8654 44.2328 22.2826 44.2849C21.916 44.3177 21.4993 44.4329 20.8392 44.6306C19.9078 44.9097 18.9519 45.4293 18.1547 45.9226C17.0893 46.5819 16.986 46.8913 16.4457 47.3835C15.896 47.8842 15.6498 48.1897 15.0336 48.9099C14.2916 49.777 13.9943 50.0529 13.4301 50.8044C12.5842 51.9311 12.3994 52.4212 11.8881 53.2029C11.7046 53.4834 11.4931 53.7446 11.2963 53.9783C11.0885 54.225 10.9121 54.4239 10.7445 54.6345C10.4808 54.9659 10.2405 55.3152 10.0209 55.7419C9.87614 56.0232 9.72727 56.2847 9.61463 56.4851C9.65714 56.5008 9.70551 56.5178 9.76112 56.5349C9.89247 56.5754 10.0218 56.6083 10.1869 56.654C10.3394 56.6963 10.5163 56.7476 10.6869 56.8142C11.1794 57.0066 11.5476 57.2139 12.1312 57.3542C12.3166 57.3988 12.4763 57.4401 12.6107 57.4744C12.748 57.5094 12.8524 57.5355 12.9398 57.5554C12.9438 57.5563 12.9478 57.5565 12.9515 57.5574C12.9758 57.4981 13.0026 57.4313 13.0385 57.3376C13.081 57.2266 13.1408 57.076 13.2201 56.9324C13.4671 56.4851 13.8958 55.9126 14.2885 55.5505C14.5781 55.2834 15.0626 54.8032 15.5971 54.3337C16.1064 53.8863 16.5155 53.4997 16.8685 53.1648C17.2153 52.8358 17.5264 52.5389 17.8168 52.2976C18.4686 51.7558 18.833 51.4922 19.7133 50.991C19.9204 50.873 20.0814 50.7497 20.2689 50.6013C20.4525 50.456 20.6764 50.2733 20.9594 50.0974C21.1798 49.9604 21.3375 49.8315 21.5131 49.6853C21.6859 49.5414 21.8966 49.3627 22.1742 49.2029C22.8338 48.823 23.2542 48.4674 23.806 48.1003C24.2916 47.7773 24.7366 47.6077 25.2572 47.404C25.7935 47.1943 26.4038 47.1404 26.9437 47.1296C27.4691 47.1191 28.07 47.1516 28.4808 47.157C29.0918 47.1649 29.5901 47.3058 30.0014 47.4607C30.2009 47.5359 30.3893 47.618 30.5424 47.6833C30.6145 47.7141 30.6795 47.7413 30.7396 47.7654C30.5989 47.3993 30.3842 46.9305 29.933 46.1072C29.7095 45.6994 29.3383 45.464 28.8139 45.0466C28.8143 45.047 28.8077 45.0423 28.7924 45.0329C28.7769 45.0235 28.7556 45.0112 28.7269 44.9968C28.6685 44.9675 28.591 44.9339 28.4935 44.8972C28.2976 44.8236 28.0475 44.7477 27.7601 44.6736C27.1865 44.5256 26.5067 44.3956 25.8949 44.3064Z" fill="black"/>
<path d="M10.1321 58.4443C10.2626 58.0515 10.6865 57.8387 11.0794 57.9687C11.3713 58.0655 11.5626 58.3245 11.5892 58.6123C11.6419 58.3494 11.8311 58.1226 12.1058 58.04L12.1966 58.0185C12.4157 57.9801 12.6894 58.0248 12.9027 58.2432C13.0814 58.4264 13.1187 58.6393 13.1292 58.7139C13.1539 58.8887 13.1255 59.0549 13.1077 59.1426L13.095 59.206L13.0716 59.2666C12.8813 59.754 12.719 60.1331 12.2982 61.0254L12.2503 61.1279L12.1741 61.2109C12.0535 61.3433 11.9437 61.4725 11.8284 61.6064C11.7184 61.7342 11.5976 61.8723 11.4769 61.9932C11.2875 62.1827 10.8642 62.5819 10.2777 62.4941C10.1661 62.4774 9.9503 62.4296 9.7552 62.2568C9.53341 62.0603 9.43574 61.7915 9.43195 61.5273C9.41901 60.6228 9.50406 60.119 9.66242 59.6191C9.75238 59.3352 9.86806 59.0551 9.96125 58.8389C10.0061 58.7348 10.0536 58.6278 10.0833 58.5596C10.0996 58.5221 10.1121 58.4924 10.1214 58.4697C10.1316 58.445 10.1339 58.439 10.1321 58.4443ZM11.5765 58.8408C11.5709 58.8662 11.5643 58.8918 11.556 58.917C11.5304 58.9941 11.4897 59.0884 11.4593 59.1582C11.4213 59.2455 11.3847 59.3269 11.3392 59.4326C11.2606 59.6148 11.1797 59.8142 11.1155 60.0049C11.3446 59.5116 11.4732 59.2192 11.5911 58.9258C11.5846 58.8974 11.5796 58.8691 11.5765 58.8408Z" fill="black"/>
<path d="M8.79067 57.4668C8.99614 57.1072 9.45449 56.9821 9.81411 57.1875C10.1737 57.393 10.2989 57.8513 10.0934 58.2109C10.0133 58.3511 9.95291 58.4538 9.84536 58.7061C9.61606 59.2438 9.49491 59.5646 9.41762 59.7803C9.34901 59.9717 9.29101 60.1547 9.21743 60.3223C9.13721 60.505 9.07826 60.7028 9.02895 60.9014C9.0042 61.0011 8.98324 61.0936 8.96157 61.1885C8.94145 61.2765 8.91831 61.3782 8.89223 61.4678C8.79336 61.8075 8.71843 62.2303 8.6227 62.6797C8.60672 62.7548 8.59906 62.8366 8.59243 62.9463C8.58687 63.0383 8.58026 63.1995 8.56313 63.3408C8.52726 63.6364 8.49757 64.1511 8.47036 64.7891C8.45586 65.1291 8.46579 65.7816 8.48696 66.2842C8.52102 67.0925 8.58658 67.4178 8.60805 67.6338C8.62321 67.7861 8.66876 67.983 8.73598 68.2207C8.78676 68.4002 8.89363 68.7433 8.94399 68.9277C8.95938 68.984 8.98011 69.0413 9.01137 69.125C9.03982 69.2011 9.08134 69.3113 9.11684 69.4287C9.13517 69.4893 9.19231 69.6169 9.31606 69.8418C9.43398 70.0561 9.58322 70.3075 9.76039 70.6094C9.90504 70.8558 10.0303 71.0429 10.1295 71.1855C10.1982 71.2844 10.2055 71.2932 10.2653 71.3789C10.3013 71.4305 10.35 71.5011 10.3893 71.5713C10.6181 71.9805 10.8521 72.2406 11.0553 72.4912C11.3184 72.8157 11.4994 73.0025 11.6159 73.1035C11.7331 73.2052 11.8539 73.3255 11.9479 73.4199C12.0532 73.5256 12.1278 73.6007 12.1872 73.6523C12.3912 73.8299 12.6226 74.0186 12.9821 74.2754C13.1851 74.4204 13.4374 74.544 13.7262 74.625C14.0959 74.7287 14.3372 74.7439 15.2262 74.7939C15.8447 74.8287 16.8979 74.8098 17.529 74.7988C17.8854 74.7926 18.0892 74.7793 18.2194 74.7666C18.3549 74.7533 18.3999 74.7426 18.526 74.7246C19.126 74.6392 19.3446 74.5141 19.6461 74.4014C19.9041 74.3049 20.3601 74.1595 20.6891 74.0566C20.9302 73.9813 21.2489 73.8809 21.6364 73.748C21.6663 73.7377 21.7562 73.6976 21.8844 73.623C22.0062 73.5522 22.1257 73.4715 22.2116 73.4033C22.3932 73.2591 22.5939 73.0539 22.7887 72.8379C22.9835 72.6219 23.0767 72.4692 23.4664 71.9863C23.7392 71.6485 23.9591 71.3504 24.1168 71.1279C24.1957 71.0167 24.2591 70.9254 24.3043 70.8574C24.3269 70.8235 24.344 70.7957 24.3571 70.7754C24.3692 70.7564 24.3755 70.747 24.3766 70.7451C24.4525 70.616 24.532 70.4914 24.6071 70.3721C24.6843 70.2494 24.7676 70.1155 24.8659 69.9443C25.4087 68.9985 25.7227 68.6551 25.7897 68.5664C25.8367 68.4905 25.8976 68.3944 25.9831 68.251C26.013 68.1976 26.0437 68.1397 26.111 67.9766C26.269 67.5938 26.7076 67.4115 27.0905 67.5693C27.4734 67.7273 27.6557 68.1659 27.4977 68.5488C27.4125 68.7552 27.3565 68.8699 27.2887 68.9902L27.2848 68.998L27.2799 69.0059C27.1736 69.1848 27.0887 69.3188 27.0524 69.3779L27.0416 69.3955L27.0299 69.4131C26.8625 69.6546 26.6947 69.7705 26.1666 70.6904C26.054 70.8867 25.959 71.0401 25.8766 71.1709C25.7921 71.3052 25.7303 71.4015 25.6696 71.5049C25.5909 71.6387 25.2154 72.2068 24.6334 72.9277C24.3425 73.2882 24.1223 73.5986 23.902 73.8428C23.6951 74.0722 23.4269 74.3537 23.1442 74.5781C22.8592 74.8044 22.4231 75.0639 22.1227 75.167C21.7157 75.3065 21.3814 75.4117 21.1364 75.4883C20.7984 75.5939 20.3836 75.7273 20.1715 75.8066C19.9486 75.89 19.5406 76.0957 18.7379 76.21C18.5392 76.2383 18.3382 76.2852 17.5543 76.2988C16.9486 76.3094 15.8293 76.3306 15.1422 76.292C14.2941 76.2443 13.8785 76.2258 13.3209 76.0693C12.8691 75.9426 12.4583 75.7439 12.11 75.4951C11.711 75.21 11.4414 74.9927 11.2018 74.7842C11.0929 74.6894 10.9756 74.57 10.8844 74.4785C10.7821 74.3758 10.7017 74.2956 10.6334 74.2363C10.4235 74.0542 10.1798 73.7925 9.89028 73.4355C9.72469 73.2314 9.3869 72.8531 9.07973 72.3037C9.07875 72.3022 9.06863 72.2849 9.03481 72.2363C9.02024 72.2154 8.93585 72.0963 8.89809 72.042C8.78436 71.8784 8.63704 71.6581 8.46743 71.3691C8.29812 71.0806 8.13258 70.8035 8.00161 70.5654C7.87657 70.3382 7.74965 70.0892 7.68129 69.8633C7.6629 69.8024 7.64102 69.7438 7.6061 69.6504C7.57406 69.5647 7.5318 69.4507 7.49672 69.3223C7.43218 69.086 7.38112 68.9418 7.29262 68.6289C7.22054 68.374 7.14471 68.0722 7.11586 67.7822C7.10509 67.6738 7.0242 67.2081 6.98793 66.3477C6.96612 65.8301 6.95512 65.1276 6.97231 64.7246C6.99916 64.0953 7.0308 63.5231 7.07485 63.1602C7.08468 63.0789 7.08628 63.0068 7.09535 62.8564C7.10336 62.7238 7.1163 62.5532 7.1559 62.3672C7.23475 61.9971 7.33249 61.4589 7.4518 61.0488C7.48662 60.9292 7.50309 60.8212 7.57289 60.54C7.63138 60.3045 7.71404 60.0134 7.8434 59.7187C7.88915 59.6146 7.90889 59.543 8.00551 59.2734C8.09351 59.0279 8.22555 58.6798 8.46547 58.1172C8.60604 57.7876 8.69882 57.6275 8.79067 57.4668Z" fill="black"/>
<path d="M25.4247 64.9656C25.692 64.6954 26.1264 64.6663 26.4287 64.9099C26.7208 65.1456 26.7886 65.5551 26.6054 65.8699C26.5944 65.8963 26.5797 65.9354 26.5556 65.9978C26.5083 66.1202 26.4396 66.2975 26.3496 66.4988C26.1895 66.8566 26.0945 67.1111 25.8476 67.4881C25.2826 68.3506 25.1918 68.4663 25.0839 68.6385C24.9993 68.7735 24.9188 68.8893 24.8535 68.9822C24.7845 69.0803 24.7381 69.1466 24.6992 69.2107C24.6176 69.3451 24.5285 69.4841 24.4501 69.6062C24.3689 69.733 24.3024 69.8369 24.2539 69.9168C24.1478 70.0914 23.9801 70.3554 23.7783 70.6531C23.5646 70.9683 23.385 71.2152 23.1816 71.4558C23.1092 71.5415 23.0579 71.6086 22.9706 71.7166C22.8955 71.8096 22.7982 71.9257 22.6835 72.032C22.4931 72.2085 22.2351 72.3764 22.1347 72.45C21.9705 72.5704 21.8203 72.6668 21.6757 72.7527C21.6032 72.8153 21.5066 72.8937 21.3896 72.9568L21.3613 72.9724L21.3564 72.9744C21.0607 73.2223 20.6203 73.2065 20.3437 72.9275C20.0521 72.6334 20.0535 72.1586 20.3476 71.867L20.4677 71.7615C20.5093 71.7292 20.5526 71.6998 20.5986 71.6736C20.6231 71.6597 20.6526 71.6473 20.6777 71.6355C20.6884 71.6271 20.7038 71.6132 20.7285 71.5906L20.79 71.5349L20.8613 71.4939C20.978 71.4269 21.1013 71.3485 21.248 71.241C21.4735 71.0757 21.5564 71.0311 21.664 70.9314C21.696 70.9017 21.7378 70.8556 21.8037 70.7742C21.8577 70.7073 21.9518 70.5868 22.0361 70.4871C22.1919 70.3027 22.338 70.1035 22.5361 69.8113C22.7247 69.533 22.8792 69.2897 22.9716 69.1375C23.0322 69.0378 23.1116 68.914 23.1874 68.7957C23.2663 68.6727 23.3463 68.5488 23.4169 68.4324C23.4867 68.3174 23.5631 68.2092 23.6259 68.1199C23.6924 68.0254 23.7525 67.9398 23.8134 67.8426C23.9231 67.6675 24.0774 67.454 24.5937 66.6658C24.7572 66.4161 24.7931 66.3052 24.9804 65.8865C25.053 65.7243 25.1088 65.5793 25.1562 65.4568C25.1783 65.3997 25.2033 65.3356 25.2255 65.283C25.2368 65.2563 25.2519 65.2221 25.2695 65.1873C25.2826 65.1612 25.3176 65.0932 25.374 65.0232L25.4247 64.9656Z" fill="black"/>
<path d="M6.51082 71.9104C6.92487 71.9106 7.26082 72.2463 7.26082 72.6604C7.26082 72.7158 7.2527 72.7695 7.24128 72.8215C7.24991 72.8373 7.26036 72.8549 7.26961 72.8723C7.42621 73.1664 7.78226 73.689 7.92488 73.885C8.04043 74.0437 8.14502 74.1911 8.25203 74.3352C8.25203 74.3352 8.25815 74.3421 8.27156 74.3576C8.28487 74.373 8.30256 74.3931 8.32527 74.4172C8.3709 74.4658 8.42979 74.5259 8.50007 74.594C8.64053 74.7299 8.81555 74.8891 8.99617 75.0442C9.37632 75.3703 10.0436 75.7463 10.2677 75.8782L10.5157 76.0158C10.6115 76.0665 10.7332 76.1269 10.9083 76.2112L10.9102 76.2121C10.9152 76.2129 10.9235 76.2144 10.9366 76.216C11.3476 76.2678 11.6387 76.643 11.587 77.0539C11.5352 77.4649 11.1601 77.7561 10.7491 77.7043C10.6131 77.6872 10.4912 77.6632 10.3214 77.593L10.3018 77.5852L10.2833 77.5764C9.86824 77.3773 9.70099 77.2822 9.52742 77.1838L9.5157 77.177V77.176C9.37867 77.0949 8.53381 76.6241 8.01863 76.1819C7.64292 75.8594 7.21897 75.46 7.04793 75.2297C6.93682 75.0801 6.81243 74.9045 6.71296 74.7678C6.56095 74.5589 6.15308 73.9665 5.94539 73.5764C5.9244 73.5371 5.83092 73.3744 5.77351 73.2239C5.71585 73.0726 5.61844 72.752 5.76277 72.4016L5.79793 72.3274C5.88815 72.1594 6.03809 72.025 6.22859 71.9573C6.31599 71.9262 6.39129 71.9168 6.43464 71.9133C6.45692 71.9115 6.47542 71.9106 6.48738 71.9104C6.49867 71.9102 6.5094 71.9104 6.51082 71.9104ZM6.51082 73.4104C6.48994 73.4104 6.51235 73.4118 6.55769 73.4074C6.54216 73.4084 6.52659 73.4104 6.51082 73.4104Z" fill="black"/>
<path d="M31.746 53.0886C31.9313 52.7182 32.3814 52.5675 32.7519 52.7527C33.1223 52.9379 33.2719 53.3881 33.0869 53.7586C32.9939 53.9445 32.8442 54.2779 32.7675 54.5076C32.7033 54.7002 32.5676 54.9906 32.4003 55.3484C32.2224 55.7292 31.9805 56.2442 31.6689 56.9382C31.136 58.1252 31.1473 58.298 30.8222 59.1043C30.6816 59.453 30.5261 59.8582 30.4101 60.2586C30.302 60.6317 30.0905 61.1966 29.957 61.5964C29.8202 62.0061 29.6918 62.3594 29.4453 63.1961C29.3096 63.6563 29.2862 63.8782 29.1787 64.3396C29.1399 64.5058 29.0911 64.68 29.0449 64.8474C28.9972 65.0201 28.9483 65.199 28.9013 65.3982C28.7896 65.872 28.7139 66.2421 28.6142 66.5798C28.5796 66.6971 28.5544 66.8261 28.5234 66.992C28.4967 67.1345 28.4613 67.3189 28.4111 67.4968L28.4121 67.4978C28.3952 67.5652 28.3791 67.6316 28.3623 67.699C28.3537 67.7333 28.3489 67.7546 28.3437 67.7791C28.3388 67.8023 28.3325 67.8325 28.3261 67.8767C28.2671 68.2867 27.8865 68.5715 27.4765 68.5125C27.0668 68.4532 26.7827 68.0727 26.8417 67.6629C26.8641 67.5075 26.8879 67.4129 26.9072 67.3357C26.924 67.2683 26.9401 67.2009 26.957 67.1336L26.9609 67.1189L26.9658 67.1033C26.9948 67.0046 27.0167 66.8883 27.0488 66.7166C27.0781 66.5596 27.1162 66.3569 27.1757 66.155C27.2597 65.8705 27.3152 65.5895 27.4414 65.0545C27.4953 64.8255 27.5513 64.6227 27.5996 64.448C27.6492 64.2685 27.6875 64.1284 27.7177 63.9988C27.7939 63.6719 27.8579 63.2775 28.0068 62.7722C28.263 61.9029 28.4019 61.5168 28.5341 61.1209C28.7036 60.6133 28.8696 60.1872 28.9697 59.8416C29.1074 59.3662 29.2863 58.9041 29.4316 58.5437C29.6602 57.9768 29.7802 57.4812 30.2998 56.324C30.6167 55.6179 30.8638 55.0929 31.041 54.7136C31.2288 54.3118 31.315 54.1217 31.3447 54.033C31.4533 53.7075 31.6386 53.3034 31.746 53.0886Z" fill="black"/>
<path d="M174.292 107.699C174.292 107.285 174.628 106.949 175.042 106.949C175.456 106.95 175.792 107.285 175.792 107.699C175.792 109.914 175.662 114.667 175.561 116.007C175.442 117.574 175.333 119.003 175.236 122.365C175.145 125.462 175.202 131.414 175.235 134.657C175.278 138.942 175.524 140.273 175.627 142.546C175.674 143.569 175.746 144.499 175.821 145.528C175.895 146.554 175.971 147.667 176.021 149.037C176.083 150.727 176.38 155.757 176.544 159.155C176.585 159.999 176.609 160.778 176.636 161.676L176.74 164.911L176.741 164.919V164.928C176.775 167.275 176.775 171.628 176.742 174.003C176.71 176.399 176.642 176.682 176.575 177.536C176.543 177.949 176.183 178.258 175.77 178.226C175.357 178.194 175.048 177.833 175.08 177.42C175.147 176.56 175.21 176.324 175.242 173.983C175.275 171.626 175.275 167.303 175.241 164.966C175.142 162.278 175.127 160.914 175.045 159.227C174.883 155.87 174.584 150.787 174.522 149.092C174.473 147.749 174.398 146.656 174.324 145.636C174.251 144.618 174.176 143.662 174.128 142.614C174.033 140.501 173.778 138.961 173.735 134.672C173.702 131.443 173.644 125.456 173.736 122.322C173.834 118.93 173.945 117.477 174.065 115.894C174.162 114.609 174.292 109.899 174.292 107.699Z" fill="black"/>
<path d="M180.69 107.47C180.69 107.056 181.025 106.72 181.44 106.72C181.854 106.72 182.19 107.056 182.19 107.47C182.19 109.115 182.147 112.401 182.083 114.49C182.027 116.341 182.062 119.849 182.083 121.756C182.094 122.781 182.12 123.565 182.147 124.28C182.173 124.995 182.199 125.649 182.21 126.401C182.235 128.161 182.357 130.073 182.422 132.676C182.478 134.928 182.444 139.166 182.465 141.382C182.475 142.499 182.491 143.098 182.507 143.604C182.523 144.114 182.538 144.541 182.549 145.306C182.56 146.067 182.565 147.163 182.57 148.264C182.576 149.367 182.581 150.476 182.592 151.271C182.604 152.187 182.63 152.98 182.656 153.769C182.682 154.556 182.708 155.341 182.719 156.229C182.723 156.551 182.738 156.739 182.756 157.225C182.774 157.695 182.793 158.407 182.804 159.715C182.825 162.325 182.826 167.324 182.805 169.985C182.779 173.291 182.616 174.37 182.462 175.275C182.454 175.39 182.449 175.52 182.443 175.667C182.438 175.813 182.432 175.98 182.42 176.129C182.407 176.285 182.388 176.414 182.37 176.538C182.352 176.662 182.333 176.799 182.313 176.996C182.271 177.408 181.903 177.708 181.491 177.666C181.079 177.624 180.779 177.257 180.82 176.845C180.844 176.615 180.867 176.453 180.886 176.322C180.905 176.191 180.917 176.108 180.925 176.007C180.934 175.899 180.939 175.769 180.944 175.614C180.95 175.468 180.956 175.298 180.968 175.141L180.971 175.106L180.976 175.072C181.116 174.251 181.279 173.276 181.305 169.973C181.326 167.319 181.325 162.329 181.304 159.728C181.293 158.43 181.274 157.734 181.257 157.281C181.24 156.844 181.223 156.593 181.219 156.247C181.208 155.377 181.183 154.607 181.157 153.818C181.131 153.03 181.104 152.224 181.092 151.291C181.081 150.489 181.076 149.372 181.07 148.271C181.065 147.168 181.061 146.08 181.05 145.327C181.039 144.578 181.023 144.165 181.007 143.65C180.991 143.133 180.975 142.524 180.965 141.396C180.944 139.119 180.978 134.959 180.922 132.713C180.86 130.228 180.734 128.149 180.71 126.423C180.7 125.692 180.674 125.057 180.648 124.336C180.621 123.615 180.595 122.816 180.583 121.772C180.562 119.879 180.526 116.334 180.584 114.444C180.647 112.372 180.69 109.101 180.69 107.47Z" fill="black"/>
<path d="M130.054 105.68C131.335 105.673 132.152 105.847 132.895 105.963C133.547 106.064 134.201 106.141 136.035 106.192C136.512 106.205 136.537 106.243 138.078 106.26C138.835 106.269 139.938 106.274 141.051 106.278C142.161 106.282 143.281 106.286 144.066 106.295C146.406 106.32 147.792 106.45 148.443 106.502C148.784 106.529 150.65 106.585 153.292 106.568C153.755 106.565 154.024 106.553 154.312 106.539C154.606 106.525 154.92 106.509 155.457 106.5C155.987 106.491 156.735 106.486 157.484 106.482C158.237 106.478 158.991 106.474 159.541 106.466C160.207 106.455 160.834 106.434 161.5 106.413C162.164 106.392 162.864 106.372 163.664 106.363C164.128 106.358 164.777 106.338 165.597 106.315C166.411 106.293 167.382 106.269 168.472 106.26C168.845 106.258 169.06 106.246 169.358 106.232C169.661 106.218 170.034 106.202 170.703 106.193C172.029 106.176 174.534 106.175 175.895 106.192C177.836 106.216 178.972 106.386 179.864 106.468C180.888 106.563 181.87 106.658 183.078 106.868C183.434 106.93 183.821 106.962 184.328 107.001C184.828 107.039 185.424 107.082 186.158 107.169C186.628 107.224 186.884 107.232 187.486 107.287C188.578 107.387 189.443 107.334 192.875 107.385C196.042 107.433 202.179 107.403 205.501 107.386C208.814 107.37 209.099 107.336 210.165 107.318C210.695 107.309 211.41 107.305 212.115 107.301C212.824 107.296 213.523 107.292 214.029 107.284C215.068 107.267 215.185 107.235 216.431 107.199C217.58 107.166 219.83 107.13 221.026 107.097C223.375 107.033 224.954 106.928 226.444 106.875C227.398 106.841 228.438 106.726 228.923 106.62L228.956 106.612L228.989 106.608C229.074 106.597 229.179 106.59 229.222 106.586C229.279 106.58 229.316 106.575 229.349 106.568C229.388 106.56 229.435 106.545 229.541 106.512C229.639 106.482 229.767 106.443 229.926 106.403C230.327 106.302 230.735 106.545 230.836 106.947C230.937 107.349 230.693 107.756 230.292 107.857C230.175 107.887 230.079 107.916 229.985 107.945C229.9 107.972 229.785 108.009 229.67 108.034C229.549 108.061 229.441 108.072 229.358 108.08C229.268 108.088 229.234 108.089 229.188 108.094C228.568 108.223 227.467 108.34 226.498 108.375C225.088 108.425 223.396 108.532 221.067 108.596C219.767 108.632 217.695 108.664 216.475 108.699C215.351 108.731 215.061 108.767 214.054 108.784C213.537 108.792 212.83 108.796 212.125 108.801C211.417 108.805 210.71 108.809 210.189 108.818C209.153 108.835 208.83 108.87 205.508 108.886C202.194 108.903 196.039 108.934 192.853 108.885C189.526 108.835 188.515 108.887 187.35 108.78C186.833 108.733 186.467 108.716 185.981 108.659C185.284 108.576 184.717 108.534 184.214 108.496C183.718 108.458 183.26 108.422 182.821 108.345C181.676 108.146 180.745 108.055 179.728 107.962C178.774 107.874 177.739 107.715 175.876 107.692C174.527 107.675 172.035 107.676 170.723 107.693C170.073 107.702 169.718 107.716 169.429 107.73C169.134 107.744 168.891 107.757 168.483 107.76C167.408 107.769 166.448 107.792 165.638 107.814C164.833 107.836 164.161 107.858 163.681 107.863C162.897 107.871 162.209 107.892 161.547 107.913C160.886 107.934 160.245 107.955 159.564 107.966C159.005 107.974 158.242 107.978 157.492 107.982C156.74 107.986 156.001 107.991 155.481 108C154.969 108.008 154.674 108.023 154.383 108.037C154.085 108.051 153.793 108.065 153.302 108.068C150.66 108.085 148.736 108.03 148.324 107.997C147.676 107.945 146.334 107.819 144.05 107.795C143.271 107.786 142.157 107.782 141.045 107.778C139.935 107.774 138.825 107.769 138.061 107.76C136.559 107.743 136.314 107.701 135.994 107.692C134.119 107.64 133.398 107.559 132.663 107.444C131.87 107.32 131.195 107.174 130.062 107.18C128.537 107.189 127.556 107.211 126.912 107.23C126.291 107.248 125.938 107.266 125.738 107.266C125.324 107.266 124.988 106.93 124.988 106.516C124.988 106.102 125.324 105.766 125.738 105.766C125.911 105.766 126.188 105.75 126.868 105.73C127.525 105.711 128.518 105.689 130.054 105.68Z" fill="black"/>
<path d="M123.748 107.544C123.748 107.018 123.747 106.464 123.777 106.062L123.779 106.038L123.782 106.014C123.824 105.706 123.873 105.44 123.92 105.196C123.966 104.957 124.008 104.748 124.043 104.523C124.123 103.316 124.271 101.98 124.357 100.842C124.4 100.267 124.503 99.7282 124.598 99.2153C124.694 98.6937 124.786 98.1817 124.831 97.6001C124.874 97.0518 124.961 96.5029 125.046 95.9321C125.133 95.3535 125.222 94.7228 125.28 93.9624C125.383 92.6024 125.391 90.1073 125.356 87.3423C125.316 84.2116 125.286 82.4482 125.236 81.3608C125.186 80.2817 125.117 79.9234 125.016 79.5816C124.89 79.1559 124.697 78.771 124.45 78.2153C124.211 77.6802 123.957 77.0514 123.788 76.2544C123.424 74.5255 123.519 72.3316 123.619 71.1597C123.681 70.437 123.722 69.6389 123.804 68.9517C123.888 68.2537 124.025 67.5441 124.329 66.937C124.429 66.7387 124.58 66.6081 124.691 66.5288C124.808 66.4449 124.937 66.3791 125.058 66.3267C125.3 66.2217 125.59 66.1362 125.889 66.065C126.491 65.9212 127.232 65.8115 127.929 65.7388C128.464 65.6829 128.968 65.5789 134.907 65.5239C140.632 65.4709 151.54 65.4187 163.203 65.4194C174.864 65.4202 186.936 65.4728 197.85 66.0376C208.765 66.6025 218.23 67.6797 223.107 68.1694C225.669 68.4267 227.246 68.5526 228.216 68.6548C229.205 68.759 229.75 68.853 230.299 69.0952C230.546 69.2042 230.851 69.4112 231.163 69.6372C231.493 69.876 231.899 70.1864 232.364 70.5425C233.298 71.2589 234.508 72.1873 235.968 73.2066C237.609 74.3518 239.246 75.4768 240.762 77.0396C241.187 77.4782 241.536 77.8171 241.998 78.2749C242.46 78.7317 243.023 79.296 243.867 80.1714C245.351 81.7115 247.801 84.4362 249.387 85.9009C249.895 86.3699 250.347 86.7638 250.74 87.1021C251.126 87.4355 251.472 87.7292 251.744 87.98C252.01 88.2242 252.262 88.4763 252.432 88.7368C252.611 89.0109 252.762 89.3925 252.639 89.8306C252.463 90.4583 251.996 91.1838 251.293 92.0923C249.937 93.8455 249.127 94.7524 247.869 95.6655C245.258 97.5621 243.158 99.0028 242.028 99.6353C241.369 100.004 240.588 100.516 239.832 101.026C239.092 101.525 238.36 102.032 237.845 102.357C236.58 103.155 235.467 103.786 234.704 104.468C234.099 105.01 233.436 105.667 232.894 106.245C232.623 106.533 232.386 106.798 232.204 107.015C232.01 107.247 231.912 107.385 231.885 107.434C231.684 107.796 231.228 107.926 230.866 107.725C230.504 107.524 230.373 107.068 230.574 106.706C230.678 106.518 230.862 106.283 231.055 106.052C231.26 105.807 231.516 105.521 231.8 105.218C232.367 104.614 233.062 103.926 233.704 103.351C234.591 102.558 235.885 101.819 237.044 101.088C237.533 100.78 238.221 100.302 238.993 99.7817C239.75 99.2716 240.576 98.7288 241.295 98.3267C242.336 97.7444 244.366 96.3562 246.989 94.4517C248.07 93.6661 248.776 92.8948 250.107 91.1743C250.737 90.3596 251.037 89.8562 251.158 89.5317C251.091 89.4387 250.962 89.2982 250.729 89.0835C250.48 88.8542 250.163 88.5851 249.76 88.2378C249.363 87.8953 248.896 87.4894 248.369 87.0034C246.743 85.5019 244.197 82.6765 242.786 81.2124C241.953 80.3471 241.397 79.7916 240.943 79.3413C240.489 78.892 240.124 78.5365 239.685 78.0835C238.287 76.6417 236.772 75.5972 235.11 74.437C233.619 73.3964 232.385 72.4491 231.45 71.7329C230.98 71.3727 230.594 71.077 230.284 70.853C229.958 70.6166 229.775 70.504 229.694 70.4683C229.376 70.3283 229.036 70.25 228.059 70.147C227.062 70.042 225.591 69.9261 222.957 69.6616C218.061 69.17 208.642 68.0972 197.773 67.5347C186.902 66.9721 174.867 66.9202 163.203 66.9194C151.543 66.9187 140.64 66.971 134.92 67.0239C128.996 67.0788 128.548 67.1825 128.084 67.231C127.422 67.3002 126.751 67.4011 126.237 67.5239C125.977 67.5859 125.782 67.6476 125.656 67.7026C125.643 67.7083 125.631 67.7143 125.62 67.7192C125.465 68.0767 125.365 68.5422 125.294 69.1304C125.215 69.7914 125.184 70.4799 125.115 71.2876C125.016 72.4338 124.939 74.4433 125.256 75.9448C125.393 76.5926 125.601 77.1107 125.821 77.605C126.031 78.0786 126.292 78.606 126.454 79.1558C126.606 79.668 126.683 80.1659 126.735 81.2915C126.786 82.4097 126.816 84.2022 126.856 87.3228C126.891 90.0769 126.884 92.6385 126.775 94.0757C126.713 94.8912 126.618 95.5648 126.53 96.1538C126.44 96.7506 126.364 97.2336 126.326 97.7153C126.275 98.3839 126.169 98.9653 126.073 99.4878C125.974 100.019 125.889 100.476 125.853 100.956C125.756 102.236 125.618 103.405 125.536 104.663L125.534 104.696L125.53 104.73C125.488 104.997 125.439 105.244 125.394 105.478C125.35 105.708 125.307 105.936 125.271 106.194C125.248 106.528 125.248 107.008 125.248 107.544C125.248 107.958 124.912 108.294 124.498 108.294C124.084 108.294 123.749 107.959 123.748 107.544Z" fill="black"/>
<path d="M155.956 72.0479C156.368 72.0089 156.734 72.3123 156.773 72.7246C156.812 73.1369 156.51 73.503 156.098 73.542C155.803 73.5699 155.036 73.8918 153.962 75.0547C153.11 75.9779 153.047 76.814 153.045 78.2783C153.045 78.5312 153.157 78.7835 153.451 79.0781C153.756 79.3836 154.196 79.671 154.726 79.9776C155.115 80.2027 155.775 80.436 156.805 80.4932C156.814 80.4842 156.828 80.4735 156.844 80.457C156.881 80.4176 156.913 80.3801 156.971 80.3145C157.343 79.8894 157.323 79.4117 157.422 78.5801C157.435 78.4703 157.441 78.3868 157.445 78.3213C156.653 78.1297 156.324 78.131 155.971 78.0567L155.963 78.0547C155.893 78.0391 155.853 78.0298 155.796 78.0195C155.741 78.0097 155.663 77.9988 155.54 77.9863C155.128 77.9446 154.827 77.5762 154.869 77.1641C154.911 76.7521 155.279 76.4525 155.691 76.4942C156.004 76.5258 156.146 76.5595 156.278 76.5889H156.279C156.375 76.609 156.981 76.665 157.872 76.8819L158.271 76.9854L158.581 77.0703L158.733 77.3535C159.039 77.9232 158.943 78.4931 158.911 78.7578C158.847 79.2983 158.861 80.432 158.099 81.3028C157.975 81.4442 157.55 82.0328 156.782 81.9951C155.534 81.9337 154.615 81.6468 153.974 81.2754C153.433 80.9626 152.844 80.5937 152.39 80.1387C151.924 79.673 151.544 79.0606 151.545 78.2764C151.547 76.7775 151.589 75.4135 152.859 74.0371C154.012 72.7884 155.102 72.1288 155.956 72.0479Z" fill="black"/>
<path d="M168.368 72.7898C168.67 72.8203 168.916 73.0317 169.004 73.3132C169.057 73.3416 169.111 73.3695 169.164 73.3982C169.467 73.5632 169.804 73.7594 170.124 73.9597L170.436 74.1599L170.504 74.2058L170.56 74.2644C170.818 74.5304 171.19 74.9826 171.49 75.5427C171.787 76.0972 172.047 76.8203 171.989 77.6023C171.935 78.3261 171.777 79.0782 171.545 79.7087C171.429 80.0241 171.287 80.3265 171.12 80.5857C170.959 80.8359 170.74 81.097 170.448 81.2654C169.917 81.5721 169.127 82.0226 168.052 82.156C167.585 82.214 166.843 82.2722 166.092 82.2C165.373 82.1307 164.481 81.9276 163.877 81.322C163.858 81.3035 163.835 81.2825 163.778 81.2341C163.731 81.1937 163.655 81.1293 163.581 81.0525C163.418 80.8831 163.238 80.6272 163.196 80.2566C163.119 79.5766 163.061 78.7601 163.125 77.9714C163.187 77.1967 163.375 76.3547 163.87 75.699C164.451 74.9289 165.313 73.8461 166.515 73.3474C166.589 73.3171 166.661 73.2909 166.729 73.2634C166.856 73.0291 167.101 72.8679 167.387 72.8679C167.502 72.8679 167.651 72.8692 167.806 72.8796C167.862 72.8636 167.912 72.8462 167.959 72.8347C168.032 72.8167 168.164 72.7859 168.292 72.7859L168.368 72.7898ZM167.881 74.4294C167.675 74.5017 167.412 74.6 167.091 74.7332C166.31 75.0568 165.665 75.811 165.067 76.6023C164.824 76.9249 164.673 77.432 164.62 78.0925C164.569 78.7197 164.613 79.402 164.681 80.03C164.697 80.0442 164.717 80.0641 164.752 80.0935C164.794 80.1291 164.868 80.1921 164.938 80.2625C165.161 80.4853 165.606 80.6462 166.236 80.7068C166.834 80.7643 167.455 80.7178 167.867 80.6667C168.619 80.5734 169.185 80.2631 169.698 79.9666C169.7 79.965 169.716 79.9542 169.743 79.9255C169.775 79.8922 169.814 79.8423 169.859 79.7722C169.951 79.6305 170.047 79.4345 170.137 79.1902C170.317 78.7009 170.45 78.0872 170.494 77.491C170.523 77.1008 170.392 76.6699 170.168 76.2507C169.966 75.874 169.714 75.5576 169.533 75.3621C169.188 75.1373 168.794 74.9043 168.447 74.7156C168.262 74.6145 168.094 74.5291 167.961 74.4656C167.932 74.4519 167.905 74.4404 167.881 74.4294Z" fill="black"/>
<path d="M181.145 72.8149L181.593 72.8452L181.733 72.8589L181.858 72.9223C182.903 73.4482 183.792 74.1998 184.07 75.0659C184.271 75.6947 184.683 76.6063 184.481 77.9721C184.385 78.6191 184.269 79.324 184.041 79.9448C183.809 80.5746 183.436 81.1953 182.777 81.5903C181.838 82.1528 180.837 82.821 179.219 82.5776C178.588 82.4826 177.96 82.3395 177.433 82.1557C177.17 82.0639 176.918 81.9563 176.698 81.8315C176.487 81.7117 176.257 81.549 176.088 81.3266C175.619 80.7055 175.139 79.1776 175.882 77.2612C176.143 76.5905 176.389 75.9836 176.627 75.5083C176.746 75.2699 176.872 75.0462 177.007 74.8559C177.137 74.6735 177.308 74.4748 177.531 74.3364C178.135 73.9618 178.686 73.7212 179.18 73.5727C179.215 73.454 179.277 73.3415 179.372 73.2485L179.474 73.1577C179.714 72.9656 179.953 72.9136 180.081 72.8852L180.088 72.8842C180.356 72.8279 180.718 72.7996 181.145 72.8149ZM181.271 74.3257C181.179 74.6352 180.896 74.8618 180.556 74.8618C180.073 74.8618 179.336 74.982 178.321 75.6108C178.342 75.598 178.308 75.6141 178.229 75.7251C178.156 75.8283 178.069 75.9772 177.968 76.1792C177.766 76.5846 177.542 77.1315 177.281 77.8032C176.712 79.2699 177.151 80.245 177.285 80.4223C177.278 80.4131 177.31 80.4546 177.437 80.5268C177.556 80.594 177.72 80.6662 177.927 80.7387C178.343 80.8839 178.876 81.009 179.443 81.0942C180.463 81.2476 181.024 80.8913 182.005 80.3032C182.263 80.1487 182.468 79.8773 182.632 79.4282C182.801 78.9701 182.9 78.4079 182.997 77.7534C183.137 76.8062 182.879 76.2662 182.641 75.5229C182.554 75.2531 182.152 74.7786 181.306 74.3286C181.294 74.3277 181.283 74.3264 181.271 74.3257Z" fill="black"/>
<path d="M193.852 71.5937L193.906 71.6025C195.333 71.8317 196.795 72.0802 197.797 73.5762C198.552 74.7034 199.291 75.8273 199.236 77.1933C199.201 78.0874 199.139 78.9133 199.052 79.5761C199.008 79.9068 198.958 80.2087 198.896 80.4638C198.84 80.7005 198.76 80.9653 198.631 81.1748C198.512 81.3675 198.198 82.4924 197.104 83.2607C196.886 83.414 196.552 83.6751 196.101 83.8379C195.627 84.0085 195.071 84.063 194.347 83.9638C193.35 83.8275 192.705 83.7487 191.589 83.4844C191.535 83.4717 191.378 83.4372 191.221 83.3437C191.039 83.2354 190.906 83.0813 190.814 82.9023C190.664 82.6097 190.61 82.2125 190.577 81.747C190.509 80.7907 190.524 78.8977 190.493 77.9668C190.453 76.7753 190.393 76.4451 190.361 76.1914C190.29 75.6103 190.178 74.2046 190.178 73.6181C190.178 73.3555 190.313 73.1252 190.518 72.9912C190.48 72.7481 190.561 72.4918 190.759 72.3164C191.025 72.0804 191.151 71.9875 191.312 71.8955L191.361 71.8672L191.415 71.8476C191.987 71.6276 192.554 71.5779 193.797 71.5928L193.852 71.5937ZM193.722 73.0928C192.619 73.0814 192.278 73.1328 192.015 73.2246C192.005 73.2312 191.993 73.2377 191.979 73.248C191.939 73.2786 191.874 73.3328 191.755 73.4385C191.727 73.4629 191.698 73.4842 191.668 73.5039C191.674 73.5412 191.678 73.5792 191.678 73.6181C191.678 74.1199 191.783 75.4587 191.851 76.0078C191.884 76.2759 191.95 76.658 191.992 77.917C192.029 79.0017 192.006 80.6955 192.073 81.6406C192.087 81.8291 192.102 81.9657 192.118 82.0644C193.044 82.2762 193.61 82.3489 194.551 82.4775C195.094 82.5517 195.396 82.4972 195.592 82.4267C195.809 82.3484 195.953 82.2362 196.242 82.0332C197.011 81.4929 196.896 81.1301 197.354 80.3877C197.352 80.3904 197.388 80.3193 197.438 80.1142C197.482 79.9278 197.526 79.6813 197.565 79.3799C197.645 78.7779 197.703 78.0011 197.737 77.1328C197.769 76.334 197.356 75.6145 196.55 74.4101C195.958 73.5261 195.161 73.3257 193.722 73.0928Z" fill="black"/>
<path d="M149.212 88.4336C149.592 88.425 149.924 88.7055 149.972 89.0908C150.021 89.48 149.761 89.8348 149.384 89.915C149.401 89.9106 149.399 89.9109 149.368 89.9229C149.333 89.9362 149.279 89.9594 149.204 89.9961C149.054 90.0694 148.845 90.184 148.592 90.3418C148.087 90.6571 147.422 91.1361 146.707 91.79C146.021 92.4174 145.897 93.0116 145.681 93.7422C145.533 94.2457 145.568 94.6388 145.516 95.2539C145.477 95.717 145.486 96.4257 145.549 97.1377C145.613 97.8637 145.727 98.5071 145.867 98.874C145.883 98.9157 145.921 98.983 146.152 99.1416C146.17 99.1539 146.246 99.1926 146.421 99.2197C146.588 99.2458 146.8 99.2538 147.048 99.2451C147.511 99.2288 148.025 99.1539 148.482 99.0781C149.047 98.8209 149.661 98.5364 150.043 98.3311C150.108 98.2791 150.274 98.1531 150.454 98.0625C150.823 97.8759 151.275 98.0239 151.462 98.3936C151.648 98.7633 151.499 99.2147 151.13 99.4014C151.093 99.4199 151.067 99.4366 151.04 99.457C151.023 99.4698 151.007 99.4827 150.98 99.5039C150.956 99.5227 150.921 99.5493 150.882 99.5772L150.846 99.6025L150.807 99.624C150.352 99.8735 149.611 100.214 149.014 100.485L148.925 100.526L148.83 100.542C148.342 100.625 147.703 100.723 147.1 100.744C146.799 100.755 146.484 100.747 146.19 100.701C145.904 100.657 145.581 100.568 145.303 100.378C145.016 100.181 144.651 99.8958 144.465 99.4072C144.248 98.8388 144.121 98.0253 144.054 97.2695C143.986 96.4997 143.974 95.7006 144.022 95.1279C144.054 94.7521 144.037 94.0155 144.243 93.3174C144.44 92.6486 144.653 91.6349 145.694 90.6826C146.48 89.9637 147.22 89.4305 147.799 89.0693C148.087 88.8891 148.341 88.749 148.545 88.6494C148.646 88.6 148.74 88.5573 148.825 88.5244C148.891 88.4986 149.01 88.4551 149.135 88.4395L149.212 88.4336Z" fill="black"/>
<path d="M153.417 100.131C153.417 100.095 153.417 99.9521 153.436 99.7846C153.444 99.7064 153.458 99.6202 153.467 99.563C153.476 99.498 153.483 99.4407 153.488 99.3813C153.563 98.4662 153.792 96.9033 153.815 95.0522C153.828 94.0116 153.791 91.9641 153.857 90.8013C153.939 89.3762 154.05 88.8127 154.237 88.437C154.423 88.0665 154.873 87.9159 155.243 88.1011C155.613 88.2862 155.764 88.7365 155.579 89.1069C155.55 89.1658 155.439 89.4243 155.355 90.8872C155.291 92.012 155.329 93.9336 155.314 95.0718C155.291 96.9872 155.048 98.7105 154.983 99.5034C154.975 99.6099 154.961 99.7044 154.95 99.7798C154.938 99.8627 154.932 99.9067 154.927 99.9526C154.918 100.034 154.917 100.108 154.917 100.131C154.917 100.545 154.581 100.881 154.167 100.881C153.753 100.881 153.417 100.545 153.417 100.131Z" fill="black"/>
<path d="M157.862 91.5676V89.5129C157.862 89.0988 158.198 88.763 158.612 88.7629C159.026 88.7629 159.362 89.0987 159.362 89.5129V91.5676C159.362 93.0777 159.362 95.8255 159.348 97.3381C159.335 98.8631 159.307 99.0669 159.293 99.3088C159.288 99.38 159.289 99.4399 159.29 99.4856C159.374 99.6667 159.388 99.8801 159.308 100.08C159.154 100.465 158.718 100.652 158.334 100.498C157.989 100.36 157.88 100.051 157.854 99.9758C157.815 99.8588 157.801 99.7457 157.795 99.6711C157.781 99.5142 157.788 99.3441 157.796 99.219C157.809 98.9934 157.835 98.8163 157.848 97.3245C157.862 95.8202 157.862 93.0808 157.862 91.5676ZM159.093 99.2317C159.085 99.2241 159.076 99.2168 159.066 99.2092C159.076 99.2165 159.084 99.2241 159.093 99.2317Z" fill="black"/>
<path d="M159.105 93.7839C159.52 93.784 159.855 94.1198 159.855 94.5339C159.855 94.9481 159.52 95.2839 159.105 95.2839C158.658 95.2839 158.257 95.2839 157.745 95.3357C157.23 95.3879 156.62 95.4887 156.227 95.5769C155.939 95.6604 155.743 95.7218 155.608 95.7634C155.542 95.7838 155.48 95.8032 155.43 95.8171C155.404 95.8242 155.371 95.8333 155.336 95.8406C155.309 95.8461 155.24 95.8601 155.154 95.8601C154.74 95.8601 154.404 95.5243 154.404 95.1101C154.404 94.7379 154.676 94.4306 155.031 94.3718C155.056 94.3649 155.097 94.3525 155.167 94.3308C155.305 94.2883 155.518 94.2215 155.832 94.1306L155.854 94.1248L155.875 94.1199C156.33 94.0165 157.013 93.9024 157.595 93.8435C158.189 93.7834 158.657 93.7839 159.105 93.7839Z" fill="black"/>
<path d="M167.32 88.7854C167.722 88.6853 168.129 88.9295 168.229 89.3313C168.23 89.335 168.23 89.3392 168.231 89.343C168.511 89.3651 168.688 89.3892 168.845 89.4328L169.002 89.4836L169.039 89.4992C169.182 89.562 169.339 89.6031 169.543 89.6399L169.636 89.6565L169.722 89.6965C170.118 89.8778 171.152 90.1529 172.15 91.1526C172.699 91.7021 173.712 92.7629 173.628 94.591C173.601 95.1711 173.577 95.8317 173.491 96.4397C173.406 97.0406 173.249 97.688 172.894 98.2111C172.068 99.431 170.885 100.491 169.92 100.926C169.478 101.125 168.898 101.361 168.299 101.489C167.714 101.614 166.997 101.661 166.354 101.357C165.841 101.114 165.27 100.814 164.791 100.49C164.551 100.329 164.319 100.151 164.124 99.9611C163.937 99.7792 163.738 99.5416 163.629 99.2531C163.352 98.521 163.151 97.2753 163.227 95.9797C163.272 95.2186 163.398 94.5528 163.673 93.8147C163.891 93.2277 164.425 91.691 165.608 90.1594C166.302 89.2609 166.872 88.8971 167.32 88.7854ZM167.467 90.3684C167.317 90.4817 167.092 90.6923 166.796 91.0764C165.767 92.4088 165.297 93.7482 165.078 94.3381C164.861 94.9204 164.762 95.4369 164.724 96.0676C164.658 97.1917 164.843 98.2222 165.032 98.7238C165.029 98.7164 165.052 98.7718 165.17 98.886C165.279 98.9923 165.434 99.1142 165.63 99.2463C166.021 99.5102 166.516 99.774 166.996 100.001C167.201 100.098 167.527 100.12 167.985 100.023C168.428 99.9281 168.893 99.7438 169.303 99.5588C169.948 99.2674 170.936 98.4287 171.652 97.3703C171.814 97.1317 171.931 96.7564 172.006 96.2287C172.079 95.7083 172.101 95.1332 172.13 94.5217C172.183 93.3656 171.582 92.7063 171.089 92.2121C170.379 91.5015 169.782 91.3553 169.192 91.0988C168.965 91.0546 168.723 90.9924 168.473 90.8869V90.8879C168.456 90.8812 168.445 90.8768 168.409 90.8703C168.36 90.8615 168.272 90.8504 168.101 90.8371C167.808 90.8142 167.57 90.624 167.467 90.3684Z" fill="black"/>
<path d="M181.321 100.131C181.321 99.2135 181.322 98.3037 181.336 97.7864C181.351 97.2335 181.376 97.1897 181.39 95.9563C181.403 94.7317 181.403 92.4549 181.403 91.2981V90.0891C181.403 89.675 181.739 89.3393 182.153 89.3391C182.568 89.3391 182.903 89.6749 182.903 90.0891V91.2981C182.903 92.451 182.903 94.738 182.89 95.9729C182.876 97.1989 182.848 97.373 182.835 97.8284C182.821 98.3194 182.821 99.202 182.821 100.131C182.821 100.545 182.486 100.881 182.071 100.881C181.657 100.881 181.321 100.545 181.321 100.131Z" fill="black"/>
<path d="M181.815 85.4792V85.1501C181.815 84.7359 182.151 84.4001 182.565 84.4001C182.98 84.4001 183.315 84.7359 183.315 85.1501V85.4792C183.315 85.8935 182.98 86.2292 182.565 86.2292C182.151 86.2292 181.815 85.8935 181.815 85.4792Z" fill="black"/>
<path d="M194.222 89.969C194.607 89.8154 195.043 90.0024 195.197 90.387C195.351 90.7716 195.164 91.2079 194.779 91.3616C194.588 91.4381 194.193 91.7114 193.639 92.2679C193.108 92.8023 192.486 93.5401 191.838 94.4544C191.494 94.9395 191.324 95.6893 191.11 96.844C190.972 97.5869 191.011 98.0274 191.079 98.2972C191.146 98.5639 191.25 98.7141 191.388 98.9339C191.564 99.2123 191.817 99.3037 192.712 99.6136C193.412 99.8562 194.531 99.8518 195.764 99.7552C196.47 99.6999 196.933 99.5575 197.256 99.4143C197.597 99.2628 197.779 99.1182 198.052 98.9475L198.082 98.929L198.113 98.9134C198.207 98.8661 198.299 98.8323 198.342 98.8157C198.377 98.8019 198.392 98.7952 198.396 98.7932C198.373 98.8062 198.617 98.6284 198.953 98.5149C199.345 98.3827 199.77 98.5935 199.903 98.9856C200.036 99.3781 199.825 99.8043 199.432 99.9368C199.272 99.991 199.352 99.9762 199.135 100.099C199.034 100.156 198.935 100.194 198.885 100.214C198.845 100.23 198.823 100.238 198.808 100.244C198.63 100.36 198.3 100.592 197.864 100.785C197.375 101.002 196.744 101.183 195.882 101.25C194.677 101.345 193.257 101.39 192.22 101.031C191.528 100.791 190.639 100.558 190.12 99.7347C189.998 99.5417 189.759 99.1978 189.625 98.6643C189.491 98.1337 189.469 97.4667 189.635 96.5706C189.833 95.5082 190.041 94.3941 190.614 93.5862C191.301 92.6176 191.975 91.814 192.576 91.2102C193.155 90.6285 193.73 90.1658 194.222 89.969Z" fill="black"/>
<path d="M204.122 90.4182C204.122 90.0041 204.458 89.6684 204.872 89.6682C205.286 89.6682 205.622 90.004 205.622 90.4182C205.622 91.4261 205.622 92.4404 205.567 94.1379C205.513 95.8208 205.404 98.1811 205.362 99.3127C205.35 99.6487 205.344 99.8655 205.342 100.001C205.379 100.126 205.387 100.261 205.353 100.396C205.351 100.406 205.343 100.435 205.335 100.463C205.331 100.478 205.323 100.503 205.311 100.533C205.306 100.548 205.276 100.631 205.212 100.719C205.183 100.758 205.095 100.873 204.934 100.952C204.722 101.057 204.448 101.064 204.212 100.92C204.033 100.812 203.953 100.662 203.929 100.613C203.896 100.548 203.88 100.493 203.873 100.464C203.848 100.37 203.845 100.281 203.844 100.259C203.837 100.117 203.842 99.8194 203.863 99.2571C203.906 98.0905 204.014 95.7786 204.068 94.0901C204.122 92.4163 204.122 91.4204 204.122 90.4182Z" fill="black"/>
<path d="M205.099 89.063C205.28 89.0609 205.61 89.0724 206.218 89.1059C207.448 89.1739 209.904 89.3378 212.437 89.5893C212.849 89.6303 213.149 89.9977 213.108 90.4097C213.067 90.8218 212.7 91.1235 212.288 91.0825C209.783 90.8336 207.349 90.671 206.135 90.604C205.567 90.5727 205.284 90.5631 205.146 90.563C205.085 90.5794 205.021 90.5923 204.954 90.5923C204.54 90.5923 204.204 90.2564 204.204 89.8423V89.8325C204.204 89.8268 204.205 89.8173 204.205 89.8061C204.206 89.7841 204.208 89.7485 204.216 89.7056C204.233 89.611 204.272 89.4953 204.354 89.3843C204.508 89.1782 204.712 89.1178 204.772 89.1011C204.9 89.0657 205.033 89.0637 205.099 89.063Z" fill="black"/>
<path d="M211.293 95.0188C211.707 95.0191 212.043 95.3547 212.043 95.7688C212.043 96.1829 211.707 96.5185 211.293 96.5188C210.922 96.5188 210.567 96.5175 209.622 96.6125C208.659 96.7094 207.148 96.8987 206.368 96.9944C205.633 97.0846 205.535 97.095 205.448 97.095C205.034 97.095 204.698 96.7592 204.698 96.345C204.698 95.9308 205.034 95.595 205.448 95.595C205.447 95.595 205.44 95.5947 205.432 95.595C205.426 95.5952 205.421 95.5959 205.42 95.5959C205.426 95.5954 205.448 95.5939 205.5 95.5881C205.602 95.5768 205.799 95.5526 206.186 95.5051C206.955 95.4107 208.487 95.2194 209.472 95.1204C210.474 95.0195 210.88 95.0188 211.293 95.0188Z" fill="black"/>
<path d="M212.609 99.4636C213.023 99.4636 213.359 99.7994 213.359 100.214C213.359 100.628 213.023 100.964 212.609 100.964C211.513 100.964 210.464 100.964 209.847 100.977C209.233 100.991 209.09 101.016 208.539 101.046H208.533C207.352 101.1 206.463 101.142 205.815 101.159C205.196 101.175 204.714 101.174 204.403 101.115C203.996 101.038 203.728 100.646 203.805 100.239C203.882 99.832 204.275 99.5644 204.682 99.6414C204.806 99.6647 205.118 99.6774 205.775 99.6599C206.403 99.6432 207.273 99.6036 208.457 99.5486V99.5476C208.935 99.522 209.174 99.4926 209.814 99.4783C210.452 99.464 211.522 99.4636 212.609 99.4636Z" fill="black"/>
<path d="M24.4697 71.6284C24.735 71.3104 25.2083 71.2676 25.5264 71.5327C25.8444 71.7981 25.8874 72.2713 25.6221 72.5894C25.533 72.6961 25.3118 73.0638 25.1523 73.5122C25.0468 73.809 24.9027 74.1088 24.7637 74.3872C24.6183 74.6784 24.4782 74.9458 24.3467 75.2319C24.0831 75.8057 23.8264 76.3253 23.5469 76.7974C23.417 77.0168 23.2406 77.4042 23.0361 77.8853C22.8441 78.3372 22.6222 78.8823 22.4346 79.314C22.2332 79.777 22.1065 80.2991 21.8809 81.064C21.6997 81.6782 21.5108 82.3184 21.2383 83.3921C21.1432 83.7668 21.0616 84.1615 20.9678 84.6099C20.8748 85.0539 20.7715 85.5432 20.6387 86.0845C20.3534 87.2467 20.1674 88.5855 20.1211 89.2437C20.0905 89.6788 19.988 90.0926 19.8848 90.4693C19.7768 90.8633 19.671 91.2104 19.5879 91.604C19.215 93.3706 19.053 94.1917 18.959 94.7603C18.8508 95.415 18.8074 96.5255 18.7568 97.6441C18.7374 98.074 18.6774 99.5619 18.6924 101.59C18.8003 102.654 18.9202 103.198 19.043 103.721C19.0594 103.787 19.0671 103.817 19.0801 103.852C19.0925 103.886 19.115 103.938 19.1631 104.023C19.3676 104.383 19.2419 104.841 18.8818 105.045C18.5216 105.25 18.0639 105.123 17.8594 104.763C17.6827 104.452 17.6295 104.252 17.5879 104.085L17.5859 104.075C17.4505 103.498 17.314 102.882 17.1963 101.707L17.1924 101.672V100.189C17.2039 98.8594 17.2426 97.914 17.2578 97.5767C17.3058 96.5146 17.3527 95.2824 17.4795 94.5151C17.5796 93.9094 17.7479 93.0579 18.1201 91.2944C18.2155 90.8427 18.344 90.4177 18.4385 90.0728C18.5378 89.7102 18.6054 89.4166 18.625 89.1382C18.6773 88.3955 18.8759 86.9725 19.1816 85.7271C19.3077 85.2136 19.4059 84.747 19.499 84.3023C19.5912 83.8618 19.6807 83.4344 19.7852 83.023C20.0646 81.9219 20.2593 81.2607 20.4424 80.6401C20.6391 79.9733 20.8092 79.2922 21.0596 78.7163C21.2488 78.281 21.4451 77.7951 21.6562 77.2983C21.855 76.8308 22.0672 76.3514 22.2559 76.0327C22.4972 75.6251 22.7301 75.1594 22.9844 74.606C23.1294 74.2904 23.291 73.9794 23.4219 73.7173C23.5591 73.4426 23.6659 73.2136 23.7383 73.0103C23.9377 72.4495 24.235 71.9099 24.4697 71.6284Z" fill="black"/>
<path d="M18.4453 103.151C18.8514 103.07 19.2461 103.334 19.3271 103.74C19.4537 104.375 19.9437 106.81 20.3955 108.176C20.5764 108.722 20.716 109.326 20.8564 109.943C20.9991 110.57 21.1452 111.224 21.3417 111.921C21.7291 113.293 21.9849 114.248 22.4531 115.242C22.769 115.913 23.0163 116.623 23.3232 117.534C23.6322 118.452 24.0111 119.602 24.5996 121.196C25.1592 122.712 25.5612 124.239 25.8994 125.408C26.2088 126.477 26.6824 127.975 27.0634 129.56C27.5989 131.789 27.7634 132.928 27.9511 134.185C28.2054 135.889 28.3952 137.231 28.4902 139.965C28.5696 142.249 28.522 146.351 28.4912 148.571C28.4484 151.651 28.0029 153.07 27.8935 154.024C27.721 155.529 27.0209 157.225 26.6748 158.266C26.5089 158.766 26.3765 159.351 26.2236 160.019C26.0741 160.673 25.9077 161.393 25.6777 162.101C25.141 163.753 24.6754 165.136 24.2041 166.489C24.0212 167.014 23.7953 167.506 23.5859 167.962C23.3719 168.428 23.1748 168.858 23.0156 169.305C22.7017 170.188 22.3575 171.151 21.9804 172.157C21.9446 172.253 21.9131 172.347 21.8847 172.438C22.3082 172.382 22.9718 172.355 23.7539 172.375C24.5959 172.397 25.6214 172.474 26.7177 172.645L27.1914 172.725L27.288 172.742L27.3769 172.784C27.8254 172.993 28.4731 173.38 28.58 174.215C28.6444 174.718 28.6823 175.221 28.6601 175.675C28.6386 176.112 28.5581 176.594 28.3105 176.987C28.0867 177.342 27.7182 177.721 27.1757 177.915C26.7479 178.067 26.137 178.17 25.6015 178.023C25.4848 177.991 25.282 177.99 24.8818 178.012C24.5304 178.032 24.0576 178.067 23.58 178.025C23.0908 177.982 22.5499 177.855 22.04 177.526C21.5244 177.194 21.0941 176.689 20.7753 175.977C20.3001 174.916 19.8635 173.531 20.5761 171.631C20.9484 170.638 21.2887 169.685 21.6025 168.802C21.788 168.281 22.015 167.79 22.2236 167.336C22.4366 166.872 22.6323 166.443 22.788 165.996C23.2554 164.654 23.717 163.28 24.2509 161.637C24.4574 161.002 24.6099 160.344 24.7607 159.684C24.9081 159.04 25.0574 158.376 25.2509 157.794C25.6542 156.58 26.2542 155.154 26.4033 153.854C26.545 152.618 26.9494 151.56 26.9912 148.551C27.0222 146.319 27.069 142.257 26.9912 140.017C26.8988 137.359 26.7171 136.077 26.4677 134.407C26.2826 133.167 26.1261 132.078 25.6054 129.911C25.2351 128.37 24.7817 126.941 24.4589 125.825C24.1077 124.611 23.7275 123.165 23.1923 121.715C22.595 120.096 22.2087 118.925 21.9013 118.012C21.5917 117.093 21.3705 116.462 21.0966 115.881C20.5644 114.75 20.2747 113.662 19.8984 112.329C19.6893 111.588 19.5339 110.893 19.3935 110.276C19.2509 109.649 19.1254 109.115 18.9707 108.647C18.4838 107.176 17.9772 104.639 17.8564 104.033C17.7755 103.627 18.0391 103.232 18.4453 103.151ZM23.7148 173.874C22.7955 173.85 22.1726 173.9 21.9667 173.943C21.8272 173.974 21.8086 173.985 21.7978 173.992C21.795 173.994 21.785 174 21.7675 174.018C21.7591 174.027 21.7482 174.04 21.7353 174.057C21.8025 174.534 21.9624 174.957 22.1445 175.364C22.362 175.85 22.6148 176.112 22.8525 176.265C23.0958 176.422 23.3799 176.502 23.7128 176.531C24.0573 176.561 24.4048 176.537 24.7958 176.514C25.1376 176.495 25.6009 176.468 25.999 176.577C26.1294 176.613 26.4064 176.597 26.6718 176.503C26.8224 176.449 26.9491 176.334 27.0419 176.186C27.0849 176.118 27.1452 175.944 27.1621 175.601C27.1781 175.274 27.151 174.869 27.0917 174.405C27.089 174.384 27.0854 174.374 27.083 174.369C27.08 174.363 27.0723 174.351 27.0527 174.332C27.0136 174.293 26.9418 174.246 26.8173 174.183C25.6687 173.984 24.5845 173.896 23.7148 173.874Z" fill="black"/>
<path d="M17.2501 103.682C17.5726 103.422 18.0448 103.473 18.3048 103.796C18.4483 103.974 18.5086 104.195 18.5343 104.291C18.5697 104.423 18.6007 104.579 18.63 104.732C18.6915 105.054 18.7558 105.426 18.8556 105.843C19.2573 107.519 19.3718 108.408 19.4708 109.08C19.5978 109.942 19.7277 110.7 19.9864 112.142C20.2095 113.386 20.1943 114.184 20.2423 115.4C20.2543 115.704 20.2873 116.008 20.3282 116.343C20.3683 116.672 20.4171 117.039 20.4513 117.43C20.5443 118.496 20.6736 119.487 20.8741 120.369C20.9718 120.798 21.0275 121.187 21.0714 121.526C21.117 121.879 21.1455 122.143 21.1895 122.386C21.2917 122.952 21.4833 123.512 21.6632 124.176C21.8291 124.789 21.9824 125.406 22.214 126.054C22.6189 127.188 23.0709 128.974 23.2687 129.658C23.4071 130.137 23.5514 130.555 23.7022 130.989C23.8522 131.42 24.0093 131.869 24.1612 132.385C24.3892 133.158 24.5189 134.071 24.6798 134.812C24.8252 135.483 24.9049 136.177 24.9854 136.923C25.0575 137.589 25.0974 138.239 25.1895 138.78C25.3106 139.492 25.3169 140.38 25.2813 141.139C25.2458 141.898 25.1649 142.605 25.087 142.966C24.9201 143.739 24.6426 144.409 23.6144 145.937C22.9756 146.886 22.2434 147.384 21.9093 147.678C21.3278 148.192 20.443 148.924 19.2091 149.687C17.7366 150.597 16.0526 151.374 15.4972 151.643C15.1194 151.826 14.6756 151.982 14.3058 152.112C13.9037 152.253 13.6116 152.356 13.4337 152.448C12.9878 152.678 12.4104 152.877 11.8761 153.051C11.3145 153.235 10.7937 153.393 10.3673 153.555C9.80295 153.771 9.27856 153.928 8.71982 154.091C8.1587 154.254 7.55825 154.425 6.80869 154.672C6.12595 154.896 5.58561 155.086 5.03037 155.224C4.37871 155.387 3.784 155.57 3.58896 155.655L3.57041 155.663L3.55185 155.67C3.37438 155.737 3.20405 155.779 3.07724 155.81C2.67553 155.911 2.26854 155.666 2.16806 155.264C2.06761 154.863 2.31212 154.456 2.71396 154.355C2.78303 154.338 2.83925 154.323 2.88877 154.309L3.02353 154.266C3.36195 154.125 4.04212 153.925 4.66611 153.769C5.15229 153.648 5.61587 153.485 6.33994 153.247C7.11941 152.99 7.74788 152.811 8.2999 152.65C8.85442 152.488 9.32935 152.345 9.8331 152.153C10.3054 151.973 10.8952 151.793 11.4112 151.625C11.9543 151.448 12.4222 151.282 12.7462 151.115C13.0402 150.963 13.4558 150.821 13.8097 150.697C14.1958 150.562 14.557 150.433 14.8438 150.294C15.4338 150.008 17.0308 149.27 18.421 148.411C19.5597 147.707 20.3743 147.032 20.9161 146.553C21.3953 146.131 21.8736 145.837 22.3702 145.099C23.3499 143.643 23.5117 143.156 23.6212 142.649C23.6735 142.407 23.7483 141.794 23.7823 141.069C23.8162 140.345 23.805 139.584 23.711 139.032C23.6091 138.433 23.5545 137.65 23.4933 137.084C23.4119 136.331 23.3402 135.711 23.214 135.13C23.014 134.208 22.9345 133.527 22.7228 132.808C22.5826 132.333 22.4368 131.918 22.2853 131.482C22.1346 131.049 21.9781 130.597 21.8272 130.075C21.6016 129.294 21.187 127.638 20.8019 126.559C20.5448 125.84 20.3711 125.146 20.2149 124.569C20.0682 124.027 19.831 123.3 19.714 122.653C19.661 122.36 19.6238 122.026 19.5841 121.718C19.5426 121.398 19.4934 121.063 19.4112 120.702C19.1894 119.726 19.053 118.659 18.9571 117.561C18.9259 117.204 18.8814 116.874 18.839 116.525C18.7973 116.184 18.7578 115.828 18.7433 115.459C18.6927 114.177 18.7095 113.52 18.5099 112.407C18.2507 110.962 18.117 110.185 17.9864 109.299C17.8884 108.634 17.7819 107.8 17.3966 106.192C17.2863 105.732 17.2124 105.308 17.1563 105.014C17.1269 104.86 17.1048 104.752 17.0851 104.678C17.0815 104.665 17.0778 104.655 17.0753 104.646C16.8893 104.331 16.9567 103.919 17.2501 103.682Z" fill="black"/>
<path d="M2.00977 154.493C2.00977 154.079 2.34555 153.743 2.75977 153.743C3.17398 153.743 3.50977 154.079 3.50977 154.493C3.50977 154.621 3.51445 154.764 3.52344 154.919C3.66033 154.772 3.85481 154.679 4.07129 154.679C4.74579 154.679 5.49296 154.678 5.99609 154.752C6.26582 154.791 6.50048 154.854 6.70898 154.956C6.87138 155.035 6.99823 155.127 7.10156 155.219L7.19727 155.309L7.24707 155.359L7.28613 155.417C7.60779 155.891 7.9835 156.699 8.16699 157.601C8.34976 158.5 8.36255 159.604 7.81348 160.579C7.70462 160.772 7.55419 160.98 7.35938 161.148C7.16873 161.313 6.8757 161.49 6.50195 161.489C6.31223 161.489 4.62863 161.923 3.51562 160.548C3.16012 160.108 2.84692 159.463 2.69141 158.902C2.27098 157.386 2.00977 155.568 2.00977 154.493ZM3.63867 156.04C3.74568 156.821 3.91541 157.704 4.13672 158.502C4.24545 158.894 4.47331 159.347 4.68164 159.604C5.18401 160.225 5.65303 160.012 6.39648 159.992C6.40688 159.981 6.42173 159.969 6.43555 159.951C6.45911 159.921 6.48378 159.884 6.50684 159.844C6.8104 159.305 6.84121 158.613 6.69629 157.9C6.56153 157.237 6.2916 156.651 6.08594 156.325C6.07456 156.317 6.06416 156.311 6.05273 156.305C6.02043 156.29 5.94458 156.259 5.7793 156.235C5.4112 156.181 4.79818 156.179 4.07129 156.179C3.90962 156.179 3.76115 156.127 3.63867 156.04Z" fill="black"/>
<path d="M0 155.307C2.02102e-06 155.099 0.00357062 154.888 0.0976562 154.42C0.185158 153.985 0.351528 153.32 0.470703 152.913L0.488281 152.854L0.514648 152.799C0.76354 152.282 1.16757 151.846 1.53516 151.527C1.90355 151.208 2.29484 150.954 2.58203 150.821C2.95825 150.648 3.40392 150.813 3.57715 151.189C3.75019 151.566 3.58595 152.011 3.20996 152.185C3.07782 152.245 2.8032 152.412 2.51758 152.66C2.24978 152.893 2.024 153.152 1.89258 153.398C1.78589 153.772 1.64235 154.348 1.56836 154.716C1.53053 154.904 1.51409 155.02 1.50684 155.099C1.49987 155.174 1.5 155.227 1.5 155.307C1.5 155.721 1.16421 156.057 0.75 156.057C0.335786 156.057 0 155.721 0 155.307Z" fill="black"/>
</svg>
