<svg width="96" height="295" viewBox="0 0 96 295" fill="none" xmlns="http://www.w3.org/2000/svg">
<path d="M48.4953 52.5703C50.0748 52.5607 51.4063 52.8663 52.2414 52.9785C53.4039 53.1346 54.4615 53.6116 55.1193 53.8486C55.9821 54.1594 56.7168 54.4311 57.5627 54.832C58.8906 55.4614 59.7662 55.9546 60.672 56.4599C61.6008 56.978 62.3257 57.4739 62.9855 57.9082C63.3691 58.1607 63.711 58.4385 64.0207 58.6992C64.3423 58.97 64.6152 59.2093 64.9201 59.4453C65.2715 59.7172 65.6127 60.0301 65.922 60.3154C66.1626 60.5373 66.3862 60.7445 66.6076 60.9345L66.8283 61.1191L66.8976 61.1738L66.9552 61.2412C67.1392 61.4527 67.3273 61.6472 67.5177 61.8174L67.7091 61.9785L67.7345 62C67.8498 62.0985 67.9956 62.2331 68.1486 62.4697C68.2813 62.6751 68.4041 62.9331 68.5402 63.2715C68.7464 63.7838 68.4979 64.367 67.9855 64.5732C67.4733 64.7791 66.8909 64.5307 66.6847 64.0185C66.5663 63.7242 66.4994 63.6029 66.4689 63.5556C66.4575 63.538 66.455 63.5364 66.4601 63.542C66.4635 63.5456 66.4632 63.5438 66.4347 63.5195V63.5185C66.0952 63.244 65.7852 62.9346 65.506 62.6191C65.1729 62.3457 64.8523 62.0495 64.5656 61.7851C64.2479 61.4921 63.9689 61.2372 63.6964 61.0263C63.3483 60.7569 63.0174 60.4693 62.7326 60.2295C62.4358 59.9796 62.1673 59.7633 61.8859 59.5781C61.1982 59.1254 60.5462 58.6805 59.6974 58.207C58.7912 57.7015 57.9678 57.2366 56.7062 56.6386C55.9548 56.2825 55.298 56.0393 54.4406 55.7304C53.5818 55.4211 52.8588 55.0796 51.9757 54.9609C50.9129 54.8182 49.9015 54.5618 48.507 54.5703C44.8786 54.5922 43.9073 54.6904 43.0597 54.7763C42.0331 54.8804 41.227 54.9992 40.422 55.1787C39.86 55.304 39.2796 55.3828 38.7658 55.457C38.2337 55.5338 37.7659 55.6062 37.3429 55.7168C35.9439 56.0825 35.1546 56.2661 34.2941 56.5107C33.2415 56.8099 32.1372 57.2838 31.2189 57.6543C30.6495 57.884 30.068 58.0775 29.5959 58.248C29.1004 58.427 28.6875 58.5935 28.3293 58.7968C27.9602 59.0064 27.6262 59.1804 27.339 59.331C27.0453 59.4851 26.8086 59.6101 26.5968 59.7392C26.1988 59.982 25.9083 60.2253 25.63 60.624C25.3605 61.0103 25.0786 61.3511 24.8195 61.6572C24.5518 61.9734 24.3227 62.2357 24.1076 62.5136C23.6083 63.1588 23.1429 63.8369 22.5656 64.6201C22.2456 65.0542 21.8572 65.4745 21.5988 65.7802C21.3141 66.117 21.1075 66.3996 20.9699 66.707C20.5903 67.5552 20.3019 68.1585 20.1779 68.8017C20.0818 69.3 19.9199 69.8149 19.8029 70.2246C19.6769 70.666 19.5873 71.0339 19.5627 71.3769C19.4826 72.4931 19.4404 73.6876 19.0734 74.8115C18.7362 75.844 18.323 76.5793 18.3029 78.5097C18.2821 80.513 18.2818 82.2417 18.297 83.5468C18.3126 84.8858 18.3449 85.7059 18.3791 85.9541C18.4728 86.6332 18.5094 87.1205 18.6496 87.6396C18.9938 88.915 19.2005 89.9429 19.3791 90.8359C19.5486 91.6838 19.7134 92.2965 20.0138 92.7549C20.1742 92.9995 20.421 93.2464 20.8205 93.6758C21.185 94.0676 21.6237 94.5625 21.9796 95.1816C22.3894 95.8943 22.7056 96.4544 23.1339 96.9892C23.7769 97.7919 24.144 98.3443 24.7775 99.0029C25.3618 99.6103 26.2998 100.702 27.2687 101.52C28.0687 102.194 28.6981 102.655 29.3527 102.992C30.1024 103.378 30.9308 103.756 31.7863 104.116C32.1671 104.277 32.5393 104.414 32.964 104.578C33.3801 104.739 33.8273 104.917 34.3058 105.143C34.6843 105.321 35.0603 105.524 35.4591 105.728C35.8703 105.94 36.3613 106.183 37.0373 106.478C37.6327 106.737 38.135 106.984 38.5509 107.18C38.9777 107.381 39.3189 107.531 39.6574 107.641C40.4019 107.882 41.1482 107.976 42.0207 108.107C42.3665 108.159 45.3003 108.48 49.3566 108.161C51.0289 108.03 51.3457 108.018 51.7218 107.931C52.6291 107.721 53.714 107.471 54.7365 107.22C55.7242 106.977 57.0254 106.558 58.3322 106.108C59.7159 105.632 60.6916 105.527 61.9953 104.614C62.5081 104.255 63.0915 103.88 63.4914 103.606C63.9349 103.303 64.2821 103.04 64.5529 102.77C65.4225 101.9 65.9039 101.428 66.2687 100.906C66.5262 100.538 66.8096 100.167 67.0783 99.8154C67.3521 99.457 67.6121 99.1167 67.8468 98.7812C68.4281 97.9504 68.9644 97.1471 69.5343 96.2812C69.8146 95.8555 70.087 95.4874 70.3273 95.1631C70.5728 94.8316 70.7772 94.555 70.9562 94.2744C71.4467 93.5055 71.9222 92.7582 72.2765 92.0644C72.645 91.343 72.8738 90.6582 72.9015 89.7295C72.9665 87.5468 73.1336 86.4054 73.2843 84.75C73.4291 83.1604 73.4645 81.3267 73.2921 80.2705C73.1411 79.3448 73.0169 78.5509 72.7951 77.8105C72.5205 76.8943 72.3423 75.8424 72.217 74.9736C72.0977 74.1473 71.8996 73.4707 71.6857 72.5556C71.5097 71.8026 71.2096 71.4364 71.008 71.0312C70.762 70.5369 70.963 69.9365 71.4572 69.6904C71.9517 69.4444 72.552 69.6461 72.798 70.1406C72.8466 70.238 73.3864 71.0457 73.633 72.1006C73.8197 72.8992 74.0608 73.7482 74.1964 74.6884C74.3189 75.5371 74.4809 76.468 74.7111 77.2363C74.9781 78.1274 75.1216 79.0646 75.2658 79.9482C75.4805 81.264 75.4245 83.3049 75.2765 84.9306C75.1189 86.6621 74.9631 87.6869 74.9005 89.7881C74.8622 91.077 74.5283 92.0523 74.0578 92.9736C73.6518 93.7684 73.1214 94.5992 72.6427 95.3496C72.4195 95.6996 72.1719 96.0333 71.9347 96.3535C71.6923 96.6807 71.4511 97.0073 71.2052 97.3808C70.6312 98.2529 70.0827 99.0741 69.4855 99.9277C69.2226 100.304 68.9363 100.678 68.6671 101.03C68.3931 101.389 68.1362 101.725 67.9074 102.053C67.4168 102.754 66.7781 103.372 65.967 104.184C65.5614 104.589 65.0896 104.936 64.6203 105.257C64.1071 105.608 63.6829 105.874 63.1427 106.252C61.532 107.38 60.0378 107.636 58.9836 107.999C57.6694 108.451 56.2958 108.895 55.214 109.161C54.1755 109.416 53.0767 109.671 52.172 109.88C51.6053 110.011 51.0527 110.033 49.5138 110.154C45.3036 110.485 42.2176 110.159 41.7238 110.085C40.9259 109.965 39.9801 109.848 39.0402 109.543C38.5741 109.392 38.1369 109.196 37.6984 108.989C37.2489 108.778 36.7978 108.555 36.2375 108.311C35.5136 107.995 34.9835 107.733 34.5451 107.508C34.0944 107.276 33.7912 107.111 33.4543 106.952C33.041 106.758 32.6462 106.599 32.2443 106.444C31.8513 106.293 31.4283 106.135 31.0099 105.959C30.1221 105.585 29.245 105.186 28.4377 104.77C27.5859 104.332 26.8225 103.76 25.9796 103.049C24.9049 102.142 23.8043 100.876 23.3361 100.39C22.6205 99.6457 22.1089 98.9087 21.5734 98.2402C21.0294 97.5611 20.6341 96.854 20.2453 96.1777C20.0082 95.7655 19.6999 95.4081 19.3556 95.0381C19.0464 94.7057 18.6222 94.2805 18.341 93.8515C17.8047 93.0333 17.5845 92.0652 17.4171 91.2285C17.2394 90.3397 17.0437 89.3668 16.7179 88.1601C16.534 87.4785 16.4717 86.7648 16.3976 86.2275C16.3423 85.8262 16.312 84.8587 16.297 83.5693C16.2816 82.2452 16.282 80.5019 16.3029 78.4892C16.3269 76.1771 16.877 75.0945 17.172 74.1914C17.4435 73.3602 17.4785 72.4742 17.5675 71.2334C17.608 70.6695 17.7495 70.1321 17.88 69.6748C18.0196 69.186 18.1398 68.8076 18.214 68.4228C18.3927 67.4964 18.8088 66.6401 19.1447 65.8896C19.3982 65.3231 19.7489 64.8697 20.0705 64.4892C20.4183 64.0777 20.686 63.7987 20.9552 63.4336C21.4755 62.7278 22.0151 61.9508 22.5265 61.29C22.7769 60.9664 23.0518 60.6502 23.2931 60.3652C23.543 60.0701 23.7751 59.7865 23.9894 59.4795C24.4615 58.8031 24.9805 58.3831 25.5558 58.0322C25.8307 57.8645 26.1222 57.7106 26.4103 57.5595C26.705 57.405 27.0076 57.2474 27.342 57.0576C27.854 56.7669 28.3986 56.5542 28.9162 56.3672C29.4571 56.1717 29.9448 56.0116 30.4699 55.7998C31.3228 55.4557 32.5627 54.9236 33.7472 54.5869C34.6299 54.336 35.504 54.1307 36.8371 53.7822C37.3834 53.6394 37.9565 53.5532 38.4806 53.4775C39.0232 53.3992 39.5158 53.3315 39.9865 53.2265C40.8921 53.0246 41.781 52.8953 42.8576 52.7861C43.7838 52.6922 44.8212 52.5925 48.4953 52.5703Z" fill="black"/>
<path d="M27.3301 51.4047C28.4162 51.2096 29.4039 51.4011 29.7773 51.4232C31.9994 51.5549 32.6789 51.6106 33.3535 51.6537C33.7247 51.6774 34.2095 51.7432 34.667 51.806C35.1446 51.8716 35.6125 51.9366 36.0088 51.973C36.6003 52.0273 37.1234 52.1759 37.6152 52.3597C37.8902 52.4625 38.1435 52.5894 38.3213 52.6742C38.5169 52.7676 38.649 52.8243 38.7744 52.8597L38.7959 52.8666L38.8164 52.8734C38.9042 52.9025 38.9824 52.9349 39.0254 52.9525C39.0768 52.9737 39.0928 52.9795 39.1054 52.9838C39.1145 52.9867 39.3575 53.0507 39.6162 53.1791C40.1108 53.4246 40.3127 54.0242 40.0674 54.5189C39.8218 55.0136 39.2222 55.2156 38.7275 54.9701C38.632 54.9227 38.6583 54.9439 38.4687 54.8802C38.3827 54.8514 38.3058 54.819 38.2646 54.8021C38.2151 54.7818 38.1998 54.7756 38.1884 54.7718V54.7709C37.904 54.6863 37.6548 54.5719 37.4599 54.4789C37.2376 54.3727 37.0859 54.2976 36.915 54.2338C36.5299 54.0898 36.1869 53.9973 35.8261 53.9642C35.3749 53.9228 34.8559 53.8507 34.3955 53.7875C33.9148 53.7214 33.5096 53.6669 33.2265 53.6488C32.5216 53.6038 31.8816 53.551 29.6592 53.4193C28.9237 53.3757 28.4581 53.2343 27.6836 53.3734C27.0216 53.4923 26.7106 53.5828 26.1582 53.849C25.8728 53.9865 25.6064 54.1107 25.374 54.2045C25.1606 54.2906 24.8875 54.3886 24.6123 54.4134C24.0624 54.4631 23.5762 54.058 23.5263 53.5082C23.4766 52.9581 23.8825 52.472 24.4326 52.4222C24.3972 52.4254 24.4405 52.4248 24.6259 52.35C24.7923 52.2828 25.007 52.1836 25.29 52.0472C26.0385 51.6866 26.5295 51.5485 27.3301 51.4047Z" fill="black"/>
<path d="M34.3631 46.725C35.3673 46.7716 36.0359 46.9245 36.5672 47.0678C37.1149 47.2154 37.3453 47.2936 37.6708 47.3051C38.3635 47.3295 39.0157 47.4698 39.4881 47.5648C39.9061 47.6489 40.5462 47.7545 41.2079 47.9281C41.6457 48.043 42.0721 48.2091 42.4315 48.3597C42.8265 48.5253 43.0843 48.6458 43.327 48.7387C43.9768 48.9873 44.4182 49.1749 44.9168 49.4242C45.279 49.6053 45.5489 49.86 45.7694 50.1137C45.9655 50.3394 46.162 50.6127 46.3534 50.8764C46.8238 51.377 47.1769 51.7312 47.3016 51.8558C47.3675 51.9218 47.4328 51.987 47.5653 52.1195C47.9556 52.51 47.9555 53.1431 47.5653 53.5336C47.1748 53.924 46.5418 53.9239 46.1512 53.5336C46.0185 53.4009 45.9526 53.3359 45.8866 53.2699C45.7522 53.1356 45.3657 52.7491 44.8553 52.2045L44.8133 52.1596L44.7772 52.1088C44.5446 51.789 44.3977 51.5851 44.2596 51.4262C44.1323 51.2797 44.0626 51.2335 44.0223 51.2133C43.6015 51.0028 43.2249 50.8413 42.6122 50.6068C42.3383 50.502 41.9569 50.3298 41.6581 50.2045C41.3235 50.0642 41.0001 49.9414 40.7 49.8627C40.1127 49.7086 39.6058 49.6288 39.0936 49.5258C38.58 49.4224 38.0978 49.3216 37.6004 49.3041C36.9844 49.2824 36.4671 49.1128 36.0467 48.9994C35.6099 48.8816 35.0895 48.7601 34.2704 48.7221C33.498 48.6862 33.2815 48.8438 33.3309 48.8129C32.8629 49.106 32.2452 48.9644 31.952 48.4965C31.6588 48.0285 31.8005 47.4108 32.2684 47.1176C32.666 46.8685 33.3237 46.6767 34.3631 46.725Z" fill="black"/>
<path d="M40.2439 66.7681C40.7798 66.6346 41.3223 66.9617 41.4558 67.4976C41.4795 67.5929 41.4881 67.6883 41.4841 67.7818C41.5069 67.799 41.5293 67.8152 41.5495 67.8325L41.6355 67.9126L41.7195 68.0054C41.7435 68.0346 41.7635 68.0616 41.78 68.0845C41.811 68.1275 41.8381 68.1697 41.8494 68.187C41.857 68.1989 41.8626 68.2065 41.866 68.2114C42.1512 68.53 42.705 69.08 42.8484 69.8443C42.9362 70.3123 42.9333 70.8623 42.9119 71.312C42.8897 71.7776 42.8428 72.22 42.8161 72.4839C42.745 73.1884 42.6342 73.7863 42.4411 74.3638C42.3659 74.5889 42.2253 75.0033 41.9958 75.3657C41.7821 75.7032 41.3071 76.2771 40.4958 76.2603C40.2084 76.2542 39.8446 76.2415 39.5095 76.1626C39.1679 76.0822 38.7092 75.8999 38.404 75.4409C38.2898 75.2691 38.0102 74.9169 37.863 74.2046C37.729 73.5561 37.705 72.6412 37.8611 71.2349C37.9679 70.273 38.1964 69.651 38.2527 69.4068C38.2702 69.3309 38.2852 69.2477 38.3054 69.1314C38.3241 69.0242 38.3474 68.8855 38.3796 68.7446C38.4447 68.4603 38.5593 68.0912 38.8201 67.7417C39.0431 67.4429 39.322 67.2254 39.5505 67.0816C39.769 66.944 40.0212 66.8236 40.2439 66.7681Z" fill="black"/>
<path d="M28.9804 66.9551C29.3463 66.7933 29.7663 66.8698 30.0536 67.1299C30.0788 67.1343 30.1067 67.1403 30.1386 67.1456C30.2382 67.162 30.3911 67.1867 30.539 67.2217C30.791 67.2815 31.2849 67.4261 31.6083 67.8917L31.6708 67.9893L31.7255 68.0958C31.7731 68.1991 31.7998 68.2931 31.8144 68.3477C31.8388 68.4392 31.8583 68.5363 31.8739 68.6309C31.9053 68.8214 31.93 69.0521 31.9472 69.3096C31.9819 69.8277 31.9893 70.5025 31.9472 71.2706C31.8958 72.2078 31.8666 72.9885 31.7245 73.5801C31.664 73.8322 31.5858 74.2 31.4833 74.5128C31.3798 74.8286 31.2047 75.2467 30.8544 75.5753C30.6744 75.7441 30.2012 76.1878 29.4814 76.1495C29.1825 76.1335 28.7788 76.1104 28.4238 76.0089C28.2483 75.9587 28.0394 75.8743 27.8427 75.7354C27.5586 75.576 27.306 75.3409 27.1122 75.0577C26.8821 74.7212 26.2508 73.9595 26.4355 72.7237C26.508 72.2386 26.576 71.715 26.7265 71.1934C26.8444 70.7848 26.8517 70.4572 26.9609 69.7247C26.9771 69.616 26.9874 69.5073 27.0068 69.3428C27.0241 69.1952 27.0479 69.0129 27.0868 68.8301C27.1521 68.5237 27.3175 67.9099 27.8925 67.5616L28.2353 67.3663C28.3565 67.3034 28.4918 67.2431 28.6347 67.1905C28.704 67.128 28.7893 67.0581 28.8896 67.001L28.9804 66.9551Z" fill="black"/>
<path d="M29.2411 60.6675C29.7723 60.5163 30.3263 60.8247 30.4774 61.3559C30.6283 61.887 30.3199 62.4401 29.7889 62.5913C29.8134 62.5843 29.8099 62.5834 29.7723 62.6001C29.7401 62.6144 29.6951 62.636 29.6405 62.6655C29.5298 62.7254 29.3976 62.8072 29.2684 62.9028C29.1711 62.9748 29.0802 63.0627 28.9413 63.2056C28.8127 63.3377 28.6312 63.5298 28.411 63.7163C28.0907 63.9876 27.7286 64.2961 27.3065 64.5981C27.1818 64.6873 27.0972 64.7924 27.0077 64.9497C26.9581 65.0367 26.9135 65.1284 26.8524 65.2534C26.7961 65.3687 26.7221 65.5199 26.6346 65.6694C26.3826 66.1004 26.1052 66.4879 25.7459 66.897C25.496 67.1816 25.3206 67.4667 25.1805 67.7583C25.1541 67.8266 25.126 67.9107 25.1043 67.9897C25.0794 68.0807 25.0432 68.2473 24.9373 68.5395C24.7492 69.0586 24.1753 69.3272 23.6561 69.1391C23.1369 68.951 22.8684 68.3771 23.0565 67.8579C23.1266 67.6642 23.1343 67.6136 23.1756 67.4624C23.2181 67.3073 23.2726 67.1404 23.3319 66.9927L23.3436 66.9653L23.3553 66.939C23.5634 66.4971 23.8396 66.0369 24.243 65.5776C24.5187 65.2637 24.721 64.9796 24.908 64.6597C24.9522 64.5842 24.9942 64.4989 25.0545 64.3755C25.1099 64.2622 25.1831 64.1121 25.2694 63.9604C25.4518 63.64 25.7123 63.28 26.1424 62.9722C26.4869 62.7257 26.7872 62.4701 27.118 62.1899C27.2476 62.0802 27.3526 61.9695 27.5067 61.811C27.6502 61.6634 27.8388 61.4724 28.078 61.2954C28.4678 61.0069 28.9278 60.7567 29.2411 60.6675Z" fill="black"/>
<path d="M41.5285 59.2577C42.1073 59.3295 42.612 59.6049 43.0031 59.8612C43.1205 59.9381 43.3463 60.0507 43.6964 60.2225C44.0114 60.3771 44.4008 60.5683 44.7384 60.7684C45.4528 61.1918 45.8463 61.833 46.1203 62.4178C46.276 62.7504 46.407 63.0778 46.4826 63.2508C46.5282 63.3552 46.5607 63.4231 46.5851 63.4676L46.6359 63.5457L46.6574 63.5711C47.0187 64.0298 47.1798 64.5149 47.2462 64.8465C47.5124 65.2734 47.421 65.8404 47.0167 66.159C46.583 66.5008 45.9543 66.4267 45.6124 65.993C45.3621 65.6753 45.3073 65.35 45.2853 65.2401C45.2643 65.1349 45.2071 64.963 45.0861 64.8094L45.0871 64.8075C44.88 64.5538 44.7478 64.2766 44.6496 64.0516C44.5323 63.783 44.4546 63.578 44.3087 63.2664C44.1013 62.8236 43.9246 62.611 43.7189 62.4891C43.4617 62.3367 43.1464 62.1812 42.8146 62.0184C42.518 61.8729 42.1546 61.696 41.9074 61.534C41.5969 61.3305 41.4023 61.2569 41.2824 61.242C40.7343 61.174 40.3453 60.6749 40.4132 60.1268C40.4812 59.5787 40.9804 59.1897 41.5285 59.2577Z" fill="black"/>
<path d="M41.7192 83.4354C44.3185 83.4485 44.7876 83.5365 45.3276 83.5809C46.2728 83.6585 47.2292 83.7363 48.0707 83.8758C48.6512 83.972 49.2347 84.0897 50.0365 84.3641C50.5507 84.54 50.9759 84.6638 51.8305 84.8914C52.3836 85.0387 52.8523 85.1778 53.4008 85.4432L53.641 85.5652L53.6752 85.5838L53.7084 85.6043C53.8109 85.6692 53.8886 85.7287 53.9457 85.7742C53.9591 85.7849 53.9721 85.7947 53.9818 85.8025C53.9891 85.8084 53.9945 85.8132 53.9994 85.8172C54.0072 85.8198 54.0179 85.8247 54.0326 85.8289C54.5632 85.9818 54.869 86.5356 54.7162 87.0662C54.5633 87.5969 54.0096 87.9036 53.4789 87.7508C53.2419 87.6825 53.0446 87.5957 52.8539 87.4588C52.8141 87.4302 52.7798 87.4032 52.7553 87.3836C52.7433 87.374 52.7309 87.3644 52.7221 87.3572C52.7126 87.3496 52.7057 87.3433 52.6986 87.3377C52.6853 87.327 52.6735 87.3195 52.6635 87.3123C52.2242 87.0843 51.8769 86.9735 51.3158 86.824C50.4445 86.5919 49.9678 86.4546 49.3891 86.2566C48.7226 86.0286 48.2534 85.933 47.7436 85.8484C47 85.7252 46.1329 85.6535 45.1645 85.574C44.6323 85.5303 44.2276 85.4481 41.7094 85.4354C39.551 85.4244 35.5687 85.3854 33.5317 85.4471C31.3621 85.5128 31.1035 85.6146 30.3559 85.6639C30.0646 85.683 29.7807 85.7222 29.4779 85.7654C29.191 85.8064 28.8618 85.8547 28.5492 85.8719C28.0597 85.8989 27.6413 86.0023 27.2709 86.1521C27.0061 86.2593 26.5526 86.4966 25.9379 86.8016C25.3716 87.0825 24.6939 87.4058 24.1098 87.5975C23.8565 87.6806 23.5687 87.7924 23.3354 87.8943C23.2185 87.9454 23.1266 87.9899 23.0649 88.0223C23.0507 88.0297 23.039 88.0352 23.0307 88.0398C22.6395 88.3428 22.0756 88.317 21.7152 87.9588C21.3236 87.5694 21.322 86.9364 21.7113 86.5447L21.8529 86.4227C21.8967 86.3903 21.934 86.3664 21.9565 86.3523C22.0164 86.3148 22.0791 86.2802 22.1371 86.2498C22.2543 86.1885 22.3924 86.1245 22.5346 86.0623C22.8199 85.9376 23.1675 85.8028 23.4867 85.698C23.9175 85.5567 24.4766 85.2946 25.0492 85.0105C25.5736 84.7504 26.1622 84.4428 26.5209 84.2977C27.0908 84.0671 27.7254 83.9142 28.4399 83.8748C28.6474 83.8633 28.8823 83.8307 29.1957 83.7859C29.4934 83.7434 29.8471 83.6926 30.224 83.6678C30.7428 83.6336 31.3018 83.5128 33.4711 83.4471C35.5546 83.384 39.5938 83.4246 41.7192 83.4354Z" fill="black"/>
<path d="M44.8457 108.624C45.2374 108.235 45.8704 108.236 46.2597 108.628C46.649 109.019 46.6465 109.652 46.2548 110.042C46.2793 110.017 46.1912 110.119 46.0527 110.524C45.9308 110.881 45.8075 111.357 45.6865 111.927C45.445 113.063 45.2304 114.483 45.0449 115.885C44.6574 118.813 44.2919 122.075 43.664 125.483C43.2906 127.51 43.0111 129.218 42.7617 130.753C42.5128 132.284 42.2921 133.653 42.039 134.983C41.4971 137.831 40.5018 140.872 39.8379 143.301C39.174 145.729 38.8039 148.165 38.292 150.725C37.9729 152.321 37.8209 154.16 37.6523 156.022C37.4874 157.844 37.3048 159.708 36.9043 161.21C36.6518 162.156 36.5618 163.087 36.4921 164.384C36.4231 165.67 36.3744 167.31 36.1855 169.559C35.403 178.876 35.5313 184.118 35.9033 187.362C36.0885 188.977 36.3352 190.106 36.5654 191.006C36.7855 191.866 37.0352 192.666 37.1689 193.434C37.4086 194.811 37.7945 196.099 38.2177 197.376C38.6336 198.631 39.1034 199.926 39.457 201.209C40.1753 203.815 40.6272 205.906 41.3261 208.312C42.0685 210.868 42.652 213.36 43.2148 215.864C43.4927 217.101 43.8655 218.233 44.2392 219.471C44.6079 220.693 44.9659 221.985 45.166 223.437C45.5802 226.444 46.3763 229.001 46.9589 231.53C47.2354 232.73 47.4742 234.016 47.7099 235.285C47.9473 236.563 48.1827 237.827 48.458 239.022C48.7144 240.135 49.0351 241.28 49.3632 242.49C49.6886 243.69 50.0183 244.944 50.2754 246.229C50.7753 248.729 51.2838 251.273 51.54 254.46C51.6522 255.856 51.9204 257.206 52.2089 258.534C52.4925 259.839 52.8064 261.162 52.9716 262.401C53.3016 264.874 53.8848 267.276 54.3955 269.829C54.8654 272.179 55.65 274.616 55.9716 277.659C56.2452 280.247 56.8767 282.608 57.3925 285.187C57.5972 286.211 57.8928 287.157 58.2431 288.055L58.3964 288.437L58.4091 288.469L58.4199 288.501C58.6328 289.135 58.7679 289.818 58.8925 290.441C59.0008 290.983 58.6497 291.51 58.1084 291.618C57.5669 291.726 57.04 291.375 56.9316 290.834C56.8031 290.191 56.6904 289.643 56.5283 289.155C56.0805 288.063 55.6913 286.883 55.4306 285.58C54.9463 283.158 54.2688 280.579 53.9824 277.87C53.671 274.923 52.9647 272.872 52.4345 270.221C51.945 267.774 51.3305 265.224 50.9892 262.666C50.8379 261.532 50.5515 260.324 50.2548 258.959C49.9632 257.617 49.6704 256.157 49.5468 254.62C49.3011 251.562 48.8136 249.123 48.3134 246.622C48.0705 245.407 47.7567 244.209 47.4326 243.013C47.1113 241.828 46.7763 240.632 46.5087 239.471C46.2222 238.228 45.9791 236.921 45.7431 235.65C45.5056 234.371 45.2757 233.13 45.0107 231.979C44.4696 229.631 43.6146 226.831 43.1845 223.71C43.0063 222.416 42.6851 221.245 42.3242 220.05C41.9683 218.871 41.5612 217.631 41.2627 216.303C40.7017 213.806 40.1296 211.364 39.4052 208.87C38.7258 206.53 38.1883 204.134 37.5283 201.74C37.1927 200.523 36.7595 199.333 36.3193 198.005C35.8863 196.698 35.4633 195.3 35.1982 193.777C35.0819 193.109 34.8856 192.512 34.6269 191.501C34.3783 190.529 34.1132 189.31 33.916 187.59C33.523 184.162 33.4042 178.775 34.1923 169.392C34.3779 167.183 34.4234 165.612 34.4951 164.277C34.5662 162.953 34.6633 161.85 34.9716 160.694C35.3202 159.387 35.492 157.7 35.6601 155.843C35.8246 154.026 35.9849 152.058 36.33 150.333C36.8182 147.892 37.2201 145.29 37.9082 142.773C38.6114 140.201 39.5515 137.356 40.0742 134.609C40.3212 133.311 40.5378 131.971 40.788 130.431C41.0378 128.895 41.3197 127.17 41.6972 125.121C42.313 121.779 42.6684 118.6 43.0625 115.622C43.2497 114.207 43.4723 112.725 43.7304 111.511C43.8591 110.905 44.0015 110.342 44.1601 109.878C44.3023 109.461 44.5103 108.957 44.8457 108.624Z" fill="black"/>
<path d="M63.7256 286.967C64.5275 286.947 66.0047 286.959 66.835 286.973C67.345 286.982 67.696 287.001 67.9746 287.019C68.2659 287.038 68.423 287.053 68.6133 287.059C69.1452 287.077 69.9421 287.129 70.9082 287.143C71.7132 287.155 72.3488 287.338 72.5352 287.369C72.9137 287.431 74.1251 287.756 75.1104 288.108C75.4522 288.23 75.7193 288.412 75.9131 288.558C76.1713 288.753 76.1902 288.786 76.335 288.885C76.6837 289.126 76.9143 289.469 77.0576 289.736C77.2085 290.018 77.3156 290.317 77.377 290.573C77.494 291.061 77.4671 291.475 77.3506 291.837C77.2968 292.004 77.2301 292.138 77.1826 292.229C77.1676 292.258 77.1321 292.326 77.127 292.336C77.1204 292.348 77.1156 292.357 77.1123 292.364C77.1091 292.37 77.1074 292.374 77.1074 292.374C76.9013 292.839 76.5174 293.184 76.2236 293.405C75.9069 293.643 75.5635 293.834 75.2891 293.961C75.0556 294.069 74.8378 294.117 74.6651 294.15C74.4696 294.188 74.3563 294.203 74.1436 294.25C73.0846 294.482 72.2831 294.565 71.8721 294.602C71.0717 294.675 69.9843 294.784 69.0615 294.769C68.733 294.764 68.4697 294.744 68.2529 294.724C68.0205 294.703 67.8976 294.689 67.7695 294.683C67.3637 294.665 66.5998 294.609 65.5459 294.556C64.7481 294.517 63.5893 294.381 62.9815 294.31C62.2315 294.223 61.9662 294.149 61.668 294.094C60.9539 293.964 59.8522 293.539 58.8428 293.114C58.1349 292.816 57.6692 292.583 57.1582 292.324L57.1514 292.321L57.1445 292.317C57.0722 292.279 56.9928 292.232 56.9131 292.188C56.6403 292.178 56.3729 292.058 56.1836 291.833C55.8287 291.41 55.8836 290.78 56.3067 290.425L56.3809 290.366C56.4636 290.306 56.5724 290.243 56.707 290.199C56.9023 290.135 57.0974 290.13 57.2754 290.166C57.3567 290.182 57.4278 290.206 57.4854 290.229C57.4474 289.856 57.6217 289.476 57.9649 289.27C58.3036 289.067 58.7404 288.828 59.0869 288.606C59.7569 288.178 60.0119 288.052 60.3965 287.867C60.6896 287.726 61.1996 287.455 61.7803 287.284C62.3639 287.112 62.7216 286.991 63.7256 286.967ZM66.8008 288.973C65.9737 288.959 64.5324 288.948 63.7744 288.967C63.0222 288.985 62.8559 289.052 62.3457 289.203C61.9636 289.316 61.6463 289.485 61.2647 289.669C60.9421 289.824 60.7584 289.911 60.1651 290.291C59.8025 290.523 59.2191 290.85 58.9942 290.985C58.991 290.987 58.9875 290.988 58.9844 290.99C59.1753 291.078 59.3811 291.171 59.6182 291.27C60.6625 291.71 61.5642 292.043 62.0283 292.128C62.4208 292.2 62.5489 292.247 63.2119 292.324C63.8443 292.397 64.9276 292.523 65.6445 292.558C66.8606 292.618 67.3726 292.664 67.8574 292.685C68.0468 292.694 68.2612 292.717 68.4336 292.732C68.6219 292.749 68.8325 292.765 69.0947 292.769C69.8841 292.782 70.8415 292.687 71.6914 292.61C72.0545 292.577 72.767 292.504 73.7158 292.296C73.9528 292.244 74.187 292.206 74.2881 292.186C74.4118 292.163 74.4398 292.15 74.4502 292.145C74.6229 292.065 74.8393 291.944 75.0215 291.807C75.2124 291.664 75.2726 291.572 75.2783 291.564C75.3059 291.502 75.3347 291.447 75.3555 291.407C75.3861 291.349 75.3864 291.349 75.4082 291.307C75.4347 291.256 75.4433 291.235 75.4473 291.222C75.4499 291.214 75.4516 291.205 75.4522 291.187C75.4528 291.167 75.4522 291.12 75.4326 291.039C75.409 290.94 75.3604 290.803 75.2949 290.681C75.2633 290.622 75.2332 290.579 75.21 290.55C75.1912 290.526 75.1836 290.52 75.1895 290.525C75.0877 290.454 74.9938 290.381 74.919 290.321C74.8342 290.253 74.7739 290.204 74.708 290.154C74.5822 290.059 74.5025 290.014 74.4375 289.991C73.5078 289.659 72.4228 289.378 72.21 289.343C71.7002 289.258 71.4944 289.152 70.8789 289.143C69.9051 289.129 68.9781 289.073 68.5469 289.058C68.3134 289.051 68.0806 289.03 67.8428 289.014C67.5923 288.998 67.2741 288.981 66.8008 288.973Z" fill="black"/>
<path d="M38.5885 205.711C38.5885 205.159 39.0364 204.711 39.5885 204.711C40.1408 204.711 40.5885 205.158 40.5885 205.711C40.5885 205.838 40.5886 210.344 40.6208 217.23C40.6363 220.551 41.0793 221.702 41.3219 223.12C41.4748 224.014 41.533 225.207 41.5788 226.373C41.6258 227.572 41.6599 228.765 41.7536 229.76C41.8813 231.116 42.0822 232.431 42.2135 238.62C42.2813 241.815 42.6504 243.418 42.9098 244.779C43.1379 245.976 43.2218 247.289 43.2624 248.464C43.3046 249.688 43.3008 250.682 43.3493 251.434C43.4424 252.88 43.6364 254.783 43.8893 256.272C44.0253 257.073 44.1088 257.91 44.1862 258.734C44.2646 259.569 44.3363 260.391 44.4469 261.212C44.7089 263.155 44.9362 264.881 45.1354 267.606C45.223 268.805 45.3985 270.3 45.5875 271.883C45.7753 273.455 45.9758 275.11 46.109 276.593C46.3743 279.545 46.5622 281.846 46.7868 283.542C46.9409 284.706 47.0323 285.623 47.112 286.412C47.192 287.205 47.2594 287.854 47.3678 288.518C47.3914 288.663 47.4054 288.815 47.4108 288.968C47.6163 289.245 47.6738 289.62 47.527 289.96C47.2797 290.532 47.0258 290.874 46.7799 291.16L46.7682 291.174L46.7555 291.187C46.2922 291.689 45.5044 292.324 44.4586 293.075L44.4137 293.107L44.3649 293.135C43.9307 293.379 43.1569 293.582 42.2458 293.687C41.2936 293.797 40.0809 293.812 38.7135 293.605C38.4716 293.569 38.0259 293.551 37.3268 293.544C36.6381 293.537 35.8069 293.541 34.7838 293.535C32.7635 293.524 30.1377 293.475 27.1012 293.223C25.952 293.128 25.1316 293.064 24.5592 292.969C23.9756 292.871 23.4402 292.711 23.0124 292.274C22.7982 292.056 22.6226 291.762 22.5407 291.432C22.4572 291.097 22.4544 290.64 22.7292 290.217L22.9206 289.95C23.3847 289.357 23.9709 288.962 24.3883 288.69C24.9435 288.328 25.5509 288.059 26.1569 287.804C26.78 287.542 27.4175 287.289 28.1393 286.938C28.8708 286.583 29.9165 286.38 30.9586 286.27C32.0304 286.158 33.2135 286.133 34.2877 286.192C36.1668 286.296 37.4281 286.603 38.6344 286.863C40.0461 287.167 41.5028 287.61 42.7975 287.986C43.2002 288.103 43.6122 288.298 43.9596 288.47C44.3373 288.656 44.6498 288.819 44.9577 288.95C45.1556 289.034 45.3038 289.081 45.4108 289.106C45.4113 289.019 45.408 288.925 45.3942 288.841C45.2745 288.107 45.2012 287.399 45.1217 286.612C45.0419 285.821 44.9539 284.934 44.8043 283.804C44.5726 282.054 44.3798 279.687 44.1178 276.771C43.9878 275.324 43.7903 273.703 43.6012 272.12C43.4134 270.548 43.2329 269.006 43.1413 267.753C42.9465 265.088 42.7247 263.41 42.4645 261.479C42.347 260.608 42.2714 259.735 42.195 258.921C42.1175 258.095 42.0387 257.326 41.9167 256.607C41.6489 255.031 41.4493 253.056 41.3532 251.563C41.3031 250.786 41.3013 249.633 41.2633 248.533C41.2236 247.384 41.1445 246.195 40.9459 245.153C40.6847 243.782 40.2852 242.038 40.2135 238.663C40.0836 232.539 39.8876 231.277 39.7624 229.947C39.662 228.882 39.6253 227.61 39.5797 226.451C39.5329 225.259 39.4773 224.199 39.3502 223.457C39.1365 222.208 38.6373 220.779 38.6208 217.239C38.5886 210.349 38.5885 205.841 38.5885 205.711ZM34.1784 288.189C33.2047 288.136 32.1278 288.159 31.1676 288.26C30.1784 288.364 29.4198 288.54 29.0133 288.737C28.2281 289.119 27.5168 289.402 26.9323 289.648C26.3306 289.901 25.8707 290.112 25.4801 290.366C25.1727 290.566 24.9092 290.753 24.6989 290.957C24.7518 290.969 24.8143 290.983 24.8893 290.996C25.3562 291.074 26.0628 291.131 27.2663 291.23C30.2302 291.476 32.7986 291.524 34.7946 291.535C35.7792 291.54 36.6619 291.537 37.3463 291.544C38.0202 291.55 38.6073 291.567 39.0114 291.628C40.1947 291.806 41.2296 291.791 42.0163 291.7C42.4097 291.655 42.7344 291.591 42.9792 291.527C43.1015 291.495 43.1992 291.465 43.2721 291.438C43.3055 291.426 43.3315 291.415 43.3512 291.406C43.6619 291.182 43.9355 290.976 44.1754 290.791C43.7984 290.631 43.3953 290.421 43.0749 290.263C42.7243 290.091 42.4548 289.969 42.2399 289.907C40.906 289.52 39.5375 289.103 38.2135 288.818C36.9802 288.553 35.8736 288.283 34.1784 288.189Z" fill="black"/>
<path d="M74.7582 58.7886C75.3284 58.6331 76.2473 58.4848 77.0043 59.0269C77.3534 59.2769 77.7325 59.6027 78.101 60.025C78.749 60.7675 79.2043 61.561 79.5922 62.1529C79.828 62.5126 80.0473 62.8946 80.2387 63.2144C80.439 63.549 80.6244 63.8426 80.8295 64.107C81.1729 64.5496 81.448 65.0271 81.6791 65.4302C81.9238 65.857 82.1151 66.1911 82.3266 66.4673C82.8475 67.1476 83.4131 68.0638 83.8959 68.8414C84.1659 69.2762 84.3976 69.7369 84.602 70.1461C84.8145 70.5717 84.995 70.934 85.185 71.2476C85.4069 71.6138 85.6103 71.9819 85.808 72.3375C86.0082 72.6975 86.2044 73.0502 86.4252 73.4146C86.6546 73.793 86.8814 74.1272 87.1186 74.4869C87.3499 74.8376 87.5889 75.2084 87.8012 75.6109C88.0327 76.0497 88.268 76.6595 88.4897 77.2125C88.7248 77.7988 88.9638 78.375 89.227 78.8638C89.4394 79.2583 89.6528 79.6095 89.8842 80.0123C90.1055 80.3973 90.3324 80.8125 90.5121 81.2505C90.8046 81.9635 91.118 82.7233 91.4145 83.5728C91.5441 83.9441 91.6977 84.2337 91.9213 84.7398C92.1321 85.2167 92.3525 85.781 92.519 86.524C92.6191 86.9706 92.7554 87.3522 92.9057 87.7701C93.0512 88.1746 93.2195 88.6378 93.3227 89.1539C93.4123 89.6025 93.515 90.0246 93.6235 90.4586C93.7307 90.8873 93.846 91.3366 93.9496 91.8062C94.1819 92.8583 94.3658 93.6818 94.5756 94.5377C94.7796 95.3698 95.208 96.3922 95.2338 98.2691C95.2645 100.5 95.5394 101.954 95.7201 102.908C95.8028 103.344 95.8983 103.819 95.894 104.192C95.8916 104.395 95.862 104.683 95.7045 104.964C95.5286 105.279 95.258 105.473 94.977 105.577C94.2012 105.862 92.7536 106.423 91.3637 106.908C90.9201 107.063 90.262 107.206 89.6459 107.363C88.9845 107.531 88.2325 107.745 87.4301 108.069C85.8613 108.702 84.8162 109.085 83.9301 109.453C83.0247 109.828 81.8911 110.213 81.0424 110.473C80.3288 110.692 79.0388 111.509 74.9936 112.348C74.125 112.528 73.3931 112.599 72.6469 112.664C71.9008 112.729 71.134 112.789 70.1313 112.945C69.4737 113.047 68.8696 113.161 68.3071 113.263C67.758 113.363 67.2299 113.455 66.7739 113.499C66.187 113.555 65.5343 113.705 64.7573 113.884C64.005 114.058 63.1544 114.255 62.2719 114.359C61.058 114.502 60.1006 114.696 59.2104 114.907C58.0559 115.18 56.8346 115.583 55.226 115.648C52.0699 115.775 51.1958 115.884 50.2885 116.052C49.8251 116.138 49.2592 116.202 48.8823 116.259C48.4508 116.325 48.117 116.4 47.85 116.514C47.1107 116.831 45.9129 117.3 44.935 117.446C44.3888 117.527 43.8797 117.15 43.7983 116.604C43.7169 116.058 44.0939 115.549 44.6401 115.467C45.338 115.363 46.3261 114.992 47.0619 114.676C47.5693 114.459 48.1076 114.355 48.5805 114.283C49.108 114.202 49.4798 114.169 49.9223 114.086C50.9761 113.891 51.9677 113.777 55.1459 113.649C56.5006 113.594 57.4194 113.276 58.7494 112.961C59.6915 112.739 60.7274 112.527 62.0385 112.373C62.7942 112.284 63.5395 112.113 64.3061 111.936C65.048 111.765 65.8381 111.579 66.5825 111.507C66.9421 111.473 67.3902 111.397 67.9496 111.295C68.496 111.196 69.1347 111.076 69.8246 110.968C70.9046 110.8 71.7374 110.736 72.4731 110.671C73.2086 110.607 73.8414 110.545 74.5873 110.39C78.6104 109.555 79.228 108.936 80.4565 108.56C81.268 108.312 82.3374 107.948 83.1645 107.605C84.0235 107.249 85.225 106.802 86.6821 106.214C87.6017 105.844 88.4497 105.604 89.1518 105.425C89.8992 105.235 90.369 105.136 90.7045 105.019C91.8612 104.615 93.0274 104.171 93.8588 103.859C93.8365 103.722 93.8037 103.536 93.7553 103.281C93.5663 102.284 93.2678 100.698 93.2348 98.2964C93.2131 96.7211 92.8926 96.0763 92.6323 95.0142C92.4162 94.1329 92.2286 93.2881 91.9965 92.2369C91.9004 91.8017 91.7941 91.388 91.683 90.9439C91.5734 90.5053 91.4613 90.0437 91.3618 89.5455C91.2923 89.1982 91.1769 88.8723 91.0239 88.4468C90.8757 88.0348 90.6986 87.545 90.5678 86.9615C90.439 86.3868 90.2695 85.9517 90.0912 85.5484C89.926 85.1744 89.6912 84.7028 89.5268 84.232C89.2507 83.4412 88.9571 82.7299 88.6616 82.0093C88.5341 81.6987 88.3624 81.3775 88.1508 81.0093C87.9493 80.6587 87.6954 80.2377 87.4662 79.8121C87.143 79.2116 86.8664 78.538 86.6332 77.9566C86.3866 77.3416 86.2008 76.8653 86.0317 76.5445C85.868 76.2341 85.676 75.9317 85.4496 75.5884C85.2292 75.2541 84.9703 74.8725 84.7153 74.4517C84.4723 74.051 84.259 73.6672 84.06 73.3091C83.8584 72.9465 83.673 72.6131 83.4741 72.2847C83.2324 71.8859 83.0126 71.4395 82.8129 71.0396C82.605 70.6234 82.4112 70.2416 82.1967 69.8961C81.6962 69.0898 81.187 68.2686 80.7387 67.6832C80.4294 67.2791 80.1679 66.8162 79.9438 66.4254C79.7062 66.0109 79.4953 65.6505 79.2494 65.3336C79.045 65.07 78.8678 64.7963 78.7045 64.5338C78.7042 64.5353 78.7039 64.5371 78.7035 64.5386C78.6694 64.7094 78.6443 64.8944 78.6166 65.1148C78.5903 65.3242 78.561 65.5732 78.518 65.8189C78.4319 66.311 78.2752 66.9117 77.8666 67.4498C77.3241 68.1642 76.5566 69.0282 75.5766 69.4302C75.1557 69.6029 74.7097 69.7284 74.3012 69.8423C73.8771 69.9607 73.473 70.0714 73.0541 70.2232C72.412 70.456 71.8707 70.6164 71.395 70.7486C70.9062 70.8844 70.5336 70.9785 70.1567 71.0982C69.9838 71.1531 69.7953 71.2333 69.56 71.3375C69.3424 71.4338 69.0703 71.5581 68.8002 71.6548C68.2799 71.8412 67.461 72.0444 66.6684 71.567C66.6556 71.5593 66.6332 71.5471 66.5737 71.5152C66.5226 71.4879 66.4506 71.4497 66.3735 71.4048C66.2175 71.3142 66.0154 71.1842 65.8178 70.9986C65.3924 70.599 65.0569 70.0061 65.0502 69.1754C65.0407 67.9863 65.0314 67.0341 65.1127 66.3179C65.195 65.5934 65.3903 64.879 65.9848 64.3609C66.2609 64.1202 66.4836 63.8545 66.8315 63.4839C67.147 63.1479 67.5484 62.7498 68.0649 62.4576C69.0315 61.9107 70.0637 61.331 70.8539 60.9244C71.1779 60.7577 71.4772 60.5357 71.8539 60.2554C72.2048 59.9944 72.6386 59.6713 73.1352 59.4371C73.5178 59.2566 74.134 58.959 74.7582 58.7886ZM75.8451 60.6568C75.8441 60.6594 75.7107 60.6021 75.2846 60.7183C74.8608 60.834 74.4086 61.0476 73.9887 61.2457C73.7001 61.3818 73.4196 61.584 73.0473 61.8609C72.7008 62.1186 72.2673 62.4477 71.77 62.7037C71.0205 63.0893 70.0208 63.6481 69.0492 64.1978C68.8095 64.3335 68.58 64.5448 68.2905 64.8531C68.0333 65.1269 67.676 65.5403 67.2992 65.8687C67.2728 65.8917 67.1633 65.9864 67.1 66.5435C67.0358 67.1092 67.0402 67.9133 67.0502 69.1597C67.0514 69.2971 67.0775 69.3756 67.0971 69.4185C67.1171 69.4624 67.1449 69.5011 67.1869 69.5406C67.2324 69.5833 67.2936 69.6261 67.3784 69.6754C67.4213 69.7003 67.4637 69.724 67.517 69.7525C67.562 69.7766 67.6348 69.8144 67.7006 69.8541C67.7023 69.8555 67.7111 69.8628 67.7602 69.8609C67.8294 69.8583 67.943 69.8374 68.1254 69.772C68.31 69.7059 68.5019 69.6194 68.7504 69.5093C68.9814 69.4071 69.262 69.2841 69.5522 69.192C69.975 69.0577 70.4229 68.942 70.8588 68.8209C71.3079 68.6961 71.7963 68.5522 72.3725 68.3433C72.8754 68.161 73.355 68.0295 73.7631 67.9156C74.1867 67.7974 74.5221 67.7009 74.8178 67.5796C75.2679 67.395 75.7614 66.9147 76.2739 66.2398C76.3973 66.0771 76.483 65.8474 76.5483 65.4742C76.581 65.2874 76.6035 65.0949 76.6323 64.8658C76.6597 64.6476 76.6926 64.3963 76.7426 64.1461C76.7823 63.9475 76.8355 63.6767 76.9213 63.4175C77.0225 63.1121 77.1611 62.8661 77.4389 62.5015C77.1792 62.0966 76.9275 61.7214 76.5942 61.3394C76.4024 61.1196 76.2076 60.939 76.0219 60.7906L75.8451 60.6568Z" fill="black"/>
<path d="M79.4576 68.7946C79.7818 68.3475 80.407 68.2477 80.8541 68.5719C81.3011 68.8961 81.4008 69.5213 81.0767 69.9684C80.9108 70.1972 80.4772 70.7527 80.1666 71.3424C79.9251 71.8221 79.7158 72.1177 79.5494 72.3668L79.5347 72.3883L79.5191 72.4098C79.4908 72.4477 79.4635 72.48 79.4449 72.5026C79.4209 72.5316 79.4139 72.5401 79.3951 72.5631C79.3679 72.5964 79.3346 72.6393 79.2886 72.7047C78.9711 73.1564 78.3469 73.2653 77.8951 72.9479C77.4433 72.6304 77.3345 72.0062 77.6519 71.5543C77.7305 71.4424 77.7942 71.3612 77.8463 71.2975C77.8669 71.2723 77.8948 71.2389 77.9029 71.2291C77.9043 71.2275 77.9056 71.2257 77.9068 71.2243C78.0808 70.9646 78.2152 70.7734 78.3873 70.4293L78.3921 70.4196L78.397 70.4108C78.7928 69.6595 79.3443 68.9507 79.4576 68.7946Z" fill="black"/>
<path d="M72.8339 53.8067C73.3509 53.6126 73.9278 53.8746 74.122 54.3916C74.3161 54.9087 74.054 55.4856 73.537 55.6797C73.3099 55.765 73.1144 55.8449 72.9882 55.8868L72.9745 55.8907L72.9618 55.8946C72.6789 55.9797 72.3085 56.1313 71.747 56.3858L71.7333 56.3926L71.7186 56.3985C71.5742 56.4587 71.4399 56.5111 71.3251 56.5557C71.206 56.602 71.1144 56.6376 71.0331 56.6719C70.859 56.7454 70.8306 56.7736 70.8427 56.7627C70.5838 56.9967 70.208 57.3556 69.9833 57.6202C69.8585 57.7671 69.7005 57.9501 69.5302 58.1163C69.3692 58.2733 69.1367 58.4768 68.8515 58.6094C68.3507 58.8423 67.7552 58.6249 67.5224 58.1241C67.2897 57.6234 67.5072 57.0288 68.0077 56.7959C67.9867 56.8057 68.0271 56.7886 68.1337 56.6846C68.2311 56.5896 68.3365 56.4693 68.4589 56.3252C68.7736 55.9547 69.2322 55.5231 69.5018 55.2793C69.7512 55.0539 70.0403 54.9196 70.2548 54.8291C70.368 54.7814 70.4896 54.7346 70.6005 54.6915C70.7159 54.6466 70.8295 54.6017 70.9491 54.5518C71.4918 54.3063 71.9505 54.1144 72.3583 53.9893V53.9883C72.4439 53.9599 72.4926 53.9348 72.8339 53.8067Z" fill="black"/>
<path d="M47.6954 34.0814C47.9742 34.0814 48.2259 34.1961 48.4073 34.3802C48.6262 34.4458 48.8844 34.5781 49.0801 34.8528C49.3812 35.2755 49.4677 35.867 49.3995 36.4212C49.3834 36.5518 49.3734 36.6851 49.3604 36.847C49.348 37.0002 49.3331 37.1806 49.3077 37.3636C49.2563 37.7333 49.1539 38.181 48.8809 38.6155C48.6581 38.9701 48.3423 39.3982 47.9903 39.7718C47.6709 40.1107 47.1931 40.5452 46.6368 40.7142C46.1886 40.8502 45.619 40.986 45.0733 41.0003C44.5872 41.0129 43.7732 40.937 43.2754 40.2591C43.1324 40.0643 42.8262 39.6552 42.7696 39.1136C42.7064 38.5084 42.7298 37.8081 42.9532 37.1693C43.1719 36.5437 43.4791 36.0466 44.0889 35.5784C44.5683 35.2104 45.1374 34.7029 45.8604 34.4525C46.7372 34.1488 47.3282 34.0814 47.6954 34.0814Z" fill="black"/>
<path d="M51.4855 0.000536531C52.2028 -0.00501793 53.1114 0.0299175 53.8273 0.230029C54.3982 0.389624 55.0157 0.567104 55.6847 1.15386C56.1293 1.54376 56.5399 1.91954 56.9259 2.37554C57.2734 2.78607 57.9802 3.76289 57.9386 4.98589C57.9055 5.96145 57.8705 7.00998 57.5968 8.02495C57.3585 8.90861 57.067 9.7047 56.9386 10.105C56.8331 10.434 56.6772 10.7995 56.5197 11.1646C56.3561 11.5437 56.178 11.95 55.9962 12.4117C55.7005 13.1628 55.2703 13.6917 55.1271 13.9332C54.8607 14.3828 54.5261 15.1134 53.7628 15.7994C53.2839 16.2298 52.928 16.5011 52.3185 16.9126C51.9163 17.1843 51.3971 17.4954 50.9621 17.7583C50.4866 18.0457 50.1602 18.2467 50.0373 18.3443C49.6159 18.6787 49.1003 19.0638 48.7853 19.3873C48.3869 19.7964 48.0771 20.1964 47.7228 20.6099C47.4459 20.9331 47.266 21.1344 47.1203 21.4839C46.8477 22.1374 46.4174 22.738 46.0871 23.1314C45.9639 23.2781 45.8286 23.4013 45.7257 23.4908C45.5932 23.606 45.5458 23.6414 45.4513 23.7261C45.2779 23.8817 45.3119 23.8962 45.3341 23.815C45.2846 23.9961 45.1942 24.2035 45.1584 24.2935C45.1095 24.4161 45.0691 24.5297 45.0382 24.6617C44.9799 24.9114 44.9373 25.3122 45.0753 25.9781C45.207 26.6135 45.3222 26.9763 45.4914 27.2232C45.5701 27.3382 45.6428 27.4543 45.7042 27.5523C45.7693 27.6561 45.8219 27.7395 45.8742 27.8169C45.9849 27.9812 46.04 28.0305 46.0539 28.0406C46.1544 28.1136 46.2822 28.215 46.3546 28.2701C46.4442 28.3382 46.5186 28.3911 46.589 28.4341C46.7233 28.5162 46.819 28.5467 46.9103 28.5513C48.2669 28.6198 49.5204 28.7027 49.9865 28.7027C50.5387 28.7027 50.9864 29.1504 50.9865 29.7027C50.9865 30.255 50.5388 30.7027 49.9865 30.7027C49.4538 30.7027 48.0799 30.6126 46.8097 30.5484C45.8101 30.4979 45.0796 29.8051 44.8781 29.6587C44.5723 29.4366 44.3591 29.1474 44.216 28.9351C44.1412 28.8243 44.0694 28.7097 44.0099 28.6148C43.9468 28.5141 43.8946 28.43 43.8419 28.3531C43.4229 27.7415 43.2484 27.0167 43.1173 26.3843C42.926 25.4613 42.9607 24.7658 43.091 24.2076C43.1544 23.9358 43.236 23.7174 43.3009 23.5542C43.3789 23.3582 43.3939 23.3252 43.4044 23.2867C43.5473 22.7652 43.9142 22.4183 44.1154 22.2378C44.208 22.1548 44.3594 22.0288 44.4132 21.982C44.4968 21.9093 44.5363 21.8685 44.5558 21.8453C44.8133 21.5385 45.1083 21.113 45.2746 20.7144C45.5604 20.029 45.9549 19.6002 46.2042 19.3091C46.4831 18.9837 46.8958 18.4609 47.3527 17.9917C47.7853 17.5475 48.4673 17.0373 48.7941 16.7779C49.0435 16.5799 49.5134 16.297 49.9279 16.0464C50.3828 15.7715 50.8492 15.4919 51.1994 15.2554C51.7497 14.8838 52.0293 14.6676 52.4259 14.3111C52.8964 13.8882 53.0357 13.5393 53.4064 12.9136C53.7893 12.2676 53.9061 12.2603 54.1349 11.6792C54.3314 11.1803 54.5258 10.7387 54.6837 10.3726C54.8476 9.99276 54.9624 9.71572 55.0334 9.49468C55.1986 8.97928 55.4427 8.3331 55.6662 7.50444C55.8699 6.74896 55.9051 5.93295 55.9396 4.91753C55.955 4.46516 55.6643 3.98125 55.3996 3.66851C55.1138 3.33092 54.7962 3.03456 54.3654 2.65679C54.0548 2.38451 53.8129 2.30222 53.2892 2.15581C52.8628 2.0366 52.195 1.99419 51.5011 1.99956C50.8324 2.00475 50.2419 2.05169 49.9914 2.0689C49.594 2.09618 48.7902 2.23223 47.8419 2.4771C47.2199 2.63776 46.7522 2.91034 46.1505 3.19878C45.5168 3.50258 44.9402 3.77642 44.5773 4.03276C43.6753 4.67019 42.7953 5.20142 42.3673 5.47319C42.0158 5.69645 41.7828 5.97374 41.3126 6.43022C41.1474 6.59065 41.025 6.80996 40.8703 7.1812C40.7887 7.37701 40.7228 7.59004 40.6359 7.87944C40.5622 8.12498 40.4747 8.41506 40.3585 8.73296C40.3266 9.01569 40.3163 9.31244 40.3253 9.5562C40.329 9.65474 40.3359 9.73577 40.3429 9.79741C40.4007 9.8719 40.4698 9.96614 40.5392 10.0865C40.815 10.565 40.6505 11.1769 40.172 11.4527C39.6936 11.7283 39.0826 11.5639 38.8068 11.0855C38.7932 11.0619 38.7791 11.042 38.758 11.0152C38.7447 10.9983 38.7328 10.9844 38.7101 10.9566C38.6908 10.933 38.6608 10.8963 38.63 10.855L38.6046 10.8208L38.5832 10.7857C38.4363 10.5504 38.3924 10.2784 38.3751 10.1675C38.3495 10.003 38.3343 9.81772 38.3273 9.63042C38.3133 9.25516 38.3289 8.80334 38.3869 8.37065L38.4025 8.25542L38.4445 8.14604C38.555 7.85731 38.6351 7.58997 38.7209 7.30425C38.8032 7.03012 38.8968 6.71821 39.0246 6.41167C39.1989 5.99333 39.4471 5.45295 39.9191 4.99468C40.2379 4.68517 40.7139 4.1538 41.2951 3.78472C41.7692 3.48362 42.5745 2.99952 43.423 2.39995C43.9581 2.02182 44.7254 1.66394 45.2863 1.39507C45.7369 1.17901 46.4727 0.765063 47.3419 0.540576C48.3472 0.280985 49.2833 0.112986 49.8537 0.0737787C50.0865 0.0577918 50.7432 0.00629273 51.4855 0.000536531Z" fill="black"/>
<path d="M32.6514 177.676C32.6514 177.344 32.6459 177.135 32.6329 177.01C32.5315 176.845 32.3991 176.703 32.1846 176.488C31.5649 175.869 30.0795 174.682 29.0626 173.939C28.4584 173.497 27.5256 172.892 26.7657 172.512C26.2151 172.236 25.2739 171.913 24.3292 171.051C23.8883 170.648 23.6792 170.425 23.3614 170.148C23.0933 169.914 22.871 169.758 22.628 169.652C21.8728 169.324 21.0217 169.1 19.6788 168.682C18.7411 168.389 17.8583 168.018 16.3487 167.386C14.8968 166.778 13.2955 166.221 12.209 165.676C11.5438 165.342 10.9889 164.926 10.4971 164.527C9.97908 164.107 9.58208 163.751 9.1026 163.4C8.28293 162.802 7.60342 162.271 6.91803 161.894C6.01713 161.397 5.01208 160.655 4.03815 159.991C2.98159 159.271 2.32407 158.648 1.78912 157.892C1.75075 157.837 1.66159 157.746 1.48444 157.609C1.28028 157.452 1.15399 157.374 0.90143 157.189C0.725274 157.059 0.428296 156.835 0.233461 156.541C0.124847 156.377 0.00326819 156.126 6.23607e-05 155.809C-0.00327714 155.471 0.127891 155.186 0.30182 154.975L0.629945 154.598C0.955127 154.245 1.26858 153.959 1.53424 153.717C1.90855 153.376 2.14135 153.162 2.30963 152.935C2.94431 152.075 4.19931 150.693 5.24127 149.803C5.61578 149.483 6.01922 149.168 6.40045 148.863C6.79015 148.552 7.17894 148.233 7.5694 147.872C8.66238 146.862 9.73263 145.768 10.1905 145.176C10.5662 144.69 10.9683 144.222 11.3594 143.766C11.7559 143.303 12.1454 142.847 12.5245 142.357C13.2085 141.473 13.7565 140.793 14.3311 140.046C15.2644 138.833 16.6193 137.383 17.377 136.51C17.7852 136.039 18.2069 135.483 18.7208 134.849C19.2109 134.244 19.7626 133.597 20.3477 133.075C21.1223 132.384 22.2024 131.411 23.2842 130.523C24.6142 129.431 25.6839 128.456 26.46 127.856C27.0491 127.4 27.5885 127.045 28.0528 126.732C28.5259 126.414 28.915 126.146 29.2745 125.833C29.9542 125.241 30.6838 124.682 31.252 124.241C31.7496 123.855 32.3774 123.294 33.2569 122.69C34.2525 122.007 34.921 121.539 36.4356 120.502C36.9872 120.124 37.3776 119.795 37.7618 119.461C38.1446 119.128 38.5493 118.764 39.0772 118.377C39.3808 118.154 39.6459 117.91 39.9327 117.64C40.2061 117.382 40.5232 117.076 40.8712 116.811C41.315 116.473 41.8431 116.194 42.2891 115.997C42.7052 115.814 43.1745 115.647 43.4962 115.606C44.0441 115.538 44.5439 115.927 44.6124 116.475C44.6806 117.023 44.292 117.522 43.7442 117.591C43.7604 117.589 43.7055 117.597 43.5626 117.645C43.4348 117.687 43.2735 117.749 43.0967 117.827C42.735 117.987 42.359 118.191 42.0831 118.401C41.8385 118.588 41.6092 118.808 41.3057 119.095C41.0156 119.368 40.6727 119.687 40.2608 119.989C39.8155 120.316 39.4833 120.615 39.0743 120.971C38.6667 121.325 38.2094 121.711 37.5655 122.152C36.039 123.198 35.4117 123.638 34.3897 124.34C33.5634 124.907 33.1192 125.324 32.4786 125.821C31.8932 126.276 31.2145 126.795 30.587 127.341C30.1232 127.745 29.6407 128.076 29.169 128.393C28.6886 128.716 28.2093 129.031 27.6837 129.438C26.9015 130.043 26.0405 130.847 24.5528 132.068C23.5101 132.924 22.4652 133.866 21.6788 134.567C21.2209 134.976 20.7534 135.516 20.2745 136.107C19.8193 136.669 19.3219 137.32 18.8878 137.82C18.0453 138.792 16.8046 140.112 15.9171 141.266C15.3761 141.969 14.726 142.781 14.1065 143.582C13.6925 144.117 13.2717 144.608 12.878 145.067C12.4791 145.533 12.1115 145.961 11.7725 146.399C11.206 147.132 10.0306 148.321 8.92682 149.341C8.48375 149.75 8.0514 150.104 7.65045 150.425C7.24097 150.752 6.88236 151.032 6.5401 151.324C5.6183 152.111 4.46673 153.38 3.91901 154.122C3.6095 154.541 3.21111 154.895 2.87995 155.196C2.68675 155.372 2.49643 155.547 2.30768 155.737C2.43759 155.83 2.59056 155.937 2.70514 156.025C2.92726 156.197 3.20776 156.434 3.42194 156.736C3.7838 157.248 4.24748 157.713 5.16412 158.338C6.24281 159.073 7.09281 159.707 7.88287 160.142C8.71436 160.6 9.54744 161.249 10.2823 161.786C10.8131 162.174 11.3297 162.627 11.7569 162.974C12.2104 163.342 12.6333 163.651 13.1055 163.888C14.1274 164.4 15.4616 164.846 17.1212 165.541C18.6608 166.186 19.4459 166.515 20.2735 166.773C21.4948 167.153 22.538 167.433 23.4258 167.819C23.9283 168.038 24.3262 168.335 24.6758 168.64C24.9759 168.901 25.3825 169.304 25.6778 169.573C26.3513 170.188 26.8631 170.324 27.6602 170.723C28.5507 171.168 29.5808 171.84 30.2423 172.323C31.2743 173.078 32.8643 174.34 33.5987 175.074C33.8137 175.289 34.1206 175.588 34.3751 176.021L34.4805 176.214L34.5284 176.311L34.5557 176.415C34.6588 176.818 34.6514 177.345 34.6514 177.676C34.6514 178.228 34.2035 178.676 33.6514 178.676C33.0991 178.676 32.6514 178.228 32.6514 177.676Z" fill="black"/>
<path d="M33.1119 176.844C33.641 176.686 34.1988 176.987 34.357 177.516C34.5149 178.045 34.2141 178.602 33.6852 178.76C33.3831 178.85 32.5632 179.217 31.8971 179.715C31.2995 180.163 30.7467 180.598 30.1295 181.113C29.4604 181.671 28.939 182.166 28.4361 182.745C27.7144 183.578 27.1562 184.064 26.3668 185.156C25.6085 186.204 25.4081 186.991 25.2086 187.76C25.3461 187.722 25.4978 187.667 25.6676 187.59C26.0746 187.407 26.3497 187.234 26.8492 186.984C27.0911 186.863 27.3662 186.674 27.6969 186.42C27.8596 186.295 28.0256 186.163 28.2027 186.022C28.3772 185.883 28.5621 185.735 28.7506 185.591C29.3995 185.095 29.9748 184.612 30.7359 183.977C31.4313 183.397 32.0368 182.792 32.5494 182.157C32.608 182.059 32.6717 181.939 32.7965 181.654C32.9315 181.345 33.1209 180.891 33.3189 180.183C33.4677 179.651 34.0195 179.34 34.5514 179.489C35.0831 179.637 35.3932 180.189 35.2447 180.721C35.0138 181.547 34.7875 182.093 34.6285 182.456C34.4755 182.806 34.3686 183.025 34.2232 183.257L34.193 183.305L34.1578 183.349C33.5389 184.127 32.8192 184.844 32.0172 185.513C31.2653 186.14 30.6545 186.652 29.9654 187.179C29.7955 187.309 29.626 187.445 29.4498 187.585C29.2764 187.724 29.0952 187.869 28.9146 188.007C28.5588 188.28 28.1612 188.563 27.7437 188.772C27.4427 188.922 26.9102 189.224 26.4879 189.414C26.0148 189.627 25.4375 189.826 24.7877 189.823C24.3978 189.821 23.8062 189.693 23.4195 189.232C23.0105 188.744 23.0215 188.147 23.1451 187.734L23.3199 187.073C23.5211 186.302 23.851 185.221 24.7467 183.983C25.5977 182.806 26.3579 182.088 26.9244 181.435C27.5157 180.753 28.1205 180.183 28.8482 179.577C29.4928 179.039 30.0735 178.582 30.6988 178.114C31.5482 177.478 32.5786 177.004 33.1119 176.844Z" fill="black"/>
</svg>
