<svg width="275" height="179" viewBox="0 0 275 179" fill="none" xmlns="http://www.w3.org/2000/svg">
<path d="M72.6341 3.26758C73.4858 3.20682 74.8277 3.12449 76.4251 3.16504H76.4417L76.4583 3.16699C76.7478 3.18713 77.0332 3.22053 77.2766 3.32519C77.4725 3.4094 77.6072 3.52687 77.7093 3.64453C78.0467 3.75608 78.4506 3.89576 78.7766 4.00488C79.418 4.21959 80.01 4.47308 80.6751 4.80469C81.2171 5.07495 81.6309 5.28762 81.9886 5.47168C82.3472 5.65625 82.6444 5.80985 82.9602 5.96777C83.6233 6.29929 84.1439 6.66931 84.6048 6.97656C85.2702 7.42028 85.9619 8.14893 86.385 8.75C86.5922 9.04432 86.8362 9.33637 87.0921 9.63574C87.3375 9.92296 87.6076 10.2324 87.8196 10.5225C88.1852 11.0228 88.6961 11.6237 89.1389 12.3613C89.5051 12.9713 89.7996 13.4633 90.1009 13.9648C90.4646 14.5704 90.7375 15.218 91.1165 16.1768C91.3921 16.8741 91.7092 17.5245 91.9016 18.1885C92.0805 18.8054 92.3192 19.6379 92.554 20.3447C92.7035 20.7948 92.7456 21.3061 92.7698 21.7793C92.7958 22.2869 92.8017 22.7621 92.8499 23.2939C92.9709 24.6291 92.928 25.544 92.8079 26.249C92.6893 26.9448 92.4912 27.4328 92.3772 27.7842C92.1324 28.5391 91.8287 29.4507 91.4944 30.2471C91.3493 30.5928 91.1803 30.9504 91.0218 31.2959C90.8601 31.6481 90.7025 32.001 90.5608 32.3691C90.3215 32.9912 90.0927 33.5695 89.7659 34.3066C89.2435 35.4849 88.7098 36.1493 88.1448 36.7998C87.6143 37.4106 86.727 38.2188 86.136 38.791C85.4045 39.4992 84.5376 40.2034 83.9309 40.6426C83.6149 40.8714 83.2815 41.0318 82.9807 41.165C82.6587 41.3076 82.4043 41.4076 82.1243 41.5479C81.7139 41.7534 81.2582 41.913 80.8723 42.0449C80.4591 42.1862 80.149 42.2889 79.929 42.3945C79.3054 42.6939 78.6675 42.9029 77.8802 43.0732C77.5859 43.1369 77.2903 43.2271 76.9729 43.3301C76.666 43.4296 76.3218 43.5467 75.9827 43.6426C75.2144 43.8598 74.0522 43.9708 70.9348 44.0322C69.3979 44.0625 68.4063 43.6931 67.553 43.4414C66.7948 43.2178 65.8984 42.9381 64.9378 42.6367C64.3244 42.4443 63.6755 42.1341 63.0833 41.8496C62.4675 41.5538 61.9063 41.2831 61.3928 41.1084C60.2466 40.7184 58.7775 39.6951 58.1516 39.2451C57.8589 39.0346 57.5493 38.8261 57.219 38.6016C56.8934 38.3801 56.5518 38.1454 56.2161 37.8936C55.5107 37.3645 55.0816 36.7508 54.6341 36.0605C53.8958 34.922 53.5208 34.2706 53.1468 33.7393C52.6785 33.0742 52.2455 32.3357 51.9114 31.6875C51.6924 31.2625 51.5375 30.8463 51.3968 30.4336C51.2519 30.009 51.1295 29.6119 50.9544 29.1436C50.7396 28.569 50.6654 27.8711 50.6253 27.209C50.6047 26.8699 50.5918 26.5156 50.5784 26.1719C50.5649 25.8242 50.5506 25.4825 50.5266 25.1494C50.4282 23.7803 50.383 21.1924 50.5266 19.501C50.625 18.3445 51.1481 17.2624 51.47 16.3828C51.7241 15.6883 51.9199 15.0089 52.2698 14.332C52.6814 13.5358 52.9448 12.88 53.3636 12.0234C53.7464 11.2403 54.45 10.4667 54.763 10.0547C55.1637 9.52716 56.0211 8.75083 56.677 8.19336C57.5011 7.4931 58.6905 6.8029 59.1194 6.50586C59.6802 6.11736 60.3219 5.79235 60.9905 5.56836C61.5614 5.37711 62.2482 5.12187 62.9856 4.93262C63.7119 4.74623 64.3974 4.54388 65.3323 4.41504C66.2126 4.29375 66.9663 4.14279 67.9114 3.97851C68.6548 3.84929 69.4594 3.73352 70.2493 3.63281C70.9824 3.53934 71.8462 3.41516 72.5442 3.2793L72.5891 3.27051L72.6341 3.26758ZM76.1048 4.65918C74.725 4.63643 73.561 4.70539 72.7796 4.76074C72.0431 4.90203 71.1648 5.02755 70.4387 5.12012C69.6637 5.21893 68.8829 5.33183 68.1682 5.45605C67.2671 5.6127 66.4521 5.77434 65.5374 5.90039C64.7103 6.01435 64.1326 6.18712 63.3587 6.38574C62.6909 6.5571 62.0996 6.7793 61.4671 6.99121C60.9338 7.16988 60.4192 7.42986 59.9739 7.73828C59.358 8.16493 58.4091 8.68982 57.6477 9.33691C56.9743 9.90929 56.2438 10.5848 55.9573 10.9619C55.507 11.5548 55.0084 12.0737 54.7112 12.6816C54.3667 13.3863 54.0003 14.2497 53.6018 15.0205C53.31 15.5852 53.1807 16.0744 52.8792 16.8984C52.4811 17.9862 52.0965 18.7371 52.0208 19.6279C51.8856 21.2191 51.928 23.725 52.0227 25.042C52.0486 25.4023 52.0639 25.7663 52.0774 26.1143C52.0911 26.4662 52.103 26.7996 52.1223 27.1182C52.1619 27.771 52.2292 28.2715 52.3587 28.6182C52.5435 29.1125 52.6877 29.5721 52.8167 29.9502C52.9496 30.3401 53.0761 30.6743 53.2444 31.001C53.5521 31.5979 53.9508 32.2748 54.3733 32.875C54.7625 33.4278 55.2147 34.1983 55.8928 35.2441C56.3274 35.9143 56.6365 36.334 57.1155 36.6934C57.4215 36.9228 57.739 37.1411 58.0628 37.3613C58.3822 37.5785 58.7133 37.8021 59.0266 38.0273C59.6848 38.5007 60.9767 39.3814 61.8762 39.6875C62.4933 39.8974 63.1438 40.2152 63.7327 40.498C64.3447 40.792 64.8943 41.0507 65.386 41.2051C66.3484 41.507 67.2336 41.7834 67.9778 42.0029C68.889 42.2717 69.6444 42.557 70.9046 42.5322C74.0664 42.4699 75.0261 42.3543 75.5745 42.1992C75.8771 42.1136 76.1723 42.0129 76.51 41.9033C76.8371 41.7972 77.1922 41.6868 77.5637 41.6064C78.2595 41.4559 78.7815 41.2811 79.2796 41.042C79.6015 40.8874 80.0246 40.7502 80.388 40.626C80.7787 40.4924 81.144 40.3606 81.4524 40.2061C81.7734 40.0452 82.1198 39.9062 82.3733 39.7939C82.6478 39.6724 82.8652 39.5622 83.0511 39.4277C83.6066 39.0256 84.4183 38.3662 85.093 37.7129C85.7497 37.0771 86.5381 36.3619 87.012 35.8164C87.5276 35.2228 87.9569 34.6871 88.3948 33.6992C88.7074 32.9942 88.9254 32.4418 89.1604 31.8311C89.3198 31.417 89.4941 31.029 89.6585 30.6709C89.826 30.306 89.978 29.9828 90.1106 29.667C90.4181 28.9347 90.7055 28.0766 90.9505 27.3213C91.0967 26.8703 91.2349 26.5513 91.3294 25.9971C91.4223 25.452 91.4694 24.6726 91.3567 23.4297C91.3052 22.8614 91.294 22.2907 91.2718 21.8555C91.2477 21.3855 91.2094 21.056 91.1302 20.8174C90.8842 20.077 90.6371 19.2132 90.4612 18.6064C90.2931 18.0264 90.0613 17.5872 89.722 16.7285C89.3414 15.7656 89.1082 15.2243 88.8157 14.7373C88.5148 14.2364 88.2175 13.7413 87.8528 13.1338C87.4543 12.4699 87.0639 12.0312 86.6087 11.4082C86.4391 11.1762 86.2168 10.9208 85.9514 10.6104C85.6964 10.3119 85.4106 9.97236 85.1585 9.61426C84.8185 9.13135 84.2536 8.54526 83.7727 8.22461C83.2708 7.88997 82.847 7.58842 82.2893 7.30957C81.9637 7.14673 81.6566 6.98767 81.303 6.80566C80.948 6.62298 80.5402 6.41375 80.0061 6.14746C79.3889 5.83973 78.862 5.61484 78.3001 5.42676C77.9187 5.2991 77.5445 5.16854 77.1917 5.05273C77.0206 4.99657 76.8693 4.94917 76.7454 4.91406C76.6837 4.89659 76.6328 4.88249 76.5921 4.87305C76.5722 4.86844 76.5563 4.86559 76.5442 4.86328C76.5382 4.86214 76.5329 4.86089 76.5296 4.86035C76.528 4.8601 76.5265 4.86047 76.5257 4.86035L76.5247 4.85937C76.3602 4.83888 76.2167 4.76491 76.1048 4.65918Z" fill="black"/>
<path d="M84.5507 7.56341e-07C84.9648 0.000157396 85.3007 0.335884 85.3007 0.750001C85.3007 1.16412 84.9648 1.49984 84.5507 1.5C83.9686 1.5 83.4392 1.50063 83.1064 1.51953C82.7336 1.54073 82.7474 1.56422 82.417 1.59668L82.3974 1.59863C82.0118 1.62646 81.6336 1.6829 81.2109 1.74902C80.7949 1.8141 80.3368 1.88805 79.832 1.9375C79.6107 1.95918 79.3956 1.97253 79.1963 1.98438C78.9929 1.99646 78.8081 2.00716 78.625 2.02344C78.2629 2.05563 77.9414 2.10812 77.625 2.21973C76.9334 2.46368 76.3296 2.66926 75.7744 2.87598C75.4558 2.9946 74.9486 3.22684 74.417 3.47363C73.909 3.70941 73.3717 3.96188 73.0488 4.09082C72.6642 4.24434 72.2279 4.05731 72.0742 3.67285C71.9207 3.28827 72.1077 2.85193 72.4922 2.69824C72.7653 2.58919 73.2472 2.36199 73.7851 2.11231C74.2994 1.87359 74.8657 1.61418 75.2509 1.4707C75.8223 1.25797 76.4545 1.04153 77.1259 0.804688C77.6078 0.634721 78.0675 0.567052 78.4922 0.529298C78.7021 0.510639 78.9118 0.498929 79.1074 0.487305C79.3073 0.475426 79.4968 0.462916 79.6865 0.444337C80.1402 0.399871 80.5536 0.334196 80.9795 0.267579C81.393 0.202892 81.8217 0.137833 82.2705 0.104493V0.103516C82.3443 0.0961971 82.6751 0.0411524 83.0205 0.0214851C83.4065 -0.000461716 83.9887 7.56341e-07 84.5507 7.56341e-07Z" fill="black"/>
<path d="M86.9548 2.52417C87.369 2.52417 87.7048 2.85996 87.7048 3.27417C87.7048 3.68838 87.369 4.02417 86.9548 4.02417C86.1299 4.02417 85.3553 4.02406 84.8757 4.0437C84.3582 4.06491 84.3106 4.09526 83.9177 4.1228H83.9099L83.9031 4.12378C82.7663 4.18121 82.0317 4.33812 81.2859 4.57202C80.8154 4.71959 80.3279 4.88948 79.907 5.03394C79.7 5.10496 79.5062 5.17157 79.3445 5.22241C79.2005 5.26767 79.0262 5.31875 78.8865 5.33862C78.4764 5.39689 78.0971 5.11196 78.0388 4.7019C77.9805 4.29185 78.2655 3.91258 78.6755 3.85425C78.6778 3.85374 78.7388 3.83966 78.8943 3.79077C79.0354 3.74642 79.2132 3.68716 79.4206 3.61597C79.8288 3.47589 80.3425 3.29568 80.8376 3.14038C81.6987 2.87035 82.5548 2.69129 83.8132 2.62671C83.9864 2.61452 84.3351 2.5653 84.8142 2.54565C85.3323 2.52443 86.1451 2.52417 86.9548 2.52417Z" fill="black"/>
<path d="M82.9644 11.1023C83.3743 11.0442 83.7537 11.3291 83.812 11.739C83.8703 12.149 83.5853 12.5283 83.1753 12.5867C83.1937 12.5841 83.1875 12.5839 83.1499 12.5955C83.1173 12.6055 83.0738 12.6209 83.023 12.6414C82.9191 12.6833 82.8064 12.7379 82.7124 12.7957C82.4394 12.9634 82.2938 13.0767 81.9624 13.2888C81.837 13.3691 81.7085 13.4637 81.5474 13.5828C81.3916 13.6979 81.2104 13.8327 81.0054 13.9695C80.8208 14.0926 80.7178 14.2239 80.4722 14.5047C80.277 14.7822 80.1521 15.0096 80.0689 15.2283L80.063 15.242L80.0581 15.2556C80.0421 15.2933 80.026 15.3254 80.0142 15.3494C79.9995 15.3792 79.9943 15.3893 79.981 15.4168C79.96 15.4597 79.9292 15.5253 79.8823 15.6375C79.7226 16.0196 79.283 16.2004 78.9009 16.0408C78.5187 15.8811 78.3379 15.4415 78.4976 15.0593C78.5557 14.9203 78.5985 14.8288 78.6323 14.7595C78.6461 14.7313 78.6644 14.6955 78.6694 14.6853C78.6755 14.673 78.6769 14.6685 78.6773 14.6677H78.6782C78.8219 14.2988 79.0201 13.958 79.2681 13.6092L79.2905 13.5779L79.3159 13.5486C79.5069 13.3313 79.772 12.9885 80.1724 12.7215C80.3429 12.6077 80.4968 12.4939 80.6567 12.3758C80.8111 12.2617 80.9795 12.1378 81.1538 12.0261C81.3443 11.9042 81.687 11.665 81.9273 11.5174C82.105 11.4081 82.2947 11.317 82.4614 11.2498C82.6143 11.1881 82.8011 11.1255 82.9644 11.1023Z" fill="black"/>
<path d="M84.335 15.3877C84.7275 15.2575 85.1511 15.4696 85.2823 15.8613C85.328 15.8763 85.3895 15.8983 85.4483 15.9277C85.5495 15.9785 85.7368 16.0945 85.8516 16.3232L85.8956 16.4287L85.9591 16.6475C86.0755 17.132 86.0804 17.7514 85.9932 18.3242C86.0035 18.3737 86.0098 18.425 86.0098 18.4775C86.0098 18.6528 86.0004 18.8235 85.8975 19.1943C85.877 19.2682 85.851 19.3511 85.8233 19.4404C85.8195 19.4716 85.8163 19.5022 85.8126 19.5322C85.7807 19.7915 85.7442 20.0819 85.6358 20.3643C85.5582 20.5665 85.4559 20.8287 85.3223 21.0781C85.1899 21.3254 85.0012 21.6096 84.7227 21.8301C84.7157 21.8357 84.7076 21.8409 84.7003 21.8467C84.692 21.8589 84.685 21.8718 84.6768 21.8838C84.4575 22.2028 84.154 22.5546 83.6983 22.6826C83.6049 22.7088 83.4381 22.7435 83.2432 22.7061C83.1141 22.6812 82.9838 22.6255 82.8692 22.5361C82.7975 22.5318 82.7237 22.5255 82.6485 22.5137C82.5702 22.5013 82.2847 22.4601 82.0577 22.2217C81.8233 21.9751 81.7888 21.6724 81.7872 21.4834C81.7771 20.2763 81.841 19.868 81.8741 19.4853C81.9036 19.1439 81.9448 18.6249 82.1436 18.1738C82.2728 17.8809 82.4672 17.3787 82.7237 17.0244C82.7851 16.9395 82.8199 16.8576 82.921 16.6533C83.0069 16.4796 83.1431 16.2183 83.3878 15.9941C83.6995 15.7086 84.0797 15.4724 84.335 15.3877Z" fill="black"/>
<path d="M72.3253 29.5144C72.681 29.3026 73.1416 29.4195 73.3536 29.7751C73.3313 29.7377 73.3151 29.7203 73.3253 29.7322C73.3316 29.7395 73.3452 29.7547 73.3683 29.7781C73.4144 29.8248 73.4804 29.8877 73.5646 29.9626C73.6382 30.0282 73.7461 30.1052 74.465 30.4031C74.6623 30.4848 74.7989 30.534 74.9425 30.5886C75.0834 30.6421 75.2314 30.7018 75.3946 30.7927C75.4632 30.8309 75.5405 30.8627 75.6749 30.9079C75.7947 30.9483 76.0056 31.0132 76.2267 31.0925C77.0059 31.372 77.2986 31.4233 77.6329 31.4773C78.0921 31.5514 78.804 31.6747 79.2775 31.7546C79.4089 31.7768 79.4962 31.7844 79.6407 31.8044C79.7652 31.8217 79.93 31.8487 80.0997 31.9089C80.1167 31.9149 80.1494 31.9224 80.2443 31.9285C80.3056 31.9324 80.3327 31.9334 80.4181 31.9382C80.4872 31.9421 80.5706 31.9478 80.6612 31.9597C81.0208 32.0068 81.1654 32.043 81.4894 32.0788C81.6701 32.0989 81.9868 32.1106 82.3761 32.1208C82.7474 32.1306 83.1707 32.1396 83.5167 32.157C83.767 32.1696 83.9771 32.1765 84.4718 32.197C85.0511 32.221 85.5466 32.2187 85.9132 32.2087C86.0963 32.2038 86.2463 32.1969 86.3575 32.1902C86.4132 32.1868 86.4585 32.1842 86.4923 32.1814C86.5091 32.18 86.5224 32.1785 86.5323 32.1775C86.5425 32.1765 86.547 32.1755 86.547 32.1755C86.8042 32.1418 87.0023 32.1293 87.1691 32.1189C87.3368 32.1084 87.4562 32.1009 87.5958 32.0818C88.0027 32.0262 88.327 31.9817 88.628 31.9255C88.7165 31.9065 88.8253 31.8835 88.9054 31.865C88.988 31.8459 89.0724 31.8244 89.2042 31.8054C89.6142 31.7463 89.9948 32.0312 90.0538 32.4412C90.1129 32.8511 89.8281 33.2317 89.4181 33.2908C89.3594 33.2992 89.3367 33.3051 89.2423 33.3269C89.1498 33.3482 89.0259 33.3752 88.9278 33.3962L88.9083 33.4001C88.5616 33.465 88.194 33.5141 87.7989 33.5681C87.5949 33.596 87.4186 33.6062 87.2618 33.616C87.1042 33.6258 86.9475 33.636 86.7423 33.6628C86.5297 33.6907 85.6298 33.7456 84.4103 33.6951C83.9277 33.6751 83.7005 33.668 83.4415 33.655C83.1193 33.6388 82.7251 33.6311 82.337 33.6208C81.9668 33.6111 81.5807 33.5984 81.3243 33.5701C81.0414 33.5387 80.6475 33.4707 80.4669 33.447C80.3707 33.4344 80.3163 33.4362 80.1485 33.4255C80.008 33.4165 79.8113 33.3978 79.5978 33.322C79.5781 33.315 79.5387 33.3052 79.4347 33.2908C79.3509 33.2791 79.1844 33.2596 79.0275 33.2331C78.5418 33.1511 77.846 33.0308 77.3937 32.9578C76.9704 32.8894 76.588 32.8151 75.7198 32.5037C75.5099 32.4284 75.3763 32.3894 75.1964 32.3288C75.0314 32.2733 74.853 32.2069 74.6651 32.1023C74.5989 32.0654 74.5315 32.0364 74.4093 31.99C74.2899 31.9446 74.1153 31.8818 73.8907 31.7888C73.2103 31.5069 72.8611 31.3443 72.5675 31.0828C72.4698 30.9957 72.3777 30.9096 72.3009 30.8318C72.2411 30.7712 72.1364 30.6632 72.0646 30.5427C71.8528 30.187 71.9697 29.7265 72.3253 29.5144Z" fill="black"/>
<path d="M61.2042 40.9285C61.4971 40.6356 61.9729 40.6356 62.2658 40.9285C62.5583 41.2213 62.5583 41.6962 62.2658 41.989C62.1707 42.0841 61.8608 42.476 61.6779 42.8728C61.421 43.4303 61.0324 44.0384 60.758 44.531C60.4959 45.0015 60.2521 45.425 60.0265 45.7634C59.8287 46.0602 59.5454 46.5565 59.2218 47.1638C59.0816 47.427 58.9287 47.7359 58.7648 48.0632C58.6041 48.3842 58.4334 48.7214 58.2687 49.0173C57.9761 49.543 57.8178 49.9291 57.6886 50.3162L57.6798 50.3445L57.6681 50.3728C57.6335 50.4542 57.5943 50.5244 57.5734 50.5632C57.5482 50.6101 57.541 50.6245 57.5363 50.6355C57.5324 50.6445 57.5311 50.6492 57.5167 50.6853C57.5053 50.7141 57.4873 50.7591 57.463 50.8093C57.4105 50.9179 57.3335 51.0416 57.213 51.1638C56.9223 51.4589 56.4475 51.4624 56.1525 51.1716C55.8669 50.8902 55.855 50.4367 56.1183 50.1404C56.1193 50.1378 56.1209 50.135 56.1222 50.1316C56.1241 50.1269 56.1266 50.1222 56.1291 50.116C56.1313 50.1101 56.1339 50.1028 56.1369 50.0955C56.1427 50.0808 56.1503 50.0616 56.1593 50.0408C56.1939 49.9608 56.2321 49.8905 56.2521 49.8533C56.2707 49.8188 56.2786 49.8027 56.2833 49.7927C56.4376 49.338 56.6297 48.877 56.9582 48.2869C57.1048 48.0233 57.2615 47.7139 57.423 47.3914C57.5813 47.0751 57.7459 46.7426 57.8976 46.4578C58.2242 45.8449 58.5369 45.2927 58.7785 44.9304C58.9682 44.6458 59.1872 44.2686 59.4474 43.8015C59.7961 43.1756 60.0874 42.74 60.3156 42.2449C60.576 41.6798 60.9897 41.1431 61.2042 40.9285Z" fill="black"/>
<path d="M54.1399 50.3035C54.3244 49.9327 54.775 49.7812 55.1458 49.9656C55.2971 50.0408 55.4119 50.1497 55.4788 50.2175C55.5564 50.2962 55.6299 50.3845 55.6956 50.4695C55.8275 50.6401 55.9603 50.8387 56.0725 51.0212C56.2527 51.3144 56.4488 51.6354 57.0384 52.324C57.8576 53.2809 58.1289 53.6544 58.43 54.031C58.6326 54.2845 59.0545 54.7588 59.3245 55.199L59.4778 55.4177C59.5286 55.4864 59.5837 55.5558 59.6419 55.6248C59.6965 55.6745 59.833 55.7983 60.0003 56.0203C60.2493 56.3509 60.1833 56.8208 59.8528 57.0701C59.522 57.3194 59.0513 57.2534 58.802 56.9226C58.7428 56.8441 58.7068 56.806 58.6848 56.7839C58.6719 56.771 58.6592 56.7587 58.6389 56.74C58.621 56.7234 58.5893 56.6944 58.5569 56.6619L58.5374 56.6423L58.5188 56.6209C58.3378 56.4095 58.1899 56.2012 58.0764 56.031L58.0569 55.9998C57.8574 55.6668 57.5573 55.3418 57.2581 54.9675C56.9363 54.565 56.696 54.2308 55.8987 53.2996C55.2476 52.539 55.0061 52.1512 54.7942 51.8064C54.6988 51.6512 54.5971 51.5003 54.5091 51.3865C54.4657 51.3305 54.4334 51.2928 54.4124 51.2712C54.0901 51.0687 53.9669 50.6515 54.1399 50.3035Z" fill="black"/>
<path d="M55.5858 54.093C55.8448 53.8147 56.2782 53.7726 56.5877 54.0071C56.8825 54.2306 56.9647 54.6296 56.8006 54.9475C56.7927 54.978 56.7807 55.0285 56.7665 55.1057C56.7336 55.284 56.7033 55.4946 56.6542 55.7883C56.5732 56.2721 56.5525 56.6206 56.5428 56.9065C56.5339 57.1688 56.5351 57.4828 56.4852 57.7756C56.4407 58.0372 56.4109 58.3254 56.3788 58.6291C56.3484 58.916 56.314 59.2353 56.2596 59.4993C56.2269 59.6582 56.2064 59.8868 56.1864 60.1897C56.1677 60.4714 56.1497 60.8139 56.1151 61.1282C56.0886 61.3686 56.0511 61.628 56.0165 61.8772C55.981 62.1322 55.9461 62.3897 55.9217 62.6565C55.868 63.2454 55.7214 63.8627 55.6239 64.3254C55.5135 64.8494 55.4263 65.3891 55.3905 65.8039C55.3648 66.1015 55.3086 66.3983 55.2635 66.6535C55.2164 66.9204 55.1759 67.1719 55.159 67.4446C55.1433 67.6992 55.1101 67.9487 55.0819 68.1975C55.0527 68.4548 55.0224 68.7566 55.0038 69.1682C54.9887 69.501 54.9289 69.8053 54.8807 70.0618C54.8308 70.3273 54.787 70.5726 54.7704 70.8635C54.7525 71.1748 54.7109 71.4435 54.6698 71.6897C54.6277 71.9415 54.5889 72.157 54.5594 72.4114C54.5151 72.7942 54.4924 73.1472 54.4735 73.4944C54.455 73.8349 54.4386 74.1857 54.4042 74.5266C54.3442 75.1187 54.2385 76.6988 54.1737 77.7756C54.1446 78.2596 54.1075 78.6236 54.0731 78.9299C54.0381 79.242 54.0093 79.4649 53.9911 79.7063C53.9701 79.9835 53.9401 80.2562 53.911 80.5061C53.8812 80.7613 53.8533 80.9868 53.8348 81.1946C53.8081 81.4956 53.7641 81.8388 53.7215 82.1897C53.6782 82.5475 53.634 82.9325 53.6024 83.3489L53.6004 83.3684L53.5985 83.3869C53.564 83.6551 53.5386 83.9926 53.5262 84.4162V84.4309L53.5252 84.4465C53.5171 84.563 53.5044 84.658 53.494 84.7414C53.4836 84.8251 53.4718 84.9233 53.4598 85.0774C53.4276 85.4903 53.0661 85.799 52.6532 85.7668C52.2404 85.7345 51.9316 85.374 51.9637 84.9612C51.9781 84.7767 51.9925 84.6541 52.0047 84.5559C52.017 84.4575 52.0235 84.4088 52.0282 84.342C52.0418 83.8983 52.0686 83.5199 52.1102 83.1965C52.1441 82.761 52.1894 82.3627 52.2323 82.009C52.2773 81.6378 52.3167 81.3315 52.3407 81.0618C52.3615 80.8279 52.3925 80.575 52.4208 80.3323C52.4497 80.0841 52.4775 79.8383 52.496 79.594C52.517 79.3164 52.551 79.0459 52.5829 78.7619C52.6154 78.472 52.6496 78.1357 52.6766 77.6858C52.741 76.616 52.8484 75.0047 52.912 74.3762C52.942 74.0793 52.9569 73.7731 52.9764 73.4133C52.9956 73.0603 53.0193 72.6692 53.0692 72.2385C53.1043 71.936 53.1526 71.6685 53.1903 71.4426C53.229 71.2111 53.2592 71.0062 53.2723 70.7776C53.295 70.3823 53.3553 70.0549 53.4061 69.7844C53.4587 69.5047 53.4963 69.3087 53.5057 69.1008C53.5264 68.6452 53.56 68.3078 53.5917 68.0285C53.6243 67.741 53.6494 67.5558 53.662 67.3518C53.6844 66.9893 53.7383 66.6672 53.787 66.3918C53.8377 66.1048 53.8778 65.8895 53.8963 65.675C53.9391 65.1806 54.0378 64.5773 54.1561 64.0159C54.2663 63.493 54.3851 62.997 54.4286 62.5207C54.4563 62.2169 54.494 61.9301 54.5301 61.6701C54.5672 61.4041 54.6004 61.1768 54.6239 60.9641C54.6538 60.6928 54.6696 60.4033 54.6903 60.091C54.7096 59.7997 54.7343 59.4712 54.7909 59.1965C54.8275 59.0188 54.8541 58.7786 54.8866 58.4719C54.9173 58.182 54.9525 57.8418 55.0067 57.5237C55.0342 57.362 55.0318 57.2091 55.0438 56.8557C55.055 56.5256 55.0797 56.1085 55.1747 55.5412C55.2164 55.2917 55.2569 55.0232 55.2919 54.8332C55.31 54.7346 55.3311 54.6305 55.3573 54.5364C55.3758 54.4698 55.4239 54.3008 55.537 54.1516L55.5858 54.093Z" fill="black"/>
<path d="M59.866 63.9897C60.0957 63.6452 60.5614 63.5522 60.906 63.7817C61.2506 64.0115 61.3438 64.4771 61.114 64.8218C61.0612 64.901 61.0098 64.978 60.9578 65.0561C60.855 65.2103 60.7025 65.4388 60.4988 65.7573C60.3816 65.9617 60.2321 66.1742 60.1599 66.2856C60.065 66.4321 60.0112 66.5373 59.9802 66.647C59.8202 67.2131 59.571 67.788 59.364 68.2192C59.1624 68.6391 59.0075 68.8895 58.8728 69.2554C58.7779 69.5132 58.6485 69.7446 58.5515 69.9185C58.4447 70.1099 58.3741 70.2391 58.3259 70.3657C58.1776 70.7555 57.9782 71.1575 57.8201 71.5239C57.6684 71.8752 57.5287 72.2909 57.4138 72.6997C57.3023 73.0968 57.2083 73.4837 57.0456 74.1841C56.9057 74.7866 56.745 75.2378 56.6072 75.6265C56.5194 75.8738 56.4128 76.1214 56.3201 76.3384C56.2232 76.565 56.1405 76.76 56.0779 76.9419C55.9194 77.4017 55.7277 77.8113 55.5525 78.1763C55.367 78.5626 55.2265 78.83 55.1501 79.1352C55.0399 79.5761 54.8791 80.1059 54.6267 80.6108C54.5454 80.7735 54.4772 80.9561 54.3747 81.2368C54.2752 81.5096 54.1525 81.848 53.9704 82.271C53.806 82.6532 53.7124 83.1898 53.6902 83.3901C53.6446 83.8018 53.2737 84.0988 52.862 84.0532C52.4506 84.0074 52.1544 83.6366 52.1999 83.2251C52.2292 82.9612 52.3434 82.257 52.5925 81.6782C52.7563 81.2977 52.8664 80.9939 52.9656 80.7222C53.0618 80.4584 53.1586 80.1935 53.2849 79.9409C53.4683 79.574 53.5976 79.1616 53.6951 78.772C53.8179 78.2806 54.0487 77.842 54.1999 77.5269C54.3732 77.166 54.5321 76.8245 54.6599 76.4536C54.7432 76.2118 54.848 75.9665 54.9412 75.7485C55.0385 75.5209 55.1251 75.3189 55.1941 75.1245C55.3308 74.7392 55.4656 74.3581 55.5847 73.8452C55.7474 73.1447 55.8477 72.728 55.9695 72.2944C56.0971 71.8402 56.258 71.3579 56.4431 70.9292C56.6527 70.4438 56.7857 70.1939 56.9236 69.8315C57.0179 69.5837 57.148 69.3564 57.2419 69.188C57.3458 69.0018 57.4173 68.8689 57.4656 68.7378C57.6317 68.2863 57.8763 67.8514 58.0115 67.5698C58.2024 67.1721 58.4106 66.6854 58.5369 66.2388C58.6275 65.9181 58.7739 65.6667 58.9011 65.4702C59.0461 65.2463 59.1227 65.15 59.2107 64.9907L59.2224 64.9702L59.2351 64.9497C59.4467 64.6188 59.6056 64.3803 59.7097 64.2241C59.7618 64.146 59.8131 64.069 59.866 63.9897Z" fill="black"/>
<path d="M61.2526 55.7007C61.7199 55.3391 62.2959 55.3716 62.6433 55.4282C63.0478 55.4942 63.4341 55.6435 63.6306 55.7173C63.9958 55.8544 64.3793 56.1432 64.6862 56.395C65.0105 56.6611 65.3546 56.9759 65.6276 57.2173C66.1208 57.6534 66.3205 58.2587 66.4226 58.7388C66.5452 59.3165 66.3565 59.8789 66.196 60.2583C66.1102 60.4612 66.0139 60.6515 65.9353 60.8062C65.8499 60.9741 65.7951 61.0822 65.7605 61.1655C65.5017 61.7877 65.3259 62.2698 65.1472 62.6421C64.9802 62.99 64.7162 63.5539 64.323 64.0278C63.7704 64.6936 62.8726 65.0618 62.3181 65.2085H62.3161C62.0761 65.2715 61.8884 65.3263 61.7146 65.3745C61.598 65.4069 61.4693 65.4383 61.3464 65.4624C61.3451 65.4632 61.3439 65.4644 61.3425 65.4653C61.3299 65.4734 61.3164 65.4827 61.2956 65.4966C60.951 65.7263 60.4854 65.6331 60.2556 65.2886C60.2113 65.2222 60.1817 65.1505 60.1608 65.0776C60.0347 65.0159 59.9237 64.9192 59.8464 64.7896C59.8723 64.833 59.8882 64.8436 59.8317 64.7818C59.7766 64.7214 59.7442 64.6898 59.6569 64.5952C59.5143 64.4406 59.3226 64.2235 59.1521 63.9644C58.8762 63.5453 58.7969 63.0629 58.7663 62.6235C58.7365 62.1949 58.7482 61.6585 58.7419 61.1392C58.7368 60.7127 58.8305 60.3424 58.9265 60.0474C58.9736 59.9024 59.025 59.764 59.0651 59.6548C59.1081 59.5377 59.1387 59.4534 59.1589 59.3814C59.2796 58.9519 59.4812 58.4959 59.6628 58.1138C59.8642 57.6901 60.0131 57.4101 60.1159 57.1792C60.3959 56.5507 60.7978 56.1122 61.1608 55.7778L61.2526 55.7007ZM62.4021 56.9087C62.2497 56.8839 62.1804 56.8942 62.1589 56.8989C61.8814 57.1568 61.6467 57.4289 61.486 57.7896C61.3812 58.0249 61.1727 58.4304 61.0173 58.7573C60.8421 59.1259 60.6867 59.4871 60.6023 59.7876C60.5642 59.9231 60.5153 60.0582 60.4733 60.1724C60.4286 60.2943 60.3895 60.3998 60.3532 60.5112C60.2822 60.7294 60.2395 60.925 60.2419 61.1216C60.2492 61.7276 60.2365 62.147 60.2624 62.52C60.2876 62.8822 60.345 63.048 60.405 63.1392C60.5078 63.2953 60.6337 63.4414 60.7595 63.5776C60.8063 63.6283 60.8964 63.7242 60.9392 63.771C60.9751 63.8104 61.044 63.8901 61.1042 63.98C61.1503 63.9692 61.2173 63.9558 61.3132 63.9292C61.4668 63.8866 61.6819 63.8238 61.9353 63.7573C62.3661 63.6432 62.9079 63.3841 63.1687 63.0698C63.4239 62.7622 63.6132 62.3707 63.7946 61.9927C63.9527 61.6634 64.0753 61.3118 64.3757 60.5894C64.438 60.4395 64.5266 60.2677 64.5983 60.1265C64.677 59.9718 64.7509 59.8228 64.8142 59.6734C64.9517 59.3482 64.9774 59.1526 64.9558 59.0503C64.8758 58.6739 64.7634 58.4562 64.6335 58.3413C64.3318 58.0745 64.0298 57.7979 63.7341 57.5552C63.4209 57.2982 63.2097 57.1616 63.1032 57.1216C62.8843 57.0394 62.6358 56.9468 62.4021 56.9087Z" fill="black"/>
<path d="M59.2004 63.4482C59.5714 63.3656 59.9521 63.5759 60.0744 63.9443C60.1917 64.2978 60.0305 64.6752 59.7112 64.8428C59.7 64.8521 59.6814 64.8681 59.6545 64.8936C59.5765 64.9674 59.4701 65.0791 59.3293 65.2324C59.1002 65.482 58.8839 65.7176 58.6408 66.001C58.0223 66.7222 57.4794 67.1018 57.009 67.544L57.008 67.543C56.8885 67.6625 56.791 67.7628 56.7043 67.8389C56.6573 67.8801 56.6092 67.9178 56.5803 67.9414C56.5473 67.9683 56.5049 68.0039 56.4377 68.0635C56.128 68.3383 55.6541 68.3105 55.3791 68.001C55.1043 67.6913 55.1321 67.2174 55.4416 66.9424C55.5263 66.8672 55.5852 66.8185 55.6321 66.7803C55.683 66.7387 55.6945 66.73 55.7151 66.7119C55.7597 66.6727 55.8212 66.6107 55.9651 66.4668L55.9739 66.459L55.9817 66.4512C56.6504 65.8226 56.9394 65.6817 57.5032 65.0244C57.7633 64.7211 57.9928 64.4694 58.2239 64.2178C58.3682 64.0605 58.5046 63.916 58.6233 63.8037C58.6825 63.7477 58.7479 63.689 58.8157 63.6377C58.8713 63.5955 58.982 63.5166 59.1262 63.4688L59.2004 63.4482Z" fill="black"/>
<path d="M52.6536 68.4341C52.9981 68.2732 53.4156 68.3964 53.6145 68.73C53.8025 69.0456 53.7309 69.4425 53.4641 69.6763C53.4393 69.707 53.403 69.7561 53.3499 69.8296C53.2507 69.9667 53.1058 70.1731 52.9466 70.3813C52.5503 70.8996 52.0997 71.169 51.9007 71.3169C51.2145 71.8269 50.5776 72.0802 50.2737 72.189C49.9956 72.3154 49.7493 72.3788 49.5696 72.4106L49.5462 72.4155L49.5237 72.4175C49.5113 72.4189 49.4964 72.4197 49.4895 72.4204C49.4812 72.4242 49.4686 72.4321 49.4505 72.4419C49.0861 72.6386 48.6308 72.5025 48.4339 72.1382C48.2371 71.7738 48.3733 71.3185 48.7376 71.1216C48.8722 71.0488 48.997 70.9973 49.1224 70.9653C49.2012 70.9452 49.278 70.9349 49.3206 70.9302C49.4118 70.9132 49.5396 70.8815 49.6839 70.812L49.72 70.7944L49.7581 70.7808C49.9807 70.7016 50.4735 70.5088 51.0052 70.1138C51.3258 69.8754 51.5229 69.7727 51.7542 69.4702C51.8974 69.2829 52.021 69.1083 52.135 68.9507C52.1885 68.8768 52.2453 68.7992 52.2972 68.7349C52.323 68.7029 52.3551 68.6647 52.3909 68.6274C52.4179 68.5993 52.4873 68.5282 52.5862 68.4692L52.6536 68.4341Z" fill="black"/>
<path d="M44.4154 42.7908C44.9997 42.7386 46.8036 42.5928 48.3764 42.822C49.0292 42.9172 49.764 43.0572 50.4008 43.2214C50.7186 43.3034 51.0234 43.394 51.2865 43.4929C51.533 43.5856 51.8057 43.7078 52.0131 43.8728C52.3721 44.1585 53.1035 44.6366 53.514 45.3855C54.1084 46.4701 54.3455 47.0268 54.5238 47.5505C54.7286 48.1523 54.7836 48.915 54.7836 49.1912C54.7834 49.6052 54.4477 49.9412 54.0336 49.9412C53.8184 49.941 53.6253 49.8491 53.4887 49.7038C53.207 49.7036 52.9427 49.5471 52.8158 49.2869C52.8062 49.2842 52.7959 49.2812 52.7846 49.2781L52.7689 49.2742L52.7533 49.2693C52.5641 49.2087 52.3804 49.132 52.2191 49.0632C52.0493 48.9908 51.9001 48.9248 51.7387 48.864C51.428 48.7469 51.1078 48.6619 50.7269 48.657C50.2065 48.6502 49.7467 48.6195 49.2396 48.6296C48.7469 48.6395 48.3521 48.6897 48.0687 48.8005C47.5279 49.0121 47.2332 49.1296 46.9027 49.3494C46.518 49.6053 45.8832 50.1027 45.1889 50.5027C45.039 50.589 44.9213 50.6856 44.7387 50.8376C44.559 50.9872 44.3336 51.1755 44.018 51.3718C43.8218 51.4938 43.6681 51.6175 43.4652 51.7781C43.2665 51.9353 43.0319 52.1176 42.7211 52.2947C41.9196 52.751 41.6278 52.9636 41.0414 53.4509C40.7976 53.6536 40.5276 53.911 40.1664 54.2537C39.8113 54.5905 39.3843 54.993 38.8519 55.4607C38.3246 55.9239 37.9282 56.3234 37.5707 56.6531C37.3131 56.8907 36.9801 57.3303 36.7992 57.6579C36.7747 57.7023 36.7468 57.7668 36.7055 57.8747C36.6705 57.9659 36.6175 58.1094 36.5599 58.2371C36.4626 58.4529 36.2094 58.9651 35.6097 59.0701C35.3354 59.118 35.0663 59.0628 34.8715 59.0183C34.6849 58.9757 34.3573 58.888 34.0463 58.8132C33.3326 58.6416 32.7157 58.3324 32.4066 58.2117C32.3115 58.1745 32.1963 58.1396 32.0512 58.0994C31.9186 58.0626 31.7437 58.0173 31.5853 57.9685C31.2926 57.8783 30.8309 57.7175 30.5209 57.3425C30.4823 57.2958 30.4018 57.1968 30.3383 57.072C30.2828 56.9632 30.1667 56.6933 30.267 56.3699L30.3314 56.2038C30.3552 56.1516 30.3802 56.1039 30.3998 56.0662C30.4458 55.9778 30.5021 55.8762 30.5599 55.7732C30.6797 55.56 30.8179 55.317 30.9525 55.0554C31.2267 54.5226 31.5259 54.091 31.8363 53.7009C32.0203 53.4698 32.2379 53.2221 32.4144 53.0124C32.6019 52.7899 32.7653 52.5841 32.8978 52.3816C33.2678 51.8161 33.6369 51.0468 34.4955 49.9031C35.0957 49.1036 35.4904 48.7174 36.1596 47.9353C36.7605 47.2329 37.0695 46.8508 37.7015 46.2751C38.0159 45.9888 38.415 45.3993 39.6303 44.6472C40.4633 44.1317 41.5528 43.5301 42.6742 43.1941C43.3044 43.0053 43.8703 42.8395 44.4154 42.7908ZM48.1605 44.3064C46.779 44.105 45.1311 44.2328 44.5482 44.2849C44.1816 44.3177 43.7649 44.4329 43.1049 44.6306C42.1734 44.9097 41.2175 45.4293 40.4203 45.9226C39.3549 46.5819 39.2516 46.8913 38.7113 47.3835C38.1617 47.8842 37.9154 48.1897 37.2992 48.9099C36.5572 49.777 36.2599 50.0529 35.6957 50.8044C34.8499 51.9311 34.665 52.4212 34.1537 53.2029C33.9702 53.4834 33.7587 53.7446 33.5619 53.9783C33.3541 54.225 33.1778 54.4239 33.0101 54.6345C32.7464 54.9659 32.5061 55.3152 32.2865 55.7419C32.1418 56.0232 31.9929 56.2847 31.8803 56.4851C31.9228 56.5008 31.9711 56.5178 32.0267 56.5349C32.1581 56.5754 32.2874 56.6083 32.4525 56.654C32.605 56.6963 32.7819 56.7476 32.9525 56.8142C33.445 57.0066 33.8132 57.2139 34.3969 57.3542C34.5822 57.3988 34.742 57.4401 34.8764 57.4744C35.0136 57.5094 35.1181 57.5355 35.2055 57.5554C35.2094 57.5563 35.2134 57.5565 35.2172 57.5574C35.2414 57.4981 35.2682 57.4313 35.3041 57.3376C35.3467 57.2266 35.4064 57.076 35.4857 56.9324C35.7327 56.4851 36.1614 55.9126 36.5541 55.5505C36.8437 55.2834 37.3282 54.8032 37.8627 54.3337C38.372 53.8863 38.7811 53.4997 39.1342 53.1648C39.481 52.8358 39.7921 52.5389 40.0824 52.2976C40.7343 51.7558 41.0986 51.4922 41.9789 50.991C42.186 50.873 42.347 50.7497 42.5346 50.6013C42.7182 50.456 42.942 50.2733 43.225 50.0974C43.4454 49.9604 43.6031 49.8315 43.7787 49.6853C43.9516 49.5414 44.1623 49.3627 44.4398 49.2029C45.0994 48.823 45.5199 48.4674 46.0717 48.1003C46.5572 47.7773 47.0022 47.6077 47.5228 47.404C48.0591 47.1943 48.6694 47.1404 49.2094 47.1296C49.7348 47.1191 50.3356 47.1516 50.7465 47.157C51.3574 47.1649 51.8557 47.3058 52.267 47.4607C52.4665 47.5359 52.6549 47.618 52.808 47.6833C52.8802 47.7141 52.9452 47.7413 53.0053 47.7654C52.8646 47.3993 52.6498 46.9305 52.1986 46.1072C51.9751 45.6994 51.604 45.464 51.0795 45.0466C51.0799 45.047 51.0733 45.0423 51.058 45.0329C51.0425 45.0235 51.0212 45.0112 50.9926 44.9968C50.9342 44.9675 50.8567 44.9339 50.7592 44.8972C50.5632 44.8236 50.3131 44.7477 50.0258 44.6736C49.4521 44.5256 48.7724 44.3956 48.1605 44.3064Z" fill="black"/>
<path d="M32.3978 58.4443C32.5282 58.0515 32.9521 57.8387 33.345 57.9687C33.6369 58.0655 33.8283 58.3245 33.8548 58.6123C33.9075 58.3494 34.0967 58.1226 34.3714 58.04L34.4622 58.0185C34.6813 57.9801 34.955 58.0248 35.1683 58.2432C35.3471 58.4264 35.3843 58.6393 35.3948 58.7139C35.4195 58.8887 35.3911 59.0549 35.3734 59.1426L35.3607 59.206L35.3372 59.2666C35.147 59.754 34.9846 60.1331 34.5638 61.0254L34.5159 61.1279L34.4398 61.2109C34.3192 61.3433 34.2094 61.4725 34.0941 61.6064C33.984 61.7342 33.8632 61.8723 33.7425 61.9932C33.5531 62.1827 33.1298 62.5819 32.5433 62.4941C32.4317 62.4774 32.2159 62.4296 32.0208 62.2568C31.799 62.0603 31.7014 61.7915 31.6976 61.5273C31.6846 60.6228 31.7697 60.119 31.928 59.6191C32.018 59.3352 32.1337 59.0551 32.2269 58.8389C32.2717 58.7348 32.3192 58.6278 32.3489 58.5596C32.3653 58.5221 32.3777 58.4924 32.387 58.4697C32.3972 58.445 32.3995 58.439 32.3978 58.4443ZM33.8421 58.8408C33.8365 58.8662 33.83 58.8918 33.8216 58.917C33.796 58.9941 33.7553 59.0884 33.7249 59.1582C33.6869 59.2455 33.6504 59.3269 33.6048 59.4326C33.5263 59.6148 33.4453 59.8142 33.3812 60.0049C33.6103 59.5116 33.7388 59.2192 33.8568 58.9258C33.8502 58.8974 33.8453 58.8691 33.8421 58.8408Z" fill="black"/>
<path d="M31.0563 57.4668C31.2618 57.1072 31.7201 56.9821 32.0797 57.1875C32.4393 57.393 32.5645 57.8513 32.359 58.2109C32.2789 58.3511 32.2185 58.4538 32.111 58.7061C31.8817 59.2438 31.7605 59.5646 31.6832 59.7803C31.6146 59.9717 31.5566 60.1547 31.4831 60.3223C31.4028 60.505 31.3439 60.7028 31.2946 60.9014C31.2698 61.0011 31.2489 61.0936 31.2272 61.1885C31.2071 61.2765 31.1839 61.3782 31.1579 61.4678C31.059 61.8075 30.9841 62.2303 30.8883 62.6797C30.8723 62.7548 30.8647 62.8366 30.8581 62.9463C30.8525 63.0383 30.8459 63.1995 30.8288 63.3408C30.7929 63.6364 30.7632 64.1511 30.736 64.7891C30.7215 65.1291 30.7314 65.7816 30.7526 66.2842C30.7866 67.0925 30.8522 67.4178 30.8737 67.6338C30.8888 67.7861 30.9344 67.983 31.0016 68.2207C31.0524 68.4002 31.1593 68.7433 31.2096 68.9277C31.225 68.984 31.2457 69.0413 31.277 69.125C31.3054 69.2011 31.347 69.3113 31.3825 69.4287C31.4008 69.4893 31.4579 69.6169 31.5817 69.8418C31.6996 70.0561 31.8488 70.3075 32.026 70.6094C32.1707 70.8558 32.296 71.0429 32.3952 71.1855C32.4639 71.2844 32.4711 71.2932 32.5309 71.3789C32.5669 71.4305 32.6157 71.5011 32.6549 71.5713C32.8837 71.9805 33.1178 72.2406 33.3209 72.4912C33.584 72.8157 33.7651 73.0025 33.8815 73.1035C33.9987 73.2052 34.1195 73.3255 34.2135 73.4199C34.3188 73.5256 34.3934 73.6007 34.4528 73.6523C34.6568 73.8299 34.8883 74.0186 35.2477 74.2754C35.4507 74.4204 35.703 74.544 35.9918 74.625C36.3616 74.7287 36.6028 74.7439 37.4918 74.7939C38.1103 74.8287 39.1635 74.8098 39.7946 74.7988C40.151 74.7926 40.3549 74.7793 40.485 74.7666C40.6205 74.7533 40.6655 74.7426 40.7916 74.7246C41.3916 74.6392 41.6102 74.5141 41.9118 74.4014C42.1697 74.3049 42.6257 74.1595 42.9547 74.0566C43.1958 73.9813 43.5145 73.8809 43.902 73.748C43.932 73.7377 44.0218 73.6976 44.15 73.623C44.2718 73.5522 44.3913 73.4715 44.4772 73.4033C44.6588 73.2591 44.8595 73.0539 45.0543 72.8379C45.2492 72.6219 45.3423 72.4692 45.7321 71.9863C46.0048 71.6485 46.2247 71.3504 46.3825 71.1279C46.4613 71.0167 46.5247 70.9254 46.57 70.8574C46.5925 70.8235 46.6097 70.7957 46.6227 70.7754C46.6348 70.7564 46.6411 70.747 46.6422 70.7451C46.7181 70.616 46.7976 70.4914 46.8727 70.3721C46.9499 70.2494 47.0332 70.1155 47.1315 69.9443C47.6743 68.9985 47.9883 68.6551 48.0553 68.5664C48.1023 68.4905 48.1633 68.3944 48.2487 68.251C48.2787 68.1976 48.3093 68.1397 48.3766 67.9766C48.5346 67.5938 48.9733 67.4115 49.3561 67.5693C49.739 67.7273 49.9213 68.1659 49.7633 68.5488C49.6782 68.7552 49.6221 68.8699 49.5543 68.9902L49.5504 68.998L49.5456 69.0059C49.4393 69.1848 49.3544 69.3188 49.318 69.3779L49.3073 69.3955L49.2956 69.4131C49.1282 69.6546 48.9603 69.7705 48.4323 70.6904C48.3196 70.8867 48.2246 71.0401 48.1422 71.1709C48.0577 71.3052 47.9959 71.4015 47.9352 71.5049C47.8565 71.6387 47.481 72.2068 46.8991 72.9277C46.6081 73.2882 46.3879 73.5986 46.1676 73.8428C45.9607 74.0722 45.6925 74.3537 45.4098 74.5781C45.1248 74.8044 44.6888 75.0639 44.3883 75.167C43.9813 75.3065 43.647 75.4117 43.402 75.4883C43.064 75.5939 42.6493 75.7273 42.4372 75.8066C42.2143 75.89 41.8062 76.0957 41.0036 76.21C40.8048 76.2383 40.6038 76.2852 39.82 76.2988C39.2142 76.3094 38.0949 76.3306 37.4079 76.292C36.5597 76.2443 36.1441 76.2258 35.5866 76.0693C35.1348 75.9426 34.7239 75.7439 34.3756 75.4951C33.9766 75.21 33.707 74.9927 33.4674 74.7842C33.3586 74.6894 33.2412 74.57 33.15 74.4785C33.0477 74.3758 32.9673 74.2956 32.8991 74.2363C32.6891 74.0542 32.4454 73.7925 32.1559 73.4355C31.9903 73.2314 31.6525 72.8531 31.3454 72.3037C31.3444 72.3022 31.3343 72.2849 31.3004 72.2363C31.2859 72.2154 31.2015 72.0963 31.1637 72.042C31.05 71.8784 30.9027 71.6581 30.7331 71.3691C30.5637 71.0806 30.3982 70.8035 30.2672 70.5654C30.1422 70.3382 30.0153 70.0892 29.9469 69.8633C29.9285 69.8024 29.9066 69.7438 29.8717 69.6504C29.8397 69.5647 29.7974 69.4507 29.7623 69.3223C29.6978 69.086 29.6467 68.9418 29.5582 68.6289C29.4862 68.374 29.4103 68.0722 29.3815 67.7822C29.3707 67.6738 29.2898 67.2081 29.2536 66.3477C29.2317 65.8301 29.2207 65.1276 29.2379 64.7246C29.2648 64.0953 29.2964 63.5231 29.3405 63.1602C29.3503 63.0789 29.3519 63.0068 29.361 62.8564C29.369 62.7238 29.3819 62.5532 29.4215 62.3672C29.5004 61.9971 29.5981 61.4589 29.7174 61.0488C29.7522 60.9292 29.7687 60.8212 29.8385 60.54C29.897 60.3045 29.9797 60.0134 30.109 59.7187C30.1548 59.6146 30.1745 59.543 30.2711 59.2734C30.3591 59.0279 30.4912 58.6798 30.7311 58.1172C30.8717 57.7876 30.9644 57.6275 31.0563 57.4668Z" fill="black"/>
<path d="M47.6904 64.9656C47.9576 64.6954 48.392 64.6663 48.6943 64.9099C48.9864 65.1456 49.0542 65.5551 48.871 65.8699C48.86 65.8963 48.8454 65.9354 48.8212 65.9978C48.7739 66.1202 48.7053 66.2975 48.6152 66.4988C48.4551 66.8566 48.3602 67.1111 48.1132 67.4881C47.5482 68.3506 47.4575 68.4663 47.3496 68.6385C47.2649 68.7735 47.1844 68.8893 47.1191 68.9822C47.0501 69.0803 47.0037 69.1466 46.9648 69.2107C46.8833 69.3451 46.7941 69.4841 46.7158 69.6062C46.6345 69.733 46.568 69.8369 46.5195 69.9168C46.4134 70.0914 46.2457 70.3554 46.0439 70.6531C45.8303 70.9683 45.6506 71.2152 45.4472 71.4558C45.3748 71.5415 45.3235 71.6086 45.2363 71.7166C45.1611 71.8096 45.0638 71.9257 44.9492 72.032C44.7587 72.2085 44.5007 72.3764 44.4003 72.45C44.2361 72.5704 44.0859 72.6668 43.9414 72.7527C43.8688 72.8153 43.7722 72.8937 43.6552 72.9568L43.6269 72.9724L43.622 72.9744C43.3263 73.2223 42.8859 73.2065 42.6093 72.9275C42.3177 72.6334 42.3191 72.1586 42.6132 71.867L42.7333 71.7615C42.7749 71.7292 42.8182 71.6998 42.8642 71.6736C42.8887 71.6597 42.9182 71.6473 42.9433 71.6355C42.954 71.6271 42.9694 71.6132 42.9941 71.5906L43.0556 71.5349L43.1269 71.4939C43.2437 71.4269 43.3669 71.3485 43.5136 71.241C43.7392 71.0757 43.8221 71.0311 43.9296 70.9314C43.9617 70.9017 44.0035 70.8556 44.0693 70.7742C44.1233 70.7073 44.2174 70.5868 44.3017 70.4871C44.4576 70.3027 44.6036 70.1035 44.8017 69.8113C44.9903 69.533 45.1448 69.2897 45.2372 69.1375C45.2978 69.0378 45.3772 68.914 45.4531 68.7957C45.532 68.6727 45.6119 68.5488 45.6826 68.4324C45.7524 68.3174 45.8287 68.2092 45.8915 68.1199C45.958 68.0254 46.0181 67.9398 46.079 67.8426C46.1887 67.6675 46.343 67.454 46.8593 66.6658C47.0229 66.4161 47.0587 66.3052 47.246 65.8865C47.3186 65.7243 47.3745 65.5793 47.4218 65.4568C47.4439 65.3997 47.4689 65.3356 47.4912 65.283C47.5024 65.2563 47.5176 65.2221 47.5351 65.1873C47.5483 65.1612 47.5832 65.0932 47.6396 65.0232L47.6904 64.9656Z" fill="black"/>
<path d="M28.7764 71.9104C29.1905 71.9106 29.5264 72.2463 29.5264 72.6604C29.5264 72.7158 29.5183 72.7695 29.5069 72.8215C29.5155 72.8373 29.526 72.8549 29.5352 72.8723C29.6918 73.1664 30.0479 73.689 30.1905 73.885C30.3061 74.0437 30.4106 74.1911 30.5177 74.3352C30.5177 74.3352 30.5238 74.3421 30.5372 74.3576C30.5505 74.373 30.5682 74.3931 30.5909 74.4172C30.6365 74.4658 30.6954 74.5259 30.7657 74.594C30.9062 74.7299 31.0812 74.8891 31.2618 75.0442C31.6419 75.3703 32.3092 75.7463 32.5333 75.8782L32.7813 76.0158C32.8771 76.0665 32.9988 76.1269 33.1739 76.2112L33.1759 76.2121C33.1808 76.2129 33.1891 76.2144 33.2022 76.216C33.6132 76.2678 33.9043 76.643 33.8526 77.0539C33.8009 77.4649 33.4257 77.7561 33.0147 77.7043C32.8787 77.6872 32.7568 77.6632 32.587 77.593L32.5675 77.5852L32.5489 77.5764C32.1339 77.3773 31.9666 77.2822 31.793 77.1838L31.7813 77.177V77.176C31.6443 77.0949 30.7994 76.6241 30.2843 76.1819C29.9085 75.8594 29.4846 75.46 29.3136 75.2297C29.2024 75.0801 29.0781 74.9045 28.9786 74.7678C28.8266 74.5589 28.4187 73.9665 28.211 73.5764C28.19 73.5371 28.0965 73.3744 28.0391 73.2239C27.9815 73.0726 27.8841 72.752 28.0284 72.4016L28.0636 72.3274C28.1538 72.1594 28.3037 72.025 28.4942 71.9573C28.5816 71.9262 28.6569 71.9168 28.7003 71.9133C28.7225 71.9115 28.741 71.9106 28.753 71.9104C28.7643 71.9102 28.775 71.9104 28.7764 71.9104ZM28.7764 73.4104C28.7556 73.4104 28.778 73.4118 28.8233 73.4074C28.8078 73.4084 28.7922 73.4104 28.7764 73.4104Z" fill="black"/>
<path d="M54.0112 53.0886C54.1964 52.7182 54.6466 52.5675 55.017 52.7527C55.3874 52.9379 55.5371 53.3881 55.352 53.7586C55.259 53.9445 55.1093 54.2779 55.0327 54.5076C54.9684 54.7002 54.8327 54.9906 54.6655 55.3484C54.4875 55.7292 54.2456 56.2442 53.934 56.9382C53.4012 58.1252 53.4125 58.298 53.0874 59.1043C52.9467 59.453 52.7912 59.8582 52.6752 60.2586C52.5672 60.6317 52.3556 61.1966 52.2221 61.5964C52.0853 62.0061 51.957 62.3594 51.7104 63.1961C51.5748 63.6563 51.5513 63.8782 51.4438 64.3396C51.4051 64.5058 51.3562 64.68 51.31 64.8474C51.2623 65.0201 51.2134 65.199 51.1665 65.3982C51.0548 65.872 50.979 66.2421 50.8793 66.5798C50.8447 66.6971 50.8195 66.8261 50.7885 66.992C50.7619 67.1345 50.7264 67.3189 50.6762 67.4968L50.6772 67.4978C50.6603 67.5652 50.6443 67.6316 50.6274 67.699C50.6188 67.7333 50.614 67.7546 50.6088 67.7791C50.6039 67.8023 50.5976 67.8325 50.5913 67.8767C50.5322 68.2867 50.1516 68.5715 49.7417 68.5125C49.3319 68.4532 49.0478 68.0727 49.1069 67.6629C49.1293 67.5075 49.153 67.4129 49.1723 67.3357C49.1892 67.2683 49.2053 67.2009 49.2221 67.1336L49.226 67.1189L49.2309 67.1033C49.26 67.0046 49.2818 66.8883 49.3139 66.7166C49.3432 66.5596 49.3813 66.3569 49.4409 66.155C49.5248 65.8705 49.5804 65.5895 49.7065 65.0545C49.7605 64.8255 49.8164 64.6227 49.8647 64.448C49.9143 64.2685 49.9526 64.1284 49.9829 63.9988C50.059 63.6719 50.123 63.2775 50.2719 62.7722C50.5281 61.9029 50.6671 61.5168 50.7993 61.1209C50.9688 60.6133 51.1347 60.1872 51.2348 59.8416C51.3725 59.3662 51.5514 58.9041 51.6967 58.5437C51.9253 57.9768 52.0453 57.4812 52.5649 56.324C52.8819 55.6179 53.1289 55.0929 53.3061 54.7136C53.4939 54.3118 53.5802 54.1217 53.6098 54.033C53.7184 53.7075 53.9038 53.3034 54.0112 53.0886Z" fill="black"/>
<path d="M196.557 107.699C196.557 107.285 196.893 106.949 197.307 106.949C197.721 106.95 198.057 107.285 198.057 107.699C198.057 109.914 197.927 114.667 197.825 116.007C197.707 117.574 197.598 119.003 197.5 122.365C197.41 125.462 197.467 131.414 197.499 134.657C197.542 138.942 197.789 140.273 197.892 142.546C197.938 143.569 198.011 144.499 198.085 145.528C198.16 146.554 198.235 147.667 198.285 149.037C198.347 150.727 198.645 155.757 198.809 159.155C198.85 159.999 198.874 160.778 198.901 161.676L199.005 164.911L199.006 164.919V164.928C199.04 167.275 199.04 171.628 199.007 174.003C198.974 176.399 198.907 176.682 198.84 177.536C198.808 177.949 198.447 178.258 198.034 178.226C197.622 178.194 197.313 177.833 197.345 177.42C197.412 176.56 197.475 176.324 197.507 173.983C197.539 171.626 197.539 167.303 197.506 164.966C197.407 162.278 197.391 160.914 197.31 159.227C197.148 155.87 196.848 150.787 196.786 149.092C196.737 147.749 196.663 146.656 196.589 145.636C196.515 144.618 196.44 143.662 196.393 142.614C196.297 140.501 196.042 138.961 195.999 134.672C195.967 131.443 195.909 125.456 196 122.322C196.099 118.93 196.21 117.477 196.329 115.894C196.427 114.609 196.557 109.899 196.557 107.699Z" fill="black"/>
<path d="M202.955 107.47C202.955 107.056 203.291 106.72 203.705 106.72C204.119 106.72 204.455 107.056 204.455 107.47C204.455 109.115 204.413 112.401 204.349 114.49C204.292 116.341 204.328 119.849 204.349 121.756C204.36 122.781 204.386 123.565 204.412 124.28C204.438 124.995 204.465 125.649 204.476 126.401C204.501 128.161 204.622 130.073 204.688 132.676C204.744 134.928 204.71 139.166 204.731 141.382C204.741 142.499 204.757 143.098 204.773 143.604C204.788 144.114 204.804 144.541 204.815 145.306C204.825 146.067 204.831 147.163 204.836 148.264C204.841 149.367 204.847 150.476 204.857 151.271C204.87 152.187 204.896 152.98 204.922 153.769C204.948 154.556 204.974 155.341 204.984 156.229C204.988 156.551 205.003 156.739 205.022 157.225C205.039 157.695 205.059 158.407 205.069 159.715C205.091 162.325 205.091 167.324 205.07 169.985C205.044 173.291 204.882 174.37 204.728 175.275C204.719 175.39 204.714 175.52 204.709 175.667C204.704 175.813 204.698 175.98 204.686 176.129C204.673 176.285 204.654 176.414 204.636 176.538C204.618 176.662 204.598 176.799 204.578 176.996C204.536 177.408 204.169 177.708 203.757 177.666C203.345 177.624 203.044 177.257 203.086 176.845C203.109 176.615 203.132 176.453 203.151 176.322C203.17 176.191 203.182 176.108 203.19 176.007C203.199 175.899 203.205 175.769 203.21 175.614C203.215 175.468 203.221 175.298 203.233 175.141L203.236 175.106L203.241 175.072C203.382 174.251 203.544 173.276 203.57 169.973C203.591 167.319 203.591 162.329 203.569 159.728C203.559 158.43 203.54 157.734 203.523 157.281C203.506 156.844 203.489 156.593 203.484 156.247C203.474 155.377 203.449 154.607 203.423 153.818C203.397 153.03 203.37 152.224 203.357 151.291C203.347 150.489 203.341 149.372 203.336 148.271C203.331 147.168 203.326 146.08 203.315 145.327C203.305 144.578 203.288 144.165 203.273 143.65C203.257 143.133 203.241 142.524 203.231 141.396C203.209 139.119 203.244 134.959 203.188 132.713C203.125 130.228 203 128.149 202.976 126.423C202.965 125.692 202.94 125.057 202.913 124.336C202.887 123.615 202.86 122.816 202.849 121.772C202.828 119.879 202.792 116.334 202.85 114.444C202.913 112.372 202.955 109.101 202.955 107.47Z" fill="black"/>
<path d="M152.319 105.68C153.601 105.673 154.417 105.847 155.16 105.963C155.813 106.064 156.467 106.141 158.301 106.192C158.777 106.205 158.803 106.243 160.344 106.26C161.101 106.269 162.204 106.274 163.316 106.278C164.427 106.282 165.547 106.286 166.332 106.295C168.672 106.32 170.058 106.45 170.709 106.502C171.05 106.529 172.915 106.585 175.558 106.568C176.02 106.565 176.29 106.553 176.577 106.539C176.871 106.525 177.186 106.509 177.723 106.5C178.252 106.491 179.001 106.486 179.75 106.482C180.502 106.478 181.256 106.474 181.807 106.466C182.473 106.455 183.1 106.434 183.766 106.413C184.43 106.392 185.129 106.372 185.93 106.363C186.393 106.358 187.042 106.338 187.862 106.315C188.677 106.293 189.648 106.269 190.737 106.26C191.111 106.258 191.326 106.246 191.624 106.232C191.927 106.218 192.3 106.202 192.969 106.193C194.294 106.176 196.799 106.175 198.16 106.192C200.102 106.216 201.238 106.386 202.13 106.468C203.154 106.563 204.135 106.658 205.344 106.868C205.7 106.93 206.087 106.962 206.594 107.001C207.093 107.039 207.69 107.082 208.424 107.169C208.893 107.224 209.15 107.232 209.752 107.287C210.843 107.387 211.708 107.334 215.141 107.385C218.308 107.433 224.445 107.403 227.767 107.386C231.08 107.37 231.364 107.336 232.431 107.318C232.961 107.309 233.676 107.305 234.381 107.301C235.089 107.296 235.788 107.292 236.295 107.284C237.334 107.267 237.451 107.235 238.696 107.199C239.846 107.166 242.095 107.13 243.292 107.097C245.641 107.033 247.22 106.928 248.71 106.875C249.664 106.841 250.704 106.726 251.188 106.62L251.222 106.612L251.255 106.608C251.34 106.597 251.444 106.59 251.487 106.586C251.545 106.58 251.582 106.575 251.614 106.568C251.653 106.56 251.7 106.545 251.807 106.512C251.904 106.482 252.032 106.443 252.191 106.403C252.593 106.302 253 106.545 253.102 106.947C253.203 107.349 252.959 107.756 252.558 107.857C252.44 107.887 252.345 107.916 252.251 107.945C252.165 107.972 252.05 108.009 251.936 108.034C251.814 108.061 251.707 108.072 251.624 108.08C251.534 108.088 251.5 108.089 251.454 108.094C250.834 108.223 249.733 108.34 248.764 108.375C247.354 108.425 245.661 108.532 243.333 108.596C242.033 108.632 239.961 108.664 238.74 108.699C237.616 108.731 237.327 108.767 236.319 108.784C235.803 108.792 235.095 108.796 234.391 108.801C233.682 108.805 232.976 108.809 232.455 108.818C231.419 108.835 231.095 108.87 227.773 108.886C224.459 108.903 218.304 108.934 215.118 108.885C211.792 108.835 210.781 108.887 209.615 108.78C209.099 108.733 208.732 108.716 208.247 108.659C207.549 108.576 206.983 108.534 206.479 108.496C205.983 108.458 205.525 108.422 205.087 108.345C203.941 108.146 203.011 108.055 201.993 107.962C201.04 107.874 200.005 107.715 198.142 107.692C196.793 107.675 194.301 107.676 192.988 107.693C192.339 107.702 191.984 107.716 191.694 107.73C191.4 107.744 191.156 107.757 190.749 107.76C189.674 107.769 188.714 107.792 187.903 107.814C187.098 107.836 186.427 107.858 185.946 107.863C185.162 107.871 184.475 107.892 183.812 107.913C183.152 107.934 182.511 107.955 181.83 107.966C181.271 107.974 180.507 107.978 179.758 107.982C179.005 107.986 178.267 107.991 177.747 108C177.235 108.008 176.939 108.023 176.648 108.037C176.351 108.051 176.059 108.065 175.567 108.068C172.926 108.085 171.001 108.03 170.59 107.997C169.941 107.945 168.599 107.819 166.315 107.795C165.537 107.786 164.423 107.782 163.311 107.778C162.2 107.774 161.09 107.769 160.326 107.76C158.825 107.743 158.58 107.701 158.26 107.692C156.384 107.64 155.663 107.559 154.929 107.444C154.136 107.32 153.46 107.174 152.328 107.18C150.803 107.189 149.822 107.211 149.178 107.23C148.557 107.248 148.203 107.266 148.004 107.266C147.59 107.266 147.254 106.93 147.254 106.516C147.254 106.102 147.59 105.766 148.004 105.766C148.177 105.766 148.454 105.75 149.134 105.73C149.791 105.711 150.784 105.689 152.319 105.68Z" fill="black"/>
<path d="M146.014 107.544C146.014 107.018 146.013 106.464 146.042 106.062L146.044 106.038L146.047 106.014C146.089 105.706 146.139 105.44 146.186 105.196C146.232 104.957 146.273 104.748 146.309 104.523C146.388 103.316 146.536 101.98 146.622 100.842C146.666 100.267 146.769 99.7282 146.864 99.2153C146.96 98.6937 147.052 98.1817 147.097 97.6001C147.139 97.0518 147.227 96.5029 147.312 95.9321C147.398 95.3535 147.488 94.7228 147.545 93.9624C147.648 92.6024 147.657 90.1073 147.621 87.3423C147.581 84.2116 147.551 82.4482 147.501 81.3608C147.451 80.2817 147.383 79.9234 147.282 79.5816C147.156 79.1559 146.962 78.771 146.715 78.2153C146.477 77.6802 146.222 77.0514 146.054 76.2544C145.689 74.5255 145.785 72.3316 145.885 71.1597C145.947 70.437 145.987 69.6389 146.07 68.9517C146.153 68.2537 146.291 67.5441 146.595 66.937C146.694 66.7387 146.845 66.6081 146.956 66.5288C147.074 66.4449 147.203 66.3791 147.324 66.3267C147.565 66.2217 147.856 66.1362 148.155 66.065C148.757 65.9212 149.498 65.8115 150.195 65.7388C150.73 65.6829 151.233 65.5789 157.172 65.5239C162.897 65.4709 173.805 65.4187 185.469 65.4194C197.13 65.4202 209.202 65.4728 220.116 66.0376C231.031 66.6025 240.495 67.6797 245.372 68.1694C247.935 68.4267 249.512 68.5526 250.482 68.6548C251.47 68.759 252.015 68.853 252.565 69.0952C252.812 69.2042 253.117 69.4112 253.429 69.6372C253.759 69.876 254.165 70.1864 254.629 70.5425C255.564 71.2589 256.773 72.1873 258.234 73.2066C259.875 74.3518 261.512 75.4768 263.028 77.0396C263.453 77.4782 263.802 77.8171 264.264 78.2749C264.725 78.7317 265.289 79.296 266.132 80.1714C267.616 81.7115 270.066 84.4362 271.653 85.9009C272.161 86.3699 272.613 86.7638 273.005 87.1021C273.392 87.4355 273.737 87.7292 274.01 87.98C274.276 88.2242 274.527 88.4763 274.698 88.7368C274.877 89.0109 275.028 89.3925 274.905 89.8306C274.728 90.4583 274.261 91.1838 273.559 92.0923C272.203 93.8455 271.392 94.7524 270.135 95.6655C267.524 97.5621 265.424 99.0028 264.293 99.6353C263.634 100.004 262.854 100.516 262.098 101.026C261.357 101.525 260.625 102.032 260.111 102.357C258.846 103.155 257.733 103.786 256.97 104.468C256.365 105.01 255.702 105.667 255.159 106.245C254.889 106.533 254.652 106.798 254.47 107.015C254.276 107.247 254.178 107.385 254.151 107.434C253.95 107.796 253.493 107.926 253.131 107.725C252.769 107.524 252.638 107.068 252.839 106.706C252.943 106.518 253.128 106.283 253.321 106.052C253.526 105.807 253.782 105.521 254.066 105.218C254.633 104.614 255.327 103.926 255.97 103.351C256.857 102.558 258.151 101.819 259.31 101.088C259.799 100.78 260.487 100.302 261.259 99.7817C262.016 99.2716 262.842 98.7288 263.561 98.3267C264.602 97.7444 266.632 96.3562 269.254 94.4517C270.336 93.6661 271.042 92.8948 272.372 91.1743C273.002 90.3596 273.303 89.8562 273.423 89.5317C273.356 89.4387 273.228 89.2982 272.994 89.0835C272.745 88.8542 272.429 88.5851 272.026 88.2378C271.628 87.8953 271.162 87.4894 270.635 87.0034C269.009 85.5019 266.463 82.6765 265.052 81.2124C264.218 80.3471 263.663 79.7916 263.208 79.3413C262.755 78.892 262.39 78.5365 261.95 78.0835C260.552 76.6417 259.038 75.5972 257.375 74.437C255.884 73.3964 254.651 72.4491 253.716 71.7329C253.246 71.3727 252.86 71.077 252.55 70.853C252.223 70.6166 252.04 70.504 251.959 70.4683C251.642 70.3283 251.302 70.25 250.325 70.147C249.328 70.042 247.857 69.9261 245.223 69.6616C240.327 69.17 230.908 68.0972 220.038 67.5347C209.168 66.9721 197.132 66.9202 185.469 66.9194C173.809 66.9187 162.905 66.971 157.186 67.0239C151.262 67.0788 150.814 67.1825 150.35 67.231C149.687 67.3002 149.017 67.4011 148.502 67.5239C148.243 67.5859 148.048 67.6476 147.921 67.7026C147.908 67.7083 147.896 67.7143 147.886 67.7192C147.73 68.0767 147.63 68.5422 147.56 69.1304C147.481 69.7914 147.449 70.4799 147.38 71.2876C147.282 72.4338 147.205 74.4433 147.522 75.9448C147.658 76.5926 147.866 77.1107 148.086 77.605C148.297 78.0786 148.557 78.606 148.72 79.1558C148.872 79.668 148.948 80.1659 149 81.2915C149.052 82.4097 149.082 84.2022 149.121 87.3228C149.157 90.0769 149.149 92.6385 149.04 94.0757C148.979 94.8912 148.883 95.5648 148.795 96.1538C148.706 96.7506 148.629 97.2336 148.592 97.7153C148.54 98.3839 148.435 98.9653 148.338 99.4878C148.24 100.019 148.155 100.476 148.118 100.956C148.022 102.236 147.883 103.405 147.802 104.663L147.8 104.696L147.795 104.73C147.754 104.997 147.704 105.244 147.659 105.478C147.615 105.708 147.572 105.936 147.536 106.194C147.514 106.528 147.514 107.008 147.514 107.544C147.514 107.958 147.178 108.294 146.764 108.294C146.35 108.294 146.014 107.959 146.014 107.544Z" fill="black"/>
<path d="M178.222 72.0479C178.634 72.0089 179 72.3123 179.039 72.7246C179.078 73.1369 178.776 73.503 178.363 73.542C178.068 73.5699 177.301 73.8918 176.228 75.0547C175.375 75.9779 175.312 76.814 175.311 78.2783C175.31 78.5312 175.422 78.7835 175.717 79.0781C176.022 79.3836 176.462 79.671 176.991 79.9776C177.38 80.2027 178.04 80.436 179.07 80.4932C179.08 80.4842 179.094 80.4735 179.109 80.457C179.147 80.4176 179.179 80.3801 179.236 80.3145C179.608 79.8894 179.588 79.4117 179.688 78.5801C179.701 78.4703 179.707 78.3868 179.711 78.3213C178.918 78.1297 178.59 78.131 178.236 78.0567L178.229 78.0547C178.158 78.0391 178.119 78.0298 178.062 78.0195C178.006 78.0097 177.929 77.9988 177.806 77.9863C177.394 77.9446 177.093 77.5762 177.135 77.1641C177.177 76.7521 177.545 76.4525 177.957 76.4942C178.269 76.5258 178.412 76.5595 178.544 76.5889H178.545C178.64 76.609 179.246 76.665 180.138 76.8819L180.536 76.9854L180.847 77.0703L180.999 77.3535C181.305 77.9232 181.208 78.4931 181.177 78.7578C181.112 79.2983 181.127 80.432 180.364 81.3028C180.24 81.4442 179.815 82.0328 179.048 81.9951C177.8 81.9337 176.881 81.6468 176.239 81.2754C175.699 80.9626 175.11 80.5937 174.655 80.1387C174.19 79.673 173.81 79.0606 173.811 78.2764C173.812 76.7775 173.854 75.4135 175.125 74.0371C176.278 72.7884 177.368 72.1288 178.222 72.0479Z" fill="black"/>
<path d="M190.634 72.7898C190.936 72.8203 191.181 73.0317 191.269 73.3132C191.323 73.3416 191.377 73.3695 191.43 73.3982C191.732 73.5632 192.07 73.7594 192.389 73.9597L192.702 74.1599L192.769 74.2058L192.826 74.2644C193.084 74.5304 193.456 74.9826 193.756 75.5427C194.053 76.0972 194.313 76.8203 194.255 77.6023C194.201 78.3261 194.043 79.0782 193.81 79.7087C193.694 80.0241 193.553 80.3265 193.386 80.5857C193.224 80.8359 193.005 81.097 192.714 81.2654C192.183 81.5721 191.392 82.0226 190.317 82.156C189.85 82.214 189.108 82.2722 188.357 82.2C187.638 82.1307 186.747 81.9276 186.142 81.322C186.124 81.3035 186.1 81.2825 186.044 81.2341C185.996 81.1937 185.92 81.1293 185.847 81.0525C185.684 80.8831 185.504 80.6272 185.462 80.2566C185.385 79.5766 185.327 78.7601 185.39 77.9714C185.453 77.1967 185.641 76.3547 186.136 75.699C186.717 74.9289 187.579 73.8461 188.781 73.3474C188.854 73.3171 188.927 73.2909 188.995 73.2634C189.122 73.0291 189.367 72.8679 189.652 72.8679C189.768 72.8679 189.917 72.8692 190.072 72.8796C190.128 72.8636 190.178 72.8462 190.224 72.8347C190.298 72.8167 190.429 72.7859 190.557 72.7859L190.634 72.7898ZM190.146 74.4294C189.941 74.5017 189.677 74.6 189.356 74.7332C188.576 75.0568 187.93 75.811 187.333 76.6023C187.089 76.9249 186.939 77.432 186.886 78.0925C186.835 78.7197 186.878 79.402 186.947 80.03C186.962 80.0442 186.983 80.0641 187.017 80.0935C187.059 80.1291 187.134 80.1921 187.204 80.2625C187.426 80.4853 187.872 80.6462 188.502 80.7068C189.1 80.7643 189.721 80.7178 190.133 80.6667C190.885 80.5734 191.45 80.2631 191.964 79.9666C191.966 79.965 191.982 79.9542 192.009 79.9255C192.04 79.8922 192.08 79.8423 192.125 79.7722C192.216 79.6305 192.312 79.4345 192.402 79.1902C192.582 78.7009 192.715 78.0872 192.76 77.491C192.789 77.1008 192.658 76.6699 192.433 76.2507C192.232 75.874 191.979 75.5576 191.799 75.3621C191.453 75.1373 191.059 74.9043 190.713 74.7156C190.527 74.6145 190.36 74.5291 190.226 74.4656C190.198 74.4519 190.171 74.4404 190.146 74.4294Z" fill="black"/>
<path d="M203.411 72.8149L203.859 72.8452L203.999 72.8589L204.124 72.9223C205.169 73.4482 206.058 74.1998 206.336 75.0659C206.537 75.6947 206.949 76.6063 206.747 77.9721C206.651 78.6191 206.534 79.324 206.306 79.9448C206.075 80.5746 205.702 81.1953 205.043 81.5903C204.103 82.1528 203.103 82.821 201.485 82.5776C200.853 82.4826 200.225 82.3395 199.699 82.1557C199.436 82.0639 199.184 81.9563 198.963 81.8315C198.752 81.7117 198.522 81.549 198.354 81.3266C197.885 80.7055 197.404 79.1776 198.148 77.2612C198.408 76.5905 198.654 75.9836 198.892 75.5083C199.011 75.2699 199.138 75.0462 199.273 74.8559C199.403 74.6735 199.573 74.4748 199.796 74.3364C200.401 73.9618 200.951 73.7212 201.446 73.5727C201.481 73.454 201.543 73.3415 201.637 73.2485L201.74 73.1577C201.98 72.9656 202.218 72.9136 202.346 72.8852L202.354 72.8842C202.622 72.8279 202.984 72.7996 203.411 72.8149ZM203.537 74.3257C203.444 74.6352 203.161 74.8618 202.822 74.8618C202.339 74.8618 201.601 74.982 200.587 75.6108C200.607 75.598 200.574 75.6141 200.495 75.7251C200.421 75.8283 200.335 75.9772 200.234 76.1792C200.031 76.5846 199.807 77.1315 199.546 77.8032C198.977 79.2699 199.416 80.245 199.55 80.4223C199.543 80.4131 199.575 80.4546 199.703 80.5268C199.821 80.594 199.985 80.6662 200.193 80.7387C200.609 80.8839 201.142 81.009 201.709 81.0942C202.728 81.2476 203.289 80.8913 204.271 80.3032C204.529 80.1487 204.733 79.8773 204.898 79.4282C205.066 78.9701 205.165 78.4079 205.262 77.7534C205.402 76.8062 205.145 76.2662 204.907 75.5229C204.82 75.2531 204.418 74.7786 203.572 74.3286C203.56 74.3277 203.548 74.3264 203.537 74.3257Z" fill="black"/>
<path d="M216.117 71.5937L216.172 71.6025C217.598 71.8317 219.061 72.0802 220.062 73.5762C220.817 74.7034 221.556 75.8273 221.502 77.1933C221.466 78.0874 221.405 78.9133 221.317 79.5761C221.274 79.9068 221.223 80.2087 221.162 80.4638C221.105 80.7005 221.026 80.9653 220.896 81.1748C220.778 81.3675 220.464 82.4924 219.37 83.2607C219.152 83.414 218.818 83.6751 218.366 83.8379C217.893 84.0085 217.337 84.063 216.612 83.9638C215.616 83.8275 214.971 83.7487 213.854 83.4844C213.801 83.4717 213.643 83.4372 213.486 83.3437C213.304 83.2354 213.172 83.0813 213.08 82.9023C212.93 82.6097 212.876 82.2125 212.843 81.747C212.774 80.7907 212.79 78.8977 212.759 77.9668C212.719 76.7753 212.658 76.4451 212.627 76.1914C212.555 75.6103 212.443 74.2046 212.443 73.6181C212.443 73.3555 212.579 73.1252 212.783 72.9912C212.746 72.7481 212.827 72.4918 213.024 72.3164C213.29 72.0804 213.417 71.9875 213.578 71.8955L213.627 71.8672L213.681 71.8476C214.253 71.6276 214.82 71.5779 216.062 71.5928L216.117 71.5937ZM215.987 73.0928C214.885 73.0814 214.543 73.1328 214.28 73.2246C214.27 73.2312 214.259 73.2377 214.245 73.248C214.205 73.2786 214.14 73.3328 214.021 73.4385C213.993 73.4629 213.964 73.4842 213.934 73.5039C213.939 73.5412 213.943 73.5792 213.943 73.6181C213.943 74.1199 214.049 75.4587 214.116 76.0078C214.149 76.2759 214.216 76.658 214.258 77.917C214.294 79.0017 214.271 80.6955 214.339 81.6406C214.352 81.8291 214.368 81.9657 214.384 82.0644C215.309 82.2762 215.876 82.3489 216.816 82.4775C217.359 82.5517 217.662 82.4972 217.857 82.4267C218.075 82.3484 218.219 82.2362 218.508 82.0332C219.277 81.4929 219.162 81.1301 219.619 80.3877C219.617 80.3904 219.654 80.3193 219.703 80.1142C219.748 79.9278 219.791 79.6813 219.831 79.3799C219.91 78.7779 219.968 78.0011 220.003 77.1328C220.035 76.334 219.622 75.6145 218.815 74.4101C218.223 73.5261 217.427 73.3257 215.987 73.0928Z" fill="black"/>
<path d="M171.477 88.4336C171.857 88.425 172.19 88.7055 172.238 89.0908C172.286 89.48 172.027 89.8348 171.65 89.915C171.667 89.9106 171.664 89.9109 171.633 89.9229C171.599 89.9362 171.544 89.9594 171.469 89.9961C171.32 90.0694 171.111 90.184 170.858 90.3418C170.353 90.6571 169.687 91.1361 168.972 91.79C168.286 92.4174 168.162 93.0116 167.947 93.7422C167.799 94.2457 167.834 94.6388 167.782 95.2539C167.743 95.717 167.751 96.4257 167.814 97.1377C167.878 97.8637 167.993 98.5071 168.132 98.874C168.148 98.9157 168.187 98.983 168.418 99.1416C168.436 99.1539 168.511 99.1926 168.686 99.2197C168.854 99.2458 169.066 99.2538 169.313 99.2451C169.776 99.2288 170.291 99.1539 170.748 99.0781C171.313 98.8209 171.927 98.5364 172.308 98.3311C172.374 98.2791 172.54 98.1531 172.719 98.0625C173.089 97.8759 173.541 98.0239 173.727 98.3936C173.914 98.7633 173.765 99.2147 173.395 99.4014C173.359 99.4199 173.333 99.4366 173.305 99.457C173.288 99.4698 173.273 99.4827 173.246 99.5039C173.222 99.5227 173.186 99.5493 173.147 99.5772L173.112 99.6025L173.073 99.624C172.617 99.8735 171.876 100.214 171.28 100.485L171.191 100.526L171.095 100.542C170.608 100.625 169.968 100.723 169.366 100.744C169.064 100.755 168.75 100.747 168.456 100.701C168.17 100.657 167.847 100.568 167.569 100.378C167.282 100.181 166.916 99.8958 166.73 99.4072C166.514 98.8388 166.387 98.0253 166.32 97.2695C166.252 96.4997 166.24 95.7006 166.288 95.1279C166.319 94.7521 166.303 94.0155 166.508 93.3174C166.706 92.6486 166.918 91.6349 167.96 90.6826C168.746 89.9637 169.486 89.4305 170.064 89.0693C170.353 88.8891 170.607 88.749 170.81 88.6494C170.911 88.6 171.006 88.5573 171.091 88.5244C171.157 88.4986 171.275 88.4551 171.401 88.4395L171.477 88.4336Z" fill="black"/>
<path d="M175.682 100.131C175.682 100.095 175.682 99.9521 175.701 99.7846C175.709 99.7064 175.724 99.6202 175.732 99.563C175.741 99.498 175.749 99.4407 175.753 99.3813C175.828 98.4662 176.057 96.9033 176.081 95.0522C176.094 94.0116 176.056 91.9641 176.123 90.8013C176.204 89.3762 176.315 88.8127 176.502 88.437C176.688 88.0665 177.138 87.9159 177.508 88.1011C177.879 88.2862 178.029 88.7365 177.844 89.1069C177.815 89.1658 177.704 89.4243 177.621 90.8872C177.557 92.012 177.594 93.9336 177.58 95.0718C177.556 96.9872 177.313 98.7105 177.249 99.5034C177.24 99.6099 177.226 99.7044 177.215 99.7798C177.203 99.8627 177.197 99.9067 177.192 99.9526C177.183 100.034 177.182 100.108 177.182 100.131C177.182 100.545 176.846 100.881 176.432 100.881C176.018 100.881 175.682 100.545 175.682 100.131Z" fill="black"/>
<path d="M180.127 91.5676V89.5129C180.127 89.0988 180.463 88.763 180.877 88.7629C181.291 88.7629 181.627 89.0987 181.627 89.5129V91.5676C181.627 93.0777 181.627 95.8255 181.613 97.3381C181.6 98.8631 181.572 99.0669 181.558 99.3088C181.554 99.38 181.554 99.4399 181.555 99.4856C181.639 99.6667 181.653 99.8801 181.573 100.08C181.42 100.465 180.983 100.652 180.599 100.498C180.254 100.36 180.145 100.051 180.119 99.9758C180.08 99.8588 180.066 99.7457 180.06 99.6711C180.047 99.5142 180.053 99.3441 180.061 99.219C180.074 98.9934 180.1 98.8163 180.113 97.3245C180.127 95.8202 180.127 93.0808 180.127 91.5676ZM181.359 99.2317C181.35 99.2241 181.341 99.2168 181.331 99.2092C181.341 99.2165 181.35 99.2241 181.359 99.2317Z" fill="black"/>
<path d="M181.371 93.7839C181.785 93.784 182.121 94.1198 182.121 94.5339C182.121 94.9481 181.785 95.2839 181.371 95.2839C180.924 95.2839 180.523 95.2839 180.011 95.3357C179.495 95.3879 178.886 95.4887 178.492 95.5769C178.205 95.6604 178.009 95.7218 177.874 95.7634C177.808 95.7838 177.746 95.8032 177.695 95.8171C177.67 95.8242 177.637 95.8333 177.602 95.8406C177.575 95.8461 177.505 95.8601 177.42 95.8601C177.006 95.8601 176.67 95.5243 176.67 95.1101C176.67 94.7379 176.941 94.4306 177.297 94.3718C177.322 94.3649 177.362 94.3525 177.433 94.3308C177.57 94.2883 177.784 94.2215 178.098 94.1306L178.119 94.1248L178.141 94.1199C178.596 94.0165 179.278 93.9024 179.86 93.8435C180.455 93.7834 180.923 93.7839 181.371 93.7839Z" fill="black"/>
<path d="M189.586 88.7854C189.988 88.6853 190.395 88.9295 190.495 89.3313C190.496 89.335 190.496 89.3392 190.497 89.343C190.777 89.3651 190.953 89.3892 191.111 89.4328L191.267 89.4836L191.304 89.4992C191.448 89.562 191.605 89.6031 191.808 89.6399L191.902 89.6565L191.988 89.6965C192.383 89.8778 193.418 90.1529 194.416 91.1526C194.964 91.7021 195.978 92.7629 195.893 94.591C195.866 95.1711 195.843 95.8317 195.757 96.4397C195.671 97.0406 195.514 97.688 195.16 98.2111C194.334 99.431 193.15 100.491 192.185 100.926C191.743 101.125 191.164 101.361 190.564 101.489C189.979 101.614 189.263 101.661 188.62 101.357C188.107 101.114 187.536 100.814 187.056 100.49C186.817 100.329 186.585 100.151 186.389 99.9611C186.202 99.7792 186.003 99.5416 185.894 99.2531C185.618 98.521 185.416 97.2753 185.493 95.9797C185.538 95.2186 185.663 94.5528 185.938 93.8147C186.157 93.2277 186.691 91.691 187.874 90.1594C188.568 89.2609 189.137 88.8971 189.586 88.7854ZM189.732 90.3684C189.583 90.4817 189.358 90.6923 189.061 91.0764C188.032 92.4088 187.563 93.7482 187.344 94.3381C187.127 94.9204 187.027 95.4369 186.99 96.0676C186.924 97.1917 187.108 98.2222 187.298 98.7238C187.295 98.7164 187.318 98.7718 187.435 98.886C187.545 98.9923 187.699 99.1142 187.895 99.2463C188.287 99.5102 188.782 99.774 189.261 100.001C189.467 100.098 189.793 100.12 190.251 100.023C190.694 99.9281 191.158 99.7438 191.568 99.5588C192.214 99.2674 193.201 98.4287 193.918 97.3703C194.079 97.1317 194.196 96.7564 194.271 96.2287C194.345 95.7083 194.367 95.1332 194.395 94.5217C194.449 93.3656 193.848 92.7063 193.354 92.2121C192.645 91.5015 192.048 91.3553 191.458 91.0988C191.231 91.0546 190.989 90.9924 190.739 90.8869V90.8879C190.721 90.8812 190.71 90.8768 190.675 90.8703C190.626 90.8615 190.538 90.8504 190.367 90.8371C190.074 90.8142 189.835 90.624 189.732 90.3684Z" fill="black"/>
<path d="M203.587 100.131C203.587 99.2135 203.587 98.3037 203.602 97.7864C203.617 97.2335 203.642 97.1897 203.655 95.9563C203.669 94.7317 203.669 92.4549 203.669 91.2981V90.0891C203.669 89.675 204.005 89.3393 204.419 89.3391C204.833 89.3391 205.169 89.6749 205.169 90.0891V91.2981C205.169 92.451 205.169 94.738 205.155 95.9729C205.142 97.1989 205.113 97.373 205.101 97.8284C205.087 98.3194 205.087 99.202 205.087 100.131C205.087 100.545 204.751 100.881 204.337 100.881C203.923 100.881 203.587 100.545 203.587 100.131Z" fill="black"/>
<path d="M204.08 85.4792V85.1501C204.08 84.7359 204.416 84.4001 204.83 84.4001C205.244 84.4001 205.58 84.7359 205.58 85.1501V85.4792C205.58 85.8935 205.244 86.2292 204.83 86.2292C204.416 86.2292 204.08 85.8935 204.08 85.4792Z" fill="black"/>
<path d="M216.487 89.969C216.872 89.8154 217.308 90.0024 217.462 90.387C217.615 90.7716 217.428 91.2079 217.044 91.3616C216.852 91.4381 216.458 91.7114 215.904 92.2679C215.372 92.8023 214.751 93.5401 214.102 94.4544C213.758 94.9395 213.589 95.6893 213.375 96.844C213.237 97.5869 213.276 98.0274 213.343 98.2972C213.411 98.5639 213.514 98.7141 213.653 98.9339C213.829 99.2123 214.082 99.3037 214.976 99.6136C215.677 99.8562 216.796 99.8518 218.029 99.7552C218.735 99.6999 219.198 99.5575 219.52 99.4143C219.862 99.2628 220.044 99.1182 220.317 98.9475L220.346 98.929L220.378 98.9134C220.472 98.8661 220.563 98.8323 220.606 98.8157C220.642 98.8019 220.656 98.7952 220.661 98.7932C220.638 98.8062 220.882 98.6284 221.218 98.5149C221.61 98.3827 222.035 98.5935 222.168 98.9856C222.3 99.3781 222.089 99.8043 221.697 99.9368C221.537 99.991 221.617 99.9762 221.4 100.099C221.299 100.156 221.2 100.194 221.149 100.214C221.109 100.23 221.088 100.238 221.073 100.244C220.895 100.36 220.565 100.592 220.129 100.785C219.64 101.002 219.009 101.183 218.146 101.25C216.942 101.345 215.521 101.39 214.485 101.031C213.792 100.791 212.904 100.558 212.385 99.7347C212.263 99.5417 212.024 99.1978 211.889 98.6643C211.756 98.1337 211.734 97.4667 211.9 96.5706C212.097 95.5082 212.306 94.3941 212.879 93.5862C213.566 92.6176 214.24 91.814 214.841 91.2102C215.419 90.6285 215.995 90.1658 216.487 89.969Z" fill="black"/>
<path d="M226.387 90.4182C226.387 90.0041 226.723 89.6684 227.137 89.6682C227.551 89.6682 227.887 90.004 227.887 90.4182C227.887 91.4261 227.887 92.4404 227.832 94.1379C227.778 95.8208 227.669 98.1811 227.627 99.3127C227.614 99.6487 227.609 99.8655 227.606 100.001C227.643 100.126 227.652 100.261 227.618 100.396C227.616 100.406 227.608 100.435 227.599 100.463C227.595 100.478 227.587 100.503 227.576 100.533C227.571 100.548 227.54 100.631 227.476 100.719C227.448 100.758 227.36 100.873 227.199 100.952C226.987 101.057 226.713 101.064 226.476 100.92C226.298 100.812 226.218 100.662 226.193 100.613C226.161 100.548 226.145 100.493 226.138 100.464C226.113 100.37 226.109 100.281 226.108 100.259C226.101 100.117 226.107 99.8194 226.128 99.2571C226.171 98.0905 226.278 95.7786 226.333 94.0901C226.387 92.4163 226.387 91.4204 226.387 90.4182Z" fill="black"/>
<path d="M227.364 89.063C227.546 89.0609 227.876 89.0724 228.483 89.1059C229.714 89.1739 232.17 89.3378 234.702 89.5893C235.114 89.6303 235.415 89.9977 235.374 90.4097C235.333 90.8218 234.966 91.1235 234.554 91.0825C232.048 90.8336 229.615 90.671 228.4 90.604C227.833 90.5727 227.55 90.5631 227.412 90.563C227.35 90.5794 227.287 90.5923 227.22 90.5923C226.806 90.5923 226.47 90.2564 226.47 89.8423V89.8325C226.47 89.8268 226.47 89.8173 226.471 89.8061C226.472 89.7841 226.474 89.7485 226.481 89.7056C226.498 89.611 226.538 89.4953 226.62 89.3843C226.773 89.1782 226.978 89.1178 227.038 89.1011C227.165 89.0657 227.299 89.0637 227.364 89.063Z" fill="black"/>
<path d="M233.559 95.0188C233.973 95.0191 234.309 95.3547 234.309 95.7688C234.309 96.1829 233.973 96.5185 233.559 96.5188C233.188 96.5188 232.832 96.5175 231.888 96.6125C230.924 96.7094 229.414 96.8987 228.634 96.9944C227.898 97.0846 227.801 97.095 227.714 97.095C227.3 97.095 226.964 96.7592 226.964 96.345C226.964 95.9308 227.3 95.595 227.714 95.595C227.712 95.595 227.705 95.5947 227.697 95.595C227.691 95.5952 227.687 95.5959 227.686 95.5959C227.692 95.5954 227.713 95.5939 227.766 95.5881C227.868 95.5768 228.064 95.5526 228.451 95.5051C229.22 95.4107 230.753 95.2194 231.737 95.1204C232.74 95.0195 233.146 95.0188 233.559 95.0188Z" fill="black"/>
<path d="M234.874 99.4636C235.289 99.4636 235.624 99.7994 235.624 100.214C235.624 100.628 235.289 100.964 234.874 100.964C233.779 100.964 232.73 100.964 232.113 100.977C231.498 100.991 231.356 101.016 230.804 101.046H230.798C229.618 101.1 228.728 101.142 228.081 101.159C227.461 101.175 226.98 101.174 226.668 101.115C226.262 101.038 225.994 100.646 226.071 100.239C226.148 99.832 226.541 99.5644 226.948 99.6414C227.072 99.6647 227.384 99.6774 228.04 99.6599C228.669 99.6432 229.538 99.6036 230.723 99.5486V99.5476C231.201 99.522 231.439 99.4926 232.08 99.4783C232.718 99.464 233.788 99.4636 234.874 99.4636Z" fill="black"/>
<path d="M48.771 69.0312C48.9721 68.6692 49.4284 68.5392 49.7905 68.7402C50.1526 68.9413 50.2835 69.3976 50.0825 69.7598C50.0094 69.8915 49.871 70.3143 49.7514 70.8213C49.618 71.3869 49.3278 72.158 48.7485 73.3965C48.3774 74.19 48.217 74.7702 48.1235 75.2617C48.0683 75.5515 48.007 75.8299 47.9467 76.1016C47.8859 76.3758 47.8265 76.6437 47.77 76.9277C47.6644 77.4582 47.5576 77.8551 47.4653 78.1807C47.3701 78.5164 47.3041 78.7317 47.2592 78.956C47.133 79.5874 46.9782 80.076 46.9165 80.6191C46.8628 81.0915 46.723 81.6906 46.5639 82.3115C46.483 82.6272 46.3941 82.9598 46.3042 83.2959C46.2139 83.6333 46.1224 83.9752 46.0346 84.3164C45.9066 84.8143 45.789 85.2865 45.5551 86.2871C45.3833 87.0222 45.2836 87.8072 45.145 88.624C45.0642 89.1 44.8599 90.2199 44.7417 91.0156C44.6664 91.5222 44.2537 93.8058 44.0337 95.1582C43.9658 95.5754 43.8169 96.6538 43.7251 97.4746C43.667 97.9932 43.5556 98.7713 43.437 99.4463C43.3988 99.9746 43.3484 100.783 43.2856 101.916L43.2788 102.402C43.2769 102.952 43.2912 103.675 43.3481 104.41C43.38 104.823 43.0715 105.184 42.6587 105.216C42.2457 105.248 41.885 104.938 41.853 104.525C41.772 103.479 41.7719 102.469 41.7856 101.881V101.869L41.7866 101.856C41.8518 100.679 41.9051 99.8412 41.9448 99.2978L41.9467 99.2598L41.9536 99.2217C42.0695 98.5672 42.1796 97.8015 42.2348 97.3076C42.3289 96.4668 42.4806 95.363 42.5532 94.917C42.7858 93.4872 43.1823 91.3064 43.2583 90.7949C43.3794 89.9798 43.5914 88.8154 43.6665 88.373C43.7907 87.641 43.9087 86.7401 44.0942 85.9463C44.3302 84.9365 44.4503 84.4534 44.5815 83.9433C44.6714 83.5939 44.7649 83.2445 44.8549 82.9082C44.9453 82.5705 45.0323 82.2459 45.1108 81.9394C45.2706 81.3159 45.3846 80.808 45.4253 80.4502C45.4946 79.8402 45.7031 79.0893 45.7885 78.6621C45.8484 78.3629 45.9383 78.0676 46.0219 77.7725C46.1085 77.4671 46.2044 77.1116 46.2993 76.6348C46.3597 76.3313 46.423 76.0462 46.4829 75.7764C46.5433 75.5041 46.5995 75.2463 46.6499 74.9814C46.7658 74.3722 46.963 73.6718 47.3891 72.7607C47.9591 71.5422 48.195 70.8864 48.2915 70.4775C48.4072 69.9867 48.5836 69.3688 48.771 69.0312Z" fill="black"/>
<path d="M42.557 104.205C43.2538 104.274 43.903 104.783 44.4544 105.398C44.724 105.7 44.9458 106.049 45.1351 106.366C45.3381 106.706 45.4936 106.989 45.6751 107.266C46.2007 108.067 46.5951 108.695 47.3333 109.49C47.6712 109.854 47.9282 110.234 48.1732 110.614C48.4232 111.003 48.6608 111.391 48.9886 111.844C49.5495 112.619 49.9866 113.341 50.68 114.195C51.3603 115.033 52.0907 116.107 52.7386 116.965C52.9879 117.295 53.2205 117.639 53.4407 117.966C53.6649 118.299 53.8764 118.613 54.097 118.91C54.6576 119.666 55.4651 121.033 56.0501 121.97C56.5448 122.762 57.1711 123.733 57.9544 124.898C59.0905 126.589 61.0624 129.092 61.763 130.076C62.0629 130.498 62.3137 130.878 62.5638 131.254C62.815 131.631 63.0709 132.011 63.3939 132.451C63.6397 132.786 63.9147 133.223 64.2034 133.67C64.4999 134.129 64.8292 134.627 65.2083 135.133C65.6921 135.778 66.1388 136.189 66.5902 136.71C67.0841 137.28 67.6023 138.044 68.2572 138.997C68.6646 139.59 69.0022 140.189 69.3157 140.719C69.7452 141.444 70.0373 142.365 70.2552 143.058C70.5037 143.847 70.7423 144.515 70.9935 144.999C71.2164 145.429 71.3545 145.937 71.4554 146.397C71.5519 146.838 71.6399 147.371 71.7103 147.723C71.8612 148.477 72.119 149.641 72.2659 150.957C72.4498 152.604 72.6728 153.338 72.8812 153.985C73.0278 154.441 73.1206 154.868 73.1956 155.256C73.2736 155.659 73.3262 155.981 73.4027 156.307C73.5748 157.039 73.6402 157.573 73.8665 158.236C74.0369 158.736 74.1912 159.236 74.3333 159.695C74.4771 160.16 74.6073 160.579 74.7337 160.938C74.9186 161.464 75.1988 162.037 75.5521 162.785C76.055 163.85 76.3288 164.633 76.5579 165.341C76.7741 166.008 77.0721 166.672 77.3294 167.208C77.4777 167.517 77.602 167.827 77.7152 168.113C77.8312 168.407 77.9331 168.671 78.0462 168.926C78.1918 169.254 78.2954 169.61 78.387 169.93C78.4591 170.181 78.5263 170.417 78.6048 170.65L78.6878 170.882L78.6947 170.9L78.7005 170.918C78.9186 171.592 79.1714 172.35 79.3411 173.028C79.3747 173.162 79.4046 173.291 79.5531 173.663C79.7063 174.048 79.5187 174.483 79.1341 174.637C78.7494 174.79 78.3139 174.602 78.1605 174.218C77.9842 173.776 77.9338 173.583 77.8861 173.393C77.732 172.777 77.4997 172.081 77.2728 171.38H77.2718C77.134 171.012 77.0335 170.65 76.9456 170.344C76.8506 170.013 76.7724 169.754 76.6751 169.534C76.5459 169.243 76.4288 168.941 76.3197 168.664C76.2077 168.38 76.1001 168.114 75.9769 167.857C75.7092 167.3 75.3781 166.565 75.1312 165.803C74.9142 165.133 74.6633 164.413 74.1966 163.426C73.8627 162.719 73.5362 162.055 73.3187 161.437C73.1808 161.045 73.0423 160.596 72.9007 160.139C72.7575 159.676 72.609 159.197 72.4466 158.721C72.1905 157.97 72.0759 157.217 71.9427 156.65C71.8573 156.287 71.7907 155.891 71.723 155.541C71.6523 155.176 71.5731 154.816 71.4534 154.444C71.2193 153.717 70.9723 152.884 70.7757 151.123C70.6378 149.888 70.397 148.804 70.2396 148.017C70.1481 147.559 70.089 147.167 69.9906 146.718C69.8965 146.288 69.7914 145.938 69.6624 145.689C69.3463 145.08 69.0752 144.304 68.8245 143.508C68.5963 142.783 68.3515 142.033 68.0257 141.482C67.6919 140.919 67.3909 140.385 67.0208 139.847C66.3422 138.859 65.8813 138.183 65.4564 137.692C65.1378 137.325 64.5204 136.717 64.0072 136.032C63.5959 135.483 63.2445 134.949 62.9437 134.483C62.6352 134.006 62.3961 133.627 62.1849 133.339C61.841 132.871 61.5695 132.468 61.3148 132.085C61.0589 131.7 60.8243 131.343 60.5413 130.945C59.947 130.11 57.8324 127.404 56.7103 125.734C55.9188 124.557 55.2821 123.572 54.7777 122.765C54.1478 121.756 53.4048 120.495 52.8919 119.804C52.6471 119.474 52.4163 119.129 52.1976 118.805C51.975 118.474 51.7628 118.162 51.5413 117.869C50.8095 116.901 50.189 115.97 49.5159 115.141C48.7958 114.254 48.2476 113.379 47.7728 112.723C47.4138 112.227 47.1436 111.786 46.9124 111.427C46.6763 111.06 46.4775 110.773 46.2337 110.51C45.3972 109.608 44.9375 108.876 44.4202 108.088C44.2169 107.778 44.0153 107.416 43.848 107.136C43.6669 106.833 43.5047 106.588 43.3363 106.399C42.8377 105.843 42.5167 105.708 42.4085 105.697C41.9964 105.656 41.6957 105.289 41.7366 104.877C41.7776 104.465 42.1448 104.164 42.557 104.205Z" fill="black"/>
<path d="M84.866 170.903C85.8409 170.703 86.9437 170.854 87.6444 171.03C88.4681 171.236 89.2116 171.767 89.7391 172.172C90.0271 172.394 90.1986 172.711 90.2869 172.944C90.4026 173.248 90.4342 173.631 90.2606 173.986C90.01 174.497 89.517 174.758 89.1385 174.915C88.7518 175.076 88.2575 175.214 87.8582 175.341C87.4551 175.47 86.9827 175.558 86.5448 175.637C86.088 175.72 85.6524 175.795 85.2489 175.899L85.1951 175.912L85.1405 175.918C84.0304 176.033 82.5923 176.08 81.4032 176.085C80.8065 176.088 80.2643 176.081 79.8485 176.066C79.6413 176.058 79.4592 176.049 79.3153 176.037C79.2438 176.032 79.1752 176.024 79.1141 176.016C79.0674 176.01 78.9754 175.996 78.8846 175.966L78.8563 175.957L78.828 175.945C78.7732 175.921 78.7238 175.898 78.6844 175.878C78.6387 175.856 78.6166 175.844 78.5799 175.826C78.5213 175.798 78.4597 175.771 78.3748 175.742C77.9823 175.61 77.771 175.185 77.9032 174.792C77.9855 174.548 78.1819 174.374 78.4129 174.31C78.3523 174.24 78.3017 174.159 78.2694 174.067C78.133 173.676 78.3395 173.248 78.7303 173.112C79.09 172.986 79.6979 172.711 80.4071 172.385C81.0957 172.068 81.8607 171.712 82.4842 171.451C82.9136 171.272 83.3368 171.175 83.7313 171.102C84.1684 171.021 84.4632 170.985 84.866 170.903ZM87.2811 172.485C86.6868 172.336 85.8327 172.236 85.1678 172.372C84.7815 172.452 84.3121 172.519 84.0037 172.576C83.6527 172.641 83.3483 172.716 83.0614 172.836C82.47 173.083 81.7384 173.424 81.034 173.748C80.3822 174.048 79.7309 174.342 79.2879 174.503C79.3143 174.516 79.3338 174.525 79.3494 174.532C79.3718 174.535 79.4001 174.538 79.4354 174.541C79.5486 174.55 79.706 174.56 79.9022 174.567C80.2929 174.581 80.8142 174.588 81.3963 174.585C82.5487 174.58 83.908 174.535 84.9412 174.43C85.3905 174.318 85.8639 174.236 86.2782 174.161C86.7309 174.079 87.1068 174.007 87.4022 173.912C87.8928 173.756 88.2545 173.659 88.5623 173.531C88.7021 173.472 88.7868 173.422 88.8387 173.387C88.8374 173.385 88.8371 173.382 88.8358 173.38C88.8166 173.351 88.8098 173.35 88.825 173.362C88.299 172.957 87.7731 172.608 87.2811 172.485Z" fill="black"/>
<path d="M93.6741 165.186C93.7324 164.776 94.1117 164.491 94.5217 164.549C94.7795 164.586 95.056 164.732 95.259 164.861C95.4939 165.009 95.757 165.216 95.9953 165.47C96.4395 165.944 96.7335 166.611 96.925 167.141C97.118 167.674 97.255 168.216 97.3049 168.381C97.4054 168.714 97.4347 169.045 97.4514 169.333C97.4695 169.646 97.4729 169.888 97.5032 170.18L97.5071 170.223V170.267C97.4934 171.404 97.2647 172.021 96.9348 172.521L96.8957 172.601C96.8892 172.619 96.8842 172.636 96.8703 172.692C96.7699 173.093 96.362 173.338 95.9602 173.238C95.5585 173.137 95.3148 172.729 95.4153 172.327C95.4483 172.195 95.4944 172.011 95.6409 171.761L95.6536 171.74L95.6672 171.72C95.8182 171.498 95.9929 171.18 96.0061 170.267C95.9768 169.954 95.9671 169.641 95.9543 169.42C95.9392 169.159 95.916 168.973 95.8684 168.815C95.788 168.548 95.6902 168.139 95.5139 167.652C95.3361 167.16 95.1257 166.736 94.9006 166.495C94.7585 166.344 94.5965 166.217 94.4563 166.128C94.3866 166.084 94.3292 166.054 94.2903 166.036C94.2609 166.023 94.2527 166.021 94.262 166.024C93.8784 165.943 93.6181 165.579 93.6741 165.186Z" fill="black"/>
<path d="M40.989 105.343C41.0473 104.933 41.4265 104.648 41.8366 104.706C42.2466 104.764 42.5316 105.144 42.4733 105.554C42.4325 105.841 42.3584 106.518 42.2331 107.463C42.1153 108.351 41.8917 109.276 41.6354 110.047C41.5427 110.326 41.469 110.659 41.3933 111.047C41.3206 111.419 41.2436 111.852 41.1481 112.264C40.9889 112.95 40.838 113.658 40.4753 114.637C39.9486 116.058 39.3761 117.757 39.0544 118.818C38.887 119.371 38.7518 119.965 38.6227 120.525C38.5002 121.058 38.3731 121.607 38.2282 121.983C38.0975 122.323 37.9962 122.764 37.8923 123.313C37.793 123.836 37.6889 124.475 37.5554 125.1C37.1859 126.827 36.8939 127.846 36.7116 128.893C36.4437 130.431 36.2307 131.198 35.8854 132.104C35.7195 132.539 35.5654 133.029 35.3386 133.739C35.1139 134.443 34.8262 135.337 34.3991 136.546C33.933 137.866 33.4298 138.891 32.8913 140.217C31.6015 143.393 31.2247 144.304 30.904 144.944C30.5897 145.572 30.2301 146.121 29.7819 146.771C29.3954 147.333 28.9442 147.73 28.5075 148.078C28.0536 148.44 27.6596 148.718 27.2341 149.115C25.9249 150.337 24.9975 150.987 24.3063 151.398C23.966 151.601 23.6847 151.743 23.4802 151.852C23.2641 151.966 23.1554 152.031 23.0749 152.098C22.086 152.917 20.4549 154.209 19.6608 154.821C18.8472 155.449 17.9437 156.057 17.1481 156.585C16.3351 157.124 15.662 157.56 15.2536 157.873C13.9647 158.86 12.4193 159.984 10.6267 161.434C9.79728 162.104 8.29132 163.222 7.18134 164.004C5.88399 164.918 5.03155 165.473 4.42646 165.858C3.80443 166.254 3.49824 166.439 3.22821 166.646C2.96264 166.849 2.71313 167.018 2.51142 167.155C2.7713 167.262 3.06377 167.368 3.36982 167.48C3.6723 167.592 4.00569 167.716 4.26142 167.847C4.6909 168.066 5.04001 168.362 5.36591 168.675C5.52857 168.831 5.69452 169 5.862 169.171C6.03195 169.344 6.20813 169.524 6.40302 169.714C6.84435 170.144 7.11455 170.721 7.29169 171.218C7.4719 171.723 7.58494 172.235 7.66279 172.566C7.76537 173.003 7.82982 173.563 7.88056 174.089C7.93393 174.642 7.97164 175.152 8.02118 175.582C8.03367 175.691 8.05037 175.875 8.01532 176.07C7.9785 176.275 7.86518 176.585 7.53974 176.778C7.10516 177.036 6.64081 177.044 6.23603 176.945C5.84654 176.851 5.47778 176.651 5.15497 176.437C4.51651 176.011 3.86055 175.386 3.36298 174.938C2.91779 174.536 2.613 173.982 2.38349 173.493C2.26546 173.242 2.15675 172.984 2.05732 172.748C1.95547 172.507 1.86414 172.29 1.77118 172.095V172.094C1.44578 171.442 1.00445 170.521 0.546574 169.565L0.443058 169.363C0.353149 169.197 0.29486 169.121 0.173527 168.976C-0.0913191 168.657 -0.0482389 168.185 0.270207 167.92C0.414509 167.8 0.590354 167.747 0.764347 167.75C0.70691 167.661 0.656459 167.555 0.627629 167.432C0.547593 167.089 0.666439 166.785 0.846379 166.573C1.03375 166.353 1.30365 166.166 1.51923 166.018C1.76385 165.849 2.02408 165.678 2.31708 165.454C2.65501 165.195 3.0511 164.956 3.62177 164.593C4.20966 164.218 5.04156 163.676 6.31708 162.777C7.41254 162.005 8.89018 160.91 9.68427 160.268C11.4961 158.803 13.0887 157.642 14.3415 156.683C14.803 156.329 15.5425 155.85 16.319 155.335C17.113 154.809 17.9774 154.225 18.7448 153.634C19.5282 153.03 21.1452 151.748 22.1179 150.942C22.3305 150.766 22.5652 150.638 22.779 150.525C23.0044 150.406 23.2407 150.287 23.5397 150.109C24.1271 149.76 24.9694 149.177 26.2106 148.019C26.6926 147.569 27.1953 147.206 27.5729 146.905C27.9675 146.591 28.2842 146.302 28.5466 145.921C28.9883 145.279 29.298 144.802 29.5632 144.272C29.85 143.7 30.1977 142.863 31.5017 139.652C32.093 138.196 32.5289 137.338 32.9851 136.046C33.4048 134.857 33.6873 133.98 33.9099 133.283C34.1302 132.593 34.2996 132.053 34.4841 131.569C34.7863 130.777 34.9768 130.107 35.2331 128.636C35.4182 127.573 35.7488 126.375 36.0886 124.786C36.2181 124.18 36.3089 123.612 36.4186 123.033C36.5236 122.479 36.6449 121.921 36.8288 121.443C36.9263 121.19 37.0282 120.764 37.1608 120.188C37.287 119.641 37.4338 118.993 37.6188 118.383C37.9506 117.288 38.5335 115.56 39.069 114.115C39.3937 113.239 39.5253 112.622 39.6872 111.924C39.7747 111.546 39.8418 111.167 39.9216 110.759C39.9983 110.366 40.0861 109.952 40.2116 109.574C40.4403 108.886 40.6413 108.054 40.7458 107.266C40.8617 106.391 40.9498 105.618 40.989 105.343ZM1.612 168.397C1.6997 168.532 1.78132 168.681 1.88837 168.896L1.89423 168.906C2.12705 169.392 2.35323 169.865 2.56122 170.296L3.11884 171.438L3.12275 171.443L3.12568 171.45C3.23574 171.682 3.34095 171.93 3.44013 172.165C3.54173 172.406 3.63867 172.636 3.74189 172.855C3.95491 173.309 4.15545 173.632 4.36689 173.823C4.92233 174.324 5.46564 174.841 5.98603 175.188C6.19406 175.326 6.3659 175.413 6.50165 175.46C6.46313 175.073 6.42573 174.631 6.38739 174.233C6.33632 173.704 6.27963 173.236 6.20282 172.909C6.11883 172.552 6.02466 172.131 5.87861 171.722C5.72941 171.303 5.55366 170.981 5.35614 170.789C5.1467 170.585 4.95876 170.393 4.78974 170.221C4.61843 170.046 4.4704 169.894 4.32782 169.757C4.04313 169.484 3.81707 169.305 3.57978 169.184C3.41784 169.101 3.17071 169.005 2.85321 168.889C2.55496 168.779 2.20186 168.653 1.89228 168.523C1.80296 168.486 1.70829 168.443 1.612 168.397Z" fill="black"/>
</svg>
