<svg width="261" height="179" viewBox="0 0 261 179" fill="none" xmlns="http://www.w3.org/2000/svg">
<path d="M57.8201 3.26758C58.6718 3.20682 60.0137 3.12449 61.6111 3.16504H61.6277L61.6443 3.16699C61.9338 3.18713 62.2192 3.22053 62.4627 3.32519C62.6585 3.4094 62.7932 3.52687 62.8953 3.64453C63.2328 3.75608 63.6367 3.89576 63.9627 4.00488C64.6041 4.21959 65.196 4.47308 65.8611 4.80469C66.4031 5.07495 66.8169 5.28762 67.1746 5.47168C67.5332 5.65625 67.8304 5.80985 68.1463 5.96777C68.8093 6.29929 69.3299 6.66931 69.7908 6.97656C70.4562 7.42028 71.1479 8.14893 71.5711 8.75C71.7783 9.04432 72.0223 9.33637 72.2781 9.63574C72.5236 9.92296 72.7936 10.2324 73.0056 10.5225C73.3712 11.0228 73.8822 11.6237 74.325 12.3613C74.6912 12.9713 74.9856 13.4633 75.2869 13.9648C75.6507 14.5704 75.9236 15.218 76.3025 16.1768C76.5782 16.8741 76.8952 17.5245 77.0877 18.1885C77.2665 18.8054 77.5052 19.6379 77.74 20.3447C77.8895 20.7948 77.9316 21.3061 77.9558 21.7793C77.9818 22.2869 77.9877 22.7621 78.0359 23.2939C78.157 24.6291 78.1141 25.544 77.9939 26.249C77.8753 26.9448 77.6772 27.4328 77.5633 27.7842C77.3184 28.5391 77.0147 29.4507 76.6804 30.2471C76.5353 30.5928 76.3664 30.9504 76.2078 31.2959C76.0461 31.6481 75.8885 32.001 75.7469 32.3691C75.5075 32.9912 75.2787 33.5695 74.9519 34.3066C74.4296 35.4849 73.8958 36.1493 73.3308 36.7998C72.8003 37.4106 71.9131 38.2188 71.322 38.791C70.5906 39.4992 69.7237 40.2034 69.117 40.6426C68.8009 40.8714 68.4676 41.0318 68.1668 41.165C67.8448 41.3076 67.5903 41.4076 67.3103 41.5479C66.8999 41.7534 66.4442 41.913 66.0584 42.0449C65.6451 42.1862 65.3351 42.2889 65.115 42.3945C64.4914 42.6939 63.8535 42.9029 63.0662 43.0732C62.772 43.1369 62.4764 43.2271 62.159 43.3301C61.8521 43.4296 61.5079 43.5467 61.1687 43.6426C60.4004 43.8598 59.2383 43.9708 56.1209 44.0322C54.5839 44.0625 53.5923 43.6931 52.739 43.4414C51.9808 43.2178 51.0844 42.9381 50.1238 42.6367C49.5104 42.4443 48.8615 42.1341 48.2693 41.8496C47.6535 41.5538 47.0924 41.2831 46.5789 41.1084C45.4326 40.7184 43.9635 39.6951 43.3377 39.2451C43.0449 39.0346 42.7353 38.8261 42.4051 38.6016C42.0794 38.3801 41.7379 38.1454 41.4021 37.8936C40.6968 37.3645 40.2676 36.7508 39.8201 36.0605C39.0818 34.922 38.7069 34.2706 38.3328 33.7393C37.8646 33.0742 37.4316 32.3357 37.0974 31.6875C36.8784 31.2625 36.7236 30.8463 36.5828 30.4336C36.438 30.009 36.3155 29.6119 36.1404 29.1436C35.9256 28.569 35.8515 27.8711 35.8113 27.209C35.7907 26.8699 35.7778 26.5156 35.7644 26.1719C35.7509 25.8242 35.7366 25.4825 35.7127 25.1494C35.6142 23.7803 35.569 21.1924 35.7127 19.501C35.811 18.3445 36.3342 17.2624 36.656 16.3828C36.9102 15.6883 37.1059 15.0089 37.4558 14.332C37.8674 13.5358 38.1309 12.88 38.5496 12.0234C38.9324 11.2403 39.6361 10.4667 39.949 10.0547C40.3497 9.52716 41.2071 8.75083 41.8631 8.19336C42.6871 7.4931 43.8766 6.8029 44.3054 6.50586C44.8663 6.11736 45.5079 5.79235 46.1765 5.56836C46.7474 5.37711 47.4342 5.12187 48.1717 4.93262C48.8979 4.74623 49.5834 4.54388 50.5183 4.41504C51.3986 4.29375 52.1524 4.14279 53.0974 3.97851C53.8409 3.84929 54.6455 3.73352 55.4353 3.63281C56.1684 3.53934 57.0323 3.41516 57.7303 3.2793L57.7752 3.27051L57.8201 3.26758ZM61.2908 4.65918C59.911 4.63643 58.7471 4.70539 57.9656 4.76074C57.2291 4.90203 56.3508 5.02755 55.6248 5.12012C54.8497 5.21893 54.0689 5.33183 53.3543 5.45605C52.4531 5.6127 51.6381 5.77434 50.7234 5.90039C49.8964 6.01435 49.3186 6.18712 48.5447 6.38574C47.877 6.5571 47.2857 6.7793 46.6531 6.99121C46.1198 7.16988 45.6052 7.42986 45.1599 7.73828C44.5441 8.16493 43.5951 8.68982 42.8338 9.33691C42.1603 9.90929 41.4298 10.5848 41.1433 10.9619C40.693 11.5548 40.1945 12.0737 39.8972 12.6816C39.5528 13.3863 39.1863 14.2497 38.7879 15.0205C38.496 15.5852 38.3667 16.0744 38.0652 16.8984C37.6672 17.9862 37.2826 18.7371 37.2068 19.6279C37.0716 21.2191 37.1141 23.725 37.2088 25.042C37.2347 25.4023 37.2499 25.7663 37.2635 26.1143C37.2772 26.4662 37.2891 26.7996 37.3084 27.1182C37.348 27.771 37.4152 28.2715 37.5447 28.6182C37.7295 29.1125 37.8738 29.5721 38.0027 29.9502C38.1357 30.3401 38.2621 30.6743 38.4304 31.001C38.7382 31.5979 39.1369 32.2748 39.5594 32.875C39.9485 33.4278 40.4007 34.1983 41.0789 35.2441C41.5134 35.9143 41.8226 36.334 42.3015 36.6934C42.6075 36.9228 42.925 37.1411 43.2488 37.3613C43.5682 37.5785 43.8994 37.8021 44.2127 38.0273C44.8709 38.5007 46.1627 39.3814 47.0623 39.6875C47.6793 39.8974 48.3299 40.2152 48.9187 40.498C49.5307 40.792 50.0803 41.0507 50.572 41.2051C51.5344 41.507 52.4197 41.7834 53.1638 42.0029C54.075 42.2717 54.8304 42.557 56.0906 42.5322C59.2524 42.4699 60.2121 42.3543 60.7605 42.1992C61.0631 42.1136 61.3583 42.0129 61.6961 41.9033C62.0232 41.7972 62.3783 41.6868 62.7498 41.6064C63.4455 41.4559 63.9675 41.2811 64.4656 41.042C64.7876 40.8874 65.2107 40.7502 65.574 40.626C65.9647 40.4924 66.33 40.3606 66.6385 40.2061C66.9594 40.0452 67.3058 39.9062 67.5594 39.7939C67.8339 39.6724 68.0512 39.5622 68.2371 39.4277C68.7927 39.0256 69.6043 38.3662 70.2791 37.7129C70.9357 37.0771 71.7242 36.3619 72.198 35.8164C72.7136 35.2228 73.1429 34.6871 73.5808 33.6992C73.8934 32.9942 74.1115 32.4418 74.3465 31.8311C74.5058 31.417 74.6802 31.029 74.8445 30.6709C75.012 30.306 75.1641 29.9828 75.2967 29.667C75.6041 28.9347 75.8915 28.0766 76.1365 27.3213C76.2828 26.8703 76.4209 26.5513 76.5154 25.9971C76.6083 25.452 76.6554 24.6726 76.5428 23.4297C76.4912 22.8614 76.4801 22.2907 76.4578 21.8555C76.4337 21.3855 76.3955 21.056 76.3162 20.8174C76.0702 20.077 75.8231 19.2132 75.6472 18.6064C75.4791 18.0264 75.2474 17.5872 74.908 16.7285C74.5274 15.7656 74.2942 15.2243 74.0017 14.7373C73.7008 14.2364 73.4036 13.7413 73.0388 13.1338C72.6403 12.4699 72.2499 12.0312 71.7947 11.4082C71.6252 11.1762 71.4028 10.9208 71.1375 10.6104C70.8824 10.3119 70.5966 9.97236 70.3445 9.61426C70.0046 9.13135 69.4396 8.54526 68.9588 8.22461C68.4568 7.88997 68.0331 7.58842 67.4754 7.30957C67.1497 7.14673 66.8427 6.98767 66.489 6.80566C66.1341 6.62298 65.7262 6.41375 65.1922 6.14746C64.575 5.83973 64.048 5.61484 63.4861 5.42676C63.1047 5.2991 62.7305 5.16854 62.3777 5.05273C62.2066 4.99657 62.0554 4.94917 61.9314 4.91406C61.8697 4.89659 61.8188 4.88249 61.7781 4.87305C61.7583 4.86844 61.7424 4.86559 61.7303 4.86328C61.7242 4.86214 61.719 4.86089 61.7156 4.86035C61.714 4.8601 61.7125 4.86047 61.7117 4.86035L61.7107 4.85937C61.5462 4.83888 61.4027 4.76491 61.2908 4.65918Z" fill="black"/>
<path d="M69.7363 7.56341e-07C70.1504 0.000157396 70.4863 0.335884 70.4863 0.750001C70.4863 1.16412 70.1504 1.49984 69.7363 1.5C69.1541 1.5 68.6248 1.50063 68.292 1.51953C67.9192 1.54073 67.933 1.56422 67.6025 1.59668L67.583 1.59863C67.1973 1.62646 66.8191 1.6829 66.3964 1.74902C65.9805 1.8141 65.5224 1.88805 65.0175 1.9375C64.7962 1.95918 64.5811 1.97253 64.3818 1.98438C64.1784 1.99646 63.9936 2.00716 63.8105 2.02344C63.4484 2.05563 63.1269 2.10812 62.8105 2.21973C62.1189 2.46368 61.5151 2.66926 60.9599 2.87598C60.6414 2.9946 60.1342 3.22684 59.6025 3.47363C59.0946 3.70941 58.5573 3.96188 58.2343 4.09082C57.8498 4.24434 57.4134 4.05731 57.2597 3.67285C57.1062 3.28827 57.2932 2.85193 57.6777 2.69824C57.9509 2.58919 58.4328 2.36199 58.9707 2.11231C59.4849 1.87359 60.0512 1.61418 60.4365 1.4707C61.0078 1.25797 61.64 1.04153 62.3115 0.804688C62.7933 0.634721 63.2531 0.567052 63.6777 0.529298C63.8876 0.510639 64.0974 0.498929 64.2929 0.487305C64.4928 0.475426 64.6824 0.462916 64.872 0.444337C65.3258 0.399871 65.7391 0.334196 66.165 0.267579C66.5785 0.202892 67.0072 0.137833 67.456 0.104493V0.103516C67.5299 0.0961971 67.8607 0.0411524 68.206 0.0214851C68.592 -0.000461716 69.1743 7.56341e-07 69.7363 7.56341e-07Z" fill="black"/>
<path d="M72.1404 2.52417C72.5546 2.52417 72.8904 2.85996 72.8904 3.27417C72.8904 3.68838 72.5546 4.02417 72.1404 4.02417C71.3154 4.02417 70.5409 4.02406 70.0613 4.0437C69.5438 4.06491 69.4961 4.09526 69.1033 4.1228H69.0955L69.0886 4.12378C67.9519 4.18121 67.2172 4.33812 66.4714 4.57202C66.001 4.71959 65.5134 4.88948 65.0925 5.03394C64.8855 5.10496 64.6917 5.17157 64.53 5.22241C64.3861 5.26767 64.2118 5.31875 64.072 5.33862C63.662 5.39689 63.2827 5.11196 63.2244 4.7019C63.1661 4.29185 63.451 3.91258 63.8611 3.85425C63.8633 3.85374 63.9243 3.83966 64.0798 3.79077C64.2209 3.74642 64.3987 3.68716 64.6062 3.61597C65.0144 3.47589 65.528 3.29568 66.0232 3.14038C66.8842 2.87035 67.7404 2.69129 68.9988 2.62671C69.1719 2.61452 69.5207 2.5653 69.9997 2.54565C70.5178 2.52443 71.3306 2.52417 72.1404 2.52417Z" fill="black"/>
<path d="M68.1499 11.1023C68.5599 11.0442 68.9393 11.3291 68.9976 11.739C69.0558 12.149 68.7708 12.5283 68.3608 12.5867C68.3792 12.5841 68.373 12.5839 68.3355 12.5955C68.3028 12.6055 68.2594 12.6209 68.2085 12.6414C68.1047 12.6833 67.9919 12.7379 67.898 12.7957C67.6249 12.9634 67.4793 13.0767 67.148 13.2888C67.0226 13.3691 66.8941 13.4637 66.7329 13.5828C66.5771 13.6979 66.396 13.8327 66.1909 13.9695C66.0064 14.0926 65.9034 14.2239 65.6577 14.5047C65.4626 14.7822 65.3376 15.0096 65.2544 15.2283L65.2485 15.242L65.2437 15.2556C65.2276 15.2933 65.2116 15.3254 65.1997 15.3494C65.185 15.3792 65.1799 15.3893 65.1665 15.4168C65.1456 15.4597 65.1148 15.5253 65.0679 15.6375C64.9082 16.0196 64.4686 16.2004 64.0864 16.0408C63.7043 15.8811 63.5234 15.4415 63.6831 15.0593C63.7412 14.9203 63.7841 14.8288 63.8179 14.7595C63.8317 14.7313 63.85 14.6955 63.855 14.6853C63.8611 14.673 63.8625 14.6685 63.8628 14.6677H63.8638C64.0075 14.2988 64.2057 13.958 64.4536 13.6092L64.4761 13.5779L64.5015 13.5486C64.6925 13.3313 64.9576 12.9885 65.3579 12.7215C65.5284 12.6077 65.6823 12.4939 65.8423 12.3758C65.9966 12.2617 66.165 12.1378 66.3394 12.0261C66.5299 11.9042 66.8726 11.665 67.1128 11.5174C67.2906 11.4081 67.4803 11.317 67.647 11.2498C67.7998 11.1881 67.9867 11.1255 68.1499 11.1023Z" fill="black"/>
<path d="M69.5206 15.3877C69.913 15.2575 70.3366 15.4696 70.4679 15.8613C70.5136 15.8763 70.5751 15.8983 70.6339 15.9277C70.735 15.9785 70.9224 16.0945 71.0372 16.3232L71.0811 16.4287L71.1446 16.6475C71.261 17.132 71.2659 17.7514 71.1788 18.3242C71.1891 18.3737 71.1954 18.425 71.1954 18.4775C71.1954 18.6528 71.1859 18.8235 71.0831 19.1943C71.0626 19.2682 71.0365 19.3511 71.0089 19.4404C71.0051 19.4716 71.0018 19.5022 70.9981 19.5322C70.9663 19.7915 70.9298 20.0819 70.8214 20.3643C70.7437 20.5665 70.6415 20.8287 70.5079 21.0781C70.3754 21.3254 70.1867 21.6096 69.9083 21.8301C69.9012 21.8357 69.8932 21.8409 69.8858 21.8467C69.8776 21.8589 69.8706 21.8718 69.8624 21.8838C69.643 22.2028 69.3396 22.5546 68.8839 22.6826C68.7905 22.7088 68.6236 22.7435 68.4288 22.7061C68.2997 22.6812 68.1693 22.6255 68.0548 22.5361C67.9831 22.5318 67.9093 22.5255 67.8341 22.5137C67.7557 22.5013 67.4702 22.4601 67.2432 22.2217C67.0089 21.9751 66.9744 21.6724 66.9727 21.4834C66.9627 20.2763 67.0266 19.868 67.0597 19.4853C67.0891 19.1439 67.1303 18.6249 67.3292 18.1738C67.4584 17.8809 67.6528 17.3787 67.9093 17.0244C67.9707 16.9395 68.0054 16.8576 68.1065 16.6533C68.1925 16.4796 68.3287 16.2183 68.5733 15.9941C68.885 15.7086 69.2652 15.4724 69.5206 15.3877Z" fill="black"/>
<path d="M57.5109 29.5144C57.8665 29.3026 58.3271 29.4195 58.5392 29.7751C58.5169 29.7377 58.5006 29.7203 58.5109 29.7322C58.5171 29.7395 58.5307 29.7547 58.5538 29.7781C58.5999 29.8248 58.666 29.8877 58.7501 29.9626C58.8237 30.0282 58.9317 30.1052 59.6505 30.4031C59.8478 30.4848 59.9844 30.534 60.128 30.5886C60.2689 30.6421 60.417 30.7018 60.5802 30.7927C60.6487 30.8309 60.7261 30.8627 60.8605 30.9079C60.9803 30.9483 61.1911 31.0132 61.4122 31.0925C62.1914 31.372 62.4842 31.4233 62.8185 31.4773C63.2777 31.5514 63.9896 31.6747 64.463 31.7546C64.5945 31.7768 64.6817 31.7844 64.8263 31.8044C64.9508 31.8217 65.1156 31.8487 65.2853 31.9089C65.3022 31.9149 65.3349 31.9224 65.4298 31.9285C65.4911 31.9324 65.5182 31.9334 65.6036 31.9382C65.6727 31.9421 65.7561 31.9478 65.8468 31.9597C66.2063 32.0068 66.3509 32.043 66.6749 32.0788C66.8557 32.0989 67.1723 32.1106 67.5616 32.1208C67.933 32.1306 68.3563 32.1396 68.7023 32.157C68.9526 32.1696 69.1626 32.1765 69.6573 32.197C70.2367 32.221 70.7322 32.2187 71.0987 32.2087C71.2819 32.2038 71.4318 32.1969 71.5431 32.1902C71.5988 32.1868 71.644 32.1842 71.6778 32.1814C71.6947 32.18 71.7079 32.1785 71.7179 32.1775C71.7281 32.1765 71.7325 32.1755 71.7325 32.1755C71.9898 32.1418 72.1878 32.1293 72.3546 32.1189C72.5223 32.1084 72.6417 32.1009 72.7814 32.0818C73.1882 32.0262 73.5125 31.9817 73.8136 31.9255C73.902 31.9065 74.0108 31.8835 74.0909 31.865C74.1736 31.8459 74.2579 31.8244 74.3898 31.8054C74.7997 31.7463 75.1803 32.0312 75.2394 32.4412C75.2984 32.8511 75.0136 33.2317 74.6036 33.2908C74.5449 33.2992 74.5222 33.3051 74.4278 33.3269C74.3353 33.3482 74.2115 33.3752 74.1134 33.3962L74.0939 33.4001C73.7471 33.465 73.3796 33.5141 72.9845 33.5681C72.7804 33.596 72.6041 33.6062 72.4474 33.616C72.2897 33.6258 72.133 33.636 71.9278 33.6628C71.7152 33.6907 70.8154 33.7456 69.5958 33.6951C69.1133 33.6751 68.886 33.668 68.6271 33.655C68.3048 33.6388 67.9107 33.6311 67.5226 33.6208C67.1524 33.6111 66.7663 33.5984 66.5099 33.5701C66.227 33.5387 65.8331 33.4707 65.6525 33.447C65.5562 33.4344 65.5019 33.4362 65.3341 33.4255C65.1936 33.4165 64.9968 33.3978 64.7833 33.322C64.7637 33.315 64.7242 33.3052 64.6202 33.2908C64.5364 33.2791 64.3699 33.2596 64.213 33.2331C63.7273 33.1511 63.0316 33.0308 62.5792 32.9578C62.1559 32.8894 61.7736 32.8151 60.9054 32.5037C60.6954 32.4284 60.5618 32.3894 60.3819 32.3288C60.217 32.2733 60.0385 32.2069 59.8507 32.1023C59.7844 32.0654 59.7171 32.0364 59.5948 31.99C59.4754 31.9446 59.3008 31.8818 59.0763 31.7888C58.3958 31.5069 58.0466 31.3443 57.753 31.0828C57.6553 30.9957 57.5632 30.9096 57.4864 30.8318C57.4266 30.7712 57.3219 30.6632 57.2501 30.5427C57.0383 30.187 57.1552 29.7265 57.5109 29.5144Z" fill="black"/>
<path d="M46.3903 40.9285C46.6832 40.6356 47.1589 40.6356 47.4518 40.9285C47.7444 41.2213 47.7444 41.6962 47.4518 41.989C47.3567 42.0841 47.0468 42.476 46.8639 42.8728C46.607 43.4303 46.2184 44.0384 45.944 44.531C45.6819 45.0015 45.4382 45.425 45.2125 45.7634C45.0147 46.0602 44.7315 46.5565 44.4079 47.1638C44.2676 47.427 44.1147 47.7359 43.9508 48.0632C43.7902 48.3842 43.6195 48.7214 43.4547 49.0173C43.1622 49.543 43.0038 49.9291 42.8747 50.3162L42.8659 50.3445L42.8541 50.3728C42.8195 50.4542 42.7803 50.5244 42.7594 50.5632C42.7342 50.6101 42.7271 50.6245 42.7223 50.6355C42.7184 50.6445 42.7171 50.6492 42.7028 50.6853C42.6913 50.7141 42.6734 50.7591 42.6491 50.8093C42.5965 50.9179 42.5195 51.0416 42.3991 51.1638C42.1084 51.4589 41.6336 51.4624 41.3385 51.1716C41.0529 50.8902 41.041 50.4367 41.3043 50.1404C41.3054 50.1378 41.3069 50.135 41.3083 50.1316C41.3101 50.1269 41.3126 50.1222 41.3151 50.116C41.3174 50.1101 41.32 50.1028 41.3229 50.0955C41.3287 50.0808 41.3364 50.0616 41.3454 50.0408C41.3799 49.9608 41.4181 49.8905 41.4381 49.8533C41.4567 49.8188 41.4647 49.8027 41.4694 49.7927C41.6237 49.338 41.8157 48.877 42.1442 48.2869C42.2909 48.0233 42.4476 47.7139 42.609 47.3914C42.7674 47.0751 42.9319 46.7426 43.0836 46.4578C43.4102 45.8449 43.723 45.2927 43.9645 44.9304C44.1542 44.6458 44.3733 44.2686 44.6334 43.8015C44.9821 43.1756 45.2734 42.74 45.5016 42.2449C45.762 41.6798 46.1758 41.1431 46.3903 40.9285Z" fill="black"/>
<path d="M39.3255 50.3035C39.5099 49.9327 39.9605 49.7812 40.3313 49.9656C40.4826 50.0408 40.5974 50.1497 40.6643 50.2175C40.7419 50.2962 40.8154 50.3845 40.8811 50.4695C41.0131 50.6401 41.1459 50.8387 41.2581 51.0212C41.4383 51.3144 41.6343 51.6354 42.2239 52.324C43.0431 53.2809 43.3144 53.6544 43.6155 54.031C43.8181 54.2845 44.2401 54.7588 44.51 55.199L44.6634 55.4177C44.7142 55.4864 44.7692 55.5558 44.8274 55.6248C44.8821 55.6745 45.0185 55.7983 45.1858 56.0203C45.4349 56.3509 45.3688 56.8208 45.0384 57.0701C44.7076 57.3194 44.2369 57.2534 43.9876 56.9226C43.9284 56.8441 43.8924 56.806 43.8704 56.7839C43.8574 56.771 43.8447 56.7587 43.8245 56.74C43.8065 56.7234 43.7748 56.6944 43.7425 56.6619L43.7229 56.6423L43.7044 56.6209C43.5234 56.4095 43.3754 56.2012 43.262 56.031L43.2425 55.9998C43.0429 55.6668 42.7428 55.3418 42.4436 54.9675C42.1219 54.565 41.8815 54.2308 41.0843 53.2996C40.4331 52.539 40.1916 52.1512 39.9798 51.8064C39.8844 51.6512 39.7827 51.5003 39.6946 51.3865C39.6513 51.3305 39.619 51.2928 39.5979 51.2712C39.2757 51.0687 39.1525 50.6515 39.3255 50.3035Z" fill="black"/>
<path d="M40.7718 54.093C41.0308 53.8147 41.4642 53.7726 41.7738 54.0071C42.0685 54.2306 42.1507 54.6296 41.9867 54.9475C41.9787 54.978 41.9667 55.0285 41.9525 55.1057C41.9197 55.284 41.8893 55.4946 41.8402 55.7883C41.7592 56.2721 41.7386 56.6206 41.7289 56.9065C41.72 57.1688 41.7211 57.4828 41.6712 57.7756C41.6267 58.0372 41.5969 58.3254 41.5648 58.6291C41.5345 58.916 41.5 59.2353 41.4457 59.4993C41.4129 59.6582 41.3925 59.8868 41.3724 60.1897C41.3538 60.4714 41.3358 60.8139 41.3011 61.1282C41.2746 61.3686 41.2372 61.628 41.2025 61.8772C41.167 62.1322 41.1321 62.3897 41.1078 62.6565C41.054 63.2454 40.9074 63.8627 40.8099 64.3254C40.6995 64.8494 40.6124 65.3891 40.5765 65.8039C40.5508 66.1015 40.4946 66.3983 40.4496 66.6535C40.4024 66.9204 40.3619 67.1719 40.3451 67.4446C40.3293 67.6992 40.2962 67.9487 40.2679 68.1975C40.2387 68.4548 40.2084 68.7566 40.1898 69.1682C40.1747 69.501 40.1149 69.8053 40.0668 70.0618C40.0169 70.3273 39.9731 70.5726 39.9564 70.8635C39.9386 71.1748 39.8969 71.4435 39.8558 71.6897C39.8138 71.9415 39.775 72.157 39.7455 72.4114C39.7011 72.7942 39.6784 73.1472 39.6595 73.4944C39.641 73.8349 39.6247 74.1857 39.5902 74.5266C39.5303 75.1187 39.4245 76.6988 39.3597 77.7756C39.3306 78.2596 39.2935 78.6236 39.2591 78.9299C39.2241 79.242 39.1954 79.4649 39.1771 79.7063C39.1561 79.9835 39.1262 80.2562 39.097 80.5061C39.0673 80.7613 39.0393 80.9868 39.0209 81.1946C38.9941 81.4956 38.9501 81.8388 38.9076 82.1897C38.8642 82.5475 38.82 82.9325 38.7884 83.3489L38.7865 83.3684L38.7845 83.3869C38.7501 83.6551 38.7246 83.9926 38.7123 84.4162V84.4309L38.7113 84.4465C38.7031 84.563 38.6904 84.658 38.68 84.7414C38.6696 84.8251 38.6579 84.9233 38.6459 85.0774C38.6136 85.4903 38.2522 85.799 37.8392 85.7668C37.4264 85.7345 37.1176 85.374 37.1498 84.9612C37.1641 84.7767 37.1786 84.6541 37.1908 84.5559C37.203 84.4575 37.2095 84.4088 37.2142 84.342C37.2279 83.8983 37.2547 83.5199 37.2962 83.1965C37.3301 82.761 37.3754 82.3627 37.4183 82.009C37.4633 81.6378 37.5027 81.3315 37.5267 81.0618C37.5475 80.8279 37.5785 80.575 37.6068 80.3323C37.6357 80.0841 37.6635 79.8383 37.682 79.594C37.703 79.3164 37.737 79.0459 37.7689 78.7619C37.8015 78.472 37.8356 78.1357 37.8627 77.6858C37.927 76.616 38.0344 75.0047 38.098 74.3762C38.1281 74.0793 38.1429 73.7731 38.1625 73.4133C38.1816 73.0603 38.2053 72.6692 38.2552 72.2385C38.2903 71.936 38.3386 71.6685 38.3763 71.4426C38.415 71.2111 38.4453 71.0062 38.4584 70.7776C38.481 70.3823 38.5413 70.0549 38.5921 69.7844C38.6447 69.5047 38.6823 69.3087 38.6918 69.1008C38.7124 68.6452 38.746 68.3078 38.7777 68.0285C38.8103 67.741 38.8354 67.5558 38.848 67.3518C38.8704 66.9893 38.9244 66.6672 38.973 66.3918C39.0237 66.1048 39.0638 65.8895 39.0824 65.675C39.1251 65.1806 39.2238 64.5773 39.3421 64.0159C39.4523 63.493 39.5711 62.997 39.6146 62.5207C39.6423 62.2169 39.68 61.9301 39.7162 61.6701C39.7532 61.4041 39.7865 61.1768 39.8099 60.9641C39.8398 60.6928 39.8557 60.4033 39.8763 60.091C39.8956 59.7997 39.9203 59.4712 39.9769 59.1965C40.0135 59.0188 40.0402 58.7786 40.0726 58.4719C40.1033 58.182 40.1386 57.8418 40.1927 57.5237C40.2202 57.362 40.2179 57.2091 40.2298 56.8557C40.241 56.5256 40.2658 56.1085 40.3607 55.5412C40.4025 55.2917 40.4429 55.0232 40.4779 54.8332C40.4961 54.7346 40.5171 54.6305 40.5433 54.5364C40.5618 54.4698 40.6099 54.3008 40.723 54.1516L40.7718 54.093Z" fill="black"/>
<path d="M45.0515 63.9897C45.2812 63.6452 45.7469 63.5522 46.0915 63.7817C46.4362 64.0115 46.5293 64.4771 46.2995 64.8218C46.2467 64.901 46.1954 64.978 46.1433 65.0561C46.0405 65.2103 45.888 65.4388 45.6843 65.7573C45.5671 65.9617 45.4176 66.1742 45.3454 66.2856C45.2506 66.4321 45.1968 66.5373 45.1658 66.647C45.0057 67.2131 44.7565 67.788 44.5495 68.2192C44.348 68.6391 44.193 68.8895 44.0583 69.2554C43.9635 69.5132 43.834 69.7446 43.737 69.9185C43.6302 70.1099 43.5596 70.2391 43.5115 70.3657C43.3631 70.7555 43.1638 71.1575 43.0056 71.5239C42.854 71.8752 42.7142 72.2909 42.5994 72.6997C42.4878 73.0968 42.3938 73.4837 42.2312 74.1841C42.0913 74.7866 41.9306 75.2378 41.7927 75.6265C41.705 75.8738 41.5984 76.1214 41.5056 76.3384C41.4087 76.565 41.3261 76.76 41.2634 76.9419C41.105 77.4017 40.9132 77.8113 40.738 78.1763C40.5526 78.5626 40.412 78.83 40.3357 79.1352C40.2255 79.5761 40.0646 80.1059 39.8122 80.6108C39.7309 80.7735 39.6628 80.9561 39.5603 81.2368C39.4607 81.5096 39.338 81.848 39.156 82.271C38.9915 82.6532 38.8979 83.1898 38.8757 83.3901C38.8301 83.8018 38.4593 84.0988 38.0476 84.0532C37.6361 84.0074 37.3399 83.6366 37.3855 83.2251C37.4147 82.9612 37.529 82.257 37.7781 81.6782C37.9419 81.2977 38.0519 80.9939 38.1511 80.7222C38.2474 80.4584 38.3442 80.1935 38.4704 79.9409C38.6539 79.574 38.7832 79.1616 38.8806 78.772C39.0035 78.2806 39.2342 77.842 39.3855 77.5269C39.5587 77.166 39.7176 76.8245 39.8454 76.4536C39.9288 76.2118 40.0335 75.9665 40.1267 75.7485C40.224 75.5209 40.3107 75.3189 40.3796 75.1245C40.5163 74.7392 40.6512 74.3581 40.7703 73.8452C40.9329 73.1447 41.0332 72.728 41.155 72.2944C41.2826 71.8402 41.4436 71.3579 41.6287 70.9292C41.8382 70.4438 41.9712 70.1939 42.1091 69.8315C42.2034 69.5837 42.3335 69.3564 42.4275 69.188C42.5313 69.0018 42.6028 68.8689 42.6511 68.7378C42.8173 68.2863 43.0618 67.8514 43.197 67.5698C43.388 67.1721 43.5962 66.6854 43.7224 66.2388C43.8131 65.9181 43.9594 65.6667 44.0867 65.4702C44.2317 65.2463 44.3083 65.15 44.3962 64.9907L44.4079 64.9702L44.4206 64.9497C44.6323 64.6188 44.7911 64.3803 44.8953 64.2241C44.9473 64.146 44.9987 64.069 45.0515 63.9897Z" fill="black"/>
<path d="M46.4387 55.7007C46.906 55.3391 47.482 55.3716 47.8293 55.4282C48.2338 55.4942 48.6202 55.6435 48.8166 55.7173C49.1818 55.8544 49.5654 56.1432 49.8723 56.395C50.1965 56.6611 50.5406 56.9759 50.8137 57.2173C51.3069 57.6534 51.5066 58.2587 51.6086 58.7388C51.7312 59.3165 51.5425 59.8789 51.382 60.2583C51.2962 60.4612 51.1999 60.6515 51.1213 60.8062C51.0359 60.9741 50.9812 61.0822 50.9465 61.1655C50.6878 61.7877 50.5119 62.2698 50.3332 62.6421C50.1662 62.99 49.9022 63.5539 49.509 64.0278C48.9565 64.6936 48.0586 65.0618 47.5041 65.2085H47.5022C47.2621 65.2715 47.0744 65.3263 46.9006 65.3745C46.784 65.4069 46.6554 65.4383 46.5324 65.4624C46.5311 65.4632 46.53 65.4644 46.5285 65.4653C46.516 65.4734 46.5025 65.4827 46.4816 65.4966C46.137 65.7263 45.6714 65.6331 45.4416 65.2886C45.3973 65.2222 45.3677 65.1505 45.3469 65.0776C45.2207 65.0159 45.1097 64.9192 45.0324 64.7896C45.0583 64.833 45.0742 64.8436 45.0178 64.7818C44.9626 64.7214 44.9303 64.6898 44.843 64.5952C44.7003 64.4406 44.5087 64.2235 44.3381 63.9644C44.0622 63.5453 43.9829 63.0629 43.9524 62.6235C43.9226 62.1949 43.9342 61.6585 43.9279 61.1392C43.9228 60.7127 44.0165 60.3424 44.1125 60.0474C44.1597 59.9024 44.2111 59.764 44.2512 59.6548C44.2942 59.5377 44.3247 59.4534 44.3449 59.3814C44.4656 58.9519 44.6672 58.4959 44.8488 58.1138C45.0503 57.6901 45.1991 57.4101 45.302 57.1792C45.5819 56.5507 45.9838 56.1122 46.3469 55.7778L46.4387 55.7007ZM47.5881 56.9087C47.4357 56.8839 47.3664 56.8942 47.3449 56.8989C47.0674 57.1568 46.8328 57.4289 46.6721 57.7896C46.5673 58.0249 46.3588 58.4304 46.2033 58.7573C46.0281 59.1259 45.8727 59.4871 45.7883 59.7876C45.7502 59.9231 45.7013 60.0582 45.6594 60.1724C45.6146 60.2943 45.5755 60.3998 45.5393 60.5112C45.4683 60.7294 45.4256 60.925 45.4279 61.1216C45.4353 61.7276 45.4225 62.147 45.4484 62.52C45.4737 62.8822 45.531 63.048 45.591 63.1392C45.6938 63.2953 45.8198 63.4414 45.9455 63.5776C45.9923 63.6283 46.0824 63.7242 46.1252 63.771C46.1611 63.8104 46.23 63.8901 46.2902 63.98C46.3363 63.9692 46.4033 63.9558 46.4992 63.9292C46.6528 63.8866 46.8679 63.8238 47.1213 63.7573C47.5522 63.6432 48.0939 63.3841 48.3547 63.0698C48.61 62.7622 48.7992 62.3707 48.9807 61.9927C49.1387 61.6634 49.2613 61.3118 49.5617 60.5894C49.6241 60.4395 49.7126 60.2677 49.7844 60.1265C49.863 59.9718 49.937 59.8228 50.0002 59.6734C50.1377 59.3482 50.1634 59.1526 50.1418 59.0503C50.0618 58.6739 49.9494 58.4562 49.8195 58.3413C49.5178 58.0745 49.2159 57.7979 48.9201 57.5552C48.607 57.2982 48.3957 57.1616 48.2893 57.1216C48.0704 57.0394 47.8218 56.9468 47.5881 56.9087Z" fill="black"/>
<path d="M44.3865 63.4482C44.7575 63.3656 45.1381 63.5759 45.2605 63.9443C45.3777 64.2978 45.2165 64.6752 44.8972 64.8428C44.886 64.8521 44.8675 64.8681 44.8406 64.8936C44.7625 64.9674 44.6561 65.0791 44.5154 65.2324C44.2863 65.482 44.0699 65.7176 43.8269 66.001C43.2083 66.7222 42.6655 67.1018 42.195 67.544L42.1941 67.543C42.0745 67.6625 41.977 67.7628 41.8904 67.8389C41.8433 67.8801 41.7952 67.9178 41.7663 67.9414C41.7334 67.9683 41.6909 68.0039 41.6238 68.0635C41.3141 68.3383 40.8401 68.3105 40.5652 68.001C40.2903 67.6913 40.3182 67.2174 40.6277 66.9424C40.7123 66.8672 40.7713 66.8185 40.8181 66.7803C40.8691 66.7387 40.8805 66.73 40.9011 66.7119C40.9457 66.6727 41.0072 66.6107 41.1511 66.4668L41.1599 66.459L41.1677 66.4512C41.8364 65.8226 42.1255 65.6817 42.6892 65.0244C42.9493 64.7211 43.1788 64.4694 43.4099 64.2178C43.5543 64.0605 43.6906 63.916 43.8093 63.8037C43.8685 63.7477 43.9339 63.689 44.0017 63.6377C44.0574 63.5955 44.1681 63.5166 44.3122 63.4688L44.3865 63.4482Z" fill="black"/>
<path d="M37.8391 68.4341C38.1837 68.2732 38.6011 68.3964 38.8001 68.73C38.9881 69.0456 38.9165 69.4425 38.6497 69.6763C38.6249 69.707 38.5886 69.7561 38.5354 69.8296C38.4363 69.9667 38.2913 70.1731 38.1321 70.3813C37.7358 70.8996 37.2853 71.169 37.0862 71.3169C36.4 71.8269 35.7631 72.0802 35.4593 72.189C35.1811 72.3154 34.9348 72.3788 34.7552 72.4106L34.7317 72.4155L34.7093 72.4175C34.6969 72.4189 34.682 72.4197 34.6751 72.4204C34.6667 72.4242 34.6542 72.4321 34.636 72.4419C34.2717 72.6386 33.8163 72.5025 33.6194 72.1382C33.4227 71.7738 33.5588 71.3185 33.9231 71.1216C34.0577 71.0488 34.1826 70.9973 34.3079 70.9653C34.3867 70.9452 34.4636 70.9349 34.5061 70.9302C34.5974 70.9132 34.7251 70.8815 34.8694 70.812L34.9056 70.7944L34.9436 70.7808C35.1663 70.7016 35.6591 70.5088 36.1907 70.1138C36.5114 69.8754 36.7084 69.7727 36.9397 69.4702C37.0829 69.2829 37.2066 69.1083 37.3206 68.9507C37.374 68.8768 37.4308 68.7992 37.4827 68.7349C37.5085 68.7029 37.5407 68.6647 37.5765 68.6274C37.6035 68.5993 37.6729 68.5282 37.7718 68.4692L37.8391 68.4341Z" fill="black"/>
<path d="M29.601 42.7908C30.1853 42.7386 31.9891 42.5928 33.5619 42.822C34.2147 42.9172 34.9495 43.0572 35.5863 43.2214C35.9041 43.3034 36.209 43.394 36.4721 43.4929C36.7185 43.5856 36.9912 43.7078 37.1986 43.8728C37.5577 44.1585 38.289 44.6366 38.6996 45.3855C39.294 46.4701 39.5311 47.0268 39.7094 47.5505C39.9142 48.1523 39.9691 48.915 39.9691 49.1912C39.9689 49.6052 39.6332 49.9412 39.2191 49.9412C39.004 49.941 38.8109 49.8491 38.6742 49.7038C38.3926 49.7036 38.1282 49.5471 38.0014 49.2869C37.9917 49.2842 37.9815 49.2812 37.9701 49.2781L37.9545 49.2742L37.9389 49.2693C37.7496 49.2087 37.566 49.132 37.4047 49.0632C37.2348 48.9908 37.0856 48.9248 36.9242 48.864C36.6135 48.7469 36.2934 48.6619 35.9125 48.657C35.392 48.6502 34.9323 48.6195 34.4252 48.6296C33.9325 48.6395 33.5376 48.6897 33.2543 48.8005C32.7134 49.0121 32.4187 49.1296 32.0883 49.3494C31.7036 49.6053 31.0687 50.1027 30.3744 50.5027C30.2245 50.589 30.1068 50.6856 29.9242 50.8376C29.7445 50.9872 29.5192 51.1755 29.2035 51.3718C29.0073 51.4938 28.8536 51.6175 28.6508 51.7781C28.4521 51.9353 28.2175 52.1176 27.9066 52.2947C27.1052 52.751 26.8133 52.9636 26.2269 53.4509C25.9831 53.6536 25.7131 53.911 25.3519 54.2537C24.9968 54.5905 24.5699 54.993 24.0375 55.4607C23.5102 55.9239 23.1137 56.3234 22.7562 56.6531C22.4986 56.8907 22.1657 57.3303 21.9847 57.6579C21.9603 57.7023 21.9324 57.7668 21.891 57.8747C21.856 57.9659 21.803 58.1094 21.7455 58.2371C21.6481 58.4529 21.3949 58.9651 20.7953 59.0701C20.521 59.118 20.2519 59.0628 20.057 59.0183C19.8704 58.9757 19.5428 58.888 19.2318 58.8132C18.5181 58.6416 17.9013 58.3324 17.5922 58.2117C17.4971 58.1745 17.3818 58.1396 17.2367 58.0994C17.1041 58.0626 16.9292 58.0173 16.7709 57.9685C16.4782 57.8783 16.0165 57.7175 15.7064 57.3425C15.6678 57.2958 15.5874 57.1968 15.5238 57.072C15.4684 56.9632 15.3522 56.6933 15.4525 56.3699L15.517 56.2038C15.5408 56.1516 15.5657 56.1039 15.5853 56.0662C15.6313 55.9778 15.6876 55.8762 15.7455 55.7732C15.8652 55.56 16.0034 55.317 16.1381 55.0554C16.4123 54.5226 16.7115 54.091 17.0219 53.7009C17.2058 53.4698 17.4234 53.2221 17.6 53.0124C17.7874 52.7899 17.9509 52.5841 18.0834 52.3816C18.4533 51.8161 18.8224 51.0468 19.681 49.9031C20.2813 49.1036 20.6759 48.7174 21.3451 47.9353C21.9461 47.2329 22.255 46.8508 22.8871 46.2751C23.2014 45.9888 23.6006 45.3993 24.8158 44.6472C25.6488 44.1317 26.7383 43.5301 27.8597 43.1941C28.49 43.0053 29.0559 42.8395 29.601 42.7908ZM33.3461 44.3064C31.9646 44.105 30.3166 44.2328 29.7338 44.2849C29.3672 44.3177 28.9505 44.4329 28.2904 44.6306C27.359 44.9097 26.4031 45.4293 25.6058 45.9226C24.5404 46.5819 24.4372 46.8913 23.8969 47.3835C23.3472 47.8842 23.101 48.1897 22.4847 48.9099C21.7428 49.777 21.4455 50.0529 20.8812 50.8044C20.0354 51.9311 19.8506 52.4212 19.3392 53.2029C19.1557 53.4834 18.9442 53.7446 18.7474 53.9783C18.5396 54.225 18.3633 54.4239 18.1957 54.6345C17.9319 54.9659 17.6916 55.3152 17.4721 55.7419C17.3273 56.0232 17.1784 56.2847 17.0658 56.4851C17.1083 56.5008 17.1567 56.5178 17.2123 56.5349C17.3436 56.5754 17.473 56.6083 17.6381 56.654C17.7906 56.6963 17.9675 56.7476 18.1381 56.8142C18.6306 57.0066 18.9988 57.2139 19.5824 57.3542C19.7678 57.3988 19.9275 57.4401 20.0619 57.4744C20.1992 57.5094 20.3036 57.5355 20.391 57.5554C20.3949 57.5563 20.3989 57.5565 20.4027 57.5574C20.427 57.4981 20.4537 57.4313 20.4896 57.3376C20.5322 57.2266 20.5919 57.076 20.6713 56.9324C20.9183 56.4851 21.347 55.9126 21.7396 55.5505C22.0293 55.2834 22.5138 54.8032 23.0482 54.3337C23.5576 53.8863 23.9666 53.4997 24.3197 53.1648C24.6665 52.8358 24.9776 52.5389 25.268 52.2976C25.9198 51.7558 26.2841 51.4922 27.1644 50.991C27.3716 50.873 27.5325 50.7497 27.7201 50.6013C27.9037 50.456 28.1276 50.2733 28.4105 50.0974C28.6309 49.9604 28.7887 49.8315 28.9642 49.6853C29.1371 49.5414 29.3478 49.3627 29.6254 49.2029C30.285 48.823 30.7054 48.4674 31.2572 48.1003C31.7427 47.7773 32.1878 47.6077 32.7084 47.404C33.2446 47.1943 33.8549 47.1404 34.3949 47.1296C34.9203 47.1191 35.5212 47.1516 35.932 47.157C36.5429 47.1649 37.0413 47.3058 37.4525 47.4607C37.6521 47.5359 37.8404 47.618 37.9935 47.6833C38.0657 47.7141 38.1307 47.7413 38.1908 47.7654C38.0501 47.3993 37.8353 46.9305 37.3842 46.1072C37.1607 45.6994 36.7895 45.464 36.265 45.0466C36.2655 45.047 36.2589 45.0423 36.2435 45.0329C36.2281 45.0235 36.2067 45.0112 36.1781 44.9968C36.1197 44.9675 36.0422 44.9339 35.9447 44.8972C35.7488 44.8236 35.4986 44.7477 35.2113 44.6736C34.6377 44.5256 33.9579 44.3956 33.3461 44.3064Z" fill="black"/>
<path d="M17.5833 58.4443C17.7138 58.0515 18.1376 57.8387 18.5306 57.9687C18.8224 58.0655 19.0138 58.3245 19.0404 58.6123C19.093 58.3494 19.2823 58.1226 19.557 58.04L19.6478 58.0185C19.8668 57.9801 20.1405 58.0248 20.3538 58.2432C20.5326 58.4264 20.5699 58.6393 20.5804 58.7139C20.605 58.8887 20.5767 59.0549 20.5589 59.1426L20.5462 59.206L20.5228 59.2666C20.3325 59.754 20.1701 60.1331 19.7493 61.0254L19.7015 61.1279L19.6253 61.2109C19.5047 61.3433 19.3949 61.4725 19.2796 61.6064C19.1696 61.7342 19.0488 61.8723 18.928 61.9932C18.7387 62.1827 18.3153 62.5819 17.7288 62.4941C17.6173 62.4774 17.4015 62.4296 17.2064 62.2568C16.9846 62.0603 16.8869 61.7915 16.8831 61.5273C16.8702 60.6228 16.9552 60.119 17.1136 59.6191C17.2036 59.3352 17.3192 59.0551 17.4124 58.8389C17.4573 58.7348 17.5048 58.6278 17.5345 58.5596C17.5508 58.5221 17.5633 58.4924 17.5726 58.4697C17.5828 58.445 17.5851 58.439 17.5833 58.4443ZM19.0277 58.8408C19.0221 58.8662 19.0155 58.8918 19.0071 58.917C18.9816 58.9941 18.9409 59.0884 18.9105 59.1582C18.8725 59.2455 18.8359 59.3269 18.7904 59.4326C18.7118 59.6148 18.6308 59.8142 18.5667 60.0049C18.7958 59.5116 18.9244 59.2192 19.0423 58.9258C19.0358 58.8974 19.0308 58.8691 19.0277 58.8408Z" fill="black"/>
<path d="M16.2418 57.4668C16.4473 57.1072 16.9057 56.9821 17.2653 57.1875C17.6249 57.393 17.75 57.8513 17.5446 58.2109C17.4645 58.3511 17.4041 58.4538 17.2965 58.7061C17.0672 59.2438 16.9461 59.5646 16.8688 59.7803C16.8002 59.9717 16.7422 60.1547 16.6686 60.3223C16.5884 60.505 16.5294 60.7028 16.4801 60.9014C16.4554 61.0011 16.4344 61.0936 16.4127 61.1885C16.3926 61.2765 16.3695 61.3782 16.3434 61.4678C16.2445 61.8075 16.1696 62.2303 16.0739 62.6797C16.0579 62.7548 16.0502 62.8366 16.0436 62.9463C16.038 63.0383 16.0314 63.1995 16.0143 63.3408C15.9784 63.6364 15.9487 64.1511 15.9215 64.7891C15.907 65.1291 15.917 65.7816 15.9381 66.2842C15.9722 67.0925 16.0377 67.4178 16.0592 67.6338C16.0744 67.7861 16.1199 67.983 16.1872 68.2207C16.2379 68.4002 16.3448 68.7433 16.3952 68.9277C16.4105 68.984 16.4313 69.0413 16.4625 69.125C16.491 69.2011 16.5325 69.3113 16.568 69.4287C16.5863 69.4893 16.6435 69.6169 16.7672 69.8418C16.8852 70.0561 17.0344 70.3075 17.2116 70.6094C17.3562 70.8558 17.4815 71.0429 17.5807 71.1855C17.6494 71.2844 17.6567 71.2932 17.7164 71.3789C17.7524 71.4305 17.8012 71.5011 17.8405 71.5713C18.0692 71.9805 18.3033 72.2406 18.5065 72.4912C18.7696 72.8157 18.9506 73.0025 19.067 73.1035C19.1843 73.2052 19.305 73.3255 19.3991 73.4199C19.5043 73.5256 19.579 73.6007 19.6383 73.6523C19.8424 73.8299 20.0738 74.0186 20.4332 74.2754C20.6362 74.4204 20.8885 74.544 21.1774 74.625C21.5471 74.7287 21.7884 74.7439 22.6774 74.7939C23.2958 74.8287 24.349 74.8098 24.9801 74.7988C25.3366 74.7926 25.5404 74.7793 25.6706 74.7666C25.806 74.7533 25.8511 74.7426 25.9772 74.7246C26.5771 74.6392 26.7958 74.5141 27.0973 74.4014C27.3552 74.3049 27.8112 74.1595 28.1403 74.0566C28.3813 73.9813 28.7001 73.8809 29.0875 73.748C29.1175 73.7377 29.2074 73.6976 29.3356 73.623C29.4574 73.5522 29.5768 73.4715 29.6627 73.4033C29.8443 73.2591 30.0451 73.0539 30.2399 72.8379C30.4347 72.6219 30.5278 72.4692 30.9176 71.9863C31.1904 71.6485 31.4103 71.3504 31.568 71.1279C31.6469 71.0167 31.7103 70.9254 31.7555 70.8574C31.7781 70.8235 31.7952 70.7957 31.8082 70.7754C31.8204 70.7564 31.8266 70.747 31.8278 70.7451C31.9036 70.616 31.9831 70.4914 32.0582 70.3721C32.1355 70.2494 32.2188 70.1155 32.317 69.9443C32.8599 68.9985 33.1738 68.6551 33.2409 68.5664C33.2879 68.4905 33.3488 68.3944 33.4342 68.251C33.4642 68.1976 33.4949 68.1397 33.5622 67.9766C33.7201 67.5938 34.1588 67.4115 34.5416 67.5693C34.9246 67.7273 35.1069 68.1659 34.9489 68.5488C34.8637 68.7552 34.8077 68.8699 34.7399 68.9902L34.736 68.998L34.7311 69.0059C34.6248 69.1848 34.5399 69.3188 34.5036 69.3779L34.4928 69.3955L34.4811 69.4131C34.3137 69.6546 34.1458 69.7705 33.6178 70.6904C33.5052 70.8867 33.4101 71.0401 33.3278 71.1709C33.2432 71.3052 33.1815 71.4015 33.1207 71.5049C33.0421 71.6387 32.6665 72.2068 32.0846 72.9277C31.7936 73.2882 31.5735 73.5986 31.3532 73.8428C31.1462 74.0722 30.8781 74.3537 30.5954 74.5781C30.3103 74.8044 29.8743 75.0639 29.5739 75.167C29.1668 75.3065 28.8326 75.4117 28.5875 75.4883C28.2495 75.5939 27.8348 75.7273 27.6227 75.8066C27.3998 75.89 26.9918 76.0957 26.1891 76.21C25.9904 76.2383 25.7894 76.2852 25.0055 76.2988C24.3998 76.3094 23.2804 76.3306 22.5934 76.292C21.7452 76.2443 21.3296 76.2258 20.7721 76.0693C20.3203 75.9426 19.9094 75.7439 19.5612 75.4951C19.1622 75.21 18.8926 74.9927 18.653 74.7842C18.5441 74.6894 18.4267 74.57 18.3356 74.4785C18.2333 74.3758 18.1529 74.2956 18.0846 74.2363C17.8747 74.0542 17.6309 73.7925 17.3414 73.4355C17.1759 73.2314 16.8381 72.8531 16.5309 72.3037C16.5299 72.3022 16.5198 72.2849 16.486 72.2363C16.4714 72.2154 16.387 72.0963 16.3493 72.042C16.2355 71.8784 16.0882 71.6581 15.9186 71.3691C15.7493 71.0806 15.5837 70.8035 15.4528 70.5654C15.3277 70.3382 15.2008 70.0892 15.1325 69.8633C15.1141 69.8024 15.0922 69.7438 15.0573 69.6504C15.0252 69.5647 14.983 69.4507 14.9479 69.3223C14.8834 69.086 14.8323 68.9418 14.7438 68.6289C14.6717 68.374 14.5959 68.0722 14.567 67.7822C14.5563 67.6738 14.4754 67.2081 14.4391 66.3477C14.4173 65.8301 14.4063 65.1276 14.4235 64.7246C14.4503 64.0953 14.482 63.5231 14.526 63.1602C14.5358 63.0789 14.5375 63.0068 14.5465 62.8564C14.5545 62.7238 14.5675 62.5532 14.6071 62.3672C14.6859 61.9971 14.7837 61.4589 14.903 61.0488C14.9378 60.9292 14.9543 60.8212 15.0241 60.54C15.0826 60.3045 15.1652 60.0134 15.2946 59.7187C15.3403 59.6146 15.3601 59.543 15.4567 59.2734C15.5447 59.0279 15.6767 58.6798 15.9166 58.1172C16.0572 57.7876 16.15 57.6275 16.2418 57.4668Z" fill="black"/>
<path d="M32.8759 64.9656C33.1432 64.6954 33.5775 64.6663 33.8798 64.9099C34.172 65.1456 34.2398 65.5551 34.0566 65.8699C34.0455 65.8963 34.0309 65.9354 34.0068 65.9978C33.9595 66.1202 33.8908 66.2975 33.8007 66.4988C33.6407 66.8566 33.5457 67.1111 33.2988 67.4881C32.7338 68.3506 32.643 68.4663 32.5351 68.6385C32.4504 68.7735 32.3699 68.8893 32.3046 68.9822C32.2356 69.0803 32.1893 69.1466 32.1503 69.2107C32.0688 69.3451 31.9797 69.4841 31.9013 69.6062C31.82 69.733 31.7535 69.8369 31.705 69.9168C31.599 70.0914 31.4312 70.3554 31.2294 70.6531C31.0158 70.9683 30.8361 71.2152 30.6328 71.4558C30.5603 71.5415 30.509 71.6086 30.4218 71.7166C30.3467 71.8096 30.2494 71.9257 30.1347 72.032C29.9443 72.2085 29.6863 72.3764 29.5859 72.45C29.4216 72.5704 29.2715 72.6668 29.1269 72.7527C29.0544 72.8153 28.9578 72.8937 28.8408 72.9568L28.8124 72.9724L28.8076 72.9744C28.5118 73.2223 28.0715 73.2065 27.7949 72.9275C27.5032 72.6334 27.5046 72.1586 27.7988 71.867L27.9189 71.7615C27.9605 71.7292 28.0038 71.6998 28.0497 71.6736C28.0743 71.6597 28.1037 71.6473 28.1289 71.6355C28.1395 71.6271 28.155 71.6132 28.1796 71.5906L28.2412 71.5349L28.3124 71.4939C28.4292 71.4269 28.5525 71.3485 28.6992 71.241C28.9247 71.0757 29.0076 71.0311 29.1152 70.9314C29.1472 70.9017 29.189 70.8556 29.2548 70.7742C29.3089 70.7073 29.403 70.5868 29.4872 70.4871C29.6431 70.3027 29.7892 70.1035 29.9872 69.8113C30.1759 69.533 30.3303 69.2897 30.4228 69.1375C30.4833 69.0378 30.5628 68.914 30.6386 68.7957C30.7175 68.6727 30.7975 68.5488 30.8681 68.4324C30.9379 68.3174 31.0143 68.2092 31.0771 68.1199C31.1435 68.0254 31.2037 67.9398 31.2646 67.8426C31.3743 67.6675 31.5286 67.454 32.0449 66.6658C32.2084 66.4161 32.2442 66.3052 32.4316 65.8865C32.5042 65.7243 32.56 65.5793 32.6074 65.4568C32.6294 65.3997 32.6545 65.3356 32.6767 65.283C32.688 65.2563 32.7031 65.2221 32.7206 65.1873C32.7338 65.1612 32.7687 65.0932 32.8251 65.0232L32.8759 64.9656Z" fill="black"/>
<path d="M13.962 71.9104C14.376 71.9106 14.712 72.2463 14.712 72.6604C14.712 72.7158 14.7039 72.7695 14.6925 72.8215C14.7011 72.8373 14.7115 72.8549 14.7208 72.8723C14.8774 73.1664 15.2334 73.689 15.3761 73.885C15.4916 74.0437 15.5962 74.1911 15.7032 74.3352C15.7032 74.3352 15.7093 74.3421 15.7227 74.3576C15.736 74.373 15.7537 74.3931 15.7764 74.4172C15.8221 74.4658 15.881 74.5259 15.9512 74.594C16.0917 74.7299 16.2667 74.8891 16.4473 75.0442C16.8275 75.3703 17.4947 75.7463 17.7188 75.8782L17.9669 76.0158C18.0626 76.0665 18.1844 76.1269 18.3594 76.2112L18.3614 76.2121C18.3664 76.2129 18.3747 76.2144 18.3878 76.216C18.7987 76.2678 19.0899 76.643 19.0382 77.0539C18.9864 77.4649 18.6112 77.7561 18.2003 77.7043C18.0643 77.6872 17.9424 77.6632 17.7725 77.593L17.753 77.5852L17.7344 77.5764C17.3194 77.3773 17.1522 77.2822 16.9786 77.1838L16.9669 77.177V77.176C16.8298 77.0949 15.985 76.6241 15.4698 76.1819C15.0941 75.8594 14.6701 75.46 14.4991 75.2297C14.388 75.0801 14.2636 74.9045 14.1641 74.7678C14.0121 74.5589 13.6043 73.9665 13.3966 73.5764C13.3756 73.5371 13.2821 73.3744 13.2247 73.2239C13.167 73.0726 13.0696 72.752 13.2139 72.4016L13.2491 72.3274C13.3393 72.1594 13.4893 72.025 13.6798 71.9573C13.7672 71.9262 13.8425 71.9168 13.8858 71.9133C13.9081 71.9115 13.9266 71.9106 13.9386 71.9104C13.9498 71.9102 13.9606 71.9104 13.962 71.9104ZM13.962 73.4104C13.9411 73.4104 13.9635 73.4118 14.0089 73.4074C13.9933 73.4084 13.9778 73.4104 13.962 73.4104Z" fill="black"/>
<path d="M39.1972 53.0886C39.3825 52.7182 39.8326 52.5675 40.2031 52.7527C40.5734 52.9379 40.7231 53.3881 40.538 53.7586C40.4451 53.9445 40.2953 54.2779 40.2187 54.5076C40.1544 54.7002 40.0187 54.9906 39.8515 55.3484C39.6735 55.7292 39.4317 56.2442 39.1201 56.9382C38.5872 58.1252 38.5985 58.298 38.2734 59.1043C38.1328 59.453 37.9772 59.8582 37.8613 60.2586C37.7532 60.6317 37.5417 61.1966 37.4082 61.5964C37.2714 62.0061 37.143 62.3594 36.8964 63.1961C36.7608 63.6563 36.7374 63.8782 36.6298 64.3396C36.5911 64.5058 36.5423 64.68 36.496 64.8474C36.4484 65.0201 36.3995 65.199 36.3525 65.3982C36.2408 65.872 36.165 66.2421 36.0654 66.5798C36.0308 66.6971 36.0056 66.8261 35.9746 66.992C35.9479 67.1345 35.9125 67.3189 35.8623 67.4968L35.8632 67.4978C35.8464 67.5652 35.8303 67.6316 35.8134 67.699C35.8049 67.7333 35.8 67.7546 35.7949 67.7791C35.79 67.8023 35.7837 67.8325 35.7773 67.8767C35.7182 68.2867 35.3377 68.5715 34.9277 68.5125C34.5179 68.4532 34.2339 68.0727 34.2929 67.6629C34.3153 67.5075 34.339 67.4129 34.3584 67.3357C34.3752 67.2683 34.3913 67.2009 34.4082 67.1336L34.4121 67.1189L34.4169 67.1033C34.446 67.0046 34.4679 66.8883 34.5 66.7166C34.5293 66.5596 34.5673 66.3569 34.6269 66.155C34.7108 65.8705 34.7664 65.5895 34.8925 65.0545C34.9465 64.8255 35.0025 64.6227 35.0507 64.448C35.1003 64.2685 35.1387 64.1284 35.1689 63.9988C35.2451 63.6719 35.3091 63.2775 35.458 62.7722C35.7142 61.9029 35.8531 61.5168 35.9853 61.1209C36.1548 60.6133 36.3207 60.1872 36.4209 59.8416C36.5586 59.3662 36.7375 58.9041 36.8828 58.5437C37.1113 57.9768 37.2314 57.4812 37.7509 56.324C38.0679 55.6179 38.3149 55.0929 38.4921 54.7136C38.6799 54.3118 38.7662 54.1217 38.7959 54.033C38.9044 53.7075 39.0898 53.3034 39.1972 53.0886Z" fill="black"/>
<path d="M181.743 107.699C181.743 107.285 182.079 106.949 182.493 106.949C182.907 106.95 183.243 107.285 183.243 107.699C183.243 109.914 183.113 114.667 183.012 116.007C182.893 117.574 182.785 119.003 182.687 122.365C182.597 125.462 182.653 131.414 182.686 134.657C182.729 138.942 182.975 140.273 183.078 142.546C183.125 143.569 183.197 144.499 183.272 145.528C183.346 146.554 183.422 147.667 183.472 149.037C183.534 150.727 183.831 155.757 183.995 159.155C184.036 159.999 184.06 160.778 184.087 161.676L184.192 164.911L184.193 164.919V164.928C184.226 167.275 184.226 171.628 184.194 174.003C184.161 176.399 184.093 176.682 184.027 177.536C183.994 177.949 183.634 178.258 183.221 178.226C182.808 178.194 182.499 177.833 182.531 177.42C182.599 176.56 182.662 176.324 182.694 173.983C182.726 171.626 182.726 167.303 182.693 164.966C182.593 162.278 182.578 160.914 182.496 159.227C182.334 155.87 182.035 150.787 181.973 149.092C181.924 147.749 181.85 146.656 181.776 145.636C181.702 144.618 181.627 143.662 181.579 142.614C181.484 140.501 181.229 138.961 181.186 134.672C181.153 131.443 181.096 125.456 181.187 122.322C181.285 118.93 181.396 117.477 181.516 115.894C181.613 114.609 181.743 109.899 181.743 107.699Z" fill="black"/>
<path d="M188.141 107.47C188.141 107.056 188.476 106.72 188.891 106.72C189.305 106.72 189.641 107.056 189.641 107.47C189.641 109.115 189.598 112.401 189.534 114.49C189.478 116.341 189.513 119.849 189.534 121.756C189.546 122.781 189.571 123.565 189.598 124.28C189.624 124.995 189.651 125.649 189.661 126.401C189.686 128.161 189.808 130.073 189.873 132.676C189.929 134.928 189.895 139.166 189.916 141.382C189.927 142.499 189.942 143.098 189.958 143.604C189.974 144.114 189.989 144.541 190 145.306C190.011 146.067 190.016 147.163 190.022 148.264C190.027 149.367 190.033 150.476 190.043 151.271C190.055 152.187 190.081 152.98 190.107 153.769C190.134 154.556 190.159 155.341 190.17 156.229C190.174 156.551 190.189 156.739 190.207 157.225C190.225 157.695 190.244 158.407 190.255 159.715C190.277 162.325 190.277 167.324 190.256 169.985C190.23 173.291 190.068 174.37 189.913 175.275C189.905 175.39 189.9 175.52 189.895 175.667C189.889 175.813 189.883 175.98 189.871 176.129C189.858 176.285 189.839 176.414 189.821 176.538C189.803 176.662 189.784 176.799 189.764 176.996C189.722 177.408 189.354 177.708 188.942 177.666C188.53 177.624 188.23 177.257 188.272 176.845C188.295 176.615 188.318 176.453 188.337 176.322C188.356 176.191 188.368 176.108 188.376 176.007C188.385 175.899 188.39 175.769 188.396 175.614C188.401 175.468 188.407 175.298 188.419 175.141L188.422 175.106L188.427 175.072C188.567 174.251 188.73 173.276 188.756 169.973C188.777 167.319 188.777 162.329 188.755 159.728C188.744 158.43 188.725 157.734 188.708 157.281C188.692 156.844 188.674 156.593 188.67 156.247C188.66 155.377 188.635 154.607 188.608 153.818C188.582 153.03 188.555 152.224 188.543 151.291C188.532 150.489 188.527 149.372 188.522 148.271C188.516 147.168 188.512 146.08 188.501 145.327C188.49 144.578 188.474 144.165 188.458 143.65C188.442 143.133 188.427 142.524 188.416 141.396C188.395 139.119 188.429 134.959 188.373 132.713C188.311 130.228 188.186 128.149 188.161 126.423C188.151 125.692 188.125 125.057 188.099 124.336C188.072 123.615 188.046 122.816 188.034 121.772C188.013 119.879 187.977 116.334 188.035 114.444C188.099 112.372 188.141 109.101 188.141 107.47Z" fill="black"/>
<path d="M137.505 105.68C138.786 105.673 139.603 105.847 140.346 105.963C140.999 106.064 141.652 106.141 143.486 106.192C143.963 106.205 143.988 106.243 145.529 106.26C146.287 106.269 147.389 106.274 148.502 106.278C149.612 106.282 150.733 106.286 151.518 106.295C153.857 106.32 155.244 106.45 155.895 106.502C156.235 106.529 158.101 106.585 160.743 106.568C161.206 106.565 161.475 106.553 161.763 106.539C162.057 106.525 162.371 106.509 162.908 106.5C163.438 106.491 164.186 106.486 164.936 106.482C165.688 106.478 166.442 106.474 166.992 106.466C167.658 106.455 168.285 106.434 168.951 106.413C169.615 106.392 170.315 106.372 171.115 106.363C171.579 106.358 172.228 106.338 173.048 106.315C173.863 106.293 174.833 106.269 175.923 106.26C176.296 106.258 176.512 106.246 176.81 106.232C177.113 106.218 177.485 106.202 178.154 106.193C179.48 106.176 181.985 106.175 183.346 106.192C185.288 106.216 186.423 106.386 187.315 106.468C188.34 106.563 189.321 106.658 190.529 106.868C190.885 106.93 191.272 106.962 191.779 107.001C192.279 107.039 192.875 107.082 193.609 107.169C194.079 107.224 194.336 107.232 194.938 107.287C196.029 107.387 196.894 107.334 200.326 107.385C203.493 107.433 209.631 107.403 212.952 107.386C216.265 107.37 216.55 107.336 217.616 107.318C218.147 107.309 218.861 107.305 219.566 107.301C220.275 107.296 220.974 107.292 221.48 107.284C222.519 107.267 222.636 107.235 223.882 107.199C225.031 107.166 227.281 107.13 228.478 107.097C230.826 107.033 232.406 106.928 233.896 106.875C234.85 106.841 235.889 106.726 236.374 106.62L236.407 106.612L236.44 106.608C236.526 106.597 236.63 106.59 236.673 106.586C236.73 106.58 236.767 106.575 236.8 106.568C236.839 106.56 236.886 106.545 236.992 106.512C237.09 106.482 237.218 106.443 237.377 106.403C237.779 106.302 238.186 106.545 238.287 106.947C238.388 107.349 238.145 107.756 237.743 107.857C237.626 107.887 237.531 107.916 237.437 107.945C237.351 107.972 237.236 108.009 237.121 108.034C237 108.061 236.892 108.072 236.81 108.08C236.719 108.088 236.685 108.089 236.64 108.094C236.02 108.223 234.918 108.34 233.949 108.375C232.539 108.425 230.847 108.532 228.519 108.596C227.219 108.632 225.146 108.664 223.926 108.699C222.802 108.731 222.513 108.767 221.505 108.784C220.989 108.792 220.281 108.796 219.576 108.801C218.868 108.805 218.161 108.809 217.641 108.818C216.604 108.835 216.281 108.87 212.959 108.886C209.645 108.903 203.49 108.934 200.304 108.885C196.978 108.835 195.967 108.887 194.801 108.78C194.284 108.733 193.918 108.716 193.433 108.659C192.735 108.576 192.169 108.534 191.665 108.496C191.169 108.458 190.711 108.422 190.272 108.345C189.127 108.146 188.197 108.055 187.179 107.962C186.225 107.874 185.19 107.715 183.327 107.692C181.979 107.675 179.486 107.676 178.174 107.693C177.524 107.702 177.169 107.716 176.88 107.73C176.586 107.744 176.342 107.757 175.935 107.76C174.859 107.769 173.899 107.792 173.089 107.814C172.284 107.836 171.612 107.858 171.132 107.863C170.348 107.871 169.661 107.892 168.998 107.913C168.337 107.934 167.696 107.955 167.016 107.966C166.456 107.974 165.693 107.978 164.943 107.982C164.191 107.986 163.452 107.991 162.933 108C162.42 108.008 162.125 108.023 161.834 108.037C161.536 108.051 161.244 108.065 160.753 108.068C158.111 108.085 156.187 108.03 155.775 107.997C155.127 107.945 153.785 107.819 151.501 107.795C150.722 107.786 149.609 107.782 148.496 107.778C147.386 107.774 146.276 107.769 145.512 107.76C144.01 107.743 143.765 107.701 143.445 107.692C141.57 107.64 140.849 107.559 140.114 107.444C139.321 107.32 138.646 107.174 137.514 107.18C135.989 107.189 135.008 107.211 134.363 107.23C133.742 107.248 133.389 107.266 133.189 107.266C132.775 107.266 132.44 106.93 132.439 106.516C132.439 106.102 132.775 105.766 133.189 105.766C133.363 105.766 133.639 105.75 134.319 105.73C134.976 105.711 135.969 105.689 137.505 105.68Z" fill="black"/>
<path d="M131.2 107.544C131.2 107.018 131.199 106.464 131.228 106.062L131.23 106.038L131.233 106.014C131.275 105.706 131.325 105.44 131.371 105.196C131.417 104.957 131.459 104.748 131.494 104.523C131.574 103.316 131.722 101.98 131.808 100.842C131.851 100.267 131.954 99.7282 132.049 99.2153C132.146 98.6937 132.237 98.1817 132.283 97.6001C132.325 97.0518 132.412 96.5029 132.497 95.9321C132.584 95.3535 132.673 94.7228 132.731 93.9624C132.834 92.6024 132.842 90.1073 132.807 87.3423C132.767 84.2116 132.737 82.4482 132.687 81.3608C132.637 80.2817 132.568 79.9234 132.467 79.5816C132.341 79.1559 132.148 78.771 131.901 78.2153C131.663 77.6802 131.408 77.0514 131.24 76.2544C130.875 74.5255 130.97 72.3316 131.071 71.1597C131.133 70.437 131.173 69.6389 131.255 68.9517C131.339 68.2537 131.476 67.5441 131.781 66.937C131.88 66.7387 132.031 66.6081 132.142 66.5288C132.259 66.4449 132.388 66.3791 132.509 66.3267C132.751 66.2217 133.042 66.1362 133.34 66.065C133.943 65.9212 134.684 65.8115 135.38 65.7388C135.915 65.6829 136.419 65.5789 142.358 65.5239C148.083 65.4709 158.991 65.4187 170.655 65.4194C182.315 65.4202 194.387 65.4728 205.301 66.0376C216.216 66.6025 225.681 67.6797 230.558 68.1694C233.12 68.4267 234.697 68.5526 235.667 68.6548C236.656 68.759 237.201 68.853 237.75 69.0952C237.997 69.2042 238.302 69.4112 238.615 69.6372C238.945 69.876 239.35 70.1864 239.815 70.5425C240.75 71.2589 241.959 72.1873 243.419 73.2066C245.06 74.3518 246.697 75.4768 248.213 77.0396C248.639 77.4782 248.987 77.8171 249.45 78.2749C249.911 78.7317 250.474 79.296 251.318 80.1714C252.802 81.7115 255.252 84.4362 256.838 85.9009C257.346 86.3699 257.798 86.7638 258.191 87.1021C258.578 87.4355 258.923 87.7292 259.196 87.98C259.461 88.2242 259.713 88.4763 259.883 88.7368C260.062 89.0109 260.213 89.3925 260.09 89.8306C259.914 90.4583 259.447 91.1838 258.744 92.0923C257.389 93.8455 256.578 94.7524 255.321 95.6655C252.709 97.5621 250.609 99.0028 249.479 99.6353C248.82 100.004 248.04 100.516 247.283 101.026C246.543 101.525 245.811 102.032 245.296 102.357C244.031 103.155 242.918 103.786 242.156 104.468C241.55 105.01 240.888 105.667 240.345 106.245C240.074 106.533 239.838 106.798 239.656 107.015C239.461 107.247 239.363 107.385 239.336 107.434C239.135 107.796 238.679 107.926 238.317 107.725C237.955 107.524 237.824 107.068 238.025 106.706C238.129 106.518 238.313 106.283 238.506 106.052C238.711 105.807 238.968 105.521 239.251 105.218C239.819 104.614 240.513 103.926 241.156 103.351C242.042 102.558 243.336 101.819 244.495 101.088C244.985 100.78 245.673 100.302 246.445 99.7817C247.201 99.2716 248.028 98.7288 248.746 98.3267C249.787 97.7444 251.817 96.3562 254.44 94.4517C255.521 93.6661 256.227 92.8948 257.558 91.1743C258.188 90.3596 258.488 89.8562 258.609 89.5317C258.542 89.4387 258.413 89.2982 258.18 89.0835C257.931 88.8542 257.614 88.5851 257.211 88.2378C256.814 87.8953 256.347 87.4894 255.821 87.0034C254.194 85.5019 251.649 82.6765 250.238 81.2124C249.404 80.3471 248.848 79.7916 248.394 79.3413C247.94 78.892 247.575 78.5365 247.136 78.0835C245.738 76.6417 244.223 75.5972 242.561 74.437C241.07 73.3964 239.836 72.4491 238.902 71.7329C238.432 71.3727 238.045 71.077 237.736 70.853C237.409 70.6166 237.226 70.504 237.145 70.4683C236.827 70.3283 236.488 70.25 235.51 70.147C234.514 70.042 233.042 69.9261 230.408 69.6616C225.512 69.17 216.093 68.0972 205.224 67.5347C194.354 66.9721 182.318 66.9202 170.655 66.9194C158.994 66.9187 148.091 66.971 142.371 67.0239C136.447 67.0788 136 67.1825 135.535 67.231C134.873 67.3002 134.203 67.4011 133.688 67.5239C133.428 67.5859 133.233 67.6476 133.107 67.7026C133.094 67.7083 133.082 67.7143 133.072 67.7192C132.916 68.0767 132.816 68.5422 132.745 69.1304C132.666 69.7914 132.635 70.4799 132.566 71.2876C132.467 72.4338 132.391 74.4433 132.707 75.9448C132.844 76.5926 133.052 77.1107 133.272 77.605C133.483 78.0786 133.743 78.606 133.906 79.1558C134.057 79.668 134.134 80.1659 134.186 81.2915C134.237 82.4097 134.267 84.2022 134.307 87.3228C134.342 90.0769 134.335 92.6385 134.226 94.0757C134.164 94.8912 134.069 95.5648 133.981 96.1538C133.892 96.7506 133.815 97.2336 133.778 97.7153C133.726 98.3839 133.62 98.9653 133.524 99.4878C133.426 100.019 133.34 100.476 133.304 100.956C133.207 102.236 133.069 103.405 132.988 104.663L132.986 104.696L132.981 104.73C132.939 104.997 132.89 105.244 132.845 105.478C132.801 105.708 132.758 105.936 132.722 106.194C132.699 106.528 132.7 107.008 132.7 107.544C132.699 107.958 132.364 108.294 131.95 108.294C131.535 108.294 131.2 107.959 131.2 107.544Z" fill="black"/>
<path d="M163.407 72.0479C163.82 72.0089 164.186 72.3123 164.225 72.7246C164.263 73.1369 163.961 73.503 163.549 73.542C163.254 73.5699 162.487 73.8918 161.413 75.0547C160.561 75.9779 160.498 76.814 160.496 78.2783C160.496 78.5312 160.608 78.7835 160.902 79.0781C161.208 79.3836 161.647 79.671 162.177 79.9776C162.566 80.2027 163.226 80.436 164.256 80.4932C164.265 80.4842 164.279 80.4735 164.295 80.457C164.332 80.4176 164.364 80.3801 164.422 80.3145C164.794 79.8894 164.774 79.4117 164.873 78.5801C164.886 78.4703 164.892 78.3868 164.896 78.3213C164.104 78.1297 163.775 78.131 163.422 78.0567L163.414 78.0547C163.344 78.0391 163.305 78.0298 163.247 78.0195C163.192 78.0097 163.114 77.9988 162.991 77.9863C162.579 77.9446 162.279 77.5762 162.32 77.1641C162.362 76.7521 162.731 76.4525 163.143 76.4942C163.455 76.5258 163.597 76.5595 163.729 76.5889H163.73C163.826 76.609 164.432 76.665 165.323 76.8819L165.722 76.9854L166.032 77.0703L166.185 77.3535C166.49 77.9232 166.394 78.4931 166.362 78.7578C166.298 79.2983 166.312 80.432 165.55 81.3028C165.426 81.4442 165.001 82.0328 164.233 81.9951C162.985 81.9337 162.066 81.6468 161.425 81.2754C160.884 80.9626 160.296 80.5937 159.841 80.1387C159.376 79.673 158.995 79.0606 158.996 78.2764C158.998 76.7775 159.04 75.4135 160.311 74.0371C161.463 72.7884 162.553 72.1288 163.407 72.0479Z" fill="black"/>
<path d="M175.819 72.7898C176.122 72.8203 176.367 73.0317 176.455 73.3132C176.509 73.3416 176.562 73.3695 176.615 73.3982C176.918 73.5632 177.255 73.7594 177.575 73.9597L177.888 74.1599L177.955 74.2058L178.012 74.2644C178.269 74.5304 178.641 74.9826 178.941 75.5427C179.238 76.0972 179.499 76.8203 179.44 77.6023C179.386 78.3261 179.228 79.0782 178.996 79.7087C178.88 80.0241 178.738 80.3265 178.571 80.5857C178.41 80.8359 178.191 81.097 177.899 81.2654C177.368 81.5721 176.578 82.0226 175.503 82.156C175.036 82.214 174.294 82.2722 173.543 82.2C172.824 82.1307 171.932 81.9276 171.328 81.322C171.309 81.3035 171.286 81.2825 171.229 81.2341C171.182 81.1937 171.106 81.1293 171.032 81.0525C170.869 80.8831 170.689 80.6272 170.647 80.2566C170.571 79.5766 170.512 78.7601 170.576 77.9714C170.639 77.1967 170.826 76.3547 171.321 75.699C171.902 74.9289 172.764 73.8461 173.967 73.3474C174.04 73.3171 174.112 73.2909 174.181 73.2634C174.307 73.0291 174.553 72.8679 174.838 72.8679C174.953 72.8679 175.102 72.8692 175.258 72.8796C175.313 72.8636 175.363 72.8462 175.41 72.8347C175.483 72.8167 175.615 72.7859 175.743 72.7859L175.819 72.7898ZM175.332 74.4294C175.126 74.5017 174.863 74.6 174.542 74.7332C173.761 75.0568 173.116 75.811 172.518 76.6023C172.275 76.9249 172.124 77.432 172.071 78.0925C172.021 78.7197 172.064 79.402 172.133 80.03C172.148 80.0442 172.168 80.0641 172.203 80.0935C172.245 80.1291 172.319 80.1921 172.389 80.2625C172.612 80.4853 173.057 80.6462 173.687 80.7068C174.286 80.7643 174.906 80.7178 175.318 80.6667C176.071 80.5734 176.636 80.2631 177.149 79.9666C177.152 79.965 177.167 79.9542 177.194 79.9255C177.226 79.8922 177.265 79.8423 177.31 79.7722C177.402 79.6305 177.498 79.4345 177.588 79.1902C177.768 78.7009 177.901 78.0872 177.945 77.491C177.974 77.1008 177.844 76.6699 177.619 76.2507C177.417 75.874 177.165 75.5576 176.984 75.3621C176.639 75.1373 176.245 74.9043 175.898 74.7156C175.713 74.6145 175.546 74.5291 175.412 74.4656C175.383 74.4519 175.356 74.4404 175.332 74.4294Z" fill="black"/>
<path d="M188.596 72.8149L189.045 72.8452L189.184 72.8589L189.309 72.9223C190.354 73.4482 191.244 74.1998 191.521 75.0659C191.723 75.6947 192.134 76.6063 191.932 77.9721C191.837 78.6191 191.72 79.324 191.492 79.9448C191.261 80.5746 190.888 81.1953 190.228 81.5903C189.289 82.1528 188.288 82.821 186.671 82.5776C186.039 82.4826 185.411 82.3395 184.884 82.1557C184.621 82.0639 184.369 81.9563 184.149 81.8315C183.938 81.7117 183.708 81.549 183.54 81.3266C183.07 80.7055 182.59 79.1776 183.334 77.2612C183.594 76.5905 183.84 75.9836 184.078 75.5083C184.197 75.2699 184.323 75.0462 184.459 74.8559C184.588 74.6735 184.759 74.4748 184.982 74.3364C185.587 73.9618 186.137 73.7212 186.631 73.5727C186.666 73.454 186.729 73.3415 186.823 73.2485L186.925 73.1577C187.165 72.9656 187.404 72.9136 187.532 72.8852L187.54 72.8842C187.807 72.8279 188.169 72.7996 188.596 72.8149ZM188.722 74.3257C188.63 74.6352 188.347 74.8618 188.007 74.8618C187.525 74.8618 186.787 74.982 185.772 75.6108C185.793 75.598 185.759 75.6141 185.68 75.7251C185.607 75.8283 185.521 75.9772 185.42 76.1792C185.217 76.5846 184.993 77.1315 184.732 77.8032C184.163 79.2699 184.602 80.245 184.736 80.4223C184.729 80.4131 184.761 80.4546 184.888 80.5268C185.007 80.594 185.171 80.6662 185.379 80.7387C185.794 80.8839 186.328 81.009 186.894 81.0942C187.914 81.2476 188.475 80.8913 189.457 80.3032C189.715 80.1487 189.919 79.8773 190.084 79.4282C190.252 78.9701 190.351 78.4079 190.448 77.7534C190.588 76.8062 190.33 76.2662 190.092 75.5229C190.006 75.2531 189.603 74.7786 188.757 74.3286C188.746 74.3277 188.734 74.3264 188.722 74.3257Z" fill="black"/>
<path d="M201.303 71.5937L201.357 71.6025C202.784 71.8317 204.246 72.0802 205.248 73.5762C206.003 74.7034 206.742 75.8273 206.688 77.1933C206.652 78.0874 206.59 78.9133 206.503 79.5761C206.459 79.9068 206.409 80.2087 206.348 80.4638C206.291 80.7005 206.211 80.9653 206.082 81.1748C205.963 81.3675 205.65 82.4924 204.556 83.2607C204.337 83.414 204.003 83.6751 203.552 83.8379C203.079 84.0085 202.522 84.063 201.798 83.9638C200.801 83.8275 200.157 83.7487 199.04 83.4844C198.987 83.4717 198.829 83.4372 198.672 83.3437C198.49 83.2354 198.358 83.0813 198.266 82.9023C198.115 82.6097 198.062 82.2125 198.028 81.747C197.96 80.7907 197.976 78.8977 197.944 77.9668C197.904 76.7753 197.844 76.4451 197.812 76.1914C197.741 75.6103 197.629 74.2046 197.629 73.6181C197.629 73.3555 197.764 73.1252 197.969 72.9912C197.932 72.7481 198.012 72.4918 198.21 72.3164C198.476 72.0804 198.602 71.9875 198.764 71.8955L198.812 71.8672L198.866 71.8476C199.439 71.6276 200.006 71.5779 201.248 71.5928L201.303 71.5937ZM201.173 73.0928C200.071 73.0814 199.729 73.1328 199.466 73.2246C199.456 73.2312 199.444 73.2377 199.431 73.248C199.39 73.2786 199.325 73.3328 199.206 73.4385C199.178 73.4629 199.149 73.4842 199.119 73.5039C199.125 73.5412 199.129 73.5792 199.129 73.6181C199.129 74.1199 199.234 75.4587 199.302 76.0078C199.335 76.2759 199.401 76.658 199.443 77.917C199.48 79.0017 199.457 80.6955 199.524 81.6406C199.538 81.8291 199.554 81.9657 199.569 82.0644C200.495 82.2762 201.062 82.3489 202.002 82.4775C202.545 82.5517 202.848 82.4972 203.043 82.4267C203.26 82.3484 203.404 82.2362 203.693 82.0332C204.463 81.4929 204.347 81.1301 204.805 80.3877C204.803 80.3904 204.84 80.3193 204.889 80.1142C204.933 79.9278 204.977 79.6813 205.017 79.3799C205.096 78.7779 205.154 78.0011 205.188 77.1328C205.22 76.334 204.807 75.6145 204.001 74.4101C203.409 73.5261 202.612 73.3257 201.173 73.0928Z" fill="black"/>
<path d="M156.663 88.4336C157.043 88.425 157.376 88.7055 157.424 89.0908C157.472 89.48 157.212 89.8348 156.836 89.915C156.853 89.9106 156.85 89.9109 156.819 89.9229C156.785 89.9362 156.73 89.9594 156.655 89.9961C156.505 90.0694 156.297 90.184 156.044 90.3418C155.538 90.6571 154.873 91.1361 154.158 91.79C153.472 92.4174 153.348 93.0116 153.132 93.7422C152.984 94.2457 153.019 94.6388 152.967 95.2539C152.929 95.717 152.937 96.4257 153 97.1377C153.064 97.8637 153.178 98.5071 153.318 98.874C153.334 98.9157 153.372 98.983 153.603 99.1416C153.621 99.1539 153.697 99.1926 153.872 99.2197C154.04 99.2458 154.251 99.2538 154.499 99.2451C154.962 99.2288 155.476 99.1539 155.933 99.0781C156.498 98.8209 157.112 98.5364 157.494 98.3311C157.56 98.2791 157.726 98.1531 157.905 98.0625C158.275 97.8759 158.726 98.0239 158.913 98.3936C159.099 98.7633 158.95 99.2147 158.581 99.4014C158.544 99.4199 158.518 99.4366 158.491 99.457C158.474 99.4698 158.458 99.4827 158.431 99.5039C158.407 99.5227 158.372 99.5493 158.333 99.5772L158.298 99.6025L158.258 99.624C157.803 99.8735 157.062 100.214 156.466 100.485L156.377 100.526L156.281 100.542C155.793 100.625 155.154 100.723 154.551 100.744C154.25 100.755 153.935 100.747 153.641 100.701C153.355 100.657 153.032 100.568 152.755 100.378C152.467 100.181 152.102 99.8958 151.916 99.4072C151.699 98.8388 151.572 98.0253 151.506 97.2695C151.438 96.4997 151.425 95.7006 151.473 95.1279C151.505 94.7521 151.488 94.0155 151.694 93.3174C151.891 92.6486 152.104 91.6349 153.145 90.6826C153.931 89.9637 154.671 89.4305 155.25 89.0693C155.539 88.8891 155.792 88.749 155.996 88.6494C156.097 88.6 156.191 88.5573 156.276 88.5244C156.342 88.4986 156.461 88.4551 156.587 88.4395L156.663 88.4336Z" fill="black"/>
<path d="M160.868 100.131C160.868 100.095 160.868 99.9521 160.887 99.7846C160.896 99.7064 160.91 99.6202 160.918 99.563C160.927 99.498 160.935 99.4407 160.939 99.3813C161.014 98.4662 161.244 96.9033 161.267 95.0522C161.28 94.0116 161.242 91.9641 161.309 90.8013C161.39 89.3762 161.501 88.8127 161.688 88.437C161.874 88.0665 162.324 87.9159 162.694 88.1011C163.065 88.2862 163.215 88.7365 163.03 89.1069C163.001 89.1658 162.89 89.4243 162.807 90.8872C162.743 92.012 162.78 93.9336 162.766 95.0718C162.742 96.9872 162.499 98.7105 162.435 99.5034C162.426 99.6099 162.412 99.7044 162.401 99.7798C162.389 99.8627 162.383 99.9067 162.378 99.9526C162.369 100.034 162.368 100.108 162.368 100.131C162.368 100.545 162.032 100.881 161.618 100.881C161.204 100.881 160.868 100.545 160.868 100.131Z" fill="black"/>
<path d="M165.313 91.5676V89.5129C165.313 89.0988 165.649 88.763 166.063 88.7629C166.477 88.7629 166.813 89.0987 166.813 89.5129V91.5676C166.813 93.0777 166.813 95.8255 166.8 97.3381C166.786 98.8631 166.758 99.0669 166.744 99.3088C166.74 99.38 166.741 99.4399 166.741 99.4856C166.825 99.6667 166.84 99.8801 166.759 100.08C166.606 100.465 166.169 100.652 165.785 100.498C165.44 100.36 165.331 100.051 165.305 99.9758C165.266 99.8588 165.252 99.7457 165.246 99.6711C165.233 99.5142 165.239 99.3441 165.247 99.219C165.26 98.9934 165.286 98.8163 165.3 97.3245C165.313 95.8202 165.313 93.0808 165.313 91.5676ZM166.545 99.2317C166.536 99.2241 166.527 99.2168 166.517 99.2092C166.527 99.2165 166.536 99.2241 166.545 99.2317Z" fill="black"/>
<path d="M166.557 93.7839C166.971 93.784 167.307 94.1198 167.307 94.5339C167.307 94.9481 166.971 95.2839 166.557 95.2839C166.109 95.2839 165.708 95.2839 165.196 95.3357C164.681 95.3879 164.071 95.4887 163.678 95.5769C163.39 95.6604 163.195 95.7218 163.06 95.7634C162.994 95.7838 162.931 95.8032 162.881 95.8171C162.855 95.8242 162.822 95.8333 162.787 95.8406C162.761 95.8461 162.691 95.8601 162.605 95.8601C162.191 95.8601 161.855 95.5243 161.855 95.1101C161.855 94.7379 162.127 94.4306 162.482 94.3718C162.507 94.3649 162.548 94.3525 162.618 94.3308C162.756 94.2883 162.969 94.2215 163.283 94.1306L163.305 94.1248L163.326 94.1199C163.781 94.0165 164.464 93.9024 165.046 93.8435C165.64 93.7834 166.108 93.7839 166.557 93.7839Z" fill="black"/>
<path d="M174.771 88.7854C175.173 88.6853 175.58 88.9295 175.68 89.3313C175.681 89.335 175.682 89.3392 175.682 89.343C175.962 89.3651 176.139 89.3892 176.297 89.4328L176.453 89.4836L176.49 89.4992C176.634 89.562 176.79 89.6031 176.994 89.6399L177.088 89.6565L177.174 89.6965C177.569 89.8778 178.603 90.1529 179.601 91.1526C180.15 91.7021 181.163 92.7629 181.079 94.591C181.052 95.1711 181.028 95.8317 180.942 96.4397C180.857 97.0406 180.7 97.688 180.345 98.2111C179.52 99.431 178.336 100.491 177.371 100.926C176.929 101.125 176.35 101.361 175.75 101.489C175.165 101.614 174.449 101.661 173.805 101.357C173.292 101.114 172.721 100.814 172.242 100.49C172.002 100.329 171.77 100.151 171.575 99.9611C171.388 99.7792 171.189 99.5416 171.08 99.2531C170.803 98.521 170.602 97.2753 170.678 95.9797C170.723 95.2186 170.849 94.5528 171.124 93.8147C171.342 93.2277 171.876 91.691 173.059 90.1594C173.753 89.2609 174.323 88.8971 174.771 88.7854ZM174.918 90.3684C174.768 90.4817 174.544 90.6923 174.247 91.0764C173.218 92.4088 172.749 93.7482 172.529 94.3381C172.312 94.9204 172.213 95.4369 172.176 96.0676C172.109 97.1917 172.294 98.2222 172.483 98.7238C172.48 98.7164 172.504 98.7718 172.621 98.886C172.73 98.9923 172.885 99.1142 173.081 99.2463C173.472 99.5102 173.967 99.774 174.447 100.001C174.652 100.098 174.979 100.12 175.436 100.023C175.879 99.9281 176.344 99.7438 176.754 99.5588C177.399 99.2674 178.387 98.4287 179.103 97.3703C179.265 97.1317 179.382 96.7564 179.457 96.2287C179.531 95.7083 179.553 95.1332 179.581 94.5217C179.634 93.3656 179.033 92.7063 178.54 92.2121C177.83 91.5015 177.233 91.3553 176.643 91.0988C176.416 91.0546 176.174 90.9924 175.925 90.8869V90.8879C175.907 90.8812 175.896 90.8768 175.86 90.8703C175.811 90.8615 175.723 90.8504 175.553 90.8371C175.259 90.8142 175.021 90.624 174.918 90.3684Z" fill="black"/>
<path d="M188.772 100.131C188.772 99.2135 188.773 98.3037 188.787 97.7864C188.802 97.2335 188.827 97.1897 188.841 95.9563C188.854 94.7317 188.854 92.4549 188.854 91.2981V90.0891C188.854 89.675 189.19 89.3393 189.604 89.3391C190.019 89.3391 190.354 89.6749 190.354 90.0891V91.2981C190.354 92.451 190.354 94.738 190.341 95.9729C190.327 97.1989 190.299 97.373 190.286 97.8284C190.273 98.3194 190.272 99.202 190.272 100.131C190.272 100.545 189.937 100.881 189.522 100.881C189.108 100.881 188.772 100.545 188.772 100.131Z" fill="black"/>
<path d="M189.267 85.4792V85.1501C189.267 84.7359 189.602 84.4001 190.017 84.4001C190.431 84.4001 190.767 84.7359 190.767 85.1501V85.4792C190.767 85.8935 190.431 86.2292 190.017 86.2292C189.602 86.2292 189.267 85.8935 189.267 85.4792Z" fill="black"/>
<path d="M201.674 89.969C202.058 89.8154 202.494 90.0024 202.648 90.387C202.802 90.7716 202.615 91.2079 202.23 91.3616C202.039 91.4381 201.644 91.7114 201.091 92.2679C200.559 92.8023 199.937 93.5401 199.289 94.4544C198.945 94.9395 198.776 95.6893 198.561 96.844C198.423 97.5869 198.462 98.0274 198.53 98.2972C198.597 98.5639 198.701 98.7141 198.84 98.9339C199.015 99.2123 199.269 99.3037 200.163 99.6136C200.863 99.8562 201.982 99.8518 203.216 99.7552C203.921 99.6999 204.384 99.5575 204.707 99.4143C205.048 99.2628 205.23 99.1182 205.504 98.9475L205.533 98.929L205.564 98.9134C205.658 98.8661 205.75 98.8323 205.793 98.8157C205.828 98.8019 205.843 98.7952 205.847 98.7932C205.824 98.8062 206.068 98.6284 206.404 98.5149C206.796 98.3827 207.222 98.5935 207.354 98.9856C207.487 99.3781 207.276 99.8043 206.884 99.9368C206.723 99.991 206.804 99.9762 206.587 100.099C206.485 100.156 206.386 100.194 206.336 100.214C206.296 100.23 206.274 100.238 206.26 100.244C206.081 100.36 205.751 100.592 205.315 100.785C204.826 101.002 204.196 101.183 203.333 101.25C202.128 101.345 200.708 101.39 199.672 101.031C198.979 100.791 198.091 100.558 197.571 99.7347C197.449 99.5417 197.21 99.1978 197.076 98.6643C196.942 98.1337 196.92 97.4667 197.087 96.5706C197.284 95.5082 197.492 94.3941 198.065 93.5862C198.752 92.6176 199.426 91.814 200.027 91.2102C200.606 90.6285 201.181 90.1658 201.674 89.969Z" fill="black"/>
<path d="M211.573 90.4182C211.573 90.0041 211.909 89.6684 212.323 89.6682C212.737 89.6682 213.073 90.004 213.073 90.4182C213.073 91.4261 213.073 92.4404 213.018 94.1379C212.964 95.8208 212.855 98.1811 212.813 99.3127C212.801 99.6487 212.795 99.8655 212.793 100.001C212.83 100.126 212.838 100.261 212.805 100.396C212.802 100.406 212.794 100.435 212.786 100.463C212.782 100.478 212.774 100.503 212.763 100.533C212.757 100.548 212.727 100.631 212.663 100.719C212.634 100.758 212.547 100.873 212.386 100.952C212.174 101.057 211.9 101.064 211.663 100.92C211.485 100.812 211.405 100.662 211.38 100.613C211.348 100.548 211.332 100.493 211.324 100.464C211.299 100.37 211.296 100.281 211.295 100.259C211.288 100.117 211.294 99.8194 211.314 99.2571C211.357 98.0905 211.465 95.7786 211.519 94.0901C211.573 92.4163 211.573 91.4204 211.573 90.4182Z" fill="black"/>
<path d="M212.55 89.063C212.732 89.0609 213.061 89.0724 213.669 89.1059C214.899 89.1739 217.356 89.3378 219.888 89.5893C220.3 89.6303 220.6 89.9977 220.56 90.4097C220.519 90.8218 220.151 91.1235 219.739 91.0825C217.234 90.8336 214.8 90.671 213.586 90.604C213.018 90.5727 212.735 90.5631 212.598 90.563C212.536 90.5794 212.472 90.5923 212.405 90.5923C211.991 90.5923 211.655 90.2564 211.655 89.8423V89.8325C211.655 89.8268 211.656 89.8173 211.656 89.8061C211.657 89.7841 211.659 89.7485 211.667 89.7056C211.684 89.611 211.723 89.4953 211.806 89.3843C211.959 89.1782 212.164 89.1178 212.224 89.1011C212.351 89.0657 212.484 89.0637 212.55 89.063Z" fill="black"/>
<path d="M218.744 95.0188C219.158 95.0191 219.494 95.3547 219.494 95.7688C219.494 96.1829 219.158 96.5185 218.744 96.5188C218.373 96.5188 218.018 96.5175 217.073 96.6125C216.11 96.7094 214.599 96.8987 213.819 96.9944C213.084 97.0846 212.987 97.095 212.899 97.095C212.485 97.095 212.149 96.7592 212.149 96.345C212.149 95.9308 212.485 95.595 212.899 95.595C212.898 95.595 212.891 95.5947 212.883 95.595C212.877 95.5952 212.872 95.5959 212.871 95.5959C212.878 95.5954 212.899 95.5939 212.951 95.5881C213.053 95.5768 213.25 95.5526 213.637 95.5051C214.406 95.4107 215.939 95.2194 216.923 95.1204C217.925 95.0195 218.332 95.0188 218.744 95.0188Z" fill="black"/>
<path d="M220.06 99.4636C220.474 99.4636 220.81 99.7994 220.81 100.214C220.81 100.628 220.474 100.964 220.06 100.964C218.964 100.964 217.915 100.964 217.298 100.977C216.684 100.991 216.541 101.016 215.99 101.046H215.984C214.803 101.1 213.914 101.142 213.266 101.159C212.647 101.175 212.165 101.174 211.854 101.115C211.447 101.038 211.179 100.646 211.256 100.239C211.333 99.832 211.726 99.5644 212.133 99.6414C212.257 99.6647 212.569 99.6774 213.226 99.6599C213.854 99.6432 214.724 99.6036 215.909 99.5486V99.5476C216.386 99.522 216.625 99.4926 217.265 99.4783C217.903 99.464 218.973 99.4636 220.06 99.4636Z" fill="black"/>
<path d="M30.7365 72.4155C30.8669 72.0225 31.2916 71.8096 31.6847 71.9399C32.0778 72.0704 32.2907 72.4951 32.1603 72.8882C32.0863 73.1111 31.9006 73.4734 31.7199 73.814C31.5257 74.18 31.2895 74.6074 31.0773 74.9946C30.9057 75.3077 30.7007 75.7589 30.4591 76.2827C30.2251 76.7901 29.9623 77.3531 29.6945 77.8364C29.3875 78.3904 29.2226 79.0781 28.9796 79.9165C28.7477 80.7167 28.4582 81.4757 28.2365 82.438C28.1268 82.9138 27.9899 83.403 27.8615 83.8735C27.731 84.3516 27.6072 84.8188 27.5119 85.2837C27.4263 85.7008 27.3686 86.1154 27.2872 86.6167C27.2076 87.1073 27.1096 87.6495 26.9503 88.2593C26.7187 89.1458 26.6695 89.9522 26.6671 90.8696C26.6648 91.7709 26.7103 92.8385 26.6466 94.1011C26.5431 96.1547 26.5488 97.9141 26.5958 99.2144C26.6194 99.8644 26.6538 100.397 26.6886 100.792C26.7061 100.989 26.7233 101.149 26.7394 101.27C26.7474 101.33 26.7545 101.378 26.7609 101.415C26.764 101.433 26.7666 101.447 26.7687 101.458C26.7705 101.466 26.7714 101.47 26.7716 101.471C27.0959 102.704 27.2942 103.627 27.6251 104.481C27.8953 105.179 28.15 105.919 28.3927 106.616C28.6381 107.32 28.87 107.976 29.1007 108.536C29.2238 108.834 29.2041 108.884 29.921 110.575C30.2684 111.394 30.7774 112.574 31.2902 113.762C31.8022 114.949 32.3185 116.144 32.6779 116.991C33.7138 119.431 34.4009 120.895 34.9581 122.337C36.3618 125.97 37.2411 127.772 37.7667 129.031C38.1069 129.845 38.5286 130.758 38.8195 131.682C39.1036 132.585 39.7983 134.091 40.3302 135.391C40.7028 136.302 41.1882 137.336 41.6476 138.61C41.8106 139.062 42.0062 139.552 42.2326 140.121C42.4575 140.686 42.7094 141.321 42.9767 142.045C43.391 143.169 43.8152 144.307 44.0783 145.275C44.3646 146.328 44.8197 147.82 45.4435 149.619C46.2374 151.908 46.5575 153.445 46.8869 154.552C47.0311 155.037 47.1733 155.574 47.3517 156.223C47.5316 156.878 47.7534 157.669 48.0646 158.688C48.2412 159.267 48.3671 159.821 48.4884 160.365C48.6109 160.913 48.7301 161.454 48.8986 162.044C49.1144 162.801 49.2451 163.423 49.3927 164.101C49.5033 164.61 49.6257 165.162 49.8048 165.852L50.004 166.592L50.0119 166.619L50.0167 166.646C50.0739 166.929 50.103 167.155 50.1232 167.332C50.1453 167.526 50.1527 167.603 50.1671 167.669C50.1765 167.712 50.1905 167.754 50.2306 167.849C50.2697 167.942 50.3343 168.086 50.3966 168.271C50.5288 168.664 50.3175 169.089 49.9249 169.221C49.5324 169.353 49.1069 169.142 48.9747 168.75C48.9347 168.631 48.8983 168.548 48.8497 168.433C48.8024 168.321 48.7417 168.174 48.7013 167.989C48.666 167.827 48.6488 167.64 48.6329 167.501C48.6155 167.349 48.593 167.176 48.5499 166.959C48.2491 165.88 48.0754 165.102 47.9269 164.419C47.7769 163.73 47.6563 163.158 47.4562 162.457C47.2736 161.817 47.1445 161.232 47.0236 160.691C46.9015 160.144 46.7877 159.642 46.63 159.125C46.3135 158.089 46.0877 157.284 45.9054 156.621C45.7216 155.951 45.5876 155.445 45.4494 154.98C45.0734 153.715 44.8139 152.381 44.0265 150.11C43.3933 148.284 42.9276 146.759 42.631 145.668C42.3892 144.779 41.9927 143.711 41.5695 142.564C41.3094 141.859 41.0636 141.24 40.839 140.675C40.6158 140.115 40.4105 139.599 40.2374 139.119C39.7896 137.877 39.3537 136.965 38.9425 135.959C38.4601 134.78 37.6971 133.112 37.3888 132.132C37.1251 131.295 36.7534 130.499 36.382 129.609C35.8933 128.438 34.9669 126.523 33.5587 122.878C33.0112 121.462 32.363 120.087 31.297 117.577C30.9397 116.735 30.4261 115.544 29.9132 114.356C29.4012 113.169 28.8899 111.985 28.5402 111.16C27.863 109.562 27.7555 109.209 27.714 109.108C27.4648 108.504 27.2201 107.808 26.9767 107.11C26.7306 106.404 26.4845 105.691 26.2257 105.023C25.8543 104.064 25.6214 102.993 25.3214 101.853C25.2716 101.663 25.23 101.327 25.1945 100.924C25.1569 100.499 25.1211 99.9389 25.0968 99.2681C25.0482 97.926 25.0428 96.1237 25.1486 94.0259C25.21 92.8077 25.1646 91.8534 25.1671 90.8657C25.1696 89.8941 25.2213 88.9439 25.4992 87.8804C25.6412 87.3365 25.7294 86.847 25.8058 86.3765C25.8804 85.917 25.9483 85.4404 26.0421 84.9829C26.148 84.4666 26.2833 83.9587 26.4142 83.479C26.5471 82.992 26.6734 82.54 26.7746 82.1011C27.005 81.1011 27.3515 80.1471 27.5392 79.4995C27.7483 78.7781 27.9702 77.8537 28.3829 77.1089C28.6199 76.6813 28.8602 76.1668 29.0968 75.6538C29.3258 75.1573 29.5585 74.644 29.7619 74.273C29.9783 73.8782 30.2077 73.4651 30.3956 73.1108C30.5971 72.7311 30.7109 72.4925 30.7365 72.4155Z" fill="black"/>
<path d="M56.7722 166.94C57.9734 166.574 59.0104 166.993 59.4441 167.282C59.5417 167.347 59.8109 167.511 59.9988 167.79L60.074 167.917L60.1677 168.132C60.3632 168.656 60.393 169.318 60.3631 169.894C60.327 170.585 60.1942 171.325 59.991 171.899C59.7352 172.622 59.1237 172.978 58.6492 173.188C58.4061 173.295 58.1489 173.384 57.9363 173.46C57.7101 173.54 57.529 173.607 57.3767 173.681C56.7992 173.961 55.9663 174.085 55.1677 174.131C54.3415 174.178 53.4417 174.147 52.6648 174.055L52.5047 174.035L52.366 173.952C51.3895 173.362 50.0498 172.436 49.2586 171.777L49.2107 171.738L49.1707 171.691C49.0625 171.566 48.9714 171.429 48.8904 171.313C48.8022 171.187 48.6861 171.024 48.4968 170.787C48.2386 170.463 48.2913 169.992 48.615 169.733C48.9387 169.475 49.4104 169.528 49.6687 169.852C49.8833 170.121 50.0193 170.311 50.1199 170.455C50.2033 170.574 50.245 170.63 50.2791 170.674C50.9696 171.24 52.1111 172.034 52.9988 172.58C53.6547 172.649 54.4006 172.673 55.0818 172.634C55.845 172.59 56.4254 172.475 56.7214 172.331C56.9583 172.216 57.2143 172.125 57.4334 172.047C57.6662 171.964 57.8637 171.895 58.0447 171.815C58.4181 171.651 58.5351 171.517 58.5769 171.398C58.7232 170.985 58.835 170.391 58.865 169.815C58.8952 169.235 58.8322 168.818 58.7488 168.627C58.739 168.619 58.7258 168.608 58.7068 168.595C58.6807 168.576 58.6515 168.557 58.6121 168.53C58.4441 168.418 57.8707 168.174 57.2097 168.375C56.3912 168.624 54.9779 168.844 53.6531 169C52.3187 169.157 50.9814 169.261 50.2888 169.261C49.8746 169.261 49.5388 168.925 49.5388 168.511C49.5389 168.097 49.8747 167.761 50.2888 167.761C50.8911 167.761 52.1579 167.665 53.4773 167.51C54.8065 167.353 56.0971 167.146 56.7722 166.94Z" fill="black"/>
<path d="M25.4229 102.344C25.4229 101.93 25.7587 101.594 26.1729 101.594C26.5871 101.594 26.9229 101.93 26.9229 102.344C26.9229 102.624 27.0124 103.571 27.2344 104.708C27.4198 105.657 27.7436 106.789 28.0606 107.695C28.4096 108.692 28.6259 109.921 28.8614 110.907C29.1874 112.273 29.5742 114.213 29.7549 115.58C29.8919 116.617 30.0838 118.229 30.21 119.576C30.2933 120.466 30.2904 121.295 30.3633 122.791C30.4529 124.628 30.4472 126.224 30.3994 127.437C30.353 128.617 30.2645 129.506 30.166 129.884C29.5898 132.096 28.8021 134.813 28.1407 136.721C27.8476 137.566 27.6791 138.181 27.0391 139.614C26.2532 141.373 25.6085 142.913 25.1202 144.075C24.8769 144.655 24.6699 145.146 24.5049 145.521C24.3514 145.869 24.205 146.187 24.086 146.365C23.7887 146.811 23.5163 147.308 23.1944 147.897C22.8764 148.478 22.5175 149.136 22.0645 149.862C21.415 150.902 20.6542 151.966 20.0118 152.905C19.7444 153.295 19.4577 153.636 19.1885 153.947C18.9123 154.266 18.6636 154.543 18.4287 154.848C17.9094 155.522 17.1406 156.329 16.4073 157.071C15.6531 157.833 14.9482 158.514 14.4854 159.001C14.0624 159.447 13.7164 159.909 13.3535 160.401C12.9972 160.884 12.6184 161.405 12.1592 161.906C11.8082 162.288 11.4993 162.674 11.1582 163.087C10.8234 163.493 10.4643 163.915 10.045 164.323C8.29354 166.023 7.69752 166.691 6.15921 168.554L6.13285 168.586L6.10257 168.615C5.70077 169.005 5.38739 169.325 5.10257 169.607C4.83271 169.874 4.57674 170.119 4.33792 170.294L4.33011 170.299C4.14192 170.434 3.98355 170.54 3.83011 170.642C3.48547 170.872 3.01984 170.778 2.79007 170.434C2.56037 170.089 2.65346 169.624 2.99808 169.394C3.14975 169.293 3.28753 169.2 3.45023 169.084C3.58738 168.984 3.77073 168.815 4.04789 168.54C4.30248 168.288 4.63236 167.953 5.02347 167.573C6.57546 165.693 7.21148 164.983 9.00003 163.246C9.35684 162.9 9.6722 162.53 10.001 162.132C10.3236 161.741 10.6682 161.311 11.0537 160.891C11.4481 160.461 11.7782 160.009 12.1465 159.51C12.5085 159.019 12.9042 158.489 13.3985 157.968C13.8717 157.47 14.6265 156.737 15.3409 156.015C16.076 155.272 16.7851 154.525 17.2412 153.933C17.5098 153.584 17.7981 153.26 18.0537 152.965C18.3164 152.662 18.5573 152.374 18.7744 152.057C19.4417 151.083 20.165 150.072 20.792 149.068C21.2191 148.384 21.5585 147.762 21.878 147.177C22.1935 146.6 22.4984 146.043 22.8389 145.532C22.8398 145.531 22.8419 145.527 22.8457 145.521C22.851 145.512 22.8585 145.499 22.8672 145.483C22.8849 145.45 22.907 145.407 22.9336 145.352C22.9873 145.241 23.0536 145.096 23.1328 144.916C23.2915 144.556 23.4927 144.078 23.7373 143.495C24.225 142.334 24.8762 140.779 25.67 139.002C26.2763 137.645 26.417 137.11 26.7227 136.229C27.3665 134.372 28.1433 131.697 28.7139 129.506C28.7654 129.308 28.8531 128.578 28.9004 127.377C28.9464 126.208 28.9527 124.658 28.8653 122.865C28.7875 121.269 28.7966 120.569 28.7168 119.717C28.5928 118.393 28.4028 116.799 28.2676 115.777C28.0957 114.476 27.7207 112.589 27.4024 111.256C27.133 110.128 26.9604 109.093 26.6446 108.191C26.3089 107.232 25.9646 106.029 25.7627 104.995C25.5327 103.817 25.4229 102.763 25.4229 102.344Z" fill="black"/>
<path d="M4.08989 169.186C4.38277 168.893 4.85754 168.893 5.15044 169.186C5.35533 169.391 5.55423 169.59 5.73051 169.766C5.94179 169.978 6.22711 170.212 6.61333 170.51L7.0352 170.829L7.07719 170.861L7.11528 170.899C7.63339 171.418 8.05113 171.72 8.52348 172.146C8.94398 172.525 9.39441 172.998 9.5479 173.675C9.61574 173.974 9.67135 174.302 9.67485 174.623C9.67829 174.939 9.63237 175.309 9.43852 175.645C9.30931 175.869 9.00213 176.344 8.33989 176.417C7.99197 176.455 7.61997 176.485 7.27837 176.473C6.95736 176.463 6.55391 176.415 6.21587 176.212C6.09817 176.141 5.92559 176.061 5.64653 175.927C5.38848 175.804 5.07471 175.649 4.75591 175.455C4.12238 175.069 3.4069 174.49 3.00298 173.583C2.32573 172.062 2.27875 170.969 2.54692 170.098C2.66893 169.703 3.08868 169.48 3.48442 169.602C3.66981 169.659 3.8146 169.784 3.9063 169.938C3.82664 169.681 3.8862 169.39 4.08989 169.186ZM3.98247 170.108C4.02271 170.245 4.02544 170.394 3.98051 170.54C3.84779 170.971 3.79798 171.682 4.37309 172.973C4.60156 173.486 5.02897 173.864 5.53716 174.174C5.78922 174.327 6.04657 174.456 6.29497 174.575C6.52221 174.684 6.79185 174.808 6.98833 174.926C6.98082 174.921 6.99928 174.933 7.06352 174.947C7.12634 174.96 7.21372 174.971 7.32817 174.974C7.54608 174.982 7.81173 174.963 8.11626 174.93C8.1222 174.921 8.13055 174.91 8.13872 174.896C8.14692 174.882 8.1767 174.813 8.17485 174.639C8.17301 174.471 8.14218 174.259 8.08501 174.007C8.04079 173.812 7.90132 173.605 7.5186 173.26C7.19677 172.97 6.62247 172.518 6.09868 172.001C5.52055 171.566 5.03195 171.189 4.66997 170.827C4.49368 170.651 4.29478 170.452 4.08989 170.247C4.04743 170.204 4.01262 170.157 3.98247 170.108Z" fill="black"/>
<path d="M48.334 170.366V169.293C48.334 168.879 48.6698 168.543 49.084 168.543C49.4982 168.543 49.834 168.879 49.834 169.293V170.366C49.8338 170.781 49.4981 171.116 49.084 171.116C48.6699 171.116 48.3342 170.781 48.334 170.366Z" fill="black"/>
<path d="M45.3535 166.175C45.6981 166.014 46.1154 166.138 46.3145 166.471C46.513 166.805 46.4229 167.229 46.1182 167.456C46.1166 167.457 46.1151 167.46 46.1133 167.462C46.084 167.499 46.0419 167.558 45.9834 167.647C45.8711 167.818 45.7433 168.03 45.5801 168.295C45.3346 168.906 45.1517 169.444 45.124 169.975C45.175 170.085 45.2682 170.253 45.4531 170.596C45.6491 170.961 45.5128 171.415 45.1484 171.612C44.7838 171.808 44.3283 171.672 44.1318 171.307C43.9265 170.926 43.7486 170.616 43.6572 170.338L43.6191 170.223V170.101C43.6216 169.192 43.936 168.36 44.2129 167.676L44.2363 167.618L44.2695 167.564C44.4307 167.303 44.5942 167.03 44.7295 166.824C44.7985 166.719 44.8728 166.611 44.9482 166.518C45.0116 166.44 45.1266 166.306 45.2861 166.21L45.3535 166.175Z" fill="black"/>
<path d="M0.053596 170.269C0.0535956 170.062 0.0526945 169.905 0.0399241 169.767L0.0409007 169.766C0.0110399 169.526 -0.00733922 169.098 0.00281474 168.642C0.0136186 168.156 0.0564792 167.568 0.17176 167.073L0.220588 166.863L0.373908 166.712C0.622377 166.465 0.940616 166.255 1.22547 166.099C1.51036 165.942 1.81776 165.81 2.0702 165.741C2.46996 165.633 2.88168 165.869 2.99012 166.269C3.09855 166.668 2.86255 167.08 2.46278 167.188C2.35929 167.217 2.16446 167.294 1.94617 167.414C1.81111 167.488 1.68902 167.567 1.58875 167.643C1.5378 167.953 1.5107 168.321 1.50281 168.675C1.49781 168.9 1.49976 169.101 1.50574 169.26L1.52918 169.591L1.53211 169.609L1.53406 169.628C1.55441 169.848 1.5536 170.077 1.5536 170.269C1.5536 170.683 1.21777 171.018 0.803596 171.019C0.389382 171.019 0.053596 170.683 0.053596 170.269Z" fill="black"/>
</svg>
