<svg width="97" height="295" viewBox="0 0 97 295" fill="none" xmlns="http://www.w3.org/2000/svg">
<path d="M27.33 51.4047C28.4161 51.2096 29.4038 51.4011 29.7773 51.4232C31.9994 51.5549 32.6788 51.6106 33.3534 51.6537C33.7246 51.6774 34.2094 51.7432 34.6669 51.806C35.1446 51.8716 35.6124 51.9366 36.0087 51.973C36.6002 52.0273 37.1233 52.1759 37.6151 52.3597C37.8902 52.4625 38.1435 52.5894 38.3212 52.6742C38.5168 52.7676 38.6489 52.8243 38.7743 52.8597L38.7958 52.8666L38.8163 52.8734C38.9042 52.9025 38.9824 52.9349 39.0253 52.9525C39.0768 52.9737 39.0927 52.9795 39.1054 52.9838C39.1144 52.9867 39.3575 53.0507 39.6161 53.1791C40.1108 53.4246 40.3127 54.0242 40.0673 54.5189C39.8218 55.0136 39.2222 55.2156 38.7275 54.9701C38.632 54.9227 38.6583 54.9439 38.4687 54.8802C38.3826 54.8514 38.3057 54.819 38.2646 54.8021C38.2151 54.7818 38.1997 54.7756 38.1884 54.7718V54.7709C37.9039 54.6863 37.6547 54.5719 37.4599 54.4789C37.2375 54.3727 37.0858 54.2976 36.915 54.2338C36.5298 54.0898 36.1868 53.9973 35.8261 53.9642C35.3748 53.9228 34.8559 53.8507 34.3954 53.7875C33.9148 53.7214 33.5095 53.6669 33.2265 53.6488C32.5216 53.6038 31.8816 53.551 29.6591 53.4193C28.9236 53.3757 28.4581 53.2343 27.6835 53.3734C27.0215 53.4923 26.7106 53.5828 26.1581 53.849C25.8728 53.9865 25.6063 54.1107 25.3739 54.2045C25.1606 54.2906 24.8874 54.3886 24.6122 54.4134C24.0623 54.4631 23.5762 54.058 23.5263 53.5082C23.4765 52.9581 23.8825 52.472 24.4325 52.4222C24.3971 52.4254 24.4404 52.4248 24.6259 52.35C24.7922 52.2828 25.007 52.1836 25.29 52.0472C26.0384 51.6866 26.5295 51.5485 27.33 51.4047Z" fill="black"/>
<path d="M34.3631 46.725C35.3672 46.7716 36.0359 46.9245 36.5672 47.0678C37.1148 47.2154 37.3453 47.2936 37.6707 47.3051C38.3634 47.3295 39.0156 47.4698 39.4881 47.5648C39.906 47.6489 40.5461 47.7545 41.2078 47.9281C41.6456 48.043 42.072 48.2091 42.4314 48.3597C42.8264 48.5253 43.0842 48.6458 43.3269 48.7387C43.9767 48.9873 44.4181 49.1749 44.9168 49.4242C45.2789 49.6053 45.5488 49.86 45.7693 50.1137C45.9655 50.3394 46.1619 50.6127 46.3533 50.8764C46.8237 51.377 47.1769 51.7312 47.3015 51.8558C47.3675 51.9218 47.4327 51.987 47.5652 52.1195C47.9555 52.51 47.9555 53.1431 47.5652 53.5336C47.1748 53.924 46.5417 53.9239 46.1512 53.5336C46.0185 53.4009 45.9525 53.3359 45.8865 53.2699C45.7522 53.1356 45.3657 52.7491 44.8553 52.2045L44.8133 52.1596L44.7771 52.1088C44.5445 51.789 44.3976 51.5851 44.2596 51.4262C44.1323 51.2797 44.0625 51.2335 44.0223 51.2133C43.6014 51.0028 43.2248 50.8413 42.6121 50.6068C42.3382 50.502 41.9569 50.3298 41.658 50.2045C41.3235 50.0642 41 49.9414 40.7 49.8627C40.1127 49.7086 39.6057 49.6288 39.0935 49.5258C38.58 49.4224 38.0977 49.3216 37.6004 49.3041C36.9844 49.2824 36.467 49.1128 36.0467 48.9994C35.6098 48.8816 35.0894 48.7601 34.2703 48.7221C33.4979 48.6862 33.2814 48.8438 33.3308 48.8129C32.8628 49.106 32.2452 48.9644 31.9519 48.4965C31.6588 48.0285 31.8004 47.4108 32.2683 47.1176C32.666 46.8685 33.3237 46.6767 34.3631 46.725Z" fill="black"/>
<path d="M40.2437 66.7681C40.7796 66.6346 41.3221 66.9617 41.4556 67.4976C41.4793 67.5929 41.4879 67.6883 41.4839 67.7818C41.5067 67.799 41.5291 67.8152 41.5494 67.8325L41.6353 67.9126L41.7193 68.0054C41.7434 68.0346 41.7633 68.0616 41.7798 68.0845C41.8109 68.1275 41.8379 68.1697 41.8492 68.187C41.8568 68.1989 41.8625 68.2065 41.8658 68.2114C42.151 68.53 42.7048 69.08 42.8482 69.8443C42.936 70.3123 42.9331 70.8623 42.9117 71.312C42.8895 71.7776 42.8426 72.22 42.816 72.4839C42.7448 73.1884 42.634 73.7863 42.441 74.3638C42.3657 74.5889 42.2251 75.0033 41.9957 75.3657C41.7819 75.7032 41.3069 76.2771 40.4957 76.2603C40.2082 76.2542 39.8444 76.2415 39.5093 76.1626C39.1678 76.0822 38.709 75.8999 38.4039 75.4409C38.2897 75.2691 38.0101 74.9169 37.8628 74.2046C37.7289 73.5561 37.7048 72.6412 37.8609 71.2349C37.9677 70.273 38.1962 69.651 38.2525 69.4068C38.27 69.3309 38.285 69.2477 38.3052 69.1314C38.3239 69.0242 38.3472 68.8855 38.3794 68.7446C38.4445 68.4603 38.5591 68.0912 38.8199 67.7417C39.0429 67.4429 39.3218 67.2254 39.5503 67.0816C39.7688 66.944 40.021 66.8236 40.2437 66.7681Z" fill="black"/>
<path d="M28.9803 66.9551C29.3462 66.7933 29.7662 66.8698 30.0535 67.1299C30.0787 67.1343 30.1066 67.1403 30.1385 67.1456C30.2381 67.162 30.391 67.1867 30.5389 67.2217C30.7908 67.2815 31.2848 67.4261 31.6082 67.8917L31.6707 67.9893L31.7254 68.0958C31.773 68.1991 31.7996 68.2931 31.8143 68.3477C31.8387 68.4392 31.8582 68.5363 31.8738 68.6309C31.9052 68.8214 31.9298 69.0521 31.9471 69.3096C31.9817 69.8277 31.9892 70.5025 31.9471 71.2706C31.8957 72.2078 31.8665 72.9885 31.7244 73.5801C31.6639 73.8322 31.5857 74.2 31.4832 74.5128C31.3796 74.8286 31.2045 75.2467 30.8543 75.5753C30.6742 75.7441 30.201 76.1878 29.4812 76.1495C29.1824 76.1335 28.7786 76.1104 28.4236 76.0089C28.2482 75.9587 28.0393 75.8743 27.8426 75.7354C27.5585 75.576 27.3059 75.3409 27.1121 75.0577C26.882 74.7212 26.2507 73.9595 26.4353 72.7237C26.5078 72.2386 26.5759 71.715 26.7264 71.1934C26.8442 70.7848 26.8516 70.4572 26.9607 69.7247C26.9769 69.616 26.9873 69.5073 27.0066 69.3428C27.024 69.1952 27.0478 69.0129 27.0867 68.8301C27.152 68.5237 27.3174 67.9099 27.8924 67.5616L28.2352 67.3663C28.3563 67.3034 28.4917 67.2431 28.6346 67.1905C28.7039 67.128 28.7891 67.0581 28.8895 67.001L28.9803 66.9551Z" fill="black"/>
<path d="M29.2442 59.0376C29.7754 58.8865 30.3294 59.1949 30.4806 59.7261C30.6315 60.2572 30.3231 60.8103 29.7921 60.9615C29.8166 60.9545 29.813 60.9536 29.7755 60.9703C29.7432 60.9846 29.6983 61.0061 29.6436 61.0357C29.5329 61.0956 29.4007 61.1774 29.2716 61.273C29.1743 61.345 29.0834 61.4328 28.9444 61.5757C28.8159 61.7079 28.6344 61.9 28.4142 62.0865C28.0938 62.3578 27.7317 62.6663 27.3097 62.9683C27.185 63.0575 27.1004 63.1626 27.0108 63.3199C26.9613 63.4068 26.9166 63.4986 26.8556 63.6236C26.7992 63.7389 26.7252 63.89 26.6378 64.0396C26.3858 64.4706 26.1084 64.8581 25.7491 65.2671C25.4992 65.5517 25.3238 65.8369 25.1837 66.1285C25.1573 66.1968 25.1291 66.2809 25.1075 66.3599C25.0826 66.4509 25.0463 66.6175 24.9405 66.9097C24.7524 67.4288 24.1785 67.6974 23.6593 67.5093C23.1401 67.3212 22.8716 66.7473 23.0597 66.2281C23.1298 66.0344 23.1374 65.9837 23.1788 65.8326C23.2212 65.6775 23.2758 65.5106 23.3351 65.3628L23.3468 65.3355L23.3585 65.3091C23.5666 64.8672 23.8428 64.4071 24.2462 63.9478C24.5219 63.6339 24.7242 63.3498 24.9112 63.0298C24.9553 62.9544 24.9974 62.8691 25.0577 62.7457C25.1131 62.6323 25.1862 62.4823 25.2726 62.3306C25.455 62.0102 25.7155 61.6502 26.1456 61.3423C26.4901 61.0959 26.7903 60.8403 27.1212 60.5601C27.2508 60.4504 27.3558 60.3396 27.5099 60.1812C27.6534 60.0336 27.842 59.8426 28.0811 59.6656C28.471 59.377 28.931 59.1268 29.2442 59.0376Z" fill="black"/>
<path d="M41.1231 61.0074C41.702 61.0792 42.2067 61.3546 42.5977 61.6109C42.7152 61.6878 42.941 61.8004 43.2911 61.9722C43.6061 62.1268 43.9954 62.3181 44.3331 62.5181C45.0475 62.9415 45.441 63.5827 45.7149 64.1675C45.8707 64.5001 46.0017 64.8275 46.0772 65.0005C46.1228 65.1049 46.1554 65.1728 46.1798 65.2173L46.2305 65.2955L46.252 65.3208C46.6134 65.7795 46.7744 66.2647 46.8409 66.5962C47.107 67.0231 47.0157 67.5901 46.6114 67.9087C46.1777 68.2505 45.549 68.1764 45.2071 67.7427C44.9567 67.425 44.9019 67.0997 44.88 66.9898C44.8589 66.8846 44.8017 66.7128 44.6807 66.5591L44.6817 66.5572C44.4747 66.3035 44.3425 66.0264 44.2442 65.8013C44.1269 65.5327 44.0493 65.3277 43.9034 65.0162C43.696 64.5733 43.5192 64.3608 43.3136 64.2388C43.0564 64.0864 42.741 63.9309 42.4093 63.7681C42.1127 63.6226 41.7492 63.4457 41.502 63.2837C41.1915 63.0802 40.997 63.0066 40.877 62.9917C40.329 62.9238 39.9399 62.4246 40.0079 61.8765C40.0759 61.3284 40.5751 60.9394 41.1231 61.0074Z" fill="black"/>
<path d="M41.719 83.4354C44.3184 83.4485 44.7875 83.5365 45.3274 83.5809C46.2727 83.6585 47.2291 83.7363 48.0706 83.8758C48.6511 83.972 49.2346 84.0897 50.0364 84.3641C50.5506 84.54 50.9757 84.6638 51.8304 84.8914C52.3835 85.0387 52.8521 85.1778 53.4007 85.4432L53.6409 85.5652L53.6751 85.5838L53.7083 85.6043C53.8108 85.6692 53.8885 85.7287 53.9456 85.7742C53.959 85.7849 53.972 85.7947 53.9817 85.8025C53.989 85.8084 53.9943 85.8132 53.9993 85.8172C54.0071 85.8198 54.0177 85.8247 54.0325 85.8289C54.5631 85.9818 54.8689 86.5356 54.7161 87.0662C54.5632 87.5969 54.0094 87.9036 53.4788 87.7508C53.2418 87.6825 53.0444 87.5957 52.8538 87.4588C52.8139 87.4302 52.7797 87.4032 52.7552 87.3836C52.7431 87.374 52.7308 87.3644 52.722 87.3572C52.7125 87.3496 52.7055 87.3433 52.6985 87.3377C52.6851 87.327 52.6734 87.3195 52.6634 87.3123C52.2241 87.0843 51.8768 86.9735 51.3157 86.824C50.4443 86.5919 49.9677 86.4546 49.389 86.2566C48.7225 86.0286 48.2533 85.933 47.7434 85.8484C46.9998 85.7252 46.1328 85.6535 45.1643 85.574C44.6322 85.5303 44.2275 85.4481 41.7093 85.4354C39.5509 85.4244 35.5686 85.3854 33.5315 85.4471C31.362 85.5128 31.1033 85.6146 30.3557 85.6639C30.0645 85.683 29.7805 85.7222 29.4778 85.7654C29.1909 85.8064 28.8616 85.8547 28.5491 85.8719C28.0596 85.8989 27.6412 86.0023 27.2708 86.1521C27.006 86.2593 26.5525 86.4966 25.9378 86.8016C25.3715 87.0825 24.6938 87.4058 24.1097 87.5975C23.8564 87.6806 23.5686 87.7924 23.3352 87.8943C23.2184 87.9454 23.1265 87.9899 23.0647 88.0223C23.0505 88.0297 23.0389 88.0352 23.0306 88.0398C22.6393 88.3428 22.0755 88.317 21.7151 87.9588C21.3234 87.5694 21.3219 86.9364 21.7112 86.5447L21.8528 86.4227C21.8965 86.3903 21.9338 86.3664 21.9563 86.3523C22.0162 86.3148 22.0789 86.2802 22.137 86.2498C22.2541 86.1885 22.3922 86.1245 22.5345 86.0623C22.8198 85.9376 23.1674 85.8028 23.4866 85.698C23.9173 85.5567 24.4765 85.2946 25.0491 85.0105C25.5735 84.7504 26.1621 84.4428 26.5208 84.2977C27.0906 84.0671 27.7253 83.9142 28.4397 83.8748C28.6473 83.8633 28.8822 83.8307 29.1956 83.7859C29.4933 83.7434 29.847 83.6926 30.2239 83.6678C30.7427 83.6336 31.3017 83.5128 33.471 83.4471C35.5545 83.384 39.5937 83.4246 41.719 83.4354Z" fill="black"/>
<path d="M44.8455 108.624C45.2373 108.235 45.8703 108.236 46.2596 108.628C46.6489 109.019 46.6464 109.652 46.2547 110.042C46.2792 110.017 46.191 110.119 46.0526 110.524C45.9307 110.881 45.8074 111.357 45.6864 111.927C45.4449 113.063 45.2303 114.483 45.0448 115.885C44.6573 118.813 44.2918 122.075 43.6639 125.483C43.2904 127.51 43.011 129.218 42.7616 130.753C42.5127 132.284 42.292 133.653 42.0389 134.983C41.4969 137.831 40.5017 140.872 39.8377 143.301C39.1738 145.729 38.8038 148.165 38.2918 150.725C37.9728 152.321 37.8208 154.16 37.6522 156.022C37.4873 157.844 37.3047 159.708 36.9041 161.21C36.6517 162.156 36.5617 163.087 36.492 164.384C36.423 165.67 36.3743 167.31 36.1854 169.559C35.4028 178.876 35.5312 184.118 35.9032 187.362C36.0884 188.977 36.3351 190.106 36.5653 191.006C36.7854 191.866 37.0351 192.666 37.1688 193.434C37.4085 194.811 37.7944 196.099 38.2176 197.376C38.6335 198.631 39.1033 199.926 39.4569 201.209C40.1752 203.815 40.6271 205.906 41.326 208.312C42.0684 210.868 42.6519 213.36 43.2147 215.864C43.4925 217.101 43.8654 218.233 44.2391 219.471C44.6078 220.693 44.9657 221.985 45.1659 223.437C45.5801 226.444 46.3762 229.001 46.9588 231.53C47.2353 232.73 47.474 234.016 47.7098 235.285C47.9472 236.563 48.1825 237.827 48.4578 239.022C48.7143 240.135 49.0349 241.28 49.3631 242.49C49.6885 243.69 50.0181 244.944 50.2752 246.229C50.7752 248.729 51.2837 251.273 51.5399 254.46C51.6521 255.856 51.9203 257.206 52.2088 258.534C52.4924 259.839 52.8063 261.162 52.9715 262.401C53.3014 264.874 53.8847 267.276 54.3953 269.829C54.8653 272.179 55.6498 274.616 55.9715 277.659C56.2451 280.247 56.8766 282.608 57.3924 285.187C57.5971 286.211 57.8927 287.157 58.243 288.055L58.3963 288.437L58.409 288.469L58.4198 288.501C58.6327 289.135 58.7678 289.818 58.8924 290.441C59.0007 290.983 58.6496 291.51 58.1082 291.618C57.5668 291.726 57.0399 291.375 56.9315 290.834C56.803 290.191 56.6903 289.643 56.5282 289.155C56.0804 288.063 55.6912 286.883 55.4305 285.58C54.9462 283.158 54.2686 280.579 53.9823 277.87C53.6708 274.923 52.9646 272.872 52.4344 270.221C51.9449 267.774 51.3304 265.224 50.9891 262.666C50.8378 261.532 50.5514 260.324 50.2547 258.959C49.9631 257.617 49.6703 256.157 49.5467 254.62C49.3009 251.562 48.8135 249.123 48.3133 246.622C48.0704 245.407 47.7565 244.209 47.4325 243.013C47.1111 241.828 46.7762 240.632 46.5086 239.471C46.2221 238.228 45.979 236.921 45.743 235.65C45.5054 234.371 45.2756 233.13 45.0106 231.979C44.4695 229.631 43.6144 226.831 43.1844 223.71C43.0062 222.416 42.685 221.245 42.3241 220.05C41.9682 218.871 41.5611 217.631 41.2625 216.303C40.7015 213.806 40.1295 211.364 39.4051 208.87C38.7256 206.53 38.1882 204.134 37.5282 201.74C37.1926 200.523 36.7594 199.333 36.3192 198.005C35.8862 196.698 35.4632 195.3 35.1981 193.777C35.0817 193.109 34.8854 192.512 34.6268 191.501C34.3782 190.529 34.1131 189.31 33.9159 187.59C33.5229 184.162 33.4041 178.775 34.1922 169.392C34.3778 167.183 34.4233 165.612 34.495 164.277C34.5661 162.953 34.6632 161.85 34.9715 160.694C35.3201 159.387 35.4918 157.7 35.66 155.843C35.8245 154.026 35.9848 152.058 36.3299 150.333C36.8181 147.892 37.22 145.29 37.908 142.773C38.6113 140.201 39.5514 137.356 40.0741 134.609C40.321 133.311 40.5376 131.971 40.7879 130.431C41.0376 128.895 41.3196 127.17 41.6971 125.121C42.3129 121.779 42.6683 118.6 43.0623 115.622C43.2496 114.207 43.4722 112.725 43.7303 111.511C43.859 110.905 44.0013 110.342 44.16 109.878C44.3022 109.461 44.5102 108.957 44.8455 108.624Z" fill="black"/>
<path d="M63.5898 285.675C64.3823 285.552 65.8485 285.371 66.6735 285.277C67.1803 285.219 67.5309 285.192 67.8095 285.174C68.1008 285.155 68.2584 285.149 68.4479 285.131C68.9776 285.079 69.7745 285.027 70.7342 284.915C71.5338 284.822 72.1879 284.921 72.3767 284.927C72.7602 284.939 74.0035 285.104 75.0262 285.324C75.3811 285.401 75.6695 285.546 75.8808 285.666C76.1621 285.826 76.1851 285.855 76.3417 285.936C76.7188 286.129 76.992 286.439 77.1689 286.685C77.3552 286.944 77.5003 287.227 77.5945 287.473C77.7742 287.942 77.8015 288.356 77.733 288.729C77.7014 288.902 77.6527 289.044 77.6176 289.141C77.6065 289.171 77.5801 289.243 77.5763 289.253C77.5714 289.267 77.5678 289.276 77.5654 289.283C77.5631 289.29 77.5618 289.294 77.5618 289.294C77.4181 289.782 77.0824 290.174 76.8199 290.431C76.5369 290.709 76.2212 290.942 75.9657 291.104C75.7482 291.241 75.5385 291.318 75.3716 291.373C75.1827 291.436 75.0724 291.466 74.8676 291.54C73.8478 291.908 73.064 292.095 72.6613 292.185C71.8772 292.361 70.8133 292.611 69.8965 292.717C69.5701 292.754 69.3064 292.769 69.0889 292.777C68.8557 292.787 68.732 292.789 68.6043 292.8C68.1995 292.835 67.4348 292.878 66.3831 292.963C65.5869 293.028 64.4203 293.044 63.8084 293.053C63.0535 293.065 62.7808 293.026 62.478 293.011C61.7529 292.974 60.6052 292.696 59.5492 292.406C58.8086 292.203 58.3164 292.033 57.7761 291.842L57.7689 291.84L57.7616 291.837C57.6849 291.809 57.6001 291.773 57.5154 291.74C57.2436 291.765 56.9628 291.681 56.7458 291.482C56.3388 291.109 56.3112 290.477 56.6844 290.07L56.7503 290.002C56.8246 289.932 56.9242 289.856 57.052 289.794C57.2372 289.706 57.43 289.675 57.6112 289.687C57.6939 289.693 57.7675 289.707 57.8276 289.723C57.7413 289.358 57.8647 288.959 58.1781 288.71C58.4874 288.464 58.8894 288.17 59.2041 287.905C59.8126 287.393 60.0491 287.235 60.4063 287.002C60.6785 286.824 61.1489 286.489 61.7023 286.243C62.2586 285.997 62.5974 285.83 63.5898 285.675ZM66.9001 287.265C66.0783 287.358 64.6478 287.535 63.8986 287.652C63.1552 287.768 62.9991 287.857 62.5129 288.072C62.1487 288.234 61.8562 288.443 61.5017 288.675C61.2021 288.871 61.0314 288.981 60.4925 289.435C60.1632 289.712 59.6275 290.113 59.422 290.276C59.4191 290.278 59.4158 290.28 59.4129 290.282C59.6137 290.344 59.8298 290.409 60.0778 290.477C61.1705 290.777 62.1079 290.99 62.5791 291.014C62.9776 291.034 63.1108 291.064 63.7782 291.054C64.4148 291.044 65.5051 291.028 66.2206 290.97C67.4342 290.871 67.9477 290.849 68.4312 290.807C68.62 290.791 68.8357 290.786 69.0086 290.779C69.1975 290.771 69.4083 290.759 69.6689 290.729C70.4532 290.639 71.3901 290.42 72.2227 290.233C72.5784 290.153 73.2753 289.988 74.189 289.658C74.4172 289.576 74.6444 289.507 74.7421 289.475C74.8617 289.435 74.8878 289.419 74.8975 289.413C75.0583 289.312 75.2571 289.163 75.4199 289.004C75.5905 288.837 75.6383 288.738 75.6429 288.729C75.6621 288.664 75.6835 288.605 75.6989 288.563C75.7217 288.501 75.722 288.502 75.7382 288.458C75.7578 288.404 75.7635 288.381 75.7659 288.368C75.7674 288.36 75.7678 288.35 75.7661 288.333C75.7642 288.313 75.7574 288.266 75.7274 288.188C75.6912 288.094 75.6252 287.964 75.5444 287.852C75.5053 287.797 75.4698 287.758 75.443 287.732C75.4212 287.711 75.413 287.707 75.4194 287.711C75.3093 287.654 75.2066 287.593 75.1247 287.543C75.0318 287.487 74.9656 287.446 74.8938 287.405C74.7566 287.328 74.6718 287.293 74.6043 287.279C73.6393 287.071 72.5269 286.933 72.3113 286.926C71.7949 286.909 71.577 286.831 70.9656 286.902C69.9983 287.015 69.0718 287.079 68.6424 287.121C68.4099 287.144 68.1764 287.154 67.9386 287.17C67.6881 287.186 67.3705 287.211 66.9001 287.265Z" fill="black"/>
<path d="M38.5885 205.711C38.5885 205.159 39.0363 204.711 39.5885 204.711C40.1407 204.711 40.5885 205.158 40.5885 205.711C40.5885 205.838 40.5885 210.344 40.6207 217.23C40.6362 220.551 41.0793 221.702 41.3219 223.12C41.4748 224.014 41.5329 225.207 41.5787 226.373C41.6258 227.572 41.6598 228.765 41.7535 229.76C41.8813 231.116 42.0821 232.431 42.2135 238.62C42.2813 241.815 42.6504 243.418 42.9098 244.779C43.1379 245.976 43.2217 247.289 43.2623 248.464C43.3046 249.688 43.3008 250.682 43.3492 251.434C43.4423 252.88 43.6363 254.783 43.8892 256.272C44.0252 257.073 44.1088 257.91 44.1861 258.734C44.2645 259.569 44.3362 260.391 44.4469 261.212C44.7088 263.155 44.9362 264.881 45.1353 267.606C45.223 268.805 45.3984 270.3 45.5875 271.883C45.7752 273.455 45.9757 275.11 46.109 276.593C46.3743 279.545 46.5622 281.846 46.7867 283.542C46.9409 284.706 47.0322 285.623 47.1119 286.412C47.1919 287.205 47.2593 287.854 47.3678 288.518C47.3914 288.663 47.4053 288.815 47.4107 288.968C47.6162 289.245 47.6737 289.62 47.5269 289.96C47.2796 290.532 47.0257 290.874 46.7799 291.16L46.7682 291.174L46.7555 291.187C46.2922 291.689 45.5044 292.324 44.4586 293.075L44.4137 293.107L44.3648 293.135C43.9306 293.379 43.1569 293.582 42.2457 293.687C41.2935 293.797 40.0809 293.812 38.7135 293.605C38.4716 293.569 38.0259 293.551 37.3267 293.544C36.6381 293.537 35.8069 293.541 34.7838 293.535C32.7635 293.524 30.1377 293.475 27.1012 293.223C25.9519 293.128 25.1315 293.064 24.5592 292.969C23.9755 292.871 23.4401 292.711 23.0123 292.274C22.7981 292.056 22.6226 291.762 22.5406 291.432C22.4572 291.097 22.4543 290.64 22.7291 290.217L22.9205 289.95C23.3847 289.357 23.9709 288.962 24.3883 288.69C24.9435 288.328 25.5509 288.059 26.1568 287.804C26.78 287.542 27.4174 287.289 28.1392 286.938C28.8707 286.583 29.9164 286.38 30.9586 286.27C32.0303 286.158 33.2135 286.133 34.2877 286.192C36.1667 286.296 37.428 286.603 38.6344 286.863C40.046 287.167 41.5028 287.61 42.7974 287.986C43.2001 288.103 43.6121 288.298 43.9596 288.47C44.3372 288.656 44.6498 288.819 44.9576 288.95C45.1555 289.034 45.3037 289.081 45.4107 289.106C45.4112 289.019 45.4079 288.925 45.3941 288.841C45.2744 288.107 45.2011 287.399 45.1217 286.612C45.0418 285.821 44.9538 284.934 44.8043 283.804C44.5725 282.054 44.3798 279.687 44.1178 276.771C43.9877 275.324 43.7903 273.703 43.6012 272.12C43.4134 270.548 43.2328 269.006 43.1412 267.753C42.9465 265.088 42.7246 263.41 42.4644 261.479C42.347 260.608 42.2714 259.735 42.1949 258.921C42.1174 258.095 42.0386 257.326 41.9166 256.607C41.6488 255.031 41.4492 253.056 41.3531 251.563C41.3031 250.786 41.3013 249.633 41.2633 248.533C41.2236 247.384 41.1444 246.195 40.9459 245.153C40.6846 243.782 40.2851 242.038 40.2135 238.663C40.0835 232.539 39.8875 231.277 39.7623 229.947C39.662 228.882 39.6252 227.61 39.5797 226.451C39.5329 225.259 39.4772 224.199 39.3502 223.457C39.1365 222.208 38.6372 220.779 38.6207 217.239C38.5885 210.349 38.5885 205.841 38.5885 205.711ZM34.1783 288.189C33.2046 288.136 32.1278 288.159 31.1676 288.26C30.1783 288.364 29.4197 288.54 29.0133 288.737C28.228 289.119 27.5167 289.402 26.9322 289.648C26.3306 289.901 25.8706 290.112 25.4801 290.366C25.1726 290.566 24.9092 290.753 24.6988 290.957C24.7518 290.969 24.8142 290.983 24.8892 290.996C25.3561 291.074 26.0627 291.131 27.2662 291.23C30.2301 291.476 32.7986 291.524 34.7945 291.535C35.7792 291.54 36.6618 291.537 37.3463 291.544C38.0201 291.55 38.6073 291.567 39.0113 291.628C40.1946 291.806 41.2296 291.791 42.0162 291.7C42.4096 291.655 42.7343 291.591 42.9791 291.527C43.1014 291.495 43.1991 291.465 43.2721 291.438C43.3055 291.426 43.3314 291.415 43.3512 291.406C43.6618 291.182 43.9354 290.976 44.1754 290.791C43.7983 290.631 43.3952 290.421 43.0748 290.263C42.7243 290.091 42.4547 289.969 42.2398 289.907C40.9059 289.52 39.5375 289.103 38.2135 288.818C36.9801 288.553 35.8735 288.283 34.1783 288.189Z" fill="black"/>
<path d="M77.9874 69.4126C78.3116 68.9656 78.9368 68.8658 79.3838 69.19C79.8309 69.5142 79.9306 70.1394 79.6065 70.5865C79.4406 70.8152 79.007 71.3708 78.6963 71.9605C78.4549 72.4402 78.2456 72.7358 78.0792 72.9849L78.0645 73.0064L78.0489 73.0279C78.0206 73.0657 77.9933 73.0981 77.9747 73.1206C77.9507 73.1496 77.9437 73.1581 77.9249 73.1812C77.8977 73.2144 77.8644 73.2574 77.8184 73.3228C77.5009 73.7745 76.8767 73.8833 76.4249 73.566C75.9731 73.2485 75.8643 72.6243 76.1817 72.1724C76.2603 72.0605 76.324 71.9792 76.376 71.9156C76.3967 71.8903 76.4246 71.857 76.4327 71.8472C76.4341 71.8455 76.4354 71.8437 76.4366 71.8423C76.6106 71.5827 76.745 71.3915 76.9171 71.0474L76.9219 71.0376L76.9268 71.0289C77.3226 70.2775 77.8741 69.5688 77.9874 69.4126Z" fill="black"/>
<path d="M72.1493 52.9746C72.7015 52.9836 73.1421 53.439 73.1331 53.9912C73.1241 54.5434 72.6687 54.984 72.1165 54.975C71.8739 54.971 71.6628 54.9736 71.53 54.9663L71.5158 54.9649L71.5026 54.9639C71.2082 54.9393 70.8079 54.9445 70.1922 54.9753L70.177 54.9766L70.1612 54.9767C70.0047 54.9798 69.8606 54.9792 69.7374 54.9786C69.6096 54.978 69.5114 54.9776 69.4232 54.9797C69.2343 54.9841 69.1975 55 69.2127 54.9943C68.8861 55.1171 68.4048 55.3131 68.0987 55.4768C67.9288 55.5677 67.7146 55.68 67.4952 55.7721C67.2879 55.8591 66.9969 55.9632 66.6829 55.982C66.1316 56.0149 65.6574 55.5943 65.6245 55.043C65.5917 54.4919 66.0121 54.0185 66.5631 53.9854C66.54 53.9868 66.5838 53.9857 66.7211 53.9281C66.8466 53.8754 66.9888 53.8021 67.1555 53.713C67.5842 53.4838 68.1691 53.2504 68.5094 53.1225C68.8241 53.0042 69.1422 52.9854 69.3749 52.9798C69.4978 52.9769 69.6281 52.978 69.7471 52.9785C69.8709 52.9791 69.993 52.979 70.1226 52.9765C70.7175 52.9472 71.2147 52.9368 71.6399 52.97L71.6403 52.9691C71.7303 52.9741 71.7849 52.9686 72.1493 52.9746Z" fill="black"/>
<path d="M47.6952 34.0814C47.9741 34.0814 48.2258 34.1961 48.4071 34.3802C48.6261 34.4458 48.8843 34.5781 49.08 34.8528C49.381 35.2755 49.4675 35.867 49.3993 36.4212C49.3833 36.5518 49.3733 36.6851 49.3603 36.847C49.3479 37.0002 49.3329 37.1806 49.3075 37.3636C49.2562 37.7333 49.1537 38.181 48.8808 38.6155C48.658 38.9701 48.3422 39.3982 47.9902 39.7718C47.6708 40.1107 47.193 40.5452 46.6366 40.7142C46.1885 40.8502 45.6189 40.986 45.0732 41.0003C44.5871 41.0129 43.7731 40.937 43.2753 40.2591C43.1323 40.0643 42.8261 39.6552 42.7695 39.1136C42.7062 38.5084 42.7297 37.8081 42.953 37.1693C43.1717 36.5437 43.479 36.0466 44.0888 35.5784C44.5682 35.2104 45.1373 34.7029 45.8603 34.4525C46.7371 34.1488 47.3281 34.0814 47.6952 34.0814Z" fill="black"/>
<path d="M51.4854 0.000536531C52.2027 -0.00501793 53.1114 0.0299175 53.8272 0.230029C54.3981 0.389624 55.0156 0.567104 55.6847 1.15386C56.1293 1.54376 56.5398 1.91954 56.9259 2.37554C57.2734 2.78607 57.9801 3.76289 57.9386 4.98589C57.9054 5.96145 57.8705 7.00998 57.5968 8.02495C57.3585 8.90861 57.0669 9.7047 56.9386 10.105C56.8331 10.434 56.6771 10.7995 56.5196 11.1646C56.3561 11.5437 56.178 11.95 55.9962 12.4117C55.7004 13.1628 55.2702 13.6917 55.127 13.9332C54.8606 14.3828 54.526 15.1134 53.7628 15.7994C53.2838 16.2298 52.928 16.5011 52.3184 16.9126C51.9162 17.1843 51.3971 17.4954 50.962 17.7583C50.4865 18.0457 50.1602 18.2467 50.0372 18.3443C49.6158 18.6787 49.1002 19.0638 48.7852 19.3873C48.3868 19.7964 48.077 20.1964 47.7227 20.6099C47.4459 20.9331 47.266 21.1344 47.1202 21.4839C46.8477 22.1374 46.4173 22.738 46.087 23.1314C45.9638 23.2781 45.8285 23.4013 45.7257 23.4908C45.5932 23.606 45.5458 23.6414 45.4513 23.7261C45.2778 23.8817 45.3118 23.8962 45.3341 23.815C45.2845 23.9961 45.1941 24.2035 45.1583 24.2935C45.1095 24.4161 45.069 24.5297 45.0382 24.6617C44.9799 24.9114 44.9373 25.3122 45.0753 25.9781C45.207 26.6135 45.3221 26.9763 45.4913 27.2232C45.5701 27.3382 45.6428 27.4543 45.7042 27.5523C45.7693 27.6561 45.8219 27.7395 45.8741 27.8169C45.9848 27.9812 46.0399 28.0305 46.0538 28.0406C46.1543 28.1136 46.2821 28.215 46.3546 28.2701C46.4441 28.3382 46.5186 28.3911 46.589 28.4341C46.7232 28.5162 46.8189 28.5467 46.9102 28.5513C48.2668 28.6198 49.5204 28.7027 49.9864 28.7027C50.5387 28.7027 50.9864 29.1504 50.9864 29.7027C50.9864 30.255 50.5387 30.7027 49.9864 30.7027C49.4537 30.7027 48.0798 30.6126 46.8097 30.5484C45.81 30.4979 45.0796 29.8051 44.878 29.6587C44.5722 29.4366 44.3591 29.1474 44.2159 28.9351C44.1412 28.8243 44.0693 28.7097 44.0099 28.6148C43.9467 28.5141 43.8946 28.43 43.8419 28.3531C43.4228 27.7415 43.2483 27.0167 43.1173 26.3843C42.926 25.4613 42.9606 24.7658 43.0909 24.2076C43.1543 23.9358 43.2359 23.7174 43.3009 23.5542C43.3789 23.3582 43.3938 23.3252 43.4044 23.2867C43.5472 22.7652 43.9141 22.4183 44.1153 22.2378C44.2079 22.1548 44.3593 22.0288 44.4132 21.982C44.4967 21.9093 44.5362 21.8685 44.5558 21.8453C44.8133 21.5385 45.1083 21.113 45.2745 20.7144C45.5603 20.029 45.9549 19.6002 46.2042 19.3091C46.483 18.9837 46.8957 18.4609 47.3526 17.9917C47.7853 17.5475 48.4672 17.0373 48.794 16.7779C49.0435 16.5799 49.5133 16.297 49.9278 16.0464C50.3827 15.7715 50.8491 15.4919 51.1993 15.2554C51.7496 14.8838 52.0292 14.6676 52.4259 14.3111C52.8963 13.8882 53.0356 13.5393 53.4063 12.9136C53.7892 12.2676 53.906 12.2603 54.1349 11.6792C54.3313 11.1803 54.5258 10.7387 54.6837 10.3726C54.8475 9.99276 54.9624 9.71572 55.0333 9.49468C55.1985 8.97928 55.4426 8.3331 55.6661 7.50444C55.8698 6.74896 55.905 5.93295 55.9395 4.91753C55.9549 4.46516 55.6642 3.98125 55.3995 3.66851C55.1137 3.33092 54.7961 3.03456 54.3653 2.65679C54.0548 2.38451 53.8129 2.30222 53.2891 2.15581C52.8627 2.0366 52.1949 1.99419 51.5011 1.99956C50.8323 2.00475 50.2418 2.05169 49.9913 2.0689C49.594 2.09618 48.7901 2.23223 47.8419 2.4771C47.2198 2.63776 46.7521 2.91034 46.1505 3.19878C45.5168 3.50258 44.9401 3.77642 44.5772 4.03276C43.6752 4.67019 42.7952 5.20142 42.3673 5.47319C42.0157 5.69645 41.7828 5.97374 41.3126 6.43022C41.1474 6.59065 41.0249 6.80996 40.8702 7.1812C40.7886 7.37701 40.7227 7.59004 40.6358 7.87944C40.5621 8.12498 40.4747 8.41506 40.3585 8.73296C40.3265 9.01569 40.3162 9.31244 40.3253 9.5562C40.329 9.65474 40.3359 9.73577 40.3429 9.79741C40.4007 9.8719 40.4698 9.96614 40.5391 10.0865C40.8149 10.565 40.6505 11.1769 40.172 11.4527C39.6935 11.7283 39.0825 11.5639 38.8067 11.0855C38.7931 11.0619 38.7791 11.042 38.7579 11.0152C38.7446 10.9983 38.7328 10.9844 38.71 10.9566C38.6908 10.933 38.6608 10.8963 38.63 10.855L38.6046 10.8208L38.5831 10.7857C38.4363 10.5504 38.3924 10.2784 38.3751 10.1675C38.3494 10.003 38.3342 9.81772 38.3272 9.63042C38.3133 9.25516 38.3289 8.80334 38.3868 8.37065L38.4024 8.25542L38.4444 8.14604C38.5549 7.85731 38.635 7.58997 38.7208 7.30425C38.8031 7.03012 38.8967 6.71821 39.0245 6.41167C39.1989 5.99333 39.447 5.45295 39.919 4.99468C40.2378 4.68517 40.7139 4.1538 41.295 3.78472C41.7691 3.48362 42.5745 2.99952 43.4229 2.39995C43.958 2.02182 44.7254 1.66394 45.2862 1.39507C45.7369 1.17901 46.4727 0.765063 47.3419 0.540576C48.3471 0.280985 49.2832 0.112986 49.8536 0.0737787C50.0864 0.0577918 50.7432 0.00629273 51.4854 0.000536531Z" fill="black"/>
<path d="M32.6514 177.676C32.6514 177.344 32.6459 177.135 32.6329 177.01C32.5315 176.845 32.3991 176.703 32.1846 176.488C31.5649 175.869 30.0795 174.682 29.0626 173.939C28.4584 173.497 27.5256 172.892 26.7657 172.512C26.2151 172.236 25.2739 171.913 24.3292 171.051C23.8883 170.648 23.6792 170.425 23.3614 170.148C23.0933 169.914 22.871 169.758 22.628 169.652C21.8728 169.324 21.0217 169.1 19.6788 168.682C18.7411 168.389 17.8583 168.018 16.3487 167.386C14.8968 166.778 13.2955 166.221 12.209 165.676C11.5438 165.342 10.9889 164.926 10.4971 164.527C9.97908 164.107 9.58208 163.751 9.1026 163.4C8.28293 162.802 7.60342 162.271 6.91803 161.894C6.01713 161.397 5.01208 160.655 4.03815 159.991C2.98159 159.271 2.32407 158.648 1.78912 157.892C1.75075 157.837 1.66159 157.746 1.48444 157.609C1.28028 157.452 1.15399 157.374 0.90143 157.189C0.725274 157.059 0.428296 156.835 0.233461 156.541C0.124847 156.377 0.00326819 156.126 6.23607e-05 155.809C-0.00327714 155.471 0.127891 155.186 0.30182 154.975L0.629945 154.598C0.955127 154.245 1.26858 153.959 1.53424 153.717C1.90855 153.376 2.14135 153.162 2.30963 152.935C2.94431 152.075 4.19931 150.693 5.24127 149.803C5.61578 149.483 6.01922 149.168 6.40045 148.863C6.79015 148.552 7.17894 148.233 7.5694 147.872C8.66238 146.862 9.73263 145.768 10.1905 145.176C10.5662 144.69 10.9683 144.222 11.3594 143.766C11.7559 143.303 12.1454 142.847 12.5245 142.357C13.2085 141.473 13.7565 140.793 14.3311 140.046C15.2644 138.833 16.6193 137.383 17.377 136.51C17.7852 136.039 18.2069 135.483 18.7208 134.849C19.2109 134.244 19.7626 133.597 20.3477 133.075C21.1223 132.384 22.2024 131.411 23.2842 130.523C24.6142 129.431 25.6839 128.456 26.46 127.856C27.0491 127.4 27.5885 127.045 28.0528 126.732C28.5259 126.414 28.915 126.146 29.2745 125.833C29.9542 125.241 30.6838 124.682 31.252 124.241C31.7496 123.855 32.3774 123.294 33.2569 122.69C34.2525 122.007 34.921 121.539 36.4356 120.502C36.9872 120.124 37.3776 119.795 37.7618 119.461C38.1446 119.128 38.5493 118.764 39.0772 118.377C39.3808 118.154 39.6459 117.91 39.9327 117.64C40.2061 117.382 40.5232 117.076 40.8712 116.811C41.315 116.473 41.8431 116.194 42.2891 115.997C42.7052 115.814 43.1745 115.647 43.4962 115.606C44.0441 115.538 44.5439 115.927 44.6124 116.475C44.6806 117.023 44.292 117.522 43.7442 117.591C43.7604 117.589 43.7055 117.597 43.5626 117.645C43.4348 117.687 43.2735 117.749 43.0967 117.827C42.735 117.987 42.359 118.191 42.0831 118.401C41.8385 118.588 41.6092 118.808 41.3057 119.095C41.0156 119.368 40.6727 119.687 40.2608 119.989C39.8155 120.316 39.4833 120.615 39.0743 120.971C38.6667 121.325 38.2094 121.711 37.5655 122.152C36.039 123.198 35.4117 123.638 34.3897 124.34C33.5634 124.907 33.1192 125.324 32.4786 125.821C31.8932 126.276 31.2145 126.795 30.587 127.341C30.1232 127.745 29.6407 128.076 29.169 128.393C28.6886 128.716 28.2093 129.031 27.6837 129.438C26.9015 130.043 26.0405 130.847 24.5528 132.068C23.5101 132.924 22.4652 133.866 21.6788 134.567C21.2209 134.976 20.7534 135.516 20.2745 136.107C19.8193 136.669 19.3219 137.32 18.8878 137.82C18.0453 138.792 16.8046 140.112 15.9171 141.266C15.3761 141.969 14.726 142.781 14.1065 143.582C13.6925 144.117 13.2717 144.608 12.878 145.067C12.4791 145.533 12.1115 145.961 11.7725 146.399C11.206 147.132 10.0306 148.321 8.92682 149.341C8.48375 149.75 8.0514 150.104 7.65045 150.425C7.24097 150.752 6.88236 151.032 6.5401 151.324C5.6183 152.111 4.46673 153.38 3.91901 154.122C3.6095 154.541 3.21111 154.895 2.87995 155.196C2.68675 155.372 2.49643 155.547 2.30768 155.737C2.43759 155.83 2.59056 155.937 2.70514 156.025C2.92726 156.197 3.20776 156.434 3.42194 156.736C3.7838 157.248 4.24748 157.713 5.16412 158.338C6.24281 159.073 7.09281 159.707 7.88287 160.142C8.71436 160.6 9.54744 161.249 10.2823 161.786C10.8131 162.174 11.3297 162.627 11.7569 162.974C12.2104 163.342 12.6333 163.651 13.1055 163.888C14.1274 164.4 15.4616 164.846 17.1212 165.541C18.6608 166.186 19.4459 166.515 20.2735 166.773C21.4948 167.153 22.538 167.433 23.4258 167.819C23.9283 168.038 24.3262 168.335 24.6758 168.64C24.9759 168.901 25.3825 169.304 25.6778 169.573C26.3513 170.188 26.8631 170.324 27.6602 170.723C28.5507 171.168 29.5808 171.84 30.2423 172.323C31.2743 173.078 32.8643 174.34 33.5987 175.074C33.8137 175.289 34.1206 175.588 34.3751 176.021L34.4805 176.214L34.5284 176.311L34.5557 176.415C34.6588 176.818 34.6514 177.345 34.6514 177.676C34.6514 178.228 34.2035 178.676 33.6514 178.676C33.0991 178.676 32.6514 178.228 32.6514 177.676Z" fill="black"/>
<path d="M33.1119 176.844C33.641 176.686 34.1987 176.987 34.357 177.516C34.5149 178.045 34.214 178.602 33.6851 178.76C33.383 178.85 32.5631 179.217 31.897 179.715C31.2994 180.163 30.7466 180.598 30.1294 181.113C29.4603 181.671 28.9389 182.166 28.4361 182.745C27.7143 183.578 27.1562 184.064 26.3667 185.156C25.6084 186.204 25.4081 186.991 25.2085 187.76C25.346 187.722 25.4978 187.667 25.6675 187.59C26.0745 187.407 26.3496 187.234 26.8492 186.984C27.0911 186.863 27.3661 186.674 27.6968 186.42C27.8595 186.295 28.0255 186.163 28.2027 186.022C28.3771 185.883 28.5621 185.735 28.7505 185.591C29.3994 185.095 29.9748 184.612 30.7359 183.977C31.4312 183.397 32.0367 182.792 32.5494 182.157C32.608 182.059 32.6717 181.939 32.7964 181.654C32.9315 181.345 33.1208 180.891 33.3189 180.183C33.4676 179.651 34.0194 179.34 34.5513 179.489C35.083 179.637 35.3932 180.189 35.2447 180.721C35.0137 181.547 34.7874 182.093 34.6285 182.456C34.4755 182.806 34.3685 183.025 34.2232 183.257L34.1929 183.305L34.1578 183.349C33.5388 184.127 32.8191 184.844 32.0171 185.513C31.2653 186.14 30.6545 186.652 29.9654 187.179C29.7955 187.309 29.626 187.445 29.4497 187.585C29.2763 187.724 29.0951 187.869 28.9146 188.007C28.5588 188.28 28.1611 188.563 27.7437 188.772C27.4427 188.922 26.9101 189.224 26.4878 189.414C26.0147 189.627 25.4374 189.826 24.7876 189.823C24.3977 189.821 23.8062 189.693 23.4195 189.232C23.0105 188.744 23.0214 188.147 23.1451 187.734L23.3199 187.073C23.521 186.302 23.851 185.221 24.7466 183.983C25.5976 182.806 26.3578 182.088 26.9244 181.435C27.5156 180.753 28.1204 180.183 28.8482 179.577C29.4928 179.039 30.0734 178.582 30.6988 178.114C31.5481 177.478 32.5785 177.004 33.1119 176.844Z" fill="black"/>
<path d="M78.6276 62.487C79.0181 62.0964 79.6512 62.0965 80.0417 62.487C80.3357 62.781 80.5794 63.0232 80.7712 63.2584C80.8713 63.3812 80.9523 63.4941 81.0143 63.5827C81.081 63.6778 81.1162 63.7302 81.155 63.7799C81.639 64.3354 82.1258 64.9794 82.6286 65.5885C83.1517 66.2222 83.5593 66.7854 84.0788 67.692C84.6607 68.7077 85.154 69.5368 85.6618 70.4665C86.0279 71.1368 86.6646 72.1259 87.3024 73.529C87.6063 74.1973 87.8572 74.7986 88.0788 75.3336C88.3029 75.8747 88.4919 76.3346 88.6852 76.7506C88.9314 77.2802 89.2488 78.0914 89.5632 78.901C89.885 79.7298 90.2109 80.5748 90.4909 81.2272C90.8458 82.0541 91.2314 82.9651 91.5085 83.8473C92.1317 85.8319 92.6852 87.4538 93.1677 88.7741C93.5547 89.8334 93.8679 90.9359 94.0895 91.7467C94.3427 92.6728 94.6781 93.929 94.8346 94.7711C94.9587 95.4386 95.1569 96.2695 95.237 97.2057C95.2933 97.8639 95.3941 98.4799 95.4938 99.0661C95.5898 99.6305 95.6939 100.213 95.7292 100.722C95.7418 100.904 95.7721 101.088 95.8161 101.313C95.8573 101.524 95.917 101.799 95.9596 102.082C96.0513 102.688 96.08 103.392 95.8737 104.297C95.8096 104.577 95.6927 104.837 95.4938 105.055C95.3223 105.244 95.1092 105.364 95.0973 105.372C94.5274 105.735 93.7066 106.294 92.7956 106.621C91.2274 107.183 90.3593 107.487 89.5319 107.799C88.1216 108.332 86.4189 108.909 85.572 109.146C84.3288 109.495 83.4981 109.743 82.7331 109.945C82.113 110.109 81.4132 110.325 80.735 110.535C80.0771 110.738 79.4158 110.941 78.9284 111.052C78.4663 111.158 77.6433 111.39 76.6804 111.647C75.7503 111.895 74.7078 112.161 73.8981 112.298C72.9558 112.459 72.1973 112.67 71.4772 112.869C70.9189 113.023 69.6875 113.463 68.5661 113.591C68.1452 113.64 67.757 113.703 67.3307 113.773C66.9086 113.842 66.4521 113.918 65.9274 113.981C63.541 114.269 62.6631 114.425 61.8161 114.537C61.4082 114.591 60.9173 114.632 60.4391 114.675C59.9478 114.72 59.4485 114.769 58.9723 114.84C58.4865 114.912 58.0333 114.951 57.6296 114.993C57.2172 115.035 56.8284 115.082 56.402 115.169C55.4246 115.367 54.5804 115.62 53.7692 115.82C52.7335 116.075 51.435 116.39 50.5925 116.571C50.1044 116.676 49.6229 116.726 49.1911 116.778C48.7465 116.831 48.3108 116.889 47.822 117.006C47.0987 117.178 46.4396 117.365 45.8776 117.523C45.3438 117.674 44.8344 117.819 44.485 117.881C43.9411 117.976 43.4223 117.612 43.3268 117.068C43.2314 116.524 43.5954 116.005 44.1393 115.91C44.3624 115.871 44.7461 115.763 45.3346 115.597C45.8953 115.439 46.5893 115.245 47.3561 115.061C47.9621 114.916 48.4923 114.847 48.9548 114.792C49.43 114.735 49.798 114.696 50.1725 114.616C50.9809 114.442 52.2506 114.134 53.2907 113.878C53.9773 113.708 54.9812 113.416 56.0036 113.209C56.5263 113.103 56.9917 113.048 57.4245 113.004C57.8661 112.958 58.2502 112.924 58.6784 112.861C59.2155 112.781 59.7643 112.728 60.2585 112.683C60.766 112.637 61.199 112.601 61.5544 112.554C62.308 112.455 63.31 112.281 65.6872 111.995C66.1641 111.937 66.5821 111.869 67.0075 111.799C67.4288 111.73 67.8623 111.659 68.3386 111.604C69.2548 111.499 70.1482 111.161 70.945 110.941C71.6601 110.744 72.5091 110.506 73.5632 110.327C74.2706 110.206 75.2304 109.964 76.1657 109.715C77.0683 109.474 77.9747 109.218 78.4841 109.102C78.8814 109.012 79.4612 108.836 80.1452 108.625C80.8091 108.42 81.5533 108.188 82.2223 108.011C82.9713 107.814 83.7408 107.582 85.0319 107.22C85.7989 107.005 87.4405 106.451 88.8249 105.928C89.6734 105.608 90.575 105.293 92.1208 104.739C92.7453 104.515 93.324 104.131 93.9479 103.732C94.0599 103.177 94.0399 102.763 93.9821 102.381C93.9481 102.155 93.904 101.956 93.8532 101.697C93.8053 101.452 93.7555 101.17 93.7341 100.861C93.7073 100.475 93.6259 100.011 93.5221 99.401C93.422 98.8122 93.3078 98.1243 93.2438 97.3756C93.175 96.5705 93.0157 95.9266 92.8688 95.1364C92.7303 94.3913 92.4183 93.2188 92.1598 92.2731C91.941 91.4723 91.6467 90.4375 91.2897 89.4606C90.7955 88.108 90.2316 86.4565 89.6003 84.4459C89.3579 83.6741 89.0117 82.8521 88.653 82.0163C88.3556 81.3234 88.0145 80.4374 87.6989 79.6247C87.3757 78.7925 87.0845 78.051 86.8718 77.5934C86.6567 77.1307 86.4498 76.6272 86.2311 76.0993C86.0099 75.5652 85.7705 74.9916 85.4821 74.3571C84.882 73.037 84.356 72.2493 83.9059 71.4254C83.4109 70.5191 82.9451 69.7363 82.3434 68.6862C81.8844 67.8851 81.5431 67.414 81.0866 66.861C80.4718 66.1162 80.1025 65.6102 79.6169 65.0573L79.5983 65.0358L79.5807 65.0124C79.5009 64.9101 79.4261 64.8022 79.3757 64.7301C79.3197 64.6502 79.2735 64.586 79.2214 64.5221C79.1087 64.3839 78.9506 64.224 78.6276 63.901C78.2371 63.5105 78.2371 62.8775 78.6276 62.487Z" fill="black"/>
<path d="M72.388 58.4059C73.0909 58.4319 73.5636 58.4474 74.0853 58.5456C74.5609 58.6351 75.0528 58.7686 75.5257 58.9196C76.0208 59.0777 76.5389 59.3484 76.9359 59.611C77.45 59.9512 77.943 60.3004 78.4749 60.8327C78.8284 61.1865 79.0707 61.4613 79.2533 61.6755C79.4539 61.9109 79.5225 61.9971 79.597 62.069C79.7736 62.2396 79.9222 62.4223 80.0355 62.5876C80.1071 62.6921 80.1962 62.8357 80.263 62.9938L80.3216 63.1569L80.3441 63.2565C80.4327 63.7555 80.131 64.2506 79.6331 64.3923C79.4341 64.4489 79.232 64.4404 79.0491 64.3806C79.0425 64.4048 79.0359 64.4289 79.0296 64.4509C79.0095 64.5211 78.9757 64.6383 78.9124 64.7634L78.8773 64.8317L78.8333 64.8942C78.6528 65.1464 78.4259 65.3268 78.2669 65.446L78.2503 65.4587L78.2327 65.4714C77.9268 65.6813 77.6011 65.8861 77.2152 66.0739C76.8399 66.2565 76.3743 66.4362 75.9593 66.5886C75.4921 66.7601 74.8065 66.9168 74.5531 66.9899C74.1606 67.1031 72.9759 67.4451 71.9935 67.6589C70.7885 67.9211 69.6973 68.0777 69.4417 68.1286C69.2821 68.1605 68.5906 68.4693 67.1273 68.5681C66.5252 68.6087 65.6547 68.6901 64.9759 68.7106C64.6374 68.7208 64.2758 68.7198 63.9749 68.6764C63.8314 68.6558 63.6274 68.6156 63.43 68.5202C63.2469 68.4317 62.8511 68.1825 62.7718 67.655C62.7025 67.1927 62.7714 66.6824 62.8353 66.2829C62.9159 65.7786 63.1735 64.7823 63.3343 64.195C63.4699 63.6998 63.6373 63.1675 64.0628 62.4968C64.3555 62.0354 64.6929 61.5336 65.3226 61.0065C65.7089 60.6832 66.2494 60.2463 66.9544 59.9763C67.5523 59.7473 68.1252 59.4749 68.7171 59.2292C68.8898 59.1575 69.0225 59.0825 69.2044 58.9821C69.3771 58.8868 69.6123 58.7586 69.9027 58.6647C70.6425 58.4255 71.6639 58.3792 72.388 58.4059ZM72.3138 60.405C71.6637 60.381 70.922 60.4364 70.5179 60.5671C70.4282 60.5961 70.3415 60.6391 70.1712 60.7331C70.01 60.8221 69.7776 60.9549 69.4837 61.0768C69.0377 61.262 68.2756 61.6126 67.6702 61.8444C67.3006 61.986 66.9781 62.229 66.6068 62.5397C66.213 62.8692 66.0061 63.1665 65.7513 63.5681C65.4769 64.0007 65.3736 64.3193 65.263 64.7233C65.0969 65.3301 64.8714 66.2199 64.8109 66.5983C64.8046 66.6376 64.7996 66.6757 64.7943 66.7116C64.8328 66.7109 64.8733 66.7129 64.9154 66.7116C65.5482 66.6925 66.299 66.6197 66.9925 66.5729C68.361 66.4806 68.3295 66.3104 69.0511 66.1667C69.5978 66.0578 70.267 65.9869 71.5677 65.7038C72.4748 65.5064 73.5973 65.1837 73.9984 65.0681C74.4893 64.9264 74.8705 64.8582 75.2699 64.7116C75.6766 64.5623 76.0618 64.4106 76.3402 64.2751C76.6017 64.1478 76.8343 64.0038 77.0872 63.8307C77.1069 63.8157 77.1224 63.8007 77.137 63.7888C77.149 63.7454 77.1643 63.6933 77.182 63.6315C77.2673 63.3324 77.4799 63.1033 77.7445 62.988C77.74 62.9827 77.7352 62.9776 77.7308 62.9723C77.5713 62.7852 77.3665 62.5517 77.0609 62.2458C76.6694 61.854 76.3054 61.592 75.8324 61.279C75.5504 61.0924 75.1982 60.9146 74.9173 60.8249C74.4972 60.6908 74.0877 60.5815 73.7152 60.5114C73.3685 60.4462 73.0542 60.4323 72.3138 60.405Z" fill="black"/>
<path d="M70.9305 67.1839C71.4457 66.9857 72.024 67.2429 72.2225 67.7581C72.3035 67.9684 72.3595 68.1042 72.4031 68.2102L72.5272 68.5335L72.5369 68.5628L72.5447 68.593C72.6347 68.9355 72.7058 69.2927 72.7703 69.6155C72.8432 69.9028 72.9432 70.1941 73.0604 70.5403C73.1742 70.8765 73.3042 71.2621 73.3983 71.6663C73.5055 72.1273 73.5544 72.5828 73.6024 72.9632C73.6524 73.36 73.7052 73.718 73.8104 74.095C73.8972 74.4062 74.0223 74.7375 74.1678 75.1194C74.3056 75.4811 74.4651 75.8975 74.574 76.303C74.6489 76.5815 74.6706 76.8493 74.6805 77.0745C74.6854 77.1874 74.6879 77.3042 74.6902 77.4094C74.6927 77.5186 74.695 77.6229 74.7 77.7307C74.719 78.1423 74.7736 78.6208 75.0037 79.2493C75.1907 79.7603 75.3447 80.7659 75.4324 81.7952C75.5233 82.8608 75.5566 84.1096 75.4481 85.1594C75.4012 85.6125 75.3229 86.0832 75.2459 86.5208C75.1667 86.9712 75.0912 87.3774 75.0369 87.7532C74.9331 88.4727 74.8283 89.5363 74.5428 90.2971C74.2648 91.0378 73.8791 91.7709 73.4344 92.6604C73.291 92.9471 73.1655 93.2232 73.0291 93.5198C72.8948 93.8119 72.7512 94.1214 72.5838 94.4466C72.3114 94.9754 71.8586 95.9439 71.3729 96.6194C71.0119 97.1214 70.6694 97.6803 70.3514 98.2493C70.0054 98.8682 69.6063 99.4838 69.076 100.19C68.8062 100.549 68.5265 100.887 68.2811 101.187C68.0285 101.495 67.8146 101.76 67.6395 102.009C67.1442 102.712 66.5004 103.393 65.8797 103.974C65.3813 104.441 64.7476 105.073 64.1092 105.497C63.4765 105.918 62.7162 106.225 62.1668 106.493C61.4973 106.82 60.7787 107.223 59.8455 107.447C59.4842 107.533 59.129 107.635 58.7733 107.741C58.4265 107.845 58.0618 107.957 57.7234 108.048C57.0223 108.236 56.3455 108.417 55.7381 108.599C55.4234 108.693 55.1311 108.801 54.7567 108.929C54.3984 109.051 53.9969 109.18 53.5496 109.278C52.7398 109.455 52.2116 109.523 51.532 109.694C51.2201 109.772 50.8923 109.876 50.4988 109.992C50.1284 110.102 49.7089 110.219 49.3016 110.285C48.6129 110.398 46.7937 110.535 45.9109 110.535C45.3587 110.535 44.911 110.088 44.9109 109.535C44.9109 108.983 45.3587 108.535 45.9109 108.535C46.7051 108.535 48.4141 108.404 48.9783 108.312C49.2522 108.267 49.5685 108.182 49.9324 108.074C50.2735 107.974 50.68 107.846 51.0457 107.754C51.7066 107.588 52.5432 107.451 53.1219 107.324C53.4592 107.25 53.7767 107.15 54.1102 107.036C54.4275 106.928 54.8011 106.792 55.1639 106.683C55.8055 106.491 56.5156 106.303 57.2049 106.117C57.5078 106.036 57.8287 105.937 58.201 105.825C58.564 105.717 58.9619 105.601 59.3787 105.501C60.0401 105.343 60.5037 105.079 61.2889 104.696C62.0356 104.331 62.5151 104.155 63.0018 103.831C63.4612 103.526 63.9278 103.062 64.5135 102.514C65.0811 101.982 65.6169 101.407 66.0037 100.858C66.2267 100.541 66.4854 100.223 66.7332 99.9202C66.9882 99.6088 67.2372 99.3069 67.4764 98.9886C67.9576 98.348 68.3067 97.8078 68.6053 97.2737C68.9474 96.6616 69.3304 96.0344 69.7488 95.4524C70.1204 94.9358 70.4668 94.1892 70.8055 93.5315C70.9506 93.2497 71.0776 92.9755 71.2117 92.6839C71.3438 92.3966 71.4852 92.0881 71.6463 91.7659C72.1229 90.8126 72.4401 90.2085 72.6707 89.594C72.8562 89.0994 72.9258 88.3796 73.0574 87.468C73.1175 87.0521 73.2022 86.596 73.2762 86.1751C73.3525 85.7412 73.4199 85.3301 73.4588 84.9534C73.5495 84.0753 73.5244 82.9635 73.4393 81.9651C73.3511 80.9308 73.2108 80.1692 73.1258 79.9368C72.8079 79.0685 72.7277 78.3789 72.702 77.8235C72.6958 77.6896 72.6927 77.5639 72.6902 77.4544C72.6877 77.3411 72.6862 77.2491 72.6824 77.1624C72.6748 76.9883 72.6609 76.8905 72.6424 76.8216C72.5646 76.5321 72.4441 76.2132 72.2986 75.8313C72.1609 75.4697 71.9998 75.0486 71.8836 74.6321C71.7369 74.1062 71.6701 73.6266 71.618 73.2132C71.5638 72.7834 71.528 72.4545 71.45 72.1194C71.3811 71.8233 71.2818 71.5245 71.1658 71.1819C71.0549 70.8541 70.9248 70.4752 70.8279 70.0891L70.8221 70.0657L70.8172 70.0423C70.7515 69.7137 70.69 69.4155 70.619 69.1389C70.6073 69.1066 70.5913 69.0628 70.5535 68.971C70.5083 68.8611 70.4455 68.7085 70.3563 68.4768C70.1578 67.9615 70.4152 67.3824 70.9305 67.1839Z" fill="black"/>
<path d="M48.7864 52.4758C50.011 52.5046 51.1372 52.588 51.929 52.7736C53.4148 53.1219 55.4577 53.648 56.1731 53.9377C56.518 54.0774 57.2544 54.3499 57.8919 54.6174C58.5566 54.8963 59.3119 55.2468 59.8899 55.6506C60.5133 56.086 61.2124 56.7315 61.9075 57.3449C62.1267 57.5383 62.3772 57.7271 62.6565 57.9289C62.9223 58.121 63.2351 58.3399 63.5149 58.5559L63.5169 58.5568C63.9145 58.8649 64.4994 59.2678 65.0921 59.7678L65.346 59.9885L65.3675 60.007L65.7278 60.3674C66.1184 60.7579 66.1184 61.3919 65.7278 61.7824C65.3373 62.1725 64.7042 62.1727 64.3138 61.7824C64.2149 61.6836 64.1187 61.5874 63.9915 61.4602C63.3895 60.9257 62.8805 60.5937 62.2933 60.1389C62.0466 59.9485 61.7875 59.7688 61.4847 59.55C61.1951 59.3407 60.8797 59.1056 60.5843 58.8449C59.8196 58.1702 59.2464 57.6409 58.7444 57.2902C58.351 57.0154 57.7622 56.7322 57.1185 56.4621C56.4474 56.1805 55.9094 55.9886 55.4222 55.7912C54.8812 55.5723 53.0094 55.0813 51.472 54.7209C50.8953 54.5858 49.9462 54.5041 48.7395 54.4758C47.5527 54.4479 46.1817 54.4726 44.7962 54.5285C41.4064 54.6653 40.2559 54.8855 39.4104 54.9494C38.7109 55.0023 38.0515 55.0333 37.2083 55.2443C36.0844 55.5257 34.8049 55.8335 33.9388 56.2199C33.0855 56.6006 32.1806 56.9645 31.4251 57.3254C30.4676 57.7829 29.3249 58.5443 27.9427 59.4738C25.8883 60.8554 25.2411 61.3258 24.763 61.6877C24.4666 61.9121 24.2048 62.1615 23.8343 62.507C23.4719 62.845 23.0389 63.2418 22.4524 63.6955C22.0762 63.9866 21.7491 64.2426 21.4768 64.4934C21.2021 64.7464 21.0321 64.9506 20.9388 65.1174C20.5158 65.8741 20.0719 66.2069 19.6976 67.6565C19.4663 68.5522 19.2709 69.4002 19.1067 70.3801C18.9364 71.3972 18.7662 72.4075 18.6018 73.4943C18.4676 74.3825 18.4316 74.9803 18.2845 76.175C18.1467 77.2934 17.9107 77.8869 18.0188 79.2746C18.114 80.4959 18.0728 80.9902 18.219 82.3039C18.2813 82.8631 18.3307 83.6143 18.3831 84.3576C18.4367 85.1174 18.4938 85.8836 18.5726 86.5207C18.671 87.3177 18.82 88.0404 19.0481 88.5979C19.3208 89.2641 19.7134 90.2438 20.2864 91.3899C20.6099 92.0368 20.8908 92.6106 21.1936 93.257C21.5793 94.0804 21.8674 94.7171 22.1409 95.2024C22.4074 95.675 22.7826 96.2032 23.2561 96.7424C23.7601 97.3162 24.2172 97.8732 24.6321 98.4777C25.0636 99.1065 25.2103 99.5691 26.2493 100.446C27.3 101.334 28.5889 102.251 29.4114 102.859C30.2116 103.45 31.1521 104.016 31.9251 104.446C32.3323 104.672 32.6796 104.89 32.9866 105.083C33.2997 105.28 33.5604 105.445 33.8313 105.593C34.516 105.968 35.4433 106.419 36.4241 106.889C37.3445 107.33 37.8082 107.549 38.305 107.632C39.2927 107.798 40.6934 108 41.8108 108.133C42.4873 108.213 43.3524 108.271 44.0989 108.313C44.7912 108.352 45.4744 108.381 45.6536 108.404C46.2017 108.472 46.591 108.972 46.5227 109.52C46.4543 110.068 45.9545 110.456 45.4065 110.388C45.4031 110.388 45.3692 110.384 45.2845 110.379C45.2023 110.374 45.0947 110.368 44.9642 110.362C44.7057 110.348 44.3633 110.331 43.9866 110.31C43.2367 110.267 42.3175 110.207 41.5745 110.118C40.425 109.982 38.9931 109.776 37.9739 109.605C37.1394 109.465 36.3974 109.094 35.5589 108.692C34.5861 108.225 33.6099 107.752 32.8704 107.347C32.5361 107.164 32.2218 106.965 31.9212 106.776C31.6144 106.582 31.3079 106.392 30.9534 106.195C30.1417 105.744 29.1189 105.129 28.222 104.466C27.4461 103.892 26.0746 102.917 24.9593 101.975C23.6522 100.871 23.2952 100.065 22.9827 99.6096C22.6308 99.0969 22.2318 98.6065 21.7542 98.0627C21.2039 97.4361 20.7423 96.7961 20.3977 96.1848C20.0761 95.6141 19.7425 94.874 19.3821 94.1047C19.089 93.4791 18.8162 92.9222 18.4974 92.2844C17.8858 91.0612 17.466 90.0142 17.1966 89.3557C16.8693 88.5559 16.6948 87.6283 16.5882 86.7658C16.5021 86.069 16.4412 85.2525 16.388 84.4982C16.3337 83.728 16.2872 83.0321 16.2308 82.5246C16.088 81.2416 16.098 80.3708 16.0247 79.4299C15.8959 77.7757 16.1994 76.7399 16.2991 75.9299C16.4299 74.8676 16.4876 74.1 16.6243 73.1955C16.7915 72.0899 16.9644 71.0631 17.1341 70.05C17.3106 68.9961 17.5203 68.0889 17.761 67.1565C18.2212 65.3747 18.9711 64.5382 19.1927 64.1418C19.4348 63.7086 19.7801 63.338 20.1224 63.0227C20.4673 62.705 20.8605 62.3984 21.2288 62.1135C21.7419 61.7165 22.1217 61.369 22.47 61.0441C22.8102 60.7268 23.1577 60.3938 23.555 60.093C24.0781 59.6969 24.7621 59.2029 26.8265 57.8147C28.168 56.9125 29.4444 56.055 30.5628 55.5207C31.333 55.1527 32.385 54.7236 33.1243 54.3938C34.1903 53.9182 35.6806 53.5646 36.722 53.3039C37.7629 53.0433 38.6047 53.0049 39.2601 52.9553C39.9092 52.9061 41.314 52.6677 44.7151 52.5305C46.125 52.4736 47.5421 52.4466 48.7864 52.4758Z" fill="black"/>
</svg>
