<svg width="272" height="179" viewBox="0 0 272 179" fill="none" xmlns="http://www.w3.org/2000/svg">
<path d="M69.2517 3.26758C70.1035 3.20682 71.4453 3.12449 73.0428 3.16504H73.0594L73.076 3.16699C73.3655 3.18713 73.6509 3.22053 73.8943 3.32519C74.0902 3.4094 74.2249 3.52687 74.3269 3.64453C74.6644 3.75608 75.0683 3.89576 75.3943 4.00488C76.0357 4.21959 76.6276 4.47308 77.2928 4.80469C77.8348 5.07495 78.2486 5.28762 78.6062 5.47168C78.9649 5.65625 79.2621 5.80985 79.5779 5.96777C80.2409 6.29929 80.7616 6.66931 81.2224 6.97656C81.8879 7.42028 82.5795 8.14893 83.0027 8.75C83.2099 9.04432 83.4539 9.33637 83.7097 9.63574C83.9552 9.92296 84.2253 10.2324 84.4373 10.5225C84.8029 11.0228 85.3138 11.6237 85.7566 12.3613C86.1228 12.9713 86.4172 13.4633 86.7185 13.9648C87.0823 14.5704 87.3552 15.218 87.7342 16.1768C88.0098 16.8741 88.3268 17.5245 88.5193 18.1885C88.6981 18.8054 88.9368 19.6379 89.1717 20.3447C89.3212 20.7948 89.3633 21.3061 89.3875 21.7793C89.4134 22.2869 89.4194 22.7621 89.4676 23.2939C89.5886 24.6291 89.5457 25.544 89.4256 26.249C89.307 26.9448 89.1089 27.4328 88.9949 27.7842C88.75 28.5391 88.4464 29.4507 88.1121 30.2471C87.967 30.5928 87.798 30.9504 87.6394 31.2959C87.4777 31.6481 87.3202 32.001 87.1785 32.3691C86.9391 32.9912 86.7103 33.5695 86.3836 34.3066C85.8612 35.4849 85.3275 36.1493 84.7625 36.7998C84.232 37.4106 83.3447 38.2188 82.7537 38.791C82.0222 39.4992 81.1553 40.2034 80.5486 40.6426C80.2325 40.8714 79.8992 41.0318 79.5984 41.165C79.2764 41.3076 79.022 41.4076 78.742 41.5479C78.3316 41.7534 77.8759 41.913 77.49 42.0449C77.0768 42.1862 76.7667 42.2889 76.5467 42.3945C75.923 42.6939 75.2852 42.9029 74.4978 43.0732C74.2036 43.1369 73.908 43.2271 73.5906 43.3301C73.2837 43.4296 72.9395 43.5467 72.6004 43.6426C71.832 43.8598 70.6699 43.9708 67.5525 44.0322C66.0155 44.0625 65.024 43.6931 64.1707 43.4414C63.4125 43.2178 62.5161 42.9381 61.5554 42.6367C60.9421 42.4443 60.2932 42.1341 59.701 41.8496C59.0851 41.5538 58.524 41.2831 58.0105 41.1084C56.8643 40.7184 55.3951 39.6951 54.7693 39.2451C54.4766 39.0346 54.167 38.8261 53.8367 38.6016C53.511 38.3801 53.1695 38.1454 52.8338 37.8936C52.1284 37.3645 51.6993 36.7508 51.2517 36.0605C50.5135 34.922 50.1385 34.2706 49.7644 33.7393C49.2962 33.0742 48.8632 32.3357 48.5291 31.6875C48.31 31.2625 48.1552 30.8463 48.0144 30.4336C47.8696 30.009 47.7472 29.6119 47.572 29.1436C47.3572 28.569 47.2831 27.8711 47.2429 27.209C47.2224 26.8699 47.2095 26.5156 47.1961 26.1719C47.1825 25.8242 47.1683 25.4825 47.1443 25.1494C47.0459 23.7803 47.0006 21.1924 47.1443 19.501C47.2427 18.3445 47.7658 17.2624 48.0877 16.3828C48.3418 15.6883 48.5376 15.0089 48.8875 14.332C49.2991 13.5358 49.5625 12.88 49.9812 12.0234C50.3641 11.2403 51.0677 10.4667 51.3806 10.0547C51.7813 9.52716 52.6388 8.75083 53.2947 8.19336C54.1187 7.4931 55.3082 6.8029 55.7371 6.50586C56.2979 6.11736 56.9396 5.79235 57.6082 5.56836C58.1791 5.37711 58.8659 5.12187 59.6033 4.93262C60.3296 4.74623 61.015 4.54388 61.95 4.41504C62.8302 4.29375 63.584 4.14279 64.5291 3.97851C65.2725 3.84929 66.0771 3.73352 66.867 3.63281C67.6001 3.53934 68.4639 3.41516 69.1619 3.2793L69.2068 3.27051L69.2517 3.26758ZM72.7224 4.65918C71.3427 4.63643 70.1787 4.70539 69.3972 4.76074C68.6607 4.90203 67.7824 5.02755 67.0564 5.12012C66.2814 5.21893 65.5006 5.33183 64.7859 5.45605C63.8847 5.6127 63.0698 5.77434 62.1551 5.90039C61.328 6.01435 60.7503 6.18712 59.9763 6.38574C59.3086 6.5571 58.7173 6.7793 58.0847 6.99121C57.5514 7.16988 57.0368 7.42986 56.5916 7.73828C55.9757 8.16493 55.0268 8.68982 54.2654 9.33691C53.592 9.90929 52.8614 10.5848 52.575 10.9619C52.1247 11.5548 51.6261 12.0737 51.3289 12.6816C50.9844 13.3863 50.618 14.2497 50.2195 15.0205C49.9276 15.5852 49.7984 16.0744 49.4969 16.8984C49.0988 17.9862 48.7142 18.7371 48.6385 19.6279C48.5033 21.2191 48.5457 23.725 48.6404 25.042C48.6663 25.4023 48.6815 25.7663 48.6951 26.1143C48.7088 26.4662 48.7207 26.7996 48.74 27.1182C48.7796 27.771 48.8468 28.2715 48.9763 28.6182C49.1612 29.1125 49.3054 29.5721 49.4344 29.9502C49.5673 30.3401 49.6937 30.6743 49.8621 31.001C50.1698 31.5979 50.5685 32.2748 50.991 32.875C51.3802 33.4278 51.8324 34.1983 52.5105 35.2441C52.9451 35.9143 53.2542 36.334 53.7332 36.6934C54.0391 36.9228 54.3566 37.1411 54.6804 37.3613C54.9998 37.5785 55.331 37.8021 55.6443 38.0273C56.3025 38.5007 57.5943 39.3814 58.4939 39.6875C59.111 39.8974 59.7615 40.2152 60.3504 40.498C60.9624 40.792 61.5119 41.0507 62.0037 41.2051C62.966 41.507 63.8513 41.7834 64.5955 42.0029C65.5066 42.2717 66.2621 42.557 67.5222 42.5322C70.684 42.4699 71.6438 42.3543 72.1922 42.1992C72.4947 42.1136 72.79 42.0129 73.1277 41.9033C73.4548 41.7972 73.8099 41.6868 74.1814 41.6064C74.8772 41.4559 75.3992 41.2811 75.8972 41.042C76.2192 40.8874 76.6423 40.7502 77.0056 40.626C77.3964 40.4924 77.7616 40.3606 78.0701 40.2061C78.3911 40.0452 78.7375 39.9062 78.991 39.7939C79.2655 39.6724 79.4828 39.5622 79.6687 39.4277C80.2243 39.0256 81.0359 38.3662 81.7107 37.7129C82.3674 37.0771 83.1558 36.3619 83.6297 35.8164C84.1452 35.2228 84.5745 34.6871 85.0125 33.6992C85.325 32.9942 85.5431 32.4418 85.7781 31.8311C85.9374 31.417 86.1118 31.029 86.2761 30.6709C86.4436 30.306 86.5957 29.9828 86.7283 29.667C87.0357 28.9347 87.3232 28.0766 87.5681 27.3213C87.7144 26.8703 87.8526 26.5513 87.947 25.9971C88.0399 25.452 88.0871 24.6726 87.9744 23.4297C87.9229 22.8614 87.9117 22.2907 87.8894 21.8555C87.8654 21.3855 87.8271 21.056 87.7478 20.8174C87.5019 20.077 87.2547 19.2132 87.0789 18.6064C86.9108 18.0264 86.679 17.5872 86.3396 16.7285C85.959 15.7656 85.7259 15.2243 85.4334 14.7373C85.1325 14.2364 84.8352 13.7413 84.4705 13.1338C84.0719 12.4699 83.6816 12.0312 83.2263 11.4082C83.0568 11.1762 82.8345 10.9208 82.5691 10.6104C82.3141 10.3119 82.0283 9.97236 81.7761 9.61426C81.4362 9.13135 80.8712 8.54526 80.3904 8.22461C79.8885 7.88997 79.4647 7.58842 78.907 7.30957C78.5813 7.14673 78.2743 6.98767 77.9207 6.80566C77.5657 6.62298 77.1579 6.41375 76.6238 6.14746C76.0066 5.83973 75.4797 5.61484 74.9178 5.42676C74.5364 5.2991 74.1621 5.16854 73.8094 5.05273C73.6383 4.99657 73.487 4.94917 73.3631 4.91406C73.3014 4.89659 73.2504 4.88249 73.2097 4.87305C73.1899 4.86844 73.174 4.86559 73.1619 4.86328C73.1559 4.86214 73.1506 4.86089 73.1472 4.86035C73.1457 4.8601 73.1442 4.86047 73.1433 4.86035L73.1424 4.85937C72.9778 4.83888 72.8344 4.76491 72.7224 4.65918Z" fill="black"/>
<path d="M81.1689 7.56341e-07C81.583 0.000157396 81.9189 0.335884 81.9189 0.750001C81.9189 1.16412 81.583 1.49984 81.1689 1.5C80.5868 1.5 80.0574 1.50063 79.7246 1.51953C79.3518 1.54073 79.3656 1.56422 79.0351 1.59668L79.0156 1.59863C78.6299 1.62646 78.2517 1.6829 77.8291 1.74902C77.4131 1.8141 76.955 1.88805 76.4502 1.9375C76.2288 1.95918 76.0138 1.97253 75.8144 1.98438C75.611 1.99646 75.4263 2.00716 75.2431 2.02344C74.8811 2.05563 74.5595 2.10812 74.2431 2.21973C73.5515 2.46368 72.9477 2.66926 72.3925 2.87598C72.074 2.9946 71.5668 3.22684 71.0351 3.47363C70.5272 3.70941 69.9899 3.96188 69.667 4.09082C69.2824 4.24434 68.846 4.05731 68.6923 3.67285C68.5388 3.28827 68.7258 2.85193 69.1103 2.69824C69.3835 2.58919 69.8654 2.36199 70.4033 2.11231C70.9176 1.87359 71.4839 1.61418 71.8691 1.4707C72.4405 1.25797 73.0727 1.04153 73.7441 0.804688C74.226 0.634721 74.6857 0.567052 75.1103 0.529298C75.3202 0.510639 75.53 0.498929 75.7256 0.487305C75.9254 0.475426 76.115 0.462916 76.3047 0.444337C76.7584 0.399871 77.1718 0.334196 77.5976 0.267579C78.0111 0.202892 78.4398 0.137833 78.8886 0.104493V0.103516C78.9625 0.0961971 79.2933 0.0411524 79.6386 0.0214851C80.0246 -0.000461716 80.6069 7.56341e-07 81.1689 7.56341e-07Z" fill="black"/>
<path d="M83.572 2.52417C83.9862 2.52417 84.322 2.85996 84.322 3.27417C84.322 3.68838 83.9862 4.02417 83.572 4.02417C82.747 4.02417 81.9725 4.02406 81.4929 4.0437C80.9754 4.06491 80.9278 4.09526 80.5349 4.1228H80.5271L80.5203 4.12378C79.3835 4.18121 78.6489 4.33812 77.9031 4.57202C77.4326 4.71959 76.9451 4.88948 76.5242 5.03394C76.3172 5.10496 76.1234 5.17157 75.9617 5.22241C75.8177 5.26767 75.6434 5.31875 75.5037 5.33862C75.0936 5.39689 74.7143 5.11196 74.656 4.7019C74.5977 4.29185 74.8827 3.91258 75.2927 3.85425C75.295 3.85374 75.356 3.83966 75.5115 3.79077C75.6525 3.74642 75.8304 3.68716 76.0378 3.61597C76.446 3.47589 76.9597 3.29568 77.4548 3.14038C78.3159 2.87035 79.172 2.69129 80.4304 2.62671C80.6036 2.61452 80.9523 2.5653 81.4314 2.54565C81.9495 2.52443 82.7622 2.52417 83.572 2.52417Z" fill="black"/>
<path d="M79.5816 11.1023C79.9915 11.0442 80.3709 11.3291 80.4292 11.739C80.4875 12.149 80.2025 12.5283 79.7925 12.5867C79.8109 12.5841 79.8047 12.5839 79.7671 12.5955C79.7345 12.6055 79.691 12.6209 79.6401 12.6414C79.5363 12.6833 79.4236 12.7379 79.3296 12.7957C79.0566 12.9634 78.911 13.0767 78.5796 13.2888C78.4542 13.3691 78.3257 13.4637 78.1646 13.5828C78.0088 13.6979 77.8276 13.8327 77.6226 13.9695C77.438 14.0926 77.335 14.2239 77.0894 14.5047C76.8942 14.7822 76.7693 15.0096 76.686 15.2283L76.6802 15.242L76.6753 15.2556C76.6593 15.2933 76.6432 15.3254 76.6314 15.3494C76.6166 15.3792 76.6115 15.3893 76.5982 15.4168C76.5772 15.4597 76.5464 15.5253 76.4995 15.6375C76.3398 16.0196 75.9002 16.2004 75.5181 16.0408C75.1359 15.8811 74.955 15.4415 75.1148 15.0593C75.1729 14.9203 75.2157 14.8288 75.2495 14.7595C75.2633 14.7313 75.2816 14.6955 75.2866 14.6853C75.2927 14.673 75.2941 14.6685 75.2944 14.6677H75.2954C75.4391 14.2988 75.6373 13.958 75.8853 13.6092L75.9077 13.5779L75.9331 13.5486C76.1241 13.3313 76.3892 12.9885 76.7896 12.7215C76.9601 12.6077 77.114 12.4939 77.2739 12.3758C77.4283 12.2617 77.5967 12.1378 77.771 12.0261C77.9615 11.9042 78.3042 11.665 78.5444 11.5174C78.7222 11.4081 78.9119 11.317 79.0786 11.2498C79.2314 11.1881 79.4183 11.1255 79.5816 11.1023Z" fill="black"/>
<path d="M80.9532 15.3877C81.3456 15.2575 81.7692 15.4696 81.9005 15.8613C81.9462 15.8763 82.0077 15.8983 82.0665 15.9277C82.1676 15.9785 82.355 16.0945 82.4698 16.3232L82.5138 16.4287L82.5772 16.6475C82.6937 17.132 82.6985 17.7514 82.6114 18.3242C82.6217 18.3737 82.628 18.425 82.628 18.4775C82.628 18.6528 82.6185 18.8235 82.5157 19.1943C82.4952 19.2682 82.4691 19.3511 82.4415 19.4404C82.4377 19.4716 82.4344 19.5022 82.4307 19.5322C82.3989 19.7915 82.3624 20.0819 82.254 20.3643C82.1764 20.5665 82.0741 20.8287 81.9405 21.0781C81.808 21.3254 81.6194 21.6096 81.3409 21.8301C81.3338 21.8357 81.3258 21.8409 81.3184 21.8467C81.3102 21.8589 81.3032 21.8718 81.295 21.8838C81.0756 22.2028 80.7722 22.5546 80.3165 22.6826C80.2231 22.7088 80.0562 22.7435 79.8614 22.7061C79.7323 22.6812 79.602 22.6255 79.4874 22.5361C79.4157 22.5318 79.3419 22.5255 79.2667 22.5137C79.1884 22.5013 78.9028 22.4601 78.6759 22.2217C78.4415 21.9751 78.407 21.6724 78.4054 21.4834C78.3953 20.2763 78.4592 19.868 78.4923 19.4853C78.5218 19.1439 78.563 18.6249 78.7618 18.1738C78.891 17.8809 79.0854 17.3787 79.3419 17.0244C79.4033 16.9395 79.4381 16.8576 79.5391 16.6533C79.6251 16.4796 79.7613 16.2183 80.0059 15.9941C80.3176 15.7086 80.6978 15.4724 80.9532 15.3877Z" fill="black"/>
<path d="M68.9435 29.5144C69.2992 29.3026 69.7597 29.4195 69.9718 29.7751C69.9495 29.7377 69.9333 29.7203 69.9435 29.7322C69.9498 29.7395 69.9634 29.7547 69.9864 29.7781C70.0325 29.8248 70.0986 29.8877 70.1827 29.9626C70.2563 30.0282 70.3643 30.1052 71.0831 30.4031C71.2804 30.4848 71.417 30.534 71.5607 30.5886C71.7015 30.6421 71.8496 30.7018 72.0128 30.7927C72.0814 30.8309 72.1587 30.8627 72.2931 30.9079C72.4129 30.9483 72.6237 31.0132 72.8448 31.0925C73.624 31.372 73.9168 31.4233 74.2511 31.4773C74.7103 31.5514 75.4222 31.6747 75.8956 31.7546C76.0271 31.7768 76.1144 31.7844 76.2589 31.8044C76.3834 31.8217 76.5482 31.8487 76.7179 31.9089C76.7348 31.9149 76.7675 31.9224 76.8624 31.9285C76.9238 31.9324 76.9508 31.9334 77.0362 31.9382C77.1053 31.9421 77.1887 31.9478 77.2794 31.9597C77.6389 32.0068 77.7835 32.043 78.1075 32.0788C78.2883 32.0989 78.6049 32.1106 78.9943 32.1208C79.3656 32.1306 79.7889 32.1396 80.1349 32.157C80.3852 32.1696 80.5952 32.1765 81.09 32.197C81.6693 32.221 82.1648 32.2187 82.5314 32.2087C82.7145 32.2038 82.8644 32.1969 82.9757 32.1902C83.0314 32.1868 83.0766 32.1842 83.1105 32.1814C83.1273 32.18 83.1406 32.1785 83.1505 32.1775C83.1607 32.1765 83.1651 32.1755 83.1651 32.1755C83.4224 32.1418 83.6204 32.1293 83.7872 32.1189C83.9549 32.1084 84.0744 32.1009 84.214 32.0818C84.6208 32.0262 84.9451 31.9817 85.2462 31.9255C85.3346 31.9065 85.4434 31.8835 85.5235 31.865C85.6062 31.8459 85.6905 31.8244 85.8224 31.8054C86.2324 31.7463 86.6129 32.0312 86.672 32.4412C86.731 32.8511 86.4462 33.2317 86.0362 33.2908C85.9775 33.2992 85.9549 33.3051 85.8605 33.3269C85.768 33.3482 85.6441 33.3752 85.546 33.3962L85.5265 33.4001C85.1798 33.465 84.8122 33.5141 84.4171 33.5681C84.213 33.596 84.0367 33.6062 83.88 33.616C83.7223 33.6258 83.5657 33.636 83.3605 33.6628C83.1478 33.6907 82.248 33.7456 81.0284 33.6951C80.5459 33.6751 80.3186 33.668 80.0597 33.655C79.7374 33.6388 79.3433 33.6311 78.9552 33.6208C78.585 33.6111 78.1989 33.5984 77.9425 33.5701C77.6596 33.5387 77.2657 33.4707 77.0851 33.447C76.9888 33.4344 76.9345 33.4362 76.7667 33.4255C76.6262 33.4165 76.4295 33.3978 76.2159 33.322C76.1963 33.315 76.1568 33.3052 76.0528 33.2908C75.9691 33.2791 75.8025 33.2596 75.6456 33.2331C75.1599 33.1511 74.4642 33.0308 74.0118 32.9578C73.5885 32.8894 73.2062 32.8151 72.338 32.5037C72.128 32.4284 71.9944 32.3894 71.8146 32.3288C71.6496 32.2733 71.4712 32.2069 71.2833 32.1023C71.2171 32.0654 71.1497 32.0364 71.0275 31.99C70.9081 31.9446 70.7334 31.8818 70.5089 31.7888C69.8284 31.5069 69.4792 31.3443 69.1857 31.0828C69.0879 30.9957 68.9958 30.9096 68.9191 30.8318C68.8592 30.7712 68.7546 30.6632 68.6827 30.5427C68.4709 30.187 68.5879 29.7265 68.9435 29.5144Z" fill="black"/>
<path d="M57.8219 40.9285C58.1148 40.6356 58.5906 40.6356 58.8834 40.9285C59.176 41.2213 59.176 41.6962 58.8834 41.989C58.7883 42.0841 58.4784 42.476 58.2956 42.8728C58.0387 43.4303 57.65 44.0384 57.3756 44.531C57.1136 45.0015 56.8698 45.425 56.6442 45.7634C56.4464 46.0602 56.1631 46.5565 55.8395 47.1638C55.6993 47.427 55.5464 47.7359 55.3825 48.0632C55.2218 48.3842 55.0511 48.7214 54.8864 49.0173C54.5938 49.543 54.4355 49.9291 54.3063 50.3162L54.2975 50.3445L54.2858 50.3728C54.2511 50.4542 54.2119 50.5244 54.1911 50.5632C54.1659 50.6101 54.1587 50.6245 54.154 50.6355C54.1501 50.6445 54.1487 50.6492 54.1344 50.6853C54.123 50.7141 54.105 50.7591 54.0807 50.8093C54.0281 50.9179 53.9512 51.0416 53.8307 51.1638C53.54 51.4589 53.0652 51.4624 52.7702 51.1716C52.4846 50.8902 52.4727 50.4367 52.736 50.1404C52.737 50.1378 52.7385 50.135 52.7399 50.1316C52.7418 50.1269 52.7443 50.1222 52.7467 50.116C52.749 50.1101 52.7516 50.1028 52.7545 50.0955C52.7604 50.0808 52.768 50.0616 52.777 50.0408C52.8115 49.9608 52.8498 49.8905 52.8698 49.8533C52.8883 49.8188 52.8963 49.8027 52.901 49.7927C53.0553 49.338 53.2473 48.877 53.5758 48.2869C53.7225 48.0233 53.8792 47.7139 54.0407 47.3914C54.199 47.0751 54.3635 46.7426 54.5153 46.4578C54.8419 45.8449 55.1546 45.2927 55.3961 44.9304C55.5858 44.6458 55.8049 44.2686 56.0651 43.8015C56.4137 43.1756 56.7051 42.74 56.9333 42.2449C57.1937 41.6798 57.6074 41.1431 57.8219 40.9285Z" fill="black"/>
<path d="M50.7581 50.3035C50.9425 49.9327 51.3931 49.7812 51.7639 49.9656C51.9152 50.0408 52.03 50.1497 52.0969 50.2175C52.1745 50.2962 52.248 50.3845 52.3137 50.4695C52.4457 50.6401 52.5785 50.8387 52.6907 51.0212C52.8709 51.3144 53.067 51.6354 53.6565 52.324C54.4758 53.2809 54.747 53.6544 55.0481 54.031C55.2507 54.2845 55.6727 54.7588 55.9427 55.199L56.096 55.4177C56.1468 55.4864 56.2018 55.5558 56.26 55.6248C56.3147 55.6745 56.4511 55.7983 56.6184 56.0203C56.8675 56.3509 56.8015 56.8208 56.471 57.0701C56.1402 57.3194 55.6695 57.2534 55.4202 56.9226C55.361 56.8441 55.325 56.806 55.303 56.7839C55.29 56.771 55.2773 56.7587 55.2571 56.74C55.2391 56.7234 55.2074 56.6944 55.1751 56.6619L55.1555 56.6423L55.137 56.6209C54.956 56.4095 54.8081 56.2012 54.6946 56.031L54.6751 55.9998C54.4756 55.6668 54.1754 55.3418 53.8762 54.9675C53.5545 54.565 53.3141 54.2308 52.5169 53.2996C51.8657 52.539 51.6243 52.1512 51.4124 51.8064C51.317 51.6512 51.2153 51.5003 51.1272 51.3865C51.0839 51.3305 51.0516 51.2928 51.0305 51.2712C50.7083 51.0687 50.5851 50.6515 50.7581 50.3035Z" fill="black"/>
<path d="M52.2035 54.093C52.4624 53.8147 52.8959 53.7726 53.2054 54.0071C53.5002 54.2306 53.5824 54.6296 53.4183 54.9475C53.4103 54.978 53.3984 55.0285 53.3841 55.1057C53.3513 55.284 53.321 55.4946 53.2718 55.7883C53.1909 56.2721 53.1702 56.6206 53.1605 56.9065C53.1516 57.1688 53.1527 57.4828 53.1029 57.7756C53.0584 58.0372 53.0286 58.3254 52.9964 58.6291C52.9661 58.916 52.9317 59.2353 52.8773 59.4993C52.8445 59.6582 52.8241 59.8868 52.8041 60.1897C52.7854 60.4714 52.7674 60.8139 52.7328 61.1282C52.7063 61.3686 52.6688 61.628 52.6341 61.8772C52.5986 62.1322 52.5638 62.3897 52.5394 62.6565C52.4857 63.2454 52.3391 63.8627 52.2416 64.3254C52.1312 64.8494 52.044 65.3891 52.0082 65.8039C51.9824 66.1015 51.9263 66.3983 51.8812 66.6535C51.8341 66.9204 51.7936 67.1719 51.7767 67.4446C51.761 67.6992 51.7278 67.9487 51.6996 68.1975C51.6704 68.4548 51.6401 68.7566 51.6214 69.1682C51.6064 69.501 51.5466 69.8053 51.4984 70.0618C51.4485 70.3273 51.4047 70.5726 51.388 70.8635C51.3702 71.1748 51.3286 71.4435 51.2875 71.6897C51.2454 71.9415 51.2066 72.157 51.1771 72.4114C51.1327 72.7942 51.11 73.1472 51.0912 73.4944C51.0727 73.8349 51.0563 74.1857 51.0218 74.5266C50.9619 75.1187 50.8561 76.6988 50.7914 77.7756C50.7623 78.2596 50.7252 78.6236 50.6908 78.9299C50.6557 79.242 50.627 79.4649 50.6087 79.7063C50.5878 79.9835 50.5578 80.2562 50.5287 80.5061C50.4989 80.7613 50.471 80.9868 50.4525 81.1946C50.4257 81.4956 50.3818 81.8388 50.3392 82.1897C50.2958 82.5475 50.2516 82.9325 50.2201 83.3489L50.2181 83.3684L50.2162 83.3869C50.1817 83.6551 50.1563 83.9926 50.1439 84.4162V84.4309L50.1429 84.4465C50.1348 84.563 50.1221 84.658 50.1117 84.7414C50.1013 84.8251 50.0895 84.9233 50.0775 85.0774C50.0453 85.4903 49.6838 85.799 49.2709 85.7668C48.8581 85.7345 48.5492 85.374 48.5814 84.9612C48.5958 84.7767 48.6102 84.6541 48.6224 84.5559C48.6347 84.4575 48.6412 84.4088 48.6459 84.342C48.6595 83.8983 48.6863 83.5199 48.7279 83.1965C48.7618 82.761 48.8071 82.3627 48.85 82.009C48.895 81.6378 48.9344 81.3315 48.9584 81.0618C48.9792 80.8279 49.0101 80.575 49.0384 80.3323C49.0674 80.0841 49.0951 79.8383 49.1136 79.594C49.1346 79.3164 49.1687 79.0459 49.2005 78.7619C49.2331 78.472 49.2672 78.1357 49.2943 77.6858C49.3586 76.616 49.4661 75.0047 49.5296 74.3762C49.5597 74.0793 49.5745 73.7731 49.5941 73.4133C49.6133 73.0603 49.637 72.6692 49.6869 72.2385C49.7219 71.936 49.7702 71.6685 49.808 71.4426C49.8466 71.2111 49.8769 71.0062 49.89 70.7776C49.9126 70.3823 49.973 70.0549 50.0238 69.7844C50.0763 69.5047 50.114 69.3087 50.1234 69.1008C50.144 68.6452 50.1777 68.3078 50.2093 68.0285C50.242 67.741 50.267 67.5558 50.2796 67.3518C50.3021 66.9893 50.356 66.6672 50.4046 66.3918C50.4553 66.1048 50.4955 65.8895 50.514 65.675C50.5567 65.1806 50.6555 64.5773 50.7738 64.0159C50.884 63.493 51.0028 62.997 51.0462 62.5207C51.074 62.2169 51.1116 61.9301 51.1478 61.6701C51.1848 61.4041 51.2181 61.1768 51.2416 60.9641C51.2715 60.6928 51.2873 60.4033 51.308 60.091C51.3272 59.7997 51.352 59.4712 51.4085 59.1965C51.4451 59.0188 51.4718 58.7786 51.5043 58.4719C51.5349 58.182 51.5702 57.8418 51.6244 57.5237C51.6519 57.362 51.6495 57.2091 51.6615 56.8557C51.6727 56.5256 51.6974 56.1085 51.7923 55.5412C51.8341 55.2917 51.8745 55.0232 51.9095 54.8332C51.9277 54.7346 51.9488 54.6305 51.975 54.5364C51.9935 54.4698 52.0416 54.3008 52.1546 54.1516L52.2035 54.093Z" fill="black"/>
<path d="M56.4841 63.9897C56.7138 63.6452 57.1795 63.5522 57.5242 63.7817C57.8688 64.0115 57.9619 64.4771 57.7322 64.8218C57.6793 64.901 57.628 64.978 57.5759 65.0561C57.4731 65.2103 57.3206 65.4388 57.1169 65.7573C56.9997 65.9617 56.8503 66.1742 56.7781 66.2856C56.6832 66.4321 56.6294 66.5373 56.5984 66.647C56.4384 67.2131 56.1892 67.788 55.9822 68.2192C55.7806 68.6391 55.6256 68.8895 55.491 69.2554C55.3961 69.5132 55.2667 69.7446 55.1697 69.9185C55.0629 70.1099 54.9923 70.2391 54.9441 70.3657C54.7957 70.7555 54.5964 71.1575 54.4382 71.5239C54.2866 71.8752 54.1468 72.2909 54.032 72.6997C53.9204 73.0968 53.8264 73.4837 53.6638 74.1841C53.5239 74.7866 53.3632 75.2378 53.2253 75.6265C53.1376 75.8738 53.031 76.1214 52.9382 76.3384C52.8414 76.565 52.7587 76.76 52.696 76.9419C52.5376 77.4017 52.3459 77.8113 52.1706 78.1763C51.9852 78.5626 51.8446 78.83 51.7683 79.1352C51.6581 79.5761 51.4973 80.1059 51.2449 80.6108C51.1635 80.7735 51.0954 80.9561 50.9929 81.2368C50.8933 81.5096 50.7707 81.848 50.5886 82.271C50.4241 82.6532 50.3306 83.1898 50.3083 83.3901C50.2627 83.8018 49.8919 84.0988 49.4802 84.0532C49.0688 84.0074 48.7725 83.6366 48.8181 83.2251C48.8474 82.9612 48.9616 82.257 49.2107 81.6782C49.3745 81.2977 49.4845 80.9939 49.5837 80.7222C49.68 80.4584 49.7768 80.1935 49.9031 79.9409C50.0865 79.574 50.2158 79.1616 50.3132 78.772C50.4361 78.2806 50.6668 77.842 50.8181 77.5269C50.9913 77.166 51.1503 76.8245 51.2781 76.4536C51.3614 76.2118 51.4661 75.9665 51.5593 75.7485C51.6566 75.5209 51.7433 75.3189 51.8122 75.1245C51.949 74.7392 52.0838 74.3581 52.2029 73.8452C52.3655 73.1447 52.4658 72.728 52.5876 72.2944C52.7152 71.8402 52.8762 71.3579 53.0613 70.9292C53.2708 70.4438 53.4038 70.1939 53.5417 69.8315C53.6361 69.5837 53.7661 69.3564 53.8601 69.188C53.9639 69.0018 54.0355 68.8689 54.0837 68.7378C54.2499 68.2863 54.4944 67.8514 54.6296 67.5698C54.8206 67.1721 55.0288 66.6854 55.155 66.2388C55.2457 65.9181 55.392 65.6667 55.5193 65.4702C55.6643 65.2463 55.7409 65.15 55.8288 64.9907L55.8406 64.9702L55.8533 64.9497C56.0649 64.6188 56.2237 64.3803 56.3279 64.2241C56.3799 64.146 56.4313 64.069 56.4841 63.9897Z" fill="black"/>
<path d="M57.8703 55.7007C58.3376 55.3391 58.9136 55.3716 59.2609 55.4282C59.6655 55.4942 60.0518 55.6435 60.2482 55.7173C60.6135 55.8544 60.997 56.1432 61.3039 56.395C61.6282 56.6611 61.9723 56.9759 62.2453 57.2173C62.7385 57.6534 62.9382 58.2587 63.0402 58.7388C63.1629 59.3165 62.9742 59.8789 62.8137 60.2583C62.7279 60.4612 62.6315 60.6515 62.5529 60.8062C62.4676 60.9741 62.4128 61.0822 62.3781 61.1655C62.1194 61.7877 61.9436 62.2698 61.7649 62.6421C61.5979 62.99 61.3339 63.5539 60.9406 64.0278C60.3881 64.6936 59.4903 65.0618 58.9357 65.2085H58.9338C58.6937 65.2715 58.5061 65.3263 58.3322 65.3745C58.2156 65.4069 58.087 65.4383 57.9641 65.4624C57.9628 65.4632 57.9616 65.4644 57.9602 65.4653C57.9476 65.4734 57.9341 65.4827 57.9133 65.4966C57.5687 65.7263 57.103 65.6331 56.8732 65.2886C56.829 65.2222 56.7993 65.1505 56.7785 65.0776C56.6524 65.0159 56.5414 64.9192 56.4641 64.7896C56.49 64.833 56.5059 64.8436 56.4494 64.7818C56.3943 64.7214 56.3619 64.6898 56.2746 64.5952C56.1319 64.4406 55.9403 64.2235 55.7697 63.9644C55.4939 63.5453 55.4145 63.0629 55.384 62.6235C55.3542 62.1949 55.3659 61.6585 55.3596 61.1392C55.3544 60.7127 55.4482 60.3424 55.5441 60.0474C55.5913 59.9024 55.6427 59.764 55.6828 59.6548C55.7258 59.5377 55.7563 59.4534 55.7766 59.3814C55.8973 58.9519 56.0988 58.4959 56.2805 58.1138C56.4819 57.6901 56.6308 57.4101 56.7336 57.1792C57.0136 56.5507 57.4154 56.1122 57.7785 55.7778L57.8703 55.7007ZM59.0197 56.9087C58.8674 56.8839 58.798 56.8942 58.7766 56.8989C58.4991 57.1568 58.2644 57.4289 58.1037 57.7896C57.9989 58.0249 57.7904 58.4304 57.635 58.7573C57.4598 59.1259 57.3043 59.4871 57.2199 59.7876C57.1819 59.9231 57.1329 60.0582 57.091 60.1724C57.0463 60.2943 57.0072 60.3998 56.9709 60.5112C56.8999 60.7294 56.8572 60.925 56.8596 61.1216C56.8669 61.7276 56.8541 62.147 56.8801 62.52C56.9053 62.8822 56.9627 63.048 57.0227 63.1392C57.1254 63.2953 57.2514 63.4414 57.3772 63.5776C57.4239 63.6283 57.5141 63.7242 57.5568 63.771C57.5928 63.8104 57.6617 63.8901 57.7219 63.98C57.768 63.9692 57.835 63.9558 57.9309 63.9292C58.0844 63.8866 58.2996 63.8238 58.5529 63.7573C58.9838 63.6432 59.5256 63.3841 59.7863 63.0698C60.0416 62.7622 60.2309 62.3707 60.4123 61.9927C60.5704 61.6634 60.6929 61.3118 60.9934 60.5894C61.0557 60.4395 61.1442 60.2677 61.216 60.1265C61.2946 59.9718 61.3686 59.8228 61.4318 59.6734C61.5694 59.3482 61.5951 59.1526 61.5734 59.0503C61.4935 58.6739 61.3811 58.4562 61.2512 58.3413C60.9495 58.0745 60.6475 57.7979 60.3518 57.5552C60.0386 57.2982 59.8273 57.1616 59.7209 57.1216C59.502 57.0394 59.2534 56.9468 59.0197 56.9087Z" fill="black"/>
<path d="M55.8181 63.4482C56.1891 63.3656 56.5698 63.5759 56.6921 63.9443C56.8094 64.2978 56.6482 64.6752 56.3288 64.8428C56.3177 64.8521 56.2991 64.8681 56.2722 64.8936C56.1942 64.9674 56.0878 65.0791 55.947 65.2324C55.7179 65.482 55.5015 65.7176 55.2585 66.001C54.64 66.7222 54.0971 67.1018 53.6267 67.544L53.6257 67.543C53.5062 67.6625 53.4087 67.7628 53.322 67.8389C53.275 67.8801 53.2269 67.9178 53.198 67.9414C53.165 67.9683 53.1225 68.0039 53.0554 68.0635C52.7457 68.3383 52.2718 68.3105 51.9968 68.001C51.722 67.6913 51.7498 67.2174 52.0593 66.9424C52.144 66.8672 52.2029 66.8185 52.2497 66.7803C52.3007 66.7387 52.3122 66.73 52.3327 66.7119C52.3774 66.6727 52.4388 66.6107 52.5827 66.4668L52.5915 66.459L52.5993 66.4512C53.2681 65.8226 53.5571 65.6817 54.1208 65.0244C54.381 64.7211 54.6105 64.4694 54.8415 64.2178C54.9859 64.0605 55.1222 63.916 55.2409 63.8037C55.3002 63.7477 55.3655 63.689 55.4333 63.6377C55.489 63.5955 55.5997 63.5166 55.7439 63.4688L55.8181 63.4482Z" fill="black"/>
<path d="M49.2708 68.4341C49.6153 68.2732 50.0328 68.3964 50.2317 68.73C50.4197 69.0456 50.3481 69.4425 50.0813 69.6763C50.0565 69.707 50.0202 69.7561 49.9671 69.8296C49.8679 69.9667 49.7229 70.1731 49.5638 70.3813C49.1674 70.8996 48.7169 71.169 48.5179 71.3169C47.8317 71.8269 47.1948 72.0802 46.8909 72.189C46.6128 72.3154 46.3665 72.3788 46.1868 72.4106L46.1634 72.4155L46.1409 72.4175C46.1285 72.4189 46.1136 72.4197 46.1067 72.4204C46.0984 72.4242 46.0858 72.4321 46.0677 72.4419C45.7033 72.6386 45.248 72.5025 45.0511 72.1382C44.8543 71.7738 44.9905 71.3185 45.3548 71.1216C45.4894 71.0488 45.6142 70.9973 45.7395 70.9653C45.8184 70.9452 45.8952 70.9349 45.9378 70.9302C46.029 70.9132 46.1567 70.8815 46.3011 70.812L46.3372 70.7944L46.3753 70.7808C46.5979 70.7016 47.0907 70.5088 47.6224 70.1138C47.943 69.8754 48.1401 69.7727 48.3714 69.4702C48.5146 69.2829 48.6382 69.1083 48.7522 68.9507C48.8057 68.8768 48.8625 68.7992 48.9143 68.7349C48.9401 68.7029 48.9723 68.6647 49.0081 68.6274C49.0351 68.5993 49.1045 68.5282 49.2034 68.4692L49.2708 68.4341Z" fill="black"/>
<path d="M41.0336 42.7908C41.6179 42.7386 43.4217 42.5928 44.9945 42.822C45.6474 42.9172 46.3821 43.0572 47.0189 43.2214C47.3368 43.3034 47.6416 43.394 47.9047 43.4929C48.1511 43.5856 48.4238 43.7078 48.6312 43.8728C48.9903 44.1585 49.7216 44.6366 50.1322 45.3855C50.7266 46.4701 50.9637 47.0268 51.142 47.5505C51.3468 48.1523 51.4017 48.915 51.4017 49.1912C51.4015 49.6052 51.0658 49.9412 50.6517 49.9412C50.4366 49.941 50.2435 49.8491 50.1068 49.7038C49.8252 49.7036 49.5608 49.5471 49.434 49.2869C49.4244 49.2842 49.4141 49.2812 49.4027 49.2781L49.3871 49.2742L49.3715 49.2693C49.1822 49.2087 48.9986 49.132 48.8373 49.0632C48.6675 48.9908 48.5182 48.9248 48.3568 48.864C48.0461 48.7469 47.726 48.6619 47.3451 48.657C46.8247 48.6502 46.3649 48.6195 45.8578 48.6296C45.3651 48.6395 44.9702 48.6897 44.6869 48.8005C44.146 49.0121 43.8513 49.1296 43.5209 49.3494C43.1362 49.6053 42.5013 50.1027 41.807 50.5027C41.6572 50.589 41.5394 50.6856 41.3568 50.8376C41.1771 50.9872 40.9518 51.1755 40.6361 51.3718C40.4399 51.4938 40.2863 51.6175 40.0834 51.7781C39.8847 51.9353 39.6501 52.1176 39.3392 52.2947C38.5378 52.751 38.2459 52.9636 37.6596 53.4509C37.4157 53.6536 37.1457 53.911 36.7846 54.2537C36.4294 54.5905 36.0025 54.993 35.4701 55.4607C34.9428 55.9239 34.5463 56.3234 34.1889 56.6531C33.9312 56.8907 33.5983 57.3303 33.4174 57.6579C33.3929 57.7023 33.365 57.7668 33.3236 57.8747C33.2886 57.9659 33.2357 58.1094 33.1781 58.2371C33.0807 58.4529 32.8275 58.9651 32.2279 59.0701C31.9536 59.118 31.6845 59.0628 31.4896 59.0183C31.303 58.9757 30.9755 58.888 30.6644 58.8132C29.9507 58.6416 29.3339 58.3324 29.0248 58.2117C28.9297 58.1745 28.8144 58.1396 28.6693 58.0994C28.5367 58.0626 28.3619 58.0173 28.2035 57.9685C27.9108 57.8783 27.4491 57.7175 27.139 57.3425C27.1004 57.2958 27.02 57.1968 26.9564 57.072C26.901 56.9632 26.7848 56.6933 26.8851 56.3699L26.9496 56.2038C26.9734 56.1516 26.9983 56.1039 27.018 56.0662C27.0639 55.9778 27.1202 55.8762 27.1781 55.7732C27.2978 55.56 27.4361 55.317 27.5707 55.0554C27.8449 54.5226 28.1441 54.091 28.4545 53.7009C28.6384 53.4698 28.856 53.2221 29.0326 53.0124C29.22 52.7899 29.3835 52.5841 29.516 52.3816C29.8859 51.8161 30.255 51.0468 31.1137 49.9031C31.7139 49.1036 32.1085 48.7174 32.7777 47.9353C33.3787 47.2329 33.6876 46.8508 34.3197 46.2751C34.634 45.9888 35.0332 45.3993 36.2484 44.6472C37.0815 44.1317 38.1709 43.5301 39.2924 43.1941C39.9226 43.0053 40.4885 42.8395 41.0336 42.7908ZM44.7787 44.3064C43.3972 44.105 41.7492 44.2328 41.1664 44.2849C40.7998 44.3177 40.3831 44.4329 39.723 44.6306C38.7916 44.9097 37.8357 45.4293 37.0385 45.9226C35.973 46.5819 35.8698 46.8913 35.3295 47.3835C34.7798 47.8842 34.5336 48.1897 33.9174 48.9099C33.1754 49.777 32.8781 50.0529 32.3139 50.8044C31.468 51.9311 31.2832 52.4212 30.7719 53.2029C30.5883 53.4834 30.3769 53.7446 30.1801 53.9783C29.9723 54.225 29.7959 54.4239 29.6283 54.6345C29.3646 54.9659 29.1243 55.3152 28.9047 55.7419C28.7599 56.0232 28.6111 56.2847 28.4984 56.4851C28.5409 56.5008 28.5893 56.5178 28.6449 56.5349C28.7763 56.5754 28.9056 56.6083 29.0707 56.654C29.2232 56.6963 29.4001 56.7476 29.5707 56.8142C30.0632 57.0066 30.4314 57.2139 31.015 57.3542C31.2004 57.3988 31.3601 57.4401 31.4945 57.4744C31.6318 57.5094 31.7362 57.5355 31.8236 57.5554C31.8275 57.5563 31.8316 57.5565 31.8353 57.5574C31.8596 57.4981 31.8863 57.4313 31.9222 57.3376C31.9648 57.2266 32.0246 57.076 32.1039 56.9324C32.3509 56.4851 32.7796 55.9126 33.1722 55.5505C33.4619 55.2834 33.9464 54.8032 34.4808 54.3337C34.9902 53.8863 35.3992 53.4997 35.7523 53.1648C36.0991 52.8358 36.4102 52.5389 36.7006 52.2976C37.3524 51.7558 37.7167 51.4922 38.5971 50.991C38.8042 50.873 38.9651 50.7497 39.1527 50.6013C39.3363 50.456 39.5602 50.2733 39.8431 50.0974C40.0636 49.9604 40.2213 49.8315 40.3969 49.6853C40.5697 49.5414 40.7804 49.3627 41.058 49.2029C41.7176 48.823 42.138 48.4674 42.6898 48.1003C43.1754 47.7773 43.6204 47.6077 44.141 47.404C44.6773 47.1943 45.2876 47.1404 45.8275 47.1296C46.3529 47.1191 46.9538 47.1516 47.3646 47.157C47.9756 47.1649 48.4739 47.3058 48.8851 47.4607C49.0847 47.5359 49.273 47.618 49.4262 47.6833C49.4983 47.7141 49.5633 47.7413 49.6234 47.7654C49.4827 47.3993 49.268 46.9305 48.8168 46.1072C48.5933 45.6994 48.2221 45.464 47.6976 45.0466C47.6981 45.047 47.6915 45.0423 47.6762 45.0329C47.6607 45.0235 47.6394 45.0112 47.6107 44.9968C47.5523 44.9675 47.4748 44.9339 47.3773 44.8972C47.1814 44.8236 46.9313 44.7477 46.6439 44.6736C46.0703 44.5256 45.3905 44.3956 44.7787 44.3064Z" fill="black"/>
<path d="M29.015 58.4443C29.1454 58.0515 29.5693 57.8387 29.9622 57.9687C30.2541 58.0655 30.4455 58.3245 30.472 58.6123C30.5247 58.3494 30.7139 58.1226 30.9886 58.04L31.0794 58.0185C31.2985 57.9801 31.5722 58.0248 31.7855 58.2432C31.9642 58.4264 32.0015 58.6393 32.012 58.7139C32.0367 58.8887 32.0083 59.0549 31.9905 59.1426L31.9779 59.206L31.9544 59.2666C31.7642 59.754 31.6018 60.1331 31.181 61.0254L31.1331 61.1279L31.057 61.2109C30.9364 61.3433 30.8266 61.4725 30.7113 61.6064C30.6012 61.7342 30.4804 61.8723 30.3597 61.9932C30.1703 62.1827 29.747 62.5819 29.1605 62.4941C29.0489 62.4774 28.8331 62.4296 28.638 62.2568C28.4162 62.0603 28.3186 61.7915 28.3148 61.5273C28.3018 60.6228 28.3869 60.119 28.5452 59.6191C28.6352 59.3352 28.7509 59.0551 28.8441 58.8389C28.8889 58.7348 28.9364 58.6278 28.9661 58.5596C28.9825 58.5221 28.9949 58.4924 29.0042 58.4697C29.0144 58.445 29.0167 58.439 29.015 58.4443ZM30.4593 58.8408C30.4537 58.8662 30.4472 58.8918 30.4388 58.917C30.4132 58.9941 30.3725 59.0884 30.3421 59.1582C30.3041 59.2455 30.2676 59.3269 30.222 59.4326C30.1434 59.6148 30.0625 59.8142 29.9984 60.0049C30.2274 59.5116 30.356 59.2192 30.4739 58.9258C30.4674 58.8974 30.4625 58.8691 30.4593 58.8408Z" fill="black"/>
<path d="M27.6735 57.4668C27.879 57.1072 28.3373 56.9821 28.6969 57.1875C29.0565 57.393 29.1817 57.8513 28.9762 58.2109C28.8961 58.3511 28.8357 58.4538 28.7282 58.7061C28.4989 59.2438 28.3777 59.5646 28.3004 59.7803C28.2318 59.9717 28.1738 60.1547 28.1002 60.3223C28.02 60.505 27.9611 60.7028 27.9118 60.9014C27.887 61.0011 27.8661 61.0936 27.8444 61.1885C27.8243 61.2765 27.8011 61.3782 27.775 61.4678C27.6762 61.8075 27.6012 62.2303 27.5055 62.6797C27.4895 62.7548 27.4819 62.8366 27.4752 62.9463C27.4697 63.0383 27.4631 63.1995 27.4459 63.3408C27.4101 63.6364 27.3804 64.1511 27.3532 64.7891C27.3387 65.1291 27.3486 65.7816 27.3698 66.2842C27.4038 67.0925 27.4694 67.4178 27.4909 67.6338C27.506 67.7861 27.5516 67.983 27.6188 68.2207C27.6696 68.4002 27.7764 68.7433 27.8268 68.9277C27.8422 68.984 27.8629 69.0413 27.8942 69.125C27.9226 69.2011 27.9642 69.3113 27.9997 69.4287C28.018 69.4893 28.0751 69.6169 28.1989 69.8418C28.3168 70.0561 28.466 70.3075 28.6432 70.6094C28.7879 70.8558 28.9132 71.0429 29.0123 71.1855C29.0811 71.2844 29.0883 71.2932 29.1481 71.3789C29.1841 71.4305 29.2329 71.5011 29.2721 71.5713C29.5009 71.9805 29.735 72.2406 29.9381 72.4912C30.2012 72.8157 30.3822 73.0025 30.4987 73.1035C30.6159 73.2052 30.7367 73.3255 30.8307 73.4199C30.936 73.5256 31.0106 73.6007 31.07 73.6523C31.274 73.8299 31.5055 74.0186 31.8649 74.2754C32.0679 74.4204 32.3202 74.544 32.609 74.625C32.9788 74.7287 33.22 74.7439 34.109 74.7939C34.7275 74.8287 35.7807 74.8098 36.4118 74.7988C36.7682 74.7926 36.9721 74.7793 37.1022 74.7666C37.2377 74.7533 37.2827 74.7426 37.4088 74.7246C38.0088 74.6392 38.2274 74.5141 38.529 74.4014C38.7869 74.3049 39.2429 74.1595 39.5719 74.0566C39.813 73.9813 40.1317 73.8809 40.5192 73.748C40.5492 73.7377 40.639 73.6976 40.7672 73.623C40.889 73.5522 41.0085 73.4715 41.0944 73.4033C41.276 73.2591 41.4767 73.0539 41.6715 72.8379C41.8664 72.6219 41.9595 72.4692 42.3493 71.9863C42.622 71.6485 42.8419 71.3504 42.9997 71.1279C43.0785 71.0167 43.1419 70.9254 43.1872 70.8574C43.2097 70.8235 43.2269 70.7957 43.2399 70.7754C43.252 70.7564 43.2583 70.747 43.2594 70.7451C43.3353 70.616 43.4148 70.4914 43.4899 70.3721C43.5671 70.2494 43.6504 70.1155 43.7487 69.9443C44.2915 68.9985 44.6055 68.6551 44.6725 68.5664C44.7195 68.4905 44.7804 68.3944 44.8659 68.251C44.8958 68.1976 44.9265 68.1397 44.9938 67.9766C45.1518 67.5938 45.5905 67.4115 45.9733 67.5693C46.3562 67.7273 46.5385 68.1659 46.3805 68.5488C46.2953 68.7552 46.2393 68.8699 46.1715 68.9902L46.1676 68.998L46.1627 69.0059C46.0564 69.1848 45.9715 69.3188 45.9352 69.3779L45.9245 69.3955L45.9127 69.4131C45.7453 69.6546 45.5775 69.7705 45.0495 70.6904C44.9368 70.8867 44.8418 71.0401 44.7594 71.1709C44.6749 71.3052 44.6131 71.4015 44.5524 71.5049C44.4737 71.6387 44.0982 72.2068 43.5163 72.9277C43.2253 73.2882 43.0051 73.5986 42.7848 73.8428C42.5779 74.0722 42.3097 74.3537 42.027 74.5781C41.742 74.8044 41.306 75.0639 41.0055 75.167C40.5985 75.3065 40.2642 75.4117 40.0192 75.4883C39.6812 75.5939 39.2664 75.7273 39.0543 75.8066C38.8314 75.89 38.4234 76.0957 37.6207 76.21C37.422 76.2383 37.221 76.2852 36.4372 76.2988C35.8314 76.3094 34.7121 76.3306 34.025 76.292C33.1769 76.2443 32.7613 76.2258 32.2038 76.0693C31.7519 75.9426 31.3411 75.7439 30.9928 75.4951C30.5938 75.21 30.3242 74.9927 30.0846 74.7842C29.9757 74.6894 29.8584 74.57 29.7672 74.4785C29.6649 74.3758 29.5845 74.2956 29.5163 74.2363C29.3063 74.0542 29.0626 73.7925 28.7731 73.4355C28.6075 73.2314 28.2697 72.8531 27.9625 72.3037C27.9616 72.3022 27.9514 72.2849 27.9176 72.2363C27.903 72.2154 27.8187 72.0963 27.7809 72.042C27.6672 71.8784 27.5199 71.6581 27.3502 71.3691C27.1809 71.0806 27.0154 70.8035 26.8844 70.5654C26.7594 70.3382 26.6325 70.0892 26.5641 69.8633C26.5457 69.8024 26.5238 69.7438 26.4889 69.6504C26.4569 69.5647 26.4146 69.4507 26.3795 69.3223C26.315 69.086 26.2639 68.9418 26.1754 68.6289C26.1034 68.374 26.0275 68.0722 25.9987 67.7822C25.9879 67.6738 25.907 67.2081 25.8707 66.3477C25.8489 65.8301 25.8379 65.1276 25.8551 64.7246C25.882 64.0953 25.9136 63.5231 25.9577 63.1602C25.9675 63.0789 25.9691 63.0068 25.9782 62.8564C25.9862 62.7238 25.9991 62.5532 26.0387 62.3672C26.1176 61.9971 26.2153 61.4589 26.3346 61.0488C26.3694 60.9292 26.3859 60.8212 26.4557 60.54C26.5142 60.3045 26.5969 60.0134 26.7262 59.7187C26.772 59.6146 26.7917 59.543 26.8883 59.2734C26.9763 59.0279 27.1084 58.6798 27.3483 58.1172C27.4889 57.7876 27.5816 57.6275 27.6735 57.4668Z" fill="black"/>
<path d="M44.3076 64.9656C44.5748 64.6954 45.0092 64.6663 45.3115 64.9099C45.6036 65.1456 45.6714 65.5551 45.4882 65.8699C45.4772 65.8963 45.4625 65.9354 45.4384 65.9978C45.3911 66.1202 45.3224 66.2975 45.2324 66.4988C45.0723 66.8566 44.9773 67.1111 44.7304 67.4881C44.1654 68.3506 44.0746 68.4663 43.9667 68.6385C43.8821 68.7735 43.8016 68.8893 43.7363 68.9822C43.6673 69.0803 43.6209 69.1466 43.582 69.2107C43.5005 69.3451 43.4113 69.4841 43.333 69.6062C43.2517 69.733 43.1852 69.8369 43.1367 69.9168C43.0306 70.0914 42.8629 70.3554 42.6611 70.6531C42.4474 70.9683 42.2678 71.2152 42.0644 71.4558C41.992 71.5415 41.9407 71.6086 41.8535 71.7166C41.7783 71.8096 41.681 71.9257 41.5664 72.032C41.3759 72.2085 41.1179 72.3764 41.0175 72.45C40.8533 72.5704 40.7031 72.6668 40.5585 72.7527C40.486 72.8153 40.3894 72.8937 40.2724 72.9568L40.2441 72.9724L40.2392 72.9744C39.9435 73.2223 39.5031 73.2065 39.2265 72.9275C38.9349 72.6334 38.9363 72.1586 39.2304 71.867L39.3505 71.7615C39.3921 71.7292 39.4354 71.6998 39.4814 71.6736C39.5059 71.6597 39.5354 71.6473 39.5605 71.6355C39.5712 71.6271 39.5866 71.6132 39.6113 71.5906L39.6728 71.5349L39.7441 71.4939C39.8608 71.4269 39.9841 71.3485 40.1308 71.241C40.3563 71.0757 40.4393 71.0311 40.5468 70.9314C40.5789 70.9017 40.6207 70.8556 40.6865 70.7742C40.7405 70.7073 40.8346 70.5868 40.9189 70.4871C41.0747 70.3027 41.2208 70.1035 41.4189 69.8113C41.6075 69.533 41.762 69.2897 41.8544 69.1375C41.915 69.0378 41.9944 68.914 42.0703 68.7957C42.1491 68.6727 42.2291 68.5488 42.2997 68.4324C42.3695 68.3174 42.4459 68.2092 42.5087 68.1199C42.5752 68.0254 42.6353 67.9398 42.6962 67.8426C42.8059 67.6675 42.9602 67.454 43.4765 66.6658C43.64 66.4161 43.6759 66.3052 43.8632 65.8865C43.9358 65.7243 43.9917 65.5793 44.039 65.4568C44.0611 65.3997 44.0861 65.3356 44.1083 65.283C44.1196 65.2563 44.1347 65.2221 44.1523 65.1873C44.1654 65.1612 44.2004 65.0932 44.2568 65.0232L44.3076 64.9656Z" fill="black"/>
<path d="M25.3936 71.9104C25.8077 71.9106 26.1436 72.2463 26.1436 72.6604C26.1436 72.7158 26.1355 72.7695 26.1241 72.8215C26.1327 72.8373 26.1432 72.8549 26.1524 72.8723C26.309 73.1664 26.6651 73.689 26.8077 73.885C26.9232 74.0437 27.0278 74.1911 27.1348 74.3352C27.1348 74.3352 27.141 74.3421 27.1544 74.3576C27.1677 74.373 27.1854 74.3931 27.2081 74.4172C27.2537 74.4658 27.3126 74.5259 27.3829 74.594C27.5233 74.7299 27.6984 74.8891 27.879 75.0442C28.2591 75.3703 28.9264 75.7463 29.1505 75.8782L29.3985 76.0158C29.4943 76.0665 29.616 76.1269 29.7911 76.2112L29.793 76.2121C29.798 76.2129 29.8063 76.2144 29.8194 76.216C30.2304 76.2678 30.5215 76.643 30.4698 77.0539C30.4181 77.4649 30.0429 77.7561 29.6319 77.7043C29.4959 77.6872 29.374 77.6632 29.2042 77.593L29.1846 77.5852L29.1661 77.5764C28.751 77.3773 28.5838 77.2822 28.4102 77.1838L28.3985 77.177V77.176C28.2615 77.0949 27.4166 76.6241 26.9014 76.1819C26.5257 75.8594 26.1018 75.46 25.9307 75.2297C25.8196 75.0801 25.6952 74.9045 25.5958 74.7678C25.4438 74.5589 25.0359 73.9665 24.8282 73.5764C24.8072 73.5371 24.7137 73.3744 24.6563 73.2239C24.5987 73.0726 24.5012 72.752 24.6456 72.4016L24.6807 72.3274C24.771 72.1594 24.9209 72.025 25.1114 71.9573C25.1988 71.9262 25.2741 71.9168 25.3175 71.9133C25.3397 71.9115 25.3582 71.9106 25.3702 71.9104C25.3815 71.9102 25.3922 71.9104 25.3936 71.9104ZM25.3936 73.4104C25.3728 73.4104 25.3952 73.4118 25.4405 73.4074C25.425 73.4084 25.4094 73.4104 25.3936 73.4104Z" fill="black"/>
<path d="M50.6289 53.0886C50.8141 52.7182 51.2642 52.5675 51.6347 52.7527C52.0051 52.9379 52.1547 53.3881 51.9697 53.7586C51.8767 53.9445 51.727 54.2779 51.6503 54.5076C51.5861 54.7002 51.4504 54.9906 51.2832 55.3484C51.1052 55.7292 50.8633 56.2442 50.5517 56.9382C50.0188 58.1252 50.0302 58.298 49.705 59.1043C49.5644 59.453 49.4089 59.8582 49.2929 60.2586C49.1849 60.6317 48.9733 61.1966 48.8398 61.5964C48.703 62.0061 48.5746 62.3594 48.3281 63.1961C48.1924 63.6563 48.169 63.8782 48.0615 64.3396C48.0227 64.5058 47.9739 64.68 47.9277 64.8474C47.88 65.0201 47.8311 65.199 47.7841 65.3982C47.6724 65.872 47.5967 66.2421 47.497 66.5798C47.4624 66.6971 47.4372 66.8261 47.4062 66.992C47.3796 67.1345 47.3441 67.3189 47.2939 67.4968L47.2949 67.4978C47.278 67.5652 47.2619 67.6316 47.2451 67.699C47.2365 67.7333 47.2317 67.7546 47.2265 67.7791C47.2216 67.8023 47.2153 67.8325 47.2089 67.8767C47.1499 68.2867 46.7693 68.5715 46.3593 68.5125C45.9496 68.4532 45.6655 68.0727 45.7246 67.6629C45.7469 67.5075 45.7707 67.4129 45.79 67.3357C45.8068 67.2683 45.823 67.2009 45.8398 67.1336L45.8437 67.1189L45.8486 67.1033C45.8776 67.0046 45.8995 66.8883 45.9316 66.7166C45.9609 66.5596 45.999 66.3569 46.0585 66.155C46.1425 65.8705 46.1981 65.5895 46.3242 65.0545C46.3781 64.8255 46.4341 64.6227 46.4824 64.448C46.532 64.2685 46.5703 64.1284 46.6005 63.9988C46.6767 63.6719 46.7407 63.2775 46.8896 62.7722C47.1458 61.9029 47.2847 61.5168 47.4169 61.1209C47.5864 60.6133 47.7524 60.1872 47.8525 59.8416C47.9902 59.3662 48.1691 58.9041 48.3144 58.5437C48.543 57.9768 48.663 57.4812 49.1826 56.324C49.4996 55.6179 49.7466 55.0929 49.9238 54.7136C50.1116 54.3118 50.1979 54.1217 50.2275 54.033C50.3361 53.7075 50.5215 53.3034 50.6289 53.0886Z" fill="black"/>
<path d="M193.175 107.699C193.175 107.285 193.511 106.949 193.925 106.949C194.339 106.95 194.675 107.285 194.675 107.699C194.675 109.914 194.545 114.667 194.444 116.007C194.325 117.574 194.216 119.003 194.118 122.365C194.028 125.462 194.085 131.414 194.117 134.657C194.16 138.942 194.407 140.273 194.51 142.546C194.556 143.569 194.629 144.499 194.703 145.528C194.778 146.554 194.853 147.667 194.904 149.037C194.965 150.727 195.263 155.757 195.427 159.155C195.468 159.999 195.492 160.778 195.519 161.676L195.623 164.911L195.624 164.919V164.928C195.658 167.275 195.658 171.628 195.625 174.003C195.592 176.399 195.525 176.682 195.458 177.536C195.426 177.949 195.066 178.258 194.653 178.226C194.24 178.194 193.931 177.833 193.963 177.42C194.03 176.56 194.093 176.324 194.125 173.983C194.158 171.626 194.157 167.303 194.124 164.966C194.025 162.278 194.009 160.914 193.928 159.227C193.766 155.87 193.467 150.787 193.405 149.092C193.355 147.749 193.281 146.656 193.207 145.636C193.134 144.618 193.058 143.662 193.011 142.614C192.915 140.501 192.66 138.961 192.617 134.672C192.585 131.443 192.527 125.456 192.618 122.322C192.717 118.93 192.828 117.477 192.948 115.894C193.045 114.609 193.175 109.899 193.175 107.699Z" fill="black"/>
<path d="M199.572 107.47C199.572 107.056 199.908 106.72 200.322 106.72C200.736 106.72 201.072 107.056 201.072 107.47C201.072 109.115 201.03 112.401 200.966 114.49C200.909 116.341 200.945 119.849 200.966 121.756C200.977 122.781 201.003 123.565 201.029 124.28C201.056 124.995 201.082 125.649 201.093 126.401C201.118 128.161 201.24 130.073 201.305 132.676C201.361 134.928 201.327 139.166 201.348 141.382C201.358 142.499 201.374 143.098 201.39 143.604C201.405 144.114 201.421 144.541 201.432 145.306C201.443 146.067 201.448 147.163 201.453 148.264C201.459 149.367 201.464 150.476 201.475 151.271C201.487 152.187 201.513 152.98 201.539 153.769C201.565 154.556 201.591 155.341 201.602 156.229C201.605 156.551 201.62 156.739 201.639 157.225C201.657 157.695 201.676 158.407 201.687 159.715C201.708 162.325 201.709 167.324 201.688 169.985C201.661 173.291 201.499 174.37 201.345 175.275C201.336 175.39 201.331 175.52 201.326 175.667C201.321 175.813 201.315 175.98 201.303 176.129C201.29 176.285 201.271 176.414 201.253 176.538C201.235 176.662 201.215 176.799 201.195 176.996C201.153 177.408 200.786 177.708 200.374 177.666C199.962 177.624 199.661 177.257 199.703 176.845C199.726 176.615 199.75 176.453 199.769 176.322C199.788 176.191 199.799 176.108 199.808 176.007C199.816 175.899 199.822 175.769 199.827 175.614C199.832 175.468 199.838 175.298 199.851 175.141L199.854 175.106L199.858 175.072C199.999 174.251 200.161 173.276 200.188 169.973C200.209 167.319 200.208 162.329 200.187 159.728C200.176 158.43 200.157 157.734 200.14 157.281C200.123 156.844 200.106 156.593 200.102 156.247C200.091 155.377 200.066 154.607 200.04 153.818C200.014 153.03 199.987 152.224 199.975 151.291C199.964 150.489 199.959 149.372 199.953 148.271C199.948 147.168 199.943 146.08 199.933 145.327C199.922 144.578 199.906 144.165 199.89 143.65C199.874 143.133 199.858 142.524 199.848 141.396C199.826 139.119 199.861 134.959 199.805 132.713C199.743 130.228 199.617 128.149 199.593 126.423C199.582 125.692 199.557 125.057 199.53 124.336C199.504 123.615 199.477 122.816 199.466 121.772C199.445 119.879 199.409 116.334 199.467 114.444C199.53 112.372 199.572 109.101 199.572 107.47Z" fill="black"/>
<path d="M148.938 105.68C150.219 105.673 151.035 105.847 151.778 105.963C152.431 106.064 153.085 106.141 154.919 106.192C155.395 106.205 155.421 106.243 156.962 106.26C157.719 106.269 158.822 106.274 159.935 106.278C161.045 106.282 162.165 106.286 162.95 106.295C165.29 106.32 166.676 106.45 167.327 106.502C167.668 106.529 169.533 106.585 172.176 106.568C172.638 106.565 172.908 106.553 173.195 106.539C173.489 106.525 173.804 106.509 174.341 106.5C174.87 106.491 175.619 106.486 176.368 106.482C177.12 106.478 177.875 106.474 178.425 106.466C179.091 106.455 179.718 106.434 180.384 106.413C181.048 106.392 181.748 106.372 182.548 106.363C183.012 106.358 183.66 106.338 184.48 106.315C185.295 106.293 186.266 106.269 187.355 106.26C187.729 106.258 187.944 106.246 188.242 106.232C188.545 106.218 188.918 106.202 189.587 106.193C190.913 106.176 193.418 106.175 194.778 106.192C196.72 106.216 197.856 106.386 198.748 106.468C199.772 106.563 200.753 106.658 201.962 106.868C202.318 106.93 202.705 106.962 203.212 107.001C203.711 107.039 204.308 107.082 205.042 107.169C205.511 107.224 205.768 107.232 206.37 107.287C207.461 107.387 208.326 107.334 211.759 107.385C214.926 107.433 221.063 107.403 224.385 107.386C227.698 107.37 227.983 107.336 229.049 107.318C229.579 107.309 230.294 107.305 230.999 107.301C231.707 107.296 232.406 107.292 232.913 107.284C233.952 107.267 234.069 107.235 235.314 107.199C236.464 107.166 238.714 107.13 239.91 107.097C242.259 107.033 243.838 106.928 245.328 106.875C246.282 106.841 247.322 106.726 247.807 106.62L247.84 106.612L247.873 106.608C247.958 106.597 248.062 106.59 248.105 106.586C248.163 106.58 248.2 106.575 248.232 106.568C248.271 106.56 248.319 106.545 248.425 106.512C248.523 106.482 248.651 106.443 248.81 106.403C249.211 106.302 249.619 106.545 249.72 106.947C249.821 107.349 249.577 107.756 249.176 107.857C249.059 107.887 248.963 107.916 248.869 107.945C248.783 107.972 248.669 108.009 248.554 108.034C248.432 108.061 248.325 108.072 248.242 108.08C248.152 108.088 248.118 108.089 248.072 108.094C247.452 108.223 246.351 108.34 245.382 108.375C243.972 108.425 242.279 108.532 239.951 108.596C238.651 108.632 236.579 108.664 235.358 108.699C234.234 108.731 233.945 108.767 232.938 108.784C232.421 108.792 231.714 108.796 231.009 108.801C230.301 108.805 229.594 108.809 229.073 108.818C228.037 108.835 227.713 108.87 224.392 108.886C221.077 108.903 214.923 108.934 211.736 108.885C208.41 108.835 207.399 108.887 206.233 108.78C205.717 108.733 205.351 108.716 204.865 108.659C204.167 108.576 203.601 108.534 203.098 108.496C202.601 108.458 202.144 108.422 201.705 108.345C200.56 108.146 199.629 108.055 198.611 107.962C197.658 107.874 196.623 107.715 194.76 107.692C193.411 107.675 190.919 107.676 189.606 107.693C188.957 107.702 188.602 107.716 188.312 107.73C188.018 107.744 187.775 107.757 187.367 107.76C186.292 107.769 185.332 107.792 184.521 107.814C183.716 107.836 183.045 107.858 182.564 107.863C181.78 107.871 181.093 107.892 180.431 107.913C179.77 107.934 179.129 107.955 178.448 107.966C177.889 107.974 177.126 107.978 176.376 107.982C175.623 107.986 174.885 107.991 174.365 108C173.853 108.008 173.558 108.023 173.267 108.037C172.969 108.051 172.677 108.065 172.186 108.068C169.544 108.085 167.62 108.03 167.208 107.997C166.559 107.945 165.218 107.819 162.934 107.795C162.155 107.786 161.041 107.782 159.929 107.778C158.818 107.774 157.709 107.769 156.944 107.76C155.443 107.743 155.198 107.701 154.878 107.692C153.002 107.64 152.282 107.559 151.547 107.444C150.754 107.32 150.078 107.174 148.946 107.18C147.421 107.189 146.44 107.211 145.796 107.23C145.175 107.248 144.821 107.266 144.622 107.266C144.208 107.266 143.872 106.93 143.872 106.516C143.872 106.102 144.208 105.766 144.622 105.766C144.795 105.766 145.072 105.75 145.752 105.73C146.409 105.711 147.402 105.689 148.938 105.68Z" fill="black"/>
<path d="M142.631 107.544C142.631 107.018 142.63 106.464 142.659 106.062L142.661 106.038L142.664 106.014C142.707 105.706 142.756 105.44 142.803 105.196C142.849 104.957 142.89 104.748 142.926 104.523C143.005 103.316 143.153 101.98 143.24 100.842C143.283 100.267 143.386 99.7282 143.481 99.2153C143.577 98.6937 143.669 98.1817 143.714 97.6001C143.757 97.0518 143.844 96.5029 143.929 95.9321C144.015 95.3535 144.105 94.7228 144.162 93.9624C144.265 92.6024 144.274 90.1073 144.239 87.3423C144.199 84.2116 144.169 82.4482 144.118 81.3608C144.069 80.2817 144 79.9234 143.899 79.5816C143.773 79.1559 143.58 78.771 143.332 78.2153C143.094 77.6802 142.839 77.0514 142.671 76.2544C142.306 74.5255 142.402 72.3316 142.502 71.1597C142.564 70.437 142.605 69.6389 142.687 68.9517C142.77 68.2537 142.908 67.5441 143.212 66.937C143.312 66.7387 143.463 66.6081 143.574 66.5288C143.691 66.4449 143.82 66.3791 143.941 66.3267C144.183 66.2217 144.473 66.1362 144.772 66.065C145.374 65.9212 146.115 65.8115 146.812 65.7388C147.347 65.6829 147.85 65.5789 153.789 65.5239C159.515 65.4709 170.422 65.4187 182.086 65.4194C193.747 65.4202 205.819 65.4728 216.733 66.0376C227.648 66.6025 237.112 67.6797 241.99 68.1694C244.552 68.4267 246.129 68.5526 247.099 68.6548C248.088 68.759 248.633 68.853 249.182 69.0952C249.429 69.2042 249.734 69.4112 250.046 69.6372C250.376 69.876 250.782 70.1864 251.246 70.5425C252.181 71.2589 253.391 72.1873 254.851 73.2066C256.492 74.3518 258.129 75.4768 259.645 77.0396C260.07 77.4782 260.419 77.8171 260.881 78.2749C261.342 78.7317 261.906 79.296 262.749 80.1714C264.234 81.7115 266.683 84.4362 268.27 85.9009C268.778 86.3699 269.23 86.7638 269.622 87.1021C270.009 87.4355 270.355 87.7292 270.627 87.98C270.893 88.2242 271.145 88.4763 271.315 88.7368C271.494 89.0109 271.645 89.3925 271.522 89.8306C271.345 90.4583 270.879 91.1838 270.176 92.0923C268.82 93.8455 268.009 94.7524 266.752 95.6655C264.141 97.5621 262.041 99.0028 260.91 99.6353C260.251 100.004 259.471 100.516 258.715 101.026C257.974 101.525 257.243 102.032 256.728 102.357C255.463 103.155 254.35 103.786 253.587 104.468C252.982 105.01 252.319 105.667 251.777 106.245C251.506 106.533 251.269 106.798 251.087 107.015C250.893 107.247 250.795 107.385 250.768 107.434C250.567 107.796 250.11 107.926 249.748 107.725C249.386 107.524 249.255 107.068 249.456 106.706C249.561 106.518 249.745 106.283 249.938 106.052C250.143 105.807 250.399 105.521 250.683 105.218C251.25 104.614 251.944 103.926 252.587 103.351C253.474 102.558 254.768 101.819 255.927 101.088C256.416 100.78 257.104 100.302 257.876 99.7817C258.633 99.2716 259.459 98.7288 260.178 98.3267C261.219 97.7444 263.249 96.3562 265.871 94.4517C266.953 93.6661 267.659 92.8948 268.99 91.1743C269.62 90.3596 269.92 89.8562 270.04 89.5317C269.974 89.4387 269.845 89.2982 269.612 89.0835C269.362 88.8542 269.046 88.5851 268.643 88.2378C268.245 87.8953 267.779 87.4894 267.252 87.0034C265.626 85.5019 263.08 82.6765 261.669 81.2124C260.835 80.3471 260.28 79.7916 259.825 79.3413C259.372 78.892 259.007 78.5365 258.568 78.0835C257.169 76.6417 255.655 75.5972 253.992 74.437C252.501 73.3964 251.268 72.4491 250.333 71.7329C249.863 71.3727 249.477 71.077 249.167 70.853C248.84 70.6166 248.657 70.504 248.576 70.4683C248.259 70.3283 247.919 70.25 246.942 70.147C245.945 70.042 244.474 69.9261 241.84 69.6616C236.944 69.17 227.525 68.0972 216.656 67.5347C205.785 66.9721 193.75 66.9202 182.086 66.9194C170.426 66.9187 159.522 66.971 153.803 67.0239C147.879 67.0788 147.431 67.1825 146.967 67.231C146.305 67.3002 145.634 67.4011 145.119 67.5239C144.86 67.5859 144.665 67.6476 144.538 67.7026C144.525 67.7083 144.514 67.7143 144.503 67.7192C144.348 68.0767 144.247 68.5422 144.177 69.1304C144.098 69.7914 144.067 70.4799 143.997 71.2876C143.899 72.4338 143.822 74.4433 144.139 75.9448C144.276 76.5926 144.483 77.1107 144.703 77.605C144.914 78.0786 145.175 78.606 145.337 79.1558C145.489 79.668 145.565 80.1659 145.617 81.2915C145.669 82.4097 145.699 84.2022 145.739 87.3228C145.774 90.0769 145.766 92.6385 145.658 94.0757C145.596 94.8912 145.5 95.5648 145.412 96.1538C145.323 96.7506 145.247 97.2336 145.209 97.7153C145.157 98.3839 145.052 98.9653 144.955 99.4878C144.857 100.019 144.772 100.476 144.736 100.956C144.639 102.236 144.5 103.405 144.419 104.663L144.417 104.696L144.412 104.73C144.371 104.997 144.321 105.244 144.277 105.478C144.233 105.708 144.19 105.936 144.154 106.194C144.131 106.528 144.131 107.008 144.131 107.544C144.131 107.958 143.795 108.294 143.381 108.294C142.967 108.294 142.631 107.959 142.631 107.544Z" fill="black"/>
<path d="M174.839 72.0479C175.251 72.0089 175.617 72.3123 175.656 72.7246C175.695 73.1369 175.393 73.503 174.98 73.542C174.686 73.5699 173.918 73.8918 172.845 75.0547C171.992 75.9779 171.929 76.814 171.928 78.2783C171.928 78.5312 172.04 78.7835 172.334 79.0781C172.639 79.3836 173.079 79.671 173.608 79.9776C173.998 80.2027 174.657 80.436 175.688 80.4932C175.697 80.4842 175.711 80.4735 175.727 80.457C175.764 80.4176 175.796 80.3801 175.854 80.3145C176.226 79.8894 176.205 79.4117 176.305 78.5801C176.318 78.4703 176.324 78.3868 176.328 78.3213C175.536 78.1297 175.207 78.131 174.854 78.0567L174.846 78.0547C174.775 78.0391 174.736 78.0298 174.679 78.0195C174.623 78.0097 174.546 77.9988 174.423 77.9863C174.011 77.9446 173.71 77.5762 173.752 77.1641C173.794 76.7521 174.162 76.4525 174.574 76.4942C174.887 76.5258 175.029 76.5595 175.161 76.5889H175.162C175.257 76.609 175.864 76.665 176.755 76.8819L177.153 76.9854L177.464 77.0703L177.616 77.3535C177.922 77.9232 177.826 78.4931 177.794 78.7578C177.729 79.2983 177.744 80.432 176.981 81.3028C176.858 81.4442 176.432 82.0328 175.665 81.9951C174.417 81.9337 173.498 81.6468 172.856 81.2754C172.316 80.9626 171.727 80.5937 171.272 80.1387C170.807 79.673 170.427 79.0606 170.428 78.2764C170.429 76.7775 170.472 75.4135 171.742 74.0371C172.895 72.7884 173.985 72.1288 174.839 72.0479Z" fill="black"/>
<path d="M187.251 72.7898C187.553 72.8203 187.799 73.0317 187.887 73.3132C187.94 73.3416 187.994 73.3695 188.047 73.3982C188.35 73.5632 188.687 73.7594 189.007 73.9597L189.319 74.1599L189.387 74.2058L189.443 74.2644C189.701 74.5304 190.073 74.9826 190.373 75.5427C190.67 76.0972 190.93 76.8203 190.872 77.6023C190.818 78.3261 190.66 79.0782 190.428 79.7087C190.311 80.0241 190.17 80.3265 190.003 80.5857C189.841 80.8359 189.622 81.097 189.331 81.2654C188.8 81.5721 188.01 82.0226 186.934 82.156C186.467 82.214 185.725 82.2722 184.974 82.2C184.255 82.1307 183.364 81.9276 182.76 81.322C182.741 81.3035 182.718 81.2825 182.661 81.2341C182.614 81.1937 182.538 81.1293 182.464 81.0525C182.301 80.8831 182.121 80.6272 182.079 80.2566C182.002 79.5766 181.944 78.7601 182.008 77.9714C182.07 77.1967 182.258 76.3547 182.753 75.699C183.334 74.9289 184.196 73.8461 185.398 73.3474C185.472 73.3171 185.544 73.2909 185.612 73.2634C185.739 73.0291 185.984 72.8679 186.269 72.8679C186.385 72.8679 186.534 72.8692 186.689 72.8796C186.745 72.8636 186.795 72.8462 186.842 72.8347C186.915 72.8167 187.046 72.7859 187.175 72.7859L187.251 72.7898ZM186.764 74.4294C186.558 74.5017 186.295 74.6 185.973 74.7332C185.193 75.0568 184.547 75.811 183.95 76.6023C183.706 76.9249 183.556 77.432 183.503 78.0925C183.452 78.7197 183.495 79.402 183.564 80.03C183.579 80.0442 183.6 80.0641 183.635 80.0935C183.676 80.1291 183.751 80.1921 183.821 80.2625C184.043 80.4853 184.489 80.6462 185.119 80.7068C185.717 80.7643 186.338 80.7178 186.75 80.6667C187.502 80.5734 188.067 80.2631 188.581 79.9666C188.583 79.965 188.599 79.9542 188.626 79.9255C188.657 79.8922 188.697 79.8423 188.742 79.7722C188.833 79.6305 188.929 79.4345 189.019 79.1902C189.2 78.7009 189.332 78.0872 189.377 77.491C189.406 77.1008 189.275 76.6699 189.051 76.2507C188.849 75.874 188.597 75.5576 188.416 75.3621C188.071 75.1373 187.676 74.9043 187.33 74.7156C187.144 74.6145 186.977 74.5291 186.844 74.4656C186.815 74.4519 186.788 74.4404 186.764 74.4294Z" fill="black"/>
<path d="M200.028 72.8149L200.476 72.8452L200.616 72.8589L200.741 72.9223C201.786 73.4482 202.675 74.1998 202.953 75.0659C203.154 75.6947 203.566 76.6063 203.364 77.9721C203.268 78.6191 203.151 79.324 202.923 79.9448C202.692 80.5746 202.319 81.1953 201.66 81.5903C200.721 82.1528 199.72 82.821 198.102 82.5776C197.471 82.4826 196.842 82.3395 196.316 82.1557C196.053 82.0639 195.801 81.9563 195.581 81.8315C195.369 81.7117 195.139 81.549 194.971 81.3266C194.502 80.7055 194.022 79.1776 194.765 77.2612C195.026 76.5905 195.272 75.9836 195.509 75.5083C195.629 75.2699 195.755 75.0462 195.89 74.8559C196.02 74.6735 196.19 74.4748 196.414 74.3364C197.018 73.9618 197.568 73.7212 198.063 73.5727C198.098 73.454 198.16 73.3415 198.254 73.2485L198.357 73.1577C198.597 72.9656 198.835 72.9136 198.963 72.8852L198.971 72.8842C199.239 72.8279 199.601 72.7996 200.028 72.8149ZM200.154 74.3257C200.062 74.6352 199.779 74.8618 199.439 74.8618C198.956 74.8618 198.219 74.982 197.204 75.6108C197.224 75.598 197.191 75.6141 197.112 75.7251C197.039 75.8283 196.952 75.9772 196.851 76.1792C196.648 76.5846 196.424 77.1315 196.164 77.8032C195.594 79.2699 196.034 80.245 196.168 80.4223C196.161 80.4131 196.192 80.4546 196.32 80.5268C196.438 80.594 196.602 80.6662 196.81 80.7387C197.226 80.8839 197.759 81.009 198.326 81.0942C199.345 81.2476 199.906 80.8913 200.888 80.3032C201.146 80.1487 201.35 79.8773 201.515 79.4282C201.683 78.9701 201.783 78.4079 201.879 77.7534C202.02 76.8062 201.762 76.2662 201.524 75.5229C201.437 75.2531 201.035 74.7786 200.189 74.3286C200.177 74.3277 200.166 74.3264 200.154 74.3257Z" fill="black"/>
<path d="M212.735 71.5937L212.79 71.6025C214.217 71.8317 215.679 72.0802 216.681 73.5762C217.435 74.7034 218.175 75.8273 218.12 77.1933C218.084 78.0874 218.023 78.9133 217.936 79.5761C217.892 79.9068 217.841 80.2087 217.78 80.4638C217.724 80.7005 217.644 80.9653 217.515 81.1748C217.396 81.3675 217.082 82.4924 215.988 83.2607C215.77 83.414 215.436 83.6751 214.984 83.8379C214.511 84.0085 213.955 84.063 213.23 83.9638C212.234 83.8275 211.589 83.7487 210.473 83.4844C210.419 83.4717 210.262 83.4372 210.104 83.3437C209.923 83.2354 209.79 83.0813 209.698 82.9023C209.548 82.6097 209.494 82.2125 209.461 81.747C209.393 80.7907 209.408 78.8977 209.377 77.9668C209.337 76.7753 209.276 76.4451 209.245 76.1914C209.174 75.6103 209.062 74.2046 209.062 73.6181C209.062 73.3555 209.197 73.1252 209.401 72.9912C209.364 72.7481 209.445 72.4918 209.643 72.3164C209.909 72.0804 210.035 71.9875 210.196 71.8955L210.245 71.8672L210.299 71.8476C210.871 71.6276 211.438 71.5779 212.681 71.5928L212.735 71.5937ZM212.605 73.0928C211.503 73.0814 211.161 73.1328 210.898 73.2246C210.888 73.2312 210.877 73.2377 210.863 73.248C210.823 73.2786 210.758 73.3328 210.639 73.4385C210.611 73.4629 210.582 73.4842 210.552 73.5039C210.557 73.5412 210.562 73.5792 210.562 73.6181C210.562 74.1199 210.667 75.4587 210.734 76.0078C210.767 76.2759 210.834 76.658 210.876 77.917C210.912 79.0017 210.89 80.6955 210.957 81.6406C210.97 81.8291 210.986 81.9657 211.002 82.0644C211.928 82.2762 212.494 82.3489 213.435 82.4775C213.978 82.5517 214.28 82.4972 214.476 82.4267C214.693 82.3484 214.837 82.2362 215.126 82.0332C215.895 81.4929 215.78 81.1301 216.237 80.3877C216.236 80.3904 216.272 80.3193 216.321 80.1142C216.366 79.9278 216.41 79.6813 216.449 79.3799C216.528 78.7779 216.586 78.0011 216.621 77.1328C216.653 76.334 216.24 75.6145 215.434 74.4101C214.841 73.5261 214.045 73.3257 212.605 73.0928Z" fill="black"/>
<path d="M168.095 88.4336C168.475 88.425 168.808 88.7055 168.856 89.0908C168.905 89.48 168.645 89.8348 168.268 89.915C168.285 89.9106 168.282 89.9109 168.252 89.9229C168.217 89.9362 168.163 89.9594 168.088 89.9961C167.938 90.0694 167.729 90.184 167.476 90.3418C166.971 90.6571 166.306 91.1361 165.591 91.79C164.904 92.4174 164.78 93.0116 164.565 93.7422C164.417 94.2457 164.452 94.6388 164.4 95.2539C164.361 95.717 164.369 96.4257 164.432 97.1377C164.496 97.8637 164.611 98.5071 164.751 98.874C164.767 98.9157 164.805 98.983 165.036 99.1416C165.054 99.1539 165.129 99.1926 165.304 99.2197C165.472 99.2458 165.684 99.2538 165.931 99.2451C166.395 99.2288 166.909 99.1539 167.366 99.0781C167.931 98.8209 168.545 98.5364 168.926 98.3311C168.992 98.2791 169.158 98.1531 169.338 98.0625C169.707 97.8759 170.159 98.0239 170.345 98.3936C170.532 98.7633 170.383 99.2147 170.013 99.4014C169.977 99.4199 169.951 99.4366 169.924 99.457C169.906 99.4698 169.891 99.4827 169.864 99.5039C169.84 99.5227 169.805 99.5493 169.765 99.5772L169.73 99.6025L169.691 99.624C169.236 99.8735 168.494 100.214 167.898 100.485L167.809 100.526L167.714 100.542C167.226 100.625 166.587 100.723 165.984 100.744C165.682 100.755 165.368 100.747 165.074 100.701C164.788 100.657 164.465 100.568 164.187 100.378C163.9 100.181 163.534 99.8958 163.348 99.4072C163.132 98.8388 163.005 98.0253 162.938 97.2695C162.87 96.4997 162.858 95.7006 162.906 95.1279C162.937 94.7521 162.921 94.0155 163.127 93.3174C163.324 92.6486 163.536 91.6349 164.578 90.6826C165.364 89.9637 166.104 89.4305 166.682 89.0693C166.971 88.8891 167.225 88.749 167.428 88.6494C167.53 88.6 167.624 88.5573 167.709 88.5244C167.775 88.4986 167.894 88.4551 168.019 88.4395L168.095 88.4336Z" fill="black"/>
<path d="M172.3 100.131C172.3 100.095 172.3 99.9521 172.318 99.7846C172.327 99.7064 172.341 99.6202 172.35 99.563C172.359 99.498 172.366 99.4407 172.371 99.3813C172.446 98.4662 172.675 96.9033 172.698 95.0522C172.711 94.0116 172.674 91.9641 172.74 90.8013C172.821 89.3762 172.932 88.8127 173.12 88.437C173.305 88.0665 173.756 87.9159 174.126 88.1011C174.496 88.2862 174.647 88.7365 174.462 89.1069C174.432 89.1658 174.322 89.4243 174.238 90.8872C174.174 92.012 174.211 93.9336 174.197 95.0718C174.173 96.9872 173.931 98.7105 173.866 99.5034C173.857 99.6099 173.844 99.7044 173.833 99.7798C173.821 99.8627 173.815 99.9067 173.81 99.9526C173.8 100.034 173.8 100.108 173.8 100.131C173.8 100.545 173.464 100.881 173.05 100.881C172.636 100.881 172.3 100.545 172.3 100.131Z" fill="black"/>
<path d="M176.745 91.5676V89.5129C176.745 89.0988 177.081 88.763 177.495 88.7629C177.909 88.7629 178.245 89.0987 178.245 89.5129V91.5676C178.245 93.0777 178.245 95.8255 178.231 97.3381C178.217 98.8631 178.19 99.0669 178.175 99.3088C178.171 99.38 178.172 99.4399 178.173 99.4856C178.257 99.6667 178.271 99.8801 178.191 100.08C178.037 100.465 177.601 100.652 177.217 100.498C176.871 100.36 176.762 100.051 176.737 99.9758C176.698 99.8588 176.684 99.7457 176.677 99.6711C176.664 99.5142 176.671 99.3441 176.678 99.219C176.692 98.9934 176.718 98.8163 176.731 97.3245C176.745 95.8202 176.745 93.0808 176.745 91.5676ZM177.976 99.2317C177.968 99.2241 177.958 99.2168 177.949 99.2092C177.958 99.2165 177.967 99.2241 177.976 99.2317Z" fill="black"/>
<path d="M177.989 93.7839C178.403 93.784 178.739 94.1198 178.739 94.5339C178.739 94.9481 178.403 95.2839 177.989 95.2839C177.542 95.2839 177.141 95.2839 176.629 95.3357C176.114 95.3879 175.504 95.4887 175.11 95.5769C174.823 95.6604 174.627 95.7218 174.492 95.7634C174.426 95.7838 174.364 95.8032 174.313 95.8171C174.288 95.8242 174.255 95.8333 174.22 95.8406C174.193 95.8461 174.123 95.8601 174.038 95.8601C173.624 95.8601 173.288 95.5243 173.288 95.1101C173.288 94.7379 173.56 94.4306 173.915 94.3718C173.94 94.3649 173.98 94.3525 174.051 94.3308C174.188 94.2883 174.402 94.2215 174.716 94.1306L174.737 94.1248L174.759 94.1199C175.214 94.0165 175.896 93.9024 176.479 93.8435C177.073 93.7834 177.541 93.7839 177.989 93.7839Z" fill="black"/>
<path d="M186.204 88.7854C186.606 88.6853 187.013 88.9295 187.113 89.3313C187.114 89.335 187.114 89.3392 187.115 89.343C187.395 89.3651 187.571 89.3892 187.729 89.4328L187.886 89.4836L187.923 89.4992C188.066 89.562 188.223 89.6031 188.427 89.6399L188.52 89.6565L188.606 89.6965C189.001 89.8778 190.036 90.1529 191.034 91.1526C191.583 91.7021 192.596 92.7629 192.511 94.591C192.485 95.1711 192.461 95.8317 192.375 96.4397C192.289 97.0406 192.132 97.688 191.778 98.2111C190.952 99.431 189.768 100.491 188.803 100.926C188.362 101.125 187.782 101.361 187.182 101.489C186.597 101.614 185.881 101.661 185.238 101.357C184.725 101.114 184.154 100.814 183.675 100.49C183.435 100.329 183.203 100.151 183.008 99.9611C182.821 99.7792 182.621 99.5416 182.512 99.2531C182.236 98.521 182.035 97.2753 182.111 95.9797C182.156 95.2186 182.282 94.5528 182.556 93.8147C182.775 93.2277 183.309 91.691 184.492 90.1594C185.186 89.2609 185.755 88.8971 186.204 88.7854ZM186.35 90.3684C186.201 90.4817 185.976 90.6923 185.679 91.0764C184.65 92.4088 184.181 93.7482 183.962 94.3381C183.745 94.9204 183.645 95.4369 183.608 96.0676C183.542 97.1917 183.726 98.2222 183.916 98.7238C183.913 98.7164 183.936 98.7718 184.053 98.886C184.163 98.9923 184.318 99.1142 184.513 99.2463C184.905 99.5102 185.4 99.774 185.88 100.001C186.085 100.098 186.411 100.12 186.869 100.023C187.312 99.9281 187.776 99.7438 188.186 99.5588C188.832 99.2674 189.819 98.4287 190.536 97.3703C190.697 97.1317 190.815 96.7564 190.889 96.2287C190.963 95.7083 190.985 95.1332 191.013 94.5217C191.067 93.3656 190.466 92.7063 189.972 92.2121C189.263 91.5015 188.666 91.3553 188.076 91.0988C187.849 91.0546 187.607 90.9924 187.357 90.8869V90.8879C187.339 90.8812 187.328 90.8768 187.293 90.8703C187.244 90.8615 187.156 90.8504 186.985 90.8371C186.692 90.8142 186.454 90.624 186.35 90.3684Z" fill="black"/>
<path d="M200.204 100.131C200.204 99.2135 200.204 98.3037 200.219 97.7864C200.234 97.2335 200.259 97.1897 200.272 95.9563C200.286 94.7317 200.286 92.4549 200.286 91.2981V90.0891C200.286 89.675 200.622 89.3393 201.036 89.3391C201.45 89.3391 201.786 89.6749 201.786 90.0891V91.2981C201.786 92.451 201.786 94.738 201.772 95.9729C201.759 97.1989 201.73 97.373 201.718 97.8284C201.704 98.3194 201.704 99.202 201.704 100.131C201.704 100.545 201.368 100.881 200.954 100.881C200.54 100.881 200.204 100.545 200.204 100.131Z" fill="black"/>
<path d="M200.698 85.4792V85.1501C200.698 84.7359 201.034 84.4001 201.448 84.4001C201.862 84.4001 202.198 84.7359 202.198 85.1501V85.4792C202.198 85.8935 201.862 86.2292 201.448 86.2292C201.034 86.2292 200.698 85.8935 200.698 85.4792Z" fill="black"/>
<path d="M213.105 89.969C213.49 89.8154 213.926 90.0024 214.08 90.387C214.233 90.7716 214.046 91.2079 213.662 91.3616C213.47 91.4381 213.076 91.7114 212.522 92.2679C211.99 92.8023 211.369 93.5401 210.72 94.4544C210.377 94.9395 210.207 95.6893 209.993 96.844C209.855 97.5869 209.894 98.0274 209.962 98.2972C210.029 98.5639 210.133 98.7141 210.271 98.9339C210.447 99.2123 210.7 99.3037 211.594 99.6136C212.295 99.8562 213.414 99.8518 214.647 99.7552C215.353 99.6999 215.816 99.5575 216.138 99.4143C216.48 99.2628 216.662 99.1182 216.935 98.9475L216.965 98.929L216.996 98.9134C217.09 98.8661 217.182 98.8323 217.224 98.8157C217.26 98.8019 217.275 98.7952 217.279 98.7932C217.256 98.8062 217.5 98.6284 217.836 98.5149C218.228 98.3827 218.653 98.5935 218.786 98.9856C218.918 99.3781 218.708 99.8043 218.315 99.9368C218.155 99.991 218.235 99.9762 218.018 100.099C217.917 100.156 217.818 100.194 217.767 100.214C217.727 100.23 217.706 100.238 217.691 100.244C217.513 100.36 217.183 100.592 216.747 100.785C216.258 101.002 215.627 101.183 214.764 101.25C213.56 101.345 212.139 101.39 211.103 101.031C210.411 100.791 209.522 100.558 209.003 99.7347C208.881 99.5417 208.642 99.1978 208.508 98.6643C208.374 98.1337 208.352 97.4667 208.518 96.5706C208.715 95.5082 208.924 94.3941 209.497 93.5862C210.184 92.6176 210.858 91.814 211.459 91.2102C212.038 90.6285 212.613 90.1658 213.105 89.969Z" fill="black"/>
<path d="M223.005 90.4182C223.005 90.0041 223.341 89.6684 223.755 89.6682C224.169 89.6682 224.505 90.004 224.505 90.4182C224.505 91.4261 224.505 92.4404 224.45 94.1379C224.396 95.8208 224.287 98.1811 224.245 99.3127C224.233 99.6487 224.227 99.8655 224.224 100.001C224.261 100.126 224.27 100.261 224.236 100.396C224.234 100.406 224.226 100.435 224.218 100.463C224.213 100.478 224.206 100.503 224.194 100.533C224.189 100.548 224.159 100.631 224.095 100.719C224.066 100.758 223.978 100.873 223.817 100.952C223.605 101.057 223.331 101.064 223.095 100.92C222.916 100.812 222.836 100.662 222.811 100.613C222.779 100.548 222.763 100.493 222.756 100.464C222.731 100.37 222.727 100.281 222.726 100.259C222.72 100.117 222.725 99.8194 222.746 99.2571C222.789 98.0905 222.897 95.7786 222.951 94.0901C223.005 92.4163 223.005 91.4204 223.005 90.4182Z" fill="black"/>
<path d="M223.981 89.063C224.163 89.0609 224.493 89.0724 225.101 89.1059C226.331 89.1739 228.787 89.3378 231.319 89.5893C231.731 89.6303 232.032 89.9977 231.991 90.4097C231.95 90.8218 231.583 91.1235 231.171 91.0825C228.666 90.8336 226.232 90.671 225.018 90.604C224.45 90.5727 224.167 90.5631 224.029 90.563C223.968 90.5794 223.904 90.5923 223.837 90.5923C223.423 90.5923 223.087 90.2564 223.087 89.8423V89.8325C223.087 89.8268 223.087 89.8173 223.088 89.8061C223.089 89.7841 223.091 89.7485 223.099 89.7056C223.115 89.611 223.155 89.4953 223.237 89.3843C223.391 89.1782 223.595 89.1178 223.655 89.1011C223.782 89.0657 223.916 89.0637 223.981 89.063Z" fill="black"/>
<path d="M230.176 95.0188C230.59 95.0191 230.926 95.3547 230.926 95.7688C230.926 96.1829 230.59 96.5185 230.176 96.5188C229.805 96.5188 229.449 96.5175 228.505 96.6125C227.542 96.7094 226.031 96.8987 225.251 96.9944C224.516 97.0846 224.418 97.095 224.331 97.095C223.917 97.095 223.581 96.7592 223.581 96.345C223.581 95.9308 223.917 95.595 224.331 95.595C224.33 95.595 224.323 95.5947 224.314 95.595C224.308 95.5952 224.304 95.5959 224.303 95.5959C224.309 95.5954 224.331 95.5939 224.383 95.5881C224.485 95.5768 224.681 95.5526 225.068 95.5051C225.838 95.4107 227.37 95.2194 228.354 95.1204C229.357 95.0195 229.763 95.0188 230.176 95.0188Z" fill="black"/>
<path d="M231.492 99.4636C231.906 99.4636 232.242 99.7994 232.242 100.214C232.242 100.628 231.906 100.964 231.492 100.964C230.396 100.964 229.347 100.964 228.73 100.977C228.115 100.991 227.973 101.016 227.421 101.046H227.415C226.235 101.1 225.345 101.142 224.698 101.159C224.079 101.175 223.597 101.174 223.286 101.115C222.879 101.038 222.611 100.646 222.688 100.239C222.765 99.832 223.158 99.5644 223.565 99.6414C223.689 99.6647 224.001 99.6774 224.658 99.6599C225.286 99.6432 226.155 99.6036 227.34 99.5486V99.5476C227.818 99.522 228.056 99.4926 228.697 99.4783C229.335 99.464 230.405 99.4636 231.492 99.4636Z" fill="black"/>
<path d="M43.5609 71.3611C43.6804 70.9645 44.0989 70.7397 44.4955 70.8591C44.8917 70.9787 45.1165 71.3964 44.9974 71.7927C44.9244 72.0352 44.6966 72.9231 44.4887 73.5623C44.4063 73.8155 44.2487 74.1234 44.0873 74.4177C43.919 74.7247 43.7111 75.0807 43.5043 75.4392C43.078 76.1781 42.6504 76.9398 42.4115 77.5632C42.205 78.1024 42.1227 78.4965 41.8598 79.3367C41.3835 80.8585 41.1563 81.7671 41.0209 82.3591C40.8964 82.9033 40.8268 83.3081 40.682 83.6609C40.3577 84.4509 40.349 84.8742 40.0892 86.1414C39.9377 86.8807 39.8512 87.4554 39.7699 87.9783C39.7004 88.4255 39.6529 89.0397 39.4672 89.8367C39.4089 90.0869 39.3673 90.3482 39.3226 90.6482C39.2791 90.9408 39.232 91.2712 39.1625 91.6189C39.1013 91.925 39.0553 92.2935 39.0092 92.7009C38.9645 93.0958 38.919 93.5308 38.8598 93.9236C38.7053 94.9474 38.6226 95.6288 38.5746 96.9265C38.5284 98.176 38.4297 99.8674 38.3021 100.523C38.2132 100.98 38.3447 101.29 38.5336 102.011L38.5482 102.066L38.5541 102.125C38.5749 102.328 38.6087 102.478 38.6459 102.587L38.684 102.683L38.7074 102.734L38.724 102.789C38.7495 102.877 38.8009 103.084 38.7543 103.307C38.7328 103.41 38.6389 103.748 38.2641 103.892C37.9063 104.03 37.6157 103.862 37.5346 103.81C37.2614 103.635 37.143 103.314 37.2103 103.014C37.1445 102.807 37.1001 102.586 37.0726 102.353C36.934 101.84 36.6613 101.101 36.8295 100.237C36.9301 99.7203 37.028 98.1576 37.0756 96.8709C37.1261 95.505 37.2164 94.7665 37.3773 93.7C37.4312 93.3429 37.4717 92.949 37.5189 92.532C37.5647 92.1274 37.6166 91.7008 37.6918 91.325C37.7524 91.0218 37.7938 90.7328 37.8392 90.4275C37.8836 90.1295 37.9325 89.8133 38.0062 89.4968C38.1764 88.7666 38.1963 88.3343 38.2875 87.7478C38.3681 87.2292 38.4596 86.6204 38.6195 85.8406C38.8454 84.7391 38.8987 84.0552 39.2943 83.0916C39.3767 82.8909 39.4036 82.7034 39.559 82.0242C39.7034 81.3927 39.9406 80.4462 40.4281 78.8884C40.6499 78.1798 40.7854 77.6164 41.0111 77.0271C41.2994 76.2745 41.7884 75.4104 42.2045 74.6892C42.4189 74.3175 42.6138 73.9843 42.7719 73.6961C42.9367 73.3954 43.0294 73.2012 43.0629 73.0984C43.28 72.4309 43.4389 71.7663 43.5609 71.3611Z" fill="black"/>
<path d="M37.9506 103.2C38.3489 103.086 38.764 103.318 38.8774 103.716C38.879 103.721 38.8842 103.736 38.8969 103.764C38.9137 103.801 38.9386 103.849 38.9711 103.907C39.0362 104.023 39.1254 104.164 39.2338 104.318C39.4532 104.629 39.7272 104.956 39.9936 105.202C40.239 105.428 40.4914 105.764 40.7299 106.117C40.9766 106.482 41.2405 106.914 41.5053 107.368C42.0313 108.269 42.5949 109.315 43.0531 110.132C43.2479 110.48 43.5304 110.776 43.8979 111.094C44.083 111.254 44.2759 111.409 44.4887 111.582C44.6966 111.75 44.9192 111.931 45.1371 112.129C46.6498 113.503 47.3191 114.555 48.019 115.746C48.6929 116.892 49.3126 117.748 49.7875 118.398C50.0795 118.797 50.4815 119.278 50.9076 119.787C51.3237 120.283 51.7638 120.807 52.0961 121.257C53.0848 122.598 53.3646 123.373 53.7924 124.403C54.77 126.757 55.4173 127.633 55.8451 128.312C56.191 128.861 56.439 129.366 56.6781 129.884C56.92 130.409 57.1441 130.926 57.4633 131.564C58.1024 132.841 58.4191 133.954 58.6899 134.817C59.1051 136.141 59.4242 137.606 58.9867 139.643C58.7707 140.649 58.5131 141.488 58.1889 142.246C58.0488 142.573 57.9808 142.987 57.9281 143.514C57.8794 144.002 57.8423 144.621 57.7328 145.183C57.547 146.137 57.496 147.477 57.4184 149.092C57.3581 150.345 57.1845 151.435 57.0903 152.444C57.0474 152.903 56.9167 153.419 56.769 153.947C56.6138 154.501 56.4407 155.067 56.2651 155.731C56.1612 156.124 56.0905 156.515 56.019 156.945C55.9486 157.367 55.8757 157.834 55.7709 158.332C55.5659 159.305 55.3624 160.121 55.1332 160.962C54.8737 161.915 54.605 162.897 54.2778 164.058C53.8734 165.492 53.0775 167.639 52.6996 168.641C52.4047 169.423 52.0279 170.146 51.5844 170.876L51.5287 170.968L51.4496 171.041C51.2629 171.211 51.1185 171.421 51.0053 171.686L50.9789 171.749L50.9418 171.804C50.8494 171.944 50.7272 172.069 50.6869 172.113C50.6337 172.171 50.594 172.218 50.5531 172.286C50.3382 172.64 49.8769 172.753 49.5229 172.538C49.1688 172.323 49.0559 171.861 49.2709 171.507C49.3836 171.322 49.4949 171.193 49.5795 171.1C49.6261 171.049 49.6419 171.033 49.6654 171.006C49.832 170.642 50.0541 170.311 50.3461 170.022C50.7361 169.373 51.0526 168.758 51.2963 168.112C51.678 167.099 52.4495 165.013 52.8334 163.651C53.1588 162.496 53.4268 161.519 53.686 160.568C53.9089 159.75 54.1052 158.962 54.3031 158.023C54.3995 157.566 54.4656 157.142 54.5395 156.699C54.6122 156.262 54.6919 155.812 54.8149 155.347C54.9919 154.678 55.1842 154.044 55.3246 153.542C55.4723 153.015 55.5671 152.615 55.5961 152.305C55.7038 151.151 55.8614 150.246 55.9203 149.02C55.9949 147.47 56.0479 145.985 56.2602 144.896C56.3519 144.425 56.3782 143.943 56.436 143.365C56.4899 142.826 56.5724 142.211 56.81 141.656C57.0886 141.004 57.3196 140.26 57.5199 139.328C57.8827 137.639 57.6309 136.454 57.2582 135.266C56.9774 134.371 56.6958 133.383 56.1215 132.236C55.7881 131.57 55.5414 131.002 55.3158 130.513C55.0875 130.018 54.8709 129.58 54.5756 129.112C54.1489 128.435 53.4383 127.462 52.4067 124.978C51.9814 123.954 51.76 123.329 50.8891 122.148C50.5906 121.743 50.1848 121.259 49.7582 120.75C49.3418 120.254 48.9042 119.731 48.5766 119.283C48.0944 118.623 47.439 117.718 46.726 116.505C46.0664 115.384 45.486 114.474 44.1283 113.241C43.9444 113.074 43.7512 112.914 43.5453 112.748C43.3441 112.585 43.1252 112.41 42.9164 112.229C42.4963 111.866 42.0636 111.435 41.7445 110.866C41.2668 110.013 40.7282 109.013 40.2094 108.124C39.9519 107.682 39.7076 107.282 39.4877 106.957C39.2598 106.619 39.0872 106.407 38.977 106.305C38.6134 105.97 38.2711 105.556 38.0082 105.183C37.7638 104.837 37.5215 104.434 37.434 104.126C37.3208 103.728 37.5523 103.313 37.9506 103.2Z" fill="black"/>
<path d="M49.6104 171.448C50.337 171.448 51.3713 171.5 52.3692 171.619C53.338 171.735 54.3794 171.926 55.0538 172.248C55.7216 172.567 56.3808 172.928 56.9425 173.298C57.4888 173.657 58.001 174.062 58.3194 174.479C58.9563 175.312 58.982 176.232 58.794 176.839C58.6354 177.351 58.2601 177.659 57.8263 177.8C57.439 177.926 57.0041 177.923 56.6114 177.886C55.8399 177.813 54.816 177.556 53.9229 177.383C52.713 177.148 51.9108 176.828 51.3077 176.486C51.0091 176.317 50.7701 176.149 50.5694 176C50.3554 175.841 50.2261 175.737 50.0772 175.638L50.0099 175.593L49.9532 175.535C49.2067 174.762 48.8099 174.087 48.5284 173.468L48.5206 173.452L48.5147 173.437C48.3922 173.132 48.3322 172.889 48.2804 172.682C48.1799 172.28 48.4244 171.873 48.8263 171.772C48.8881 171.757 48.9499 171.753 49.0108 171.753C49.1475 171.569 49.3639 171.448 49.6104 171.448ZM49.9464 172.953C50.1578 173.397 50.4498 173.88 50.9903 174.448C51.1553 174.563 51.324 174.692 51.463 174.795C51.639 174.925 51.823 175.054 52.047 175.181C52.4894 175.431 53.1345 175.702 54.2091 175.91C55.2451 176.111 56.0759 176.329 56.752 176.393C57.083 176.424 57.2707 176.403 57.3624 176.373C57.3638 176.373 57.365 176.372 57.3663 176.371C57.421 176.167 57.4254 175.779 57.127 175.389C56.9653 175.177 56.6256 174.885 56.1183 174.551C55.626 174.227 55.0286 173.898 54.4073 173.602C53.9769 173.396 53.1563 173.224 52.1905 173.108C51.4005 173.014 50.5841 172.966 49.9464 172.953Z" fill="black"/>
<path d="M36.833 103.237C37.1027 102.923 37.5763 102.887 37.8906 103.156C38.2048 103.426 38.2403 103.9 37.9707 104.214C37.811 104.4 37.4469 105.02 37.4229 106.321C37.4079 107.13 37.4144 108.102 37.4121 109.026C37.4099 109.932 37.3992 110.81 37.3447 111.379C37.2012 112.88 36.996 114.167 36.9199 115.374C36.8787 116.027 36.7531 116.816 36.6289 117.562C36.5013 118.327 36.3751 119.049 36.3145 119.627C36.2689 120.062 36.1823 120.563 36.0967 121.056C36.0092 121.559 35.9215 122.061 35.8604 122.533C35.7505 123.381 35.6318 125.187 35.3223 126.614C35.0312 127.957 35.0399 128.799 34.959 129.736C34.9107 130.295 34.8108 130.862 34.7197 131.381C34.6262 131.914 34.5426 132.396 34.5078 132.844C34.4318 133.824 34.2708 134.868 33.9326 136.143C33.6452 137.226 33.6893 138 33.5762 139.069C33.45 140.262 33.0348 141.506 32.665 142.355C32.1359 143.572 31.162 144.641 30.5439 145.377C29.5137 146.604 27.7453 148.509 26.4404 149.633C25.9178 150.083 24.9248 150.641 23.918 151.159C22.8834 151.692 21.7435 152.229 20.8652 152.636C20.1128 152.984 19.443 153.098 18.7236 153.147C18.3743 153.17 18.0004 153.179 17.6113 153.191C17.2166 153.204 16.788 153.219 16.2998 153.256C14.5399 153.387 11.3519 153.309 9.64062 153.284C7.8844 153.259 7.60009 153.208 7.125 153.184C6.64768 153.159 5.92479 153.158 5.14746 153.158C4.73325 153.158 4.39746 152.822 4.39746 152.408C4.39768 151.994 4.73338 151.658 5.14746 151.658C5.90724 151.658 6.6762 151.659 7.20117 151.686C7.7283 151.713 7.94193 151.76 9.66211 151.784C11.4278 151.809 14.5154 151.885 16.1885 151.76C16.7095 151.721 17.1634 151.705 17.5645 151.692C17.9713 151.68 18.3079 151.671 18.6221 151.649C19.2296 151.608 19.7031 151.521 20.2344 151.274C21.109 150.869 22.2259 150.343 23.2314 149.825C24.2642 149.293 25.0949 148.812 25.4609 148.497C26.6807 147.446 28.3908 145.608 29.3945 144.412C30.0832 143.592 30.8698 142.723 31.29 141.757C31.6225 140.993 31.9801 139.903 32.085 138.912C32.1738 138.072 32.1574 136.987 32.4834 135.758C32.7978 134.573 32.9426 133.619 33.0117 132.729C33.0531 132.196 33.1512 131.641 33.2422 131.122C33.3356 130.59 33.4232 130.089 33.4648 129.607C33.5361 128.782 33.5383 127.763 33.8564 126.296C34.1497 124.943 34.2407 123.355 34.3721 122.341C34.4383 121.83 34.5336 121.291 34.6191 120.799C34.7065 120.296 34.7829 119.845 34.8223 119.47C34.889 118.833 35.0266 118.052 35.1494 117.315C35.2756 116.558 35.3873 115.844 35.4229 115.279C35.499 114.072 35.7229 112.581 35.8516 111.236C35.8981 110.75 35.9098 109.945 35.9121 109.022C35.9143 108.12 35.9077 107.119 35.9229 106.294C35.9516 104.735 36.3928 103.751 36.833 103.237Z" fill="black"/>
<path d="M5.0958 151.589C5.31825 151.38 5.65443 151.319 5.94346 151.463C6.12523 151.554 6.29032 151.633 6.43955 151.735L6.58409 151.844L6.61534 151.871L6.64366 151.903C6.80591 152.078 6.95736 152.269 7.09678 152.476L7.23252 152.688L7.26377 152.74L7.28721 152.796C7.51381 153.356 7.82685 154.077 8.02647 154.894C8.16011 155.441 8.33788 156.123 8.42686 156.782C8.51454 157.433 8.53481 158.179 8.26768 158.838C8.23044 158.93 8.16429 159.077 8.05284 159.213C7.93162 159.362 7.73269 159.525 7.44346 159.573C7.16482 159.618 6.82148 159.653 6.48838 159.611C6.16153 159.569 5.72594 159.437 5.43272 159.04C5.29831 158.858 5.17735 158.671 5.06065 158.49C4.94115 158.304 4.81821 158.112 4.66319 157.894C4.52231 157.695 4.24389 157.367 4.0753 156.711C3.91694 156.095 3.85693 155.218 3.96104 153.843C4.03034 152.928 4.08738 152.412 4.11827 152.195C4.17659 151.785 4.55681 151.5 4.9669 151.558C5.01158 151.564 5.05438 151.576 5.0958 151.589ZM5.45713 153.956C5.35823 155.263 5.42919 155.952 5.52842 156.338C5.61741 156.684 5.72346 156.795 5.88682 157.026C6.06346 157.275 6.20299 157.492 6.32237 157.677C6.43226 157.848 6.52056 157.983 6.61045 158.108C6.62431 158.111 6.645 158.118 6.67588 158.122C6.74366 158.131 6.82747 158.131 6.92491 158.124C6.99847 157.842 7.0052 157.462 6.94053 156.983C6.86488 156.422 6.7117 155.837 6.56846 155.25C6.40647 154.587 6.15793 154.002 5.921 153.419C5.81388 153.249 5.70034 153.098 5.58311 152.966C5.57599 152.962 5.566 152.956 5.55284 152.949C5.54973 152.947 5.54633 152.945 5.54307 152.944C5.51871 153.193 5.48966 153.527 5.45713 153.956Z" fill="black"/>
<path d="M1.61057 153.688C1.98886 153.726 2.2844 154.045 2.2844 154.434C2.2844 154.731 2.1096 154.985 1.85862 155.107C1.81115 155.165 1.73707 155.273 1.64182 155.448C1.58017 155.636 1.53593 155.905 1.51194 156.282C1.48804 156.659 1.48831 157.052 1.62425 157.604C1.72331 158.006 1.4776 158.412 1.07542 158.511C0.673225 158.61 0.267256 158.364 0.168191 157.962C-0.0147759 157.219 -0.0154503 156.665 0.0148704 156.188C0.0432744 155.741 0.10154 155.285 0.247292 154.889L0.26487 154.842L0.288308 154.797C0.436349 154.517 0.585991 154.285 0.734597 154.113C0.808001 154.027 0.896765 153.938 1.0012 153.864C1.08878 153.801 1.27814 153.684 1.5344 153.684L1.61057 153.688Z" fill="black"/>
</svg>
