<svg width="96" height="295" viewBox="0 0 96 295" fill="none" xmlns="http://www.w3.org/2000/svg">
<path d="M27.3301 51.4047C28.4162 51.2096 29.4039 51.4011 29.7773 51.4232C31.9994 51.5549 32.6789 51.6106 33.3535 51.6537C33.7247 51.6774 34.2095 51.7432 34.667 51.806C35.1446 51.8716 35.6125 51.9366 36.0088 51.973C36.6003 52.0273 37.1234 52.1759 37.6152 52.3597C37.8902 52.4625 38.1435 52.5894 38.3213 52.6742C38.5169 52.7676 38.649 52.8243 38.7744 52.8597L38.7959 52.8666L38.8164 52.8734C38.9042 52.9025 38.9824 52.9349 39.0254 52.9525C39.0768 52.9737 39.0928 52.9795 39.1054 52.9838C39.1145 52.9867 39.3575 53.0507 39.6162 53.1791C40.1108 53.4246 40.3127 54.0242 40.0674 54.5189C39.8218 55.0136 39.2222 55.2156 38.7275 54.9701C38.632 54.9227 38.6583 54.9439 38.4687 54.8802C38.3827 54.8514 38.3058 54.819 38.2646 54.8021C38.2151 54.7818 38.1998 54.7756 38.1884 54.7718V54.7709C37.904 54.6863 37.6548 54.5719 37.4599 54.4789C37.2376 54.3727 37.0859 54.2976 36.915 54.2338C36.5299 54.0898 36.1869 53.9973 35.8261 53.9642C35.3749 53.9228 34.8559 53.8507 34.3955 53.7875C33.9148 53.7214 33.5096 53.6669 33.2265 53.6488C32.5216 53.6038 31.8816 53.551 29.6592 53.4193C28.9237 53.3757 28.4581 53.2343 27.6836 53.3734C27.0216 53.4923 26.7106 53.5828 26.1582 53.849C25.8728 53.9865 25.6064 54.1107 25.374 54.2045C25.1606 54.2906 24.8875 54.3886 24.6123 54.4134C24.0624 54.4631 23.5762 54.058 23.5263 53.5082C23.4766 52.9581 23.8825 52.472 24.4326 52.4222C24.3972 52.4254 24.4405 52.4248 24.6259 52.35C24.7923 52.2828 25.007 52.1836 25.29 52.0472C26.0385 51.6866 26.5295 51.5485 27.3301 51.4047Z" fill="black"/>
<path d="M34.3631 46.725C35.3673 46.7716 36.0359 46.9245 36.5672 47.0678C37.1149 47.2154 37.3453 47.2936 37.6708 47.3051C38.3635 47.3295 39.0157 47.4698 39.4881 47.5648C39.9061 47.6489 40.5462 47.7545 41.2079 47.9281C41.6457 48.043 42.0721 48.2091 42.4315 48.3597C42.8265 48.5253 43.0843 48.6458 43.327 48.7387C43.9768 48.9873 44.4182 49.1749 44.9168 49.4242C45.279 49.6053 45.5489 49.86 45.7694 50.1137C45.9655 50.3394 46.162 50.6127 46.3534 50.8764C46.8238 51.377 47.1769 51.7312 47.3016 51.8558C47.3675 51.9218 47.4328 51.987 47.5653 52.1195C47.9556 52.51 47.9555 53.1431 47.5653 53.5336C47.1748 53.924 46.5418 53.9239 46.1512 53.5336C46.0185 53.4009 45.9526 53.3359 45.8866 53.2699C45.7522 53.1356 45.3657 52.7491 44.8553 52.2045L44.8133 52.1596L44.7772 52.1088C44.5446 51.789 44.3977 51.5851 44.2596 51.4262C44.1323 51.2797 44.0626 51.2335 44.0223 51.2133C43.6015 51.0028 43.2249 50.8413 42.6122 50.6068C42.3383 50.502 41.9569 50.3298 41.6581 50.2045C41.3235 50.0642 41.0001 49.9414 40.7 49.8627C40.1127 49.7086 39.6058 49.6288 39.0936 49.5258C38.58 49.4224 38.0978 49.3216 37.6004 49.3041C36.9844 49.2824 36.4671 49.1128 36.0467 48.9994C35.6099 48.8816 35.0895 48.7601 34.2704 48.7221C33.498 48.6862 33.2815 48.8438 33.3309 48.8129C32.8629 49.106 32.2452 48.9644 31.952 48.4965C31.6588 48.0285 31.8005 47.4108 32.2684 47.1176C32.666 46.8685 33.3237 46.6767 34.3631 46.725Z" fill="black"/>
<path d="M40.2438 66.7681C40.7797 66.6346 41.3222 66.9617 41.4557 67.4976C41.4794 67.5929 41.488 67.6883 41.484 67.7818C41.5068 67.799 41.5291 67.8152 41.5494 67.8325L41.6354 67.9126L41.7193 68.0054C41.7434 68.0346 41.7633 68.0616 41.7799 68.0845C41.8109 68.1275 41.838 68.1697 41.8492 68.187C41.8569 68.1989 41.8625 68.2065 41.8658 68.2114C42.151 68.53 42.7048 69.08 42.8483 69.8443C42.9361 70.3123 42.9331 70.8623 42.9117 71.312C42.8895 71.7776 42.8427 72.22 42.816 72.4839C42.7448 73.1884 42.634 73.7863 42.441 74.3638C42.3658 74.5889 42.2252 75.0033 41.9957 75.3657C41.782 75.7032 41.307 76.2771 40.4957 76.2603C40.2083 76.2542 39.8445 76.2415 39.5094 76.1626C39.1678 76.0822 38.7091 75.8999 38.4039 75.4409C38.2897 75.2691 38.0101 74.9169 37.8629 74.2046C37.7289 73.5561 37.7049 72.6412 37.8609 71.2349C37.9678 70.273 38.1963 69.651 38.2525 69.4068C38.27 69.3309 38.285 69.2477 38.3053 69.1314C38.3239 69.0242 38.3473 68.8855 38.3795 68.7446C38.4446 68.4603 38.5592 68.0912 38.8199 67.7417C39.043 67.4429 39.3219 67.2254 39.5504 67.0816C39.7689 66.944 40.021 66.8236 40.2438 66.7681Z" fill="black"/>
<path d="M28.9804 66.9551C29.3463 66.7933 29.7663 66.8698 30.0536 67.1299C30.0788 67.1343 30.1067 67.1403 30.1386 67.1456C30.2382 67.162 30.3911 67.1867 30.539 67.2217C30.791 67.2815 31.2849 67.4261 31.6083 67.8917L31.6708 67.9893L31.7255 68.0958C31.7731 68.1991 31.7998 68.2931 31.8144 68.3477C31.8388 68.4392 31.8583 68.5363 31.8739 68.6309C31.9053 68.8214 31.93 69.0521 31.9472 69.3096C31.9819 69.8277 31.9893 70.5025 31.9472 71.2706C31.8958 72.2078 31.8666 72.9885 31.7245 73.5801C31.664 73.8322 31.5858 74.2 31.4833 74.5128C31.3798 74.8286 31.2047 75.2467 30.8544 75.5753C30.6744 75.7441 30.2012 76.1878 29.4814 76.1495C29.1825 76.1335 28.7788 76.1104 28.4238 76.0089C28.2483 75.9587 28.0394 75.8743 27.8427 75.7354C27.5586 75.576 27.306 75.3409 27.1122 75.0577C26.8821 74.7212 26.2508 73.9595 26.4355 72.7237C26.508 72.2386 26.576 71.715 26.7265 71.1934C26.8444 70.7848 26.8517 70.4572 26.9609 69.7247C26.9771 69.616 26.9874 69.5073 27.0068 69.3428C27.0241 69.1952 27.0479 69.0129 27.0868 68.8301C27.1521 68.5237 27.3175 67.9099 27.8925 67.5616L28.2353 67.3663C28.3565 67.3034 28.4918 67.2431 28.6347 67.1905C28.704 67.128 28.7893 67.0581 28.8896 67.001L28.9804 66.9551Z" fill="black"/>
<path d="M28.204 60.5809C28.6864 60.3119 29.2963 60.485 29.5653 60.9674C29.834 61.4497 29.6607 62.0588 29.1785 62.3277C29.2007 62.3153 29.1971 62.3153 29.1644 62.3401C29.1363 62.3614 29.0975 62.3927 29.051 62.434C28.957 62.5177 28.8471 62.6277 28.7433 62.7503C28.6652 62.8427 28.5968 62.9491 28.4943 63.12C28.3995 63.2782 28.2669 63.5068 28.0953 63.7388C27.8458 64.0763 27.5641 64.4597 27.2226 64.8505C27.1217 64.9659 27.0634 65.0876 27.0123 65.2612C26.9841 65.3572 26.9617 65.4567 26.9309 65.5924C26.9025 65.7176 26.8651 65.8817 26.8143 66.0473C26.6679 66.5246 26.4868 66.9654 26.2309 67.4459C26.0529 67.7803 25.9476 68.098 25.8781 68.414C25.8681 68.4866 25.86 68.5749 25.8571 68.6567C25.8537 68.751 25.8566 68.9215 25.8206 69.2302C25.7566 69.7786 25.2596 70.1716 24.7111 70.1077C24.1626 70.0437 23.7696 69.5467 23.8336 68.9981C23.8574 68.7935 23.8532 68.7425 23.8588 68.5859C23.8646 68.4252 23.8794 68.2502 23.9032 68.0928L23.9083 68.0635L23.9137 68.0352C24.0148 67.5573 24.1782 67.0461 24.4654 66.5065C24.6618 66.1377 24.7935 65.8148 24.9022 65.4605C24.9278 65.3769 24.9492 65.2843 24.9796 65.1503C25.0075 65.0273 25.0443 64.8644 25.0935 64.697C25.1976 64.3433 25.3686 63.9332 25.7166 63.5348C25.9953 63.2159 26.229 62.8983 26.4867 62.5497C26.5877 62.4132 26.6645 62.2813 26.7781 62.0917C26.884 61.9152 27.0238 61.686 27.2159 61.4588C27.5292 61.0886 27.9196 60.7395 28.204 60.5809Z" fill="black"/>
<path d="M42.1232 58.0074C42.702 58.0792 43.2068 58.3546 43.5978 58.6109C43.7152 58.6878 43.941 58.8004 44.2912 58.9722C44.6062 59.1268 44.9955 59.3181 45.3331 59.5181C46.0476 59.9415 46.441 60.5827 46.715 61.1675C46.8708 61.5001 47.0017 61.8275 47.0773 62.0005C47.1229 62.1049 47.1554 62.1728 47.1798 62.2173L47.2306 62.2955L47.2521 62.3208C47.6134 62.7795 47.7745 63.2647 47.841 63.5962C48.1071 64.0231 48.0157 64.5901 47.6115 64.9087C47.1777 65.2505 46.549 65.1764 46.2072 64.7427C45.9568 64.425 45.902 64.0997 45.88 63.9898C45.859 63.8846 45.8018 63.7128 45.6808 63.5591L45.6818 63.5572C45.4748 63.3035 45.3426 63.0264 45.2443 62.8013C45.127 62.5327 45.0494 62.3277 44.9035 62.0162C44.696 61.5733 44.5193 61.3608 44.3136 61.2388C44.0565 61.0864 43.7411 60.9309 43.4093 60.7681C43.1128 60.6226 42.7493 60.4457 42.5021 60.2837C42.1916 60.0802 41.997 60.0066 41.8771 59.9917C41.329 59.9238 40.94 59.4246 41.008 58.8765C41.0759 58.3284 41.5751 57.9394 42.1232 58.0074Z" fill="black"/>
<path d="M41.7192 83.4354C44.3185 83.4485 44.7876 83.5365 45.3276 83.5809C46.2728 83.6585 47.2292 83.7363 48.0707 83.8758C48.6512 83.972 49.2347 84.0897 50.0365 84.3641C50.5507 84.54 50.9759 84.6638 51.8305 84.8914C52.3836 85.0387 52.8523 85.1778 53.4008 85.4432L53.641 85.5652L53.6752 85.5838L53.7084 85.6043C53.8109 85.6692 53.8886 85.7287 53.9457 85.7742C53.9591 85.7849 53.9721 85.7947 53.9818 85.8025C53.9891 85.8084 53.9945 85.8132 53.9994 85.8172C54.0072 85.8198 54.0179 85.8247 54.0326 85.8289C54.5632 85.9818 54.869 86.5356 54.7162 87.0662C54.5633 87.5969 54.0096 87.9036 53.4789 87.7508C53.2419 87.6825 53.0446 87.5957 52.8539 87.4588C52.8141 87.4302 52.7798 87.4032 52.7553 87.3836C52.7433 87.374 52.7309 87.3644 52.7221 87.3572C52.7126 87.3496 52.7057 87.3433 52.6986 87.3377C52.6853 87.327 52.6735 87.3195 52.6635 87.3123C52.2242 87.0843 51.8769 86.9735 51.3158 86.824C50.4445 86.5919 49.9678 86.4546 49.3891 86.2566C48.7226 86.0286 48.2534 85.933 47.7436 85.8484C47 85.7252 46.1329 85.6535 45.1645 85.574C44.6323 85.5303 44.2276 85.4481 41.7094 85.4354C39.551 85.4244 35.5687 85.3854 33.5317 85.4471C31.3621 85.5128 31.1035 85.6146 30.3559 85.6639C30.0646 85.683 29.7807 85.7222 29.4779 85.7654C29.191 85.8064 28.8618 85.8547 28.5492 85.8719C28.0597 85.8989 27.6413 86.0023 27.2709 86.1521C27.0061 86.2593 26.5526 86.4966 25.9379 86.8016C25.3716 87.0825 24.6939 87.4058 24.1098 87.5975C23.8565 87.6806 23.5687 87.7924 23.3354 87.8943C23.2185 87.9454 23.1266 87.9899 23.0649 88.0223C23.0507 88.0297 23.039 88.0352 23.0307 88.0398C22.6395 88.3428 22.0756 88.317 21.7152 87.9588C21.3236 87.5694 21.322 86.9364 21.7113 86.5447L21.8529 86.4227C21.8967 86.3903 21.934 86.3664 21.9565 86.3523C22.0164 86.3148 22.0791 86.2802 22.1371 86.2498C22.2543 86.1885 22.3924 86.1245 22.5346 86.0623C22.8199 85.9376 23.1675 85.8028 23.4867 85.698C23.9175 85.5567 24.4766 85.2946 25.0492 85.0105C25.5736 84.7504 26.1622 84.4428 26.5209 84.2977C27.0908 84.0671 27.7254 83.9142 28.4399 83.8748C28.6474 83.8633 28.8823 83.8307 29.1957 83.7859C29.4934 83.7434 29.8471 83.6926 30.224 83.6678C30.7428 83.6336 31.3018 83.5128 33.4711 83.4471C35.5546 83.384 39.5938 83.4246 41.7192 83.4354Z" fill="black"/>
<path d="M44.8455 108.624C45.2373 108.235 45.8703 108.236 46.2596 108.628C46.6489 109.019 46.6464 109.652 46.2547 110.042C46.2792 110.017 46.191 110.119 46.0526 110.524C45.9307 110.881 45.8074 111.357 45.6864 111.927C45.4449 113.063 45.2303 114.483 45.0448 115.885C44.6573 118.813 44.2918 122.075 43.6639 125.483C43.2904 127.51 43.011 129.218 42.7616 130.753C42.5127 132.284 42.292 133.653 42.0389 134.983C41.4969 137.831 40.5017 140.872 39.8377 143.301C39.1738 145.729 38.8038 148.165 38.2918 150.725C37.9728 152.321 37.8208 154.16 37.6522 156.022C37.4873 157.844 37.3047 159.708 36.9041 161.21C36.6517 162.156 36.5617 163.087 36.492 164.384C36.423 165.67 36.3743 167.31 36.1854 169.559C35.4028 178.876 35.5312 184.118 35.9032 187.362C36.0884 188.977 36.3351 190.106 36.5653 191.006C36.7854 191.866 37.0351 192.666 37.1688 193.434C37.4085 194.811 37.7944 196.099 38.2176 197.376C38.6335 198.631 39.1033 199.926 39.4569 201.209C40.1752 203.815 40.6271 205.906 41.326 208.312C42.0684 210.868 42.6519 213.36 43.2147 215.864C43.4925 217.101 43.8654 218.233 44.2391 219.471C44.6078 220.693 44.9657 221.985 45.1659 223.437C45.5801 226.444 46.3762 229.001 46.9588 231.53C47.2353 232.73 47.474 234.016 47.7098 235.285C47.9472 236.563 48.1825 237.827 48.4578 239.022C48.7143 240.135 49.0349 241.28 49.3631 242.49C49.6885 243.69 50.0181 244.944 50.2752 246.229C50.7752 248.729 51.2837 251.273 51.5399 254.46C51.6521 255.856 51.9203 257.206 52.2088 258.534C52.4924 259.839 52.8063 261.162 52.9715 262.401C53.3014 264.874 53.8847 267.276 54.3953 269.829C54.8653 272.179 55.6498 274.616 55.9715 277.659C56.2451 280.247 56.8766 282.608 57.3924 285.187C57.5971 286.211 57.8927 287.157 58.243 288.055L58.3963 288.437L58.409 288.469L58.4198 288.501C58.6327 289.135 58.7678 289.818 58.8924 290.441C59.0007 290.983 58.6496 291.51 58.1082 291.618C57.5668 291.726 57.0399 291.375 56.9315 290.834C56.803 290.191 56.6903 289.643 56.5282 289.155C56.0804 288.063 55.6912 286.883 55.4305 285.58C54.9462 283.158 54.2686 280.579 53.9823 277.87C53.6708 274.923 52.9646 272.872 52.4344 270.221C51.9449 267.774 51.3304 265.224 50.9891 262.666C50.8378 261.532 50.5514 260.324 50.2547 258.959C49.9631 257.617 49.6703 256.157 49.5467 254.62C49.3009 251.562 48.8135 249.123 48.3133 246.622C48.0704 245.407 47.7565 244.209 47.4325 243.013C47.1111 241.828 46.7762 240.632 46.5086 239.471C46.2221 238.228 45.979 236.921 45.743 235.65C45.5054 234.371 45.2756 233.13 45.0106 231.979C44.4695 229.631 43.6144 226.831 43.1844 223.71C43.0062 222.416 42.685 221.245 42.3241 220.05C41.9682 218.871 41.5611 217.631 41.2625 216.303C40.7015 213.806 40.1295 211.364 39.4051 208.87C38.7256 206.53 38.1882 204.134 37.5282 201.74C37.1926 200.523 36.7594 199.333 36.3192 198.005C35.8862 196.698 35.4632 195.3 35.1981 193.777C35.0817 193.109 34.8854 192.512 34.6268 191.501C34.3782 190.529 34.1131 189.31 33.9159 187.59C33.5229 184.162 33.4041 178.775 34.1922 169.392C34.3778 167.183 34.4233 165.612 34.495 164.277C34.5661 162.953 34.6632 161.85 34.9715 160.694C35.3201 159.387 35.4918 157.7 35.66 155.843C35.8245 154.026 35.9848 152.058 36.3299 150.333C36.8181 147.892 37.22 145.29 37.908 142.773C38.6113 140.201 39.5514 137.356 40.0741 134.609C40.321 133.311 40.5376 131.971 40.7879 130.431C41.0376 128.895 41.3196 127.17 41.6971 125.121C42.3129 121.779 42.6683 118.6 43.0623 115.622C43.2496 114.207 43.4722 112.725 43.7303 111.511C43.859 110.905 44.0013 110.342 44.16 109.878C44.3022 109.461 44.5102 108.957 44.8455 108.624Z" fill="black"/>
<path d="M63.5981 285.618C64.3912 285.498 65.8582 285.324 66.6836 285.234C67.1907 285.178 67.5413 285.153 67.82 285.136C68.1114 285.118 68.2691 285.113 68.4586 285.095C68.9885 285.046 69.7856 284.998 70.7459 284.89C71.5459 284.8 72.1995 284.902 72.3883 284.909C72.7717 284.923 74.0143 285.093 75.036 285.319C75.3905 285.397 75.6783 285.543 75.889 285.664C76.1697 285.825 76.1925 285.855 76.3487 285.936C76.725 286.131 76.9968 286.441 77.1726 286.689C77.3577 286.949 77.5016 287.233 77.5947 287.479C77.7722 287.948 77.7976 288.362 77.7275 288.736C77.6951 288.908 77.6458 289.05 77.6102 289.146C77.599 289.177 77.5723 289.249 77.5684 289.259C77.5634 289.272 77.5598 289.282 77.5574 289.289C77.5551 289.296 77.5538 289.299 77.5538 289.299C77.4078 289.787 77.0704 290.177 76.8067 290.433C76.5225 290.71 76.2058 290.942 75.9495 291.102C75.7314 291.239 75.5214 291.314 75.3543 291.369C75.165 291.43 75.0546 291.46 74.8494 291.533C73.8281 291.896 73.0434 292.08 72.6403 292.168C71.8554 292.341 70.7905 292.587 69.8731 292.688C69.5466 292.724 69.2828 292.737 69.0653 292.745C68.8321 292.753 68.7083 292.754 68.5806 292.765C68.1757 292.798 67.4108 292.838 66.3586 292.919C65.5622 292.98 64.3955 292.991 63.7836 292.997C63.0287 293.005 62.7561 292.965 62.4534 292.948C61.7285 292.908 60.5821 292.625 59.5273 292.331C58.7876 292.125 58.2963 291.952 57.7568 291.759L57.7496 291.757L57.7423 291.754C57.6658 291.725 57.5811 291.689 57.4965 291.655C57.2246 291.68 56.9443 291.594 56.7281 291.394C56.3228 291.019 56.298 290.387 56.673 289.982L56.7393 289.914C56.8138 289.845 56.9138 289.768 57.0419 289.708C57.2275 289.62 57.4205 289.59 57.6015 289.603C57.6842 289.609 57.7578 289.624 57.8178 289.64C57.7332 289.274 57.8583 288.876 58.1729 288.628C58.4833 288.384 58.8866 288.092 59.2025 287.828C59.8133 287.319 60.0504 287.162 60.4087 286.93C60.6817 286.753 61.1537 286.421 61.7081 286.178C62.2655 285.933 62.6051 285.769 63.5981 285.618ZM66.9013 287.222C66.079 287.312 64.6477 287.483 63.8981 287.596C63.1541 287.709 62.9976 287.797 62.5105 288.01C62.1456 288.17 61.8521 288.378 61.4966 288.608C61.1961 288.803 61.0249 288.913 60.484 289.364C60.1535 289.639 59.6159 290.038 59.4097 290.2C59.4068 290.202 59.4035 290.204 59.4006 290.206C59.6011 290.269 59.8169 290.335 60.0646 290.404C61.156 290.709 62.0923 290.926 62.5635 290.952C62.9619 290.974 63.095 291.005 63.7624 290.998C64.399 290.991 65.4894 290.979 66.2052 290.924C67.4192 290.831 67.9328 290.811 68.4165 290.772C68.6053 290.756 68.821 290.752 68.9939 290.746C69.1829 290.739 69.3938 290.728 69.6545 290.699C70.4392 290.613 71.377 290.398 72.2105 290.215C72.5666 290.137 73.2641 289.974 74.1793 289.648C74.4079 289.567 74.6354 289.5 74.7333 289.468C74.853 289.429 74.8792 289.413 74.8889 289.407C75.0502 289.306 75.2497 289.158 75.4132 289C75.5845 288.833 75.6327 288.735 75.6374 288.726C75.6569 288.661 75.6785 288.602 75.6941 288.56C75.7172 288.499 75.7176 288.499 75.7339 288.455C75.7538 288.401 75.7596 288.379 75.762 288.366C75.7636 288.357 75.764 288.348 75.7624 288.33C75.7606 288.31 75.754 288.264 75.7244 288.185C75.6885 288.091 75.6231 287.961 75.5428 287.848C75.504 287.794 75.4686 287.754 75.4419 287.728C75.4203 287.707 75.4121 287.702 75.4185 287.706C75.3087 287.649 75.2062 287.588 75.1245 287.538C75.0319 287.482 74.9658 287.44 74.8942 287.399C74.7574 287.32 74.6728 287.286 74.6053 287.271C73.6413 287.059 72.5295 286.916 72.3139 286.908C71.7976 286.889 71.5801 286.809 70.9684 286.878C70.0006 286.986 69.0738 287.047 68.6442 287.087C68.4116 287.109 68.178 287.117 67.9402 287.132C67.6896 287.147 67.3719 287.171 66.9013 287.222Z" fill="black"/>
<path d="M38.5885 205.711C38.5885 205.159 39.0364 204.711 39.5885 204.711C40.1408 204.711 40.5885 205.158 40.5885 205.711C40.5885 205.838 40.5886 210.344 40.6208 217.23C40.6363 220.551 41.0793 221.702 41.3219 223.12C41.4748 224.014 41.533 225.207 41.5788 226.373C41.6258 227.572 41.6599 228.765 41.7536 229.76C41.8813 231.116 42.0822 232.431 42.2135 238.62C42.2813 241.815 42.6504 243.418 42.9098 244.779C43.1379 245.976 43.2218 247.289 43.2624 248.464C43.3046 249.688 43.3008 250.682 43.3493 251.434C43.4424 252.88 43.6364 254.783 43.8893 256.272C44.0253 257.073 44.1088 257.91 44.1862 258.734C44.2646 259.569 44.3363 260.391 44.4469 261.212C44.7089 263.155 44.9362 264.881 45.1354 267.606C45.223 268.805 45.3985 270.3 45.5875 271.883C45.7753 273.455 45.9758 275.11 46.109 276.593C46.3743 279.545 46.5622 281.846 46.7868 283.542C46.9409 284.706 47.0323 285.623 47.112 286.412C47.192 287.205 47.2594 287.854 47.3678 288.518C47.3914 288.663 47.4054 288.815 47.4108 288.968C47.6163 289.245 47.6738 289.62 47.527 289.96C47.2797 290.532 47.0258 290.874 46.7799 291.16L46.7682 291.174L46.7555 291.187C46.2922 291.689 45.5044 292.324 44.4586 293.075L44.4137 293.107L44.3649 293.135C43.9307 293.379 43.1569 293.582 42.2458 293.687C41.2936 293.797 40.0809 293.812 38.7135 293.605C38.4716 293.569 38.0259 293.551 37.3268 293.544C36.6381 293.537 35.8069 293.541 34.7838 293.535C32.7635 293.524 30.1377 293.475 27.1012 293.223C25.952 293.128 25.1316 293.064 24.5592 292.969C23.9756 292.871 23.4402 292.711 23.0124 292.274C22.7982 292.056 22.6226 291.762 22.5407 291.432C22.4572 291.097 22.4544 290.64 22.7292 290.217L22.9206 289.95C23.3847 289.357 23.9709 288.962 24.3883 288.69C24.9435 288.328 25.5509 288.059 26.1569 287.804C26.78 287.542 27.4175 287.289 28.1393 286.938C28.8708 286.583 29.9165 286.38 30.9586 286.27C32.0304 286.158 33.2135 286.133 34.2877 286.192C36.1668 286.296 37.4281 286.603 38.6344 286.863C40.0461 287.167 41.5028 287.61 42.7975 287.986C43.2002 288.103 43.6122 288.298 43.9596 288.47C44.3373 288.656 44.6498 288.819 44.9577 288.95C45.1556 289.034 45.3038 289.081 45.4108 289.106C45.4113 289.019 45.408 288.925 45.3942 288.841C45.2745 288.107 45.2012 287.399 45.1217 286.612C45.0419 285.821 44.9539 284.934 44.8043 283.804C44.5726 282.054 44.3798 279.687 44.1178 276.771C43.9878 275.324 43.7903 273.703 43.6012 272.12C43.4134 270.548 43.2329 269.006 43.1413 267.753C42.9465 265.088 42.7247 263.41 42.4645 261.479C42.347 260.608 42.2714 259.735 42.195 258.921C42.1175 258.095 42.0387 257.326 41.9167 256.607C41.6489 255.031 41.4493 253.056 41.3532 251.563C41.3031 250.786 41.3013 249.633 41.2633 248.533C41.2236 247.384 41.1445 246.195 40.9459 245.153C40.6847 243.782 40.2852 242.038 40.2135 238.663C40.0836 232.539 39.8876 231.277 39.7624 229.947C39.662 228.882 39.6253 227.61 39.5797 226.451C39.5329 225.259 39.4773 224.199 39.3502 223.457C39.1365 222.208 38.6373 220.779 38.6208 217.239C38.5886 210.349 38.5885 205.841 38.5885 205.711ZM34.1784 288.189C33.2047 288.136 32.1278 288.159 31.1676 288.26C30.1784 288.364 29.4198 288.54 29.0133 288.737C28.2281 289.119 27.5168 289.402 26.9323 289.648C26.3306 289.901 25.8707 290.112 25.4801 290.366C25.1727 290.566 24.9092 290.753 24.6989 290.957C24.7518 290.969 24.8143 290.983 24.8893 290.996C25.3562 291.074 26.0628 291.131 27.2663 291.23C30.2302 291.476 32.7986 291.524 34.7946 291.535C35.7792 291.54 36.6619 291.537 37.3463 291.544C38.0202 291.55 38.6073 291.567 39.0114 291.628C40.1947 291.806 41.2296 291.791 42.0163 291.7C42.4097 291.655 42.7344 291.591 42.9792 291.527C43.1015 291.495 43.1992 291.465 43.2721 291.438C43.3055 291.426 43.3315 291.415 43.3512 291.406C43.6619 291.182 43.9355 290.976 44.1754 290.791C43.7984 290.631 43.3953 290.421 43.0749 290.263C42.7243 290.091 42.4548 289.969 42.2399 289.907C40.906 289.52 39.5375 289.103 38.2135 288.818C36.9802 288.553 35.8736 288.283 34.1784 288.189Z" fill="black"/>
<path d="M79.9874 70.4126C80.3116 69.9656 80.9368 69.8658 81.3838 70.19C81.8309 70.5142 81.9306 71.1394 81.6065 71.5865C81.4406 71.8152 81.007 72.3708 80.6963 72.9605C80.4549 73.4402 80.2456 73.7358 80.0792 73.9849L80.0645 74.0064L80.0489 74.0279C80.0206 74.0657 79.9933 74.0981 79.9747 74.1206C79.9507 74.1496 79.9437 74.1581 79.9249 74.1812C79.8977 74.2144 79.8644 74.2574 79.8184 74.3228C79.5009 74.7745 78.8767 74.8833 78.4249 74.566C77.9731 74.2485 77.8643 73.6243 78.1817 73.1724C78.2603 73.0605 78.324 72.9792 78.376 72.9156C78.3967 72.8903 78.4246 72.857 78.4327 72.8472C78.4341 72.8455 78.4354 72.8437 78.4366 72.8423C78.6106 72.5827 78.745 72.3915 78.9171 72.0474L78.9219 72.0376L78.9268 72.0289C79.3226 71.2775 79.8741 70.5688 79.9874 70.4126Z" fill="black"/>
<path d="M73.7525 55.3555C74.2981 55.4414 74.6709 55.9538 74.585 56.4994C74.499 57.0449 73.9867 57.4177 73.4411 57.3318C73.2015 57.2941 72.9921 57.2672 72.8615 57.2414L72.8477 57.2381L72.8347 57.2352C72.5467 57.1699 72.1496 57.1192 71.5356 57.0639L71.5203 57.0631L71.5047 57.0609C71.3493 57.0421 71.2067 57.0215 71.0848 57.0038C70.9583 56.9853 70.8611 56.9712 70.7734 56.961C70.5858 56.9391 70.5471 56.9496 70.563 56.9461C70.2225 57.0221 69.7186 57.1492 69.3926 57.2686C69.2117 57.3349 68.9839 57.4163 68.7539 57.4769C68.5364 57.5342 68.2338 57.5966 67.9202 57.5715C67.3697 57.5272 66.9588 57.0446 67.003 56.4941C67.0474 55.9438 67.5297 55.5336 68.0799 55.5777C68.0569 55.5759 68.1004 55.5809 68.2444 55.5429C68.376 55.5082 68.527 55.4555 68.7045 55.3905C69.161 55.2233 69.7728 55.0737 70.1275 54.9946C70.4556 54.9213 70.7733 54.947 71.0045 54.9739C71.1265 54.9882 71.2555 55.0074 71.3732 55.0245C71.4957 55.0424 71.6167 55.0593 71.7454 55.0749C72.3385 55.1288 72.8323 55.1878 73.2487 55.28L73.2492 55.2792C73.3376 55.2966 73.3925 55.2988 73.7525 55.3555Z" fill="black"/>
<path d="M47.6954 34.0814C47.9742 34.0814 48.2259 34.1961 48.4073 34.3802C48.6262 34.4458 48.8844 34.5781 49.0801 34.8528C49.3812 35.2755 49.4677 35.867 49.3995 36.4212C49.3834 36.5518 49.3734 36.6851 49.3604 36.847C49.348 37.0002 49.3331 37.1806 49.3077 37.3636C49.2563 37.7333 49.1539 38.181 48.8809 38.6155C48.6581 38.9701 48.3423 39.3982 47.9903 39.7718C47.6709 40.1107 47.1931 40.5452 46.6368 40.7142C46.1886 40.8502 45.619 40.986 45.0733 41.0003C44.5872 41.0129 43.7732 40.937 43.2754 40.2591C43.1324 40.0643 42.8262 39.6552 42.7696 39.1136C42.7064 38.5084 42.7298 37.8081 42.9532 37.1693C43.1719 36.5437 43.4791 36.0466 44.0889 35.5784C44.5683 35.2104 45.1374 34.7029 45.8604 34.4525C46.7372 34.1488 47.3282 34.0814 47.6954 34.0814Z" fill="black"/>
<path d="M51.4855 0.000536531C52.2028 -0.00501793 53.1114 0.0299175 53.8273 0.230029C54.3982 0.389624 55.0157 0.567104 55.6847 1.15386C56.1293 1.54376 56.5399 1.91954 56.9259 2.37554C57.2734 2.78607 57.9802 3.76289 57.9386 4.98589C57.9055 5.96145 57.8705 7.00998 57.5968 8.02495C57.3585 8.90861 57.067 9.7047 56.9386 10.105C56.8331 10.434 56.6772 10.7995 56.5197 11.1646C56.3561 11.5437 56.178 11.95 55.9962 12.4117C55.7005 13.1628 55.2703 13.6917 55.1271 13.9332C54.8607 14.3828 54.5261 15.1134 53.7628 15.7994C53.2839 16.2298 52.928 16.5011 52.3185 16.9126C51.9163 17.1843 51.3971 17.4954 50.9621 17.7583C50.4866 18.0457 50.1602 18.2467 50.0373 18.3443C49.6159 18.6787 49.1003 19.0638 48.7853 19.3873C48.3869 19.7964 48.0771 20.1964 47.7228 20.6099C47.4459 20.9331 47.266 21.1344 47.1203 21.4839C46.8477 22.1374 46.4174 22.738 46.0871 23.1314C45.9639 23.2781 45.8286 23.4013 45.7257 23.4908C45.5932 23.606 45.5458 23.6414 45.4513 23.7261C45.2779 23.8817 45.3119 23.8962 45.3341 23.815C45.2846 23.9961 45.1942 24.2035 45.1584 24.2935C45.1095 24.4161 45.0691 24.5297 45.0382 24.6617C44.9799 24.9114 44.9373 25.3122 45.0753 25.9781C45.207 26.6135 45.3222 26.9763 45.4914 27.2232C45.5701 27.3382 45.6428 27.4543 45.7042 27.5523C45.7693 27.6561 45.8219 27.7395 45.8742 27.8169C45.9849 27.9812 46.04 28.0305 46.0539 28.0406C46.1544 28.1136 46.2822 28.215 46.3546 28.2701C46.4442 28.3382 46.5186 28.3911 46.589 28.4341C46.7233 28.5162 46.819 28.5467 46.9103 28.5513C48.2669 28.6198 49.5204 28.7027 49.9865 28.7027C50.5387 28.7027 50.9864 29.1504 50.9865 29.7027C50.9865 30.255 50.5388 30.7027 49.9865 30.7027C49.4538 30.7027 48.0799 30.6126 46.8097 30.5484C45.8101 30.4979 45.0796 29.8051 44.8781 29.6587C44.5723 29.4366 44.3591 29.1474 44.216 28.9351C44.1412 28.8243 44.0694 28.7097 44.0099 28.6148C43.9468 28.5141 43.8946 28.43 43.8419 28.3531C43.4229 27.7415 43.2484 27.0167 43.1173 26.3843C42.926 25.4613 42.9607 24.7658 43.091 24.2076C43.1544 23.9358 43.236 23.7174 43.3009 23.5542C43.3789 23.3582 43.3939 23.3252 43.4044 23.2867C43.5473 22.7652 43.9142 22.4183 44.1154 22.2378C44.208 22.1548 44.3594 22.0288 44.4132 21.982C44.4968 21.9093 44.5363 21.8685 44.5558 21.8453C44.8133 21.5385 45.1083 21.113 45.2746 20.7144C45.5604 20.029 45.9549 19.6002 46.2042 19.3091C46.4831 18.9837 46.8958 18.4609 47.3527 17.9917C47.7853 17.5475 48.4673 17.0373 48.7941 16.7779C49.0435 16.5799 49.5134 16.297 49.9279 16.0464C50.3828 15.7715 50.8492 15.4919 51.1994 15.2554C51.7497 14.8838 52.0293 14.6676 52.4259 14.3111C52.8964 13.8882 53.0357 13.5393 53.4064 12.9136C53.7893 12.2676 53.9061 12.2603 54.1349 11.6792C54.3314 11.1803 54.5258 10.7387 54.6837 10.3726C54.8476 9.99276 54.9624 9.71572 55.0334 9.49468C55.1986 8.97928 55.4427 8.3331 55.6662 7.50444C55.8699 6.74896 55.9051 5.93295 55.9396 4.91753C55.955 4.46516 55.6643 3.98125 55.3996 3.66851C55.1138 3.33092 54.7962 3.03456 54.3654 2.65679C54.0548 2.38451 53.8129 2.30222 53.2892 2.15581C52.8628 2.0366 52.195 1.99419 51.5011 1.99956C50.8324 2.00475 50.2419 2.05169 49.9914 2.0689C49.594 2.09618 48.7902 2.23223 47.8419 2.4771C47.2199 2.63776 46.7522 2.91034 46.1505 3.19878C45.5168 3.50258 44.9402 3.77642 44.5773 4.03276C43.6753 4.67019 42.7953 5.20142 42.3673 5.47319C42.0158 5.69645 41.7828 5.97374 41.3126 6.43022C41.1474 6.59065 41.025 6.80996 40.8703 7.1812C40.7887 7.37701 40.7228 7.59004 40.6359 7.87944C40.5622 8.12498 40.4747 8.41506 40.3585 8.73296C40.3266 9.01569 40.3163 9.31244 40.3253 9.5562C40.329 9.65474 40.3359 9.73577 40.3429 9.79741C40.4007 9.8719 40.4698 9.96614 40.5392 10.0865C40.815 10.565 40.6505 11.1769 40.172 11.4527C39.6936 11.7283 39.0826 11.5639 38.8068 11.0855C38.7932 11.0619 38.7791 11.042 38.758 11.0152C38.7447 10.9983 38.7328 10.9844 38.7101 10.9566C38.6908 10.933 38.6608 10.8963 38.63 10.855L38.6046 10.8208L38.5832 10.7857C38.4363 10.5504 38.3924 10.2784 38.3751 10.1675C38.3495 10.003 38.3343 9.81772 38.3273 9.63042C38.3133 9.25516 38.3289 8.80334 38.3869 8.37065L38.4025 8.25542L38.4445 8.14604C38.555 7.85731 38.6351 7.58997 38.7209 7.30425C38.8032 7.03012 38.8968 6.71821 39.0246 6.41167C39.1989 5.99333 39.4471 5.45295 39.9191 4.99468C40.2379 4.68517 40.7139 4.1538 41.2951 3.78472C41.7692 3.48362 42.5745 2.99952 43.423 2.39995C43.9581 2.02182 44.7254 1.66394 45.2863 1.39507C45.7369 1.17901 46.4727 0.765063 47.3419 0.540576C48.3472 0.280985 49.2833 0.112986 49.8537 0.0737787C50.0865 0.0577918 50.7432 0.00629273 51.4855 0.000536531Z" fill="black"/>
<path d="M32.6514 177.676C32.6514 177.344 32.6459 177.135 32.6329 177.01C32.5315 176.845 32.3991 176.703 32.1846 176.488C31.5649 175.869 30.0795 174.682 29.0626 173.939C28.4584 173.497 27.5256 172.892 26.7657 172.512C26.2151 172.236 25.2739 171.913 24.3292 171.051C23.8883 170.648 23.6792 170.425 23.3614 170.148C23.0933 169.914 22.871 169.758 22.628 169.652C21.8728 169.324 21.0217 169.1 19.6788 168.682C18.7411 168.389 17.8583 168.018 16.3487 167.386C14.8968 166.778 13.2955 166.221 12.209 165.676C11.5438 165.342 10.9889 164.926 10.4971 164.527C9.97908 164.107 9.58208 163.751 9.1026 163.4C8.28293 162.802 7.60342 162.271 6.91803 161.894C6.01713 161.397 5.01208 160.655 4.03815 159.991C2.98159 159.271 2.32407 158.648 1.78912 157.892C1.75075 157.837 1.66159 157.746 1.48444 157.609C1.28028 157.452 1.15399 157.374 0.90143 157.189C0.725274 157.059 0.428296 156.835 0.233461 156.541C0.124847 156.377 0.00326819 156.126 6.23607e-05 155.809C-0.00327714 155.471 0.127891 155.186 0.30182 154.975L0.629945 154.598C0.955127 154.245 1.26858 153.959 1.53424 153.717C1.90855 153.376 2.14135 153.162 2.30963 152.935C2.94431 152.075 4.19931 150.693 5.24127 149.803C5.61578 149.483 6.01922 149.168 6.40045 148.863C6.79015 148.552 7.17894 148.233 7.5694 147.872C8.66238 146.862 9.73263 145.768 10.1905 145.176C10.5662 144.69 10.9683 144.222 11.3594 143.766C11.7559 143.303 12.1454 142.847 12.5245 142.357C13.2085 141.473 13.7565 140.793 14.3311 140.046C15.2644 138.833 16.6193 137.383 17.377 136.51C17.7852 136.039 18.2069 135.483 18.7208 134.849C19.2109 134.244 19.7626 133.597 20.3477 133.075C21.1223 132.384 22.2024 131.411 23.2842 130.523C24.6142 129.431 25.6839 128.456 26.46 127.856C27.0491 127.4 27.5885 127.045 28.0528 126.732C28.5259 126.414 28.915 126.146 29.2745 125.833C29.9542 125.241 30.6838 124.682 31.252 124.241C31.7496 123.855 32.3774 123.294 33.2569 122.69C34.2525 122.007 34.921 121.539 36.4356 120.502C36.9872 120.124 37.3776 119.795 37.7618 119.461C38.1446 119.128 38.5493 118.764 39.0772 118.377C39.3808 118.154 39.6459 117.91 39.9327 117.64C40.2061 117.382 40.5232 117.076 40.8712 116.811C41.315 116.473 41.8431 116.194 42.2891 115.997C42.7052 115.814 43.1745 115.647 43.4962 115.606C44.0441 115.538 44.5439 115.927 44.6124 116.475C44.6806 117.023 44.292 117.522 43.7442 117.591C43.7604 117.589 43.7055 117.597 43.5626 117.645C43.4348 117.687 43.2735 117.749 43.0967 117.827C42.735 117.987 42.359 118.191 42.0831 118.401C41.8385 118.588 41.6092 118.808 41.3057 119.095C41.0156 119.368 40.6727 119.687 40.2608 119.989C39.8155 120.316 39.4833 120.615 39.0743 120.971C38.6667 121.325 38.2094 121.711 37.5655 122.152C36.039 123.198 35.4117 123.638 34.3897 124.34C33.5634 124.907 33.1192 125.324 32.4786 125.821C31.8932 126.276 31.2145 126.795 30.587 127.341C30.1232 127.745 29.6407 128.076 29.169 128.393C28.6886 128.716 28.2093 129.031 27.6837 129.438C26.9015 130.043 26.0405 130.847 24.5528 132.068C23.5101 132.924 22.4652 133.866 21.6788 134.567C21.2209 134.976 20.7534 135.516 20.2745 136.107C19.8193 136.669 19.3219 137.32 18.8878 137.82C18.0453 138.792 16.8046 140.112 15.9171 141.266C15.3761 141.969 14.726 142.781 14.1065 143.582C13.6925 144.117 13.2717 144.608 12.878 145.067C12.4791 145.533 12.1115 145.961 11.7725 146.399C11.206 147.132 10.0306 148.321 8.92682 149.341C8.48375 149.75 8.0514 150.104 7.65045 150.425C7.24097 150.752 6.88236 151.032 6.5401 151.324C5.6183 152.111 4.46673 153.38 3.91901 154.122C3.6095 154.541 3.21111 154.895 2.87995 155.196C2.68675 155.372 2.49643 155.547 2.30768 155.737C2.43759 155.83 2.59056 155.937 2.70514 156.025C2.92726 156.197 3.20776 156.434 3.42194 156.736C3.7838 157.248 4.24748 157.713 5.16412 158.338C6.24281 159.073 7.09281 159.707 7.88287 160.142C8.71436 160.6 9.54744 161.249 10.2823 161.786C10.8131 162.174 11.3297 162.627 11.7569 162.974C12.2104 163.342 12.6333 163.651 13.1055 163.888C14.1274 164.4 15.4616 164.846 17.1212 165.541C18.6608 166.186 19.4459 166.515 20.2735 166.773C21.4948 167.153 22.538 167.433 23.4258 167.819C23.9283 168.038 24.3262 168.335 24.6758 168.64C24.9759 168.901 25.3825 169.304 25.6778 169.573C26.3513 170.188 26.8631 170.324 27.6602 170.723C28.5507 171.168 29.5808 171.84 30.2423 172.323C31.2743 173.078 32.8643 174.34 33.5987 175.074C33.8137 175.289 34.1206 175.588 34.3751 176.021L34.4805 176.214L34.5284 176.311L34.5557 176.415C34.6588 176.818 34.6514 177.345 34.6514 177.676C34.6514 178.228 34.2035 178.676 33.6514 178.676C33.0991 178.676 32.6514 178.228 32.6514 177.676Z" fill="black"/>
<path d="M33.1119 176.844C33.641 176.686 34.1988 176.987 34.357 177.516C34.5149 178.045 34.2141 178.602 33.6852 178.76C33.3831 178.85 32.5632 179.217 31.8971 179.715C31.2995 180.163 30.7467 180.598 30.1295 181.113C29.4604 181.671 28.939 182.166 28.4361 182.745C27.7144 183.578 27.1562 184.064 26.3668 185.156C25.6085 186.204 25.4081 186.991 25.2086 187.76C25.3461 187.722 25.4978 187.667 25.6676 187.59C26.0746 187.407 26.3497 187.234 26.8492 186.984C27.0911 186.863 27.3662 186.674 27.6969 186.42C27.8596 186.295 28.0256 186.163 28.2027 186.022C28.3772 185.883 28.5621 185.735 28.7506 185.591C29.3995 185.095 29.9748 184.612 30.7359 183.977C31.4313 183.397 32.0368 182.792 32.5494 182.157C32.608 182.059 32.6717 181.939 32.7965 181.654C32.9315 181.345 33.1209 180.891 33.3189 180.183C33.4677 179.651 34.0195 179.34 34.5514 179.489C35.0831 179.637 35.3932 180.189 35.2447 180.721C35.0138 181.547 34.7875 182.093 34.6285 182.456C34.4755 182.806 34.3686 183.025 34.2232 183.257L34.193 183.305L34.1578 183.349C33.5389 184.127 32.8192 184.844 32.0172 185.513C31.2653 186.14 30.6545 186.652 29.9654 187.179C29.7955 187.309 29.626 187.445 29.4498 187.585C29.2764 187.724 29.0952 187.869 28.9146 188.007C28.5588 188.28 28.1612 188.563 27.7437 188.772C27.4427 188.922 26.9102 189.224 26.4879 189.414C26.0148 189.627 25.4375 189.826 24.7877 189.823C24.3978 189.821 23.8062 189.693 23.4195 189.232C23.0105 188.744 23.0215 188.147 23.1451 187.734L23.3199 187.073C23.5211 186.302 23.851 185.221 24.7467 183.983C25.5977 182.806 26.3579 182.088 26.9244 181.435C27.5157 180.753 28.1205 180.183 28.8482 179.577C29.4928 179.039 30.0735 178.582 30.6988 178.114C31.5482 177.478 32.5786 177.004 33.1119 176.844Z" fill="black"/>
<path d="M74.9194 59.5132C75.2397 59.0634 75.864 58.9586 76.3139 59.2788C76.4396 59.3683 76.5365 59.4302 76.6245 59.4849L76.9292 59.6822L76.9624 59.7056L76.9926 59.732C77.1629 59.8761 77.7103 60.2672 78.226 60.8618L78.4438 61.1294L78.4702 61.1626L78.4926 61.1988C78.9843 61.9695 79.4942 62.7572 80.0854 63.3892C81.0258 64.3944 81.7994 65.2668 82.9536 66.7066C83.2443 67.0692 83.6008 67.3798 84.0796 67.8579C84.5115 68.2894 85.0152 68.836 85.3305 69.521C85.8005 70.542 86.5443 71.8482 87.4087 73.4663C88.0444 74.6564 88.5236 75.5075 88.9262 76.5083C89.2474 77.3067 89.5074 78.1553 89.7631 78.9361C90.0252 79.7361 90.292 80.4957 90.643 81.2173C90.8946 81.7345 91.0623 82.2984 91.2329 82.8667C91.4085 83.4519 91.6044 84.1071 91.9165 84.9116C92.3115 85.9301 93.1678 88.2107 93.3852 90.0572C93.5545 91.4953 93.7276 93.0009 93.9077 94.2593C93.9764 94.739 94.0765 95.2348 94.184 95.7368C94.2889 96.2266 94.4054 96.742 94.4907 97.2066C94.6811 98.2438 94.8277 99.0211 95.1089 99.8687C95.286 100.403 95.5609 101.338 95.6831 102.285C95.7441 102.758 95.7723 103.272 95.7143 103.76C95.6576 104.237 95.5067 104.789 95.1215 105.233C94.8349 105.564 94.4837 105.735 94.1674 105.83C93.737 105.958 93.2438 106.047 92.8374 106.139C92.3965 106.239 91.8946 106.373 91.2592 106.624C90.4906 106.927 89.7626 107.181 89.1157 107.403C88.4589 107.629 87.9065 107.815 87.4477 107.993C86.7266 108.272 86.0852 108.545 85.478 108.798C84.8806 109.048 84.3062 109.282 83.7602 109.46C82.8578 109.755 81.8684 110.096 80.1264 110.679C79.2212 110.982 77.4141 111.694 76.1157 111.895C75.7571 111.951 75.1357 112.117 74.2885 112.318C73.4948 112.506 72.5562 112.711 71.7182 112.787C70.3047 112.914 68.6293 113.067 67.4145 113.185C66.893 113.236 66.2514 113.329 65.561 113.427C64.8867 113.523 64.1684 113.621 63.5464 113.67C63.0759 113.708 62.6492 113.787 62.1801 113.887C61.7222 113.985 61.1931 114.11 60.602 114.208C59.5484 114.382 58.1326 114.543 56.8852 114.7C55.579 114.864 54.5257 115.017 54.0483 115.165C52.9562 115.503 51.3428 116.058 50.227 116.21C49.6609 116.288 49.0678 116.314 48.6235 116.352C48.1459 116.393 47.7201 116.453 47.2837 116.592C46.8315 116.737 46.4066 116.908 46.0454 117.062C45.725 117.199 45.3598 117.366 45.1665 117.438C44.6492 117.631 44.0736 117.368 43.8803 116.851C43.6872 116.334 43.9499 115.758 44.4673 115.565C44.6083 115.512 44.8305 115.407 45.2602 115.223C45.6492 115.057 46.138 114.859 46.6743 114.688C47.3162 114.483 47.9109 114.405 48.4516 114.359C49.0258 114.31 49.45 114.297 49.9565 114.228C50.8569 114.105 52.2191 113.638 53.4565 113.254C54.1419 113.042 55.4042 112.87 56.6362 112.715C57.9271 112.553 59.2732 112.401 60.2758 112.235C60.8064 112.147 61.2552 112.04 61.7631 111.931C62.2598 111.825 62.7873 111.725 63.3891 111.677C63.9397 111.634 64.5981 111.543 65.2807 111.447C65.9471 111.352 66.6443 111.251 67.2212 111.195C68.4432 111.076 70.1243 110.922 71.5385 110.794C72.2214 110.733 73.039 110.56 73.8266 110.373C74.5608 110.198 75.3461 109.991 75.809 109.919C76.8844 109.753 78.3789 109.154 79.4917 108.782C81.2109 108.207 82.2295 107.857 83.1391 107.56C83.6001 107.41 84.107 107.203 84.7075 106.953C85.2983 106.706 85.9725 106.419 86.7251 106.127C87.2299 105.932 87.8338 105.729 88.4653 105.512C89.1068 105.292 89.8005 105.049 90.5258 104.763C91.2798 104.466 91.8833 104.304 92.395 104.188C92.9412 104.064 93.2481 104.017 93.5962 103.914C93.6079 103.91 93.6166 103.905 93.6235 103.903C93.6504 103.859 93.7021 103.75 93.729 103.524C93.7604 103.259 93.749 102.923 93.6997 102.541C93.6011 101.777 93.3702 100.98 93.2104 100.499C92.8795 99.5008 92.712 98.5924 92.5239 97.5679C92.4457 97.1418 92.3409 96.6786 92.229 96.1558C92.1197 95.6457 92.0071 95.094 91.9282 94.5425C91.7436 93.2529 91.5666 91.7166 91.3989 90.2915C91.2158 88.7352 90.4576 86.6828 90.0512 85.6353C89.7078 84.7498 89.4926 84.0265 89.3169 83.4409C89.1361 82.8387 89.0122 82.4376 88.8442 82.0923C88.4303 81.2414 88.1294 80.3731 87.8628 79.5591C87.5898 78.7258 87.3597 77.9737 87.0708 77.2554C86.7195 76.3821 86.3103 75.6541 85.645 74.4087C84.8237 72.8714 84.0161 71.4505 83.5131 70.3579C83.3555 70.0155 83.0712 69.6782 82.6655 69.273C82.3065 68.9144 81.7755 68.4347 81.393 67.9575C80.273 66.5604 79.5328 65.7263 78.6245 64.7554C77.9015 63.9825 77.3074 63.0592 76.8344 62.3179C76.4631 61.8404 76.0845 61.5754 75.7514 61.2993C75.7153 61.2742 75.6733 61.2488 75.5678 61.1831C75.4612 61.1168 75.3259 61.0303 75.1538 60.9077C74.7041 60.5874 74.5992 59.963 74.9194 59.5132Z" fill="black"/>
<path d="M74.8873 59.7282C75.4372 59.6786 75.9236 60.0845 75.9733 60.6344C76.0229 61.1844 75.617 61.6706 75.067 61.7203C75.1318 61.7145 75.1393 61.7034 75.0485 61.734C74.9763 61.7583 74.8753 61.7977 74.7467 61.8532C74.4906 61.9635 74.1621 62.123 73.8004 62.318C73.0695 62.712 72.2643 63.2171 71.6852 63.6989C71.2323 64.0757 70.5225 65.0017 69.7731 66.1159C69.2473 66.8975 68.9352 67.9859 68.6608 69.3864C68.5978 69.7081 68.6509 70.3452 68.7467 70.6901C68.7499 70.7013 68.7417 70.7654 68.9772 70.8326C69.2473 70.9098 69.6631 70.926 70.1911 70.8678C71.2298 70.7533 72.3384 70.3962 72.7233 70.2584C73.0421 70.1443 73.4277 69.8667 73.8786 69.4313C74.3251 69 74.7307 68.5218 75.1579 68.0494C75.6322 67.5248 76.0846 66.8692 76.6002 65.8629L76.8922 65.2438C77.1339 64.7074 77.2345 64.4033 77.277 64.191C77.3193 63.9797 77.361 63.7708 77.4039 63.5563C77.5125 63.015 78.0393 62.6638 78.5807 62.7721C79.1221 62.8805 79.4731 63.4074 79.3649 63.9489C79.322 64.1632 79.2802 64.3714 79.2379 64.5826C79.1267 65.1389 78.8641 65.7853 78.3971 66.7409L78.3932 66.7487L78.3893 66.7575C77.8119 67.887 77.2634 68.7022 76.6413 69.3903C76.2697 69.8012 75.7796 70.3758 75.2682 70.8698C74.761 71.3596 74.1257 71.8805 73.3971 72.1412C72.9603 72.2976 71.6794 72.7161 70.4098 72.8561C69.7836 72.9251 69.0651 72.9377 68.4274 72.7555C67.7551 72.5634 67.0653 72.1118 66.819 71.2262C66.6651 70.6726 66.5592 69.7096 66.6979 69.0016C66.9762 67.5817 67.3445 66.1422 68.1129 64.9996C68.841 63.9172 69.6998 62.75 70.4069 62.1617C71.1263 61.5633 72.0565 60.9857 72.8512 60.5573C73.2522 60.3411 73.6345 60.1546 73.9557 60.0162C74.1157 59.9473 74.27 59.8866 74.4098 59.8395C74.531 59.7986 74.7074 59.7444 74.8873 59.7282Z" fill="black"/>
<path d="M71.9985 71.9006C72.5185 71.7148 73.0909 71.9852 73.2769 72.5051C73.4096 72.8765 73.4588 73.0001 73.5093 73.1262C73.5795 73.3018 73.646 73.5103 73.7046 73.6926L73.9126 74.3059L73.9312 74.3548L73.9438 74.4065C74.1006 75.019 74.2385 75.5491 74.4097 75.9417C74.4568 76.0497 74.5192 76.1786 74.604 76.3518C74.6843 76.516 74.7793 76.7103 74.8687 76.9143C75.0395 77.3044 75.2365 77.828 75.2661 78.3714C75.3157 79.2824 75.4586 79.6838 75.5894 80.3382C75.6652 80.7178 75.7759 81.691 75.8188 82.7698C75.8615 83.8407 75.8434 85.1486 75.6079 86.1526C75.4594 86.7857 75.3179 87.419 75.1841 88.1809C75.0071 89.1886 74.7266 90.6028 74.3022 91.7132C73.9293 92.689 73.5704 93.3368 73.1265 94.2639C72.8221 94.8997 72.5254 95.4942 72.2583 96.0159C72.1135 96.2987 71.9259 96.6815 71.7329 97.0227C71.5443 97.3562 71.2956 97.7518 70.9849 98.0501C70.6184 98.4018 70.1621 98.7964 69.6265 99.5999C69.1071 100.379 68.6698 100.821 68.2085 101.247C67.8427 101.586 67.1233 102.172 66.6372 102.599C66.3826 102.823 66.1248 103.018 65.9038 103.188C65.6751 103.364 65.4706 103.524 65.2671 103.712C64.7199 104.217 64.1089 104.733 63.6802 105.106C63.1604 105.558 62.5147 106.104 61.9546 106.501C61.4087 106.888 60.7882 107.362 59.7427 107.741C58.667 108.132 57.1684 108.672 56.3403 108.907C55.7515 109.073 54.9102 109.183 54.3022 109.295C53.6744 109.411 53.104 109.475 52.6226 109.521C52.1145 109.569 51.772 109.591 51.4927 109.629C50.9749 109.699 50.3433 109.764 49.8042 109.823C49.2297 109.885 48.804 109.938 48.6108 109.982C47.8764 110.146 46.7716 110.264 46.2847 110.264C45.7325 110.264 45.2849 109.816 45.2847 109.264C45.2847 108.712 45.7324 108.264 46.2847 108.264C46.6094 108.264 47.5669 108.165 48.1733 108.03C48.5013 107.956 49.0585 107.892 49.5864 107.834C50.1495 107.773 50.7403 107.712 51.2251 107.647C51.5558 107.602 52.0075 107.57 52.4341 107.53C52.8873 107.487 53.3929 107.429 53.939 107.328C54.7422 107.18 55.322 107.116 55.7964 106.982C56.5373 106.772 57.9537 106.263 59.0601 105.862C59.816 105.587 60.2296 105.272 60.7983 104.869C61.2694 104.536 61.8489 104.048 62.3677 103.597C62.8272 103.197 63.3923 102.721 63.9106 102.242C64.1844 101.99 64.4494 101.783 64.6831 101.603C64.9245 101.417 65.1221 101.267 65.3169 101.096C65.9387 100.55 66.4793 100.122 66.8501 99.7796C67.2379 99.421 67.5575 99.0979 67.9624 98.4905C68.6387 97.476 69.257 96.936 69.6001 96.6067C69.6901 96.5202 69.8217 96.3388 69.9917 96.0383C70.1575 95.7452 70.308 95.4359 70.478 95.1038C70.739 94.594 71.0279 94.0165 71.3228 93.4007C71.8165 92.3695 72.0999 91.8728 72.4341 90.9983C72.7832 90.0846 73.0378 88.8403 73.2144 87.8352C73.3577 87.0191 73.5087 86.3436 73.6606 85.6956C73.8311 84.9686 73.8621 83.8878 73.8208 82.8499C73.7798 81.8204 73.6741 80.9645 73.6274 80.7307C73.5284 80.235 73.3289 79.5817 73.269 78.4807C73.2597 78.3096 73.1856 78.0572 73.0366 77.7171C72.9661 77.5561 72.8888 77.3965 72.8081 77.2317C72.7319 77.076 72.6447 76.8998 72.5757 76.7415C72.3327 76.1843 72.1588 75.4998 72.0171 74.9456C71.9296 74.7059 71.8585 74.4861 71.8003 74.3049C71.7332 74.0961 71.6902 73.9644 71.6519 73.8684C71.5929 73.7211 71.5345 73.5747 71.3931 73.179C71.2072 72.6589 71.4785 72.0865 71.9985 71.9006Z" fill="black"/>
<path d="M46.3463 52.1152C48.4432 51.8515 49.7396 51.8543 50.6432 51.9717C51.4927 52.082 52.1341 52.344 52.3131 52.3906C53.2466 52.6328 53.9415 53.0291 54.4606 53.3047C54.794 53.4816 55.1272 53.67 55.4352 53.8447C55.7486 54.0225 56.0327 54.1834 56.2887 54.3193C56.8516 54.6181 57.5188 54.9034 58.3659 55.291C58.8039 55.4914 59.2815 55.6647 59.7526 55.833C60.1915 55.9897 60.6812 56.1604 61.0368 56.3379C61.785 56.7113 62.6936 57.3314 63.1315 57.5918C63.803 57.991 64.8029 58.7964 65.5524 59.5283C65.8247 59.7942 66.1425 60.0631 66.5026 60.3633C66.8528 60.6552 67.2439 60.9772 67.6139 61.3193C67.945 61.6255 68.1887 61.9397 68.3835 62.2051C68.5765 62.4681 68.6948 62.641 68.8327 62.8037C69.0999 63.0273 69.3524 63.2806 69.5729 63.5527C69.646 63.6382 69.7205 63.713 69.8268 63.8193C70.2173 64.2098 70.2173 64.8429 69.8268 65.2334C69.4363 65.6239 68.8033 65.6239 68.4128 65.2334C68.312 65.1326 68.1843 65.0066 68.0534 64.8535L68.0426 64.8408L68.0329 64.8271C67.8775 64.6328 67.6914 64.4475 67.4948 64.29L67.4274 64.2363L67.3698 64.1709C67.1362 63.9059 66.9255 63.599 66.7712 63.3887C66.601 63.1569 66.446 62.9642 66.2555 62.7881C65.9317 62.4887 65.5867 62.2032 65.2223 61.8994C64.8678 61.6038 64.4924 61.2876 64.1559 60.959C63.4762 60.2951 62.6017 59.6029 62.11 59.3105C61.4637 58.9262 60.8227 58.4666 60.1442 58.1279C59.9233 58.0177 59.5753 57.8937 59.0798 57.7168C58.6161 57.5512 58.0612 57.3516 57.5339 57.1103C56.7551 56.754 55.9826 56.4216 55.3503 56.0859C55.0643 55.9341 54.7538 55.757 54.4489 55.584C54.1385 55.4079 53.8282 55.2332 53.5231 55.0713C52.9581 54.7713 52.4754 54.4995 51.8112 54.3271C51.2112 54.1714 51.1098 54.0491 50.3854 53.9551C49.7144 53.8679 48.6043 53.847 46.5963 54.0996C45.9576 54.1799 45.4151 54.2126 44.9616 54.2441C44.4977 54.2764 44.1403 54.3067 43.7975 54.375C42.9449 54.545 42.3867 54.6549 41.7057 54.8721C40.4538 55.2713 39.6117 55.4733 38.9059 55.6504C38.2162 55.8235 37.4882 56.0435 36.6852 56.2558C36.002 56.4365 35.1623 56.6019 34.3766 56.7461C33.6434 56.8807 32.8793 57.0545 32.3278 57.2588C31.9996 57.3803 31.616 57.4989 31.2497 57.6113C30.872 57.7272 30.5027 57.8395 30.1598 57.959C29.3434 58.2433 28.3665 58.7156 27.7301 59.04C27.2626 59.2784 26.8078 59.5026 26.3835 59.7344C25.9546 59.9686 25.6276 60.1741 25.4196 60.3506C25.1248 60.6006 24.6926 60.8906 24.485 61.0478C24.2241 61.2454 23.9961 61.4497 23.7858 61.7363C23.5478 62.0607 23.2364 62.3961 23.0602 62.6035C22.8532 62.8473 22.7259 63.0284 22.6501 63.208C22.3356 63.9538 22.089 64.7116 21.6139 65.9678C21.2055 67.0475 20.9726 67.6737 20.4323 69.8642C20.1506 71.0062 19.9573 71.5296 19.859 72.1885C19.8052 72.5498 19.7332 72.9251 19.6628 73.3017C19.5912 73.6845 19.5181 74.0832 19.4528 74.5234C19.3902 74.946 19.3626 75.3352 19.321 75.7734C19.2815 76.1889 19.2293 76.6492 19.1061 77.0957C19.0093 77.4464 18.9444 77.7927 18.8708 78.1826C18.7999 78.5582 18.7198 78.9806 18.5915 79.4033C18.531 79.6023 18.5157 79.8086 18.4616 80.2363C18.4132 80.6184 18.3358 81.1093 18.111 81.6269C18.1097 81.6303 18.1053 81.6429 18.0983 81.666C18.0893 81.6957 18.0781 81.7366 18.0661 81.789C18.0418 81.8949 18.017 82.0324 17.9928 82.2002C17.9445 82.5362 17.9049 82.9622 17.8825 83.4394C17.8374 84.3984 17.8628 85.5077 17.9987 86.4492C18.0699 86.9425 18.1274 87.3764 18.2067 87.7744C18.2864 88.1741 18.3749 88.4605 18.4753 88.6562C18.8005 89.2903 19.159 89.7392 19.6725 90.4248C19.9415 90.7838 20.1894 91.1492 20.4167 91.4804C20.6493 91.8195 20.8614 92.1248 21.0797 92.4033C21.5379 92.9877 21.8686 93.6506 22.3122 94.6943C22.6423 95.4711 22.8495 96.0585 23.196 96.4785C23.448 96.7841 23.7084 97.1299 23.9518 97.4463C24.2031 97.7728 24.4507 98.0865 24.7106 98.3769C25.4398 99.1918 26.1957 100.014 26.6667 100.483C27.097 100.912 27.562 101.362 28.4606 101.884C29.1538 102.286 29.7397 102.562 30.488 102.937C31.2704 103.328 32.0327 103.694 33.3014 104.539C33.9563 104.975 35.1364 105.614 36.1286 106.096C36.7117 106.379 37.2232 106.659 37.6569 106.895C38.1038 107.137 38.4454 107.32 38.7389 107.445C38.9322 107.528 39.1794 107.587 39.5417 107.663C39.8721 107.732 40.3067 107.817 40.7272 107.957C40.9685 108.038 41.6571 108.131 42.5553 108.198C43.4037 108.262 44.2998 108.294 44.8581 108.294C45.4101 108.294 45.8579 108.742 45.8581 109.294C45.8581 109.846 45.4103 110.294 44.8581 110.294C44.243 110.294 43.296 110.259 42.4049 110.192C41.5636 110.129 40.6149 110.028 40.0944 109.854C39.8093 109.759 39.5083 109.7 39.1315 109.621C38.7863 109.549 38.3538 109.455 37.9538 109.284C37.5574 109.115 37.1302 108.885 36.7018 108.652C36.2603 108.412 35.7895 108.154 35.2546 107.895C34.2328 107.398 32.9593 106.714 32.193 106.203C31.0345 105.431 30.367 105.112 29.5924 104.725C28.8876 104.372 28.2192 104.056 27.4567 103.613C26.3451 102.968 25.7398 102.384 25.2546 101.9C24.7395 101.387 23.9507 100.527 23.2204 99.7109C22.9085 99.3624 22.6229 99 22.3659 98.666C22.101 98.3217 21.8765 98.0219 21.653 97.751C21.0676 97.0412 20.7177 96.054 20.4723 95.4765C20.0394 94.4579 19.7914 94.0014 19.5055 93.6367C19.2432 93.3021 18.9987 92.9482 18.7682 92.6123C18.5324 92.2685 18.3104 91.9424 18.0719 91.624C17.6015 90.996 17.1169 90.3898 16.696 89.5693C16.4699 89.1285 16.3382 88.6289 16.2458 88.165C16.153 87.6995 16.085 87.191 16.0192 86.7353C15.8603 85.6346 15.8352 84.3927 15.8844 83.3457C15.9091 82.8199 15.9531 82.3286 16.0124 81.916C16.0674 81.5333 16.1478 81.1276 16.277 80.8301C16.3862 80.5788 16.4363 80.316 16.4782 79.9853C16.5142 79.7004 16.5526 79.2333 16.6774 78.8222C16.77 78.5174 16.8333 78.1964 16.9059 77.8115C16.9759 77.4408 17.0545 77.009 17.1774 76.5635C17.2505 76.2985 17.2913 75.9892 17.3297 75.5849C17.366 75.2035 17.4014 74.7218 17.4743 74.2304C17.5455 73.7502 17.6249 73.3191 17.6969 72.9336C17.7701 72.542 17.8334 72.2097 17.8805 71.8935C17.9958 71.1205 18.264 70.3013 18.4899 69.3857C19.0503 67.1137 19.3078 66.4109 19.7428 65.2607C20.1752 64.1177 20.4771 63.2146 20.8073 62.4316C21.0039 61.9653 21.2911 61.5966 21.5358 61.3086C21.8115 60.984 21.9893 60.8048 22.1735 60.5537C22.5372 60.0579 22.9257 59.7199 23.278 59.4531C23.6836 59.146 23.8617 59.0491 24.1256 58.8252C24.4958 58.5112 24.9712 58.2271 25.4245 57.9795C25.8822 57.7294 26.3897 57.4792 26.8219 57.2588C27.471 56.9278 28.5497 56.4021 29.5026 56.0703C29.8882 55.936 30.2967 55.8115 30.6628 55.6992C31.0402 55.5834 31.3674 55.4819 31.6325 55.3838C32.352 55.1173 33.2556 54.9187 34.0153 54.7793C34.7962 54.6359 35.5715 54.4817 36.1745 54.3222C36.8477 54.1442 37.7544 53.8769 38.4196 53.7099C39.1317 53.5313 39.9149 53.3441 41.0983 52.9668C41.9025 52.7103 42.5686 52.581 43.4059 52.414C43.8875 52.318 44.3599 52.2802 44.8219 52.248C45.2944 52.2151 45.7749 52.1871 46.3463 52.1152Z" fill="black"/>
</svg>
