<svg width="279" height="179" viewBox="0 0 279 179" fill="none" xmlns="http://www.w3.org/2000/svg">
<path d="M76.6931 3.26758C77.5449 3.20682 78.8868 3.12449 80.4842 3.16504H80.5008L80.5174 3.16699C80.8069 3.18713 81.0923 3.22053 81.3357 3.32519C81.5316 3.4094 81.6663 3.52687 81.7683 3.64453C82.1058 3.75608 82.5097 3.89576 82.8357 4.00488C83.4771 4.21959 84.069 4.47308 84.7342 4.80469C85.2762 5.07495 85.69 5.28762 86.0476 5.47168C86.4063 5.65625 86.7035 5.80985 87.0193 5.96777C87.6823 6.29929 88.203 6.66931 88.6638 6.97656C89.3293 7.42028 90.0209 8.14893 90.4441 8.75C90.6513 9.04432 90.8953 9.33637 91.1511 9.63574C91.3966 9.92296 91.6667 10.2324 91.8787 10.5225C92.2443 11.0228 92.7552 11.6237 93.198 12.3613C93.5642 12.9713 93.8586 13.4633 94.1599 13.9648C94.5237 14.5704 94.7966 15.218 95.1756 16.1768C95.4512 16.8741 95.7682 17.5245 95.9607 18.1885C96.1395 18.8054 96.3782 19.6379 96.6131 20.3447C96.7626 20.7948 96.8047 21.3061 96.8289 21.7793C96.8549 22.2869 96.8608 22.7621 96.909 23.2939C97.03 24.6291 96.9871 25.544 96.867 26.249C96.7484 26.9448 96.5503 27.4328 96.4363 27.7842C96.1915 28.5391 95.8878 29.4507 95.5535 30.2471C95.4084 30.5928 95.2394 30.9504 95.0808 31.2959C94.9191 31.6481 94.7616 32.001 94.6199 32.3691C94.3806 32.9912 94.1518 33.5695 93.825 34.3066C93.3026 35.4849 92.7689 36.1493 92.2039 36.7998C91.6734 37.4106 90.7861 38.2188 90.1951 38.791C89.4636 39.4992 88.5967 40.2034 87.99 40.6426C87.6739 40.8714 87.3406 41.0318 87.0398 41.165C86.7178 41.3076 86.4634 41.4076 86.1834 41.5479C85.773 41.7534 85.3173 41.913 84.9314 42.0449C84.5182 42.1862 84.2081 42.2889 83.9881 42.3945C83.3645 42.6939 82.7266 42.9029 81.9392 43.0732C81.645 43.1369 81.3494 43.2271 81.032 43.3301C80.7251 43.4296 80.3809 43.5467 80.0418 43.6426C79.2734 43.8598 78.1113 43.9708 74.9939 44.0322C73.4569 44.0625 72.4654 43.6931 71.6121 43.4414C70.8539 43.2178 69.9575 42.9381 68.9969 42.6367C68.3835 42.4443 67.7346 42.1341 67.1424 41.8496C66.5266 41.5538 65.9654 41.2831 65.4519 41.1084C64.3057 40.7184 62.8365 39.6951 62.2107 39.2451C61.918 39.0346 61.6084 38.8261 61.2781 38.6016C60.9524 38.3801 60.6109 38.1454 60.2752 37.8936C59.5698 37.3645 59.1407 36.7508 58.6931 36.0605C57.9549 34.922 57.5799 34.2706 57.2058 33.7393C56.7376 33.0742 56.3046 32.3357 55.9705 31.6875C55.7514 31.2625 55.5966 30.8463 55.4558 30.4336C55.311 30.009 55.1886 29.6119 55.0135 29.1436C54.7987 28.569 54.7245 27.8711 54.6844 27.209C54.6638 26.8699 54.6509 26.5156 54.6375 26.1719C54.6239 25.8242 54.6097 25.4825 54.5857 25.1494C54.4873 23.7803 54.442 21.1924 54.5857 19.501C54.6841 18.3445 55.2072 17.2624 55.5291 16.3828C55.7832 15.6883 55.979 15.0089 56.3289 14.332C56.7405 13.5358 57.0039 12.88 57.4226 12.0234C57.8055 11.2403 58.5091 10.4667 58.822 10.0547C59.2227 9.52716 60.0802 8.75083 60.7361 8.19336C61.5601 7.4931 62.7496 6.8029 63.1785 6.50586C63.7393 6.11736 64.381 5.79235 65.0496 5.56836C65.6205 5.37711 66.3073 5.12187 67.0447 4.93262C67.771 4.74623 68.4564 4.54388 69.3914 4.41504C70.2716 4.29375 71.0254 4.14279 71.9705 3.97851C72.7139 3.84929 73.5185 3.73352 74.3084 3.63281C75.0415 3.53934 75.9053 3.41516 76.6033 3.2793L76.6482 3.27051L76.6931 3.26758ZM80.1638 4.65918C78.7841 4.63643 77.6201 4.70539 76.8386 4.76074C76.1021 4.90203 75.2238 5.02755 74.4978 5.12012C73.7228 5.21893 72.942 5.33183 72.2273 5.45605C71.3262 5.6127 70.5112 5.77434 69.5965 5.90039C68.7694 6.01435 68.1917 6.18712 67.4178 6.38574C66.75 6.5571 66.1587 6.7793 65.5261 6.99121C64.9928 7.16988 64.4783 7.42986 64.033 7.73828C63.4171 8.16493 62.4682 8.68982 61.7068 9.33691C61.0334 9.90929 60.3028 10.5848 60.0164 10.9619C59.5661 11.5548 59.0675 12.0737 58.7703 12.6816C58.4258 13.3863 58.0594 14.2497 57.6609 15.0205C57.369 15.5852 57.2398 16.0744 56.9383 16.8984C56.5402 17.9862 56.1556 18.7371 56.0799 19.6279C55.9447 21.2191 55.9871 23.725 56.0818 25.042C56.1077 25.4023 56.123 25.7663 56.1365 26.1143C56.1502 26.4662 56.1621 26.7996 56.1814 27.1182C56.221 27.771 56.2882 28.2715 56.4178 28.6182C56.6026 29.1125 56.7468 29.5721 56.8758 29.9502C57.0087 30.3401 57.1351 30.6743 57.3035 31.001C57.6112 31.5979 58.0099 32.2748 58.4324 32.875C58.8216 33.4278 59.2738 34.1983 59.9519 35.2441C60.3865 35.9143 60.6956 36.334 61.1746 36.6934C61.4806 36.9228 61.798 37.1411 62.1219 37.3613C62.4412 37.5785 62.7724 37.8021 63.0857 38.0273C63.7439 38.5007 65.0357 39.3814 65.9353 39.6875C66.5524 39.8974 67.2029 40.2152 67.7918 40.498C68.4038 40.792 68.9533 41.0507 69.4451 41.2051C70.4074 41.507 71.2927 41.7834 72.0369 42.0029C72.9481 42.2717 73.7035 42.557 74.9636 42.5322C78.1255 42.4699 79.0852 42.3543 79.6336 42.1992C79.9361 42.1136 80.2314 42.0129 80.5691 41.9033C80.8962 41.7972 81.2513 41.6868 81.6228 41.6064C82.3186 41.4559 82.8406 41.2811 83.3386 41.042C83.6606 40.8874 84.0837 40.7502 84.447 40.626C84.8378 40.4924 85.2031 40.3606 85.5115 40.2061C85.8325 40.0452 86.1789 39.9062 86.4324 39.7939C86.7069 39.6724 86.9242 39.5622 87.1101 39.4277C87.6657 39.0256 88.4773 38.3662 89.1521 37.7129C89.8088 37.0771 90.5972 36.3619 91.0711 35.8164C91.5866 35.2228 92.0159 34.6871 92.4539 33.6992C92.7664 32.9942 92.9845 32.4418 93.2195 31.8311C93.3788 31.417 93.5532 31.029 93.7176 30.6709C93.8851 30.306 94.0371 29.9828 94.1697 29.667C94.4771 28.9347 94.7646 28.0766 95.0095 27.3213C95.1558 26.8703 95.294 26.5513 95.3885 25.9971C95.4813 25.452 95.5285 24.6726 95.4158 23.4297C95.3643 22.8614 95.3531 22.2907 95.3308 21.8555C95.3068 21.3855 95.2685 21.056 95.1892 20.8174C94.9433 20.077 94.6961 19.2132 94.5203 18.6064C94.3522 18.0264 94.1204 17.5872 93.781 16.7285C93.4004 15.7656 93.1673 15.2243 92.8748 14.7373C92.5739 14.2364 92.2766 13.7413 91.9119 13.1338C91.5134 12.4699 91.123 12.0312 90.6678 11.4082C90.4982 11.1762 90.2759 10.9208 90.0105 10.6104C89.7555 10.3119 89.4697 9.97236 89.2176 9.61426C88.8776 9.13135 88.3126 8.54526 87.8318 8.22461C87.3299 7.88997 86.9061 7.58842 86.3484 7.30957C86.0227 7.14673 85.7157 6.98767 85.3621 6.80566C85.0071 6.62298 84.5993 6.41375 84.0652 6.14746C83.448 5.83973 82.9211 5.61484 82.3592 5.42676C81.9778 5.2991 81.6036 5.16854 81.2508 5.05273C81.0797 4.99657 80.9284 4.94917 80.8045 4.91406C80.7428 4.89659 80.6918 4.88249 80.6511 4.87305C80.6313 4.86844 80.6154 4.86559 80.6033 4.86328C80.5973 4.86214 80.592 4.86089 80.5886 4.86035C80.5871 4.8601 80.5856 4.86047 80.5847 4.86035L80.5838 4.85937C80.4193 4.83888 80.2758 4.76491 80.1638 4.65918Z" fill="black"/>
<path d="M88.6103 7.56341e-07C89.0244 0.000157396 89.3603 0.335884 89.3603 0.750001C89.3603 1.16412 89.0244 1.49984 88.6103 1.5C88.0282 1.5 87.4988 1.50063 87.166 1.51953C86.7932 1.54073 86.807 1.56422 86.4765 1.59668L86.457 1.59863C86.0713 1.62646 85.6932 1.6829 85.2705 1.74902C84.8545 1.8141 84.3964 1.88805 83.8916 1.9375C83.6702 1.95918 83.4552 1.97253 83.2558 1.98438C83.0524 1.99646 82.8677 2.00716 82.6845 2.02344C82.3225 2.05563 82.0009 2.10812 81.6845 2.21973C80.9929 2.46368 80.3891 2.66926 79.8339 2.87598C79.5154 2.9946 79.0082 3.22684 78.4765 3.47363C77.9686 3.70941 77.4313 3.96188 77.1084 4.09082C76.7238 4.24434 76.2874 4.05731 76.1338 3.67285C75.9802 3.28827 76.1673 2.85193 76.5517 2.69824C76.8249 2.58919 77.3068 2.36199 77.8447 2.11231C78.359 1.87359 78.9253 1.61418 79.3105 1.4707C79.8819 1.25797 80.5141 1.04153 81.1855 0.804688C81.6674 0.634721 82.1271 0.567052 82.5517 0.529298C82.7616 0.510639 82.9714 0.498929 83.167 0.487305C83.3668 0.475426 83.5564 0.462916 83.7461 0.444337C84.1998 0.399871 84.6132 0.334196 85.039 0.267579C85.4525 0.202892 85.8812 0.137833 86.33 0.104493V0.103516C86.4039 0.0961971 86.7347 0.0411524 87.08 0.0214851C87.4661 -0.000461716 88.0483 7.56341e-07 88.6103 7.56341e-07Z" fill="black"/>
<path d="M91.0144 2.52417C91.4286 2.52417 91.7644 2.85996 91.7644 3.27417C91.7644 3.68838 91.4286 4.02417 91.0144 4.02417C90.1894 4.02417 89.4149 4.02406 88.9353 4.0437C88.4178 4.06491 88.3702 4.09526 87.9773 4.1228H87.9695L87.9626 4.12378C86.8259 4.18121 86.0913 4.33812 85.3455 4.57202C84.875 4.71959 84.3875 4.88948 83.9665 5.03394C83.7596 5.10496 83.5658 5.17157 83.404 5.22241C83.2601 5.26767 83.0858 5.31875 82.946 5.33862C82.536 5.39689 82.1567 5.11196 82.0984 4.7019C82.0401 4.29185 82.325 3.91258 82.7351 3.85425C82.7374 3.85374 82.7984 3.83966 82.9539 3.79077C83.0949 3.74642 83.2728 3.68716 83.4802 3.61597C83.8884 3.47589 84.402 3.29568 84.8972 3.14038C85.7582 2.87035 86.6144 2.69129 87.8728 2.62671C88.0459 2.61452 88.3947 2.5653 88.8738 2.54565C89.3919 2.52443 90.2046 2.52417 91.0144 2.52417Z" fill="black"/>
<path d="M87.0239 11.1023C87.4339 11.0442 87.8133 11.3291 87.8716 11.739C87.9298 12.149 87.6448 12.5283 87.2349 12.5867C87.2533 12.5841 87.2471 12.5839 87.2095 12.5955C87.1768 12.6055 87.1334 12.6209 87.0825 12.6414C86.9787 12.6833 86.866 12.7379 86.772 12.7957C86.499 12.9634 86.3534 13.0767 86.022 13.2888C85.8966 13.3691 85.7681 13.4637 85.6069 13.5828C85.4512 13.6979 85.27 13.8327 85.0649 13.9695C84.8804 14.0926 84.7774 14.2239 84.5317 14.5047C84.3366 14.7822 84.2117 15.0096 84.1284 15.2283L84.1226 15.242L84.1177 15.2556C84.1017 15.2933 84.0856 15.3254 84.0737 15.3494C84.059 15.3792 84.0539 15.3893 84.0405 15.4168C84.0196 15.4597 83.9888 15.5253 83.9419 15.6375C83.7822 16.0196 83.3426 16.2004 82.9605 16.0408C82.5783 15.8811 82.3974 15.4415 82.5571 15.0593C82.6152 14.9203 82.6581 14.8288 82.6919 14.7595C82.7057 14.7313 82.724 14.6955 82.729 14.6853C82.7351 14.673 82.7365 14.6685 82.7368 14.6677H82.7378C82.8815 14.2988 83.0797 13.958 83.3276 13.6092L83.3501 13.5779L83.3755 13.5486C83.5665 13.3313 83.8316 12.9885 84.2319 12.7215C84.4025 12.6077 84.5563 12.4939 84.7163 12.3758C84.8707 12.2617 85.039 12.1378 85.2134 12.0261C85.4039 11.9042 85.7466 11.665 85.9868 11.5174C86.1646 11.4081 86.3543 11.317 86.521 11.2498C86.6738 11.1881 86.8607 11.1255 87.0239 11.1023Z" fill="black"/>
<path d="M88.3946 15.3877C88.787 15.2575 89.2106 15.4696 89.3419 15.8613C89.3876 15.8763 89.4491 15.8983 89.5079 15.9277C89.6091 15.9785 89.7964 16.0945 89.9112 16.3232L89.9552 16.4287L90.0186 16.6475C90.1351 17.132 90.1399 17.7514 90.0528 18.3242C90.0631 18.3737 90.0694 18.425 90.0694 18.4775C90.0694 18.6528 90.0599 18.8235 89.9571 19.1943C89.9366 19.2682 89.9105 19.3511 89.8829 19.4404C89.8791 19.4716 89.8758 19.5022 89.8722 19.5322C89.8403 19.7915 89.8038 20.0819 89.6954 20.3643C89.6178 20.5665 89.5155 20.8287 89.3819 21.0781C89.2494 21.3254 89.0608 21.6096 88.7823 21.8301C88.7753 21.8357 88.7672 21.8409 88.7598 21.8467C88.7516 21.8589 88.7446 21.8718 88.7364 21.8838C88.517 22.2028 88.2136 22.5546 87.7579 22.6826C87.6645 22.7088 87.4976 22.7435 87.3028 22.7061C87.1737 22.6812 87.0434 22.6255 86.9288 22.5361C86.8571 22.5318 86.7833 22.5255 86.7081 22.5137C86.6298 22.5013 86.3442 22.4601 86.1173 22.2217C85.8829 21.9751 85.8484 21.6724 85.8468 21.4834C85.8367 20.2763 85.9006 19.868 85.9337 19.4853C85.9632 19.1439 86.0044 18.6249 86.2032 18.1738C86.3324 17.8809 86.5268 17.3787 86.7833 17.0244C86.8447 16.9395 86.8795 16.8576 86.9806 16.6533C87.0665 16.4796 87.2027 16.2183 87.4473 15.9941C87.759 15.7086 88.1392 15.4724 88.3946 15.3877Z" fill="black"/>
<path d="M76.3849 29.5144C76.7406 29.3026 77.2011 29.4195 77.4132 29.7751C77.3909 29.7377 77.3747 29.7203 77.3849 29.7322C77.3912 29.7395 77.4048 29.7547 77.4278 29.7781C77.474 29.8248 77.54 29.8877 77.6241 29.9626C77.6977 30.0282 77.8057 30.1052 78.5245 30.4031C78.7218 30.4848 78.8584 30.534 79.0021 30.5886C79.1429 30.6421 79.291 30.7018 79.4542 30.7927C79.5228 30.8309 79.6001 30.8627 79.7345 30.9079C79.8543 30.9483 80.0651 31.0132 80.2862 31.0925C81.0654 31.372 81.3582 31.4233 81.6925 31.4773C82.1517 31.5514 82.8636 31.6747 83.337 31.7546C83.4685 31.7768 83.5558 31.7844 83.7003 31.8044C83.8248 31.8217 83.9896 31.8487 84.1593 31.9089C84.1762 31.9149 84.2089 31.9224 84.3038 31.9285C84.3652 31.9324 84.3922 31.9334 84.4776 31.9382C84.5467 31.9421 84.6301 31.9478 84.7208 31.9597C85.0803 32.0068 85.2249 32.043 85.5489 32.0788C85.7297 32.0989 86.0463 32.1106 86.4357 32.1208C86.807 32.1306 87.2303 32.1396 87.5763 32.157C87.8266 32.1696 88.0366 32.1765 88.5314 32.197C89.1107 32.221 89.6062 32.2187 89.9728 32.2087C90.1559 32.2038 90.3058 32.1969 90.4171 32.1902C90.4728 32.1868 90.518 32.1842 90.5519 32.1814C90.5687 32.18 90.582 32.1785 90.5919 32.1775C90.6021 32.1765 90.6065 32.1755 90.6066 32.1755C90.8638 32.1418 91.0618 32.1293 91.2286 32.1189C91.3964 32.1084 91.5158 32.1009 91.6554 32.0818C92.0622 32.0262 92.3865 31.9817 92.6876 31.9255C92.776 31.9065 92.8848 31.8835 92.965 31.865C93.0476 31.8459 93.1319 31.8244 93.2638 31.8054C93.6738 31.7463 94.0543 32.0312 94.1134 32.4412C94.1724 32.8511 93.8876 33.2317 93.4776 33.2908C93.4189 33.2992 93.3963 33.3051 93.3019 33.3269C93.2094 33.3482 93.0855 33.3752 92.9874 33.3962L92.9679 33.4001C92.6212 33.465 92.2536 33.5141 91.8585 33.5681C91.6544 33.596 91.4782 33.6062 91.3214 33.616C91.1637 33.6258 91.0071 33.636 90.8019 33.6628C90.5893 33.6907 89.6894 33.7456 88.4698 33.6951C87.9873 33.6751 87.76 33.668 87.5011 33.655C87.1788 33.6388 86.7847 33.6311 86.3966 33.6208C86.0264 33.6111 85.6403 33.5984 85.3839 33.5701C85.101 33.5387 84.7071 33.4707 84.5265 33.447C84.4302 33.4344 84.3759 33.4362 84.2081 33.4255C84.0676 33.4165 83.8709 33.3978 83.6573 33.322C83.6377 33.315 83.5982 33.3052 83.4943 33.2908C83.4105 33.2791 83.2439 33.2596 83.087 33.2331C82.6013 33.1511 81.9056 33.0308 81.4532 32.9578C81.0299 32.8894 80.6476 32.8151 79.7794 32.5037C79.5695 32.4284 79.4358 32.3894 79.256 32.3288C79.091 32.2733 78.9126 32.2069 78.7247 32.1023C78.6585 32.0654 78.5911 32.0364 78.4689 31.99C78.3495 31.9446 78.1748 31.8818 77.9503 31.7888C77.2698 31.5069 76.9206 31.3443 76.6271 31.0828C76.5293 30.9957 76.4372 30.9096 76.3605 30.8318C76.3007 30.7712 76.196 30.6632 76.1241 30.5427C75.9123 30.187 76.0293 29.7265 76.3849 29.5144Z" fill="black"/>
<path d="M65.2643 40.9285C65.5572 40.6356 66.0329 40.6356 66.3258 40.9285C66.6184 41.2213 66.6184 41.6962 66.3258 41.989C66.2307 42.0841 65.9208 42.476 65.7379 42.8728C65.4811 43.4303 65.0924 44.0384 64.818 44.531C64.556 45.0015 64.3122 45.425 64.0866 45.7634C63.8888 46.0602 63.6055 46.5565 63.2819 47.1638C63.1416 47.427 62.9887 47.7359 62.8249 48.0632C62.6642 48.3842 62.4935 48.7214 62.3288 49.0173C62.0362 49.543 61.8778 49.9291 61.7487 50.3162L61.7399 50.3445L61.7282 50.3728C61.6935 50.4542 61.6543 50.5244 61.6334 50.5632C61.6082 50.6101 61.6011 50.6245 61.5963 50.6355C61.5924 50.6445 61.5911 50.6492 61.5768 50.6853C61.5654 50.7141 61.5474 50.7591 61.5231 50.8093C61.4705 50.9179 61.3936 51.0416 61.2731 51.1638C60.9824 51.4589 60.5076 51.4624 60.2125 51.1716C59.927 50.8902 59.915 50.4367 60.1784 50.1404C60.1794 50.1378 60.1809 50.135 60.1823 50.1316C60.1842 50.1269 60.1867 50.1222 60.1891 50.116C60.1914 50.1101 60.194 50.1028 60.1969 50.0955C60.2028 50.0808 60.2104 50.0616 60.2194 50.0408C60.2539 49.9608 60.2922 49.8905 60.3122 49.8533C60.3307 49.8188 60.3387 49.8027 60.3434 49.7927C60.4977 49.338 60.6897 48.877 61.0182 48.2869C61.1649 48.0233 61.3216 47.7139 61.4831 47.3914C61.6414 47.0751 61.8059 46.7426 61.9577 46.4578C62.2842 45.8449 62.597 45.2927 62.8385 44.9304C63.0282 44.6458 63.2473 44.2686 63.5075 43.8015C63.8561 43.1756 64.1475 42.74 64.3756 42.2449C64.6361 41.6798 65.0498 41.1431 65.2643 40.9285Z" fill="black"/>
<path d="M58.1995 50.3035C58.3839 49.9327 58.8345 49.7812 59.2053 49.9656C59.3566 50.0408 59.4715 50.1497 59.5384 50.2175C59.6159 50.2962 59.6894 50.3845 59.7552 50.4695C59.8871 50.6401 60.0199 50.8387 60.1321 51.0212C60.3123 51.3144 60.5084 51.6354 61.0979 52.324C61.9172 53.2809 62.1884 53.6544 62.4895 54.031C62.6921 54.2845 63.1141 54.7588 63.3841 55.199L63.5374 55.4177C63.5882 55.4864 63.6432 55.5558 63.7014 55.6248C63.7561 55.6745 63.8926 55.7983 64.0598 56.0203C64.3089 56.3509 64.2429 56.8208 63.9124 57.0701C63.5816 57.3194 63.1109 57.2534 62.8616 56.9226C62.8024 56.8441 62.7664 56.806 62.7444 56.7839C62.7314 56.771 62.7188 56.7587 62.6985 56.74C62.6805 56.7234 62.6488 56.6944 62.6165 56.6619L62.5969 56.6423L62.5784 56.6209C62.3974 56.4095 62.2495 56.2012 62.136 56.031L62.1165 55.9998C61.917 55.6668 61.6169 55.3418 61.3177 54.9675C60.9959 54.565 60.7555 54.2308 59.9583 53.2996C59.3072 52.539 59.0657 52.1512 58.8538 51.8064C58.7584 51.6512 58.6567 51.5003 58.5686 51.3865C58.5253 51.3305 58.493 51.2928 58.4719 51.2712C58.1497 51.0687 58.0265 50.6515 58.1995 50.3035Z" fill="black"/>
<path d="M59.6459 54.093C59.9048 53.8147 60.3383 53.7726 60.6478 54.0071C60.9425 54.2306 61.0247 54.6296 60.8607 54.9475C60.8527 54.978 60.8407 55.0285 60.8265 55.1057C60.7937 55.284 60.7634 55.4946 60.7142 55.7883C60.6332 56.2721 60.6126 56.6206 60.6029 56.9065C60.594 57.1688 60.5951 57.4828 60.5453 57.7756C60.5007 58.0372 60.471 58.3254 60.4388 58.6291C60.4085 58.916 60.374 59.2353 60.3197 59.4993C60.2869 59.6582 60.2665 59.8868 60.2464 60.1897C60.2278 60.4714 60.2098 60.8139 60.1752 61.1282C60.1486 61.3686 60.1112 61.628 60.0765 61.8772C60.041 62.1322 60.0062 62.3897 59.9818 62.6565C59.928 63.2454 59.7814 63.8627 59.6839 64.3254C59.5735 64.8494 59.4864 65.3891 59.4505 65.8039C59.4248 66.1015 59.3687 66.3983 59.3236 66.6535C59.2765 66.9204 59.236 67.1719 59.2191 67.4446C59.2034 67.6992 59.1702 67.9487 59.1419 68.1975C59.1128 68.4548 59.0825 68.7566 59.0638 69.1682C59.0488 69.501 58.989 69.8053 58.9408 70.0618C58.8909 70.3273 58.8471 70.5726 58.8304 70.8635C58.8126 71.1748 58.771 71.4435 58.7298 71.6897C58.6878 71.9415 58.649 72.157 58.6195 72.4114C58.5751 72.7942 58.5524 73.1472 58.5335 73.4944C58.515 73.8349 58.4987 74.1857 58.4642 74.5266C58.4043 75.1187 58.2985 76.6988 58.2337 77.7756C58.2046 78.2596 58.1675 78.6236 58.1332 78.9299C58.0981 79.242 58.0694 79.4649 58.0511 79.7063C58.0302 79.9835 58.0002 80.2562 57.971 80.5061C57.9413 80.7613 57.9134 80.9868 57.8949 81.1946C57.8681 81.4956 57.8241 81.8388 57.7816 82.1897C57.7382 82.5475 57.694 82.9325 57.6625 83.3489L57.6605 83.3684L57.6585 83.3869C57.6241 83.6551 57.5986 83.9926 57.5863 84.4162V84.4309L57.5853 84.4465C57.5772 84.563 57.5644 84.658 57.5541 84.7414C57.5436 84.8251 57.5319 84.9233 57.5199 85.0774C57.4877 85.4903 57.1262 85.799 56.7132 85.7668C56.3005 85.7345 55.9916 85.374 56.0238 84.9612C56.0382 84.7767 56.0526 84.6541 56.0648 84.5559C56.077 84.4575 56.0836 84.4088 56.0882 84.342C56.1019 83.8983 56.1287 83.5199 56.1703 83.1965C56.2042 82.761 56.2495 82.3627 56.2923 82.009C56.3373 81.6378 56.3768 81.3315 56.4007 81.0618C56.4215 80.8279 56.4525 80.575 56.4808 80.3323C56.5097 80.0841 56.5375 79.8383 56.556 79.594C56.577 79.3164 56.611 79.0459 56.6429 78.7619C56.6755 78.472 56.7096 78.1357 56.7367 77.6858C56.801 76.616 56.9084 75.0047 56.972 74.3762C57.0021 74.0793 57.0169 73.7731 57.0365 73.4133C57.0557 73.0603 57.0793 72.6692 57.1293 72.2385C57.1643 71.936 57.2126 71.6685 57.2503 71.4426C57.289 71.2111 57.3193 71.0062 57.3324 70.7776C57.355 70.3823 57.4154 70.0549 57.4662 69.7844C57.5187 69.5047 57.5563 69.3087 57.5658 69.1008C57.5864 68.6452 57.62 68.3078 57.6517 68.0285C57.6843 67.741 57.7094 67.5558 57.722 67.3518C57.7445 66.9893 57.7984 66.6672 57.847 66.3918C57.8977 66.1048 57.9379 65.8895 57.9564 65.675C57.9991 65.1806 58.0978 64.5773 58.2162 64.0159C58.3263 63.493 58.4451 62.997 58.4886 62.5207C58.5164 62.2169 58.554 61.9301 58.5902 61.6701C58.6272 61.4041 58.6605 61.1768 58.6839 60.9641C58.7138 60.6928 58.7297 60.4033 58.7503 60.091C58.7696 59.7997 58.7944 59.4712 58.8509 59.1965C58.8875 59.0188 58.9142 58.7786 58.9466 58.4719C58.9773 58.182 59.0126 57.8418 59.0668 57.5237C59.0943 57.362 59.0919 57.2091 59.1039 56.8557C59.115 56.5256 59.1398 56.1085 59.2347 55.5412C59.2765 55.2917 59.3169 55.0232 59.3519 54.8332C59.3701 54.7346 59.3912 54.6305 59.4173 54.5364C59.4359 54.4698 59.484 54.3008 59.597 54.1516L59.6459 54.093Z" fill="black"/>
<path d="M63.9255 63.9897C64.1552 63.6452 64.6209 63.5522 64.9656 63.7817C65.3102 64.0115 65.4033 64.4771 65.1736 64.8218C65.1207 64.901 65.0694 64.978 65.0173 65.0561C64.9146 65.2103 64.762 65.4388 64.5583 65.7573C64.4411 65.9617 64.2917 66.1742 64.2195 66.2856C64.1246 66.4321 64.0708 66.5373 64.0398 66.647C63.8798 67.2131 63.6306 67.788 63.4236 68.2192C63.222 68.6391 63.067 68.8895 62.9324 69.2554C62.8375 69.5132 62.7081 69.7446 62.6111 69.9185C62.5043 70.1099 62.4337 70.2391 62.3855 70.3657C62.2371 70.7555 62.0378 71.1575 61.8796 71.5239C61.728 71.8752 61.5882 72.2909 61.4734 72.6997C61.3618 73.0968 61.2678 73.4837 61.1052 74.1841C60.9653 74.7866 60.8046 75.2378 60.6667 75.6265C60.579 75.8738 60.4724 76.1214 60.3796 76.3384C60.2828 76.565 60.2001 76.76 60.1374 76.9419C59.979 77.4017 59.7873 77.8113 59.612 78.1763C59.4266 78.5626 59.286 78.83 59.2097 79.1352C59.0995 79.5761 58.9387 80.1059 58.6863 80.6108C58.6049 80.7735 58.5368 80.9561 58.4343 81.2368C58.3348 81.5096 58.2121 81.848 58.03 82.271C57.8655 82.6532 57.772 83.1898 57.7497 83.3901C57.7042 83.8018 57.3333 84.0988 56.9216 84.0532C56.5102 84.0074 56.2139 83.6366 56.2595 83.2251C56.2888 82.9612 56.403 82.257 56.6521 81.6782C56.8159 81.2977 56.9259 80.9939 57.0251 80.7222C57.1214 80.4584 57.2182 80.1935 57.3445 79.9409C57.5279 79.574 57.6572 79.1616 57.7546 78.772C57.8775 78.2806 58.1082 77.842 58.2595 77.5269C58.4328 77.166 58.5917 76.8245 58.7195 76.4536C58.8028 76.2118 58.9076 75.9665 59.0007 75.7485C59.098 75.5209 59.1847 75.3189 59.2537 75.1245C59.3904 74.7392 59.5252 74.3581 59.6443 73.8452C59.8069 73.1447 59.9072 72.728 60.029 72.2944C60.1566 71.8402 60.3176 71.3579 60.5027 70.9292C60.7122 70.4438 60.8452 70.1939 60.9831 69.8315C61.0775 69.5837 61.2075 69.3564 61.3015 69.188C61.4053 69.0018 61.4769 68.8689 61.5251 68.7378C61.6913 68.2863 61.9359 67.8514 62.071 67.5698C62.262 67.1721 62.4702 66.6854 62.5964 66.2388C62.6871 65.9181 62.8334 65.6667 62.9607 65.4702C63.1057 65.2463 63.1823 65.15 63.2703 64.9907L63.282 64.9702L63.2947 64.9497C63.5063 64.6188 63.6651 64.3803 63.7693 64.2241C63.8213 64.146 63.8727 64.069 63.9255 63.9897Z" fill="black"/>
<path d="M65.3127 55.7007C65.78 55.3391 66.356 55.3716 66.7033 55.4282C67.1078 55.4942 67.4942 55.6435 67.6906 55.7173C68.0558 55.8544 68.4394 56.1432 68.7463 56.395C69.0706 56.6611 69.4147 56.9759 69.6877 57.2173C70.1809 57.6534 70.3806 58.2587 70.4826 58.7388C70.6052 59.3165 70.4165 59.8789 70.2561 60.2583C70.1702 60.4612 70.0739 60.6515 69.9953 60.8062C69.9099 60.9741 69.8552 61.0822 69.8205 61.1655C69.5618 61.7877 69.386 62.2698 69.2072 62.6421C69.0402 62.99 68.7763 63.5539 68.383 64.0278C67.8305 64.6936 66.9327 65.0618 66.3781 65.2085H66.3762C66.1361 65.2715 65.9485 65.3263 65.7746 65.3745C65.658 65.4069 65.5294 65.4383 65.4065 65.4624C65.4052 65.4632 65.404 65.4644 65.4025 65.4653C65.39 65.4734 65.3765 65.4827 65.3557 65.4966C65.0111 65.7263 64.5454 65.6331 64.3156 65.2886C64.2714 65.2222 64.2417 65.1505 64.2209 65.0776C64.0947 65.0159 63.9838 64.9192 63.9065 64.7896C63.9324 64.833 63.9483 64.8436 63.8918 64.7818C63.8367 64.7214 63.8043 64.6898 63.717 64.5952C63.5743 64.4406 63.3827 64.2235 63.2121 63.9644C62.9363 63.5453 62.8569 63.0629 62.8264 62.6235C62.7966 62.1949 62.8082 61.6585 62.802 61.1392C62.7968 60.7127 62.8905 60.3424 62.9865 60.0474C63.0337 59.9024 63.0851 59.764 63.1252 59.6548C63.1682 59.5377 63.1987 59.4534 63.219 59.3814C63.3397 58.9519 63.5412 58.4959 63.7229 58.1138C63.9243 57.6901 64.0732 57.4101 64.176 57.1792C64.456 56.5507 64.8578 56.1122 65.2209 55.7778L65.3127 55.7007ZM66.4621 56.9087C66.3098 56.8839 66.2404 56.8942 66.219 56.8989C65.9414 57.1568 65.7068 57.4289 65.5461 57.7896C65.4413 58.0249 65.2328 58.4304 65.0774 58.7573C64.9021 59.1259 64.7467 59.4871 64.6623 59.7876C64.6242 59.9231 64.5753 60.0582 64.5334 60.1724C64.4886 60.2943 64.4495 60.3998 64.4133 60.5112C64.3423 60.7294 64.2996 60.925 64.302 61.1216C64.3093 61.7276 64.2965 62.147 64.3225 62.52C64.3477 62.8822 64.405 63.048 64.465 63.1392C64.5678 63.2953 64.6938 63.4414 64.8195 63.5776C64.8663 63.6283 64.9565 63.7242 64.9992 63.771C65.0352 63.8104 65.104 63.8901 65.1643 63.98C65.2104 63.9692 65.2774 63.9558 65.3732 63.9292C65.5268 63.8866 65.7419 63.8238 65.9953 63.7573C66.4262 63.6432 66.968 63.3841 67.2287 63.0698C67.484 62.7622 67.6732 62.3707 67.8547 61.9927C68.0128 61.6634 68.1353 61.3118 68.4357 60.5894C68.4981 60.4395 68.5866 60.2677 68.6584 60.1265C68.737 59.9718 68.811 59.8228 68.8742 59.6734C69.0117 59.3482 69.0375 59.1526 69.0158 59.0503C68.9358 58.6739 68.8235 58.4562 68.6936 58.3413C68.3918 58.0745 68.0899 57.7979 67.7941 57.5552C67.481 57.2982 67.2697 57.1616 67.1633 57.1216C66.9444 57.0394 66.6958 56.9468 66.4621 56.9087Z" fill="black"/>
<path d="M63.2605 63.4482C63.6315 63.3656 64.0122 63.5759 64.1345 63.9443C64.2517 64.2978 64.0906 64.6752 63.7712 64.8428C63.7601 64.8521 63.7415 64.8681 63.7146 64.8936C63.6365 64.9674 63.5302 65.0791 63.3894 65.2324C63.1603 65.482 62.9439 65.7176 62.7009 66.001C62.0823 66.7222 61.5395 67.1018 61.0691 67.544L61.0681 67.543C60.9486 67.6625 60.851 67.7628 60.7644 67.8389C60.7174 67.8801 60.6692 67.9178 60.6404 67.9414C60.6074 67.9683 60.5649 68.0039 60.4978 68.0635C60.1881 68.3383 59.7142 68.3105 59.4392 68.001C59.1644 67.6913 59.1922 67.2174 59.5017 66.9424C59.5864 66.8672 59.6453 66.8185 59.6921 66.7803C59.7431 66.7387 59.7545 66.73 59.7751 66.7119C59.8198 66.6727 59.8812 66.6107 60.0251 66.4668L60.0339 66.459L60.0417 66.4512C60.7104 65.8226 60.9995 65.6817 61.5632 65.0244C61.8233 64.7211 62.0529 64.4694 62.2839 64.2178C62.4283 64.0605 62.5646 63.916 62.6833 63.8037C62.7426 63.7477 62.8079 63.689 62.8757 63.6377C62.9314 63.5955 63.0421 63.5166 63.1863 63.4688L63.2605 63.4482Z" fill="black"/>
<path d="M56.7132 68.4341C57.0577 68.2732 57.4752 68.3964 57.6741 68.73C57.8621 69.0456 57.7905 69.4425 57.5237 69.6763C57.4989 69.707 57.4626 69.7561 57.4095 69.8296C57.3103 69.9667 57.1653 70.1731 57.0061 70.3813C56.6098 70.8996 56.1593 71.169 55.9602 71.3169C55.2741 71.8269 54.6372 72.0802 54.3333 72.189C54.0552 72.3154 53.8089 72.3788 53.6292 72.4106L53.6058 72.4155L53.5833 72.4175C53.5709 72.4189 53.556 72.4197 53.5491 72.4204C53.5407 72.4242 53.5282 72.4321 53.51 72.4419C53.1457 72.6386 52.6904 72.5025 52.4934 72.1382C52.2967 71.7738 52.4329 71.3185 52.7972 71.1216C52.9318 71.0488 53.0566 70.9973 53.1819 70.9653C53.2608 70.9452 53.3376 70.9349 53.3802 70.9302C53.4714 70.9132 53.5991 70.8815 53.7434 70.812L53.7796 70.7944L53.8177 70.7808C54.0403 70.7016 54.5331 70.5088 55.0647 70.1138C55.3854 69.8754 55.5825 69.7727 55.8138 69.4702C55.9569 69.2829 56.0806 69.1083 56.1946 68.9507C56.248 68.8768 56.3049 68.7992 56.3567 68.7349C56.3825 68.7029 56.4147 68.6647 56.4505 68.6274C56.4775 68.5993 56.5469 68.5282 56.6458 68.4692L56.7132 68.4341Z" fill="black"/>
<path d="M48.475 42.7908C49.0593 42.7386 50.8631 42.5928 52.4359 42.822C53.0888 42.9172 53.8235 43.0572 54.4603 43.2214C54.7782 43.3034 55.083 43.394 55.3461 43.4929C55.5925 43.5856 55.8652 43.7078 56.0726 43.8728C56.4317 44.1585 57.163 44.6366 57.5736 45.3855C58.168 46.4701 58.4051 47.0268 58.5834 47.5505C58.7882 48.1523 58.8431 48.915 58.8431 49.1912C58.8429 49.6052 58.5072 49.9412 58.0931 49.9412C57.878 49.941 57.6849 49.8491 57.5482 49.7038C57.2666 49.7036 57.0022 49.5471 56.8754 49.2869C56.8658 49.2842 56.8555 49.2812 56.8441 49.2781L56.8285 49.2742L56.8129 49.2693C56.6236 49.2087 56.44 49.132 56.2787 49.0632C56.1089 48.9908 55.9596 48.9248 55.7982 48.864C55.4875 48.7469 55.1674 48.6619 54.7865 48.657C54.2661 48.6502 53.8063 48.6195 53.2992 48.6296C52.8065 48.6395 52.4116 48.6897 52.1283 48.8005C51.5874 49.0121 51.2927 49.1296 50.9623 49.3494C50.5776 49.6053 49.9427 50.1027 49.2484 50.5027C49.0986 50.589 48.9808 50.6856 48.7982 50.8376C48.6185 50.9872 48.3932 51.1755 48.0775 51.3718C47.8813 51.4938 47.7277 51.6175 47.5248 51.7781C47.3261 51.9353 47.0915 52.1176 46.7806 52.2947C45.9792 52.751 45.6873 52.9636 45.101 53.4509C44.8571 53.6536 44.5872 53.911 44.226 54.2537C43.8708 54.5905 43.4439 54.993 42.9115 55.4607C42.3842 55.9239 41.9877 56.3234 41.6303 56.6531C41.3726 56.8907 41.0397 57.3303 40.8588 57.6579C40.8343 57.7023 40.8064 57.7668 40.765 57.8747C40.7301 57.9659 40.6771 58.1094 40.6195 58.2371C40.5221 58.4529 40.2689 58.9651 39.6693 59.0701C39.395 59.118 39.1259 59.0628 38.931 59.0183C38.7444 58.9757 38.4169 58.888 38.1058 58.8132C37.3921 58.6416 36.7753 58.3324 36.4662 58.2117C36.3711 58.1745 36.2558 58.1396 36.1107 58.0994C35.9781 58.0626 35.8033 58.0173 35.6449 57.9685C35.3522 57.8783 34.8905 57.7175 34.5805 57.3425C34.5418 57.2958 34.4614 57.1968 34.3978 57.072C34.3424 56.9632 34.2262 56.6933 34.3265 56.3699L34.391 56.2038C34.4148 56.1516 34.4397 56.1039 34.4594 56.0662C34.5053 55.9778 34.5617 55.8762 34.6195 55.7732C34.7392 55.56 34.8775 55.317 35.0121 55.0554C35.2863 54.5226 35.5855 54.091 35.8959 53.7009C36.0798 53.4698 36.2974 53.2221 36.474 53.0124C36.6614 52.7899 36.8249 52.5841 36.9574 52.3816C37.3273 51.8161 37.6964 51.0468 38.5551 49.9031C39.1553 49.1036 39.5499 48.7174 40.2191 47.9353C40.8201 47.2329 41.1291 46.8508 41.7611 46.2751C42.0754 45.9888 42.4746 45.3993 43.6898 44.6472C44.5229 44.1317 45.6123 43.5301 46.7338 43.1941C47.364 43.0053 47.9299 42.8395 48.475 42.7908ZM52.2201 44.3064C50.8386 44.105 49.1906 44.2328 48.6078 44.2849C48.2412 44.3177 47.8245 44.4329 47.1644 44.6306C46.233 44.9097 45.2771 45.4293 44.4799 45.9226C43.4144 46.5819 43.3112 46.8913 42.7709 47.3835C42.2212 47.8842 41.975 48.1897 41.3588 48.9099C40.6168 49.777 40.3195 50.0529 39.7553 50.8044C38.9094 51.9311 38.7246 52.4212 38.2133 53.2029C38.0298 53.4834 37.8183 53.7446 37.6215 53.9783C37.4137 54.225 37.2373 54.4239 37.0697 54.6345C36.806 54.9659 36.5657 55.3152 36.3461 55.7419C36.2013 56.0232 36.0525 56.2847 35.9398 56.4851C35.9823 56.5008 36.0307 56.5178 36.0863 56.5349C36.2177 56.5754 36.347 56.6083 36.5121 56.654C36.6646 56.6963 36.8415 56.7476 37.0121 56.8142C37.5046 57.0066 37.8728 57.2139 38.4564 57.3542C38.6418 57.3988 38.8015 57.4401 38.9359 57.4744C39.0732 57.5094 39.1776 57.5355 39.265 57.5554C39.269 57.5563 39.273 57.5565 39.2767 57.5574C39.301 57.4981 39.3277 57.4313 39.3637 57.3376C39.4062 57.2266 39.466 57.076 39.5453 56.9324C39.7923 56.4851 40.221 55.9126 40.6137 55.5505C40.9033 55.2834 41.3878 54.8032 41.9222 54.3337C42.4316 53.8863 42.8407 53.4997 43.1937 53.1648C43.5405 52.8358 43.8516 52.5389 44.142 52.2976C44.7938 51.7558 45.1581 51.4922 46.0385 50.991C46.2456 50.873 46.4065 50.7497 46.5941 50.6013C46.7777 50.456 47.0016 50.2733 47.2846 50.0974C47.505 49.9604 47.6627 49.8315 47.8383 49.6853C48.0111 49.5414 48.2218 49.3627 48.4994 49.2029C49.159 48.823 49.5794 48.4674 50.1312 48.1003C50.6168 47.7773 51.0618 47.6077 51.5824 47.404C52.1187 47.1943 52.729 47.1404 53.2689 47.1296C53.7943 47.1191 54.3952 47.1516 54.806 47.157C55.417 47.1649 55.9153 47.3058 56.3265 47.4607C56.5261 47.5359 56.7144 47.618 56.8676 47.6833C56.9397 47.7141 57.0047 47.7413 57.0648 47.7654C56.9241 47.3993 56.7094 46.9305 56.2582 46.1072C56.0347 45.6994 55.6635 45.464 55.139 45.0466C55.1395 45.047 55.1329 45.0423 55.1176 45.0329C55.1021 45.0235 55.0808 45.0112 55.0521 44.9968C54.9937 44.9675 54.9162 44.9339 54.8187 44.8972C54.6228 44.8236 54.3727 44.7477 54.0853 44.6736C53.5117 44.5256 52.8319 44.3956 52.2201 44.3064Z" fill="black"/>
<path d="M36.4573 58.4443C36.5878 58.0515 37.0117 57.8387 37.4046 57.9687C37.6964 58.0655 37.8878 58.3245 37.9144 58.6123C37.9671 58.3494 38.1563 58.1226 38.431 58.04L38.5218 58.0185C38.7409 57.9801 39.0146 58.0248 39.2279 58.2432C39.4066 58.4264 39.4439 58.6393 39.4544 58.7139C39.4791 58.8887 39.4507 59.0549 39.4329 59.1426L39.4202 59.206L39.3968 59.2666C39.2065 59.754 39.0442 60.1331 38.6234 61.0254L38.5755 61.1279L38.4993 61.2109C38.3787 61.3433 38.2689 61.4725 38.1536 61.6064C38.0436 61.7342 37.9228 61.8723 37.8021 61.9932C37.6127 62.1827 37.1894 62.5819 36.6029 62.4941C36.4913 62.4774 36.2755 62.4296 36.0804 62.2568C35.8586 62.0603 35.7609 61.7915 35.7571 61.5273C35.7442 60.6228 35.8293 60.119 35.9876 59.6191C36.0776 59.3352 36.1933 59.0551 36.2864 58.8389C36.3313 58.7348 36.3788 58.6278 36.4085 58.5596C36.4248 58.5221 36.4373 58.4924 36.4466 58.4697C36.4568 58.445 36.4591 58.439 36.4573 58.4443ZM37.9017 58.8408C37.8961 58.8662 37.8895 58.8918 37.8812 58.917C37.8556 58.9941 37.8149 59.0884 37.7845 59.1582C37.7465 59.2455 37.7099 59.3269 37.6644 59.4326C37.5858 59.6148 37.5049 59.8142 37.4407 60.0049C37.6698 59.5116 37.7984 59.2192 37.9163 58.9258C37.9098 58.8974 37.9048 58.8691 37.9017 58.8408Z" fill="black"/>
<path d="M35.1159 57.4668C35.3213 57.1072 35.7797 56.9821 36.1393 57.1875C36.4989 57.393 36.6241 57.8513 36.4186 58.2109C36.3385 58.3511 36.2781 58.4538 36.1706 58.7061C35.9413 59.2438 35.8201 59.5646 35.7428 59.7803C35.6742 59.9717 35.6162 60.1547 35.5426 60.3223C35.4624 60.505 35.4035 60.7028 35.3541 60.9014C35.3294 61.0011 35.3084 61.0936 35.2868 61.1885C35.2666 61.2765 35.2435 61.3782 35.2174 61.4678C35.1186 61.8075 35.0436 62.2303 34.9479 62.6797C34.9319 62.7548 34.9243 62.8366 34.9176 62.9463C34.9121 63.0383 34.9055 63.1995 34.8883 63.3408C34.8525 63.6364 34.8228 64.1511 34.7956 64.7891C34.7811 65.1291 34.791 65.7816 34.8122 66.2842C34.8462 67.0925 34.9118 67.4178 34.9332 67.6338C34.9484 67.7861 34.994 67.983 35.0612 68.2207C35.112 68.4002 35.2188 68.7433 35.2692 68.9277C35.2846 68.984 35.3053 69.0413 35.3366 69.125C35.365 69.2011 35.4065 69.3113 35.442 69.4287C35.4604 69.4893 35.5175 69.6169 35.6413 69.8418C35.7592 70.0561 35.9084 70.3075 36.0856 70.6094C36.2302 70.8558 36.3555 71.0429 36.4547 71.1855C36.5234 71.2844 36.5307 71.2932 36.5905 71.3789C36.6265 71.4305 36.6752 71.5011 36.7145 71.5713C36.9433 71.9805 37.1773 72.2406 37.3805 72.4912C37.6436 72.8157 37.8246 73.0025 37.9411 73.1035C38.0583 73.2052 38.1791 73.3255 38.2731 73.4199C38.3784 73.5256 38.453 73.6007 38.5123 73.6523C38.7164 73.8299 38.9478 74.0186 39.3073 74.2754C39.5103 74.4204 39.7626 74.544 40.0514 74.625C40.4211 74.7287 40.6624 74.7439 41.5514 74.7939C42.1699 74.8287 43.2231 74.8098 43.8541 74.7988C44.2106 74.7926 44.4144 74.7793 44.5446 74.7666C44.6801 74.7533 44.7251 74.7426 44.8512 74.7246C45.4512 74.6392 45.6698 74.5141 45.9713 74.4014C46.2292 74.3049 46.6853 74.1595 47.0143 74.0566C47.2554 73.9813 47.5741 73.8809 47.9616 73.748C47.9915 73.7377 48.0814 73.6976 48.2096 73.623C48.3314 73.5522 48.4508 73.4715 48.5368 73.4033C48.7184 73.2591 48.9191 73.0539 49.1139 72.8379C49.3087 72.6219 49.4019 72.4692 49.7916 71.9863C50.0644 71.6485 50.2843 71.3504 50.442 71.1279C50.5209 71.0167 50.5843 70.9254 50.6295 70.8574C50.6521 70.8235 50.6692 70.7957 50.6823 70.7754C50.6944 70.7564 50.7007 70.747 50.7018 70.7451C50.7777 70.616 50.8572 70.4914 50.9323 70.3721C51.0095 70.2494 51.0928 70.1155 51.1911 69.9443C51.7339 68.9985 52.0479 68.6551 52.1149 68.5664C52.1619 68.4905 52.2228 68.3944 52.3082 68.251C52.3382 68.1976 52.3689 68.1397 52.4362 67.9766C52.5942 67.5938 53.0328 67.4115 53.4157 67.5693C53.7986 67.7273 53.9809 68.1659 53.8229 68.5488C53.7377 68.7552 53.6817 68.8699 53.6139 68.9902L53.61 68.998L53.6051 69.0059C53.4988 69.1848 53.4139 69.3188 53.3776 69.3779L53.3668 69.3955L53.3551 69.4131C53.1877 69.6546 53.0199 69.7705 52.4918 70.6904C52.3792 70.8867 52.2842 71.0401 52.2018 71.1709C52.1173 71.3052 52.0555 71.4015 51.9948 71.5049C51.9161 71.6387 51.5406 72.2068 50.9586 72.9277C50.6677 73.2882 50.4475 73.5986 50.2272 73.8428C50.0203 74.0722 49.7521 74.3537 49.4694 74.5781C49.1844 74.8044 48.7483 75.0639 48.4479 75.167C48.0409 75.3065 47.7066 75.4117 47.4616 75.4883C47.1236 75.5939 46.7088 75.7273 46.4967 75.8066C46.2738 75.89 45.8658 76.0957 45.0631 76.21C44.8644 76.2383 44.6634 76.2852 43.8795 76.2988C43.2738 76.3094 42.1545 76.3306 41.4674 76.292C40.6193 76.2443 40.2037 76.2258 39.6461 76.0693C39.1943 75.9426 38.7835 75.7439 38.4352 75.4951C38.0362 75.21 37.7666 74.9927 37.527 74.7842C37.4181 74.6894 37.3008 74.57 37.2096 74.4785C37.1073 74.3758 37.0269 74.2956 36.9586 74.2363C36.7487 74.0542 36.505 73.7925 36.2155 73.4355C36.0499 73.2314 35.7121 72.8531 35.4049 72.3037C35.4039 72.3022 35.3938 72.2849 35.36 72.2363C35.3454 72.2154 35.261 72.0963 35.2233 72.042C35.1096 71.8784 34.9622 71.6581 34.7926 71.3691C34.6233 71.0806 34.4578 70.8035 34.3268 70.5654C34.2018 70.3382 34.0748 70.0892 34.0065 69.8633C33.9881 69.8024 33.9662 69.7438 33.9313 69.6504C33.8993 69.5647 33.857 69.4507 33.8219 69.3223C33.7574 69.086 33.7063 68.9418 33.6178 68.6289C33.5457 68.374 33.4699 68.0722 33.4411 67.7822C33.4303 67.6738 33.3494 67.2081 33.3131 66.3477C33.2913 65.8301 33.2803 65.1276 33.2975 64.7246C33.3244 64.0953 33.356 63.5231 33.4 63.1602C33.4099 63.0789 33.4115 63.0068 33.4206 62.8564C33.4286 62.7238 33.4415 62.5532 33.4811 62.3672C33.5599 61.9971 33.6577 61.4589 33.777 61.0488C33.8118 60.9292 33.8283 60.8212 33.8981 60.54C33.9566 60.3045 34.0392 60.0134 34.1686 59.7187C34.2143 59.6146 34.2341 59.543 34.3307 59.2734C34.4187 59.0279 34.5507 58.6798 34.7907 58.1172C34.9312 57.7876 35.024 57.6275 35.1159 57.4668Z" fill="black"/>
<path d="M51.7499 64.9656C52.0172 64.6954 52.4516 64.6663 52.7539 64.9099C53.046 65.1456 53.1138 65.5551 52.9306 65.8699C52.9195 65.8963 52.9049 65.9354 52.8808 65.9978C52.8335 66.1202 52.7648 66.2975 52.6747 66.4988C52.5147 66.8566 52.4197 67.1111 52.1728 67.4881C51.6078 68.3506 51.517 68.4663 51.4091 68.6385C51.3245 68.7735 51.244 68.8893 51.1787 68.9822C51.1097 69.0803 51.0633 69.1466 51.0244 69.2107C50.9428 69.3451 50.8537 69.4841 50.7753 69.6062C50.6941 69.733 50.6276 69.8369 50.579 69.9168C50.473 70.0914 50.3053 70.3554 50.1035 70.6531C49.8898 70.9683 49.7102 71.2152 49.5068 71.4558C49.4343 71.5415 49.3831 71.6086 49.2958 71.7166C49.2207 71.8096 49.1234 71.9257 49.0087 72.032C48.8183 72.2085 48.5603 72.3764 48.4599 72.45C48.2957 72.5704 48.1455 72.6668 48.0009 72.7527C47.9284 72.8153 47.8318 72.8937 47.7148 72.9568L47.6865 72.9724L47.6816 72.9744C47.3859 73.2223 46.9455 73.2065 46.6689 72.9275C46.3772 72.6334 46.3787 72.1586 46.6728 71.867L46.7929 71.7615C46.8345 71.7292 46.8778 71.6998 46.9238 71.6736C46.9483 71.6597 46.9777 71.6473 47.0029 71.6355C47.0136 71.6271 47.029 71.6132 47.0537 71.5906L47.1152 71.5349L47.1865 71.4939C47.3032 71.4269 47.4265 71.3485 47.5732 71.241C47.7987 71.0757 47.8816 71.0311 47.9892 70.9314C48.0212 70.9017 48.063 70.8556 48.1289 70.7742C48.1829 70.7073 48.277 70.5868 48.3613 70.4871C48.5171 70.3027 48.6632 70.1035 48.8613 69.8113C49.0499 69.533 49.2044 69.2897 49.2968 69.1375C49.3574 69.0378 49.4368 68.914 49.5126 68.7957C49.5915 68.6727 49.6715 68.5488 49.7421 68.4324C49.8119 68.3174 49.8883 68.2092 49.9511 68.1199C50.0175 68.0254 50.0777 67.9398 50.1386 67.8426C50.2483 67.6675 50.4026 67.454 50.9189 66.6658C51.0824 66.4161 51.1183 66.3052 51.3056 65.8865C51.3782 65.7243 51.434 65.5793 51.4814 65.4568C51.5035 65.3997 51.5285 65.3356 51.5507 65.283C51.562 65.2563 51.5771 65.2221 51.5947 65.1873C51.6078 65.1612 51.6428 65.0932 51.6992 65.0232L51.7499 64.9656Z" fill="black"/>
<path d="M32.836 71.9104C33.2501 71.9106 33.586 72.2463 33.586 72.6604C33.586 72.7158 33.5779 72.7695 33.5665 72.8215C33.5751 72.8373 33.5856 72.8549 33.5948 72.8723C33.7514 73.1664 34.1075 73.689 34.2501 73.885C34.3656 74.0437 34.4702 74.1911 34.5772 74.3352C34.5772 74.3352 34.5833 74.3421 34.5968 74.3576C34.6101 74.373 34.6278 74.3931 34.6505 74.4172C34.6961 74.4658 34.755 74.5259 34.8253 74.594C34.9657 74.7299 35.1407 74.8891 35.3214 75.0442C35.7015 75.3703 36.3688 75.7463 36.5928 75.8782L36.8409 76.0158C36.9366 76.0665 37.0584 76.1269 37.2335 76.2112L37.2354 76.2121C37.2404 76.2129 37.2487 76.2144 37.2618 76.216C37.6728 76.2678 37.9639 76.643 37.9122 77.0539C37.8604 77.4649 37.4853 77.7561 37.0743 77.7043C36.9383 77.6872 36.8164 77.6632 36.6466 77.593L36.627 77.5852L36.6085 77.5764C36.1934 77.3773 36.0262 77.2822 35.8526 77.1838L35.8409 77.177V77.176C35.7039 77.0949 34.859 76.6241 34.3438 76.1819C33.9681 75.8594 33.5442 75.46 33.3731 75.2297C33.262 75.0801 33.1376 74.9045 33.0382 74.7678C32.8861 74.5589 32.4783 73.9665 32.2706 73.5764C32.2496 73.5371 32.1561 73.3744 32.0987 73.2239C32.0411 73.0726 31.9436 72.752 32.088 72.4016L32.1231 72.3274C32.2133 72.1594 32.3633 72.025 32.5538 71.9573C32.6412 71.9262 32.7165 71.9168 32.7598 71.9133C32.7821 71.9115 32.8006 71.9106 32.8126 71.9104C32.8239 71.9102 32.8346 71.9104 32.836 71.9104ZM32.836 73.4104C32.8151 73.4104 32.8375 73.4118 32.8829 73.4074C32.8674 73.4084 32.8518 73.4104 32.836 73.4104Z" fill="black"/>
<path d="M58.0703 53.0886C58.2555 52.7182 58.7056 52.5675 59.0761 52.7527C59.4465 52.9379 59.5961 53.3881 59.4111 53.7586C59.3181 53.9445 59.1684 54.2779 59.0917 54.5076C59.0275 54.7002 58.8918 54.9906 58.7246 55.3484C58.5466 55.7292 58.3047 56.2442 57.9931 56.9382C57.4602 58.1252 57.4716 58.298 57.1464 59.1043C57.0058 59.453 56.8503 59.8582 56.7343 60.2586C56.6263 60.6317 56.4147 61.1966 56.2812 61.5964C56.1444 62.0061 56.016 62.3594 55.7695 63.1961C55.6339 63.6563 55.6104 63.8782 55.5029 64.3396C55.4641 64.5058 55.4153 64.68 55.3691 64.8474C55.3214 65.0201 55.2725 65.199 55.2255 65.3982C55.1138 65.872 55.0381 66.2421 54.9384 66.5798C54.9038 66.6971 54.8786 66.8261 54.8476 66.992C54.821 67.1345 54.7855 67.3189 54.7353 67.4968L54.7363 67.4978C54.7194 67.5652 54.7033 67.6316 54.6865 67.699C54.6779 67.7333 54.6731 67.7546 54.6679 67.7791C54.663 67.8023 54.6567 67.8325 54.6503 67.8767C54.5913 68.2867 54.2107 68.5715 53.8007 68.5125C53.391 68.4532 53.1069 68.0727 53.166 67.6629C53.1884 67.5075 53.2121 67.4129 53.2314 67.3357C53.2482 67.2683 53.2644 67.2009 53.2812 67.1336L53.2851 67.1189L53.29 67.1033C53.3191 67.0046 53.3409 66.8883 53.373 66.7166C53.4023 66.5596 53.4404 66.3569 53.5 66.155C53.5839 65.8705 53.6395 65.5895 53.7656 65.0545C53.8195 64.8255 53.8755 64.6227 53.9238 64.448C53.9734 64.2685 54.0117 64.1284 54.0419 63.9988C54.1181 63.6719 54.1821 63.2775 54.331 62.7722C54.5872 61.9029 54.7261 61.5168 54.8584 61.1209C55.0278 60.6133 55.1938 60.1872 55.2939 59.8416C55.4316 59.3662 55.6105 58.9041 55.7558 58.5437C55.9844 57.9768 56.1044 57.4812 56.624 56.324C56.941 55.6179 57.188 55.0929 57.3652 54.7136C57.553 54.3118 57.6393 54.1217 57.6689 54.033C57.7775 53.7075 57.9629 53.3034 58.0703 53.0886Z" fill="black"/>
<path d="M200.617 107.699C200.617 107.285 200.953 106.949 201.367 106.949C201.781 106.95 202.117 107.285 202.117 107.699C202.117 109.914 201.987 114.667 201.886 116.007C201.767 117.574 201.659 119.003 201.561 122.365C201.471 125.462 201.527 131.414 201.56 134.657C201.603 138.942 201.85 140.273 201.952 142.546C201.999 143.569 202.071 144.499 202.146 145.528C202.22 146.554 202.296 147.667 202.346 149.037C202.408 150.727 202.705 155.757 202.869 159.155C202.91 159.999 202.934 160.778 202.961 161.676L203.066 164.911L203.067 164.919V164.928C203.1 167.275 203.1 171.628 203.068 174.003C203.035 176.399 202.967 176.682 202.901 177.536C202.868 177.949 202.508 178.258 202.095 178.226C201.682 178.194 201.373 177.833 201.406 177.42C201.473 176.56 201.536 176.324 201.568 173.983C201.6 171.626 201.6 167.303 201.567 164.966C201.468 162.278 201.452 160.914 201.37 159.227C201.208 155.87 200.909 150.787 200.847 149.092C200.798 147.749 200.724 146.656 200.65 145.636C200.576 144.618 200.501 143.662 200.453 142.614C200.358 140.501 200.103 138.961 200.06 134.672C200.027 131.443 199.97 125.456 200.061 122.322C200.159 118.93 200.27 117.477 200.39 115.894C200.487 114.609 200.617 109.899 200.617 107.699Z" fill="black"/>
<path d="M207.015 107.47C207.015 107.056 207.35 106.72 207.765 106.72C208.179 106.72 208.515 107.056 208.515 107.47C208.515 109.115 208.472 112.401 208.408 114.49C208.352 116.341 208.387 119.849 208.408 121.756C208.42 122.781 208.446 123.565 208.472 124.28C208.498 124.995 208.525 125.649 208.535 126.401C208.56 128.161 208.682 130.073 208.747 132.676C208.803 134.928 208.769 139.166 208.79 141.382C208.801 142.499 208.816 143.098 208.832 143.604C208.848 144.114 208.863 144.541 208.874 145.306C208.885 146.067 208.89 147.163 208.896 148.264C208.901 149.367 208.907 150.476 208.917 151.271C208.929 152.187 208.955 152.98 208.982 153.769C209.008 154.556 209.033 155.341 209.044 156.229C209.048 156.551 209.063 156.739 209.081 157.225C209.099 157.695 209.118 158.407 209.129 159.715C209.151 162.325 209.151 167.324 209.13 169.985C209.104 173.291 208.942 174.37 208.787 175.275C208.779 175.39 208.774 175.52 208.769 175.667C208.763 175.813 208.757 175.98 208.745 176.129C208.732 176.285 208.713 176.414 208.695 176.538C208.677 176.662 208.658 176.799 208.638 176.996C208.596 177.408 208.228 177.708 207.816 177.666C207.404 177.624 207.104 177.257 207.146 176.845C207.169 176.615 207.192 176.453 207.211 176.322C207.23 176.191 207.242 176.108 207.25 176.007C207.259 175.899 207.264 175.769 207.27 175.614C207.275 175.468 207.281 175.298 207.293 175.141L207.296 175.106L207.301 175.072C207.441 174.251 207.604 173.276 207.63 169.973C207.651 167.319 207.651 162.329 207.629 159.728C207.618 158.43 207.599 157.734 207.582 157.281C207.566 156.844 207.548 156.593 207.544 156.247C207.534 155.377 207.509 154.607 207.482 153.818C207.456 153.03 207.429 152.224 207.417 151.291C207.407 150.489 207.401 149.372 207.396 148.271C207.39 147.168 207.386 146.08 207.375 145.327C207.364 144.578 207.348 144.165 207.332 143.65C207.316 143.133 207.301 142.524 207.29 141.396C207.269 139.119 207.303 134.959 207.247 132.713C207.185 130.228 207.06 128.149 207.035 126.423C207.025 125.692 206.999 125.057 206.973 124.336C206.946 123.615 206.92 122.816 206.908 121.772C206.887 119.879 206.852 116.334 206.909 114.444C206.973 112.372 207.015 109.101 207.015 107.47Z" fill="black"/>
<path d="M156.379 105.68C157.66 105.673 158.477 105.847 159.22 105.963C159.873 106.064 160.526 106.141 162.36 106.192C162.837 106.205 162.862 106.243 164.403 106.26C165.161 106.269 166.263 106.274 167.376 106.278C168.486 106.282 169.607 106.286 170.392 106.295C172.731 106.32 174.118 106.45 174.769 106.502C175.109 106.529 176.975 106.585 179.617 106.568C180.08 106.565 180.349 106.553 180.637 106.539C180.931 106.525 181.245 106.509 181.782 106.5C182.312 106.491 183.06 106.486 183.81 106.482C184.562 106.478 185.316 106.474 185.866 106.466C186.532 106.455 187.159 106.434 187.825 106.413C188.489 106.392 189.189 106.372 189.989 106.363C190.453 106.358 191.102 106.338 191.922 106.315C192.737 106.293 193.707 106.269 194.797 106.26C195.17 106.258 195.386 106.246 195.684 106.232C195.987 106.218 196.359 106.202 197.028 106.193C198.354 106.176 200.859 106.175 202.22 106.192C204.162 106.216 205.297 106.386 206.189 106.468C207.214 106.563 208.195 106.658 209.403 106.868C209.76 106.93 210.146 106.962 210.653 107.001C211.153 107.039 211.749 107.082 212.483 107.169C212.953 107.224 213.21 107.232 213.812 107.287C214.903 107.387 215.768 107.334 219.2 107.385C222.368 107.433 228.505 107.403 231.826 107.386C235.139 107.37 235.424 107.336 236.49 107.318C237.021 107.309 237.735 107.305 238.44 107.301C239.149 107.296 239.848 107.292 240.354 107.284C241.393 107.267 241.51 107.235 242.756 107.199C243.905 107.166 246.155 107.13 247.352 107.097C249.7 107.033 251.28 106.928 252.77 106.875C253.724 106.841 254.763 106.726 255.248 106.62L255.281 106.612L255.314 106.608C255.4 106.597 255.504 106.59 255.547 106.586C255.605 106.58 255.641 106.575 255.674 106.568C255.713 106.56 255.76 106.545 255.866 106.512C255.964 106.482 256.092 106.443 256.251 106.403C256.653 106.302 257.06 106.545 257.161 106.947C257.262 107.349 257.019 107.756 256.617 107.857C256.5 107.887 256.405 107.916 256.311 107.945C256.225 107.972 256.11 108.009 255.995 108.034C255.874 108.061 255.766 108.072 255.684 108.08C255.593 108.088 255.559 108.089 255.514 108.094C254.894 108.223 253.792 108.34 252.823 108.375C251.413 108.425 249.721 108.532 247.393 108.596C246.093 108.632 244.02 108.664 242.8 108.699C241.676 108.731 241.387 108.767 240.379 108.784C239.863 108.792 239.155 108.796 238.45 108.801C237.742 108.805 237.036 108.809 236.515 108.818C235.478 108.835 235.155 108.87 231.833 108.886C228.519 108.903 222.364 108.934 219.178 108.885C215.852 108.835 214.841 108.887 213.675 108.78C213.158 108.733 212.792 108.716 212.307 108.659C211.609 108.576 211.043 108.534 210.539 108.496C210.043 108.458 209.585 108.422 209.146 108.345C208.001 108.146 207.071 108.055 206.053 107.962C205.099 107.874 204.064 107.715 202.201 107.692C200.853 107.675 198.36 107.676 197.048 107.693C196.398 107.702 196.043 107.716 195.754 107.73C195.46 107.744 195.216 107.757 194.809 107.76C193.733 107.769 192.773 107.792 191.963 107.814C191.158 107.836 190.486 107.858 190.006 107.863C189.222 107.871 188.535 107.892 187.872 107.913C187.211 107.934 186.57 107.955 185.89 107.966C185.33 107.974 184.567 107.978 183.817 107.982C183.065 107.986 182.326 107.991 181.807 108C181.294 108.008 180.999 108.023 180.708 108.037C180.41 108.051 180.118 108.065 179.627 108.068C176.985 108.085 175.061 108.03 174.649 107.997C174.001 107.945 172.659 107.819 170.375 107.795C169.597 107.786 168.483 107.782 167.37 107.778C166.26 107.774 165.15 107.769 164.386 107.76C162.884 107.743 162.639 107.701 162.319 107.692C160.444 107.64 159.723 107.559 158.988 107.444C158.196 107.32 157.52 107.174 156.388 107.18C154.863 107.189 153.882 107.211 153.237 107.23C152.616 107.248 152.263 107.266 152.063 107.266C151.649 107.266 151.314 106.93 151.313 106.516C151.313 106.102 151.649 105.766 152.063 105.766C152.237 105.766 152.513 105.75 153.193 105.73C153.851 105.711 154.843 105.689 156.379 105.68Z" fill="black"/>
<path d="M150.074 107.544C150.074 107.018 150.073 106.464 150.102 106.062L150.104 106.038L150.107 106.014C150.149 105.706 150.199 105.44 150.245 105.196C150.291 104.957 150.333 104.748 150.368 104.523C150.448 103.316 150.596 101.98 150.682 100.842C150.725 100.267 150.828 99.7282 150.923 99.2153C151.02 98.6937 151.111 98.1817 151.157 97.6001C151.199 97.0518 151.286 96.5029 151.371 95.9321C151.458 95.3535 151.547 94.7228 151.605 93.9624C151.708 92.6024 151.716 90.1073 151.681 87.3423C151.641 84.2116 151.611 82.4482 151.561 81.3608C151.511 80.2817 151.442 79.9234 151.341 79.5816C151.215 79.1559 151.022 78.771 150.775 78.2153C150.537 77.6802 150.282 77.0514 150.114 76.2544C149.749 74.5255 149.844 72.3316 149.945 71.1597C150.007 70.437 150.047 69.6389 150.129 68.9517C150.213 68.2537 150.35 67.5441 150.655 66.937C150.754 66.7387 150.905 66.6081 151.016 66.5288C151.133 66.4449 151.262 66.3791 151.383 66.3267C151.625 66.2217 151.916 66.1362 152.214 66.065C152.817 65.9212 153.558 65.8115 154.254 65.7388C154.789 65.6829 155.293 65.5789 161.232 65.5239C166.957 65.4709 177.865 65.4187 189.529 65.4194C201.189 65.4202 213.261 65.4728 224.175 66.0376C235.09 66.6025 244.555 67.6797 249.432 68.1694C251.994 68.4267 253.571 68.5526 254.541 68.6548C255.53 68.759 256.075 68.853 256.624 69.0952C256.871 69.2042 257.176 69.4112 257.489 69.6372C257.819 69.876 258.224 70.1864 258.689 70.5425C259.624 71.2589 260.833 72.1873 262.293 73.2066C263.934 74.3518 265.572 75.4768 267.087 77.0396C267.513 77.4782 267.861 77.8171 268.324 78.2749C268.785 78.7317 269.348 79.296 270.192 80.1714C271.676 81.7115 274.126 84.4362 275.712 85.9009C276.22 86.3699 276.672 86.7638 277.065 87.1021C277.452 87.4355 277.797 87.7292 278.07 87.98C278.335 88.2242 278.587 88.4763 278.757 88.7368C278.936 89.0109 279.087 89.3925 278.964 89.8306C278.788 90.4583 278.321 91.1838 277.618 92.0923C276.263 93.8455 275.452 94.7524 274.195 95.6655C271.583 97.5621 269.484 99.0028 268.353 99.6353C267.694 100.004 266.914 100.516 266.158 101.026C265.417 101.525 264.685 102.032 264.17 102.357C262.905 103.155 261.792 103.786 261.03 104.468C260.424 105.01 259.762 105.667 259.219 106.245C258.948 106.533 258.712 106.798 258.53 107.015C258.335 107.247 258.237 107.385 258.21 107.434C258.009 107.796 257.553 107.926 257.191 107.725C256.829 107.524 256.698 107.068 256.899 106.706C257.003 106.518 257.187 106.283 257.38 106.052C257.585 105.807 257.842 105.521 258.125 105.218C258.693 104.614 259.387 103.926 260.03 103.351C260.916 102.558 262.21 101.819 263.369 101.088C263.859 100.78 264.547 100.302 265.319 99.7817C266.075 99.2716 266.902 98.7288 267.62 98.3267C268.661 97.7444 270.691 96.3562 273.314 94.4517C274.395 93.6661 275.101 92.8948 276.432 91.1743C277.062 90.3596 277.362 89.8562 277.483 89.5317C277.416 89.4387 277.287 89.2982 277.054 89.0835C276.805 88.8542 276.488 88.5851 276.085 88.2378C275.688 87.8953 275.221 87.4894 274.695 87.0034C273.068 85.5019 270.523 82.6765 269.112 81.2124C268.278 80.3471 267.722 79.7916 267.268 79.3413C266.814 78.892 266.449 78.5365 266.01 78.0835C264.612 76.6417 263.097 75.5972 261.435 74.437C259.944 73.3964 258.71 72.4491 257.776 71.7329C257.306 71.3727 256.919 71.077 256.61 70.853C256.283 70.6166 256.1 70.504 256.019 70.4683C255.701 70.3283 255.362 70.25 254.384 70.147C253.388 70.042 251.916 69.9261 249.283 69.6616C244.386 69.17 234.967 68.0972 224.098 67.5347C213.228 66.9721 201.192 66.9202 189.529 66.9194C177.868 66.9187 166.965 66.971 161.245 67.0239C155.321 67.0788 154.874 67.1825 154.409 67.231C153.747 67.3002 153.077 67.4011 152.562 67.5239C152.302 67.5859 152.107 67.6476 151.981 67.7026C151.968 67.7083 151.956 67.7143 151.946 67.7192C151.79 68.0767 151.69 68.5422 151.619 69.1304C151.54 69.7914 151.509 70.4799 151.44 71.2876C151.341 72.4338 151.265 74.4433 151.581 75.9448C151.718 76.5926 151.926 77.1107 152.146 77.605C152.357 78.0786 152.617 78.606 152.78 79.1558C152.931 79.668 153.008 80.1659 153.06 81.2915C153.112 82.4097 153.141 84.2022 153.181 87.3228C153.216 90.0769 153.209 92.6385 153.1 94.0757C153.038 94.8912 152.943 95.5648 152.855 96.1538C152.766 96.7506 152.689 97.2336 152.652 97.7153C152.6 98.3839 152.494 98.9653 152.398 99.4878C152.3 100.019 152.214 100.476 152.178 100.956C152.081 102.236 151.943 103.405 151.862 104.663L151.86 104.696L151.855 104.73C151.813 104.997 151.764 105.244 151.719 105.478C151.675 105.708 151.632 105.936 151.596 106.194C151.573 106.528 151.574 107.008 151.574 107.544C151.573 107.958 151.238 108.294 150.824 108.294C150.409 108.294 150.074 107.959 150.074 107.544Z" fill="black"/>
<path d="M182.281 72.0479C182.694 72.0089 183.06 72.3123 183.099 72.7246C183.137 73.1369 182.835 73.503 182.423 73.542C182.128 73.5699 181.361 73.8918 180.287 75.0547C179.435 75.9779 179.372 76.814 179.37 78.2783C179.37 78.5312 179.482 78.7835 179.776 79.0781C180.082 79.3836 180.521 79.671 181.051 79.9776C181.44 80.2027 182.1 80.436 183.13 80.4932C183.139 80.4842 183.153 80.4735 183.169 80.457C183.206 80.4176 183.238 80.3801 183.296 80.3145C183.668 79.8894 183.648 79.4117 183.747 78.5801C183.76 78.4703 183.766 78.3868 183.771 78.3213C182.978 78.1297 182.649 78.131 182.296 78.0567L182.288 78.0547C182.218 78.0391 182.179 78.0298 182.121 78.0195C182.066 78.0097 181.989 77.9988 181.865 77.9863C181.453 77.9446 181.153 77.5762 181.194 77.1641C181.236 76.7521 181.605 76.4525 182.017 76.4942C182.329 76.5258 182.471 76.5595 182.604 76.5889H182.604C182.7 76.609 183.306 76.665 184.197 76.8819L184.596 76.9854L184.906 77.0703L185.059 77.3535C185.364 77.9232 185.268 78.4931 185.236 78.7578C185.172 79.2983 185.186 80.432 184.424 81.3028C184.3 81.4442 183.875 82.0328 183.107 81.9951C181.859 81.9337 180.94 81.6468 180.299 81.2754C179.758 80.9626 179.17 80.5937 178.715 80.1387C178.25 79.673 177.869 79.0606 177.87 78.2764C177.872 76.7775 177.914 75.4135 179.185 74.0371C180.337 72.7884 181.427 72.1288 182.281 72.0479Z" fill="black"/>
<path d="M194.693 72.7898C194.996 72.8203 195.241 73.0317 195.329 73.3132C195.383 73.3416 195.436 73.3695 195.489 73.3982C195.792 73.5632 196.129 73.7594 196.449 73.9597L196.762 74.1599L196.829 74.2058L196.886 74.2644C197.143 74.5304 197.515 74.9826 197.815 75.5427C198.112 76.0972 198.373 76.8203 198.314 77.6023C198.26 78.3261 198.102 79.0782 197.87 79.7087C197.754 80.0241 197.612 80.3265 197.445 80.5857C197.284 80.8359 197.065 81.097 196.773 81.2654C196.242 81.5721 195.452 82.0226 194.377 82.156C193.91 82.214 193.168 82.2722 192.417 82.2C191.698 82.1307 190.806 81.9276 190.202 81.322C190.184 81.3035 190.16 81.2825 190.103 81.2341C190.056 81.1937 189.98 81.1293 189.906 81.0525C189.743 80.8831 189.563 80.6272 189.521 80.2566C189.445 79.5766 189.386 78.7601 189.45 77.9714C189.513 77.1967 189.7 76.3547 190.195 75.699C190.776 74.9289 191.638 73.8461 192.841 73.3474C192.914 73.3171 192.986 73.2909 193.055 73.2634C193.181 73.0291 193.427 72.8679 193.712 72.8679C193.827 72.8679 193.976 72.8692 194.132 72.8796C194.187 72.8636 194.237 72.8462 194.284 72.8347C194.357 72.8167 194.489 72.7859 194.617 72.7859L194.693 72.7898ZM194.206 74.4294C194 74.5017 193.737 74.6 193.416 74.7332C192.635 75.0568 191.99 75.811 191.392 76.6023C191.149 76.9249 190.999 77.432 190.945 78.0925C190.895 78.7197 190.938 79.402 191.007 80.03C191.022 80.0442 191.043 80.0641 191.077 80.0935C191.119 80.1291 191.193 80.1921 191.264 80.2625C191.486 80.4853 191.931 80.6462 192.561 80.7068C193.16 80.7643 193.78 80.7178 194.192 80.6667C194.945 80.5734 195.51 80.2631 196.023 79.9666C196.026 79.965 196.041 79.9542 196.068 79.9255C196.1 79.8922 196.139 79.8423 196.184 79.7722C196.276 79.6305 196.372 79.4345 196.462 79.1902C196.642 78.7009 196.775 78.0872 196.819 77.491C196.848 77.1008 196.718 76.6699 196.493 76.2507C196.291 75.874 196.039 75.5576 195.858 75.3621C195.513 75.1373 195.119 74.9043 194.772 74.7156C194.587 74.6145 194.42 74.5291 194.286 74.4656C194.257 74.4519 194.23 74.4404 194.206 74.4294Z" fill="black"/>
<path d="M207.47 72.8149L207.919 72.8452L208.058 72.8589L208.183 72.9223C209.228 73.4482 210.118 74.1998 210.395 75.0659C210.597 75.6947 211.008 76.6063 210.806 77.9721C210.711 78.6191 210.594 79.324 210.366 79.9448C210.135 80.5746 209.762 81.1953 209.102 81.5903C208.163 82.1528 207.162 82.821 205.545 82.5776C204.913 82.4826 204.285 82.3395 203.758 82.1557C203.495 82.0639 203.243 81.9563 203.023 81.8315C202.812 81.7117 202.582 81.549 202.414 81.3266C201.944 80.7055 201.464 79.1776 202.208 77.2612C202.468 76.5905 202.714 75.9836 202.952 75.5083C203.071 75.2699 203.197 75.0462 203.333 74.8559C203.462 74.6735 203.633 74.4748 203.856 74.3364C204.461 73.9618 205.011 73.7212 205.505 73.5727C205.54 73.454 205.603 73.3415 205.697 73.2485L205.799 73.1577C206.039 72.9656 206.278 72.9136 206.406 72.8852L206.414 72.8842C206.681 72.8279 207.043 72.7996 207.47 72.8149ZM207.596 74.3257C207.504 74.6352 207.221 74.8618 206.881 74.8618C206.399 74.8618 205.661 74.982 204.646 75.6108C204.667 75.598 204.633 75.6141 204.554 75.7251C204.481 75.8283 204.395 75.9772 204.294 76.1792C204.091 76.5846 203.867 77.1315 203.606 77.8032C203.037 79.2699 203.476 80.245 203.61 80.4223C203.603 80.4131 203.635 80.4546 203.762 80.5268C203.881 80.594 204.045 80.6662 204.253 80.7387C204.668 80.8839 205.202 81.009 205.768 81.0942C206.788 81.2476 207.349 80.8913 208.331 80.3032C208.589 80.1487 208.793 79.8773 208.958 79.4282C209.126 78.9701 209.225 78.4079 209.322 77.7534C209.462 76.8062 209.205 76.2662 208.966 75.5229C208.88 75.2531 208.477 74.7786 207.631 74.3286C207.62 74.3277 207.608 74.3264 207.596 74.3257Z" fill="black"/>
<path d="M220.177 71.5937L220.231 71.6025C221.658 71.8317 223.12 72.0802 224.122 73.5762C224.877 74.7034 225.616 75.8273 225.562 77.1933C225.526 78.0874 225.464 78.9133 225.377 79.5761C225.333 79.9068 225.283 80.2087 225.222 80.4638C225.165 80.7005 225.085 80.9653 224.956 81.1748C224.837 81.3675 224.524 82.4924 223.43 83.2607C223.211 83.414 222.877 83.6751 222.426 83.8379C221.953 84.0085 221.396 84.063 220.672 83.9638C219.675 83.8275 219.031 83.7487 217.914 83.4844C217.861 83.4717 217.703 83.4372 217.546 83.3437C217.364 83.2354 217.232 83.0813 217.14 82.9023C216.989 82.6097 216.936 82.2125 216.902 81.747C216.834 80.7907 216.85 78.8977 216.818 77.9668C216.778 76.7753 216.718 76.4451 216.687 76.1914C216.615 75.6103 216.503 74.2046 216.503 73.6181C216.503 73.3555 216.638 73.1252 216.843 72.9912C216.806 72.7481 216.886 72.4918 217.084 72.3164C217.35 72.0804 217.476 71.9875 217.638 71.8955L217.687 71.8672L217.74 71.8476C218.313 71.6276 218.88 71.5779 220.122 71.5928L220.177 71.5937ZM220.047 73.0928C218.945 73.0814 218.603 73.1328 218.34 73.2246C218.33 73.2312 218.318 73.2377 218.305 73.248C218.264 73.2786 218.199 73.3328 218.08 73.4385C218.053 73.4629 218.023 73.4842 217.993 73.5039C217.999 73.5412 218.003 73.5792 218.003 73.6181C218.003 74.1199 218.108 75.4587 218.176 76.0078C218.209 76.2759 218.275 76.658 218.317 77.917C218.354 79.0017 218.331 80.6955 218.398 81.6406C218.412 81.8291 218.428 81.9657 218.443 82.0644C219.369 82.2762 219.936 82.3489 220.876 82.4775C221.419 82.5517 221.722 82.4972 221.917 82.4267C222.134 82.3484 222.278 82.2362 222.567 82.0332C223.337 81.4929 223.221 81.1301 223.679 80.3877C223.677 80.3904 223.714 80.3193 223.763 80.1142C223.807 79.9278 223.851 79.6813 223.891 79.3799C223.97 78.7779 224.028 78.0011 224.062 77.1328C224.094 76.334 223.681 75.6145 222.875 74.4101C222.283 73.5261 221.486 73.3257 220.047 73.0928Z" fill="black"/>
<path d="M175.537 88.4336C175.917 88.425 176.25 88.7055 176.298 89.0908C176.346 89.48 176.086 89.8348 175.71 89.915C175.727 89.9106 175.724 89.9109 175.693 89.9229C175.659 89.9362 175.604 89.9594 175.529 89.9961C175.379 90.0694 175.171 90.184 174.918 90.3418C174.412 90.6571 173.747 91.1361 173.032 91.79C172.346 92.4174 172.222 93.0116 172.007 93.7422C171.858 94.2457 171.893 94.6388 171.841 95.2539C171.803 95.717 171.811 96.4257 171.874 97.1377C171.938 97.8637 172.052 98.5071 172.192 98.874C172.208 98.9157 172.246 98.983 172.477 99.1416C172.495 99.1539 172.571 99.1926 172.746 99.2197C172.914 99.2458 173.125 99.2538 173.373 99.2451C173.836 99.2288 174.35 99.1539 174.807 99.0781C175.372 98.8209 175.986 98.5364 176.368 98.3311C176.434 98.2791 176.6 98.1531 176.779 98.0625C177.149 97.8759 177.6 98.0239 177.787 98.3936C177.973 98.7633 177.825 99.2147 177.455 99.4014C177.418 99.4199 177.393 99.4366 177.365 99.457C177.348 99.4698 177.332 99.4827 177.305 99.5039C177.281 99.5227 177.246 99.5493 177.207 99.5772L177.172 99.6025L177.132 99.624C176.677 99.8735 175.936 100.214 175.34 100.485L175.251 100.526L175.155 100.542C174.667 100.625 174.028 100.723 173.425 100.744C173.124 100.755 172.809 100.747 172.515 100.701C172.229 100.657 171.906 100.568 171.629 100.378C171.341 100.181 170.976 99.8958 170.79 99.4072C170.573 98.8388 170.446 98.0253 170.38 97.2695C170.312 96.4997 170.299 95.7006 170.347 95.1279C170.379 94.7521 170.362 94.0155 170.568 93.3174C170.765 92.6486 170.978 91.6349 172.019 90.6826C172.805 89.9637 173.545 89.4305 174.124 89.0693C174.413 88.8891 174.666 88.749 174.87 88.6494C174.971 88.6 175.065 88.5573 175.15 88.5244C175.216 88.4986 175.335 88.4551 175.461 88.4395L175.537 88.4336Z" fill="black"/>
<path d="M179.742 100.131C179.742 100.095 179.742 99.9521 179.761 99.7846C179.77 99.7064 179.784 99.6202 179.792 99.563C179.801 99.498 179.809 99.4407 179.813 99.3813C179.888 98.4662 180.118 96.9033 180.141 95.0522C180.154 94.0116 180.116 91.9641 180.183 90.8013C180.264 89.3762 180.375 88.8127 180.563 88.437C180.748 88.0665 181.198 87.9159 181.568 88.1011C181.939 88.2862 182.089 88.7365 181.904 89.1069C181.875 89.1658 181.764 89.4243 181.681 90.8872C181.617 92.012 181.654 93.9336 181.64 95.0718C181.616 96.9872 181.373 98.7105 181.309 99.5034C181.3 99.6099 181.286 99.7044 181.275 99.7798C181.263 99.8627 181.257 99.9067 181.252 99.9526C181.243 100.034 181.242 100.108 181.242 100.131C181.242 100.545 180.906 100.881 180.492 100.881C180.078 100.881 179.742 100.545 179.742 100.131Z" fill="black"/>
<path d="M184.187 91.5676V89.5129C184.187 89.0988 184.523 88.763 184.937 88.7629C185.351 88.7629 185.687 89.0987 185.687 89.5129V91.5676C185.687 93.0777 185.687 95.8255 185.674 97.3381C185.66 98.8631 185.632 99.0669 185.618 99.3088C185.614 99.38 185.615 99.4399 185.615 99.4856C185.7 99.6667 185.714 99.8801 185.634 100.08C185.48 100.465 185.043 100.652 184.659 100.498C184.314 100.36 184.205 100.051 184.179 99.9758C184.14 99.8588 184.126 99.7457 184.12 99.6711C184.107 99.5142 184.113 99.3441 184.121 99.219C184.134 98.9934 184.16 98.8163 184.174 97.3245C184.187 95.8202 184.187 93.0808 184.187 91.5676ZM185.419 99.2317C185.41 99.2241 185.401 99.2168 185.391 99.2092C185.401 99.2165 185.41 99.2241 185.419 99.2317Z" fill="black"/>
<path d="M185.431 93.7839C185.845 93.784 186.181 94.1198 186.181 94.5339C186.181 94.9481 185.845 95.2839 185.431 95.2839C184.983 95.2839 184.582 95.2839 184.07 95.3357C183.555 95.3879 182.945 95.4887 182.552 95.5769C182.264 95.6604 182.069 95.7218 181.934 95.7634C181.868 95.7838 181.805 95.8032 181.755 95.8171C181.729 95.8242 181.696 95.8333 181.661 95.8406C181.635 95.8461 181.565 95.8601 181.479 95.8601C181.065 95.8601 180.729 95.5243 180.729 95.1101C180.73 94.7379 181.001 94.4306 181.356 94.3718C181.381 94.3649 181.422 94.3525 181.492 94.3308C181.63 94.2883 181.843 94.2215 182.157 94.1306L182.179 94.1248L182.2 94.1199C182.655 94.0165 183.338 93.9024 183.92 93.8435C184.514 93.7834 184.982 93.7839 185.431 93.7839Z" fill="black"/>
<path d="M193.645 88.7854C194.047 88.6853 194.454 88.9295 194.554 89.3313C194.555 89.335 194.556 89.3392 194.556 89.343C194.836 89.3651 195.013 89.3892 195.171 89.4328L195.327 89.4836L195.364 89.4992C195.508 89.562 195.664 89.6031 195.868 89.6399L195.962 89.6565L196.048 89.6965C196.443 89.8778 197.477 90.1529 198.475 91.1526C199.024 91.7021 200.037 92.7629 199.953 94.591C199.926 95.1711 199.902 95.8317 199.816 96.4397C199.731 97.0406 199.574 97.688 199.22 98.2111C198.394 99.431 197.21 100.491 196.245 100.926C195.803 101.125 195.224 101.361 194.624 101.489C194.039 101.614 193.323 101.661 192.679 101.357C192.166 101.114 191.595 100.814 191.116 100.49C190.876 100.329 190.644 100.151 190.449 99.9611C190.262 99.7792 190.063 99.5416 189.954 99.2531C189.678 98.521 189.476 97.2753 189.553 95.9797C189.598 95.2186 189.723 94.5528 189.998 93.8147C190.216 93.2277 190.75 91.691 191.933 90.1594C192.627 89.2609 193.197 88.8971 193.645 88.7854ZM193.792 90.3684C193.642 90.4817 193.418 90.6923 193.121 91.0764C192.092 92.4088 191.623 93.7482 191.403 94.3381C191.186 94.9204 191.087 95.4369 191.05 96.0676C190.983 97.1917 191.168 98.2222 191.357 98.7238C191.354 98.7164 191.378 98.7718 191.495 98.886C191.604 98.9923 191.759 99.1142 191.955 99.2463C192.346 99.5102 192.841 99.774 193.321 100.001C193.526 100.098 193.853 100.12 194.31 100.023C194.753 99.9281 195.218 99.7438 195.628 99.5588C196.273 99.2674 197.261 98.4287 197.977 97.3703C198.139 97.1317 198.256 96.7564 198.331 96.2287C198.405 95.7083 198.427 95.1332 198.455 94.5217C198.508 93.3656 197.907 92.7063 197.414 92.2121C196.704 91.5015 196.107 91.3553 195.517 91.0988C195.29 91.0546 195.048 90.9924 194.799 90.8869V90.8879C194.781 90.8812 194.77 90.8768 194.734 90.8703C194.685 90.8615 194.597 90.8504 194.427 90.8371C194.133 90.8142 193.895 90.624 193.792 90.3684Z" fill="black"/>
<path d="M207.646 100.131C207.646 99.2135 207.647 98.3037 207.661 97.7864C207.676 97.2335 207.701 97.1897 207.715 95.9563C207.728 94.7317 207.729 92.4549 207.729 91.2981V90.0891C207.729 89.675 208.064 89.3393 208.479 89.3391C208.893 89.3391 209.229 89.6749 209.229 90.0891V91.2981C209.229 92.451 209.228 94.738 209.215 95.9729C209.201 97.1989 209.173 97.373 209.16 97.8284C209.147 98.3194 209.146 99.202 209.146 100.131C209.146 100.545 208.811 100.881 208.396 100.881C207.982 100.881 207.646 100.545 207.646 100.131Z" fill="black"/>
<path d="M208.14 85.4792V85.1501C208.14 84.7359 208.475 84.4001 208.89 84.4001C209.304 84.4001 209.64 84.7359 209.64 85.1501V85.4792C209.64 85.8935 209.304 86.2292 208.89 86.2292C208.475 86.2292 208.14 85.8935 208.14 85.4792Z" fill="black"/>
<path d="M220.548 89.969C220.932 89.8154 221.368 90.0024 221.522 90.387C221.676 90.7716 221.489 91.2079 221.104 91.3616C220.913 91.4381 220.518 91.7114 219.965 92.2679C219.433 92.8023 218.811 93.5401 218.163 94.4544C217.819 94.9395 217.65 95.6893 217.435 96.844C217.297 97.5869 217.336 98.0274 217.404 98.2972C217.471 98.5639 217.575 98.7141 217.714 98.9339C217.889 99.2123 218.143 99.3037 219.037 99.6136C219.737 99.8562 220.856 99.8518 222.09 99.7552C222.795 99.6999 223.258 99.5575 223.581 99.4143C223.922 99.2628 224.104 99.1182 224.378 98.9475L224.407 98.929L224.438 98.9134C224.532 98.8661 224.624 98.8323 224.667 98.8157C224.702 98.8019 224.717 98.7952 224.721 98.7932C224.698 98.8062 224.942 98.6284 225.278 98.5149C225.67 98.3827 226.096 98.5935 226.228 98.9856C226.361 99.3781 226.15 99.8043 225.758 99.9368C225.597 99.991 225.678 99.9762 225.461 100.099C225.359 100.156 225.26 100.194 225.21 100.214C225.17 100.23 225.148 100.238 225.134 100.244C224.955 100.36 224.625 100.592 224.189 100.785C223.7 101.002 223.07 101.183 222.207 101.25C221.002 101.345 219.582 101.39 218.546 101.031C217.853 100.791 216.965 100.558 216.445 99.7347C216.323 99.5417 216.084 99.1978 215.95 98.6643C215.816 98.1337 215.794 97.4667 215.961 96.5706C216.158 95.5082 216.366 94.3941 216.939 93.5862C217.626 92.6176 218.3 91.814 218.901 91.2102C219.48 90.6285 220.055 90.1658 220.548 89.969Z" fill="black"/>
<path d="M230.447 90.4182C230.447 90.0041 230.783 89.6684 231.197 89.6682C231.611 89.6682 231.947 90.004 231.947 90.4182C231.947 91.4261 231.947 92.4404 231.892 94.1379C231.838 95.8208 231.729 98.1811 231.687 99.3127C231.675 99.6487 231.669 99.8655 231.667 100.001C231.704 100.126 231.712 100.261 231.679 100.396C231.676 100.406 231.668 100.435 231.66 100.463C231.656 100.478 231.648 100.503 231.637 100.533C231.631 100.548 231.601 100.631 231.537 100.719C231.508 100.758 231.421 100.873 231.26 100.952C231.048 101.057 230.774 101.064 230.537 100.92C230.359 100.812 230.279 100.662 230.254 100.613C230.222 100.548 230.206 100.493 230.198 100.464C230.173 100.37 230.17 100.281 230.169 100.259C230.162 100.117 230.168 99.8194 230.188 99.2571C230.231 98.0905 230.339 95.7786 230.393 94.0901C230.447 92.4163 230.447 91.4204 230.447 90.4182Z" fill="black"/>
<path d="M231.424 89.063C231.606 89.0609 231.935 89.0724 232.543 89.1059C233.773 89.1739 236.23 89.3378 238.762 89.5893C239.174 89.6303 239.474 89.9977 239.434 90.4097C239.393 90.8218 239.025 91.1235 238.613 91.0825C236.108 90.8336 233.674 90.671 232.46 90.604C231.892 90.5727 231.609 90.5631 231.472 90.563C231.41 90.5794 231.346 90.5923 231.279 90.5923C230.865 90.5923 230.529 90.2564 230.529 89.8423V89.8325C230.529 89.8268 230.53 89.8173 230.53 89.8061C230.531 89.7841 230.533 89.7485 230.541 89.7056C230.558 89.611 230.597 89.4953 230.68 89.3843C230.833 89.1782 231.038 89.1178 231.098 89.1011C231.225 89.0657 231.358 89.0637 231.424 89.063Z" fill="black"/>
<path d="M237.618 95.0188C238.032 95.0191 238.368 95.3547 238.368 95.7688C238.368 96.1829 238.032 96.5185 237.618 96.5188C237.247 96.5188 236.892 96.5175 235.947 96.6125C234.984 96.7094 233.473 96.8987 232.693 96.9944C231.958 97.0846 231.861 97.095 231.773 97.095C231.359 97.095 231.023 96.7592 231.023 96.345C231.023 95.9308 231.359 95.595 231.773 95.595C231.772 95.595 231.765 95.5947 231.757 95.595C231.751 95.5952 231.746 95.5959 231.745 95.5959C231.752 95.5954 231.773 95.5939 231.825 95.5881C231.927 95.5768 232.124 95.5526 232.511 95.5051C233.28 95.4107 234.813 95.2194 235.797 95.1204C236.799 95.0195 237.206 95.0188 237.618 95.0188Z" fill="black"/>
<path d="M238.934 99.4636C239.348 99.4636 239.684 99.7994 239.684 100.214C239.684 100.628 239.348 100.964 238.934 100.964C237.838 100.964 236.789 100.964 236.172 100.977C235.558 100.991 235.415 101.016 234.864 101.046H234.858C233.677 101.1 232.788 101.142 232.14 101.159C231.521 101.175 231.039 101.174 230.728 101.115C230.321 101.038 230.054 100.646 230.13 100.239C230.207 99.832 230.6 99.5644 231.007 99.6414C231.131 99.6647 231.443 99.6774 232.1 99.6599C232.728 99.6432 233.598 99.6036 234.783 99.5486V99.5476C235.26 99.522 235.499 99.4926 236.139 99.4783C236.777 99.464 237.847 99.4636 238.934 99.4636Z" fill="black"/>
<path d="M50.7184 72.1065C50.8186 71.7048 51.2257 71.4605 51.6275 71.5606C52.0292 71.6608 52.2735 72.0679 52.1734 72.4697C52.1277 72.6535 52.0386 72.9425 51.9498 73.2373C51.8568 73.5462 51.7544 73.8919 51.6676 74.2295C51.4083 75.2382 51.1332 75.9193 50.8072 76.7129C50.4672 77.5408 50.2657 78.1626 50.0934 78.8526C50.0086 79.1918 49.8897 79.5313 49.7877 79.836C49.6817 80.1523 49.584 80.4586 49.5123 80.7901C49.3679 81.4576 49.1806 82.305 48.899 83.0879C48.6505 83.779 48.5171 84.5919 48.2965 85.5137C48.0945 86.3576 47.6916 87.369 47.3385 88.294C47.0441 89.065 46.8933 89.9048 46.7262 90.7403C46.5574 91.5841 46.4039 92.3894 46.2418 93.2393C46.0971 93.9978 45.9258 94.8272 45.8688 95.5069L45.8648 95.5469L45.857 95.5869C45.7231 96.2766 45.6066 97.0059 45.5475 98.5518C45.5273 99.8486 45.5284 102.143 45.648 104.502C45.6689 104.916 45.3497 105.268 44.9361 105.289C44.5227 105.31 44.171 104.991 44.15 104.577C44.0277 102.165 44.0277 99.8271 44.0484 98.5117V98.4951C44.1096 96.8955 44.2327 96.0895 44.3785 95.334C44.4477 94.5635 44.6368 93.6518 44.7691 92.958C44.9308 92.1106 45.0851 91.298 45.2555 90.4463C45.4121 89.6632 45.5872 88.6754 45.9371 87.7588C46.3102 86.7815 46.6644 85.8876 46.8375 85.1641C47.0231 84.3885 47.2026 83.3735 47.4879 82.5801C47.7312 81.9034 47.9002 81.1486 48.0465 80.4727C48.1366 80.056 48.256 79.6844 48.3648 79.3594C48.4775 79.0229 48.5707 78.7561 48.6373 78.4893C48.8286 77.7233 49.054 77.0325 49.4195 76.1426C49.741 75.36 49.9833 74.7594 50.2154 73.8565C50.3104 73.4869 50.4196 73.1159 50.5133 72.8047C50.6112 72.4794 50.6841 72.2441 50.7184 72.1065Z" fill="black"/>
<path d="M44.3261 103.075C44.619 102.782 45.0938 102.782 45.3867 103.075C46.0074 103.696 46.9281 104.74 47.6259 105.349C48.1383 105.795 48.5399 106.276 48.8935 106.733C49.262 107.21 49.545 107.613 49.8906 108.019C50.3236 108.527 50.6432 109.097 50.914 109.618C51.1982 110.165 51.4123 110.624 51.6738 111.044C52.1514 111.811 52.644 112.53 53.3124 113.382C53.5699 113.71 53.8972 114.012 54.2773 114.362C54.6379 114.695 55.0549 115.079 55.3847 115.518C55.6824 115.914 56.0149 116.323 56.371 116.764C56.7234 117.2 57.0944 117.663 57.4492 118.147C57.7981 118.624 58.0992 119.051 58.3954 119.472C58.6922 119.893 58.9847 120.309 59.3232 120.771C60.022 121.724 60.5286 122.483 61.0292 123.234C61.5389 123.999 62.0622 124.909 62.5439 125.693C62.845 126.183 63.2471 126.94 63.6503 127.699C64.0613 128.473 64.4791 129.262 64.83 129.858C65.4191 130.859 65.9482 131.872 66.4013 132.903C66.8629 133.955 67.3305 135.009 67.8525 136.055C68.377 137.106 68.829 138.07 69.2978 139.069C69.8046 140.15 70.0835 141.421 70.1806 143.471C70.3286 146.595 70.2164 151.533 70.0829 152.597C69.9487 153.667 69.6262 154.957 69.4199 156.019C69.1956 157.172 69.0239 158.632 68.832 159.92C68.6392 161.213 68.3817 162.245 68.0937 163.262C67.9299 163.84 67.8489 164.373 67.7822 164.909C67.7173 165.431 67.6612 165.998 67.5429 166.555C67.4266 167.102 67.3438 167.621 67.2558 168.149C67.1689 168.671 67.0774 169.203 66.9443 169.735C66.8362 170.168 66.7757 170.678 66.746 171.246L66.7451 171.268L66.7431 171.289C66.7245 171.459 66.6969 171.615 66.6699 171.766C66.6423 171.92 66.6127 172.081 66.5829 172.287C66.5237 172.697 66.1441 172.981 65.7343 172.922C65.3244 172.863 65.0397 172.483 65.0986 172.073C65.1325 171.838 65.1663 171.653 65.1933 171.502C65.2199 171.353 65.2376 171.246 65.2499 171.138C65.2827 170.532 65.3505 169.926 65.4892 169.371C65.6062 168.903 65.6895 168.425 65.7763 167.903C65.8619 167.389 65.9512 166.831 66.0761 166.243C66.177 165.769 66.2223 165.298 66.2939 164.724C66.3636 164.163 66.4553 163.541 66.6503 162.853C66.928 161.872 67.1685 160.907 67.3486 159.699C67.5295 158.486 67.715 156.927 67.9472 155.732C68.1792 154.539 68.4679 153.42 68.5947 152.41C68.7123 151.473 68.829 146.635 68.6826 143.542C68.5904 141.597 68.3312 140.541 67.9394 139.706C67.4696 138.705 67.0258 137.757 66.5107 136.725C65.9704 135.642 65.4888 134.558 65.0273 133.507C64.6017 132.538 64.1012 131.578 63.5371 130.619C63.1657 129.988 62.7302 129.165 62.3251 128.402C61.9123 127.625 61.536 126.919 61.2656 126.479C60.7468 125.634 60.2721 124.803 59.7812 124.066C59.2814 123.317 58.7907 122.582 58.1132 121.657C57.7651 121.182 57.4651 120.756 57.1689 120.335C56.8721 119.913 56.5794 119.497 56.2402 119.034C55.9083 118.581 55.5562 118.143 55.204 117.707C54.8558 117.276 54.503 116.841 54.1855 116.419C53.9514 116.107 53.6382 115.814 53.2597 115.465C52.9007 115.134 52.4785 114.748 52.1328 114.308C51.4279 113.41 50.9041 112.645 50.4003 111.836C50.098 111.35 49.8288 110.783 49.5829 110.31C49.3237 109.811 49.0667 109.366 48.748 108.991C48.3743 108.552 48.0225 108.059 47.707 107.651C47.3764 107.224 47.0439 106.832 46.6396 106.479C45.9022 105.836 44.822 104.632 44.3261 104.136C44.0332 103.843 44.0332 103.368 44.3261 103.075Z" fill="black"/>
<path d="M67.7996 171.669C68.352 171.662 69.1079 171.602 70.5731 171.722C72.7429 171.901 74.2982 172.443 74.8221 172.697C75.5555 173.052 75.8716 173.817 76.0194 174.342C76.1785 174.907 76.214 175.458 76.2274 175.665C76.2567 176.12 76.0318 176.464 75.8084 176.681C75.5918 176.892 75.3235 177.041 75.0926 177.146C74.6283 177.359 74.0976 177.49 73.868 177.551C72.6872 177.862 71.2839 177.587 70.9793 177.559C70.402 177.506 69.7716 177.436 69.0242 177.22C68.2484 176.997 67.7301 176.781 67.3465 176.582C67.1556 176.483 67.0049 176.392 66.8817 176.314C66.7469 176.23 66.6826 176.186 66.6092 176.144C66.0617 175.832 65.5715 175.215 65.3348 174.578L65.3143 174.522L65.3026 174.464C65.2445 174.173 65.2161 173.888 65.201 173.627C65.197 173.59 65.1918 173.563 65.1776 173.471C65.1646 173.388 65.1495 173.283 65.1346 173.135C65.117 172.962 65.1624 172.798 65.2489 172.661C65.2255 172.588 65.2089 172.512 65.2088 172.432C65.2088 172.018 65.5448 171.683 65.9588 171.682C66.0085 171.682 66.7057 171.682 67.7996 171.669ZM67.8172 173.169C67.3507 173.174 66.9557 173.175 66.6512 173.176C66.6545 173.2 66.6569 173.222 66.66 173.242L66.6922 173.464L66.6942 173.485L66.6951 173.507C66.7057 173.709 66.7278 173.912 66.7635 174.108C66.9031 174.443 67.1635 174.734 67.3514 174.842C67.4616 174.904 67.5868 174.986 67.6785 175.044C67.7817 175.108 67.8953 175.176 68.0369 175.25C68.319 175.396 68.7428 175.578 69.4393 175.779C70.0484 175.954 70.5662 176.016 71.116 176.066C71.6753 176.117 72.6424 176.323 73.4852 176.1C73.7531 176.03 74.1454 175.931 74.4686 175.783C74.5892 175.728 74.6683 175.675 74.7186 175.637C74.7014 175.417 74.6688 175.079 74.576 174.749C74.4517 174.308 74.2888 174.105 74.1688 174.047C73.8304 173.883 72.4581 173.382 70.45 173.217C69.0765 173.105 68.427 173.161 67.8172 173.169Z" fill="black"/>
<path d="M43.8007 103.912C43.9209 103.516 44.34 103.292 44.7363 103.412C45.1327 103.532 45.3564 103.951 45.2363 104.348C44.4326 107 43.3312 112.287 42.8125 114.332C42.3979 115.967 41.681 118.448 41.1416 120.07C40.9735 120.575 40.3859 122.823 39.4697 126.047C39.0609 127.486 38.4733 128.918 37.9267 130.157C37.3663 131.428 36.8765 132.441 36.6025 133.154C36.1733 134.27 35.7757 135.161 35.1269 136.703C34.8414 137.382 34.5601 138.186 34.2793 139.017C34.002 139.837 33.7226 140.688 33.4511 141.421C33.0296 142.559 32.3327 144.233 31.0009 146.614C30.1792 148.082 28.9566 149.422 28.2031 150.324C27.8274 150.774 27.3415 151.175 26.8105 151.585C26.2591 152.011 25.6617 152.443 24.9502 153.016C21.3508 155.912 18.3932 156.968 16.0029 157.883C14.53 158.447 13.6106 158.689 12.6328 158.887C12.0018 159.014 11.2735 159.236 10.4492 159.499C9.65156 159.754 8.76931 160.044 7.86226 160.296C7.28523 160.547 6.78253 160.698 6.20504 160.739L6.09078 160.758C6.06127 160.765 6.03926 160.772 6.02047 160.78C5.98883 160.792 5.94557 160.815 5.88668 160.873C5.59169 161.164 5.1168 161.16 4.82613 160.865C4.53542 160.57 4.53888 160.095 4.83394 159.804C5.25056 159.394 5.68108 159.292 6.02144 159.25L6.04488 159.247L6.06734 159.246C6.449 159.223 6.79829 159.128 7.31246 158.902L7.36226 158.879L7.41597 158.864C8.30283 158.619 9.16158 158.336 9.99312 158.071C10.8119 157.809 11.6129 157.563 12.3349 157.417C13.2306 157.236 14.0706 157.016 15.4668 156.482C17.8465 155.57 20.609 154.584 24.0097 151.848C24.7321 151.267 25.3892 150.787 25.8935 150.398C26.4182 149.993 26.7897 149.676 27.0517 149.363C27.87 148.382 28.9588 147.192 29.6923 145.881C30.9835 143.574 31.6484 141.97 32.0449 140.9C32.3064 140.194 32.5739 139.377 32.8584 138.536C33.1393 137.706 33.4354 136.855 33.7441 136.121C34.4067 134.546 34.7842 133.703 35.2021 132.615C35.4921 131.861 36.0304 130.741 36.5546 129.552C37.0927 128.332 37.6462 126.975 38.0263 125.638C38.92 122.493 39.5367 120.14 39.7177 119.596C40.2443 118.013 40.9516 115.567 41.3584 113.963C41.8401 112.064 42.9894 106.589 43.8007 103.912Z" fill="black"/>
<path d="M4.52996 159.577C4.74363 159.222 5.20449 159.108 5.55925 159.321C5.91398 159.535 6.02865 159.996 5.81511 160.351C5.70225 160.538 5.59597 160.86 5.49382 161.431C5.39356 161.991 5.31074 162.703 5.19988 163.633C5.06674 164.749 5.10363 165.771 5.21941 166.595C5.33759 167.435 5.53081 168.019 5.67351 168.283C5.83655 168.584 6.16208 168.722 6.74382 168.929C6.76134 168.914 6.78947 168.888 6.82488 168.843C8.12258 167.181 7.74236 166.106 7.76336 164.594C7.68714 164.171 7.54473 163.791 7.2575 163.352C7.0596 163.107 6.73982 162.781 6.03289 162.249C5.70231 162 5.63569 161.53 5.88445 161.199C6.1335 160.868 6.60425 160.802 6.93523 161.051C7.62416 161.569 8.03479 161.951 8.32878 162.292L8.44793 162.437L8.46746 162.461L8.48601 162.488C8.91708 163.136 9.14437 163.738 9.25457 164.406L9.26531 164.476L9.26433 164.546C9.23586 165.74 9.72353 167.569 8.0075 169.767C7.78099 170.057 7.50183 170.277 7.1657 170.379C6.82678 170.482 6.51217 170.438 6.2614 170.35C5.79611 170.185 4.83986 169.896 4.3532 168.996C4.09129 168.511 3.86445 167.731 3.73406 166.804C3.60128 165.859 3.5613 164.707 3.71062 163.455C3.81889 162.547 3.90728 161.781 4.01726 161.166C4.12541 160.562 4.26822 160.012 4.52996 159.577Z" fill="black"/>
<path d="M3.21908 157.627C3.63324 157.627 3.96908 157.963 3.96908 158.377C3.96908 158.792 3.63324 159.127 3.21908 159.127C3.21908 159.127 3.20855 159.127 3.18588 159.129C3.16372 159.132 3.13374 159.136 3.09603 159.142C3.0204 159.154 2.92079 159.175 2.79818 159.208C2.58592 159.263 2.3145 159.351 1.99349 159.481C1.86595 159.653 1.73338 159.944 1.63802 160.398C1.52637 160.929 1.48006 161.607 1.50716 162.401C1.5606 163.04 1.65303 163.305 1.95345 163.61C2.24417 163.905 2.24069 164.38 1.94564 164.67C1.65059 164.961 1.17577 164.958 0.885095 164.663C0.223651 163.991 0.0766124 163.308 0.0110712 162.505L0.0100947 162.489L0.00911811 162.471C-0.0219131 161.595 0.0249192 160.781 0.170251 160.089C0.312453 159.413 0.567154 158.768 1.01791 158.322L1.11947 158.221L1.25131 158.165C2.12463 157.792 2.83201 157.627 3.21908 157.627Z" fill="black"/>
</svg>
