<svg width="247" height="180" viewBox="0 0 247 180" fill="none" xmlns="http://www.w3.org/2000/svg">
<path d="M44.6804 3.26758C45.5322 3.20682 46.8741 3.12449 48.4715 3.16504H48.4881L48.5047 3.16699C48.7942 3.18713 49.0796 3.22053 49.323 3.32519C49.5189 3.4094 49.6536 3.52687 49.7556 3.64453C50.0931 3.75608 50.497 3.89576 50.823 4.00488C51.4644 4.21959 52.0564 4.47308 52.7215 4.80469C53.2635 5.07495 53.6773 5.28762 54.0349 5.47168C54.3936 5.65625 54.6908 5.80985 55.0066 5.96777C55.6696 6.29929 56.1903 6.66931 56.6511 6.97656C57.3166 7.42028 58.0082 8.14893 58.4314 8.75C58.6386 9.04432 58.8826 9.33637 59.1385 9.63574C59.3839 9.92296 59.654 10.2324 59.866 10.5225C60.2316 11.0228 60.7425 11.6237 61.1853 12.3613C61.5515 12.9713 61.8459 13.4633 62.1472 13.9648C62.511 14.5704 62.7839 15.218 63.1629 16.1768C63.4385 16.8741 63.7555 17.5245 63.948 18.1885C64.1268 18.8054 64.3656 19.6379 64.6004 20.3447C64.7499 20.7948 64.792 21.3061 64.8162 21.7793C64.8422 22.2869 64.8481 22.7621 64.8963 23.2939C65.0173 24.6291 64.9744 25.544 64.8543 26.249C64.7357 26.9448 64.5376 27.4328 64.4236 27.7842C64.1788 28.5391 63.8751 29.4507 63.5408 30.2471C63.3957 30.5928 63.2267 30.9504 63.0681 31.2959C62.9065 31.6481 62.7489 32.001 62.6072 32.3691C62.3679 32.9912 62.1391 33.5695 61.8123 34.3066C61.2899 35.4849 60.7562 36.1493 60.1912 36.7998C59.6607 37.4106 58.7734 38.2188 58.1824 38.791C57.4509 39.4992 56.584 40.2034 55.9773 40.6426C55.6612 40.8714 55.3279 41.0318 55.0271 41.165C54.7051 41.3076 54.4507 41.4076 54.1707 41.5479C53.7603 41.7534 53.3046 41.913 52.9187 42.0449C52.5055 42.1862 52.1954 42.2889 51.9754 42.3945C51.3518 42.6939 50.7139 42.9029 49.9265 43.0732C49.6323 43.1369 49.3367 43.2271 49.0193 43.3301C48.7124 43.4296 48.3682 43.5467 48.0291 43.6426C47.2607 43.8598 46.0986 43.9708 42.9812 44.0322C41.4442 44.0625 40.4527 43.6931 39.5994 43.4414C38.8412 43.2178 37.9448 42.9381 36.9842 42.6367C36.3708 42.4443 35.7219 42.1341 35.1297 41.8496C34.5139 41.5538 33.9527 41.2831 33.4392 41.1084C32.293 40.7184 30.8238 39.6951 30.198 39.2451C29.9053 39.0346 29.5957 38.8261 29.2654 38.6016C28.9397 38.3801 28.5982 38.1454 28.2625 37.8936C27.5571 37.3645 27.128 36.7508 26.6804 36.0605C25.9422 34.922 25.5672 34.2706 25.1931 33.7393C24.7249 33.0742 24.2919 32.3357 23.9578 31.6875C23.7387 31.2625 23.5839 30.8463 23.4431 30.4336C23.2983 30.009 23.1759 29.6119 23.0008 29.1436C22.786 28.569 22.7118 27.8711 22.6717 27.209C22.6511 26.8699 22.6382 26.5156 22.6248 26.1719C22.6112 25.8242 22.597 25.4825 22.573 25.1494C22.4746 23.7803 22.4293 21.1924 22.573 19.501C22.6714 18.3445 23.1945 17.2624 23.5164 16.3828C23.7705 15.6883 23.9663 15.0089 24.3162 14.332C24.7278 13.5358 24.9912 12.88 25.4099 12.0234C25.7928 11.2403 26.4964 10.4667 26.8094 10.0547C27.21 9.52716 28.0675 8.75083 28.7234 8.19336C29.5474 7.4931 30.7369 6.8029 31.1658 6.50586C31.7266 6.11736 32.3683 5.79235 33.0369 5.56836C33.6078 5.37711 34.2946 5.12187 35.032 4.93262C35.7583 4.74623 36.4437 4.54388 37.3787 4.41504C38.2589 4.29375 39.0127 4.14279 39.9578 3.97851C40.7012 3.84929 41.5058 3.73352 42.2957 3.63281C43.0288 3.53934 43.8926 3.41516 44.5906 3.2793L44.6355 3.27051L44.6804 3.26758ZM48.1511 4.65918C46.7714 4.63643 45.6074 4.70539 44.826 4.76074C44.0895 4.90203 43.2112 5.02755 42.4851 5.12012C41.7101 5.21893 40.9293 5.33183 40.2146 5.45605C39.3135 5.6127 38.4985 5.77434 37.5838 5.90039C36.7567 6.01435 36.179 6.18712 35.4051 6.38574C34.7373 6.5571 34.146 6.7793 33.5135 6.99121C32.9801 7.16988 32.4656 7.42986 32.0203 7.73828C31.4044 8.16493 30.4555 8.68982 29.6941 9.33691C29.0207 9.90929 28.2902 10.5848 28.0037 10.9619C27.5534 11.5548 27.0548 12.0737 26.7576 12.6816C26.4131 13.3863 26.0467 14.2497 25.6482 15.0205C25.3563 15.5852 25.2271 16.0744 24.9256 16.8984C24.5275 17.9862 24.1429 18.7371 24.0672 19.6279C23.932 21.2191 23.9744 23.725 24.0691 25.042C24.095 25.4023 24.1103 25.7663 24.1238 26.1143C24.1375 26.4662 24.1494 26.7996 24.1687 27.1182C24.2083 27.771 24.2755 28.2715 24.4051 28.6182C24.5899 29.1125 24.7341 29.5721 24.8631 29.9502C24.996 30.3401 25.1224 30.6743 25.2908 31.001C25.5985 31.5979 25.9972 32.2748 26.4197 32.875C26.8089 33.4278 27.2611 34.1983 27.9392 35.2441C28.3738 35.9143 28.6829 36.334 29.1619 36.6934C29.4679 36.9228 29.7853 37.1411 30.1092 37.3613C30.4285 37.5785 30.7597 37.8021 31.073 38.0273C31.7312 38.5007 33.023 39.3814 33.9226 39.6875C34.5397 39.8974 35.1902 40.2152 35.7791 40.498C36.3911 40.792 36.9406 41.0507 37.4324 41.2051C38.3947 41.507 39.28 41.7834 40.0242 42.0029C40.9354 42.2717 41.6908 42.557 42.951 42.5322C46.1128 42.4699 47.0725 42.3543 47.6209 42.1992C47.9235 42.1136 48.2187 42.0129 48.5564 41.9033C48.8835 41.7972 49.2386 41.6868 49.6101 41.6064C50.3059 41.4559 50.8279 41.2811 51.326 41.042C51.6479 40.8874 52.071 40.7502 52.4344 40.626C52.8251 40.4924 53.1904 40.3606 53.4988 40.2061C53.8198 40.0452 54.1662 39.9062 54.4197 39.7939C54.6942 39.6724 54.9115 39.5622 55.0974 39.4277C55.653 39.0256 56.4646 38.3662 57.1394 37.7129C57.7961 37.0771 58.5845 36.3619 59.0584 35.8164C59.5739 35.2228 60.0032 34.6871 60.4412 33.6992C60.7537 32.9942 60.9718 32.4418 61.2068 31.8311C61.3661 31.417 61.5405 31.029 61.7049 30.6709C61.8724 30.306 62.0244 29.9828 62.157 29.667C62.4644 28.9347 62.7519 28.0766 62.9969 27.3213C63.1431 26.8703 63.2813 26.5513 63.3758 25.9971C63.4686 25.452 63.5158 24.6726 63.4031 23.4297C63.3516 22.8614 63.3404 22.2907 63.3181 21.8555C63.2941 21.3855 63.2558 21.056 63.1765 20.8174C62.9306 20.077 62.6835 19.2132 62.5076 18.6064C62.3395 18.0264 62.1077 17.5872 61.7683 16.7285C61.3877 15.7656 61.1546 15.2243 60.8621 14.7373C60.5612 14.2364 60.2639 13.7413 59.8992 13.1338C59.5007 12.4699 59.1103 12.0312 58.6551 11.4082C58.4855 11.1762 58.2632 10.9208 57.9978 10.6104C57.7428 10.3119 57.457 9.97236 57.2049 9.61426C56.8649 9.13135 56.2999 8.54526 55.8191 8.22461C55.3172 7.88997 54.8934 7.58842 54.3357 7.30957C54.01 7.14673 53.703 6.98767 53.3494 6.80566C52.9944 6.62298 52.5866 6.41375 52.0525 6.14746C51.4353 5.83973 50.9084 5.61484 50.3465 5.42676C49.9651 5.2991 49.5909 5.16854 49.2381 5.05273C49.067 4.99657 48.9157 4.94917 48.7918 4.91406C48.7301 4.89659 48.6791 4.88249 48.6385 4.87305C48.6186 4.86844 48.6027 4.86559 48.5906 4.86328C48.5846 4.86214 48.5793 4.86089 48.576 4.86035C48.5744 4.8601 48.5729 4.86047 48.572 4.86035L48.5711 4.85937C48.4066 4.83888 48.2631 4.76491 48.1511 4.65918Z" fill="black"/>
<path d="M56.5976 7.56341e-07C57.0117 0.000157396 57.3476 0.335884 57.3476 0.750001C57.3476 1.16412 57.0117 1.49984 56.5976 1.5C56.0155 1.5 55.4861 1.50063 55.1533 1.51953C54.7805 1.54073 54.7943 1.56422 54.4638 1.59668L54.4443 1.59863C54.0586 1.62646 53.6805 1.6829 53.2578 1.74902C52.8418 1.8141 52.3837 1.88805 51.8789 1.9375C51.6575 1.95918 51.4425 1.97253 51.2431 1.98438C51.0398 1.99646 50.855 2.00716 50.6718 2.02344C50.3098 2.05563 49.9883 2.10812 49.6718 2.21973C48.9802 2.46368 48.3765 2.66926 47.8213 2.87598C47.5027 2.9946 46.9955 3.22684 46.4638 3.47363C45.9559 3.70941 45.4186 3.96188 45.0957 4.09082C44.7111 4.24434 44.2748 4.05731 44.1211 3.67285C43.9675 3.28827 44.1546 2.85193 44.539 2.69824C44.8122 2.58919 45.2941 2.36199 45.832 2.11231C46.3463 1.87359 46.9126 1.61418 47.2978 1.4707C47.8692 1.25797 48.5014 1.04153 49.1728 0.804688C49.6547 0.634721 50.1144 0.567052 50.539 0.529298C50.7489 0.510639 50.9587 0.498929 51.1543 0.487305C51.3541 0.475426 51.5437 0.462916 51.7334 0.444337C52.1871 0.399871 52.6005 0.334196 53.0263 0.267579C53.4399 0.202892 53.8686 0.137833 54.3173 0.104493V0.103516C54.3912 0.0961971 54.722 0.0411524 55.0673 0.0214851C55.4534 -0.000461716 56.0356 7.56341e-07 56.5976 7.56341e-07Z" fill="black"/>
<path d="M59.0017 2.52417C59.4159 2.52417 59.7517 2.85996 59.7517 3.27417C59.7517 3.68838 59.4159 4.02417 59.0017 4.02417C58.1767 4.02417 57.4022 4.02406 56.9226 4.0437C56.4051 4.06491 56.3575 4.09526 55.9646 4.1228H55.9568L55.9499 4.12378C54.8132 4.18121 54.0786 4.33812 53.3328 4.57202C52.8623 4.71959 52.3748 4.88948 51.9539 5.03394C51.7469 5.10496 51.5531 5.17157 51.3914 5.22241C51.2474 5.26767 51.0731 5.31875 50.9333 5.33862C50.5233 5.39689 50.144 5.11196 50.0857 4.7019C50.0274 4.29185 50.3123 3.91258 50.7224 3.85425C50.7247 3.85374 50.7857 3.83966 50.9412 3.79077C51.0822 3.74642 51.2601 3.68716 51.4675 3.61597C51.8757 3.47589 52.3893 3.29568 52.8845 3.14038C53.7455 2.87035 54.6017 2.69129 55.8601 2.62671C56.0332 2.61452 56.382 2.5653 56.8611 2.54565C57.3792 2.52443 58.1919 2.52417 59.0017 2.52417Z" fill="black"/>
<path d="M55.0112 11.1023C55.4212 11.0442 55.8006 11.3291 55.8589 11.739C55.9171 12.149 55.6321 12.5283 55.2222 12.5867C55.2406 12.5841 55.2344 12.5839 55.1968 12.5955C55.1642 12.6055 55.1207 12.6209 55.0698 12.6414C54.966 12.6833 54.8533 12.7379 54.7593 12.7957C54.4863 12.9634 54.3407 13.0767 54.0093 13.2888C53.8839 13.3691 53.7554 13.4637 53.5942 13.5828C53.4385 13.6979 53.2573 13.8327 53.0523 13.9695C52.8677 14.0926 52.7647 14.2239 52.5191 14.5047C52.3239 14.7822 52.199 15.0096 52.1157 15.2283L52.1099 15.242L52.105 15.2556C52.089 15.2933 52.0729 15.3254 52.061 15.3494C52.0463 15.3792 52.0412 15.3893 52.0278 15.4168C52.0069 15.4597 51.9761 15.5253 51.9292 15.6375C51.7695 16.0196 51.3299 16.2004 50.9478 16.0408C50.5656 15.8811 50.3847 15.4415 50.5444 15.0593C50.6025 14.9203 50.6454 14.8288 50.6792 14.7595C50.693 14.7313 50.7113 14.6955 50.7163 14.6853C50.7224 14.673 50.7238 14.6685 50.7241 14.6677H50.7251C50.8688 14.2988 51.067 13.958 51.3149 13.6092L51.3374 13.5779L51.3628 13.5486C51.5538 13.3313 51.8189 12.9885 52.2192 12.7215C52.3898 12.6077 52.5437 12.4939 52.7036 12.3758C52.858 12.2617 53.0263 12.1378 53.2007 12.0261C53.3912 11.9042 53.7339 11.665 53.9741 11.5174C54.1519 11.4081 54.3416 11.317 54.5083 11.2498C54.6611 11.1881 54.848 11.1255 55.0112 11.1023Z" fill="black"/>
<path d="M56.3819 15.3877C56.7743 15.2575 57.1979 15.4696 57.3292 15.8613C57.3749 15.8763 57.4364 15.8983 57.4952 15.9277C57.5964 15.9785 57.7837 16.0945 57.8985 16.3232L57.9425 16.4287L58.0059 16.6475C58.1224 17.132 58.1272 17.7514 58.0401 18.3242C58.0504 18.3737 58.0567 18.425 58.0567 18.4775C58.0567 18.6528 58.0472 18.8235 57.9444 19.1943C57.9239 19.2682 57.8979 19.3511 57.8702 19.4404C57.8664 19.4716 57.8632 19.5022 57.8595 19.5322C57.8276 19.7915 57.7911 20.0819 57.6827 20.3643C57.6051 20.5665 57.5028 20.8287 57.3692 21.0781C57.2367 21.3254 57.0481 21.6096 56.7696 21.8301C56.7626 21.8357 56.7545 21.8409 56.7472 21.8467C56.7389 21.8589 56.7319 21.8718 56.7237 21.8838C56.5043 22.2028 56.2009 22.5546 55.7452 22.6826C55.6518 22.7088 55.4849 22.7435 55.2901 22.7061C55.161 22.6812 55.0307 22.6255 54.9161 22.5361C54.8444 22.5318 54.7706 22.5255 54.6954 22.5137C54.6171 22.5013 54.3315 22.4601 54.1046 22.2217C53.8702 21.9751 53.8357 21.6724 53.8341 21.4834C53.824 20.2763 53.8879 19.868 53.921 19.4853C53.9505 19.1439 53.9917 18.6249 54.1905 18.1738C54.3197 17.8809 54.5141 17.3787 54.7706 17.0244C54.832 16.9395 54.8668 16.8576 54.9679 16.6533C55.0538 16.4796 55.19 16.2183 55.4347 15.9941C55.7463 15.7086 56.1265 15.4724 56.3819 15.3877Z" fill="black"/>
<path d="M44.3722 29.5144C44.7279 29.3026 45.1884 29.4195 45.4005 29.7751C45.3782 29.7377 45.362 29.7203 45.3722 29.7322C45.3785 29.7395 45.3921 29.7547 45.4151 29.7781C45.4613 29.8248 45.5273 29.8877 45.6114 29.9626C45.685 30.0282 45.793 30.1052 46.5118 30.4031C46.7091 30.4848 46.8458 30.534 46.9894 30.5886C47.1302 30.6421 47.2783 30.7018 47.4415 30.7927C47.5101 30.8309 47.5874 30.8627 47.7218 30.9079C47.8416 30.9483 48.0524 31.0132 48.2735 31.0925C49.0527 31.372 49.3455 31.4233 49.6798 31.4773C50.139 31.5514 50.8509 31.6747 51.3243 31.7546C51.4558 31.7768 51.5431 31.7844 51.6876 31.8044C51.8121 31.8217 51.9769 31.8487 52.1466 31.9089C52.1635 31.9149 52.1962 31.9224 52.2911 31.9285C52.3525 31.9324 52.3795 31.9334 52.465 31.9382C52.534 31.9421 52.6174 31.9478 52.7081 31.9597C53.0676 32.0068 53.2122 32.043 53.5362 32.0788C53.717 32.0989 54.0336 32.1106 54.423 32.1208C54.7943 32.1306 55.2176 32.1396 55.5636 32.157C55.8139 32.1696 56.0239 32.1765 56.5187 32.197C57.098 32.221 57.5935 32.2187 57.9601 32.2087C58.1432 32.2038 58.2931 32.1969 58.4044 32.1902C58.4601 32.1868 58.5053 32.1842 58.5392 32.1814C58.556 32.18 58.5693 32.1785 58.5792 32.1775C58.5894 32.1765 58.5938 32.1755 58.5939 32.1755C58.8511 32.1418 59.0491 32.1293 59.2159 32.1189C59.3837 32.1084 59.5031 32.1009 59.6427 32.0818C60.0495 32.0262 60.3738 31.9817 60.6749 31.9255C60.7633 31.9065 60.8721 31.8835 60.9523 31.865C61.0349 31.8459 61.1192 31.8244 61.2511 31.8054C61.6611 31.7463 62.0416 32.0312 62.1007 32.4412C62.1597 32.8511 61.8749 33.2317 61.465 33.2908C61.4062 33.2992 61.3836 33.3051 61.2892 33.3269C61.1967 33.3482 61.0728 33.3752 60.9747 33.3962L60.9552 33.4001C60.6085 33.465 60.2409 33.5141 59.8458 33.5681C59.6417 33.596 59.4655 33.6062 59.3087 33.616C59.151 33.6258 58.9944 33.636 58.7892 33.6628C58.5766 33.6907 57.6767 33.7456 56.4571 33.6951C55.9746 33.6751 55.7473 33.668 55.4884 33.655C55.1661 33.6388 54.772 33.6311 54.3839 33.6208C54.0137 33.6111 53.6276 33.5984 53.3712 33.5701C53.0883 33.5387 52.6944 33.4707 52.5138 33.447C52.4175 33.4344 52.3632 33.4362 52.1954 33.4255C52.0549 33.4165 51.8582 33.3978 51.6446 33.322C51.625 33.315 51.5856 33.3052 51.4816 33.2908C51.3978 33.2791 51.2312 33.2596 51.0743 33.2331C50.5886 33.1511 49.8929 33.0308 49.4405 32.9578C49.0172 32.8894 48.6349 32.8151 47.7667 32.5037C47.5568 32.4284 47.4231 32.3894 47.2433 32.3288C47.0783 32.2733 46.8999 32.2069 46.712 32.1023C46.6458 32.0654 46.5784 32.0364 46.4562 31.99C46.3368 31.9446 46.1621 31.8818 45.9376 31.7888C45.2571 31.5069 44.9079 31.3443 44.6144 31.0828C44.5166 30.9957 44.4245 30.9096 44.3478 30.8318C44.288 30.7712 44.1833 30.6632 44.1114 30.5427C43.8996 30.187 44.0166 29.7265 44.3722 29.5144Z" fill="black"/>
<path d="M33.2516 40.9285C33.5445 40.6356 34.0202 40.6356 34.3131 40.9285C34.6057 41.2213 34.6057 41.6962 34.3131 41.989C34.218 42.0841 33.9081 42.476 33.7252 42.8728C33.4684 43.4303 33.0797 44.0384 32.8053 44.531C32.5433 45.0015 32.2995 45.425 32.0739 45.7634C31.8761 46.0602 31.5928 46.5565 31.2692 47.1638C31.129 47.427 30.976 47.7359 30.8122 48.0632C30.6515 48.3842 30.4808 48.7214 30.3161 49.0173C30.0235 49.543 29.8651 49.9291 29.736 50.3162L29.7272 50.3445L29.7155 50.3728C29.6808 50.4542 29.6416 50.5244 29.6208 50.5632C29.5955 50.6101 29.5884 50.6245 29.5836 50.6355C29.5798 50.6445 29.5784 50.6492 29.5641 50.6853C29.5527 50.7141 29.5347 50.7591 29.5104 50.8093C29.4578 50.9179 29.3809 51.0416 29.2604 51.1638C28.9697 51.4589 28.4949 51.4624 28.1999 51.1716C27.9143 50.8902 27.9023 50.4367 28.1657 50.1404C28.1667 50.1378 28.1682 50.135 28.1696 50.1316C28.1715 50.1269 28.174 50.1222 28.1764 50.116C28.1787 50.1101 28.1813 50.1028 28.1842 50.0955C28.1901 50.0808 28.1977 50.0616 28.2067 50.0408C28.2412 49.9608 28.2795 49.8905 28.2995 49.8533C28.318 49.8188 28.326 49.8027 28.3307 49.7927C28.485 49.338 28.677 48.877 29.0055 48.2869C29.1522 48.0233 29.3089 47.7139 29.4704 47.3914C29.6287 47.0751 29.7932 46.7426 29.945 46.4578C30.2715 45.8449 30.5843 45.2927 30.8258 44.9304C31.0155 44.6458 31.2346 44.2686 31.4948 43.8015C31.8434 43.1756 32.1348 42.74 32.3629 42.2449C32.6234 41.6798 33.0371 41.1431 33.2516 40.9285Z" fill="black"/>
<path d="M26.1868 50.3035C26.3713 49.9327 26.8218 49.7812 27.1927 49.9656C27.344 50.0408 27.4588 50.1497 27.5257 50.2175C27.6032 50.2962 27.6767 50.3845 27.7425 50.4695C27.8744 50.6401 28.0072 50.8387 28.1194 51.0212C28.2996 51.3144 28.4957 51.6354 29.0852 52.324C29.9045 53.2809 30.1757 53.6544 30.4768 54.031C30.6794 54.2845 31.1014 54.7588 31.3714 55.199L31.5247 55.4177C31.5755 55.4864 31.6305 55.5558 31.6887 55.6248C31.7434 55.6745 31.8799 55.7983 32.0471 56.0203C32.2962 56.3509 32.2302 56.8208 31.8997 57.0701C31.5689 57.3194 31.0982 57.2534 30.8489 56.9226C30.7897 56.8441 30.7537 56.806 30.7317 56.7839C30.7188 56.771 30.7061 56.7587 30.6858 56.74C30.6678 56.7234 30.6361 56.6944 30.6038 56.6619L30.5843 56.6423L30.5657 56.6209C30.3847 56.4095 30.2368 56.2012 30.1233 56.031L30.1038 55.9998C29.9043 55.6668 29.6042 55.3418 29.305 54.9675C28.9832 54.565 28.7428 54.2308 27.9456 53.2996C27.2945 52.539 27.053 52.1512 26.8411 51.8064C26.7457 51.6512 26.644 51.5003 26.5559 51.3865C26.5126 51.3305 26.4803 51.2928 26.4593 51.2712C26.137 51.0687 26.0138 50.6515 26.1868 50.3035Z" fill="black"/>
<path d="M27.6332 54.093C27.8921 53.8147 28.3256 53.7726 28.6351 54.0071C28.9298 54.2306 29.012 54.6296 28.848 54.9475C28.84 54.978 28.828 55.0285 28.8138 55.1057C28.781 55.284 28.7507 55.4946 28.7015 55.7883C28.6205 56.2721 28.5999 56.6206 28.5902 56.9065C28.5813 57.1688 28.5824 57.4828 28.5326 57.7756C28.488 58.0372 28.4583 58.3254 28.4261 58.6291C28.3958 58.916 28.3614 59.2353 28.307 59.4993C28.2742 59.6582 28.2538 59.8868 28.2337 60.1897C28.2151 60.4714 28.1971 60.8139 28.1625 61.1282C28.136 61.3686 28.0985 61.628 28.0638 61.8772C28.0283 62.1322 27.9935 62.3897 27.9691 62.6565C27.9153 63.2454 27.7688 63.8627 27.6712 64.3254C27.5608 64.8494 27.4737 65.3891 27.4378 65.8039C27.4121 66.1015 27.356 66.3983 27.3109 66.6535C27.2638 66.9204 27.2233 67.1719 27.2064 67.4446C27.1907 67.6992 27.1575 67.9487 27.1293 68.1975C27.1001 68.4548 27.0698 68.7566 27.0511 69.1682C27.0361 69.501 26.9763 69.8053 26.9281 70.0618C26.8782 70.3273 26.8344 70.5726 26.8177 70.8635C26.7999 71.1748 26.7583 71.4435 26.7171 71.6897C26.6751 71.9415 26.6363 72.157 26.6068 72.4114C26.5624 72.7942 26.5397 73.1472 26.5209 73.4944C26.5023 73.8349 26.486 74.1857 26.4515 74.5266C26.3916 75.1187 26.2858 76.6988 26.221 77.7756C26.1919 78.2596 26.1548 78.6236 26.1205 78.9299C26.0854 79.242 26.0567 79.4649 26.0384 79.7063C26.0175 79.9835 25.9875 80.2562 25.9584 80.5061C25.9286 80.7613 25.9007 80.9868 25.8822 81.1946C25.8554 81.4956 25.8115 81.8388 25.7689 82.1897C25.7255 82.5475 25.6813 82.9325 25.6498 83.3489L25.6478 83.3684L25.6459 83.3869C25.6114 83.6551 25.5859 83.9926 25.5736 84.4162V84.4309L25.5726 84.4465C25.5645 84.563 25.5517 84.658 25.5414 84.7414C25.531 84.8251 25.5192 84.9233 25.5072 85.0774C25.475 85.4903 25.1135 85.799 24.7005 85.7668C24.2878 85.7345 23.9789 85.374 24.0111 84.9612C24.0255 84.7767 24.0399 84.6541 24.0521 84.5559C24.0643 84.4575 24.0709 84.4088 24.0755 84.342C24.0892 83.8983 24.116 83.5199 24.1576 83.1965C24.1915 82.761 24.2368 82.3627 24.2796 82.009C24.3247 81.6378 24.3641 81.3315 24.388 81.0618C24.4088 80.8279 24.4398 80.575 24.4681 80.3323C24.4971 80.0841 24.5248 79.8383 24.5433 79.594C24.5643 79.3164 24.5984 79.0459 24.6302 78.7619C24.6628 78.472 24.6969 78.1357 24.724 77.6858C24.7883 76.616 24.8957 75.0047 24.9593 74.3762C24.9894 74.0793 25.0042 73.7731 25.0238 73.4133C25.043 73.0603 25.0666 72.6692 25.1166 72.2385C25.1516 71.936 25.1999 71.6685 25.2377 71.4426C25.2763 71.2111 25.3066 71.0062 25.3197 70.7776C25.3423 70.3823 25.4027 70.0549 25.4535 69.7844C25.506 69.5047 25.5437 69.3087 25.5531 69.1008C25.5737 68.6452 25.6073 68.3078 25.639 68.0285C25.6716 67.741 25.6967 67.5558 25.7093 67.3518C25.7318 66.9893 25.7857 66.6672 25.8343 66.3918C25.885 66.1048 25.9252 65.8895 25.9437 65.675C25.9864 65.1806 26.0851 64.5773 26.2035 64.0159C26.3136 63.493 26.4324 62.997 26.4759 62.5207C26.5037 62.2169 26.5413 61.9301 26.5775 61.6701C26.6145 61.4041 26.6478 61.1768 26.6712 60.9641C26.7011 60.6928 26.717 60.4033 26.7377 60.091C26.7569 59.7997 26.7817 59.4712 26.8382 59.1965C26.8748 59.0188 26.9015 58.7786 26.9339 58.4719C26.9646 58.182 26.9999 57.8418 27.0541 57.5237C27.0816 57.362 27.0792 57.2091 27.0912 56.8557C27.1024 56.5256 27.1271 56.1085 27.222 55.5412C27.2638 55.2917 27.3042 55.0232 27.3392 54.8332C27.3574 54.7346 27.3785 54.6305 27.4046 54.5364C27.4232 54.4698 27.4713 54.3008 27.5843 54.1516L27.6332 54.093Z" fill="black"/>
<path d="M31.9128 63.9897C32.1425 63.6452 32.6083 63.5522 32.9529 63.7817C33.2975 64.0115 33.3906 64.4771 33.1609 64.8218C33.108 64.901 33.0567 64.978 33.0046 65.0561C32.9019 65.2103 32.7494 65.4388 32.5456 65.7573C32.4284 65.9617 32.279 66.1742 32.2068 66.2856C32.1119 66.4321 32.0581 66.5373 32.0271 66.647C31.8671 67.2131 31.6179 67.788 31.4109 68.2192C31.2093 68.6391 31.0543 68.8895 30.9197 69.2554C30.8248 69.5132 30.6954 69.7446 30.5984 69.9185C30.4916 70.1099 30.421 70.2391 30.3728 70.3657C30.2244 70.7555 30.0251 71.1575 29.8669 71.5239C29.7153 71.8752 29.5755 72.2909 29.4607 72.6997C29.3491 73.0968 29.2551 73.4837 29.0925 74.1841C28.9526 74.7866 28.7919 75.2378 28.654 75.6265C28.5663 75.8738 28.4597 76.1214 28.3669 76.3384C28.2701 76.565 28.1874 76.76 28.1247 76.9419C27.9663 77.4017 27.7746 77.8113 27.5994 78.1763C27.4139 78.5626 27.2733 78.83 27.197 79.1352C27.0868 79.5761 26.926 80.1059 26.6736 80.6108C26.5923 80.7735 26.5241 80.9561 26.4216 81.2368C26.3221 81.5096 26.1994 81.848 26.0173 82.271C25.8528 82.6532 25.7593 83.1898 25.737 83.3901C25.6915 83.8018 25.3206 84.0988 24.9089 84.0532C24.4975 84.0074 24.2012 83.6366 24.2468 83.2251C24.2761 82.9612 24.3903 82.257 24.6394 81.6782C24.8032 81.2977 24.9132 80.9939 25.0124 80.7222C25.1087 80.4584 25.2055 80.1935 25.3318 79.9409C25.5152 79.574 25.6445 79.1616 25.7419 78.772C25.8648 78.2806 26.0955 77.842 26.2468 77.5269C26.4201 77.166 26.579 76.8245 26.7068 76.4536C26.7901 76.2118 26.8949 75.9665 26.988 75.7485C27.0853 75.5209 27.172 75.3189 27.241 75.1245C27.3777 74.7392 27.5125 74.3581 27.6316 73.8452C27.7943 73.1447 27.8946 72.728 28.0163 72.2944C28.1439 71.8402 28.3049 71.3579 28.49 70.9292C28.6995 70.4438 28.8326 70.1939 28.9704 69.8315C29.0648 69.5837 29.1949 69.3564 29.2888 69.188C29.3926 69.0018 29.4642 68.8689 29.5124 68.7378C29.6786 68.2863 29.9232 67.8514 30.0583 67.5698C30.2493 67.1721 30.4575 66.6854 30.5837 66.2388C30.6744 65.9181 30.8207 65.6667 30.948 65.4702C31.093 65.2463 31.1696 65.15 31.2576 64.9907L31.2693 64.9702L31.282 64.9497C31.4936 64.6188 31.6524 64.3803 31.7566 64.2241C31.8087 64.146 31.86 64.069 31.9128 63.9897Z" fill="black"/>
<path d="M33.3 55.7007C33.7673 55.3391 34.3433 55.3716 34.6906 55.4282C35.0951 55.4942 35.4815 55.6435 35.6779 55.7173C36.0431 55.8544 36.4267 56.1432 36.7336 56.395C37.0579 56.6611 37.402 56.9759 37.675 57.2173C38.1682 57.6534 38.3679 58.2587 38.4699 58.7388C38.5925 59.3165 38.4038 59.8789 38.2434 60.2583C38.1575 60.4612 38.0612 60.6515 37.9826 60.8062C37.8973 60.9741 37.8425 61.0822 37.8078 61.1655C37.5491 61.7877 37.3733 62.2698 37.1945 62.6421C37.0275 62.99 36.7636 63.5539 36.3703 64.0278C35.8178 64.6936 34.92 65.0618 34.3654 65.2085H34.3635C34.1234 65.2715 33.9358 65.3263 33.7619 65.3745C33.6453 65.4069 33.5167 65.4383 33.3938 65.4624C33.3925 65.4632 33.3913 65.4644 33.3899 65.4653C33.3773 65.4734 33.3638 65.4827 33.343 65.4966C32.9984 65.7263 32.5327 65.6331 32.3029 65.2886C32.2587 65.2222 32.229 65.1505 32.2082 65.0776C32.082 65.0159 31.9711 64.9192 31.8938 64.7896C31.9197 64.833 31.9356 64.8436 31.8791 64.7818C31.824 64.7214 31.7916 64.6898 31.7043 64.5952C31.5616 64.4406 31.37 64.2235 31.1994 63.9644C30.9236 63.5453 30.8442 63.0629 30.8137 62.6235C30.7839 62.1949 30.7955 61.6585 30.7893 61.1392C30.7841 60.7127 30.8779 60.3424 30.9738 60.0474C31.021 59.9024 31.0724 59.764 31.1125 59.6548C31.1555 59.5377 31.186 59.4534 31.2063 59.3814C31.327 58.9519 31.5285 58.4959 31.7102 58.1138C31.9116 57.6901 32.0605 57.4101 32.1633 57.1792C32.4433 56.5507 32.8451 56.1122 33.2082 55.7778L33.3 55.7007ZM34.4494 56.9087C34.2971 56.8839 34.2277 56.8942 34.2063 56.8989C33.9288 57.1568 33.6941 57.4289 33.5334 57.7896C33.4286 58.0249 33.2201 58.4304 33.0647 58.7573C32.8895 59.1259 32.734 59.4871 32.6496 59.7876C32.6115 59.9231 32.5626 60.0582 32.5207 60.1724C32.4759 60.2943 32.4369 60.3998 32.4006 60.5112C32.3296 60.7294 32.2869 60.925 32.2893 61.1216C32.2966 61.7276 32.2838 62.147 32.3098 62.52C32.335 62.8822 32.3924 63.048 32.4524 63.1392C32.5551 63.2953 32.6811 63.4414 32.8068 63.5776C32.8536 63.6283 32.9438 63.7242 32.9865 63.771C33.0225 63.8104 33.0913 63.8901 33.1516 63.98C33.1977 63.9692 33.2647 63.9558 33.3606 63.9292C33.5141 63.8866 33.7292 63.8238 33.9826 63.7573C34.4135 63.6432 34.9553 63.3841 35.216 63.0698C35.4713 62.7622 35.6605 62.3707 35.842 61.9927C36.0001 61.6634 36.1226 61.3118 36.4231 60.5894C36.4854 60.4395 36.5739 60.2677 36.6457 60.1265C36.7243 59.9718 36.7983 59.8228 36.8615 59.6734C36.9991 59.3482 37.0248 59.1526 37.0031 59.0503C36.9231 58.6739 36.8108 58.4562 36.6809 58.3413C36.3791 58.0745 36.0772 57.7979 35.7815 57.5552C35.4683 57.2982 35.257 57.1616 35.1506 57.1216C34.9317 57.0394 34.6831 56.9468 34.4494 56.9087Z" fill="black"/>
<path d="M31.2478 63.4482C31.6188 63.3656 31.9995 63.5759 32.1218 63.9443C32.239 64.2978 32.0779 64.6752 31.7585 64.8428C31.7474 64.8521 31.7288 64.8681 31.7019 64.8936C31.6238 64.9674 31.5175 65.0791 31.3767 65.2324C31.1476 65.482 30.9312 65.7176 30.6882 66.001C30.0697 66.7222 29.5268 67.1018 29.0564 67.544L29.0554 67.543C28.9359 67.6625 28.8383 67.7628 28.7517 67.8389C28.7047 67.8801 28.6566 67.9178 28.6277 67.9414C28.5947 67.9683 28.5522 68.0039 28.4851 68.0635C28.1754 68.3383 27.7015 68.3105 27.4265 68.001C27.1517 67.6913 27.1795 67.2174 27.489 66.9424C27.5737 66.8672 27.6326 66.8185 27.6794 66.7803C27.7304 66.7387 27.7419 66.73 27.7624 66.7119C27.8071 66.6727 27.8685 66.6107 28.0124 66.4668L28.0212 66.459L28.029 66.4512C28.6977 65.8226 28.9868 65.6817 29.5505 65.0244C29.8106 64.7211 30.0402 64.4694 30.2712 64.2178C30.4156 64.0605 30.5519 63.916 30.6706 63.8037C30.7299 63.7477 30.7952 63.689 30.863 63.6377C30.9187 63.5955 31.0294 63.5166 31.1736 63.4688L31.2478 63.4482Z" fill="black"/>
<path d="M24.7005 68.4341C25.045 68.2732 25.4625 68.3964 25.6614 68.73C25.8494 69.0456 25.7778 69.4425 25.511 69.6763C25.4862 69.707 25.4499 69.7561 25.3968 69.8296C25.2976 69.9667 25.1526 70.1731 24.9934 70.3813C24.5971 70.8996 24.1466 71.169 23.9475 71.3169C23.2614 71.8269 22.6245 72.0802 22.3206 72.189C22.0425 72.3154 21.7962 72.3788 21.6165 72.4106L21.5931 72.4155L21.5706 72.4175C21.5582 72.4189 21.5433 72.4197 21.5364 72.4204C21.5281 72.4242 21.5155 72.4321 21.4974 72.4419C21.133 72.6386 20.6777 72.5025 20.4808 72.1382C20.284 71.7738 20.4202 71.3185 20.7845 71.1216C20.9191 71.0488 21.0439 70.9973 21.1692 70.9653C21.2481 70.9452 21.3249 70.9349 21.3675 70.9302C21.4587 70.9132 21.5864 70.8815 21.7308 70.812L21.7669 70.7944L21.805 70.7808C22.0276 70.7016 22.5204 70.5088 23.052 70.1138C23.3727 69.8754 23.5698 69.7727 23.8011 69.4702C23.9442 69.2829 24.0679 69.1083 24.1819 68.9507C24.2353 68.8768 24.2922 68.7992 24.344 68.7349C24.3698 68.7029 24.402 68.6647 24.4378 68.6274C24.4648 68.5993 24.5342 68.5282 24.6331 68.4692L24.7005 68.4341Z" fill="black"/>
<path d="M16.4623 42.7908C17.0466 42.7386 18.8504 42.5928 20.4232 42.822C21.0761 42.9172 21.8108 43.0572 22.4476 43.2214C22.7655 43.3034 23.0703 43.394 23.3334 43.4929C23.5798 43.5856 23.8525 43.7078 24.0599 43.8728C24.419 44.1585 25.1503 44.6366 25.5609 45.3855C26.1553 46.4701 26.3924 47.0268 26.5707 47.5505C26.7755 48.1523 26.8305 48.915 26.8305 49.1912C26.8302 49.6052 26.4945 49.9412 26.0805 49.9412C25.8653 49.941 25.6722 49.8491 25.5355 49.7038C25.2539 49.7036 24.9895 49.5471 24.8627 49.2869C24.8531 49.2842 24.8428 49.2812 24.8314 49.2781L24.8158 49.2742L24.8002 49.2693C24.6109 49.2087 24.4273 49.132 24.266 49.0632C24.0962 48.9908 23.9469 48.9248 23.7855 48.864C23.4748 48.7469 23.1547 48.6619 22.7738 48.657C22.2534 48.6502 21.7936 48.6195 21.2865 48.6296C20.7938 48.6395 20.3989 48.6897 20.1156 48.8005C19.5747 49.0121 19.28 49.1296 18.9496 49.3494C18.5649 49.6053 17.93 50.1027 17.2357 50.5027C17.0859 50.589 16.9681 50.6856 16.7855 50.8376C16.6059 50.9872 16.3805 51.1755 16.0648 51.3718C15.8687 51.4938 15.715 51.6175 15.5121 51.7781C15.3134 51.9353 15.0788 52.1176 14.768 52.2947C13.9665 52.751 13.6746 52.9636 13.0883 53.4509C12.8444 53.6536 12.5745 53.911 12.2133 54.2537C11.8581 54.5905 11.4312 54.993 10.8988 55.4607C10.3715 55.9239 9.97504 56.3234 9.61756 56.6531C9.35994 56.8907 9.02699 57.3303 8.84608 57.6579C8.82159 57.7023 8.79372 57.7668 8.75233 57.8747C8.71736 57.9659 8.66437 58.1094 8.60682 58.2371C8.50945 58.4529 8.25625 58.9651 7.65662 59.0701C7.38229 59.118 7.11318 59.0628 6.91834 59.0183C6.73175 58.9757 6.40417 58.888 6.09315 58.8132C5.37943 58.6416 4.7626 58.3324 4.4535 58.2117C4.35842 58.1745 4.24315 58.1396 4.09803 58.0994C3.96545 58.0626 3.79056 58.0173 3.63221 57.9685C3.3395 57.8783 2.8778 57.7175 2.56776 57.3425C2.52914 57.2958 2.4487 57.1968 2.38514 57.072C2.3297 56.9632 2.21354 56.6933 2.31385 56.3699L2.3783 56.2038C2.40208 56.1516 2.42704 56.1039 2.44666 56.0662C2.49263 55.9778 2.54896 55.8762 2.60682 55.7732C2.72655 55.56 2.86477 55.317 2.9994 55.0554C3.27361 54.5226 3.57279 54.091 3.88319 53.7009C4.06714 53.4698 4.28475 53.2221 4.46131 53.0124C4.64875 52.7899 4.8122 52.5841 4.94471 52.3816C5.31463 51.8161 5.68373 51.0468 6.54237 49.9031C7.14258 49.1036 7.53723 48.7174 8.20643 47.9353C8.8074 47.2329 9.11636 46.8508 9.74842 46.2751C10.0627 45.9888 10.4619 45.3993 11.6771 44.6472C12.5102 44.1317 13.5997 43.5301 14.7211 43.1941C15.3513 43.0053 15.9172 42.8395 16.4623 42.7908ZM20.2074 44.3064C18.8259 44.105 17.1779 44.2328 16.5951 44.2849C16.2285 44.3177 15.8118 44.4329 15.1517 44.6306C14.2203 44.9097 13.2644 45.4293 12.4672 45.9226C11.4018 46.5819 11.2985 46.8913 10.7582 47.3835C10.2085 47.8842 9.9623 48.1897 9.34608 48.9099C8.60411 49.777 8.3068 50.0529 7.74256 50.8044C6.89673 51.9311 6.71191 52.4212 6.20057 53.2029C6.01706 53.4834 5.80558 53.7446 5.60877 53.9783C5.40097 54.225 5.22465 54.4239 5.05701 54.6345C4.79327 54.9659 4.55298 55.3152 4.33338 55.7419C4.18864 56.0232 4.03977 56.2847 3.92713 56.4851C3.96964 56.5008 4.01801 56.5178 4.07362 56.5349C4.20497 56.5754 4.3343 56.6083 4.4994 56.654C4.65191 56.6963 4.82879 56.7476 4.9994 56.8142C5.49188 57.0066 5.86009 57.2139 6.44373 57.3542C6.62909 57.3988 6.78883 57.4401 6.92323 57.4744C7.06048 57.5094 7.16494 57.5355 7.25233 57.5554C7.25626 57.5563 7.26027 57.5565 7.26405 57.5574C7.28829 57.4981 7.31505 57.4313 7.35096 57.3376C7.39354 57.2266 7.45327 57.076 7.5326 56.9324C7.77959 56.4851 8.20832 55.9126 8.60096 55.5505C8.89058 55.2834 9.37508 54.8032 9.90955 54.3337C10.4189 53.8863 10.828 53.4997 11.181 53.1648C11.5278 52.8358 11.8389 52.5389 12.1293 52.2976C12.7811 51.7558 13.1455 51.4922 14.0258 50.991C14.2329 50.873 14.3939 50.7497 14.5814 50.6013C14.765 50.456 14.9889 50.2733 15.2719 50.0974C15.4923 49.9604 15.65 49.8315 15.8256 49.6853C15.9984 49.5414 16.2091 49.3627 16.4867 49.2029C17.1463 48.823 17.5667 48.4674 18.1185 48.1003C18.6041 47.7773 19.0491 47.6077 19.5697 47.404C20.106 47.1943 20.7163 47.1404 21.2562 47.1296C21.7816 47.1191 22.3825 47.1516 22.7933 47.157C23.4043 47.1649 23.9026 47.3058 24.3139 47.4607C24.5134 47.5359 24.7018 47.618 24.8549 47.6833C24.927 47.7141 24.992 47.7413 25.0521 47.7654C24.9114 47.3993 24.6967 46.9305 24.2455 46.1072C24.022 45.6994 23.6508 45.464 23.1264 45.0466C23.1268 45.047 23.1202 45.0423 23.1049 45.0329C23.0894 45.0235 23.0681 45.0112 23.0394 44.9968C22.981 44.9675 22.9035 44.9339 22.806 44.8972C22.6101 44.8236 22.36 44.7477 22.0726 44.6736C21.499 44.5256 20.8192 44.3956 20.2074 44.3064Z" fill="black"/>
<path d="M4.44465 58.4443C4.5751 58.0515 4.99897 57.8387 5.39191 57.9687C5.68375 58.0655 5.87514 58.3245 5.90168 58.6123C5.95437 58.3494 6.14358 58.1226 6.41828 58.04L6.5091 58.0185C6.72817 57.9801 7.00188 58.0248 7.21516 58.2432C7.39393 58.4264 7.43119 58.6393 7.44172 58.7139C7.46637 58.8887 7.43801 59.0549 7.42024 59.1426L7.40754 59.206L7.3841 59.2666C7.19384 59.754 7.03146 60.1331 6.61066 61.0254L6.56281 61.1279L6.48664 61.2109C6.36604 61.3433 6.25625 61.4725 6.14094 61.6064C6.0309 61.7342 5.91008 61.8723 5.78938 61.9932C5.6 62.1827 5.17666 62.5819 4.59016 62.4941C4.47861 62.4774 4.2628 62.4296 4.0677 62.2568C3.84591 62.0603 3.74824 61.7915 3.74445 61.5273C3.73151 60.6228 3.81656 60.119 3.97492 59.6191C4.06488 59.3352 4.18056 59.0551 4.27375 58.8389C4.31859 58.7348 4.36612 58.6278 4.39582 58.5596C4.41214 58.5221 4.42459 58.4924 4.43391 58.4697C4.44408 58.445 4.44642 58.439 4.44465 58.4443ZM5.88899 58.8408C5.8834 58.8662 5.87684 58.8918 5.86848 58.917C5.8429 58.9941 5.80218 59.0884 5.7718 59.1582C5.73379 59.2455 5.69724 59.3269 5.65168 59.4326C5.57313 59.6148 5.49217 59.8142 5.42805 60.0049C5.65713 59.5116 5.78569 59.2192 5.90363 58.9258C5.89711 58.8974 5.89215 58.8691 5.88899 58.8408Z" fill="black"/>
<path d="M3.10317 57.4668C3.30864 57.1072 3.76699 56.9821 4.12661 57.1875C4.48622 57.393 4.61136 57.8513 4.4059 58.2109C4.3258 58.3511 4.26541 58.4538 4.15786 58.7061C3.92856 59.2438 3.80741 59.5646 3.73012 59.7803C3.66151 59.9717 3.60351 60.1547 3.52993 60.3223C3.44971 60.505 3.39076 60.7028 3.34145 60.9014C3.3167 61.0011 3.29574 61.0936 3.27407 61.1885C3.25395 61.2765 3.23081 61.3782 3.20473 61.4678C3.10586 61.8075 3.03093 62.2303 2.9352 62.6797C2.91922 62.7548 2.91156 62.8366 2.90493 62.9463C2.89937 63.0383 2.89276 63.1995 2.87563 63.3408C2.83976 63.6364 2.81007 64.1511 2.78286 64.7891C2.76836 65.1291 2.77829 65.7816 2.79946 66.2842C2.83352 67.0925 2.89908 67.4178 2.92055 67.6338C2.93571 67.7861 2.98126 67.983 3.04848 68.2207C3.09926 68.4002 3.20613 68.7433 3.25649 68.9277C3.27188 68.984 3.29261 69.0413 3.32387 69.125C3.35232 69.2011 3.39384 69.3113 3.42934 69.4287C3.44767 69.4893 3.50481 69.6169 3.62856 69.8418C3.74648 70.0561 3.89572 70.3075 4.07289 70.6094C4.21754 70.8558 4.34284 71.0429 4.44203 71.1855C4.51074 71.2844 4.51802 71.2932 4.57778 71.3789C4.61377 71.4305 4.66255 71.5011 4.7018 71.5713C4.93057 71.9805 5.16464 72.2406 5.36782 72.4912C5.63092 72.8157 5.81193 73.0025 5.92836 73.1035C6.0456 73.2052 6.16636 73.3255 6.26039 73.4199C6.36567 73.5256 6.44029 73.6007 6.49965 73.6523C6.7037 73.8299 6.93514 74.0186 7.29457 74.2754C7.49758 74.4204 7.74986 74.544 8.03872 74.625C8.40845 74.7287 8.64968 74.7439 9.53872 74.7939C10.1572 74.8287 11.2104 74.8098 11.8415 74.7988C12.1979 74.7926 12.4017 74.7793 12.5319 74.7666C12.6674 74.7533 12.7124 74.7426 12.8385 74.7246C13.4385 74.6392 13.6571 74.5141 13.9586 74.4014C14.2166 74.3049 14.6726 74.1595 15.0016 74.0566C15.2427 73.9813 15.5614 73.8809 15.9489 73.748C15.9788 73.7377 16.0687 73.6976 16.1969 73.623C16.3187 73.5522 16.4382 73.4715 16.5241 73.4033C16.7057 73.2591 16.9064 73.0539 17.1012 72.8379C17.296 72.6219 17.3892 72.4692 17.7789 71.9863C18.0517 71.6485 18.2716 71.3504 18.4293 71.1279C18.5082 71.0167 18.5716 70.9254 18.6168 70.8574C18.6394 70.8235 18.6565 70.7957 18.6696 70.7754C18.6817 70.7564 18.688 70.747 18.6891 70.7451C18.765 70.616 18.8445 70.4914 18.9196 70.3721C18.9968 70.2494 19.0801 70.1155 19.1784 69.9443C19.7212 68.9985 20.0352 68.6551 20.1022 68.5664C20.1492 68.4905 20.2101 68.3944 20.2956 68.251C20.3255 68.1976 20.3562 68.1397 20.4235 67.9766C20.5815 67.5938 21.0201 67.4115 21.403 67.5693C21.7859 67.7273 21.9682 68.1659 21.8102 68.5488C21.725 68.7552 21.669 68.8699 21.6012 68.9902L21.5973 68.998L21.5924 69.0059C21.4861 69.1848 21.4012 69.3188 21.3649 69.3779L21.3541 69.3955L21.3424 69.4131C21.175 69.6546 21.0072 69.7705 20.4791 70.6904C20.3665 70.8867 20.2715 71.0401 20.1891 71.1709C20.1046 71.3052 20.0428 71.4015 19.9821 71.5049C19.9034 71.6387 19.5279 72.2068 18.9459 72.9277C18.655 73.2882 18.4348 73.5986 18.2145 73.8428C18.0076 74.0722 17.7394 74.3537 17.4567 74.5781C17.1717 74.8044 16.7356 75.0639 16.4352 75.167C16.0282 75.3065 15.6939 75.4117 15.4489 75.4883C15.1109 75.5939 14.6961 75.7273 14.484 75.8066C14.2611 75.89 13.8531 76.0957 13.0504 76.21C12.8517 76.2383 12.6507 76.2852 11.8668 76.2988C11.2611 76.3094 10.1418 76.3306 9.45473 76.292C8.60657 76.2443 8.19098 76.2258 7.63344 76.0693C7.18163 75.9426 6.77076 75.7439 6.4225 75.4951C6.0235 75.21 5.75391 74.9927 5.5143 74.7842C5.40544 74.6894 5.28806 74.57 5.19692 74.4785C5.09462 74.3758 5.01422 74.2956 4.94594 74.2363C4.73599 74.0542 4.49226 73.7925 4.20278 73.4355C4.03719 73.2314 3.6994 72.8531 3.39223 72.3037C3.39125 72.3022 3.38113 72.2849 3.34731 72.2363C3.33274 72.2154 3.24835 72.0963 3.21059 72.042C3.09686 71.8784 2.94954 71.6581 2.77993 71.3691C2.61062 71.0806 2.44508 70.8035 2.31411 70.5654C2.18907 70.3382 2.06215 70.0892 1.99379 69.8633C1.9754 69.8024 1.95352 69.7438 1.9186 69.6504C1.88656 69.5647 1.8443 69.4507 1.80922 69.3223C1.74468 69.086 1.69362 68.9418 1.60512 68.6289C1.53304 68.374 1.45721 68.0722 1.42836 67.7822C1.41759 67.6738 1.3367 67.2081 1.30043 66.3477C1.27862 65.8301 1.26762 65.1276 1.28481 64.7246C1.31166 64.0953 1.3433 63.5231 1.38735 63.1602C1.39718 63.0789 1.39878 63.0068 1.40785 62.8564C1.41586 62.7238 1.4288 62.5532 1.4684 62.3672C1.54725 61.9971 1.64499 61.4589 1.7643 61.0488C1.79912 60.9292 1.81559 60.8212 1.88539 60.54C1.94388 60.3045 2.02654 60.0134 2.1559 59.7187C2.20165 59.6146 2.22139 59.543 2.31801 59.2734C2.40601 59.0279 2.53805 58.6798 2.77797 58.1172C2.91854 57.7876 3.01132 57.6275 3.10317 57.4668Z" fill="black"/>
<path d="M19.7372 64.9656C20.0045 64.6954 20.4389 64.6663 20.7412 64.9099C21.0333 65.1456 21.1011 65.5551 20.9179 65.8699C20.9069 65.8963 20.8922 65.9354 20.8681 65.9978C20.8208 66.1202 20.7521 66.2975 20.6621 66.4988C20.502 66.8566 20.407 67.1111 20.1601 67.4881C19.5951 68.3506 19.5043 68.4663 19.3964 68.6385C19.3118 68.7735 19.2313 68.8893 19.166 68.9822C19.097 69.0803 19.0506 69.1466 19.0117 69.2107C18.9301 69.3451 18.841 69.4841 18.7626 69.6062C18.6814 69.733 18.6149 69.8369 18.5664 69.9168C18.4603 70.0914 18.2926 70.3554 18.0908 70.6531C17.8771 70.9683 17.6975 71.2152 17.4941 71.4558C17.4217 71.5415 17.3704 71.6086 17.2831 71.7166C17.208 71.8096 17.1107 71.9257 16.996 72.032C16.8056 72.2085 16.5476 72.3764 16.4472 72.45C16.283 72.5704 16.1328 72.6668 15.9882 72.7527C15.9157 72.8153 15.8191 72.8937 15.7021 72.9568L15.6738 72.9724L15.6689 72.9744C15.3732 73.2223 14.9328 73.2065 14.6562 72.9275C14.3646 72.6334 14.366 72.1586 14.6601 71.867L14.7802 71.7615C14.8218 71.7292 14.8651 71.6998 14.9111 71.6736C14.9356 71.6597 14.9651 71.6473 14.9902 71.6355C15.0009 71.6271 15.0163 71.6132 15.041 71.5906L15.1025 71.5349L15.1738 71.4939C15.2905 71.4269 15.4138 71.3485 15.5605 71.241C15.786 71.0757 15.8689 71.0311 15.9765 70.9314C16.0085 70.9017 16.0503 70.8556 16.1162 70.7742C16.1702 70.7073 16.2643 70.5868 16.3486 70.4871C16.5044 70.3027 16.6505 70.1035 16.8486 69.8113C17.0372 69.533 17.1917 69.2897 17.2841 69.1375C17.3447 69.0378 17.4241 68.914 17.4999 68.7957C17.5788 68.6727 17.6588 68.5488 17.7294 68.4324C17.7992 68.3174 17.8756 68.2092 17.9384 68.1199C18.0049 68.0254 18.065 67.9398 18.1259 67.8426C18.2356 67.6675 18.3899 67.454 18.9062 66.6658C19.0697 66.4161 19.1056 66.3052 19.2929 65.8865C19.3655 65.7243 19.4213 65.5793 19.4687 65.4568C19.4908 65.3997 19.5158 65.3356 19.538 65.283C19.5493 65.2563 19.5644 65.2221 19.582 65.1873C19.5951 65.1612 19.6301 65.0932 19.6865 65.0232L19.7372 64.9656Z" fill="black"/>
<path d="M0.823316 71.9104C1.23737 71.9106 1.57332 72.2463 1.57332 72.6604C1.57332 72.7158 1.5652 72.7695 1.55378 72.8215C1.56241 72.8373 1.57286 72.8549 1.58211 72.8723C1.73871 73.1664 2.09476 73.689 2.23738 73.885C2.35293 74.0437 2.45752 74.1911 2.56453 74.3352C2.56453 74.3352 2.57065 74.3421 2.58406 74.3576C2.59737 74.373 2.61506 74.3931 2.63777 74.4172C2.6834 74.4658 2.74229 74.5259 2.81257 74.594C2.95303 74.7299 3.12805 74.8891 3.30867 75.0442C3.68882 75.3703 4.35607 75.7463 4.58015 75.8782L4.8282 76.0158C4.92395 76.0665 5.0457 76.1269 5.22078 76.2112L5.22273 76.2121C5.22769 76.2129 5.23599 76.2144 5.2491 76.216C5.66006 76.2678 5.95122 76.643 5.89949 77.0539C5.84774 77.4649 5.47257 77.7561 5.0616 77.7043C4.9256 77.6872 4.80372 77.6632 4.63386 77.593L4.61433 77.5852L4.59578 77.5764C4.18074 77.3773 4.01349 77.2822 3.83992 77.1838L3.8282 77.177V77.176C3.69117 77.0949 2.84631 76.6241 2.33113 76.1819C1.95542 75.8594 1.53147 75.46 1.36043 75.2297C1.24932 75.0801 1.12493 74.9045 1.02546 74.7678C0.873446 74.5589 0.465584 73.9665 0.257886 73.5764C0.236896 73.5371 0.143423 73.3744 0.0860115 73.2239C0.0283547 73.0726 -0.0690648 72.752 0.0752693 72.4016L0.110426 72.3274C0.20065 72.1594 0.350595 72.025 0.54109 71.9573C0.628492 71.9262 0.703791 71.9168 0.747144 71.9133C0.769416 71.9115 0.787921 71.9106 0.799879 71.9104C0.811167 71.9102 0.8219 71.9104 0.823316 71.9104ZM0.823316 73.4104C0.80244 73.4104 0.824851 73.4118 0.870191 73.4074C0.854659 73.4084 0.83909 73.4104 0.823316 73.4104Z" fill="black"/>
<path d="M26.0576 53.0886C26.2428 52.7182 26.6929 52.5675 27.0634 52.7527C27.4338 52.9379 27.5834 53.3881 27.3984 53.7586C27.3054 53.9445 27.1557 54.2779 27.0791 54.5076C27.0148 54.7002 26.8791 54.9906 26.7119 55.3484C26.5339 55.7292 26.292 56.2442 25.9804 56.9382C25.4475 58.1252 25.4589 58.298 25.1337 59.1043C24.9931 59.453 24.8376 59.8582 24.7216 60.2586C24.6136 60.6317 24.402 61.1966 24.2685 61.5964C24.1317 62.0061 24.0033 62.3594 23.7568 63.1961C23.6212 63.6563 23.5977 63.8782 23.4902 64.3396C23.4514 64.5058 23.4026 64.68 23.3564 64.8474C23.3087 65.0201 23.2598 65.199 23.2128 65.3982C23.1011 65.872 23.0254 66.2421 22.9257 66.5798C22.8911 66.6971 22.8659 66.8261 22.8349 66.992C22.8083 67.1345 22.7728 67.3189 22.7226 67.4968L22.7236 67.4978C22.7067 67.5652 22.6906 67.6316 22.6738 67.699C22.6652 67.7333 22.6604 67.7546 22.6552 67.7791C22.6503 67.8023 22.644 67.8325 22.6376 67.8767C22.5786 68.2867 22.198 68.5715 21.788 68.5125C21.3783 68.4532 21.0942 68.0727 21.1533 67.6629C21.1757 67.5075 21.1994 67.4129 21.2187 67.3357C21.2355 67.2683 21.2517 67.2009 21.2685 67.1336L21.2724 67.1189L21.2773 67.1033C21.3064 67.0046 21.3282 66.8883 21.3603 66.7166C21.3896 66.5596 21.4277 66.3569 21.4873 66.155C21.5712 65.8705 21.6268 65.5895 21.7529 65.0545C21.8068 64.8255 21.8628 64.6227 21.9111 64.448C21.9607 64.2685 21.999 64.1284 22.0292 63.9988C22.1054 63.6719 22.1694 63.2775 22.3183 62.7722C22.5745 61.9029 22.7135 61.5168 22.8457 61.1209C23.0151 60.6133 23.1811 60.1872 23.2812 59.8416C23.4189 59.3662 23.5978 58.9041 23.7431 58.5437C23.9717 57.9768 24.0917 57.4812 24.6113 56.324C24.9283 55.6179 25.1753 55.0929 25.3525 54.7136C25.5403 54.3118 25.6266 54.1217 25.6562 54.033C25.7648 53.7075 25.9502 53.3034 26.0576 53.0886Z" fill="black"/>
<path d="M168.605 107.699C168.605 107.285 168.941 106.949 169.355 106.949C169.769 106.95 170.105 107.285 170.105 107.699C170.105 109.914 169.975 114.667 169.873 116.007C169.755 117.574 169.646 119.003 169.548 122.365C169.458 125.462 169.515 131.414 169.547 134.657C169.59 138.942 169.837 140.273 169.94 142.546C169.986 143.569 170.059 144.499 170.133 145.528C170.207 146.554 170.283 147.667 170.333 149.037C170.395 150.727 170.693 155.757 170.857 159.155C170.898 159.999 170.922 160.778 170.948 161.676L171.053 164.911L171.054 164.919V164.928C171.087 167.275 171.087 171.628 171.055 174.003C171.022 176.399 170.955 176.682 170.888 177.536C170.856 177.949 170.495 178.258 170.082 178.226C169.669 178.194 169.361 177.833 169.393 177.42C169.46 176.56 169.523 176.324 169.555 173.983C169.587 171.626 169.587 167.303 169.554 164.966C169.455 162.278 169.439 160.914 169.358 159.227C169.196 155.87 168.896 150.787 168.834 149.092C168.785 147.749 168.711 146.656 168.637 145.636C168.563 144.618 168.488 143.662 168.441 142.614C168.345 140.501 168.09 138.961 168.047 134.672C168.015 131.443 167.957 125.456 168.048 122.322C168.147 118.93 168.257 117.477 168.377 115.894C168.474 114.609 168.605 109.899 168.605 107.699Z" fill="black"/>
<path d="M175.002 107.47C175.002 107.056 175.338 106.72 175.752 106.72C176.166 106.72 176.502 107.056 176.502 107.47C176.502 109.115 176.459 112.401 176.396 114.49C176.339 116.341 176.375 119.849 176.396 121.756C176.407 122.781 176.433 123.565 176.459 124.28C176.485 124.995 176.512 125.649 176.523 126.401C176.547 128.161 176.669 130.073 176.734 132.676C176.791 134.928 176.757 139.166 176.777 141.382C176.788 142.499 176.804 143.098 176.819 143.604C176.835 144.114 176.85 144.541 176.861 145.306C176.872 146.067 176.878 147.163 176.883 148.264C176.888 149.367 176.894 150.476 176.904 151.271C176.916 152.187 176.943 152.98 176.969 153.769C176.995 154.556 177.021 155.341 177.031 156.229C177.035 156.551 177.05 156.739 177.068 157.225C177.086 157.695 177.105 158.407 177.116 159.715C177.138 162.325 177.138 167.324 177.117 169.985C177.091 173.291 176.929 174.37 176.774 175.275C176.766 175.39 176.761 175.52 176.756 175.667C176.751 175.813 176.745 175.98 176.732 176.129C176.72 176.285 176.701 176.414 176.683 176.538C176.665 176.662 176.645 176.799 176.625 176.996C176.583 177.408 176.216 177.708 175.804 177.666C175.392 177.624 175.091 177.257 175.133 176.845C175.156 176.615 175.179 176.453 175.198 176.322C175.217 176.191 175.229 176.108 175.237 176.007C175.246 175.899 175.251 175.769 175.257 175.614C175.262 175.468 175.268 175.298 175.28 175.141L175.283 175.106L175.288 175.072C175.429 174.251 175.591 173.276 175.617 169.973C175.638 167.319 175.638 162.329 175.616 159.728C175.606 158.43 175.586 157.734 175.569 157.281C175.553 156.844 175.535 156.593 175.531 156.247C175.521 155.377 175.496 154.607 175.47 153.818C175.444 153.03 175.417 152.224 175.404 151.291C175.394 150.489 175.388 149.372 175.383 148.271C175.378 147.168 175.373 146.08 175.362 145.327C175.352 144.578 175.335 144.165 175.319 143.65C175.303 143.133 175.288 142.524 175.277 141.396C175.256 139.119 175.291 134.959 175.234 132.713C175.172 130.228 175.047 128.149 175.023 126.423C175.012 125.692 174.986 125.057 174.96 124.336C174.934 123.615 174.907 122.816 174.896 121.772C174.875 119.879 174.839 116.334 174.897 114.444C174.96 112.372 175.002 109.101 175.002 107.47Z" fill="black"/>
<path d="M124.366 105.68C125.648 105.673 126.464 105.847 127.207 105.963C127.86 106.064 128.514 106.141 130.348 106.192C130.824 106.205 130.85 106.243 132.391 106.26C133.148 106.269 134.251 106.274 135.363 106.278C136.474 106.282 137.594 106.286 138.379 106.295C140.719 106.32 142.105 106.45 142.756 106.502C143.097 106.529 144.962 106.585 147.604 106.568C148.067 106.565 148.337 106.553 148.624 106.539C148.918 106.525 149.233 106.509 149.77 106.5C150.299 106.491 151.048 106.486 151.797 106.482C152.549 106.478 153.303 106.474 153.854 106.466C154.519 106.455 155.147 106.434 155.812 106.413C156.477 106.392 157.176 106.372 157.977 106.363C158.44 106.358 159.089 106.338 159.909 106.315C160.724 106.293 161.695 106.269 162.784 106.26C163.158 106.258 163.373 106.246 163.671 106.232C163.974 106.218 164.346 106.202 165.016 106.193C166.341 106.176 168.846 106.175 170.207 106.192C172.149 106.216 173.285 106.386 174.177 106.468C175.201 106.563 176.182 106.658 177.391 106.868C177.747 106.93 178.134 106.962 178.641 107.001C179.14 107.039 179.737 107.082 180.471 107.169C180.94 107.224 181.197 107.232 181.799 107.287C182.89 107.387 183.755 107.334 187.188 107.385C190.355 107.433 196.492 107.403 199.813 107.386C203.126 107.37 203.411 107.336 204.478 107.318C205.008 107.309 205.723 107.305 206.428 107.301C207.136 107.296 207.835 107.292 208.342 107.284C209.381 107.267 209.497 107.235 210.743 107.199C211.892 107.166 214.142 107.13 215.339 107.097C217.688 107.033 219.267 106.928 220.757 106.875C221.711 106.841 222.751 106.726 223.235 106.62L223.269 106.612L223.302 106.608C223.387 106.597 223.491 106.59 223.534 106.586C223.592 106.58 223.629 106.575 223.661 106.568C223.7 106.56 223.747 106.545 223.854 106.512C223.951 106.482 224.079 106.443 224.238 106.403C224.64 106.302 225.047 106.545 225.148 106.947C225.249 107.349 225.006 107.756 224.604 107.857C224.487 107.887 224.392 107.916 224.298 107.945C224.212 107.972 224.097 108.009 223.982 108.034C223.861 108.061 223.753 108.072 223.671 108.08C223.58 108.088 223.547 108.089 223.501 108.094C222.881 108.223 221.78 108.34 220.811 108.375C219.401 108.425 217.708 108.532 215.38 108.596C214.08 108.632 212.008 108.664 210.787 108.699C209.663 108.731 209.374 108.767 208.366 108.784C207.85 108.792 207.142 108.796 206.438 108.801C205.729 108.805 205.023 108.809 204.502 108.818C203.466 108.835 203.142 108.87 199.82 108.886C196.506 108.903 190.351 108.934 187.165 108.885C183.839 108.835 182.828 108.887 181.662 108.78C181.146 108.733 180.779 108.716 180.294 108.659C179.596 108.576 179.03 108.534 178.526 108.496C178.03 108.458 177.572 108.422 177.134 108.345C175.988 108.146 175.058 108.055 174.04 107.962C173.086 107.874 172.052 107.715 170.188 107.692C168.84 107.675 166.347 107.676 165.035 107.693C164.386 107.702 164.031 107.716 163.741 107.73C163.447 107.744 163.203 107.757 162.796 107.76C161.721 107.769 160.761 107.792 159.95 107.814C159.145 107.836 158.474 107.858 157.993 107.863C157.209 107.871 156.522 107.892 155.859 107.913C155.199 107.934 154.558 107.955 153.877 107.966C153.318 107.974 152.554 107.978 151.805 107.982C151.052 107.986 150.314 107.991 149.794 108C149.282 108.008 148.986 108.023 148.695 108.037C148.398 108.051 148.106 108.065 147.614 108.068C144.973 108.085 143.048 108.03 142.637 107.997C141.988 107.945 140.646 107.819 138.362 107.795C137.584 107.786 136.47 107.782 135.357 107.778C134.247 107.774 133.137 107.769 132.373 107.76C130.872 107.743 130.626 107.701 130.307 107.692C128.431 107.64 127.71 107.559 126.976 107.444C126.183 107.32 125.507 107.174 124.375 107.18C122.85 107.189 121.869 107.211 121.225 107.23C120.603 107.248 120.25 107.266 120.051 107.266C119.637 107.266 119.301 106.93 119.301 106.516C119.301 106.102 119.637 105.766 120.051 105.766C120.224 105.766 120.5 105.75 121.181 105.73C121.838 105.711 122.831 105.689 124.366 105.68Z" fill="black"/>
<path d="M118.061 107.544C118.061 107.018 118.06 106.464 118.089 106.062L118.091 106.038L118.094 106.014C118.136 105.706 118.186 105.44 118.233 105.196C118.279 104.957 118.32 104.748 118.356 104.523C118.435 103.316 118.583 101.98 118.669 100.842C118.713 100.267 118.816 99.7282 118.91 99.2153C119.007 98.6937 119.099 98.1817 119.144 97.6001C119.186 97.0518 119.273 96.5029 119.359 95.9321C119.445 95.3535 119.534 94.7228 119.592 93.9624C119.695 92.6024 119.704 90.1073 119.668 87.3423C119.628 84.2116 119.598 82.4482 119.548 81.3608C119.498 80.2817 119.43 79.9234 119.328 79.5816C119.203 79.1559 119.009 78.771 118.762 78.2153C118.524 77.6802 118.269 77.0514 118.101 76.2544C117.736 74.5255 117.831 72.3316 117.932 71.1597C117.994 70.437 118.034 69.6389 118.117 68.9517C118.2 68.2537 118.338 67.5441 118.642 66.937C118.741 66.7387 118.892 66.6081 119.003 66.5288C119.121 66.4449 119.25 66.3791 119.37 66.3267C119.612 66.2217 119.903 66.1362 120.201 66.065C120.804 65.9212 121.545 65.8115 122.241 65.7388C122.777 65.6829 123.28 65.5789 129.219 65.5239C134.944 65.4709 145.852 65.4187 157.516 65.4194C169.177 65.4202 181.249 65.4728 192.162 66.0376C203.077 66.6025 212.542 67.6797 217.419 68.1694C219.982 68.4267 221.559 68.5526 222.529 68.6548C223.517 68.759 224.062 68.853 224.612 69.0952C224.859 69.2042 225.163 69.4112 225.476 69.6372C225.806 69.876 226.211 70.1864 226.676 70.5425C227.611 71.2589 228.82 72.1873 230.281 73.2066C231.921 74.3518 233.559 75.4768 235.075 77.0396C235.5 77.4782 235.849 77.8171 236.311 78.2749C236.772 78.7317 237.335 79.296 238.179 80.1714C239.663 81.7115 242.113 84.4362 243.7 85.9009C244.208 86.3699 244.66 86.7638 245.052 87.1021C245.439 87.4355 245.784 87.7292 246.057 87.98C246.322 88.2242 246.574 88.4763 246.744 88.7368C246.923 89.0109 247.075 89.3925 246.951 89.8306C246.775 90.4583 246.308 91.1838 245.606 92.0923C244.25 93.8455 243.439 94.7524 242.182 95.6655C239.571 97.5621 237.471 99.0028 236.34 99.6353C235.681 100.004 234.901 100.516 234.145 101.026C233.404 101.525 232.672 102.032 232.158 102.357C230.893 103.155 229.78 103.786 229.017 104.468C228.411 105.01 227.749 105.667 227.206 106.245C226.935 106.533 226.699 106.798 226.517 107.015C226.323 107.247 226.225 107.385 226.198 107.434C225.996 107.796 225.54 107.926 225.178 107.725C224.816 107.524 224.685 107.068 224.886 106.706C224.99 106.518 225.174 106.283 225.367 106.052C225.573 105.807 225.829 105.521 226.113 105.218C226.68 104.614 227.374 103.926 228.017 103.351C228.903 102.558 230.198 101.819 231.357 101.088C231.846 100.78 232.534 100.302 233.306 99.7817C234.063 99.2716 234.889 98.7288 235.608 98.3267C236.649 97.7444 238.679 96.3562 241.301 94.4517C242.383 93.6661 243.089 92.8948 244.419 91.1743C245.049 90.3596 245.349 89.8562 245.47 89.5317C245.403 89.4387 245.275 89.2982 245.041 89.0835C244.792 88.8542 244.475 88.5851 244.073 88.2378C243.675 87.8953 243.208 87.4894 242.682 87.0034C241.055 85.5019 238.51 82.6765 237.099 81.2124C236.265 80.3471 235.71 79.7916 235.255 79.3413C234.802 78.892 234.437 78.5365 233.997 78.0835C232.599 76.6417 231.084 75.5972 229.422 74.437C227.931 73.3964 226.698 72.4491 225.763 71.7329C225.293 71.3727 224.907 71.077 224.597 70.853C224.27 70.6166 224.087 70.504 224.006 70.4683C223.689 70.3283 223.349 70.25 222.371 70.147C221.375 70.042 219.903 69.9261 217.27 69.6616C212.373 69.17 202.955 68.0972 192.085 67.5347C181.215 66.9721 169.179 66.9202 157.516 66.9194C145.855 66.9187 134.952 66.971 129.233 67.0239C123.309 67.0788 122.861 67.1825 122.397 67.231C121.734 67.3002 121.064 67.4011 120.549 67.5239C120.289 67.5859 120.095 67.6476 119.968 67.7026C119.955 67.7083 119.943 67.7143 119.933 67.7192C119.777 68.0767 119.677 68.5422 119.607 69.1304C119.528 69.7914 119.496 70.4799 119.427 71.2876C119.329 72.4338 119.252 74.4433 119.569 75.9448C119.705 76.5926 119.913 77.1107 120.133 77.605C120.344 78.0786 120.604 78.606 120.767 79.1558C120.918 79.668 120.995 80.1659 121.047 81.2915C121.099 82.4097 121.128 84.2022 121.168 87.3228C121.203 90.0769 121.196 92.6385 121.087 94.0757C121.025 94.8912 120.93 95.5648 120.842 96.1538C120.753 96.7506 120.676 97.2336 120.639 97.7153C120.587 98.3839 120.482 98.9653 120.385 99.4878C120.287 100.019 120.202 100.476 120.165 100.956C120.068 102.236 119.93 103.405 119.849 104.663L119.847 104.696L119.842 104.73C119.8 104.997 119.751 105.244 119.706 105.478C119.662 105.708 119.619 105.936 119.583 106.194C119.56 106.528 119.561 107.008 119.561 107.544C119.561 107.958 119.225 108.294 118.811 108.294C118.397 108.294 118.061 107.959 118.061 107.544Z" fill="black"/>
<path d="M150.269 72.0479C150.681 72.0089 151.047 72.3123 151.086 72.7246C151.125 73.1369 150.822 73.503 150.41 73.542C150.115 73.5699 149.348 73.8918 148.274 75.0547C147.422 75.9779 147.359 76.814 147.357 78.2783C147.357 78.5312 147.469 78.7835 147.764 79.0781C148.069 79.3836 148.508 79.671 149.038 79.9776C149.427 80.2027 150.087 80.436 151.117 80.4932C151.127 80.4842 151.141 80.4735 151.156 80.457C151.193 80.4176 151.226 80.3801 151.283 80.3145C151.655 79.8894 151.635 79.4117 151.734 78.5801C151.747 78.4703 151.754 78.3868 151.758 78.3213C150.965 78.1297 150.636 78.131 150.283 78.0567L150.275 78.0547C150.205 78.0391 150.166 78.0298 150.108 78.0195C150.053 78.0097 149.976 77.9988 149.853 77.9863C149.44 77.9446 149.14 77.5762 149.182 77.1641C149.223 76.7521 149.592 76.4525 150.004 76.4942C150.316 76.5258 150.459 76.5595 150.591 76.5889H150.592C150.687 76.609 151.293 76.665 152.185 76.8819L152.583 76.9854L152.894 77.0703L153.046 77.3535C153.352 77.9232 153.255 78.4931 153.224 78.7578C153.159 79.2983 153.174 80.432 152.411 81.3028C152.287 81.4442 151.862 82.0328 151.095 81.9951C149.846 81.9337 148.928 81.6468 148.286 81.2754C147.746 80.9626 147.157 80.5937 146.702 80.1387C146.237 79.673 145.857 79.0606 145.857 78.2764C145.859 76.7775 145.901 75.4135 147.172 74.0371C148.325 72.7884 149.414 72.1288 150.269 72.0479Z" fill="black"/>
<path d="M162.681 72.7898C162.983 72.8203 163.228 73.0317 163.316 73.3132C163.37 73.3416 163.424 73.3695 163.476 73.3982C163.779 73.5632 164.117 73.7594 164.436 73.9597L164.749 74.1599L164.816 74.2058L164.873 74.2644C165.13 74.5304 165.502 74.9826 165.803 75.5427C166.1 76.0972 166.36 76.8203 166.302 77.6023C166.248 78.3261 166.09 79.0782 165.857 79.7087C165.741 80.0241 165.6 80.3265 165.432 80.5857C165.271 80.8359 165.052 81.097 164.761 81.2654C164.23 81.5721 163.439 82.0226 162.364 82.156C161.897 82.214 161.155 82.2722 160.404 82.2C159.685 82.1307 158.794 81.9276 158.189 81.322C158.171 81.3035 158.147 81.2825 158.091 81.2341C158.043 81.1937 157.967 81.1293 157.893 81.0525C157.731 80.8831 157.55 80.6272 157.509 80.2566C157.432 79.5766 157.374 78.7601 157.437 77.9714C157.5 77.1967 157.688 76.3547 158.182 75.699C158.764 74.9289 159.625 73.8461 160.828 73.3474C160.901 73.3171 160.973 73.2909 161.042 73.2634C161.169 73.0291 161.414 72.8679 161.699 72.8679C161.815 72.8679 161.963 72.8692 162.119 72.8796C162.174 72.8636 162.225 72.8462 162.271 72.8347C162.344 72.8167 162.476 72.7859 162.604 72.7859L162.681 72.7898ZM162.193 74.4294C161.987 74.5017 161.724 74.6 161.403 74.7332C160.623 75.0568 159.977 75.811 159.38 76.6023C159.136 76.9249 158.986 77.432 158.932 78.0925C158.882 78.7197 158.925 79.402 158.994 80.03C159.009 80.0442 159.03 80.0641 159.064 80.0935C159.106 80.1291 159.181 80.1921 159.251 80.2625C159.473 80.4853 159.919 80.6462 160.549 80.7068C161.147 80.7643 161.768 80.7178 162.18 80.6667C162.932 80.5734 163.497 80.2631 164.011 79.9666C164.013 79.965 164.028 79.9542 164.056 79.9255C164.087 79.8922 164.127 79.8423 164.172 79.7722C164.263 79.6305 164.359 79.4345 164.449 79.1902C164.629 78.7009 164.762 78.0872 164.806 77.491C164.836 77.1008 164.705 76.6699 164.48 76.2507C164.278 75.874 164.026 75.5576 163.846 75.3621C163.5 75.1373 163.106 74.9043 162.76 74.7156C162.574 74.6145 162.407 74.5291 162.273 74.4656C162.245 74.4519 162.217 74.4404 162.193 74.4294Z" fill="black"/>
<path d="M175.458 72.8149L175.906 72.8452L176.046 72.8589L176.171 72.9223C177.216 73.4482 178.105 74.1998 178.382 75.0659C178.584 75.6947 178.996 76.6063 178.794 77.9721C178.698 78.6191 178.581 79.324 178.353 79.9448C178.122 80.5746 177.749 81.1953 177.089 81.5903C176.15 82.1528 175.15 82.821 173.532 82.5776C172.9 82.4826 172.272 82.3395 171.746 82.1557C171.483 82.0639 171.231 81.9563 171.01 81.8315C170.799 81.7117 170.569 81.549 170.401 81.3266C169.932 80.7055 169.451 79.1776 170.195 77.2612C170.455 76.5905 170.701 75.9836 170.939 75.5083C171.058 75.2699 171.185 75.0462 171.32 74.8559C171.45 74.6735 171.62 74.4748 171.843 74.3364C172.448 73.9618 172.998 73.7212 173.493 73.5727C173.527 73.454 173.59 73.3415 173.684 73.2485L173.787 73.1577C174.027 72.9656 174.265 72.9136 174.393 72.8852L174.401 72.8842C174.669 72.8279 175.03 72.7996 175.458 72.8149ZM175.584 74.3257C175.491 74.6352 175.208 74.8618 174.869 74.8618C174.386 74.8618 173.648 74.982 172.633 75.6108C172.654 75.598 172.621 75.6141 172.542 75.7251C172.468 75.8283 172.382 75.9772 172.281 76.1792C172.078 76.5846 171.854 77.1315 171.593 77.8032C171.024 79.2699 171.463 80.245 171.597 80.4223C171.59 80.4131 171.622 80.4546 171.75 80.5268C171.868 80.594 172.032 80.6662 172.24 80.7387C172.656 80.8839 173.189 81.009 173.755 81.0942C174.775 81.2476 175.336 80.8913 176.318 80.3032C176.576 80.1487 176.78 79.8773 176.945 79.4282C177.113 78.9701 177.212 78.4079 177.309 77.7534C177.449 76.8062 177.192 76.2662 176.954 75.5229C176.867 75.2531 176.464 74.7786 175.619 74.3286C175.607 74.3277 175.595 74.3264 175.584 74.3257Z" fill="black"/>
<path d="M188.164 71.5937L188.219 71.6025C189.645 71.8317 191.108 72.0802 192.109 73.5762C192.864 74.7034 193.603 75.8273 193.549 77.1933C193.513 78.0874 193.451 78.9133 193.364 79.5761C193.321 79.9068 193.27 80.2087 193.209 80.4638C193.152 80.7005 193.072 80.9653 192.943 81.1748C192.825 81.3675 192.511 82.4924 191.417 83.2607C191.199 83.414 190.864 83.6751 190.413 83.8379C189.94 84.0085 189.384 84.063 188.659 83.9638C187.663 83.8275 187.018 83.7487 185.901 83.4844C185.848 83.4717 185.69 83.4372 185.533 83.3437C185.351 83.2354 185.219 83.0813 185.127 82.9023C184.977 82.6097 184.923 82.2125 184.89 81.747C184.821 80.7907 184.837 78.8977 184.806 77.9668C184.766 76.7753 184.705 76.4451 184.674 76.1914C184.602 75.6103 184.49 74.2046 184.49 73.6181C184.49 73.3555 184.626 73.1252 184.83 72.9912C184.793 72.7481 184.874 72.4918 185.071 72.3164C185.337 72.0804 185.464 71.9875 185.625 71.8955L185.674 71.8672L185.728 71.8476C186.3 71.6276 186.867 71.5779 188.109 71.5928L188.164 71.5937ZM188.034 73.0928C186.932 73.0814 186.59 73.1328 186.327 73.2246C186.317 73.2312 186.306 73.2377 186.292 73.248C186.252 73.2786 186.186 73.3328 186.067 73.4385C186.04 73.4629 186.01 73.4842 185.98 73.5039C185.986 73.5412 185.99 73.5792 185.99 73.6181C185.99 74.1199 186.096 75.4587 186.163 76.0078C186.196 76.2759 186.262 76.658 186.305 77.917C186.341 79.0017 186.318 80.6955 186.386 81.6406C186.399 81.8291 186.415 81.9657 186.431 82.0644C187.356 82.2762 187.923 82.3489 188.863 82.4775C189.406 82.5517 189.709 82.4972 189.904 82.4267C190.121 82.3484 190.266 82.2362 190.555 82.0332C191.324 81.4929 191.209 81.1301 191.666 80.3877C191.664 80.3904 191.701 80.3193 191.75 80.1142C191.795 79.9278 191.838 79.6813 191.878 79.3799C191.957 78.7779 192.015 78.0011 192.05 77.1328C192.082 76.334 191.669 75.6145 190.862 74.4101C190.27 73.5261 189.474 73.3257 188.034 73.0928Z" fill="black"/>
<path d="M143.524 88.4336C143.904 88.425 144.237 88.7055 144.285 89.0908C144.333 89.48 144.074 89.8348 143.697 89.915C143.714 89.9106 143.711 89.9109 143.68 89.9229C143.646 89.9362 143.591 89.9594 143.516 89.9961C143.366 90.0694 143.158 90.184 142.905 90.3418C142.4 90.6571 141.734 91.1361 141.019 91.79C140.333 92.4174 140.209 93.0116 139.994 93.7422C139.846 94.2457 139.88 94.6388 139.829 95.2539C139.79 95.717 139.798 96.4257 139.861 97.1377C139.925 97.8637 140.04 98.5071 140.179 98.874C140.195 98.9157 140.233 98.983 140.465 99.1416C140.483 99.1539 140.558 99.1926 140.733 99.2197C140.901 99.2458 141.113 99.2538 141.36 99.2451C141.823 99.2288 142.338 99.1539 142.795 99.0781C143.36 98.8209 143.973 98.5364 144.355 98.3311C144.421 98.2791 144.587 98.1531 144.766 98.0625C145.136 97.8759 145.587 98.0239 145.774 98.3936C145.961 98.7633 145.812 99.2147 145.442 99.4014C145.405 99.4199 145.38 99.4366 145.352 99.457C145.335 99.4698 145.32 99.4827 145.293 99.5039C145.269 99.5227 145.233 99.5493 145.194 99.5772L145.159 99.6025L145.12 99.624C144.664 99.8735 143.923 100.214 143.327 100.485L143.238 100.526L143.142 100.542C142.655 100.625 142.015 100.723 141.413 100.744C141.111 100.755 140.797 100.747 140.503 100.701C140.217 100.657 139.894 100.568 139.616 100.378C139.329 100.181 138.963 99.8958 138.777 99.4072C138.561 98.8388 138.434 98.0253 138.367 97.2695C138.299 96.4997 138.287 95.7006 138.335 95.1279C138.366 94.7521 138.35 94.0155 138.555 93.3174C138.752 92.6486 138.965 91.6349 140.007 90.6826C140.793 89.9637 141.532 89.4305 142.111 89.0693C142.4 88.8891 142.654 88.749 142.857 88.6494C142.958 88.6 143.053 88.5573 143.137 88.5244C143.204 88.4986 143.322 88.4551 143.448 88.4395L143.524 88.4336Z" fill="black"/>
<path d="M147.729 100.131C147.729 100.095 147.729 99.9521 147.748 99.7846C147.757 99.7064 147.771 99.6202 147.779 99.563C147.789 99.498 147.796 99.4407 147.801 99.3813C147.875 98.4662 148.105 96.9033 148.128 95.0522C148.141 94.0116 148.104 91.9641 148.17 90.8013C148.251 89.3762 148.362 88.8127 148.55 88.437C148.735 88.0665 149.185 87.9159 149.556 88.1011C149.926 88.2862 150.076 88.7365 149.892 89.1069C149.862 89.1658 149.751 89.4243 149.668 90.8872C149.604 92.012 149.641 93.9336 149.627 95.0718C149.603 96.9872 149.36 98.7105 149.296 99.5034C149.287 99.6099 149.274 99.7044 149.263 99.7798C149.251 99.8627 149.244 99.9067 149.239 99.9526C149.23 100.034 149.229 100.108 149.229 100.131C149.229 100.545 148.894 100.881 148.479 100.881C148.065 100.881 147.73 100.545 147.729 100.131Z" fill="black"/>
<path d="M152.174 91.5676V89.5129C152.174 89.0988 152.509 88.763 152.924 88.7629C153.338 88.7629 153.674 89.0987 153.674 89.5129V91.5676C153.674 93.0777 153.673 95.8255 153.66 97.3381C153.646 98.8631 153.619 99.0669 153.604 99.3088C153.6 99.38 153.601 99.4399 153.601 99.4856C153.686 99.6667 153.7 99.8801 153.62 100.08C153.466 100.465 153.03 100.652 152.645 100.498C152.3 100.36 152.191 100.051 152.166 99.9758C152.126 99.8588 152.112 99.7457 152.106 99.6711C152.093 99.5142 152.1 99.3441 152.107 99.219C152.121 98.9934 152.146 98.8163 152.16 97.3245C152.173 95.8202 152.174 93.0808 152.174 91.5676ZM153.405 99.2317C153.396 99.2241 153.387 99.2168 153.378 99.2092C153.387 99.2165 153.396 99.2241 153.405 99.2317Z" fill="black"/>
<path d="M153.418 93.7839C153.832 93.784 154.168 94.1198 154.168 94.5339C154.168 94.9481 153.832 95.2839 153.418 95.2839C152.971 95.2839 152.569 95.2839 152.058 95.3357C151.542 95.3879 150.932 95.4887 150.539 95.5769C150.251 95.6604 150.056 95.7218 149.921 95.7634C149.855 95.7838 149.793 95.8032 149.742 95.8171C149.717 95.8242 149.683 95.8333 149.648 95.8406C149.622 95.8461 149.552 95.8601 149.467 95.8601C149.053 95.8601 148.717 95.5243 148.717 95.1101C148.717 94.7379 148.988 94.4306 149.344 94.3718C149.369 94.3649 149.409 94.3525 149.479 94.3308C149.617 94.2883 149.831 94.2215 150.145 94.1306L150.166 94.1248L150.188 94.1199C150.643 94.0165 151.325 93.9024 151.907 93.8435C152.502 93.7834 152.97 93.7839 153.418 93.7839Z" fill="black"/>
<path d="M161.633 88.7854C162.034 88.6853 162.442 88.9295 162.542 89.3313C162.543 89.335 162.543 89.3392 162.544 89.343C162.823 89.3651 163 89.3892 163.158 89.4328L163.314 89.4836L163.351 89.4992C163.495 89.562 163.652 89.6031 163.855 89.6399L163.949 89.6565L164.035 89.6965C164.43 89.8778 165.465 90.1529 166.463 91.1526C167.011 91.7021 168.025 92.7629 167.94 94.591C167.913 95.1711 167.89 95.8317 167.803 96.4397C167.718 97.0406 167.561 97.688 167.207 98.2111C166.381 99.431 165.197 100.491 164.232 100.926C163.79 101.125 163.211 101.361 162.611 101.489C162.026 101.614 161.31 101.661 160.667 101.357C160.154 101.114 159.583 100.814 159.103 100.49C158.864 100.329 158.631 100.151 158.436 99.9611C158.249 99.7792 158.05 99.5416 157.941 99.2531C157.665 98.521 157.463 97.2753 157.54 95.9797C157.585 95.2186 157.71 94.5528 157.985 93.8147C158.204 93.2277 158.738 91.691 159.921 90.1594C160.615 89.2609 161.184 88.8971 161.633 88.7854ZM161.779 90.3684C161.63 90.4817 161.405 90.6923 161.108 91.0764C160.079 92.4088 159.61 93.7482 159.39 94.3381C159.174 94.9204 159.074 95.4369 159.037 96.0676C158.97 97.1917 159.155 98.2222 159.345 98.7238C159.342 98.7164 159.365 98.7718 159.482 98.886C159.591 98.9923 159.746 99.1142 159.942 99.2463C160.334 99.5102 160.829 99.774 161.308 100.001C161.514 100.098 161.84 100.12 162.298 100.023C162.741 99.9281 163.205 99.7438 163.615 99.5588C164.261 99.2674 165.248 98.4287 165.965 97.3703C166.126 97.1317 166.243 96.7564 166.318 96.2287C166.392 95.7083 166.414 95.1332 166.442 94.5217C166.496 93.3656 165.895 92.7063 165.401 92.2121C164.692 91.5015 164.094 91.3553 163.505 91.0988C163.278 91.0546 163.036 90.9924 162.786 90.8869V90.8879C162.768 90.8812 162.757 90.8768 162.721 90.8703C162.673 90.8615 162.585 90.8504 162.414 90.8371C162.12 90.8142 161.882 90.624 161.779 90.3684Z" fill="black"/>
<path d="M175.634 100.131C175.634 99.2135 175.634 98.3037 175.648 97.7864C175.664 97.2335 175.689 97.1897 175.702 95.9563C175.716 94.7317 175.716 92.4549 175.716 91.2981V90.0891C175.716 89.675 176.052 89.3393 176.466 89.3391C176.88 89.3391 177.216 89.6749 177.216 90.0891V91.2981C177.216 92.451 177.216 94.738 177.202 95.9729C177.189 97.1989 177.16 97.373 177.147 97.8284C177.134 98.3194 177.134 99.202 177.134 100.131C177.134 100.545 176.798 100.881 176.384 100.881C175.97 100.881 175.634 100.545 175.634 100.131Z" fill="black"/>
<path d="M176.127 85.4792V85.1501C176.127 84.7359 176.463 84.4001 176.877 84.4001C177.291 84.4001 177.627 84.7359 177.627 85.1501V85.4792C177.627 85.8935 177.291 86.2292 176.877 86.2292C176.463 86.2292 176.127 85.8935 176.127 85.4792Z" fill="black"/>
<path d="M188.535 89.969C188.92 89.8154 189.356 90.0024 189.51 90.387C189.663 90.7716 189.476 91.2079 189.092 91.3616C188.9 91.4381 188.506 91.7114 187.952 92.2679C187.42 92.8023 186.799 93.5401 186.15 94.4544C185.806 94.9395 185.637 95.6893 185.423 96.844C185.285 97.5869 185.323 98.0274 185.391 98.2972C185.459 98.5639 185.562 98.7141 185.701 98.9339C185.877 99.2123 186.13 99.3037 187.024 99.6136C187.725 99.8562 188.844 99.8518 190.077 99.7552C190.782 99.6999 191.245 99.5575 191.568 99.4143C191.909 99.2628 192.092 99.1182 192.365 98.9475L192.394 98.929L192.426 98.9134C192.519 98.8661 192.611 98.8323 192.654 98.8157C192.69 98.8019 192.704 98.7952 192.709 98.7932C192.686 98.8062 192.929 98.6284 193.265 98.5149C193.658 98.3827 194.083 98.5935 194.216 98.9856C194.348 99.3781 194.137 99.8043 193.745 99.9368C193.585 99.991 193.665 99.9762 193.448 100.099C193.346 100.156 193.248 100.194 193.197 100.214C193.157 100.23 193.135 100.238 193.121 100.244C192.943 100.36 192.612 100.592 192.176 100.785C191.688 101.002 191.057 101.183 190.194 101.25C188.989 101.345 187.569 101.39 186.533 101.031C185.84 100.791 184.952 100.558 184.432 99.7347C184.311 99.5417 184.072 99.1978 183.937 98.6643C183.804 98.1337 183.782 97.4667 183.948 96.5706C184.145 95.5082 184.354 94.3941 184.927 93.5862C185.614 92.6176 186.288 91.814 186.888 91.2102C187.467 90.6285 188.042 90.1658 188.535 89.969Z" fill="black"/>
<path d="M198.433 90.4182C198.433 90.0041 198.769 89.6684 199.183 89.6682C199.598 89.6682 199.933 90.004 199.933 90.4182C199.933 91.4261 199.933 92.4404 199.879 94.1379C199.825 95.8208 199.715 98.1811 199.674 99.3127C199.661 99.6487 199.655 99.8655 199.653 100.001C199.69 100.126 199.699 100.261 199.665 100.396C199.662 100.406 199.655 100.435 199.646 100.463C199.642 100.478 199.634 100.503 199.623 100.533C199.617 100.548 199.587 100.631 199.523 100.719C199.495 100.758 199.407 100.873 199.246 100.952C199.034 101.057 198.76 101.064 198.523 100.92C198.345 100.812 198.265 100.662 198.24 100.613C198.208 100.548 198.192 100.493 198.184 100.464C198.16 100.37 198.156 100.281 198.155 100.259C198.148 100.117 198.154 99.8194 198.175 99.2571C198.218 98.0905 198.325 95.7786 198.38 94.0901C198.434 92.4163 198.433 91.4204 198.433 90.4182Z" fill="black"/>
<path d="M199.411 89.063C199.593 89.0609 199.923 89.0724 200.53 89.1059C201.761 89.1739 204.217 89.3378 206.749 89.5893C207.161 89.6303 207.462 89.9977 207.421 90.4097C207.38 90.8218 207.013 91.1235 206.601 91.0825C204.095 90.8336 201.661 90.671 200.447 90.604C199.88 90.5727 199.596 90.5631 199.459 90.563C199.397 90.5794 199.333 90.5923 199.267 90.5923C198.852 90.5923 198.517 90.2564 198.517 89.8423V89.8325C198.517 89.8268 198.517 89.8173 198.518 89.8061C198.519 89.7841 198.521 89.7485 198.528 89.7056C198.545 89.611 198.584 89.4953 198.667 89.3843C198.82 89.1782 199.025 89.1178 199.085 89.1011C199.212 89.0657 199.345 89.0637 199.411 89.063Z" fill="black"/>
<path d="M205.605 95.0188C206.019 95.0191 206.355 95.3547 206.355 95.7688C206.355 96.1829 206.019 96.5185 205.605 96.5188C205.235 96.5188 204.879 96.5175 203.935 96.6125C202.971 96.7094 201.461 96.8987 200.681 96.9944C199.945 97.0846 199.848 97.095 199.761 97.095C199.347 97.095 199.011 96.7592 199.011 96.345C199.011 95.9308 199.347 95.595 199.761 95.595C199.759 95.595 199.752 95.5947 199.744 95.595C199.738 95.5952 199.734 95.5959 199.732 95.5959C199.739 95.5954 199.76 95.5939 199.812 95.5881C199.915 95.5768 200.111 95.5526 200.498 95.5051C201.267 95.4107 202.8 95.2194 203.784 95.1204C204.787 95.0195 205.193 95.0188 205.605 95.0188Z" fill="black"/>
<path d="M206.921 99.4636C207.336 99.4636 207.671 99.7994 207.671 100.214C207.671 100.628 207.336 100.964 206.921 100.964C205.826 100.964 204.777 100.964 204.16 100.977C203.545 100.991 203.403 101.016 202.851 101.046H202.845C201.665 101.1 200.775 101.142 200.127 101.159C199.508 101.175 199.027 101.174 198.715 101.115C198.309 101.038 198.041 100.646 198.118 100.239C198.195 99.832 198.588 99.5644 198.995 99.6414C199.119 99.6647 199.431 99.6774 200.087 99.6599C200.715 99.6432 201.585 99.6036 202.77 99.5486V99.5476C203.248 99.522 203.486 99.4926 204.126 99.4783C204.765 99.464 205.834 99.4636 206.921 99.4636Z" fill="black"/>
<path d="M11.8486 102.619C11.8486 101.764 11.8481 100.91 11.8652 100.409L11.8662 100.394L11.8672 100.377C11.9476 99.3429 12.0123 98.5158 12.0605 96.7744L12.0615 96.7343L12.0674 96.6943C12.1775 95.881 12.2555 94.6769 12.3223 93.7519C12.3718 93.0657 12.4177 92.4491 12.5586 91.6006C12.6398 91.1116 12.6583 90.7021 12.6855 90.2402C12.7126 89.7813 12.7477 89.2832 12.873 88.6914C12.9446 88.3532 12.9797 88.0336 13.0127 87.6992C13.0444 87.3773 13.0764 87.016 13.1484 86.665C13.218 86.3261 13.2736 85.9316 13.3525 85.4482C13.4288 84.9814 13.5227 84.4603 13.6631 83.9375C13.9751 82.7755 14.152 82.3065 14.2686 81.7138C14.4124 80.9823 14.8713 79.6726 15.1064 78.9707C15.2733 78.4726 15.4733 77.9128 15.7266 77.2978C15.8724 76.9436 16.009 76.4902 16.2354 75.8457C16.4516 75.2298 16.7279 74.5069 17.1162 73.7314C17.832 72.3019 18.3288 71.6399 18.7012 71.2675C18.9941 70.9748 19.4689 70.9747 19.7617 71.2675C20.0544 71.5604 20.0544 72.0352 19.7617 72.3281C19.5509 72.539 19.1399 73.0415 18.458 74.4033C18.1091 75.1001 17.8568 75.7577 17.6514 76.3427C17.4559 76.8993 17.2781 77.4689 17.1133 77.8691C16.8767 78.4437 16.6891 78.9701 16.5293 79.4472C16.269 80.2243 15.8607 81.3955 15.7412 82.0029C15.6135 82.6524 15.3845 83.3125 15.1123 84.3261C14.9917 84.7754 14.907 85.2377 14.833 85.6904C14.7617 86.1267 14.6959 86.5883 14.6182 86.9668C14.5654 87.2239 14.5404 87.4961 14.5059 87.8466C14.4725 88.1844 14.431 88.5758 14.3408 89.0019C14.2399 89.4788 14.2098 89.8841 14.1836 90.3281C14.1576 90.769 14.1349 91.2638 14.0381 91.8466C13.9093 92.6223 13.8673 93.1804 13.8184 93.8593C13.7548 94.7398 13.673 95.9849 13.5576 96.8564C13.509 98.5867 13.4449 99.4364 13.3652 100.461L13.3506 101.39C13.3486 101.762 13.3486 102.184 13.3486 102.619C13.3486 103.033 13.0128 103.369 12.5986 103.369C12.1844 103.369 11.8487 103.033 11.8486 102.619Z" fill="black"/>
<path d="M12.1758 101.506C12.1758 101.092 12.5116 100.756 12.9258 100.756C13.3398 100.756 13.6758 101.092 13.6758 101.506C13.6758 101.952 13.8537 102.972 14.1084 103.688C14.4635 104.684 14.6735 105.696 14.9522 106.672C15.0918 107.161 15.1723 107.656 15.2539 108.192C15.3367 108.736 15.4223 109.34 15.5694 110.099C15.959 112.109 16.3829 115.173 16.7559 117.715C16.885 118.595 16.9435 119.348 16.9854 120.016C17.0279 120.694 17.0514 121.25 17.1114 121.791C17.2507 123.049 17.2923 123.983 17.417 126.771C17.5141 128.94 17.4431 133.049 17.3936 135.415C17.3132 139.252 17.0345 140.402 16.9121 141.477C16.6604 143.686 16.4259 144.906 16.0645 146.302C15.8312 147.203 15.7105 147.927 15.6162 148.573C15.5238 149.207 15.4507 149.821 15.3164 150.423C15.0164 151.768 14.6537 153.099 14.293 154.21C14.1513 154.646 14.0456 155.107 13.9239 155.617C13.8053 156.114 13.673 156.652 13.4805 157.176C13.0302 158.401 12.6685 159.606 11.7696 161.93C11.1212 163.606 10.8333 164.612 9.60062 168.464C9.12909 169.937 8.52715 170.81 8.11819 171.604L8.08011 171.679L8.0264 171.743C7.39543 172.496 7.11002 172.924 6.91898 173.211C6.81805 173.362 6.71868 173.511 6.61624 173.665C6.38648 174.01 5.92085 174.103 5.5762 173.873C5.23165 173.643 5.13846 173.178 5.36819 172.833C5.47059 172.679 5.57004 172.53 5.67093 172.379C5.87545 172.072 6.1829 171.612 6.82523 170.841C7.30586 169.921 7.76225 169.287 8.17191 168.007C9.39282 164.192 9.70071 163.119 10.3701 161.389C11.2767 159.045 11.5784 158.002 12.0723 156.658C12.2309 156.227 12.3462 155.767 12.4649 155.27C12.5804 154.785 12.7015 154.254 12.8662 153.747C13.2109 152.686 13.5608 151.401 13.8516 150.097C13.9698 149.567 14.0316 149.044 14.1319 148.356C14.2303 147.681 14.3604 146.899 14.6123 145.926C14.9532 144.609 15.1766 143.46 15.4219 141.307C15.5512 140.171 15.8151 139.13 15.8936 135.384C15.9435 133.001 16.0134 128.948 15.919 126.838C15.7935 124.034 15.7539 123.155 15.6211 121.956C15.556 121.368 15.5284 120.748 15.4883 120.109C15.4476 119.46 15.392 118.753 15.2715 117.933C14.894 115.36 14.4787 112.351 14.0977 110.385C13.9434 109.589 13.8522 108.948 13.7715 108.418C13.6897 107.881 13.6204 107.471 13.5098 107.084C13.1857 105.95 13.0338 105.142 12.6953 104.191C12.3954 103.35 12.1758 102.157 12.1758 101.506Z" fill="black"/>
<path d="M5.47193 173.064C5.65771 172.694 6.10857 172.545 6.47876 172.73C6.67698 172.83 6.80945 173.006 6.86353 173.204C7.03614 173.18 7.21612 173.162 7.39283 173.151C7.62666 173.136 7.88632 173.127 8.16529 173.124L9.05298 173.128L9.1399 173.13L9.22388 173.151C9.99979 173.35 11.0797 173.696 12.0374 174.16C12.516 174.392 12.9867 174.663 13.3782 174.975C13.7605 175.28 14.128 175.671 14.3079 176.158C14.3534 176.281 14.4151 176.473 14.429 176.679C14.4415 176.868 14.4244 177.272 14.0696 177.555C13.7509 177.809 13.188 178.253 12.5042 178.6C11.827 178.944 10.9497 179.237 10.0159 179.089C9.39961 178.991 8.84781 178.711 8.27271 178.406C7.66921 178.086 7.07608 177.794 6.61646 177.477C6.1282 177.141 5.70825 176.725 5.46705 176.106C5.2569 175.567 5.19633 174.951 5.20728 174.438C5.21772 173.95 5.29608 173.415 5.47193 173.064ZM8.93287 174.627C8.37063 174.617 7.87777 174.622 7.48853 174.647C7.2837 174.66 7.11675 174.679 6.98853 174.699C6.94236 174.706 6.90375 174.715 6.87232 174.721C6.84603 174.755 6.81607 174.797 6.76685 174.871C6.75441 174.89 6.74058 174.907 6.72681 174.925C6.75033 175.16 6.79417 175.382 6.86451 175.562C6.9612 175.81 7.13157 176.01 7.46802 176.242C7.83324 176.494 8.3006 176.723 8.97583 177.081C9.57338 177.397 9.91562 177.554 10.2502 177.607C10.7401 177.685 11.2812 177.539 11.8245 177.263C12.2209 177.062 12.5753 176.813 12.8596 176.596C12.7942 176.481 12.6683 176.328 12.4436 176.149C12.1694 175.931 11.8049 175.714 11.384 175.511C10.5745 175.119 9.63715 174.812 8.93287 174.627Z" fill="black"/>
<path d="M11.9407 102.183C12.2325 101.889 12.7073 101.888 13.0012 102.179C13.156 102.333 13.2526 102.531 13.3069 102.65C13.3714 102.791 13.4337 102.955 13.4915 103.109C13.614 103.437 13.7316 103.767 13.8762 104.068C14.1038 104.542 14.1991 105.063 14.2854 105.573C14.3752 106.103 14.4636 106.688 14.6536 107.415C14.971 108.629 15.4969 110.515 16.0159 111.948C16.3609 112.901 16.5867 113.737 17.1585 115.134C17.354 115.611 17.5446 116.189 17.7278 116.763C17.9147 117.349 18.095 117.933 18.2796 118.464C18.458 118.977 18.6604 119.728 18.8792 120.547C19.1015 121.379 19.3469 122.305 19.6194 123.212C20.6797 126.738 20.8043 128.184 21.0413 129.248C21.261 130.234 21.5456 131.389 21.7923 132.447C22.0305 133.469 22.2447 134.443 22.2883 134.976C22.3302 135.488 22.4245 135.898 22.5335 136.31C22.6398 136.713 22.776 137.169 22.8587 137.681C22.9955 138.53 23.3164 139.886 23.4446 141.812C23.6232 144.496 23.5308 146.158 23.3538 147.304C23.2649 147.88 23.1559 148.317 23.0559 148.676C22.9504 149.054 22.8792 149.271 22.8294 149.51C22.7286 149.992 22.5382 150.443 22.2678 151.037C21.9913 151.644 21.6138 152.435 21.0784 153.668C20.3119 155.432 19.5398 156.615 19.1126 157.293C18.5314 158.215 18.0732 159.045 17.596 159.68C17.4301 159.901 17.2958 160.171 17.1604 160.506C17.0929 160.672 17.0287 160.846 16.9592 161.035C16.8911 161.22 16.8177 161.419 16.7376 161.619L16.7258 161.646L16.7131 161.673C16.6441 161.812 16.5614 161.943 16.5022 162.038C16.4355 162.145 16.3922 162.215 16.3596 162.28C16.301 162.397 16.2684 162.517 16.2151 162.73C16.1146 163.132 15.7075 163.376 15.3059 163.276C14.9041 163.176 14.6596 162.768 14.76 162.366C14.8091 162.17 14.8754 161.892 15.0198 161.605C15.0889 161.468 15.1714 161.337 15.2298 161.244C15.2894 161.148 15.3284 161.081 15.3587 161.023C15.4241 160.858 15.4863 160.691 15.551 160.515C15.6192 160.33 15.6921 160.135 15.7698 159.943C15.9247 159.56 16.1166 159.152 16.3967 158.779C16.8267 158.207 17.1904 157.53 17.844 156.493C18.2714 155.814 18.9864 154.718 19.7024 153.07C20.2445 151.822 20.6372 150.998 20.9026 150.415C21.174 149.819 21.2976 149.504 21.3606 149.203C21.4238 148.901 21.5282 148.573 21.6116 148.273C21.7007 147.953 21.794 147.577 21.8714 147.076C22.0266 146.07 22.1214 144.525 21.9475 141.912C21.8255 140.078 21.5328 138.879 21.3782 137.921C21.3109 137.503 21.2045 137.153 21.0833 136.694C20.9646 136.245 20.8455 135.738 20.7932 135.098C20.7606 134.701 20.5794 133.852 20.3313 132.788C20.0916 131.76 19.7985 130.567 19.5774 129.574C19.3094 128.371 19.2241 127.106 18.1829 123.643C17.9023 122.71 17.6507 121.759 17.4299 120.933C17.2056 120.094 17.0187 119.405 16.8626 118.956C16.6697 118.401 16.4795 117.785 16.2991 117.219C16.115 116.642 15.9408 116.117 15.7708 115.702C15.1895 114.283 14.9051 113.288 14.6048 112.459C14.0612 110.958 13.5221 109.017 13.2024 107.794C12.9923 106.99 12.8922 106.334 12.8059 105.824C12.7161 105.294 12.6472 104.974 12.5237 104.717C12.3422 104.338 12.1965 103.927 12.0872 103.635C12.029 103.479 11.9832 103.362 11.9436 103.275C11.9118 103.206 11.8985 103.19 11.9075 103.202C11.6523 102.908 11.6622 102.464 11.9407 102.183Z" fill="black"/>
<path d="M14.7754 162.312C14.9059 161.919 15.3306 161.706 15.7237 161.836C15.9258 161.903 16.0775 162.049 16.1621 162.228C16.1696 162.229 16.1771 162.23 16.1846 162.231L16.1836 162.232C16.4788 162.256 17.2658 162.368 18.1817 162.552C19.0337 162.723 20.0478 162.964 20.9385 163.273L21.3115 163.409L21.4854 163.476L21.6074 163.616C21.7809 163.816 22.1167 164.21 22.1856 164.742C22.261 165.325 22.3087 166.113 21.9824 166.758C21.9262 166.869 21.8294 167.052 21.6826 167.212C21.5288 167.38 21.2619 167.584 20.8789 167.594C19.9143 167.619 19.063 167.533 17.8789 167.387C16.812 167.255 15.5559 166.935 14.752 166.26C14.6755 166.196 14.5068 166.057 14.378 165.84C14.2388 165.605 14.1746 165.334 14.1846 165.03C14.213 164.166 14.3366 163.548 14.4766 163.092C14.5462 162.865 14.6173 162.686 14.6758 162.548C14.7456 162.383 14.7632 162.349 14.7754 162.312ZM15.8653 163.698C15.7829 164.014 15.7041 164.456 15.6836 165.078C15.6836 165.08 15.6837 165.082 15.6836 165.083C15.6923 165.091 15.7028 165.1 15.7168 165.112C16.1745 165.496 17.0631 165.775 18.0625 165.898C19.1424 166.031 19.8687 166.103 20.6348 166.097C20.6375 166.092 20.6417 166.087 20.6446 166.081C20.7466 165.879 20.772 165.505 20.6983 164.935C20.6971 164.926 20.6902 164.893 20.6524 164.83C20.6353 164.802 20.614 164.773 20.5899 164.741C19.7679 164.443 18.7651 164.199 17.8867 164.023C16.9349 163.832 16.1945 163.733 16.0469 163.724L16.0244 163.723L16.002 163.72C15.956 163.714 15.9103 163.706 15.8653 163.698Z" fill="black"/>
<path d="M12.8086 166.361C12.8086 165.602 12.808 164.831 12.835 164.331C12.8607 163.852 12.9125 163.511 13.041 163.257L13.1035 163.151C13.1769 163.04 13.2869 162.92 13.4512 162.838C13.6557 162.737 13.8539 162.748 13.8604 162.748L13.9365 162.751C14.3148 162.79 14.6104 163.109 14.6104 163.498C14.6104 163.716 14.5143 163.91 14.3652 164.047C14.354 164.129 14.3419 164.247 14.333 164.412C14.3088 164.862 14.3086 165.583 14.3086 166.361C14.3086 166.775 13.9728 167.111 13.5586 167.111C13.1444 167.111 12.8086 166.775 12.8086 166.361Z" fill="black"/>
<path d="M1.95703 176.007C1.95703 175.053 1.9564 174.063 2.01172 173.47C2.06279 172.922 2.17781 172.623 2.22168 172.505C2.25704 172.209 2.25879 171.969 2.25879 171.787C2.25879 171.373 2.59458 171.037 3.00879 171.037C3.42286 171.038 3.75879 171.373 3.75879 171.787C3.75879 171.991 3.75872 172.334 3.70215 172.762L3.69531 172.815L3.68066 172.866C3.65937 172.942 3.63349 173.013 3.61914 173.053C3.60287 173.098 3.59095 173.133 3.5791 173.173C3.55693 173.249 3.52668 173.376 3.50488 173.61C3.45779 174.115 3.45703 175.015 3.45703 176.007C3.45703 176.421 3.12125 176.757 2.70703 176.757C2.29282 176.757 1.95703 176.421 1.95703 176.007Z" fill="black"/>
</svg>
